<?xml version="1.0" standalone="no"?>
<!DOCTYPE svg PUBLIC "-//W3C//DTD SVG 1.1//EN" "http://www.w3.org/Graphics/SVG/1.1/DTD/svg11.dtd" >
<svg xmlns="http://www.w3.org/2000/svg" xmlns:xlink="http://www.w3.org/1999/xlink" version="1.1">
<metadata>
Created by FontForge 20201107 at Thu May 29 13:06:40 2025
 By 
(c) 2018 Microsoft Corporation. All rights reserved.
</metadata>
<defs>
<font id="Bahnschrift" horiz-adv-x="0" >
  <font-face 
    font-family="Bahnschrift"
    font-weight="400"
    font-stretch="semi-condensed"
    units-per-em="2048"
    panose-1="2 11 5 2 4 2 4 2 2 3"
    ascent="1626"
    descent="-422"
    x-height="1038"
    cap-height="1454"
    bbox="-1932 -511 1957 2014"
    underline-thickness="50"
    underline-position="-125"
    unicode-range="U+0020-2133"
  />
<missing-glyph horiz-adv-x="1228" 
d="M140 0v1454h948v-1454h-948zM312 172h605v1111h-605v-1111z" />
    <glyph glyph-name=".notdef" horiz-adv-x="1228" 
d="M140 0v1454h948v-1454h-948zM312 172h605v1111h-605v-1111z" />
    <glyph glyph-name=".null" 
 />
    <glyph glyph-name="nonmarkingreturn" horiz-adv-x="682" 
 />
    <glyph glyph-name="space" unicode=" " horiz-adv-x="325" 
 />
    <glyph glyph-name="exclam" unicode="!" horiz-adv-x="425" 
d="M114 1454h197v-1086h-197v1086zM114 197h197v-197h-197v197z" />
    <glyph glyph-name="quotedbl" unicode="&#x22;" horiz-adv-x="671" 
d="M89 1454h197v-510h-197v510zM385 1454h197v-510h-197v510z" />
    <glyph glyph-name="numbersign" unicode="#" horiz-adv-x="1108" 
d="M792 1454h160l-246 -1454h-160zM414 1454h159l-246 -1454h-159zM1053 1102v-165h-910v165h910zM995 518v-165h-910v165h910z" />
    <glyph glyph-name="dollar" unicode="$" horiz-adv-x="1032" 
d="M306 19q-84 34 -137.5 105t-78.5 183v0l188 70v0q25 -103 82 -152t151 -49q110 0 166 48.5t56 145.5v67q0 62 -30.5 101.5t-78.5 62t-124 45.5q-2 1 -4 1.5t-4 1.5q-4 2 -8 2.5t-9 1.5q-114 35 -184.5 70t-120.5 111t-50 206v43q0 126 47 212.5t139 130t228 43.5
q105 0 179 -30t122.5 -92.5t72.5 -162.5v0l-180 -71v0q-26 87 -72.5 126.5t-121.5 39.5q-106 0 -160 -47t-54 -138v-50q0 -65 31.5 -104.5t79 -61.5t131.5 -48q6 -2 12.5 -4t13.5 -4q4 -1 8 -2.5t8 -2.5q104 -34 170.5 -70t112 -111t45.5 -202v-67q0 -125 -47.5 -210
t-141 -128.5t-232.5 -43.5q-121 0 -205 34zM425 1631h187v-1808h-187v1808z" />
    <glyph glyph-name="percent" unicode="%" horiz-adv-x="1307" 
d="M915 1454h173l-705 -1454h-173zM821.5 47.5q-59.5 62.5 -59.5 173.5v165q0 112 59.5 174t168.5 62t168 -62t59 -176v-163q0 -112 -59.5 -174t-167.5 -62q-109 0 -168.5 62.5zM1040 154.5q18 19.5 18 56.5v187q0 35 -18 54t-50 19q-33 0 -50.5 -19t-17.5 -55v-186
q0 -37 17.5 -56.5t50.5 -19.5q32 0 50 19.5zM149.5 893.5q-59.5 62.5 -59.5 173.5v165q0 112 59.5 174t168.5 62t168 -62t59 -176v-163q0 -112 -59.5 -174t-167.5 -62q-109 0 -168.5 62.5zM368 1000.5q18 19.5 18 56.5v187q0 35 -18 54t-50 19q-33 0 -50.5 -19t-17.5 -55
v-186q0 -37 17.5 -56.5t50.5 -19.5q32 0 50 19.5z" />
    <glyph glyph-name="ampersand" unicode="&#x26;" horiz-adv-x="1180" 
d="M440 590q-66 84 -110.5 165t-68.5 166t-24 175q0 178 91 274t259 96q167 0 258 -93.5t91 -266.5v-64h-197v64q0 82 -39 125.5t-113 43.5t-114 -46.5t-40 -132.5q0 -63 18.5 -128t53.5 -129.5t86 -129.5l569 -709h-249zM355.5 557q-69.5 -60 -69.5 -170q0 -107 64 -166.5
t180 -59.5q109 0 186.5 67.5t118 196.5t40.5 311h187q0 -237 -67.5 -405.5t-196 -257t-310.5 -88.5q-124 0 -212 47.5t-134.5 137.5t-46.5 217q0 172 98 275t277 119l83 -164q-128 0 -197.5 -60z" />
    <glyph glyph-name="quotesingle" unicode="'" horiz-adv-x="325" 
d="M64 1454h197v-510h-197v510z" />
    <glyph glyph-name="parenleft" unicode="(" horiz-adv-x="580" 
d="M213.5 116q-74.5 240 -74.5 532q0 293 74.5 533t224.5 428l139 -104q-126 -169 -188.5 -383t-62.5 -474q0 -259 62.5 -473t188.5 -385l-139 -103q-150 189 -224.5 429z" />
    <glyph glyph-name="parenright" unicode=")" horiz-adv-x="580" 
d="M3 -210q126 171 188.5 385t62.5 473q0 260 -62.5 474t-188.5 383l139 104q150 -188 224.5 -428t74.5 -533q0 -292 -74.5 -532t-224.5 -429z" />
    <glyph glyph-name="asterisk" unicode="*" horiz-adv-x="719" 
d="M300 1162l111 90l207 -298l-125 -83zM101 954l207 298l111 -90l-193 -291zM31 1244l49 141l304 -110l-47 -136zM286 1567h147v-361h-147v361zM335 1275l304 110l49 -141l-306 -105z" />
    <glyph glyph-name="plus" unicode="+" horiz-adv-x="877" 
d="M787 764v-187h-692v187h692zM537 264h-191v812h191v-812z" />
    <glyph glyph-name="comma" unicode="," horiz-adv-x="395" 
d="M99 197h197v-197l-197 -193v390z" />
    <glyph glyph-name="hyphen" unicode="-" horiz-adv-x="857" 
d="M727 615v-187h-592v187h592z" />
    <glyph glyph-name="period" unicode="." horiz-adv-x="395" 
d="M99 197h197v-197h-197v197z" />
    <glyph glyph-name="slash" unicode="/" horiz-adv-x="663" 
d="M189 -276h-182l504 1902h183z" />
    <glyph glyph-name="zero" unicode="0" horiz-adv-x="990" 
d="M220.5 83q-95.5 98 -95.5 275v740q0 177 95.5 275t274.5 98q180 0 275 -97.5t95 -275.5v-740q0 -177 -95.5 -275t-274.5 -98t-274.5 98zM624.5 220.5q43.5 48.5 43.5 137.5v740q0 89 -43 137.5t-130 48.5q-86 0 -129.5 -48.5t-43.5 -137.5v-740q0 -89 43.5 -137.5
t129.5 -48.5t129.5 48.5z" />
    <glyph glyph-name="one" unicode="1" horiz-adv-x="616" 
d="M476 0h-197v1245l-214 -132v204l205 137h206v-1454z" />
    <glyph glyph-name="two" unicode="2" horiz-adv-x="939" 
d="M108 170l417 628q54 86 83 165t29 142v2q0 84 -41 128.5t-119 44.5q-81 0 -127 -55t-52 -160v-2h-203v2q9 131 55.5 221t127 136.5t192.5 46.5q120 0 202.5 -42t125 -123t42.5 -199v-1q0 -82 -33 -179t-96 -199l-348 -539h480v-187h-735v170z" />
    <glyph glyph-name="three" unicode="3" horiz-adv-x="948" 
d="M252.5 28q-83.5 43 -127.5 131t-50 224v0h199v0q4 -73 25.5 -118.5t61.5 -67.5t100 -22q83 0 129 45.5t46 128.5v123q0 91 -42 141t-119 50h-102v186h102q65 0 101 41.5t36 117.5v123q0 71 -39.5 109.5t-112.5 38.5q-50 0 -84 -22t-54 -67.5t-25 -118.5v0h-198v0
q7 136 50 224t121.5 131t194.5 43q164 0 254 -88.5t90 -250.5v-114q0 -81 -46 -148.5t-130 -108.5q95 -28 147.5 -105.5t52.5 -192.5v-115q0 -114 -43.5 -195t-127 -123.5t-201.5 -42.5q-125 0 -208.5 43z" />
    <glyph glyph-name="four" unicode="4" horiz-adv-x="1025" 
d="M105 396l402 1057h204l-390 -1045h629v-185h-845v173zM648 854h194v-855h-194v855z" />
    <glyph glyph-name="five" unicode="5" horiz-adv-x="975" 
d="M296.5 27q-78.5 42 -121.5 125t-50 204v1h197v-1q4 -90 46 -136.5t118 -46.5q79 0 123 50.5t44 142.5v251q0 91 -42.5 141t-119.5 50q-55 0 -95.5 -31.5t-58.5 -89.5h-180v767h666v-187h-469v-338q34 32 77.5 50t90.5 18q104 0 177.5 -44.5t112 -130t38.5 -205.5v-251
q0 -120 -42.5 -206t-124.5 -130.5t-197 -44.5q-111 0 -189.5 42z" />
    <glyph glyph-name="six" unicode="6" horiz-adv-x="921" 
d="M263 31.5q-82 46.5 -125 135.5t-43 214v94q0 84 19 161t57 167q6 13 12 26.5t12 26.5l276 598h213l-340 -725l-24 36q31 47 79 73t105 26q102 0 174.5 -44t110 -128t37.5 -202v-105q0 -126 -43 -216t-125 -137t-198 -47q-115 0 -197 46.5zM585 227q44 51 44 144v100
q0 97 -45 150.5t-129 53.5q-77 0 -120 -54t-43 -151v-100q0 -93 44 -143.5t124 -50.5q81 0 125 51z" />
    <glyph glyph-name="seven" unicode="7" horiz-adv-x="906" 
d="M801 1278l-349 -1278h-207l351 1267h-314v-192h-197v379h716v-176z" />
    <glyph glyph-name="eight" unicode="8" horiz-adv-x="997" 
d="M293 28.5q-86 43.5 -132 124.5t-46 191v129q0 94 47.5 173.5t129.5 121.5q-70 37 -111 102.5t-41 141.5v115q0 105 43.5 182t123.5 118.5t189 41.5q111 0 192.5 -41.5t125 -118.5t43.5 -182v-115q0 -77 -41.5 -143t-113.5 -101q84 -42 132 -121.5t48 -173.5v-129
q0 -110 -46.5 -191t-133.5 -124.5t-206 -43.5q-117 0 -203 43.5zM597 198q43 22 66 63t23 95v130q0 53 -23 92t-66 60t-101 21q-56 0 -97.5 -21t-64 -60.5t-22.5 -92.5v-131q0 -54 22.5 -94.5t64 -62t97.5 -21.5q58 0 101 22zM583 868q37 21 57 60t20 92v85q0 53 -20 92.5
t-57 60.5t-87 21q-48 0 -84 -21t-55.5 -60.5t-19.5 -93.5v-86q0 -52 19.5 -91t55.5 -59.5t84 -20.5q50 0 87 21z" />
    <glyph glyph-name="nine" unicode="9" horiz-adv-x="921" 
d="M578 724l23 -36q-29 -47 -77.5 -70.5t-107.5 -23.5q-98 0 -170.5 45t-111.5 128.5t-39 196.5v105q0 126 43 216t125.5 137t197.5 47q116 0 198 -47t124.5 -137t42.5 -216v-95q0 -82 -19.5 -159t-57.5 -167q-6 -13 -11.5 -26t-11.5 -26l-273 -596h-212zM585 831.5
q44 52.5 44 147.5v100q0 95 -44 147.5t-124 52.5q-81 0 -125 -52.5t-44 -148.5v-100q0 -95 44 -147t125 -52q80 0 124 52.5z" />
    <glyph glyph-name="colon" unicode=":" horiz-adv-x="395" 
d="M99 197h197v-197h-197v197zM99 1031h197v-197h-197v197z" />
    <glyph glyph-name="semicolon" unicode=";" horiz-adv-x="395" 
d="M99 197h197v-197l-197 -193v390zM99 1031h197v-197h-197v197z" />
    <glyph glyph-name="less" unicode="&#x3c;" horiz-adv-x="709" 
d="M362 666h-332l589 404v-238zM619 262l-589 404h332l257 -165v-239z" />
    <glyph glyph-name="equal" unicode="=" horiz-adv-x="755" 
d="M95 923h570v-187h-570v187zM95 596h570v-187h-570v187z" />
    <glyph glyph-name="greater" unicode="&#x3e;" horiz-adv-x="714" 
d="M95 1070l589 -404h-331l-258 166v238zM353 666h331l-589 -404v239z" />
    <glyph glyph-name="question" unicode="?" horiz-adv-x="798" 
d="M297.5 581.5q21.5 88.5 52 147t78.5 130.5q34 52 53.5 85.5t32 76t12.5 92.5v1q0 80 -38.5 124t-107.5 44q-74 0 -110 -56.5t-37 -174.5v0h-201v0q2 142 40.5 234.5t114.5 138t191 45.5q111 0 189 -42t119 -122t41 -193v-1q0 -71 -15.5 -126t-38 -95t-61.5 -94
q-45 -64 -73 -114.5t-47 -127t-19 -180.5h-197q0 119 21.5 207.5zM276 197h197v-197h-197v197z" />
    <glyph glyph-name="at" unicode="@" horiz-adv-x="1625" 
d="M544 83q-74 98 -74 295v298q0 189 86 283t258 94q171 0 256 -94t85 -284v-408l-126 -44q-19 -119 -84 -178.5t-179 -59.5q-148 0 -222 98zM930 213.5q39 51.5 39 156.5v316q0 96 -39 143.5t-118 47.5q-156 0 -156 -192v-315q0 -105 39 -156.5t117 -51.5q79 0 118 51.5z
M433 -309q-154 73 -231 218.5t-77 362.5v239t1 238q1 230 78.5 383.5t231 230.5t381.5 77q224 0 376 -77t229.5 -231t77.5 -383v-450q0 -160 -68.5 -237t-197.5 -77q-131 0 -197 68.5t-66 205.5l184 32q0 -70 21 -104.5t63 -34.5q44 0 64 31t20 98v468q0 173 -57.5 290
t-170.5 176t-278 59q-170 0 -284 -58.5t-171.5 -175t-58.5 -291.5q-1 -117 -1 -236.5v-240.5q0 -160 57.5 -267.5t171.5 -161t286 -53.5h298v-172h-298q-230 0 -384 73z" />
    <glyph glyph-name="A" unicode="A" horiz-adv-x="1116" 
d="M471 1454h174l436 -1454h-212l-311 1165l-311 -1165h-212zM266 505h598v-187h-598v187z" />
    <glyph glyph-name="B" unicode="B" horiz-adv-x="1091" 
d="M260 185h317q109 0 162.5 45.5t53.5 128.5v96q0 65 -22 111t-65.5 70.5t-108.5 24.5h-337v182h337q86 0 131.5 47t45.5 136v74q0 84 -48.5 127t-141.5 43h-324v184h341q120 0 203.5 -41t125.5 -117.5t42 -183.5v-77q0 -72 -25.5 -131t-76 -99.5t-123.5 -54.5
q76 -11 131 -53.5t84 -107t29 -144.5v-98q0 -106 -44 -184.5t-127.5 -120.5t-196.5 -42h-363v185zM140 1454h197v-1454h-197v1454z" />
    <glyph glyph-name="C" unicode="C" horiz-adv-x="1061" 
d="M323 40.5q-95 55.5 -146.5 158.5t-51.5 243v569q0 140 51.5 243.5t146.5 159t224 55.5q125 0 215.5 -50t142.5 -147t61 -236v0h-200v0q-7 77 -36 131t-76 82t-107 28q-68 0 -117.5 -32.5t-77 -92.5t-27.5 -141v-569q0 -81 27.5 -141t77 -92t117.5 -32q61 0 107.5 27.5
t75.5 81.5t36 132v0h200v0q-9 -139 -61.5 -236t-143 -147t-214.5 -50q-129 0 -224 55.5z" />
    <glyph glyph-name="D" unicode="D" horiz-adv-x="1114" 
d="M270 187h297q106 0 164.5 57.5t58.5 161.5v642q0 105 -58.5 162t-164.5 57h-297v187h291q136 0 232 -48t146 -140.5t50 -223.5v-629q0 -131 -50.5 -223.5t-146.5 -141t-232 -48.5h-290v187zM140 1454h197v-1454h-197v1454z" />
    <glyph glyph-name="E" unicode="E" horiz-adv-x="999" 
d="M140 1454h197v-1454h-197v1454zM239 187h680v-187h-680v187zM239 816h600v-187h-600v187zM239 1454h680v-187h-680v187z" />
    <glyph glyph-name="F" unicode="F" horiz-adv-x="950" 
d="M140 1454h197v-1454h-197v1454zM240 803h590v-187h-590v187zM240 1454h670v-187h-670v187z" />
    <glyph glyph-name="G" unicode="G" horiz-adv-x="1114" 
d="M989 783v-340q0 -140 -52 -243.5t-149 -159t-228 -55.5q-133 0 -231.5 52t-151 150t-52.5 230v594q0 140 52 243.5t149 159t228 55.5q126 0 217 -50t144 -147t62 -236v0h-212v0q-6 78 -34 132t-73.5 81.5t-103.5 27.5q-70 0 -122 -32.5t-79.5 -92.5t-27.5 -141v-594
q0 -73 28.5 -127t81.5 -83.5t125 -29.5q70 0 121.5 31t79.5 90.5t28 141.5v156h-229v187h429z" />
    <glyph glyph-name="H" unicode="H" horiz-adv-x="1130" 
d="M793 1454h197v-1454h-197v1454zM140 1454h198v-1454h-198v1454zM267 810h627v-187h-627v187z" />
    <glyph glyph-name="I" unicode="I" horiz-adv-x="475" 
d="M336 0h-197v1454h197v-1454z" />
    <glyph glyph-name="J" unicode="J" horiz-adv-x="880" 
d="M161.5 28q-86.5 43 -141.5 121l157 119q29 -44 75.5 -68t103.5 -24q89 0 138 56.5t49 158.5v1063h197v-1067q0 -127 -45.5 -217t-132.5 -137.5t-211 -47.5q-103 0 -189.5 43z" />
    <glyph glyph-name="K" unicode="K" horiz-adv-x="1094" 
d="M295 641l511 813h230l-764 -1152zM140 1454h197v-1454h-197v1454zM489 777l145 149l455 -926h-233z" />
    <glyph glyph-name="L" unicode="L" horiz-adv-x="964" 
d="M140 1454h197v-1454h-197v1454zM242 187h667v-187h-667v187z" />
    <glyph glyph-name="M" unicode="M" horiz-adv-x="1366" 
d="M1047 1454h179v-1454h-186v1095l13 -64l-304 -811h-132l-303 791l16 84v-1095h-190v1454h183l360 -936z" />
    <glyph glyph-name="N" unicode="N" horiz-adv-x="1174" 
d="M140 1454h176l554 -1119l-27 -26v1145h191v-1453h-177l-553 1094l28 26v-1120h-192v1453z" />
    <glyph glyph-name="O" unicode="O" horiz-adv-x="1122" 
d="M329.5 40q-98.5 55 -151.5 156.5t-53 239.5v583q0 138 53 239.5t151.5 156t231.5 54.5t231.5 -54.5t151.5 -156t53 -239.5v-583q0 -138 -53 -239.5t-151.5 -156.5t-231.5 -55t-231.5 55zM686.5 208.5q53.5 30.5 82.5 87.5t29 133v596q0 77 -29 133.5t-82.5 87
t-125.5 30.5t-125.5 -30.5t-82 -87t-28.5 -133.5v-596q0 -76 28.5 -133t82 -87.5t125.5 -30.5t125.5 30.5z" />
    <glyph glyph-name="P" unicode="P" horiz-adv-x="1085" 
d="M245 751h370q53 0 92 24.5t60.5 70t21.5 106.5v111q0 62 -21.5 108t-60.5 71t-92 25h-370v187h365q116 0 202 -47t132 -135t46 -207v-116q0 -118 -46.5 -204.5t-132 -133.5t-201.5 -47h-365v187zM140 1454h197v-1454h-197v1454z" />
    <glyph glyph-name="Q" unicode="Q" horiz-adv-x="1141" 
d="M540 334l104 133l492 -369l-104 -133zM329.5 40q-98.5 55 -151.5 156.5t-53 239.5v583q0 138 53 239.5t151.5 156t231.5 54.5t231.5 -54.5t151.5 -156t53 -239.5v-583q0 -138 -53 -239.5t-151.5 -156.5t-231.5 -55t-231.5 55zM686.5 208.5q53.5 30.5 82.5 87.5t29 133
v596q0 77 -29 133.5t-82.5 87t-125.5 30.5t-125.5 -30.5t-82 -87t-28.5 -133.5v-596q0 -76 28.5 -133t82 -87.5t125.5 -30.5t125.5 30.5z" />
    <glyph glyph-name="R" unicode="R" horiz-adv-x="1130" 
d="M229 802h382q55 0 95.5 23.5t62.5 67.5t22 103v74q0 60 -22 105t-62.5 69t-95.5 24h-382v187h370q121 0 210 -45t137 -130t48 -200v-85q0 -116 -48 -202t-137.5 -132t-209.5 -46h-370v187zM140 1455h197v-1455h-197v1455zM552 660l191 46l302 -706h-225z" />
    <glyph glyph-name="S" unicode="S" horiz-adv-x="1072" 
d="M325 20.5q-90 35.5 -149.5 104t-85.5 167.5v0l189 81v0q27 -96 92 -148t160 -52q118 0 181.5 51t63.5 143v65q0 65 -33 105.5t-84.5 63t-135.5 46.5l-4.5 1.5l-4.5 1.5l-11 3q-120 34 -195.5 69.5t-129 112.5t-53.5 210v43q0 121 50.5 206.5t148 130t235.5 44.5
q102 0 181.5 -34t134 -100t78.5 -160v0l-183 -84v0q-26 92 -81 141t-130 49q-114 0 -176 -50t-62 -141v-46q0 -66 35 -107t87 -63t144 -48q4 -1 8 -2.5t8 -2.5t9 -2.5t9 -2.5q111 -33 182.5 -69t120 -111t48.5 -202v-67q0 -121 -51.5 -207t-150.5 -130.5t-239 -44.5
q-116 0 -206 35.5z" />
    <glyph glyph-name="T" unicode="T" horiz-adv-x="846" 
d="M325 1335h197v-1335h-197v1335zM-10 1454h866v-187h-866v187z" />
    <glyph glyph-name="U" unicode="U" horiz-adv-x="1092" 
d="M317.5 36.5q-94.5 51.5 -143.5 150.5t-49 240v1027h197v-1035q0 -115 58 -178t165 -63q108 0 166.5 63t58.5 178v1035h197v-1027q0 -141 -49 -240t-143.5 -150.5t-229.5 -51.5q-133 0 -227.5 51.5z" />
    <glyph glyph-name="V" unicode="V" horiz-adv-x="1002" 
d="M20 1454h210l271 -1128l271 1128h210l-383 -1454h-196z" />
    <glyph glyph-name="W" unicode="W" horiz-adv-x="1444" 
d="M653 1454h139l240 -1131l191 1131h201l-277 -1454h-208l-211 1002l-223 -1002h-207l-278 1454h201l192 -1131z" />
    <glyph glyph-name="X" unicode="X" horiz-adv-x="982" 
d="M448 638l-31 51l-395 765h217l280 -590l34 -56l419 -808h-216zM439 831l295 623h216l-404 -788l-319 -666h-217z" />
    <glyph glyph-name="Y" unicode="Y" horiz-adv-x="875" 
d="M539 600v-600h-197v600l-367 854h210l255 -641l250 641h210z" />
    <glyph glyph-name="Z" unicode="Z" horiz-adv-x="929" 
d="M839 1285l-512 -1098h527v-187h-754v169l517 1098h-499v187h721v-169z" />
    <glyph glyph-name="bracketleft" unicode="[" horiz-adv-x="512" 
d="M155 1626h186v-1952h-186v1952zM255 -149h242v-177h-242v177zM255 1626h242v-177h-242v177z" />
    <glyph glyph-name="backslash" unicode="\" horiz-adv-x="663" 
d="M152 1626l504 -1902h-183l-504 1902h183z" />
    <glyph glyph-name="bracketright" unicode="]" horiz-adv-x="512" 
d="M171 1626h187v-1952h-187v1952zM15 -149h242v-177h-242v177zM15 1626h242v-177h-242v177z" />
    <glyph glyph-name="asciicircum" unicode="^" horiz-adv-x="885" 
d="M445 1237v322l360 -559h-221zM85 1000l360 559v-322l-139 -237h-221z" />
    <glyph glyph-name="underscore" unicode="_" horiz-adv-x="777" 
d="M757 -3v-187h-737v187h737z" />
    <glyph glyph-name="grave" unicode="`" horiz-adv-x="498" 
d="M45 1567l143 113l266 -355l-124 -94z" />
    <glyph glyph-name="a" unicode="a" horiz-adv-x="963" 
d="M643 709q0 82 -44 127.5t-124 45.5q-57 0 -101.5 -26.5t-67.5 -75.5l-167 51q29 107 117 165.5t219 58.5q113 0 193.5 -40.5t122.5 -117t42 -184.5v-713h-190v709zM182.5 61q-79.5 76 -79.5 230q0 165 83.5 246.5t251.5 81.5h214l14 -167h-227q-75 0 -112 -40t-37 -121
q0 -70 41.5 -104t125.5 -34q94 0 140 32.5t46 98.5l21 -121q-14 -60 -45.5 -99.5t-80.5 -59t-116 -19.5q-160 0 -239.5 76z" />
    <glyph glyph-name="b" unicode="b" horiz-adv-x="969" 
d="M410 32q-63 47 -92 131l14 189q0 -59 19.5 -101t55.5 -64.5t88 -22.5q79 0 123 53t44 149v308q0 95 -44 148.5t-123 53.5q-52 0 -88 -21.5t-55.5 -63t-19.5 -98.5l-21 172q40 90 107.5 140t149.5 50q92 0 157.5 -44t99.5 -128.5t34 -204.5v-315q0 -120 -35 -204.5
t-103 -129t-163 -44.5q-85 0 -148 47zM135 1454h197v-1454h-197v1454z" />
    <glyph glyph-name="c" unicode="c" horiz-adv-x="896" 
d="M285.5 29.5q-85.5 44.5 -130.5 129.5t-45 206v304q0 122 45 208.5t130.5 131.5t206.5 45q99 0 171 -30t116 -90.5t59 -150.5v0l-181 -57v0q-15 70 -56.5 106.5t-105.5 36.5q-90 0 -138.5 -52.5t-48.5 -147.5v-304q0 -93 48.5 -144t138.5 -51q65 0 106.5 35.5t55.5 104.5
v0l182 -61v0q-14 -87 -58 -146.5t-117 -88.5t-172 -29q-121 0 -206.5 44.5z" />
    <glyph glyph-name="d" unicode="d" horiz-adv-x="964" 
d="M637 1454h197v-1454h-197v1454zM245 25q-66 43 -100.5 125.5t-34.5 197.5v336q0 118 34 201.5t99 127t156 43.5q82 0 149.5 -48t109.5 -135l-21 -180q0 57 -19 98t-55.5 62.5t-88.5 21.5q-79 0 -123 -52t-44 -146v-325q0 -90 44 -139t123 -49q52 0 88.5 21.5t55.5 62
t19 97.5l14 -182q-29 -81 -93 -131t-154 -50q-93 0 -159 43z" />
    <glyph glyph-name="e" unicode="e" horiz-adv-x="950" 
d="M287.5 32q-86.5 47 -132 138t-45.5 220v239q0 135 44 230t127.5 145t201.5 50q114 0 195 -52t123.5 -151t42.5 -239v-171h-593v161h404v56q0 103 -46 160.5t-126 57.5q-88 0 -136.5 -61.5t-48.5 -174.5v-255q0 -102 51.5 -158t146.5 -56q61 0 100.5 28t55.5 81v0l180 -58
v0q-29 -117 -114 -177t-222 -60q-122 0 -208.5 47z" />
    <glyph glyph-name="f" unicode="f" horiz-adv-x="584" 
d="M161 1179q0 137 64 206t195 69h134v-187h-129q-32 0 -49.5 -24t-17.5 -63v-1180h-197v1179zM55 1038h499v-177h-499v177z" />
    <glyph glyph-name="g" unicode="g" horiz-adv-x="964" 
d="M227.5 -358.5q-83.5 63.5 -102.5 186.5v0l185 55v0q14 -65 53 -99.5t100 -34.5q83 0 129 49t46 138v1102h196v-1087q0 -118 -44.5 -201.5t-130 -127.5t-206.5 -44q-142 0 -225.5 63.5zM245 25q-66 43 -100.5 125t-34.5 198v336q0 118 34 201t99 127t156 44q82 0 150 -48
t110 -135l-21 -177q0 57 -19.5 98t-56 62t-87.5 21q-80 0 -124 -51.5t-44 -145.5v-331q0 -89 44 -138.5t124 -49.5q51 0 87.5 21.5t56 62t19.5 97.5l14 -179q-29 -82 -93.5 -131.5t-154.5 -49.5q-93 0 -159 43z" />
    <glyph glyph-name="h" unicode="h" horiz-adv-x="999" 
d="M135 1454h197v-1454h-197v1454zM672 675q0 95 -44 144.5t-128 49.5q-82 0 -125 -46t-43 -135l-21 174q42 94 111.5 143.5t156.5 49.5q139 0 214.5 -91.5t75.5 -260.5v-703h-197v675z" />
    <glyph glyph-name="i" unicode="i" horiz-adv-x="460" 
d="M134 1448h197v-197h-197v197zM134 1038h197v-1038h-197v1038z" />
    <glyph glyph-name="j" unicode="j" horiz-adv-x="488" 
d="M10 -235h83q32 0 49.5 23t17.5 64v1186h197v-1185q0 -131 -63.5 -203t-179.5 -72h-104v187zM159 1446h199v-197h-199v197z" />
    <glyph glyph-name="k" unicode="k" horiz-adv-x="953" 
d="M225 386l473 652h219l-695 -892zM135 1454h197v-1454h-197v1454zM445 570l121 140l397 -710h-215z" />
    <glyph glyph-name="l" unicode="l" horiz-adv-x="533" 
d="M332 272q0 -42 18 -64.5t52 -22.5h76v-187h-100q-116 0 -179.5 72t-63.5 203v1181h197v-1182z" />
    <glyph glyph-name="m" unicode="m" horiz-adv-x="1519" 
d="M1192 675q0 95 -44.5 144.5t-127.5 49.5q-78 0 -118.5 -49.5t-40.5 -143.5l-34 171q40 101 111.5 154.5t160.5 53.5q92 0 157 -41t99 -120t34 -191v-703h-197v675zM135 1038h197v-1038h-197v1038zM664 675q0 95 -42 144.5t-121 49.5q-82 0 -125.5 -47t-43.5 -136l-21 174
q42 96 111.5 145.5t156.5 49.5q90 0 153 -41t96 -119.5t33 -190.5v-704h-197v675z" />
    <glyph glyph-name="n" unicode="n" horiz-adv-x="999" 
d="M135 1038h197v-1038h-197v1038zM672 675q0 95 -44 144.5t-128 49.5q-82 0 -125 -47t-43 -136l-21 174q42 96 111.5 145.5t156.5 49.5q139 0 214.5 -91.5t75.5 -260.5v-703h-197v675z" />
    <glyph glyph-name="o" unicode="o" horiz-adv-x="946" 
d="M278 29.5q-82 44.5 -125 129t-43 203.5v321q0 118 43 201.5t125 127t196 43.5q115 0 196 -43.5t123.5 -127t42.5 -201.5v-324q0 -118 -42.5 -202t-123.5 -128t-196 -44q-114 0 -196 44.5zM595.5 224q43.5 49 43.5 139v316q0 89 -43.5 137.5t-122.5 48.5q-78 0 -122 -48.5
t-44 -137.5v-316q0 -89 43.5 -138.5t122.5 -49.5t122.5 49z" />
    <glyph glyph-name="p" unicode="p" horiz-adv-x="969" 
d="M135 1038h197v-1460h-197v1460zM410 32q-63 47 -92 131l14 189q0 -59 19.5 -101t56 -64.5t87.5 -22.5q79 0 123 53t44 149v308q0 95 -44 148.5t-123 53.5q-51 0 -87.5 -21.5t-56 -63t-19.5 -98.5l-21 172q40 91 107.5 140.5t149.5 49.5q92 0 157.5 -44t99.5 -128.5
t34 -204.5v-315q0 -119 -35 -204t-102.5 -129.5t-162.5 -44.5q-86 0 -149 47z" />
    <glyph glyph-name="q" unicode="q" horiz-adv-x="964" 
d="M637 1038h197v-1460h-197v1460zM245 25q-66 43 -100.5 125.5t-34.5 197.5v336q0 118 34 201.5t99 127t156 43.5q82 0 150 -48t110 -135l-21 -180q0 57 -19.5 98t-56 62.5t-88.5 21.5q-79 0 -123 -52t-44 -146v-325q0 -90 44 -139t123 -49q52 0 88.5 21.5t56 62t19.5 97.5
l14 -182q-30 -81 -94 -131t-154 -50q-93 0 -159 43z" />
    <glyph glyph-name="r" unicode="r" horiz-adv-x="757" 
d="M135 1038h197v-1038h-197v1038zM616.5 854.5q-24.5 8.5 -57.5 8.5q-107 0 -166.5 -55t-60.5 -152l-21 201q50 94 127.5 146t171.5 52q36 0 64.5 -10.5t50.5 -30.5l-67 -185q-17 17 -41.5 25.5z" />
    <glyph glyph-name="s" unicode="s" horiz-adv-x="866" 
d="M251 12.5q-77 27.5 -126.5 82.5t-72.5 138v0l176 78v0q30 -75 81 -112t124 -37q91 0 139 36.5t48 105.5q0 45 -26 71t-65 38t-111 25q-6 1 -13 2.5t-13 2.5q-4 1 -7 1.5t-7 0.5q-87 17 -148 44t-101.5 86.5t-40.5 161.5q0 103 40.5 173.5t119 107t191.5 36.5
q96 0 167 -24.5t118 -74t70 -123.5v0l-177 -79v0q-26 63 -70.5 94.5t-107.5 31.5q-79 0 -119.5 -35t-40.5 -103q0 -43 25.5 -67t64 -35.5t107.5 -22.5q3 -1 5.5 -1t4.5 -1q2 0 5 -0.5t5 -0.5q96 -16 161 -41.5t109.5 -89t44.5 -178.5q0 -103 -43.5 -174.5t-128 -108
t-206.5 -36.5q-105 0 -182 27.5z" />
    <glyph glyph-name="t" unicode="t" horiz-adv-x="603" 
d="M220.5 64.5q-58.5 69.5 -58.5 205.5v1070h197v-1071q0 -41 17 -64t50 -23h87v-187h-108q-126 0 -184.5 69.5zM55 1038h458v-182h-458v182z" />
    <glyph glyph-name="u" unicode="u" horiz-adv-x="987" 
d="M660 1038h197v-1038h-197v1038zM332 346q0 -83 43 -127t122 -44t121 41t42 120l14 -173q-30 -82 -91.5 -130t-151.5 -48q-144 0 -220 92.5t-76 264.5v696h197v-692z" />
    <glyph glyph-name="v" unicode="v" horiz-adv-x="909" 
d="M668 1038h201l-335 -1038h-152l-337 1038h202l211 -752z" />
    <glyph glyph-name="w" unicode="w" horiz-adv-x="1374" 
d="M60 1038h199l157 -754l205 754h138l205 -754l156 754h199l-279 -1038h-152l-198 717l-198 -717h-152z" />
    <glyph glyph-name="x" unicode="x" horiz-adv-x="932" 
d="M397 472l-333 566h218l248 -465l357 -573h-217zM397 571l94 -178l-226 -393h-217zM457 660l196 378h218l-331 -558z" />
    <glyph glyph-name="y" unicode="y" horiz-adv-x="879" 
d="M859 1038l-377 -1281q-20 -67 -58 -109t-97 -61.5t-143 -19.5h-35v188h35q63 0 99.5 26.5t55.5 84.5l320 1172h200zM45 1038h200l271 -899l-104 -222z" />
    <glyph glyph-name="z" unicode="z" horiz-adv-x="868" 
d="M756 871l-422 -686h449v-185h-678v172l436 682h-422v184h637v-167z" />
    <glyph glyph-name="braceleft" unicode="{" horiz-adv-x="628" 
d="M105 746q66 0 102 32t36 91v477q0 164 89 253.5t251 89.5v-186q-68 0 -105.5 -35.5t-37.5 -99.5v-501q0 -146 -88 -226.5t-247 -80.5v186zM332 -303.5q-89 89.5 -89 251.5v480q0 58 -36 90.5t-102 32.5v185q160 0 247.5 -83t87.5 -236v-487q0 -65 37 -100.5t106 -35.5
v-187q-162 0 -251 89.5z" />
    <glyph glyph-name="bar" unicode="|" horiz-adv-x="477" 
d="M140 1626h197v-1798h-197v1798z" />
    <glyph glyph-name="braceright" unicode="}" horiz-adv-x="628" 
d="M276.5 640.5q-87.5 80.5 -87.5 226.5v501q0 64 -37.5 99.5t-106.5 35.5v186q163 0 251.5 -89.5t88.5 -253.5v-477q0 -59 36.5 -91t101.5 -32v-186q-159 0 -246.5 80.5zM45 -206q69 0 106.5 35.5t37.5 100.5v487q0 153 87 236t247 83v-185q-65 0 -101.5 -32.5t-36.5 -90.5
v-480q0 -162 -89 -251.5t-251 -89.5v187z" />
    <glyph glyph-name="asciitilde" unicode="~" horiz-adv-x="855" 
d="M512 548.5q-35 13.5 -75 38.5l-23 14q-31 21 -53.5 31t-45.5 10q-28 0 -41 -20.5t-13 -59.5v-28h-166v55q0 116 45 176t132 60q48 0 84 -15.5t79 -43.5l4 -2l4 -2q1 -1 1.5 -1t0.5 -1q35 -22 55.5 -31.5t43.5 -9.5q27 0 41 22t14 64v28h166v-58q0 -118 -44.5 -179
t-130.5 -61q-43 0 -78 13.5z" />
    <glyph glyph-name="uni00A0" unicode="&#xa0;" horiz-adv-x="325" 
 />
    <glyph glyph-name="exclamdown" unicode="&#xa1;" horiz-adv-x="425" 
d="M114 671h197v-1087h-197v1087zM311 1038v-197h-197v197h197z" />
    <glyph glyph-name="cent" unicode="&#xa2;" horiz-adv-x="876" 
d="M277.5 28q-82.5 43 -125 128t-42.5 209v303q0 126 42.5 211.5t125 129.5t204.5 44q96 0 166.5 -30t113 -90.5t56.5 -150.5v0l-186 -57v0q-14 70 -53.5 106.5t-101.5 36.5q-84 0 -127 -51t-43 -149v-303q0 -101 43 -153t127 -52q62 0 102 37t54 108v0l186 -57v0
q-14 -87 -57 -145.5t-113 -88t-167 -29.5q-122 0 -204.5 43zM377 1215h198v-1392h-198v1392z" />
    <glyph glyph-name="sterling" unicode="&#xa3;" horiz-adv-x="1035" 
d="M171 231q30 44 30 130v727q0 121 44.5 206.5t129.5 130t205 44.5t205.5 -45t130 -130.5t44.5 -207.5v-62h-197v62q0 93 -48 144.5t-135 51.5t-134.5 -51t-47.5 -143v-727q0 -118 -80.5 -179t-235.5 -61v66q59 0 89 44zM960 0h-885v187h885v-187zM742 704v-152h-645v152
h645z" />
    <glyph glyph-name="currency" unicode="&#xa4;" horiz-adv-x="1079" 
d="M342.5 339.5q-82.5 48.5 -126 142t-43.5 224.5q0 130 43.5 223t125.5 141.5t198 48.5t198.5 -48.5t125.5 -141.5t43 -225q0 -194 -95 -301t-272 -110q-115 -2 -197.5 46.5zM678 525q49 64 49 179q0 118 -49 182.5t-139 64.5q-89 0 -137.5 -64t-48.5 -183
q0 -115 48.5 -179t137.5 -64q90 0 139 64zM94 364l181 180l143 -144l-180 -180zM94 1044l144 144l186 -186l-153 -134zM646 415l149 138l190 -190l-143 -143zM663 1011l179 177l143 -143l-193 -194z" />
    <glyph glyph-name="yen" unicode="&#xa5;" horiz-adv-x="875" 
d="M131 493h614v-117h-614v117zM131 268h614v-117h-614v117zM539 600v-600h-197v600l-367 854h210l255 -641l250 641h210z" />
    <glyph glyph-name="brokenbar" unicode="&#xa6;" horiz-adv-x="477" 
d="M140 1626h197v-711h-197v711zM140 517h197v-689h-197v689z" />
    <glyph glyph-name="section" unicode="&#xa7;" horiz-adv-x="1066" 
d="M569 439q103 2 161 46t58 119q0 53 -26.5 86t-70 52t-109.5 35l-28 8t-27 8q-120 28 -193.5 57.5t-125.5 98.5t-52 191q0 102 44.5 176t129 113.5t201.5 39.5q90 0 166 -25.5t131 -73.5t84 -113l-160 -77q-34 50 -90 78.5t-123 28.5q-89 0 -139.5 -38t-50.5 -105
q0 -56 32.5 -90t81.5 -51.5t136 -38.5q19 -4 38 -9.5t38 -11.5q92 -24 157 -59t107 -102.5t42 -177.5q0 -89 -40 -157t-115.5 -109t-179.5 -52zM337.5 -178q-79.5 27 -136 78.5t-82.5 120.5l147 79q39 -57 105.5 -90t146.5 -33q99 0 155 37.5t56 103.5q0 50 -30.5 82.5
t-79 51t-128.5 36.5l-47 11q-8 1 -16 3.5t-16 3.5q-97 24 -165 57t-112.5 98t-44.5 169q0 100 44.5 172.5t128.5 113t200 44.5l94 -168q-7 2 -14.5 3t-13.5 2t-12 1.5t-12 1.5q-105 0 -163.5 -42t-58.5 -120q0 -50 28.5 -82.5t73.5 -50.5t118 -36l11 -3l20 -4l20 -4
q113 -25 188 -57.5t126.5 -100t51.5 -182.5q0 -100 -48.5 -173t-140.5 -111.5t-218 -38.5q-96 0 -175.5 27z" />
    <glyph glyph-name="dieresis" unicode="&#xa8;" horiz-adv-x="665" 
d="M427 1448h197v-197h-197v197zM42 1448h197v-197h-197v197z" />
    <glyph glyph-name="copyright" unicode="&#xa9;" horiz-adv-x="1310" 
d="M356 402.5q-124 63.5 -190 184.5t-66 291v149q0 173 65.5 295.5t189.5 187t300 64.5t300.5 -64.5t189.5 -187t65 -295.5v-149q0 -170 -65.5 -291t-190 -184.5t-299.5 -63.5t-299 63.5zM469 702.5q-70 71.5 -70 201.5v118q0 128 70 199t197 71q101 0 159 -48.5t74 -144.5
v0l-135 -54v0q-12 44 -36 66t-61 22q-49 0 -75.5 -29t-26.5 -82v-118q0 -57 26.5 -87t75.5 -30q39 0 63.5 23.5t38.5 72.5v0l135 -55v0q-17 -98 -76.5 -147.5t-161.5 -49.5q-127 0 -197 71.5zM870 540.5q90 45.5 137.5 131.5t47.5 206v149q0 127 -47 217t-137 137t-216 47
t-215.5 -47t-136.5 -137t-47 -217v-149q0 -120 47 -206t137 -131.5t215 -45.5t215 45.5z" />
    <glyph glyph-name="ordfeminine" unicode="&#xaa;" horiz-adv-x="640" 
d="M413 1237q0 41 -23 63.5t-62 22.5q-34 0 -55.5 -13.5t-36.5 -46.5l-130 40q22 86 79.5 122t145.5 36q109 0 169 -54t60 -160v-416h-147v406zM135 874.5q-50 50.5 -50 141.5q0 88 56 137t157 49h132l6 -123h-122q-36 0 -56.5 -18t-20.5 -52q0 -30 20 -47.5t56 -17.5
q48 0 74 21.5t26 60.5l23 -121q-21 -38 -63 -59.5t-97 -21.5q-91 0 -141 50.5z" />
    <glyph glyph-name="guillemotleft" unicode="&#xab;" horiz-adv-x="955" 
d="M705 878h220l-264 -358h-220zM40 520h220l264 -357h-219zM305 878h219l-264 -358h-220zM441 520h220l264 -357h-220z" />
    <glyph glyph-name="logicalnot" unicode="&#xac;" horiz-adv-x="895" 
d="M95 860h710v-185h-710v185zM612 793h193v-349h-193v349z" />
    <glyph glyph-name="uni00AD" unicode="&#xad;" horiz-adv-x="857" 
d="M727 615v-187h-592v187h592z" />
    <glyph glyph-name="registered" unicode="&#xae;" horiz-adv-x="1310" 
d="M355.5 402.5q-124.5 63.5 -190 184.5t-65.5 291v149q0 173 65.5 296t189.5 187t300 64t300.5 -64t189.5 -187t65 -296v-149q0 -170 -65 -291t-190 -184.5t-300 -63.5t-299.5 63.5zM436 1271h146v-623h-146v623zM641 889l121 65l156 -305h-162zM869.5 540.5
q89.5 45.5 137 131.5t47.5 206v149q0 127 -47 217t-136.5 137t-215.5 47t-215.5 -47t-136.5 -137t-47 -217v-149q0 -120 47 -206.5t137 -131.5t215 -45t214.5 45.5zM531 968h147q36 0 57 22.5t21 64.5t-21 64t-57 22h-147v130h143q110 0 169 -59t59 -157q0 -97 -59.5 -157
t-168.5 -60h-143v130z" />
    <glyph glyph-name="macron" unicode="&#xaf;" horiz-adv-x="710" 
d="M670 1443v-193h-630v193h630z" />
    <glyph glyph-name="degree" unicode="&#xb0;" horiz-adv-x="651" 
d="M126.5 947.5q-66.5 74.5 -66.5 223.5q0 150 66.5 224t199.5 74t199 -74.5t66 -224.5q0 -148 -66.5 -222.5t-198.5 -74.5q-133 0 -199.5 74.5zM403.5 1061.5q26.5 36.5 26.5 111.5q0 72 -26.5 108t-78.5 36t-78 -36t-26 -110t26 -110t78 -36t78.5 36.5z" />
    <glyph glyph-name="plusminus" unicode="&#xb1;" horiz-adv-x="877" 
d="M787 814v-171h-692v171h692zM535 346h-187v730h187v-730zM787 437v-171h-692v171h692z" />
    <glyph glyph-name="uni00B2" unicode="&#xb2;" horiz-adv-x="585" 
d="M105 967l120 116q5 4 8 8t8 7q40 39 61.5 67t31.5 51t10 48v10q0 26 -11.5 39t-34.5 13q-26 0 -40 -20.5t-16 -60.5v0h-158v0q3 108 56 162t154 54q105 0 158.5 -45t53.5 -136v-6q0 -52 -29.5 -100.5t-99.5 -124.5l-70 -74h199v-144h-401v136z" />
    <glyph glyph-name="uni00B3" unicode="&#xb3;" horiz-adv-x="598" 
d="M176.5 846.5q-47.5 22.5 -70 71t-22.5 127.5v0h152v0q0 -48 15 -69t48 -21q30 0 45 14t15 43v25q0 29 -19 43t-59 14h-31v108h31q34 0 51 13.5t17 40.5v23q0 25 -13 37.5t-38 12.5q-29 0 -42 -18t-13 -61v0h-154v0q0 76 22 122t68 67.5t121 21.5q105 0 157 -39t52 -118
v-27q0 -48 -27.5 -80t-83.5 -49q61 -9 91 -40.5t30 -86.5v-25q0 -87 -54.5 -129.5t-164.5 -42.5q-76 0 -123.5 22.5z" />
    <glyph glyph-name="acute" unicode="&#xb4;" horiz-adv-x="498" 
d="M45 1325l266 355l143 -113l-285 -336z" />
    <glyph glyph-name="mu" unicode="&#xb5;" horiz-adv-x="1042" 
d="M135 1043h197v-880h-10l10 -443h-197v1323zM395 6.5q-40 21.5 -60.5 64t-22.5 105.5l20 158q0 -78 41.5 -118.5t121.5 -40.5q81 0 123 41t42 120l44 -158q-11 -95 -64 -144t-145 -49q-60 0 -100 21.5zM723.5 70q-63.5 72 -63.5 203v765h197v-766q0 -42 18 -64.5t51 -22.5
h77v-187h-100q-116 0 -179.5 72z" />
    <glyph glyph-name="paragraph" unicode="&#xb6;" horiz-adv-x="1232" 
d="M251.5 593.5q-94.5 56.5 -145.5 160t-51 241.5t50.5 242t145 160.5t222.5 56.5h210v-917h-210q-127 0 -221.5 56.5zM544 1454h191v-1690h-191v1690zM879 1454h192v-1690h-192v1690zM596 1454h586v-185h-586v185z" />
    <glyph glyph-name="periodcentered" unicode="&#xb7;" horiz-adv-x="375" 
d="M89 626h197v-197h-197v197z" />
    <glyph glyph-name="cedilla" unicode="&#xb8;" horiz-adv-x="488" 
d="M45 -404l40 135q50 -14 97 -14q45 0 67.5 13.5t22.5 40.5q0 26 -32 38.5t-97 12.5l84 112q108 0 162 -44t54 -133t-59.5 -134t-176.5 -45q-99 0 -162 18zM127 91h160v-269h-160v269z" />
    <glyph glyph-name="uni00B9" unicode="&#xb9;" horiz-adv-x="462" 
d="M382 831h-162v448l-135 -81v179l142 77h155v-623z" />
    <glyph glyph-name="ordmasculine" unicode="&#xba;" horiz-adv-x="645" 
d="M147.5 887q-62.5 63 -62.5 177v163q0 111 62.5 172.5t177.5 61.5t177.5 -61.5t62.5 -173.5v-162q0 -114 -62.5 -177t-177.5 -63t-177.5 63zM382.5 1002q20.5 24 20.5 67v156q0 39 -20.5 61t-57.5 22q-38 0 -57.5 -22t-19.5 -63v-154q0 -44 19.5 -67.5t57.5 -23.5
q37 0 57.5 24z" />
    <glyph glyph-name="guillemotright" unicode="&#xbb;" horiz-adv-x="955" 
d="M431 878h220l264 -358h-220zM295 520h219l-264 -357h-220zM30 878h220l264 -358h-219zM695 520h220l-264 -357h-220z" />
    <glyph glyph-name="onequarter" unicode="&#xbc;" horiz-adv-x="1306" 
d="M883 1454h174l-707 -1454h-173zM763 208l143 415h153l-136 -415h293v-126h-453v126zM1033 333h134v-333h-134v333zM387 831h-162v448l-135 -81v179l142 77h155v-623z" />
    <glyph glyph-name="onehalf" unicode="&#xbd;" horiz-adv-x="1289" 
d="M883 1454h173l-706 -1454h-173zM387 831h-162v448l-135 -81v179l142 77h155v-623zM799 136l120 117l7.5 7.5l7.5 7.5q40 39 62 66.5t32 51t10 48.5v10q0 25 -12 38t-34 13q-25 0 -39.5 -16t-16.5 -46v-19h-158v10q4 103 57.5 154.5t152.5 51.5q105 0 158 -45.5t53 -135.5
v-6q0 -52 -29.5 -100.5t-98.5 -123.5l-70 -75h198v-144h-400v136z" />
    <glyph glyph-name="threequarters" unicode="&#xbe;" horiz-adv-x="1346" 
d="M948 1454h173l-706 -1454h-173zM803 208l143 415h153l-136 -415h293v-126h-453v126zM1073 333h134v-333h-134v333zM144 872q-54 48 -54 144v29h149v-24q0 -33 16.5 -49.5t49.5 -16.5q29 0 44.5 14.5t15.5 42.5v25q0 29 -19.5 43.5t-58.5 14.5h-31v107h31q34 0 51 13.5
t17 40.5v23q0 25 -13 38t-39 13q-29 0 -43.5 -15t-14.5 -45v-20h-150v20q0 96 53 143.5t158 47.5q104 0 156 -39t52 -117v-28q0 -48 -27.5 -80t-82.5 -49q60 -8 90 -39.5t30 -86.5v-26q0 -87 -54.5 -129.5t-163.5 -42.5q-108 0 -162 48z" />
    <glyph glyph-name="questiondown" unicode="&#xbf;" horiz-adv-x="778" 
d="M231.5 -380q-78.5 42 -119.5 122.5t-41 193.5v1q0 71 15.5 125.5t38 94t62.5 94.5q45 64 72.5 114.5t47 127t19.5 181.5h195q0 -119 -21 -207.5t-50.5 -146.5t-76.5 -131q-33 -51 -52 -85t-31.5 -76t-12.5 -92v-1q0 -80 37 -124t104 -44t104 50t38 141v38h206v-38
q-2 -120 -43.5 -205t-118.5 -130t-184 -45q-110 0 -188.5 42zM527 850h-197v197h197v-197z" />
    <glyph glyph-name="Agrave" unicode="&#xc0;" horiz-adv-x="1116" 
d="M471 1454h174l436 -1454h-212l-311 1165l-311 -1165h-212zM266 505h598v-187h-598v187zM260 1772l132 137l257 -251l-115 -114z" />
    <glyph glyph-name="Aacute" unicode="&#xc1;" horiz-adv-x="1116" 
d="M471 1454h174l436 -1454h-212l-311 1165l-311 -1165h-212zM266 505h598v-187h-598v187zM459 1663l260 251l137 -137l-282 -228z" />
    <glyph glyph-name="Acircumflex" unicode="&#xc2;" horiz-adv-x="1116" 
d="M471 1454h174l436 -1454h-212l-311 1165l-311 -1165h-212zM266 505h598v-187h-598v187zM857 1662l-118 -110l-183 147l-182 -147l-118 110l300 242z" />
    <glyph glyph-name="Atilde" unicode="&#xc3;" horiz-adv-x="1116" 
d="M471 1454h174l436 -1454h-212l-311 1165l-311 -1165h-212zM266 505h598v-187h-598v187zM669.5 1568q-24.5 6 -45 15t-43.5 22l-2 1q-8 5 -16 9t-15 8q-33 22 -55.5 32.5t-47.5 10.5q-30 0 -44.5 -18t-14.5 -53v-34h-155v56q0 109 45 165t132 56q46 0 80.5 -13t76.5 -37
l2 -1q5 -3 10 -5.5t9 -5.5q31 -20 51.5 -29.5t42.5 -9.5q30 0 45.5 19t15.5 57v31h156v-57q0 -110 -44.5 -167.5t-130.5 -57.5q-28 0 -52.5 6z" />
    <glyph glyph-name="Adieresis" unicode="&#xc4;" horiz-adv-x="1116" 
d="M471 1454h174l436 -1454h-212l-311 1165l-311 -1165h-212zM266 505h598v-187h-598v187zM655 1772h197v-197h-197v197zM265 1772h197v-197h-197v197z" />
    <glyph glyph-name="Aring" unicode="&#xc5;" horiz-adv-x="1116" 
d="M384 1482q-61 60 -61 171q0 116 61 179t174 63t174.5 -63.5t61.5 -178.5q0 -111 -61.5 -171t-174.5 -60t-174 60zM628 1578.5q25 28.5 25 78.5q0 52 -25 81t-70 29t-70 -29t-25 -81q0 -50 25 -78.5t70 -28.5t70 28.5zM471 1454h174l436 -1454h-212l-311 1165l-311 -1165
h-212zM266 505h598v-187h-598v187z" />
    <glyph glyph-name="AE" unicode="&#xc6;" horiz-adv-x="1580" 
d="M581 1454h190l-567 -1454h-209zM297 506h556v-187h-556v187zM721 1454h197v-1454h-197v1454zM820 187h680v-187h-680v187zM820 816h600v-187h-600v187zM820 1454h680v-187h-680v187z" />
    <glyph glyph-name="Ccedilla" unicode="&#xc7;" horiz-adv-x="1062" 
d="M323 40.5q-95 55.5 -146.5 158.5t-51.5 243v569q0 140 51.5 243.5t146.5 159t224 55.5q125 0 215.5 -50t142.5 -147t61 -236v0h-200v0q-7 77 -36 131t-76 82t-107 28q-68 0 -117.5 -32.5t-77 -92.5t-27.5 -141v-569q0 -81 27.5 -141t77 -92t117.5 -32q61 0 107.5 27.5
t75.5 81.5t36 132v0h200v0q-9 -139 -61.5 -236t-143 -147t-214.5 -50q-129 0 -224 55.5zM371 -404l40 135q47 -14 92 -14q50 0 75 13.5t25 40.5q0 26 -34.5 38.5t-104.5 12.5l84 112q113 0 169 -44t56 -133t-61.5 -134t-183.5 -45q-92 0 -157 18zM608 61v-241l-160 2v239
h160z" />
    <glyph glyph-name="Egrave" unicode="&#xc8;" horiz-adv-x="999" 
d="M140 1454h197v-1454h-197v1454zM239 187h680v-187h-680v187zM239 816h600v-187h-600v187zM239 1454h680v-187h-680v187zM247 1772l132 137l257 -251l-115 -114z" />
    <glyph glyph-name="Eacute" unicode="&#xc9;" horiz-adv-x="999" 
d="M140 1454h197v-1454h-197v1454zM239 187h680v-187h-680v187zM239 816h600v-187h-600v187zM239 1454h680v-187h-680v187zM446 1663l260 251l137 -137l-282 -228z" />
    <glyph glyph-name="Ecircumflex" unicode="&#xca;" horiz-adv-x="999" 
d="M140 1454h197v-1454h-197v1454zM239 187h680v-187h-680v187zM239 816h600v-187h-600v187zM239 1454h680v-187h-680v187zM844 1662l-118 -110l-183 147l-182 -147l-118 110l300 242z" />
    <glyph glyph-name="Edieresis" unicode="&#xcb;" horiz-adv-x="999" 
d="M140 1454h197v-1454h-197v1454zM239 187h680v-187h-680v187zM239 816h600v-187h-600v187zM239 1454h680v-187h-680v187zM642 1772h197v-197h-197v197zM252 1772h197v-197h-197v197z" />
    <glyph glyph-name="Igrave" unicode="&#xcc;" horiz-adv-x="475" 
d="M336 0h-197v1454h197v-1454zM-60 1772l132 137l257 -251l-115 -114z" />
    <glyph glyph-name="Iacute" unicode="&#xcd;" horiz-adv-x="475" 
d="M336 0h-197v1454h197v-1454zM139 1663l260 251l137 -137l-282 -228z" />
    <glyph glyph-name="Icircumflex" unicode="&#xce;" horiz-adv-x="475" 
d="M336 0h-197v1454h197v-1454zM537 1662l-118 -110l-183 147l-182 -147l-118 110l300 242z" />
    <glyph glyph-name="Idieresis" unicode="&#xcf;" horiz-adv-x="475" 
d="M336 0h-197v1454h197v-1454zM335 1772h197v-197h-197v197zM-55 1772h197v-197h-197v197z" />
    <glyph glyph-name="Eth" unicode="&#xd0;" horiz-adv-x="1149" 
d="M305 187h297q106 0 164.5 57.5t58.5 161.5v642q0 105 -58.5 162t-164.5 57h-297v187h291q136 0 232 -48t146 -140.5t50 -223.5v-629q0 -131 -50.5 -223.5t-146.5 -141t-232 -48.5h-290v187zM175 1454h197v-1454h-197v1454zM623 812v-170h-588v170h588z" />
    <glyph glyph-name="Ntilde" unicode="&#xd1;" horiz-adv-x="1174" 
d="M140 1454h176l554 -1119l-27 -26v1145h191v-1453h-177l-553 1094l28 26v-1120h-192v1453zM713.5 1568q-24.5 6 -45 15t-43.5 22l-2 1q-8 5 -16 9t-15 8q-33 22 -55.5 32.5t-47.5 10.5q-30 0 -44.5 -18t-14.5 -53v-34h-155v56q0 109 45 165t132 56q46 0 80.5 -13t76.5 -37
l2 -1q5 -3 10 -5.5t9 -5.5q31 -20 51.5 -29.5t42.5 -9.5q30 0 45.5 19t15.5 57v31h156v-57q0 -110 -44.5 -167.5t-130.5 -57.5q-28 0 -52.5 6z" />
    <glyph glyph-name="Ograve" unicode="&#xd2;" horiz-adv-x="1122" 
d="M329.5 40q-98.5 55 -151.5 156.5t-53 239.5v583q0 138 53 239.5t151.5 156t231.5 54.5t231.5 -54.5t151.5 -156t53 -239.5v-583q0 -138 -53 -239.5t-151.5 -156.5t-231.5 -55t-231.5 55zM686.5 208.5q53.5 30.5 82.5 87.5t29 133v596q0 77 -29 133.5t-82.5 87
t-125.5 30.5t-125.5 -30.5t-82 -87t-28.5 -133.5v-596q0 -76 28.5 -133t82 -87.5t125.5 -30.5t125.5 30.5zM263 1772l132 137l257 -251l-115 -114z" />
    <glyph glyph-name="Oacute" unicode="&#xd3;" horiz-adv-x="1122" 
d="M329.5 40q-98.5 55 -151.5 156.5t-53 239.5v583q0 138 53 239.5t151.5 156t231.5 54.5t231.5 -54.5t151.5 -156t53 -239.5v-583q0 -138 -53 -239.5t-151.5 -156.5t-231.5 -55t-231.5 55zM686.5 208.5q53.5 30.5 82.5 87.5t29 133v596q0 77 -29 133.5t-82.5 87
t-125.5 30.5t-125.5 -30.5t-82 -87t-28.5 -133.5v-596q0 -76 28.5 -133t82 -87.5t125.5 -30.5t125.5 30.5zM462 1663l260 251l137 -137l-282 -228z" />
    <glyph glyph-name="Ocircumflex" unicode="&#xd4;" horiz-adv-x="1122" 
d="M329.5 40q-98.5 55 -151.5 156.5t-53 239.5v583q0 138 53 239.5t151.5 156t231.5 54.5t231.5 -54.5t151.5 -156t53 -239.5v-583q0 -138 -53 -239.5t-151.5 -156.5t-231.5 -55t-231.5 55zM686.5 208.5q53.5 30.5 82.5 87.5t29 133v596q0 77 -29 133.5t-82.5 87
t-125.5 30.5t-125.5 -30.5t-82 -87t-28.5 -133.5v-596q0 -76 28.5 -133t82 -87.5t125.5 -30.5t125.5 30.5zM860 1662l-118 -110l-183 147l-182 -147l-118 110l300 242z" />
    <glyph glyph-name="Otilde" unicode="&#xd5;" horiz-adv-x="1122" 
d="M329.5 40q-98.5 55 -151.5 156.5t-53 239.5v583q0 138 53 239.5t151.5 156t231.5 54.5t231.5 -54.5t151.5 -156t53 -239.5v-583q0 -138 -53 -239.5t-151.5 -156.5t-231.5 -55t-231.5 55zM686.5 208.5q53.5 30.5 82.5 87.5t29 133v596q0 77 -29 133.5t-82.5 87
t-125.5 30.5t-125.5 -30.5t-82 -87t-28.5 -133.5v-596q0 -76 28.5 -133t82 -87.5t125.5 -30.5t125.5 30.5zM672.5 1568q-24.5 6 -45 15t-43.5 22l-2 1q-8 5 -16 9t-15 8q-33 22 -55.5 32.5t-47.5 10.5q-30 0 -44.5 -18t-14.5 -53v-34h-155v56q0 109 45 165t132 56
q46 0 80.5 -13t76.5 -37l2 -1q5 -3 10 -5.5t9 -5.5q31 -20 51.5 -29.5t42.5 -9.5q30 0 45.5 19t15.5 57v31h156v-57q0 -110 -44.5 -167.5t-130.5 -57.5q-28 0 -52.5 6z" />
    <glyph glyph-name="Odieresis" unicode="&#xd6;" horiz-adv-x="1122" 
d="M329.5 40q-98.5 55 -151.5 156.5t-53 239.5v583q0 138 53 239.5t151.5 156t231.5 54.5t231.5 -54.5t151.5 -156t53 -239.5v-583q0 -138 -53 -239.5t-151.5 -156.5t-231.5 -55t-231.5 55zM686.5 208.5q53.5 30.5 82.5 87.5t29 133v596q0 77 -29 133.5t-82.5 87
t-125.5 30.5t-125.5 -30.5t-82 -87t-28.5 -133.5v-596q0 -76 28.5 -133t82 -87.5t125.5 -30.5t125.5 30.5zM658 1772h197v-197h-197v197zM268 1772h197v-197h-197v197z" />
    <glyph glyph-name="multiply" unicode="&#xd7;" horiz-adv-x="876" 
d="M100 410l550 629l136 -117l-551 -632zM95 924l131 115l560 -626l-131 -115z" />
    <glyph glyph-name="Oslash" unicode="&#xd8;" horiz-adv-x="1122" 
d="M803 1597h148l-622 -1728h-149zM329.5 40q-98.5 55 -151.5 156.5t-53 239.5v583q0 138 53 239.5t151.5 156t231.5 54.5t231.5 -54.5t151.5 -156t53 -239.5v-583q0 -138 -53 -239.5t-151.5 -156.5t-231.5 -55t-231.5 55zM686.5 208.5q53.5 30.5 82.5 87.5t29 133v596
q0 77 -29 133.5t-82.5 87t-125.5 30.5t-125.5 -30.5t-82 -87t-28.5 -133.5v-596q0 -76 28.5 -133t82 -87.5t125.5 -30.5t125.5 30.5z" />
    <glyph glyph-name="Ugrave" unicode="&#xd9;" horiz-adv-x="1092" 
d="M317.5 36.5q-94.5 51.5 -143.5 150.5t-49 240v1027h197v-1035q0 -115 58 -178t165 -63q108 0 166.5 63t58.5 178v1035h197v-1027q0 -141 -49 -240t-143.5 -150.5t-229.5 -51.5q-133 0 -227.5 51.5zM248 1772l132 137l257 -251l-115 -114z" />
    <glyph glyph-name="Uacute" unicode="&#xda;" horiz-adv-x="1092" 
d="M317.5 36.5q-94.5 51.5 -143.5 150.5t-49 240v1027h197v-1035q0 -115 58 -178t165 -63q108 0 166.5 63t58.5 178v1035h197v-1027q0 -141 -49 -240t-143.5 -150.5t-229.5 -51.5q-133 0 -227.5 51.5zM447 1663l260 251l137 -137l-282 -228z" />
    <glyph glyph-name="Ucircumflex" unicode="&#xdb;" horiz-adv-x="1092" 
d="M317.5 36.5q-94.5 51.5 -143.5 150.5t-49 240v1027h197v-1035q0 -115 58 -178t165 -63q108 0 166.5 63t58.5 178v1035h197v-1027q0 -141 -49 -240t-143.5 -150.5t-229.5 -51.5q-133 0 -227.5 51.5zM845 1662l-118 -110l-183 147l-182 -147l-118 110l300 242z" />
    <glyph glyph-name="Udieresis" unicode="&#xdc;" horiz-adv-x="1092" 
d="M317.5 36.5q-94.5 51.5 -143.5 150.5t-49 240v1027h197v-1035q0 -115 58 -178t165 -63q108 0 166.5 63t58.5 178v1035h197v-1027q0 -141 -49 -240t-143.5 -150.5t-229.5 -51.5q-133 0 -227.5 51.5zM643 1772h197v-197h-197v197zM253 1772h197v-197h-197v197z" />
    <glyph glyph-name="Yacute" unicode="&#xdd;" horiz-adv-x="875" 
d="M539 600v-600h-197v600l-367 854h210l255 -641l250 641h210zM339 1663l260 251l137 -137l-282 -228z" />
    <glyph glyph-name="Thorn" unicode="&#xde;" horiz-adv-x="1070" 
d="M245 491h357q53 0 92 24.5t60.5 70t21.5 106.5v111q0 63 -21.5 109t-60.5 70.5t-92 24.5h-357v187h350q116 0 202 -47t132 -135t46 -207v-116q0 -118 -46.5 -204.5t-132 -133.5t-201.5 -47h-350v187zM140 1454h197v-1454h-197v1454z" />
    <glyph glyph-name="germandbls" unicode="&#xdf;" horiz-adv-x="995" 
d="M135 1096q0 118 43.5 202t126 127.5t198.5 43.5q115 0 196 -38t123.5 -111t42.5 -176v-58q0 -89 -42 -147.5t-118 -75.5q76 -16 118 -73t42 -144v-398q0 -126 -80 -194.5t-226 -68.5h-49v187h49q52 0 80.5 27t28.5 76v393q0 46 -28.5 72t-80.5 26h-49v187h49
q52 0 80.5 33.5t28.5 94.5v56q0 69 -41.5 107t-116.5 38q-84 0 -131 -51t-47 -144v-1087h-197v1096z" />
    <glyph glyph-name="agrave" unicode="&#xe0;" horiz-adv-x="963" 
d="M643 709q0 82 -44 127.5t-124 45.5q-57 0 -101.5 -26.5t-67.5 -75.5l-167 51q29 107 117 165.5t219 58.5q113 0 193.5 -40.5t122.5 -117t42 -184.5v-713h-190v709zM182.5 61q-79.5 76 -79.5 230q0 165 83.5 246.5t251.5 81.5h214l14 -167h-227q-75 0 -112 -40t-37 -121
q0 -70 41.5 -104t125.5 -34q94 0 140 32.5t46 98.5l21 -121q-14 -60 -45.5 -99.5t-80.5 -59t-116 -19.5q-160 0 -239.5 76zM173 1567l143 113l266 -355l-124 -94z" />
    <glyph glyph-name="aacute" unicode="&#xe1;" horiz-adv-x="963" 
d="M643 709q0 82 -44 127.5t-124 45.5q-57 0 -101.5 -26.5t-67.5 -75.5l-167 51q29 107 117 165.5t219 58.5q113 0 193.5 -40.5t122.5 -117t42 -184.5v-713h-190v709zM182.5 61q-79.5 76 -79.5 230q0 165 83.5 246.5t251.5 81.5h214l14 -167h-227q-75 0 -112 -40t-37 -121
q0 -70 41.5 -104t125.5 -34q94 0 140 32.5t46 98.5l21 -121q-14 -60 -45.5 -99.5t-80.5 -59t-116 -19.5q-160 0 -239.5 76zM376 1325l266 355l143 -113l-285 -336z" />
    <glyph glyph-name="acircumflex" unicode="&#xe2;" horiz-adv-x="963" 
d="M643 709q0 82 -44 127.5t-124 45.5q-57 0 -101.5 -26.5t-67.5 -75.5l-167 51q29 107 117 165.5t219 58.5q113 0 193.5 -40.5t122.5 -117t42 -184.5v-713h-190v709zM182.5 61q-79.5 76 -79.5 230q0 165 83.5 246.5t251.5 81.5h214l14 -167h-227q-75 0 -112 -40t-37 -121
q0 -70 41.5 -104t125.5 -34q94 0 140 32.5t46 98.5l21 -121q-14 -60 -45.5 -99.5t-80.5 -59t-116 -19.5q-160 0 -239.5 76zM768 1334l-111 -103l-175 186l-175 -186l-110 103l285 298z" />
    <glyph glyph-name="atilde" unicode="&#xe3;" horiz-adv-x="963" 
d="M643 709q0 82 -44 127.5t-124 45.5q-57 0 -101.5 -26.5t-67.5 -75.5l-167 51q29 107 117 165.5t219 58.5q113 0 193.5 -40.5t122.5 -117t42 -184.5v-713h-190v709zM182.5 61q-79.5 76 -79.5 230q0 165 83.5 246.5t251.5 81.5h214l14 -167h-227q-75 0 -112 -40t-37 -121
q0 -70 41.5 -104t125.5 -34q94 0 140 32.5t46 98.5l21 -121q-14 -60 -45.5 -99.5t-80.5 -59t-116 -19.5q-160 0 -239.5 76zM561 1259.5q-28 11.5 -61 31.5l-7 5q-6 4 -11.5 8t-11.5 7q-32 23 -53 34t-43 11q-30 0 -44.5 -15t-14.5 -46v-48h-145v66q0 106 45 161t132 55
q36 0 65.5 -12.5t64.5 -36.5l9 -6l13 -9q31 -21 50.5 -31.5t39.5 -10.5q30 0 45.5 17t15.5 49v41h146v-62q0 -108 -44.5 -164t-130.5 -56q-32 0 -60 11.5z" />
    <glyph glyph-name="adieresis" unicode="&#xe4;" horiz-adv-x="963" 
d="M643 709q0 82 -44 127.5t-124 45.5q-57 0 -101.5 -26.5t-67.5 -75.5l-167 51q29 107 117 165.5t219 58.5q113 0 193.5 -40.5t122.5 -117t42 -184.5v-713h-190v709zM182.5 61q-79.5 76 -79.5 230q0 165 83.5 246.5t251.5 81.5h214l14 -167h-227q-75 0 -112 -40t-37 -121
q0 -70 41.5 -104t125.5 -34q94 0 140 32.5t46 98.5l21 -121q-14 -60 -45.5 -99.5t-80.5 -59t-116 -19.5q-160 0 -239.5 76zM576 1448h197v-197h-197v197zM191 1448h197v-197h-197v197z" />
    <glyph glyph-name="aring" unicode="&#xe5;" horiz-adv-x="963" 
d="M643 709q0 82 -44 127.5t-124 45.5q-57 0 -101.5 -26.5t-67.5 -75.5l-167 51q29 107 117 165.5t219 58.5q113 0 193.5 -40.5t122.5 -117t42 -184.5v-713h-190v709zM182.5 61q-79.5 76 -79.5 230q0 165 83.5 246.5t251.5 81.5h214l14 -167h-227q-75 0 -112 -40t-37 -121
q0 -70 41.5 -104t125.5 -34q94 0 140 32.5t46 98.5l21 -121q-14 -60 -45.5 -99.5t-80.5 -59t-116 -19.5q-160 0 -239.5 76zM311 1290.5q-59 59.5 -59 172.5q0 118 59 179.5t171 61.5t171.5 -62.5t59.5 -178.5q0 -113 -59.5 -172.5t-171.5 -59.5t-171 59.5zM551.5 1385
q24.5 29 24.5 82q0 55 -24.5 84t-69.5 29t-69 -29t-24 -84q0 -54 24 -82.5t69 -28.5t69.5 29z" />
    <glyph glyph-name="ae" unicode="&#xe6;" horiz-adv-x="1475" 
d="M648 709q0 81 -45 126t-128 45q-57 0 -101.5 -26t-67.5 -74l-167 51q29 107 116.5 165.5t217.5 58.5q143 0 221.5 -83t78.5 -234v-400h-125v371zM183.5 64q-80.5 79 -80.5 237q0 155 84 234t251 79h249l14 -158h-262q-75 0 -113 -39t-38 -116q0 -74 39.5 -111t118.5 -37
q67 0 111.5 29t66.5 79t22 111l94 4l10 -165q-31 -113 -112.5 -169.5t-213.5 -56.5q-160 0 -240.5 79zM849.5 31q-72.5 46 -110.5 134t-38 212v275q0 127 36.5 217.5t107 138t169.5 47.5q112 0 191.5 -52.5t121.5 -152.5t42 -240v-154h-595v157h408v49q-4 103 -48.5 160
t-121.5 57q-90 0 -139.5 -63t-49.5 -178v-255q0 -106 53 -163.5t148 -57.5q61 0 109 28.5t73 81.5v3l151 -59v-4q-39 -108 -126 -167.5t-207 -59.5q-102 0 -174.5 46z" />
    <glyph glyph-name="ccedilla" unicode="&#xe7;" horiz-adv-x="896" 
d="M285.5 29.5q-85.5 44.5 -130.5 129.5t-45 206v304q0 122 45 208.5t130.5 131.5t206.5 45q99 0 171 -30t116 -90.5t59 -150.5v0l-181 -57v0q-15 70 -56.5 106.5t-105.5 36.5q-90 0 -138.5 -52.5t-48.5 -147.5v-304q0 -93 48.5 -144t138.5 -51q65 0 106.5 35.5t55.5 104.5
v0l182 -61v0q-14 -87 -58 -146.5t-117 -88.5t-172 -29q-121 0 -206.5 44.5zM295 -404l40 135q50 -14 97 -14q45 0 67.5 13.5t22.5 40.5q0 26 -32 38.5t-97 12.5l84 112q108 0 162 -44t54 -133t-59.5 -134t-176.5 -45q-99 0 -162 18zM377 91h160v-269h-160v269z" />
    <glyph glyph-name="egrave" unicode="&#xe8;" horiz-adv-x="950" 
d="M287.5 32q-86.5 47 -132 138t-45.5 220v239q0 135 44 230t127.5 145t201.5 50q114 0 195 -52t123.5 -151t42.5 -239v-171h-593v161h404v56q0 103 -46 160.5t-126 57.5q-88 0 -136.5 -61.5t-48.5 -174.5v-255q0 -102 51.5 -158t146.5 -56q61 0 100.5 28t55.5 81v0l180 -58
v0q-29 -117 -114 -177t-222 -60q-122 0 -208.5 47zM169 1567l143 113l266 -355l-124 -94z" />
    <glyph glyph-name="eacute" unicode="&#xe9;" horiz-adv-x="950" 
d="M287.5 32q-86.5 47 -132 138t-45.5 220v239q0 135 44 230t127.5 145t201.5 50q114 0 195 -52t123.5 -151t42.5 -239v-171h-593v161h404v56q0 103 -46 160.5t-126 57.5q-88 0 -136.5 -61.5t-48.5 -174.5v-255q0 -102 51.5 -158t146.5 -56q61 0 100.5 28t55.5 81v0l180 -58
v0q-29 -117 -114 -177t-222 -60q-122 0 -208.5 47zM372 1325l266 355l143 -113l-285 -336z" />
    <glyph glyph-name="ecircumflex" unicode="&#xea;" horiz-adv-x="950" 
d="M287.5 32q-86.5 47 -132 138t-45.5 220v239q0 135 44 230t127.5 145t201.5 50q114 0 195 -52t123.5 -151t42.5 -239v-171h-593v161h404v56q0 103 -46 160.5t-126 57.5q-88 0 -136.5 -61.5t-48.5 -174.5v-255q0 -102 51.5 -158t146.5 -56q61 0 100.5 28t55.5 81v0l180 -58
v0q-29 -117 -114 -177t-222 -60q-122 0 -208.5 47zM764 1334l-111 -103l-175 186l-175 -186l-110 103l285 298z" />
    <glyph glyph-name="edieresis" unicode="&#xeb;" horiz-adv-x="950" 
d="M287.5 32q-86.5 47 -132 138t-45.5 220v239q0 135 44 230t127.5 145t201.5 50q114 0 195 -52t123.5 -151t42.5 -239v-171h-593v161h404v56q0 103 -46 160.5t-126 57.5q-88 0 -136.5 -61.5t-48.5 -174.5v-255q0 -102 51.5 -158t146.5 -56q61 0 100.5 28t55.5 81v0l180 -58
v0q-29 -117 -114 -177t-222 -60q-122 0 -208.5 47zM572 1448h197v-197h-197v197zM187 1448h197v-197h-197v197z" />
    <glyph glyph-name="igrave" unicode="&#xec;" horiz-adv-x="460" 
d="M134 1038h197v-1038h-197v1038zM-76 1567l143 113l266 -355l-124 -94z" />
    <glyph glyph-name="iacute" unicode="&#xed;" horiz-adv-x="460" 
d="M134 1038h197v-1038h-197v1038zM127 1325l266 355l143 -113l-285 -336z" />
    <glyph glyph-name="icircumflex" unicode="&#xee;" horiz-adv-x="460" 
d="M134 1038h197v-1038h-197v1038zM519 1334l-111 -103l-175 186l-175 -186l-110 103l285 298z" />
    <glyph glyph-name="idieresis" unicode="&#xef;" horiz-adv-x="460" 
d="M134 1038h197v-1038h-197v1038zM327 1448h197v-197h-197v197zM-58 1448h197v-197h-197v197z" />
    <glyph glyph-name="eth" unicode="&#xf0;" horiz-adv-x="934" 
d="M634 737q2 132 -40.5 258.5t-129.5 249.5l-144 209h220l102 -164q83 -133 125 -287t42 -330zM809 673v-323q0 -114 -41.5 -196t-121 -125.5t-190.5 -43.5q-109 0 -187 43t-118.5 124.5t-40.5 197.5v326q0 118 34.5 203t100.5 130.5t158 45.5q87 0 148.5 -52.5
t113.5 -159.5zM617 665q0 205 -160 205q-77 0 -116 -51t-39 -152v-308q0 -189 155 -189q81 0 120.5 47t39.5 142v306zM761 1440l36 -147l-589 -136l-36 147z" />
    <glyph glyph-name="ntilde" unicode="&#xf1;" horiz-adv-x="999" 
d="M135 1038h197v-1038h-197v1038zM672 675q0 95 -44 144.5t-128 49.5q-82 0 -125 -47t-43 -136l-21 174q42 96 111.5 145.5t156.5 49.5q139 0 214.5 -91.5t75.5 -260.5v-703h-197v675zM576 1259.5q-28 11.5 -61 31.5l-7 5q-6 4 -11.5 8t-11.5 7q-32 23 -53 34t-43 11
q-30 0 -44.5 -15t-14.5 -46v-48h-145v66q0 106 45 161t132 55q36 0 65.5 -12.5t64.5 -36.5l9 -6l13 -9q31 -21 50.5 -31.5t39.5 -10.5q30 0 45.5 17t15.5 49v41h146v-62q0 -108 -44.5 -164t-130.5 -56q-32 0 -60 11.5z" />
    <glyph glyph-name="ograve" unicode="&#xf2;" horiz-adv-x="946" 
d="M278 29.5q-82 44.5 -125 129t-43 203.5v321q0 118 43 201.5t125 127t196 43.5q115 0 196 -43.5t123.5 -127t42.5 -201.5v-324q0 -118 -42.5 -202t-123.5 -128t-196 -44q-114 0 -196 44.5zM595.5 224q43.5 49 43.5 139v316q0 89 -43.5 137.5t-122.5 48.5q-78 0 -122 -48.5
t-44 -137.5v-316q0 -89 43.5 -138.5t122.5 -49.5t122.5 49zM165 1567l143 113l266 -355l-124 -94z" />
    <glyph glyph-name="oacute" unicode="&#xf3;" horiz-adv-x="946" 
d="M278 29.5q-82 44.5 -125 129t-43 203.5v321q0 118 43 201.5t125 127t196 43.5q115 0 196 -43.5t123.5 -127t42.5 -201.5v-324q0 -118 -42.5 -202t-123.5 -128t-196 -44q-114 0 -196 44.5zM595.5 224q43.5 49 43.5 139v316q0 89 -43.5 137.5t-122.5 48.5q-78 0 -122 -48.5
t-44 -137.5v-316q0 -89 43.5 -138.5t122.5 -49.5t122.5 49zM368 1325l266 355l143 -113l-285 -336z" />
    <glyph glyph-name="ocircumflex" unicode="&#xf4;" horiz-adv-x="946" 
d="M278 29.5q-82 44.5 -125 129t-43 203.5v321q0 118 43 201.5t125 127t196 43.5q115 0 196 -43.5t123.5 -127t42.5 -201.5v-324q0 -118 -42.5 -202t-123.5 -128t-196 -44q-114 0 -196 44.5zM595.5 224q43.5 49 43.5 139v316q0 89 -43.5 137.5t-122.5 48.5q-78 0 -122 -48.5
t-44 -137.5v-316q0 -89 43.5 -138.5t122.5 -49.5t122.5 49zM760 1334l-111 -103l-175 186l-175 -186l-110 103l285 298z" />
    <glyph glyph-name="otilde" unicode="&#xf5;" horiz-adv-x="946" 
d="M278 29.5q-82 44.5 -125 129t-43 203.5v321q0 118 43 201.5t125 127t196 43.5q115 0 196 -43.5t123.5 -127t42.5 -201.5v-324q0 -118 -42.5 -202t-123.5 -128t-196 -44q-114 0 -196 44.5zM595.5 224q43.5 49 43.5 139v316q0 89 -43.5 137.5t-122.5 48.5q-78 0 -122 -48.5
t-44 -137.5v-316q0 -89 43.5 -138.5t122.5 -49.5t122.5 49zM553 1259.5q-28 11.5 -61 31.5l-7 5q-6 4 -11.5 8t-11.5 7q-32 23 -53 34t-43 11q-30 0 -44.5 -15t-14.5 -46v-48h-145v66q0 106 45 161t132 55q36 0 65.5 -12.5t64.5 -36.5l9 -6l13 -9q31 -21 50.5 -31.5
t39.5 -10.5q30 0 45.5 17t15.5 49v41h146v-62q0 -108 -44.5 -164t-130.5 -56q-32 0 -60 11.5z" />
    <glyph glyph-name="odieresis" unicode="&#xf6;" horiz-adv-x="946" 
d="M278 29.5q-82 44.5 -125 129t-43 203.5v321q0 118 43 201.5t125 127t196 43.5q115 0 196 -43.5t123.5 -127t42.5 -201.5v-324q0 -118 -42.5 -202t-123.5 -128t-196 -44q-114 0 -196 44.5zM595.5 224q43.5 49 43.5 139v316q0 89 -43.5 137.5t-122.5 48.5q-78 0 -122 -48.5
t-44 -137.5v-316q0 -89 43.5 -138.5t122.5 -49.5t122.5 49zM568 1448h197v-197h-197v197zM183 1448h197v-197h-197v197z" />
    <glyph glyph-name="divide" unicode="&#xf7;" horiz-adv-x="803" 
d="M313 1067h199v-202h-199v202zM95 763h618v-187h-618v187zM313 474h199v-203h-199v203z" />
    <glyph glyph-name="oslash" unicode="&#xf8;" horiz-adv-x="946" 
d="M632 1180h134l-441 -1322h-134zM278 29.5q-82 44.5 -125 129t-43 203.5v321q0 118 43 201.5t125 127t196 43.5q115 0 196 -43.5t123.5 -127t42.5 -201.5v-324q0 -118 -42.5 -202t-123.5 -128t-196 -44q-114 0 -196 44.5zM595.5 224q43.5 49 43.5 139v316
q0 89 -43.5 137.5t-122.5 48.5q-78 0 -122 -48.5t-44 -137.5v-316q0 -89 43.5 -138.5t122.5 -49.5t122.5 49z" />
    <glyph glyph-name="ugrave" unicode="&#xf9;" horiz-adv-x="987" 
d="M660 1038h197v-1038h-197v1038zM332 346q0 -83 43 -127t122 -44t121 41t42 120l14 -173q-30 -82 -91.5 -130t-151.5 -48q-144 0 -220 92.5t-76 264.5v696h197v-692zM184 1567l143 113l266 -355l-124 -94z" />
    <glyph glyph-name="uacute" unicode="&#xfa;" horiz-adv-x="987" 
d="M660 1038h197v-1038h-197v1038zM332 346q0 -83 43 -127t122 -44t121 41t42 120l14 -173q-30 -82 -91.5 -130t-151.5 -48q-144 0 -220 92.5t-76 264.5v696h197v-692zM387 1325l266 355l143 -113l-285 -336z" />
    <glyph glyph-name="ucircumflex" unicode="&#xfb;" horiz-adv-x="987" 
d="M660 1038h197v-1038h-197v1038zM332 346q0 -83 43 -127t122 -44t121 41t42 120l14 -173q-30 -82 -91.5 -130t-151.5 -48q-144 0 -220 92.5t-76 264.5v696h197v-692zM779 1334l-111 -103l-175 186l-175 -186l-110 103l285 298z" />
    <glyph glyph-name="udieresis" unicode="&#xfc;" horiz-adv-x="987" 
d="M660 1038h197v-1038h-197v1038zM332 346q0 -83 43 -127t122 -44t121 41t42 120l14 -173q-30 -82 -91.5 -130t-151.5 -48q-144 0 -220 92.5t-76 264.5v696h197v-692zM587 1448h197v-197h-197v197zM202 1448h197v-197h-197v197z" />
    <glyph glyph-name="yacute" unicode="&#xfd;" horiz-adv-x="879" 
d="M859 1038l-377 -1281q-20 -67 -58 -109t-97 -61.5t-143 -19.5h-35v188h35q63 0 99.5 26.5t55.5 84.5l320 1172h200zM45 1038h200l271 -899l-104 -222zM357 1325l266 355l143 -113l-285 -336z" />
    <glyph glyph-name="thorn" unicode="&#xfe;" horiz-adv-x="969" 
d="M135 1454h197v-1876h-197v1876zM410 32q-63 47 -92 131l14 189q0 -59 19.5 -101t56 -64.5t87.5 -22.5q79 0 123 53t44 149v308q0 95 -44 148.5t-123 53.5q-51 0 -87.5 -21.5t-56 -63t-19.5 -98.5l-21 172q40 90 107.5 140t149.5 50q92 0 157.5 -44t99.5 -128.5t34 -204.5
v-315q0 -119 -35 -204t-102.5 -129.5t-162.5 -44.5q-86 0 -149 47z" />
    <glyph glyph-name="ydieresis" unicode="&#xff;" horiz-adv-x="879" 
d="M859 1038l-377 -1281q-20 -67 -58 -109t-97 -61.5t-143 -19.5h-35v188h35q63 0 99.5 26.5t55.5 84.5l320 1172h200zM45 1038h200l271 -899l-104 -222zM557 1448h197v-197h-197v197zM172 1448h197v-197h-197v197z" />
    <glyph glyph-name="Amacron" unicode="&#x100;" horiz-adv-x="1116" 
d="M471 1454h174l436 -1454h-212l-311 1165l-311 -1165h-212zM266 505h598v-187h-598v187zM873 1765v-191h-630v191h630z" />
    <glyph glyph-name="amacron" unicode="&#x101;" horiz-adv-x="963" 
d="M643 709q0 82 -44 127.5t-124 45.5q-57 0 -101.5 -26.5t-67.5 -75.5l-167 51q29 107 117 165.5t219 58.5q113 0 193.5 -40.5t122.5 -117t42 -184.5v-713h-190v709zM182.5 61q-79.5 76 -79.5 230q0 165 83.5 246.5t251.5 81.5h214l14 -167h-227q-75 0 -112 -40t-37 -121
q0 -70 41.5 -104t125.5 -34q94 0 140 32.5t46 98.5l21 -121q-14 -60 -45.5 -99.5t-80.5 -59t-116 -19.5q-160 0 -239.5 76zM797 1443v-193h-630v193h630z" />
    <glyph glyph-name="Abreve" unicode="&#x102;" horiz-adv-x="1116" 
d="M471 1454h174l436 -1454h-212l-311 1165l-311 -1165h-212zM266 505h598v-187h-598v187zM860 1863q0 -145 -78 -225t-220 -80h-8q-142 0 -220 80t-78 225l165 -2q0 -74 35 -115t98 -41h8q64 0 98.5 41t34.5 115z" />
    <glyph glyph-name="abreve" unicode="&#x103;" horiz-adv-x="963" 
d="M643 709q0 82 -44 127.5t-124 45.5q-57 0 -101.5 -26.5t-67.5 -75.5l-167 51q29 107 117 165.5t219 58.5q113 0 193.5 -40.5t122.5 -117t42 -184.5v-713h-190v709zM182.5 61q-79.5 76 -79.5 230q0 165 83.5 246.5t251.5 81.5h214l14 -167h-227q-75 0 -112 -40t-37 -121
q0 -70 41.5 -104t125.5 -34q94 0 140 32.5t46 98.5l21 -121q-14 -60 -45.5 -99.5t-80.5 -59t-116 -19.5q-160 0 -239.5 76zM273.5 1315.5q-68.5 77.5 -68.5 226.5v35h159v-36q0 -73 28 -111t81 -38h18q54 0 81.5 38t27.5 111v36h159v-35q0 -149 -68.5 -226.5t-199.5 -77.5
h-18q-131 0 -199.5 77.5z" />
    <glyph glyph-name="Aogonek" unicode="&#x104;" horiz-adv-x="1116" 
d="M471 1454h174l436 -1454h-212l-311 1165l-311 -1165h-212zM266 505h598v-187h-598v187zM779.5 -356q-77.5 64 -77.5 193q0 136 73 203t219 67h16v-107h-16q-116 0 -116 -134q0 -125 135 -125h62v-161h-62q-156 0 -233.5 64z" />
    <glyph glyph-name="aogonek" unicode="&#x105;" horiz-adv-x="963" 
d="M643 709q0 82 -44 127.5t-124 45.5q-57 0 -101.5 -26.5t-67.5 -75.5l-167 51q29 107 117 165.5t219 58.5q113 0 193.5 -40.5t122.5 -117t42 -184.5v-713h-190v709zM182.5 61q-79.5 76 -79.5 230q0 165 83.5 246.5t251.5 81.5h214l14 -167h-227q-75 0 -112 -40t-37 -121
q0 -70 41.5 -104t125.5 -34q94 0 140 32.5t46 98.5l21 -121q-14 -60 -45.5 -99.5t-80.5 -59t-116 -19.5q-160 0 -239.5 76zM588 -373.5q-62 46.5 -62 150.5q0 84 67 152.5t190 117.5l50 -47q-71 -44 -103.5 -88t-32.5 -96q0 -37 21.5 -53.5t68.5 -16.5h46v-166h-46
q-137 0 -199 46.5z" />
    <glyph glyph-name="Cacute" unicode="&#x106;" horiz-adv-x="1062" 
d="M323 40.5q-95 55.5 -146.5 158.5t-51.5 243v569q0 140 51.5 243.5t146.5 159t224 55.5q125 0 215.5 -50t142.5 -147t61 -236v0h-200v0q-7 77 -36 131t-76 82t-107 28q-68 0 -117.5 -32.5t-77 -92.5t-27.5 -141v-569q0 -81 27.5 -141t77 -92t117.5 -32q61 0 107.5 27.5
t75.5 81.5t36 132v0h200v0q-9 -139 -61.5 -236t-143 -147t-214.5 -50q-129 0 -224 55.5zM449 1663l260 251l137 -137l-282 -228z" />
    <glyph glyph-name="cacute" unicode="&#x107;" horiz-adv-x="896" 
d="M285.5 29.5q-85.5 44.5 -130.5 129.5t-45 206v304q0 122 45 208.5t130.5 131.5t206.5 45q99 0 171 -30t116 -90.5t59 -150.5v0l-181 -57v0q-15 70 -56.5 106.5t-105.5 36.5q-90 0 -138.5 -52.5t-48.5 -147.5v-304q0 -93 48.5 -144t138.5 -51q65 0 106.5 35.5t55.5 104.5
v0l182 -61v0q-14 -87 -58 -146.5t-117 -88.5t-172 -29q-121 0 -206.5 44.5zM371 1325l266 355l143 -113l-285 -336z" />
    <glyph glyph-name="Cdotaccent" unicode="&#x10a;" horiz-adv-x="1062" 
d="M323 40.5q-95 55.5 -146.5 158.5t-51.5 243v569q0 140 51.5 243.5t146.5 159t224 55.5q125 0 215.5 -50t142.5 -147t61 -236v0h-200v0q-7 77 -36 131t-76 82t-107 28q-68 0 -117.5 -32.5t-77 -92.5t-27.5 -141v-569q0 -81 27.5 -141t77 -92t117.5 -32q61 0 107.5 27.5
t75.5 81.5t36 132v0h200v0q-9 -139 -61.5 -236t-143 -147t-214.5 -50q-129 0 -224 55.5zM450 1770h197v-197h-197v197z" />
    <glyph glyph-name="cdotaccent" unicode="&#x10b;" horiz-adv-x="896" 
d="M285.5 29.5q-85.5 44.5 -130.5 129.5t-45 206v304q0 122 45 208.5t130.5 131.5t206.5 45q99 0 171 -30t116 -90.5t59 -150.5v0l-181 -57v0q-15 70 -56.5 106.5t-105.5 36.5q-90 0 -138.5 -52.5t-48.5 -147.5v-304q0 -93 48.5 -144t138.5 -51q65 0 106.5 35.5t55.5 104.5
v0l182 -61v0q-14 -87 -58 -146.5t-117 -88.5t-172 -29q-121 0 -206.5 44.5zM378 1448h197v-197h-197v197z" />
    <glyph glyph-name="Ccaron" unicode="&#x10c;" horiz-adv-x="1062" 
d="M323 40.5q-95 55.5 -146.5 158.5t-51.5 243v569q0 140 51.5 243.5t146.5 159t224 55.5q125 0 215.5 -50t142.5 -147t61 -236v0h-200v0q-7 77 -36 131t-76 82t-107 28q-68 0 -117.5 -32.5t-77 -92.5t-27.5 -141v-569q0 -81 27.5 -141t77 -92t117.5 -32q61 0 107.5 27.5
t75.5 81.5t36 132v0h200v0q-9 -139 -61.5 -236t-143 -147t-214.5 -50q-129 0 -224 55.5zM249 1796l110 116l188 -147l188 147l110 -116l-298 -239z" />
    <glyph glyph-name="ccaron" unicode="&#x10d;" horiz-adv-x="896" 
d="M285.5 29.5q-85.5 44.5 -130.5 129.5t-45 206v304q0 122 45 208.5t130.5 131.5t206.5 45q99 0 171 -30t116 -90.5t59 -150.5v0l-181 -57v0q-15 70 -56.5 106.5t-105.5 36.5q-90 0 -138.5 -52.5t-48.5 -147.5v-304q0 -93 48.5 -144t138.5 -51q65 0 106.5 35.5t55.5 104.5
v0l182 -61v0q-14 -87 -58 -146.5t-117 -88.5t-172 -29q-121 0 -206.5 44.5zM189 1529l113 103l175 -186l176 186l112 -103l-288 -298z" />
    <glyph glyph-name="Dcaron" unicode="&#x10e;" horiz-adv-x="1114" 
d="M270 187h297q106 0 164.5 57.5t58.5 161.5v642q0 105 -58.5 162t-164.5 57h-297v187h291q136 0 232 -48t146 -140.5t50 -223.5v-629q0 -131 -50.5 -223.5t-146.5 -141t-232 -48.5h-290v187zM140 1454h197v-1454h-197v1454zM227 1796l110 116l188 -147l188 147l110 -116
l-298 -239z" />
    <glyph glyph-name="dcaron" unicode="&#x10f;" horiz-adv-x="1179" 
d="M637 1454h197v-1454h-197v1454zM245 25q-66 43 -100.5 125.5t-34.5 197.5v336q0 118 34 201.5t99 127t156 43.5q82 0 149.5 -48t109.5 -135l-21 -180q0 57 -19 98t-55.5 62.5t-88.5 21.5q-79 0 -123 -52t-44 -146v-325q0 -90 44 -139t123 -49q52 0 88.5 21.5t55.5 62
t19 97.5l14 -182q-29 -81 -93 -131t-154 -50q-93 0 -159 43zM986 1469h167v-196l-167 -150v346z" />
    <glyph glyph-name="Dcroat" unicode="&#x110;" horiz-adv-x="1149" 
d="M305 187h297q106 0 164.5 57.5t58.5 161.5v642q0 105 -58.5 162t-164.5 57h-297v187h291q136 0 232 -48t146 -140.5t50 -223.5v-629q0 -131 -50.5 -223.5t-146.5 -141t-232 -48.5h-290v187zM175 1454h197v-1454h-197v1454zM623 812v-170h-588v170h588z" />
    <glyph glyph-name="dcroat" unicode="&#x111;" horiz-adv-x="964" 
d="M353 1352h595v-186h-595v186zM637 1454h197v-1454h-197v1454zM245 25q-66 43 -100.5 125.5t-34.5 197.5v336q0 118 34 201.5t99 127t156 43.5q82 0 149.5 -48t109.5 -135l-21 -180q0 57 -19 98t-55.5 62.5t-88.5 21.5q-79 0 -123 -52t-44 -146v-325q0 -90 44 -139
t123 -49q52 0 88.5 21.5t55.5 62t19 97.5l14 -182q-29 -81 -93 -131t-154 -50q-93 0 -159 43z" />
    <glyph glyph-name="Emacron" unicode="&#x112;" horiz-adv-x="999" 
d="M140 1454h197v-1454h-197v1454zM239 187h680v-187h-680v187zM239 816h600v-187h-600v187zM239 1454h680v-187h-680v187zM860 1765v-191h-630v191h630z" />
    <glyph glyph-name="emacron" unicode="&#x113;" horiz-adv-x="950" 
d="M287.5 32q-86.5 47 -132 138t-45.5 220v239q0 135 44 230t127.5 145t201.5 50q114 0 195 -52t123.5 -151t42.5 -239v-171h-593v161h404v56q0 103 -46 160.5t-126 57.5q-88 0 -136.5 -61.5t-48.5 -174.5v-255q0 -102 51.5 -158t146.5 -56q61 0 100.5 28t55.5 81v0l180 -58
v0q-29 -117 -114 -177t-222 -60q-122 0 -208.5 47zM793 1443v-193h-630v193h630z" />
    <glyph glyph-name="Edotaccent" unicode="&#x116;" horiz-adv-x="999" 
d="M140 1454h197v-1454h-197v1454zM239 187h680v-187h-680v187zM239 816h600v-187h-600v187zM239 1454h680v-187h-680v187zM447 1770h197v-197h-197v197z" />
    <glyph glyph-name="edotaccent" unicode="&#x117;" horiz-adv-x="950" 
d="M287.5 32q-86.5 47 -132 138t-45.5 220v239q0 135 44 230t127.5 145t201.5 50q114 0 195 -52t123.5 -151t42.5 -239v-171h-593v161h404v56q0 103 -46 160.5t-126 57.5q-88 0 -136.5 -61.5t-48.5 -174.5v-255q0 -102 51.5 -158t146.5 -56q61 0 100.5 28t55.5 81v0l180 -58
v0q-29 -117 -114 -177t-222 -60q-122 0 -208.5 47zM380 1448h197v-197h-197v197z" />
    <glyph glyph-name="Eogonek" unicode="&#x118;" horiz-adv-x="999" 
d="M140 1454h197v-1454h-197v1454zM239 187h680v-187h-680v187zM239 816h600v-187h-600v187zM239 1454h680v-187h-680v187zM622.5 -356q-77.5 64 -77.5 193q0 136 73 203t219 67h16v-107h-16q-116 0 -116 -134q0 -125 135 -125h62v-161h-62q-156 0 -233.5 64z" />
    <glyph glyph-name="eogonek" unicode="&#x119;" horiz-adv-x="950" 
d="M565.5 -354.5q-69.5 55.5 -69.5 171.5q0 99 63.5 182.5t190.5 159.5l50 -47l-13 -12q-63 -60 -91.5 -118.5t-28.5 -125.5q0 -51 28 -75.5t87 -24.5h46v-166h-46q-147 0 -216.5 55.5zM287.5 32.5q-86.5 47.5 -132 138t-45.5 219.5v240q0 134 44 229.5t127.5 145.5
t201.5 50q114 0 195 -52.5t123.5 -151.5t42.5 -239v-171h-593v161h405v56q-5 104 -50 161.5t-123 57.5q-88 0 -136.5 -61.5t-48.5 -174.5v-256q0 -102 51.5 -158t146.5 -56q60 0 107 28.5t71 79.5v4l158 -67v-4q-39 -108 -127 -167.5t-209 -59.5q-122 0 -208.5 47.5z" />
    <glyph glyph-name="Ecaron" unicode="&#x11a;" horiz-adv-x="999" 
d="M140 1454h197v-1454h-197v1454zM239 187h680v-187h-680v187zM239 816h600v-187h-600v187zM239 1454h680v-187h-680v187zM246 1796l110 116l188 -147l188 147l110 -116l-298 -239z" />
    <glyph glyph-name="ecaron" unicode="&#x11b;" horiz-adv-x="950" 
d="M287.5 32q-86.5 47 -132 138t-45.5 220v239q0 135 44 230t127.5 145t201.5 50q114 0 195 -52t123.5 -151t42.5 -239v-171h-593v161h404v56q0 103 -46 160.5t-126 57.5q-88 0 -136.5 -61.5t-48.5 -174.5v-255q0 -102 51.5 -158t146.5 -56q61 0 100.5 28t55.5 81v0l180 -58
v0q-29 -117 -114 -177t-222 -60q-122 0 -208.5 47zM190 1529l113 103l175 -186l176 186l112 -103l-288 -298z" />
    <glyph glyph-name="Gbreve" unicode="&#x11e;" horiz-adv-x="1114" 
d="M989 783v-340q0 -140 -52 -243.5t-149 -159t-228 -55.5q-133 0 -231.5 52t-151 150t-52.5 230v594q0 140 52 243.5t149 159t228 55.5q126 0 217 -50t144 -147t62 -236v0h-212v0q-6 78 -34 132t-73.5 81.5t-103.5 27.5q-70 0 -122 -32.5t-79.5 -92.5t-27.5 -141v-594
q0 -73 28.5 -127t81.5 -83.5t125 -29.5q70 0 121.5 31t79.5 90.5t28 141.5v156h-229v187h429zM862 1863q0 -145 -78 -225t-220 -80h-8q-142 0 -220 80t-78 225l165 -2q0 -74 35 -115t98 -41h8q64 0 98.5 41t34.5 115z" />
    <glyph glyph-name="gbreve" unicode="&#x11f;" horiz-adv-x="964" 
d="M227.5 -358.5q-83.5 63.5 -102.5 186.5v0l185 55v0q14 -65 53 -99.5t100 -34.5q83 0 129 49t46 138v1102h196v-1087q0 -118 -44.5 -201.5t-130 -127.5t-206.5 -44q-142 0 -225.5 63.5zM245 25q-66 43 -100.5 125t-34.5 198v336q0 118 34 201t99 127t156 44q82 0 150 -48
t110 -135l-21 -177q0 57 -19.5 98t-56 62t-87.5 21q-80 0 -124 -51.5t-44 -145.5v-331q0 -89 44 -138.5t124 -49.5q51 0 87.5 21.5t56 62t19.5 97.5l14 -179q-29 -82 -93.5 -131.5t-154.5 -49.5q-93 0 -159 43zM269.5 1315.5q-68.5 77.5 -68.5 226.5v35h159v-36
q0 -73 28 -111t81 -38h18q54 0 81.5 38t27.5 111v36h159v-35q0 -149 -68.5 -226.5t-199.5 -77.5h-18q-131 0 -199.5 77.5z" />
    <glyph glyph-name="Gdotaccent" unicode="&#x120;" horiz-adv-x="1114" 
d="M989 783v-340q0 -140 -52 -243.5t-149 -159t-228 -55.5q-133 0 -231.5 52t-151 150t-52.5 230v594q0 140 52 243.5t149 159t228 55.5q126 0 217 -50t144 -147t62 -236v0h-212v0q-6 78 -34 132t-73.5 81.5t-103.5 27.5q-70 0 -122 -32.5t-79.5 -92.5t-27.5 -141v-594
q0 -73 28.5 -127t81.5 -83.5t125 -29.5q70 0 121.5 31t79.5 90.5t28 141.5v156h-229v187h429zM462 1770h197v-197h-197v197z" />
    <glyph glyph-name="gdotaccent" unicode="&#x121;" horiz-adv-x="964" 
d="M227.5 -358.5q-83.5 63.5 -102.5 186.5v0l185 55v0q14 -65 53 -99.5t100 -34.5q83 0 129 49t46 138v1102h196v-1087q0 -118 -44.5 -201.5t-130 -127.5t-206.5 -44q-142 0 -225.5 63.5zM245 25q-66 43 -100.5 125t-34.5 198v336q0 118 34 201t99 127t156 44q82 0 150 -48
t110 -135l-21 -177q0 57 -19.5 98t-56 62t-87.5 21q-80 0 -124 -51.5t-44 -145.5v-331q0 -89 44 -138.5t124 -49.5q51 0 87.5 21.5t56 62t19.5 97.5l14 -179q-29 -82 -93.5 -131.5t-154.5 -49.5q-93 0 -159 43zM380 1448h197v-197h-197v197z" />
    <glyph glyph-name="uni0122" unicode="&#x122;" horiz-adv-x="1114" 
d="M989 783v-340q0 -140 -52 -243.5t-149 -159t-228 -55.5q-133 0 -231.5 52t-151 150t-52.5 230v594q0 140 52 243.5t149 159t228 55.5q126 0 217 -50t144 -147t62 -236v0h-212v0q-6 78 -34 132t-73.5 81.5t-103.5 27.5q-70 0 -122 -32.5t-79.5 -92.5t-27.5 -141v-594
q0 -73 28.5 -127t81.5 -83.5t125 -29.5q70 0 121.5 31t79.5 90.5t28 141.5v156h-229v187h429zM462 -148h197v-154l-197 -202v356z" />
    <glyph glyph-name="uni0123" unicode="&#x123;" horiz-adv-x="964" 
d="M375 1377l197 202v-328h-197v126zM236.5 -361.5q-85.5 60.5 -111.5 170.5v12l164 63v-13q20 -58 63.5 -89.5t102.5 -31.5q87 0 135 48.5t48 137.5v1102h196v-1087q0 -118 -44.5 -201.5t-130 -127.5t-206.5 -44q-131 0 -216.5 60.5zM245 25q-66 43 -100.5 125.5
t-34.5 197.5v336q0 118 34 201.5t99 127t156 43.5q82 0 150 -48t110 -135l-21 -177q0 57 -19.5 98t-56 62.5t-88.5 21.5q-79 0 -123 -52t-44 -146v-331q0 -90 44 -139t123 -49q52 0 88.5 21.5t56 62t19.5 97.5l14 -179q-30 -81 -94 -131t-154 -50q-93 0 -159 43z" />
    <glyph glyph-name="Hbar" unicode="&#x126;" horiz-adv-x="1230" 
d="M80 1210h1070v-187h-1070v187zM843 1454h197v-1454h-197v1454zM190 1454h198v-1454h-198v1454zM317 810h627v-187h-627v187z" />
    <glyph glyph-name="hbar" unicode="&#x127;" horiz-adv-x="1012" 
d="M625 1362v-186h-600v186h600zM148 1454h197v-1454h-197v1454zM685 675q0 95 -44 144.5t-128 49.5q-82 0 -125 -46t-43 -135l-21 174q42 94 111.5 143.5t156.5 49.5q139 0 214.5 -91.5t75.5 -260.5v-703h-197v675z" />
    <glyph glyph-name="Imacron" unicode="&#x12a;" horiz-adv-x="475" 
d="M336 0h-197v1454h197v-1454zM553 1765v-191h-630v191h630z" />
    <glyph glyph-name="imacron" unicode="&#x12b;" horiz-adv-x="460" 
d="M134 1038h197v-1038h-197v1038zM548 1443v-193h-630v193h630z" />
    <glyph glyph-name="Iogonek" unicode="&#x12e;" horiz-adv-x="475" 
d="M105 -356q-79 64 -79 193q0 136 73 203t219 67v-107q-116 0 -116 -134q0 -125 140 -125h62v-161h-62q-158 0 -237 64zM336 0h-197v1454h197v-1454z" />
    <glyph glyph-name="iogonek" unicode="&#x12f;" horiz-adv-x="460" 
d="M134 1038h197v-1038h-197v1038zM134 1448h197v-197h-197v197zM86 -373.5q-62 46.5 -62 150.5q0 84 67 152.5t190 117.5l50 -47q-71 -44 -103.5 -88t-32.5 -96q0 -37 21.5 -53.5t68.5 -16.5h46v-166h-46q-137 0 -199 46.5z" />
    <glyph glyph-name="Idotaccent" unicode="&#x130;" horiz-adv-x="475" 
d="M336 0h-197v1454h197v-1454zM139 1770h197v-197h-197v197z" />
    <glyph glyph-name="dotlessi" unicode="&#x131;" horiz-adv-x="460" 
d="M134 1038h197v-1038h-197v1038z" />
    <glyph glyph-name="uni0136" unicode="&#x136;" horiz-adv-x="1094" 
d="M295 641l511 813h230l-764 -1152zM140 1454h197v-1454h-197v1454zM489 777l145 149l455 -926h-233zM472 -148h197v-154l-197 -202v356z" />
    <glyph glyph-name="uni0137" unicode="&#x137;" horiz-adv-x="953" 
d="M225 386l473 652h219l-695 -892zM135 1454h197v-1454h-197v1454zM445 570l121 140l397 -710h-215zM404 -148h197v-154l-197 -202v356z" />
    <glyph glyph-name="Lacute" unicode="&#x139;" horiz-adv-x="964" 
d="M140 1454h197v-1454h-197v1454zM242 187h667v-187h-667v187zM144 1663l260 251l137 -137l-282 -228z" />
    <glyph glyph-name="lacute" unicode="&#x13a;" horiz-adv-x="533" 
d="M332 272q0 -42 18 -64.5t52 -22.5h76v-187h-100q-116 0 -179.5 72t-63.5 203v1181h197v-1182zM139 1663l260 251l137 -137l-282 -228z" />
    <glyph glyph-name="uni013B" unicode="&#x13b;" horiz-adv-x="964" 
d="M140 1454h197v-1454h-197v1454zM242 187h667v-187h-667v187zM376 -148h197v-154l-197 -202v356z" />
    <glyph glyph-name="uni013C" unicode="&#x13c;" horiz-adv-x="533" 
d="M332 272q0 -42 18 -64.5t52 -22.5h76v-187h-100q-116 0 -179.5 72t-63.5 203v1181h197v-1182zM172 -148h197v-154l-197 -202v356z" />
    <glyph glyph-name="Lcaron" unicode="&#x13d;" horiz-adv-x="964" 
d="M140 1454h197v-1454h-197v1454zM242 187h667v-187h-667v187zM714 1453h167v-196l-167 -150v346z" />
    <glyph glyph-name="lcaron" unicode="&#x13e;" horiz-adv-x="693" 
d="M332 272q0 -42 18 -64.5t52 -22.5h76v-187h-100q-116 0 -179.5 72t-63.5 203v1181h197v-1182zM484 1469h167v-196l-167 -150v346z" />
    <glyph glyph-name="Lslash" unicode="&#x141;" horiz-adv-x="1029" 
d="M80 716l649 290v-195l-649 -290v195zM205 1454h197v-1454h-197v1454zM307 187h667v-187h-667v187z" />
    <glyph glyph-name="lslash" unicode="&#x142;" horiz-adv-x="533" 
d="M15 716l463 228v-195l-463 -228v195zM332 272q0 -42 18 -64.5t52 -22.5h76v-187h-100q-116 0 -179.5 72t-63.5 203v1181h197v-1182z" />
    <glyph glyph-name="Nacute" unicode="&#x143;" horiz-adv-x="1174" 
d="M140 1454h176l554 -1119l-27 -26v1145h191v-1453h-177l-553 1094l28 26v-1120h-192v1453zM503 1663l260 251l137 -137l-282 -228z" />
    <glyph glyph-name="nacute" unicode="&#x144;" horiz-adv-x="999" 
d="M135 1038h197v-1038h-197v1038zM672 675q0 95 -44 144.5t-128 49.5q-82 0 -125 -47t-43 -136l-21 174q42 96 111.5 145.5t156.5 49.5q139 0 214.5 -91.5t75.5 -260.5v-703h-197v675zM391 1325l266 355l143 -113l-285 -336z" />
    <glyph glyph-name="uni0145" unicode="&#x145;" horiz-adv-x="1174" 
d="M140 1454h176l554 -1119l-27 -26v1145h191v-1453h-177l-553 1094l28 26v-1120h-192v1453zM504 -148h197v-154l-197 -202v356z" />
    <glyph glyph-name="uni0146" unicode="&#x146;" horiz-adv-x="999" 
d="M135 1038h197v-1038h-197v1038zM672 675q0 95 -44 144.5t-128 49.5q-82 0 -125 -47t-43 -136l-21 174q42 96 111.5 145.5t156.5 49.5q139 0 214.5 -91.5t75.5 -260.5v-703h-197v675zM399 -148h197v-154l-197 -202v356z" />
    <glyph glyph-name="Ncaron" unicode="&#x147;" horiz-adv-x="1174" 
d="M140 1454h176l554 -1119l-27 -26v1145h191v-1453h-177l-553 1094l28 26v-1120h-192v1453zM303 1796l110 116l188 -147l188 147l110 -116l-298 -239z" />
    <glyph glyph-name="ncaron" unicode="&#x148;" horiz-adv-x="999" 
d="M135 1038h197v-1038h-197v1038zM672 675q0 95 -44 144.5t-128 49.5q-82 0 -125 -47t-43 -136l-21 174q42 96 111.5 145.5t156.5 49.5q139 0 214.5 -91.5t75.5 -260.5v-703h-197v675zM209 1529l113 103l175 -186l176 186l112 -103l-288 -298z" />
    <glyph glyph-name="Eng" unicode="&#x14a;" horiz-adv-x="1174" 
d="M140 1454h176l554 -1119l-27 -26v1145h191v-1368l-177 -85l-553 1094l28 26v-1120h-192v1453zM687 -196h83q32 0 49.5 22.5t17.5 64.5v411h197v-410q0 -131 -63.5 -203t-179.5 -72h-104v187z" />
    <glyph glyph-name="eng" unicode="&#x14b;" horiz-adv-x="999" 
d="M522 -235h83q32 0 49.5 23t17.5 64v286h197v-285q0 -131 -63.5 -203t-179.5 -72h-104v187zM135 1038h197v-1038h-197v1038zM672 675q0 95 -44 144.5t-128 49.5q-82 0 -125 -47t-43 -136l-21 174q42 96 111.5 145.5t156.5 49.5q139 0 214.5 -91.5t75.5 -260.5v-703h-197
v675z" />
    <glyph glyph-name="Omacron" unicode="&#x14c;" horiz-adv-x="1122" 
d="M329.5 40q-98.5 55 -151.5 156.5t-53 239.5v583q0 138 53 239.5t151.5 156t231.5 54.5t231.5 -54.5t151.5 -156t53 -239.5v-583q0 -138 -53 -239.5t-151.5 -156.5t-231.5 -55t-231.5 55zM686.5 208.5q53.5 30.5 82.5 87.5t29 133v596q0 77 -29 133.5t-82.5 87
t-125.5 30.5t-125.5 -30.5t-82 -87t-28.5 -133.5v-596q0 -76 28.5 -133t82 -87.5t125.5 -30.5t125.5 30.5zM876 1765v-191h-630v191h630z" />
    <glyph glyph-name="omacron" unicode="&#x14d;" horiz-adv-x="946" 
d="M278 29.5q-82 44.5 -125 129t-43 203.5v321q0 118 43 201.5t125 127t196 43.5q115 0 196 -43.5t123.5 -127t42.5 -201.5v-324q0 -118 -42.5 -202t-123.5 -128t-196 -44q-114 0 -196 44.5zM595.5 224q43.5 49 43.5 139v316q0 89 -43.5 137.5t-122.5 48.5q-78 0 -122 -48.5
t-44 -137.5v-316q0 -89 43.5 -138.5t122.5 -49.5t122.5 49zM789 1443v-193h-630v193h630z" />
    <glyph glyph-name="Ohungarumlaut" unicode="&#x150;" horiz-adv-x="1122" 
d="M329.5 40q-98.5 55 -151.5 156.5t-53 239.5v583q0 138 53 239.5t151.5 156t231.5 54.5t231.5 -54.5t151.5 -156t53 -239.5v-583q0 -138 -53 -239.5t-151.5 -156.5t-231.5 -55t-231.5 55zM686.5 208.5q53.5 30.5 82.5 87.5t29 133v596q0 77 -29 133.5t-82.5 87
t-125.5 30.5t-125.5 -30.5t-82 -87t-28.5 -133.5v-596q0 -76 28.5 -133t82 -87.5t125.5 -30.5t125.5 30.5zM607 1648l210 266l142 -127l-232 -243zM257 1648l210 266l142 -127l-232 -243z" />
    <glyph glyph-name="ohungarumlaut" unicode="&#x151;" horiz-adv-x="946" 
d="M278 29.5q-82 44.5 -125 129t-43 203.5v321q0 118 43 201.5t125 127t196 43.5q115 0 196 -43.5t123.5 -127t42.5 -201.5v-324q0 -118 -42.5 -202t-123.5 -128t-196 -44q-114 0 -196 44.5zM595.5 224q43.5 49 43.5 139v316q0 89 -43.5 137.5t-122.5 48.5q-78 0 -122 -48.5
t-44 -137.5v-316q0 -89 43.5 -138.5t122.5 -49.5t122.5 49zM533 1307l191 355l160 -100l-210 -336zM173 1307l191 355l160 -100l-210 -336z" />
    <glyph glyph-name="OE" unicode="&#x152;" horiz-adv-x="1631" 
d="M325.5 40q-96.5 55 -148.5 156.5t-52 239.5v582q0 138 52 240t148.5 156.5t225.5 54.5q114 0 191.5 -54.5t117 -155.5t39.5 -241v-581q0 -140 -39.5 -241.5t-117 -156t-191.5 -54.5q-129 0 -225.5 55zM701 209.5q53 30.5 81.5 87.5t28.5 134v593q0 76 -29 133.5t-81.5 88
t-123.5 30.5q-78 0 -135.5 -30.5t-88.5 -88t-31 -133.5v-593q0 -77 31 -134t88.5 -87.5t135.5 -30.5q71 0 124 30.5zM772 1454h197v-1454h-197v1454zM871 187h680v-187h-680v187zM871 816h600v-187h-600v187zM871 1454h680v-187h-680v187z" />
    <glyph glyph-name="oe" unicode="&#x153;" horiz-adv-x="1456" 
d="M272 29.5q-79 44.5 -120.5 129t-41.5 203.5v321q0 117 41.5 201t120.5 127t190 43q103 0 175.5 -43t110.5 -127t38 -201v-324q0 -118 -38 -202t-111 -128t-175 -44q-111 0 -190 44.5zM591 216.5q43 50.5 43 142.5v324q0 90 -43 140.5t-122 50.5q-78 0 -122.5 -50.5
t-44.5 -140.5v-324q0 -92 44 -142.5t123 -50.5t122 50.5zM827 32q-77 47 -117.5 138t-40.5 220v239q0 135 39 230t114 145t180 50q110 0 188 -52t119 -151t41 -239v-171h-588v161h404v54q0 102 -45 159t-127 57q-90 0 -139.5 -60.5t-49.5 -171.5v-255q0 -100 52.5 -154.5
t147.5 -54.5q56 0 96 27.5t57 77.5v0l180 -59v0q-28 -113 -113.5 -175t-212.5 -62q-108 0 -185 47z" />
    <glyph glyph-name="Racute" unicode="&#x154;" horiz-adv-x="1130" 
d="M229 802h382q55 0 95.5 23.5t62.5 67.5t22 103v74q0 60 -22 105t-62.5 69t-95.5 24h-382v187h370q121 0 210 -45t137 -130t48 -200v-85q0 -116 -48 -202t-137.5 -132t-209.5 -46h-370v187zM140 1455h197v-1455h-197v1455zM552 660l191 46l302 -706h-225zM439 1663
l260 251l137 -137l-282 -228z" />
    <glyph glyph-name="racute" unicode="&#x155;" horiz-adv-x="757" 
d="M135 1038h197v-1038h-197v1038zM616.5 854.5q-24.5 8.5 -57.5 8.5q-107 0 -166.5 -55t-60.5 -152l-21 201q50 94 127.5 146t171.5 52q36 0 64.5 -10.5t50.5 -30.5l-67 -185q-17 17 -41.5 25.5zM316 1325l266 355l143 -113l-285 -336z" />
    <glyph glyph-name="uni0156" unicode="&#x156;" horiz-adv-x="1130" 
d="M229 802h382q55 0 95.5 23.5t62.5 67.5t22 103v74q0 60 -22 105t-62.5 69t-95.5 24h-382v187h370q121 0 210 -45t137 -130t48 -200v-85q0 -116 -48 -202t-137.5 -132t-209.5 -46h-370v187zM140 1455h197v-1455h-197v1455zM552 660l191 46l302 -706h-225zM441 -148h197
v-154l-197 -202v356z" />
    <glyph glyph-name="uni0157" unicode="&#x157;" horiz-adv-x="757" 
d="M135 1038h197v-1038h-197v1038zM616.5 854.5q-24.5 8.5 -57.5 8.5q-107 0 -166.5 -55t-60.5 -152l-21 201q50 94 127.5 146t171.5 52q36 0 64.5 -10.5t50.5 -30.5l-67 -185q-17 17 -41.5 25.5zM140 -148h197v-154l-197 -202v356z" />
    <glyph glyph-name="Rcaron" unicode="&#x158;" horiz-adv-x="1130" 
d="M229 802h382q55 0 95.5 23.5t62.5 67.5t22 103v74q0 60 -22 105t-62.5 69t-95.5 24h-382v187h370q121 0 210 -45t137 -130t48 -200v-85q0 -116 -48 -202t-137.5 -132t-209.5 -46h-370v187zM140 1455h197v-1455h-197v1455zM552 660l191 46l302 -706h-225zM239 1796
l110 116l188 -147l188 147l110 -116l-298 -239z" />
    <glyph glyph-name="rcaron" unicode="&#x159;" horiz-adv-x="757" 
d="M135 1038h197v-1038h-197v1038zM616.5 854.5q-24.5 8.5 -57.5 8.5q-107 0 -166.5 -55t-60.5 -152l-21 201q50 94 127.5 146t171.5 52q36 0 64.5 -10.5t50.5 -30.5l-67 -185q-17 17 -41.5 25.5zM134 1529l113 103l175 -186l176 186l112 -103l-288 -298z" />
    <glyph glyph-name="Sacute" unicode="&#x15a;" horiz-adv-x="1072" 
d="M325 20.5q-90 35.5 -149.5 104t-85.5 167.5v0l189 81v0q27 -96 92 -148t160 -52q118 0 181.5 51t63.5 143v65q0 65 -33 105.5t-84.5 63t-135.5 46.5l-4.5 1.5l-4.5 1.5l-11 3q-120 34 -195.5 69.5t-129 112.5t-53.5 210v43q0 121 50.5 206.5t148 130t235.5 44.5
q102 0 181.5 -34t134 -100t78.5 -160v0l-183 -84v0q-26 92 -81 141t-130 49q-114 0 -176 -50t-62 -141v-46q0 -66 35 -107t87 -63t144 -48q4 -1 8 -2.5t8 -2.5t9 -2.5t9 -2.5q111 -33 182.5 -69t120 -111t48.5 -202v-67q0 -121 -51.5 -207t-150.5 -130.5t-239 -44.5
q-116 0 -206 35.5zM443 1663l260 251l137 -137l-282 -228z" />
    <glyph glyph-name="sacute" unicode="&#x15b;" horiz-adv-x="900" 
d="M251 12.5q-77 27.5 -126.5 82.5t-72.5 138v0l176 78v0q30 -75 81 -112t124 -37q91 0 139 36.5t48 105.5q0 45 -26 71t-65 38t-111 25q-6 1 -13 2.5t-13 2.5q-4 1 -7 1.5t-7 0.5q-87 17 -148 44t-101.5 86.5t-40.5 161.5q0 103 40.5 173.5t119 107t191.5 36.5
q96 0 167 -24.5t118 -74t70 -123.5v0l-177 -79v0q-26 63 -70.5 94.5t-107.5 31.5q-79 0 -119.5 -35t-40.5 -103q0 -43 25.5 -67t64 -35.5t107.5 -22.5q3 -1 5.5 -1t4.5 -1q2 0 5 -0.5t5 -0.5q96 -16 161 -41.5t109.5 -89t44.5 -178.5q0 -103 -43.5 -174.5t-128 -108
t-206.5 -36.5q-105 0 -182 27.5zM342 1325l266 355l143 -113l-285 -336z" />
    <glyph glyph-name="Scedilla" unicode="&#x15e;" horiz-adv-x="1072" 
d="M325 20.5q-90 35.5 -149.5 104t-85.5 167.5v0l189 81v0q27 -96 92 -148t160 -52q118 0 181.5 51t63.5 143v65q0 65 -33 105.5t-84.5 63t-135.5 46.5l-4.5 1.5l-4.5 1.5l-11 3q-120 34 -195.5 69.5t-129 112.5t-53.5 210v43q0 121 50.5 206.5t148 130t235.5 44.5
q102 0 181.5 -34t134 -100t78.5 -160v0l-183 -84v0q-26 92 -81 141t-130 49q-114 0 -176 -50t-62 -141v-46q0 -66 35 -107t87 -63t144 -48q4 -1 8 -2.5t8 -2.5t9 -2.5t9 -2.5q111 -33 182.5 -69t120 -111t48.5 -202v-67q0 -121 -51.5 -207t-150.5 -130.5t-239 -44.5
q-116 0 -206 35.5zM385 -404l40 135q47 -14 92 -14q50 0 75 13.5t25 40.5q0 26 -34.5 38.5t-104.5 12.5l84 112q113 0 169 -44t56 -133t-61.5 -134t-183.5 -45q-92 0 -157 18zM622 61v-241l-160 2v239h160z" />
    <glyph glyph-name="scedilla" unicode="&#x15f;" horiz-adv-x="900" 
d="M251 12.5q-77 27.5 -126.5 82.5t-72.5 138v0l176 78v0q30 -75 81 -112t124 -37q91 0 139 36.5t48 105.5q0 45 -26 71t-65 38t-111 25q-6 1 -13 2.5t-13 2.5q-4 1 -7 1.5t-7 0.5q-87 17 -148 44t-101.5 86.5t-40.5 161.5q0 103 40.5 173.5t119 107t191.5 36.5
q96 0 167 -24.5t118 -74t70 -123.5v0l-177 -79v0q-26 63 -70.5 94.5t-107.5 31.5q-79 0 -119.5 -35t-40.5 -103q0 -43 25.5 -67t64 -35.5t107.5 -22.5q3 -1 5.5 -1t4.5 -1q2 0 5 -0.5t5 -0.5q96 -16 161 -41.5t109.5 -89t44.5 -178.5q0 -103 -43.5 -174.5t-128 -108
t-206.5 -36.5q-105 0 -182 27.5zM283 -411l40 135q50 -14 97 -14q45 0 67.5 13.5t22.5 40.5q0 26 -32 38.5t-97 12.5l84 112q108 0 162 -44t54 -133t-59.5 -134t-176.5 -45q-99 0 -162 18zM365 84h160v-269h-160v269z" />
    <glyph glyph-name="Scaron" unicode="&#x160;" horiz-adv-x="1072" 
d="M325 20.5q-90 35.5 -149.5 104t-85.5 167.5v0l189 81v0q27 -96 92 -148t160 -52q118 0 181.5 51t63.5 143v65q0 65 -33 105.5t-84.5 63t-135.5 46.5l-4.5 1.5l-4.5 1.5l-11 3q-120 34 -195.5 69.5t-129 112.5t-53.5 210v43q0 121 50.5 206.5t148 130t235.5 44.5
q102 0 181.5 -34t134 -100t78.5 -160v0l-183 -84v0q-26 92 -81 141t-130 49q-114 0 -176 -50t-62 -141v-46q0 -66 35 -107t87 -63t144 -48q4 -1 8 -2.5t8 -2.5t9 -2.5t9 -2.5q111 -33 182.5 -69t120 -111t48.5 -202v-67q0 -121 -51.5 -207t-150.5 -130.5t-239 -44.5
q-116 0 -206 35.5zM243 1796l110 116l188 -147l188 147l110 -116l-298 -239z" />
    <glyph glyph-name="scaron" unicode="&#x161;" horiz-adv-x="900" 
d="M251 12.5q-77 27.5 -126.5 82.5t-72.5 138v0l176 78v0q30 -75 81 -112t124 -37q91 0 139 36.5t48 105.5q0 45 -26 71t-65 38t-111 25q-6 1 -13 2.5t-13 2.5q-4 1 -7 1.5t-7 0.5q-87 17 -148 44t-101.5 86.5t-40.5 161.5q0 103 40.5 173.5t119 107t191.5 36.5
q96 0 167 -24.5t118 -74t70 -123.5v0l-177 -79v0q-26 63 -70.5 94.5t-107.5 31.5q-79 0 -119.5 -35t-40.5 -103q0 -43 25.5 -67t64 -35.5t107.5 -22.5q3 -1 5.5 -1t4.5 -1q2 0 5 -0.5t5 -0.5q96 -16 161 -41.5t109.5 -89t44.5 -178.5q0 -103 -43.5 -174.5t-128 -108
t-206.5 -36.5q-105 0 -182 27.5zM160 1529l113 103l175 -186l176 186l112 -103l-288 -298z" />
    <glyph glyph-name="uni0162" unicode="&#x162;" horiz-adv-x="846" 
d="M325 1335h197v-1335h-197v1335zM-10 1454h866v-187h-866v187zM266 -404l40 135q47 -14 92 -14q50 0 75 13.5t25 40.5q0 26 -34.5 38.5t-104.5 12.5l84 112q113 0 169 -44t56 -133t-61.5 -134t-183.5 -45q-92 0 -157 18zM503 61v-241l-160 2v239h160z" />
    <glyph glyph-name="uni0163" unicode="&#x163;" horiz-adv-x="603" 
d="M220.5 64.5q-58.5 69.5 -58.5 205.5v1070h197v-1071q0 -41 17 -64t50 -23h87v-187h-108q-126 0 -184.5 69.5zM55 1038h458v-182h-458v182zM142 -404l40 135q50 -14 97 -14q45 0 67.5 13.5t22.5 40.5q0 26 -32 38.5t-97 12.5l84 112q108 0 162 -44t54 -133t-59.5 -134
t-176.5 -45q-99 0 -162 18zM224 91h160v-269h-160v269z" />
    <glyph glyph-name="Tcaron" unicode="&#x164;" horiz-adv-x="846" 
d="M325 1335h197v-1335h-197v1335zM-10 1454h866v-187h-866v187zM124 1796l110 116l188 -147l188 147l110 -116l-298 -239z" />
    <glyph glyph-name="tcaron" unicode="&#x165;" horiz-adv-x="703" 
d="M220.5 64.5q-58.5 69.5 -58.5 205.5v1070h197v-1071q0 -41 17 -64t50 -23h87v-187h-108q-126 0 -184.5 69.5zM55 1038h458v-182h-458v182zM491 1554h167v-196l-167 -150v346z" />
    <glyph glyph-name="Umacron" unicode="&#x16a;" horiz-adv-x="1092" 
d="M317.5 36.5q-94.5 51.5 -143.5 150.5t-49 240v1027h197v-1035q0 -115 58 -178t165 -63q108 0 166.5 63t58.5 178v1035h197v-1027q0 -141 -49 -240t-143.5 -150.5t-229.5 -51.5q-133 0 -227.5 51.5zM861 1765v-191h-630v191h630z" />
    <glyph glyph-name="umacron" unicode="&#x16b;" horiz-adv-x="987" 
d="M660 1038h197v-1038h-197v1038zM332 346q0 -83 43 -127t122 -44t121 41t42 120l14 -173q-30 -82 -91.5 -130t-151.5 -48q-144 0 -220 92.5t-76 264.5v696h197v-692zM808 1443v-193h-630v193h630z" />
    <glyph glyph-name="Ubreve" unicode="&#x16c;" horiz-adv-x="1092" 
d="M317.5 36.5q-94.5 51.5 -143.5 150.5t-49 240v1027h197v-1035q0 -115 58 -178t165 -63q108 0 166.5 63t58.5 178v1035h197v-1027q0 -141 -49 -240t-143.5 -150.5t-229.5 -51.5q-133 0 -227.5 51.5zM848 1863q0 -145 -78 -225t-220 -80h-8q-142 0 -220 80t-78 225l165 -2
q0 -74 35 -115t98 -41h8q64 0 98.5 41t34.5 115z" />
    <glyph glyph-name="ubreve" unicode="&#x16d;" horiz-adv-x="987" 
d="M660 1038h197v-1038h-197v1038zM332 346q0 -83 43 -127t122 -44t121 41t42 120l14 -173q-30 -82 -91.5 -130t-151.5 -48q-144 0 -220 92.5t-76 264.5v696h197v-692zM284.5 1315.5q-68.5 77.5 -68.5 226.5v35h159v-36q0 -73 28 -111t81 -38h18q54 0 81.5 38t27.5 111v36
h159v-35q0 -149 -68.5 -226.5t-199.5 -77.5h-18q-131 0 -199.5 77.5z" />
    <glyph glyph-name="Uring" unicode="&#x16e;" horiz-adv-x="1092" 
d="M317.5 36.5q-94.5 51.5 -143.5 150.5t-49 240v1027h197v-1035q0 -115 58 -178t165 -63q108 0 166.5 63t58.5 178v1035h197v-1027q0 -141 -49 -240t-143.5 -150.5t-229.5 -51.5q-133 0 -227.5 51.5zM372.5 1602.5q-61.5 60.5 -61.5 170.5q0 116 61.5 178.5t173.5 62.5
t173.5 -63t61.5 -178q0 -110 -61.5 -170.5t-173.5 -60.5t-173.5 60.5zM612.5 1702q23.5 27 23.5 75q0 50 -23.5 77.5t-66.5 27.5t-66.5 -27.5t-23.5 -77.5q0 -48 23.5 -75t66.5 -27t66.5 27z" />
    <glyph glyph-name="uring" unicode="&#x16f;" horiz-adv-x="987" 
d="M660 1038h197v-1038h-197v1038zM332 346q0 -83 43 -127t122 -44t121 41t42 120l14 -173q-30 -82 -91.5 -130t-151.5 -48q-144 0 -220 92.5t-76 264.5v696h197v-692zM322 1290.5q-59 59.5 -59 172.5q0 118 59 179.5t171 61.5t171.5 -62.5t59.5 -178.5q0 -113 -59.5 -172.5
t-171.5 -59.5t-171 59.5zM562.5 1385q24.5 29 24.5 82q0 55 -24.5 84t-69.5 29t-69 -29t-24 -84q0 -54 24 -82.5t69 -28.5t69.5 29z" />
    <glyph glyph-name="Uhungarumlaut" unicode="&#x170;" horiz-adv-x="1092" 
d="M317.5 36.5q-94.5 51.5 -143.5 150.5t-49 240v1027h197v-1035q0 -115 58 -178t165 -63q108 0 166.5 63t58.5 178v1035h197v-1027q0 -141 -49 -240t-143.5 -150.5t-229.5 -51.5q-133 0 -227.5 51.5zM592 1648l210 266l142 -127l-232 -243zM242 1648l210 266l142 -127
l-232 -243z" />
    <glyph glyph-name="uhungarumlaut" unicode="&#x171;" horiz-adv-x="987" 
d="M660 1038h197v-1038h-197v1038zM332 346q0 -83 43 -127t122 -44t121 41t42 120l14 -173q-30 -82 -91.5 -130t-151.5 -48q-144 0 -220 92.5t-76 264.5v696h197v-692zM552 1307l191 355l160 -100l-210 -336zM192 1307l191 355l160 -100l-210 -336z" />
    <glyph glyph-name="Uogonek" unicode="&#x172;" horiz-adv-x="1092" 
d="M462.5 -356q-77.5 64 -77.5 193q0 128 70 191.5t212 63.5v-92q-106 0 -106 -134q0 -125 135 -125h54v-161h-54q-156 0 -233.5 64zM317.5 36.5q-94.5 51.5 -143.5 150.5t-49 240v1027h197v-1035q0 -115 58 -178t165 -63q108 0 166.5 63t58.5 178v1035h197v-1027
q0 -141 -49 -240t-143.5 -150.5t-229.5 -51.5q-133 0 -227.5 51.5z" />
    <glyph glyph-name="uogonek" unicode="&#x173;" horiz-adv-x="987" 
d="M660 1038h197v-1038h-197v1038zM332 346q0 -83 43 -127t122 -44t121 41t42 120l14 -173q-30 -82 -91.5 -130t-151.5 -48q-144 0 -220 92.5t-76 264.5v696h197v-692zM612 -373.5q-62 46.5 -62 150.5q0 84 67 152.5t190 117.5l50 -47q-71 -44 -103.5 -88t-32.5 -96
q0 -37 21.5 -53.5t68.5 -16.5h46v-166h-46q-137 0 -199 46.5z" />
    <glyph glyph-name="Ydieresis" unicode="&#x178;" horiz-adv-x="875" 
d="M539 600v-600h-197v600l-367 854h210l255 -641l250 641h210zM535 1772h197v-197h-197v197zM145 1772h197v-197h-197v197z" />
    <glyph glyph-name="Zacute" unicode="&#x179;" horiz-adv-x="929" 
d="M839 1285l-512 -1098h527v-187h-754v169l517 1098h-499v187h721v-169zM383 1663l260 251l137 -137l-282 -228z" />
    <glyph glyph-name="zacute" unicode="&#x17a;" horiz-adv-x="868" 
d="M756 871l-422 -686h449v-185h-678v172l436 682h-422v184h637v-167zM342 1325l266 355l143 -113l-285 -336z" />
    <glyph glyph-name="Zdotaccent" unicode="&#x17b;" horiz-adv-x="929" 
d="M839 1285l-512 -1098h527v-187h-754v169l517 1098h-499v187h721v-169zM384 1770h197v-197h-197v197z" />
    <glyph glyph-name="zdotaccent" unicode="&#x17c;" horiz-adv-x="868" 
d="M756 871l-422 -686h449v-185h-678v172l436 682h-422v184h637v-167zM350 1448h197v-197h-197v197z" />
    <glyph glyph-name="Zcaron" unicode="&#x17d;" horiz-adv-x="929" 
d="M839 1285l-512 -1098h527v-187h-754v169l517 1098h-499v187h721v-169zM183 1796l110 116l188 -147l188 147l110 -116l-298 -239z" />
    <glyph glyph-name="zcaron" unicode="&#x17e;" horiz-adv-x="868" 
d="M756 871l-422 -686h449v-185h-678v172l436 682h-422v184h637v-167zM160 1529l113 103l175 -186l176 186l112 -103l-288 -298z" />
    <glyph glyph-name="uni0181" unicode="&#x181;" horiz-adv-x="1313" 
d="M-10 1211q0 116 72 179.5t203 63.5h207v-184h-198q-42 0 -64.5 -17.5t-22.5 -49.5v-91h-197v99zM482 185h317q109 0 162.5 45.5t53.5 128.5v96q0 65 -22 111t-65.5 70.5t-108.5 24.5h-337v182h337q86 0 131.5 47t45.5 136v74q0 84 -48.5 127t-141.5 43h-324v184h341
q120 0 203.5 -41t125.5 -117.5t42 -183.5v-77q0 -72 -25.5 -131t-76 -99.5t-123.5 -54.5q76 -11 131 -53.5t84 -107t29 -144.5v-98q0 -106 -44 -184.5t-127.5 -120.5t-196.5 -42h-363v185zM362 1454h197v-1454h-197v1454z" />
    <glyph glyph-name="uni0186" unicode="&#x186;" horiz-adv-x="1061" 
d="M296 33q-90 48 -141 144.5t-60 240.5v0h200v0q7 -82 35.5 -135.5t75 -79.5t109.5 -26q67 0 117 32t77 92t27 141v569q0 81 -27 141t-77 92.5t-117 32.5q-63 0 -109.5 -27t-75 -80.5t-35.5 -133.5v0h-200v0q9 144 59.5 240.5t141 144.5t219.5 48q128 0 223 -55.5
t146.5 -159t51.5 -243.5v-569q0 -140 -51.5 -243t-146.5 -158.5t-223 -55.5q-129 0 -219 48z" />
    <glyph glyph-name="uni0189" unicode="&#x189;" horiz-adv-x="1149" 
d="M305 187h297q106 0 164.5 57.5t58.5 161.5v642q0 105 -58.5 162t-164.5 57h-297v187h291q136 0 232 -48t146 -140.5t50 -223.5v-629q0 -131 -50.5 -223.5t-146.5 -141t-232 -48.5h-290v187zM175 1454h197v-1454h-197v1454zM623 812v-170h-588v170h588z" />
    <glyph glyph-name="uni018A" unicode="&#x18a;" horiz-adv-x="1336" 
d="M-10 1211q0 116 72 179.5t203 63.5h207v-184h-198q-42 0 -64.5 -17.5t-22.5 -49.5v-91h-197v99zM492 187h297q106 0 164.5 57.5t58.5 161.5v642q0 105 -58.5 162t-164.5 57h-297v187h291q136 0 232 -48t146 -140.5t50 -223.5v-629q0 -131 -50.5 -223.5t-146.5 -141
t-232 -48.5h-290v187zM362 1454h197v-1454h-197v1454z" />
    <glyph glyph-name="uni018E" unicode="&#x18e;" horiz-adv-x="999" 
d="M662 0v1454h197v-1454h-197zM80 0v187h680v-187h-680zM160 629v187h600v-187h-600zM80 1267v187h680v-187h-680z" />
    <glyph glyph-name="uni018F" unicode="&#x18f;" horiz-adv-x="1107" 
d="M335 36q-93 51 -141.5 149t-48.5 235v369h729v-188h-530v-181q0 -115 56.5 -178.5t159.5 -63.5q101 0 157 61t56 171v628q0 114 -58 176t-164 62q-89 0 -146 -52.5t-76 -153.5v0l-188 61v0q35 167 139 252.5t271 85.5q133 0 227.5 -51t144 -149t49.5 -235v-624
q0 -135 -48 -230t-140.5 -145t-223.5 -50q-132 0 -225 51z" />
    <glyph glyph-name="uni0190" unicode="&#x190;" horiz-adv-x="978" 
d="M290.5 26q-86.5 41 -131 121.5t-44.5 198.5v115q0 118 51 194t149 104q-86 42 -131 108t-45 149v114q0 111 41 186.5t121.5 114t198.5 38.5q127 0 207 -40.5t122 -127.5t50 -230v0h-198v0q-6 75 -25.5 120.5t-56.5 66.5t-94 21q-83 0 -126 -38t-43 -110v-123
q0 -78 37.5 -118.5t109.5 -40.5h142v-186h-142q-84 0 -127.5 -48.5t-43.5 -142.5v-123q0 -85 49 -129.5t143 -44.5q67 0 109.5 21t64.5 66.5t26 120.5v0h199v0q-6 -143 -49.5 -230t-128.5 -127.5t-221 -40.5q-127 0 -213.5 41z" />
    <glyph glyph-name="uni0191" unicode="&#x191;" horiz-adv-x="970" 
d="M10 -217h83q32 0 49.5 22.5t17.5 64.5v432h197v-431q0 -131 -63.5 -203t-179.5 -72h-104v187zM160 1454h197v-1454h-197v1454zM260 803h590v-187h-590v187zM260 1454h670v-187h-670v187z" />
    <glyph glyph-name="florin" unicode="&#x192;" horiz-adv-x="584" 
d="M55 -235h39q32 0 49.5 23t17.5 64v248h197v-247q0 -131 -63.5 -203t-179.5 -72h-60v187zM161 1179q0 137 64 206t195 69h134v-187h-129q-32 0 -49.5 -24t-17.5 -63v-1180h-197v1179zM55 1038h499v-177h-499v177z" />
    <glyph glyph-name="uni0194" unicode="&#x194;" horiz-adv-x="1002" 
d="M327 -378q-54 44 -54 142q0 60 39 152t125 235h128q86 -143 125 -235t39 -152q0 -98 -54 -142t-174 -44t-174 44zM538.5 -244.5q11.5 13.5 11.5 43.5q0 22 -11.5 58.5t-37.5 95.5q-49 -123 -49 -154q0 -30 11.5 -43.5t37.5 -13.5t37.5 13.5zM20 1454h210l271 -1128
l271 1128h210l-383 -1454h-196z" />
    <glyph glyph-name="uni0198" unicode="&#x198;" horiz-adv-x="1094" 
d="M292 632l449 717q23 40 50.5 64.5t60 36t73.5 11.5h109v-187h-79q-22 0 -44 -17.5t-48 -57.5l-588 -890zM140 1454h197v-1454h-197v1454zM489 777l145 149l455 -926h-233z" />
    <glyph glyph-name="uni0199" unicode="&#x199;" horiz-adv-x="953" 
d="M225 386l473 652h219l-695 -892zM445 570l121 140l397 -710h-215zM135 1189q0 131 64 203t180 72h103v-187h-83q-32 0 -49.5 -22.5t-17.5 -64.5v-1190h-197v1189z" />
    <glyph glyph-name="Ohorn" unicode="&#x1a0;" horiz-adv-x="1172" 
d="M705 1275v164h180q129 0 129 154v33h199v-53q0 -149 -73.5 -223.5t-221.5 -74.5h-213zM329.5 40q-98.5 55 -151.5 156.5t-53 239.5v583q0 138 53 239.5t151.5 156t231.5 54.5t231.5 -54.5t151.5 -156t53 -239.5v-583q0 -138 -53 -239.5t-151.5 -156.5t-231.5 -55
t-231.5 55zM686.5 208.5q53.5 30.5 82.5 87.5t29 133v596q0 77 -29 133.5t-82.5 87t-125.5 30.5t-125.5 -30.5t-82 -87t-28.5 -133.5v-596q0 -76 28.5 -133t82 -87.5t125.5 -30.5t125.5 30.5z" />
    <glyph glyph-name="ohorn" unicode="&#x1a1;" horiz-adv-x="983" 
d="M550 1038h135q61 0 95 36.5t34 102.5v74h199v-94q0 -125 -77.5 -194t-217.5 -69h-168v144zM278 29.5q-82 44.5 -125 129t-43 203.5v321q0 118 43 201.5t125 127t196 43.5q115 0 196 -43.5t123.5 -127t42.5 -201.5v-324q0 -118 -42.5 -202t-123.5 -128t-196 -44
q-114 0 -196 44.5zM595.5 224q43.5 49 43.5 139v316q0 89 -43.5 137.5t-122.5 48.5q-78 0 -122 -48.5t-44 -137.5v-316q0 -89 43.5 -138.5t122.5 -49.5t122.5 49z" />
    <glyph glyph-name="Uhorn" unicode="&#x1af;" horiz-adv-x="1227" 
d="M317.5 36.5q-94.5 51.5 -143.5 150.5t-49 240v1027h197v-1035q0 -115 58 -178t165 -63q108 0 166.5 63t58.5 178v1035h197v-1027q0 -141 -49 -240t-143.5 -150.5t-229.5 -51.5q-133 0 -227.5 51.5zM779 1310v144h145q61 0 95 36.5t34 102.5v73h199v-93q0 -125 -77 -194
t-218 -69h-178z" />
    <glyph glyph-name="uhorn" unicode="&#x1b0;" horiz-adv-x="1111" 
d="M660 1038h197v-1038h-197v1038zM332 346q0 -83 43 -127t122 -44t121 41t42 120l14 -173q-30 -82 -91.5 -130t-151.5 -48q-144 0 -220 92.5t-76 264.5v696h197v-692zM668 894v144h145q61 0 95 36.5t34 102.5v74h199v-94q0 -125 -77 -194t-218 -69h-178z" />
    <glyph glyph-name="uni01B2" unicode="&#x1b2;" horiz-adv-x="1092" 
d="M317.5 36.5q-94.5 51.5 -143.5 150.5t-49 240v1027h197v-1035q0 -115 58 -178t165 -63q108 0 166.5 63t58.5 178v705h197v-697q0 -141 -49 -240t-143.5 -150.5t-229.5 -51.5q-133 0 -227.5 51.5zM770 1180q0 42 -17.5 64.5t-49.5 22.5h-83v187h104q116 0 179.5 -72
t63.5 -203v-235h-197v236z" />
    <glyph glyph-name="uni01B3" unicode="&#x1b3;" horiz-adv-x="902" 
d="M342 600l-367 854h210l289 -722l65 -47v-685h-197v600zM399 694l202 542q11 27 21 52q27 63 51.5 98t63 55t96.5 20h109v-187h-69q-29 0 -47 -18t-35 -57l-299 -710z" />
    <glyph glyph-name="uni01B4" unicode="&#x1b4;" horiz-adv-x="954" 
d="M149 -245h35q65 0 102 26.5t53 84.5l278 1019q23 84 75.5 126t140.5 42h101v-187h-63q-33 0 -54 -18.5t-32 -56.5l-303 -1034q-20 -67 -58 -109t-97 -61.5t-143 -19.5h-35v188zM45 1038h200l271 -899l-104 -222z" />
    <glyph glyph-name="uni01B7" unicode="&#x1b7;" horiz-adv-x="963" 
d="M256 29q-84 44 -129.5 132.5t-51.5 221.5v0h199v0q5 -104 52.5 -156t137.5 -52q92 0 139.5 44.5t47.5 129.5v138q0 94 -44.5 142.5t-131.5 48.5h-157v186h157q122 0 205 -43.5t125.5 -129t42.5 -210.5v-130q0 -120 -44 -201.5t-129.5 -123t-210.5 -41.5q-124 0 -208 44z
M318 864l286 403h-486v187h715v-169l-343 -483z" />
    <glyph glyph-name="uni01DD" unicode="&#x1dd;" horiz-adv-x="950" 
d="M272.5 36.5q-81.5 51.5 -124 150t-42.5 236.5v170h594v-160h-405v-56q0 -101 46.5 -157.5t125.5 -56.5q89 0 137.5 60.5t48.5 170.5v254q0 104 -52 161.5t-147 57.5q-62 0 -104.5 -29t-58.5 -85v0l-173 65v0q30 117 115 176t221 59q123 0 209.5 -47.5t131.5 -139.5
t45 -222v-239q0 -133 -44 -227.5t-127.5 -143.5t-201.5 -49q-113 0 -194.5 51.5z" />
    <glyph glyph-name="uni0218" unicode="&#x218;" horiz-adv-x="1072" 
d="M325 20.5q-90 35.5 -149.5 104t-85.5 167.5v0l189 81v0q27 -96 92 -148t160 -52q118 0 181.5 51t63.5 143v65q0 65 -33 105.5t-84.5 63t-135.5 46.5l-4.5 1.5l-4.5 1.5l-11 3q-120 34 -195.5 69.5t-129 112.5t-53.5 210v43q0 121 50.5 206.5t148 130t235.5 44.5
q102 0 181.5 -34t134 -100t78.5 -160v0l-183 -84v0q-26 92 -81 141t-130 49q-114 0 -176 -50t-62 -141v-46q0 -66 35 -107t87 -63t144 -48q4 -1 8 -2.5t8 -2.5t9 -2.5t9 -2.5q111 -33 182.5 -69t120 -111t48.5 -202v-67q0 -121 -51.5 -207t-150.5 -130.5t-239 -44.5
q-116 0 -206 35.5zM444 -148h197v-154l-197 -202v356z" />
    <glyph glyph-name="uni0219" unicode="&#x219;" horiz-adv-x="900" 
d="M251 12.5q-77 27.5 -126.5 82.5t-72.5 138v0l176 78v0q30 -75 81 -112t124 -37q91 0 139 36.5t48 105.5q0 45 -26 71t-65 38t-111 25q-6 1 -13 2.5t-13 2.5q-4 1 -7 1.5t-7 0.5q-87 17 -148 44t-101.5 86.5t-40.5 161.5q0 103 40.5 173.5t119 107t191.5 36.5
q96 0 167 -24.5t118 -74t70 -123.5v0l-177 -79v0q-26 63 -70.5 94.5t-107.5 31.5q-79 0 -119.5 -35t-40.5 -103q0 -43 25.5 -67t64 -35.5t107.5 -22.5q3 -1 5.5 -1t4.5 -1q2 0 5 -0.5t5 -0.5q96 -16 161 -41.5t109.5 -89t44.5 -178.5q0 -103 -43.5 -174.5t-128 -108
t-206.5 -36.5q-105 0 -182 27.5zM347 -155h197v-154l-197 -202v356z" />
    <glyph glyph-name="uni021A" unicode="&#x21a;" horiz-adv-x="846" 
d="M325 1335h197v-1335h-197v1335zM-10 1454h866v-187h-866v187zM325 -148h197v-154l-197 -202v356z" />
    <glyph glyph-name="uni021B" unicode="&#x21b;" horiz-adv-x="603" 
d="M220.5 64.5q-58.5 69.5 -58.5 205.5v1070h197v-1071q0 -41 17 -64t50 -23h87v-187h-108q-126 0 -184.5 69.5zM55 1038h458v-182h-458v182zM206 -148h197v-154l-197 -202v356z" />
    <glyph glyph-name="uni0253" unicode="&#x253;" horiz-adv-x="969" 
d="M135 1189q0 131 64 203t180 72h103v-187h-83q-32 0 -49.5 -22.5t-17.5 -64.5v-1190h-197v1189zM410 32q-63 47 -92 131l14 189q0 -59 19.5 -101t55.5 -64.5t88 -22.5q79 0 123 53t44 149v306q0 96 -44 149t-123 53q-52 0 -88 -21.5t-55.5 -62.5t-19.5 -99l-21 172
q40 91 107.5 140.5t149.5 49.5q92 0 157.5 -44t99.5 -128.5t34 -203.5v-314q0 -120 -35 -204.5t-103 -129t-163 -44.5q-85 0 -148 47z" />
    <glyph glyph-name="uni0254" unicode="&#x254;" horiz-adv-x="896" 
d="M167 51q-88 66 -109 197v0l185 57v0q21 -72 62.5 -108.5t103.5 -36.5q86 0 133.5 53.5t47.5 151.5v303q0 95 -47.5 147.5t-133.5 52.5q-65 0 -107.5 -36t-58.5 -107v0l-184 57v0q22 134 110 202.5t236 68.5q121 0 206.5 -45t130 -131.5t44.5 -208.5v-303
q0 -121 -44.5 -206t-130 -129.5t-206.5 -44.5q-150 0 -238 66z" />
    <glyph glyph-name="uni0256" unicode="&#x256;" horiz-adv-x="964" 
d="M701 -350q-64 72 -64 203v335h197v-336q0 -41 17.5 -64t49.5 -23h83v-187h-103q-116 0 -180 72zM637 1454h197v-1454h-197v1454zM245 25q-66 43 -100.5 125.5t-34.5 197.5v336q0 118 34 201.5t99 127t156 43.5q82 0 149.5 -48t109.5 -135l-21 -180q0 57 -19 98
t-55.5 62.5t-88.5 21.5q-79 0 -123 -52t-44 -146v-325q0 -90 44 -139t123 -49q52 0 88.5 21.5t55.5 62t19 97.5l14 -182q-29 -81 -93 -131t-154 -50q-93 0 -159 43z" />
    <glyph glyph-name="uni0257" unicode="&#x257;" horiz-adv-x="964" 
d="M637 1189q0 131 64 203t180 72h103v-187h-83q-32 0 -49.5 -22.5t-17.5 -64.5v-1190h-197v1189zM245 25q-66 43 -100.5 125.5t-34.5 197.5v336q0 118 34 201.5t99 127t156 43.5q82 0 149.5 -48t109.5 -135l-21 -180q0 57 -19 98t-55.5 62.5t-88.5 21.5q-79 0 -123 -52
t-44 -146v-325q0 -90 44 -139t123 -49q52 0 88.5 21.5t55.5 62t19 97.5l14 -182q-29 -81 -93 -131t-154 -50q-93 0 -159 43z" />
    <glyph glyph-name="uni0259" unicode="&#x259;" horiz-adv-x="950" 
d="M272.5 36.5q-81.5 51.5 -124 150t-42.5 236.5v170h594v-160h-405v-56q0 -101 46.5 -157.5t125.5 -56.5q89 0 137.5 60.5t48.5 170.5v254q0 104 -52 161.5t-147 57.5q-62 0 -104.5 -29t-58.5 -85v0l-173 65v0q30 117 115 176t221 59q123 0 209.5 -47.5t131.5 -139.5
t45 -222v-239q0 -133 -44 -227.5t-127.5 -143.5t-201.5 -49q-113 0 -194.5 51.5z" />
    <glyph glyph-name="uni025B" unicode="&#x25b;" horiz-adv-x="831" 
d="M190 60.5q-90 75.5 -90 212.5v77q0 46 17 85.5t51 67t82 39.5q-69 26 -102.5 77t-33.5 114v66q0 122 86 189t243 67q131 0 212.5 -53t108.5 -152v-38l-164 -61v28q-23 47 -63 71t-94 24q-65 0 -101 -25.5t-36 -73.5v-50q0 -45 27 -69.5t75 -24.5h147v-183h-147
q-55 0 -85.5 -25.5t-30.5 -72.5v-56q0 -60 40.5 -94t113.5 -34q52 0 96.5 27.5t71.5 78.5v33l160 -69v-48q-32 -99 -115.5 -151t-212.5 -52q-166 0 -256 75.5z" />
    <glyph glyph-name="uni02BB" unicode="&#x2bb;" horiz-adv-x="325" 
d="M64 1234l197 195v-392h-197v197z" />
    <glyph glyph-name="uni02BC" unicode="&#x2bc;" horiz-adv-x="325" 
d="M64 1454h197v-196l-197 -195v391z" />
    <glyph glyph-name="circumflex" unicode="&#x2c6;" horiz-adv-x="669" 
d="M621 1334l-111 -103l-175 186l-175 -186l-110 103l285 298z" />
    <glyph glyph-name="caron" unicode="&#x2c7;" horiz-adv-x="669" 
d="M47 1529l113 103l175 -186l176 186l112 -103l-288 -298z" />
    <glyph glyph-name="uni02C9" unicode="&#x2c9;" horiz-adv-x="710" 
d="M670 1443v-193h-630v193h630z" />
    <glyph glyph-name="breve" unicode="&#x2d8;" horiz-adv-x="634" 
d="M108.5 1315.5q-68.5 77.5 -68.5 226.5v35h159v-36q0 -73 28 -111t81 -38h18q54 0 81.5 38t27.5 111v36h159v-35q0 -149 -68.5 -226.5t-199.5 -77.5h-18q-131 0 -199.5 77.5z" />
    <glyph glyph-name="dotaccent" unicode="&#x2d9;" horiz-adv-x="424" 
d="M114 1448h197v-197h-197v197z" />
    <glyph glyph-name="ogonek" unicode="&#x2db;" horiz-adv-x="327" 
d="M72 -373.5q-62 46.5 -62 150.5q0 84 67 152.5t190 117.5l50 -47q-71 -44 -103.5 -88t-32.5 -96q0 -37 21.5 -53.5t68.5 -16.5h46v-166h-46q-137 0 -199 46.5z" />
    <glyph glyph-name="tilde" unicode="&#x2dc;" horiz-adv-x="705" 
d="M431 1258.5q-28 11.5 -61 31.5l-7 5q-6 4 -11.5 8t-11.5 7q-32 23 -53 34t-43 11q-30 0 -44.5 -15t-14.5 -46v-48h-145v66q0 106 45 161t132 55q36 0 65.5 -12.5t64.5 -36.5l9 -6l13 -9q31 -21 50.5 -31.5t39.5 -10.5q30 0 45.5 17t15.5 49v41h146v-62q0 -108 -44.5 -164
t-130.5 -56q-32 0 -60 11.5z" />
    <glyph glyph-name="hungarumlaut" unicode="&#x2dd;" horiz-adv-x="777" 
d="M394 1307l191 355l160 -100l-210 -336zM34 1307l191 355l160 -100l-210 -336z" />
    <glyph glyph-name="gravecomb" unicode="&#x300;" 
d="M-433 1567l143 113l266 -355l-124 -94z" />
    <glyph glyph-name="acutecomb" unicode="&#x301;" 
d="M-445 1325l266 355l143 -113l-285 -336z" />
    <glyph glyph-name="uni0302" unicode="&#x302;" 
d="M-38 1334l-111 -103l-175 186l-175 -186l-110 103l285 298z" />
    <glyph glyph-name="tildecomb" unicode="&#x303;" 
d="M-283 1259.5q-28 11.5 -61 31.5l-7 5q-6 4 -11.5 8t-11.5 7q-32 23 -53 34t-43 11q-30 0 -44.5 -15t-14.5 -46v-48h-145v66q0 106 45 161t132 55q36 0 65.5 -12.5t64.5 -36.5l9 -6l13 -9q31 -21 50.5 -31.5t39.5 -10.5q30 0 45.5 17t15.5 49v41h146v-62
q0 -108 -44.5 -164t-130.5 -56q-32 0 -60 11.5z" />
    <glyph glyph-name="uni0304" unicode="&#x304;" 
d="M-100 1443v-193h-630v193h630z" />
    <glyph glyph-name="uni0306" unicode="&#x306;" 
d="M-565.5 1315.5q-68.5 77.5 -68.5 226.5v35h159v-36q0 -73 28 -111t81 -38h18q54 0 81.5 38t27.5 111v36h159v-35q0 -149 -68.5 -226.5t-199.5 -77.5h-18q-131 0 -199.5 77.5z" />
    <glyph glyph-name="uni0307" unicode="&#x307;" 
d="M-207 1448h197v-197h-197v197z" />
    <glyph glyph-name="uni0308" unicode="&#x308;" 
d="M-263 1448h197v-197h-197v197zM-648 1448h197v-197h-197v197z" />
    <glyph glyph-name="hookabovecomb" unicode="&#x309;" 
d="M-120 1609.5q55 -43.5 55 -132.5q0 -154 -200 -154l-87 76q111 0 111 54q0 56 -74 56q-46 0 -95 -14l-22 140q58 18 145 18q112 0 167 -43.5zM-368 1399l166 -4v-145h-166v149z" />
    <glyph glyph-name="uni030A" unicode="&#x30a;" 
d="M-466 1290.5q-59 59.5 -59 172.5q0 118 59 179.5t171 61.5t171.5 -62.5t59.5 -178.5q0 -113 -59.5 -172.5t-171.5 -59.5t-171 59.5zM-225.5 1385q24.5 29 24.5 82q0 55 -24.5 84t-69.5 29t-69 -29t-24 -84q0 -54 24 -82.5t69 -28.5t69.5 29z" />
    <glyph glyph-name="uni030B" unicode="&#x30b;" 
d="M-406 1307l191 355l160 -100l-210 -336zM-766 1307l191 355l160 -100l-210 -336z" />
    <glyph glyph-name="uni030C" unicode="&#x30c;" 
d="M-627 1529l113 103l175 -186l176 186l112 -103l-288 -298z" />
    <glyph glyph-name="uni031B" unicode="&#x31b;" 
d="M-473 894v144h145q61 0 95 36.5t34 102.5v74h199v-94q0 -125 -77 -194t-218 -69h-178z" />
    <glyph glyph-name="dotbelowcomb" unicode="&#x323;" 
d="M-250 -187h197v-197h-197v197z" />
    <glyph glyph-name="uni0326" unicode="&#x326;" 
d="M-210 -148h197v-154l-197 -202v356z" />
    <glyph glyph-name="uni0327" unicode="&#x327;" 
d="M-428 -404l40 135q50 -14 97 -14q45 0 67.5 13.5t22.5 40.5q0 26 -32 38.5t-97 12.5l84 112q108 0 162 -44t54 -133t-59.5 -134t-176.5 -45q-99 0 -162 18zM-346 91h160v-269h-160v269z" />
    <glyph glyph-name="uni0328" unicode="&#x328;" 
d="M-255 -373.5q-62 46.5 -62 150.5q0 84 67 152.5t190 117.5l50 -47q-71 -44 -103.5 -88t-32.5 -96q0 -37 21.5 -53.5t68.5 -16.5h46v-166h-46q-137 0 -199 46.5z" />
    <glyph glyph-name="uni0335" unicode="&#x335;" 
d="M-110 820v-186h-550v186h550z" />
    <glyph glyph-name="uni0345" unicode="&#x345;" 
d="M-221 -179q0 -35 16.5 -54.5t46.5 -19.5h76v-169h-120q-94 0 -146 60t-52 170v113h179v-100z" />
    <glyph glyph-name="uni0370" unicode="&#x370;" horiz-adv-x="903" 
d="M140 1454h198v-1454h-198v1454zM267 810h526v-187h-526v187z" />
    <glyph glyph-name="uni0371" unicode="&#x371;" horiz-adv-x="661" 
d="M135 1038h197v-1038h-197v1038zM255 601h341v-182h-341v182z" />
    <glyph glyph-name="uni0372" unicode="&#x372;" horiz-adv-x="1039" 
d="M30 1454h195v-456h-195v456zM774 1454h195v-456h-195v456zM398 1335h197v-1335h-197v1335zM64 1454h866v-187h-866v187z" />
    <glyph glyph-name="uni0373" unicode="&#x373;" horiz-adv-x="899" 
d="M10 1454h187v-436h-187v436zM662 1454h187v-436h-187v436zM331 1345h197v-1345h-197v1345zM10 1454h839v-174h-839v174z" />
    <glyph glyph-name="uni0374" unicode="&#x374;" horiz-adv-x="325" 
d="M64 1259l197 195v-391h-197v196z" />
    <glyph glyph-name="uni0375" unicode="&#x375;" horiz-adv-x="395" 
d="M99 3l197 194v-390h-197v196z" />
    <glyph glyph-name="uni0376" unicode="&#x376;" horiz-adv-x="1174" 
d="M842 1v1103l24 -26l-563 -1077h-163v1453h193v-1115l-24 26l565 1089h160v-1453h-192z" />
    <glyph glyph-name="uni0377" unicode="&#x377;" horiz-adv-x="997" 
d="M672 1v721l24 -26l-396 -695h-165v1037h190v-729l-24 26l398 703h163v-1037h-190z" />
    <glyph glyph-name="uni037A" unicode="&#x37a;" horiz-adv-x="283" 
d="M214 -179q0 -35 16.5 -54.5t46.5 -19.5h76v-169h-120q-94 0 -146 60t-52 170v113h179v-100z" />
    <glyph glyph-name="uni037B" unicode="&#x37b;" horiz-adv-x="896" 
d="M167 51q-88 66 -109 197v0l185 57v0q21 -72 62.5 -108.5t103.5 -36.5q86 0 133.5 53.5t47.5 151.5v303q0 95 -47.5 147.5t-133.5 52.5q-65 0 -107.5 -36t-58.5 -107v0l-184 57v0q22 134 110 202.5t236 68.5q121 0 206.5 -45t130 -131.5t44.5 -208.5v-303
q0 -121 -44.5 -206t-130 -129.5t-206.5 -44.5q-150 0 -238 66z" />
    <glyph glyph-name="uni037C" unicode="&#x37c;" horiz-adv-x="896" 
d="M285.5 29.5q-85.5 44.5 -130.5 129.5t-45 206v304q0 122 45 208.5t130.5 131.5t206.5 45q99 0 171 -30t116 -90.5t59 -150.5v0l-181 -57v0q-15 70 -56.5 106.5t-105.5 36.5q-90 0 -138.5 -52.5t-48.5 -147.5v-304q0 -93 48.5 -144t138.5 -51q65 0 106.5 35.5t55.5 104.5
v0l182 -61v0q-14 -87 -58 -146.5t-117 -88.5t-172 -29q-121 0 -206.5 44.5zM436 614h197v-197h-197v197z" />
    <glyph glyph-name="uni037D" unicode="&#x37d;" horiz-adv-x="896" 
d="M167 51q-88 66 -109 197v0l185 57v0q21 -72 62.5 -108.5t103.5 -36.5q86 0 133.5 53.5t47.5 151.5v303q0 95 -47.5 147.5t-133.5 52.5q-65 0 -107.5 -36t-58.5 -107v0l-184 57v0q22 134 110 202.5t236 68.5q121 0 206.5 -45t130 -131.5t44.5 -208.5v-303
q0 -121 -44.5 -206t-130 -129.5t-206.5 -44.5q-150 0 -238 66zM263 614h197v-197h-197v197z" />
    <glyph glyph-name="uni037E" unicode="&#x37e;" horiz-adv-x="395" 
d="M99 197h197v-197l-197 -193v390zM99 1031h197v-197h-197v197z" />
    <glyph glyph-name="uni037F" unicode="&#x37f;" horiz-adv-x="880" 
d="M161.5 28q-86.5 43 -141.5 121l157 119q29 -44 75.5 -68t103.5 -24q89 0 138 56.5t49 158.5v1063h197v-1067q0 -127 -45.5 -217t-132.5 -137.5t-211 -47.5q-103 0 -189.5 43z" />
    <glyph glyph-name="tonos" unicode="&#x384;" horiz-adv-x="391" 
d="M44.7656 1262.76l128.524 424.516l173.003 -57.2686l-152.874 -413.161z" />
    <glyph glyph-name="dieresistonos" unicode="&#x385;" horiz-adv-x="850" 
d="M592 1448h197v-197h-197v197zM62 1448h197v-197h-197v197zM307 1263l130 425l173 -58l-153 -413z" />
    <glyph glyph-name="Alphatonos" unicode="&#x386;" horiz-adv-x="1217" 
d="M572 1454h174l436 -1454h-212l-311 1165l-311 -1165h-212zM367 505h598v-187h-598v187zM35.7656 1047.76l128.524 424.516l173.003 -57.2686l-152.874 -413.161z" />
    <glyph glyph-name="anoteleia" unicode="&#x387;" horiz-adv-x="395" 
d="M99 1031h197v-197h-197v197z" />
    <glyph glyph-name="Epsilontonos" unicode="&#x388;" horiz-adv-x="1224" 
d="M365 1454h197v-1454h-197v1454zM464 187h680v-187h-680v187zM464 816h600v-187h-600v187zM464 1454h680v-187h-680v187zM-29.2344 1047.76l128.524 424.516l173.003 -57.2686l-152.874 -413.161z" />
    <glyph glyph-name="Etatonos" unicode="&#x389;" horiz-adv-x="1376" 
d="M1039 1454h197v-1454h-197v1454zM386 1454h198v-1454h-198v1454zM513 810h627v-187h-627v187zM-29.2344 1047.76l128.524 424.516l173.003 -57.2686l-152.874 -413.161z" />
    <glyph glyph-name="Iotatonos" unicode="&#x38a;" horiz-adv-x="705" 
d="M566 0h-197v1454h197v-1454zM-29.2344 1047.76l128.524 424.516l173.003 -57.2686l-152.874 -413.161z" />
    <glyph glyph-name="Omicrontonos" unicode="&#x38c;" horiz-adv-x="1320" 
d="M527.5 40q-98.5 55 -151.5 156.5t-53 239.5v583q0 138 53 239.5t151.5 156t231.5 54.5t231.5 -54.5t151.5 -156t53 -239.5v-583q0 -138 -53 -239.5t-151.5 -156.5t-231.5 -55t-231.5 55zM884.5 208.5q53.5 30.5 82.5 87.5t29 133v596q0 77 -29 133.5t-82.5 87
t-125.5 30.5t-125.5 -30.5t-82 -87t-28.5 -133.5v-596q0 -76 28.5 -133t82 -87.5t125.5 -30.5t125.5 30.5zM-24.2344 1047.76l128.524 424.516l173.003 -57.2686l-152.874 -413.161z" />
    <glyph glyph-name="Upsilontonos" unicode="&#x38e;" horiz-adv-x="1280" 
d="M944 600v-600h-197v600l-367 854h210l255 -641l250 641h210zM35.7656 1047.76l128.524 424.516l173.003 -57.2686l-152.874 -413.161z" />
    <glyph glyph-name="Omegatonos" unicode="&#x38f;" horiz-adv-x="1397" 
d="M569.5 153.5q-81.5 43.5 -125.5 123.5t-44 189v553q0 138 53 239.5t151.5 156t231.5 54.5t231.5 -54.5t151.5 -156t53 -239.5v-553q0 -109 -43.5 -189t-125 -123.5t-192.5 -43.5v85q49 0 85.5 29.5t56.5 85t20 129.5v586q0 77 -29 133.5t-82.5 87t-125.5 30.5
t-125.5 -30.5t-82 -87t-28.5 -133.5v-586q0 -74 19.5 -129.5t56 -85t85.5 -29.5v-85q-110 0 -191.5 43.5zM400 194h361v-194h-361v194zM911 194h361v-194h-361v194zM35.7656 1047.76l128.524 424.516l173.003 -57.2686l-152.874 -413.161z" />
    <glyph glyph-name="iotadieresistonos" unicode="&#x390;" horiz-adv-x="517" 
d="M197.5 70q-63.5 72 -63.5 203v765h197v-766q0 -42 18 -64.5t52 -22.5h76v-187h-100q-116 0 -179.5 72zM409 1448h197v-197h-197v197zM-121 1448h197v-197h-197v197zM124 1263l130 425l173 -58l-153 -413z" />
    <glyph glyph-name="Alpha" unicode="&#x391;" horiz-adv-x="1116" 
d="M471 1454h174l436 -1454h-212l-311 1165l-311 -1165h-212zM266 505h598v-187h-598v187z" />
    <glyph glyph-name="Beta" unicode="&#x392;" horiz-adv-x="1091" 
d="M260 185h317q109 0 162.5 45.5t53.5 128.5v96q0 65 -22 111t-65.5 70.5t-108.5 24.5h-337v182h337q86 0 131.5 47t45.5 136v74q0 84 -48.5 127t-141.5 43h-324v184h341q120 0 203.5 -41t125.5 -117.5t42 -183.5v-77q0 -72 -25.5 -131t-76 -99.5t-123.5 -54.5
q76 -11 131 -53.5t84 -107t29 -144.5v-98q0 -106 -44 -184.5t-127.5 -120.5t-196.5 -42h-363v185zM140 1454h197v-1454h-197v1454z" />
    <glyph glyph-name="Gamma" unicode="&#x393;" horiz-adv-x="800" 
d="M140 1454h197v-1454h-197v1454zM254 1454h556v-187h-556v187z" />
    <glyph glyph-name="uni0394" unicode="&#x394;" horiz-adv-x="1116" 
d="M471 1454h174l436 -1454h-212l-311 1165l-311 -1165h-212zM181 187h753v-187h-753v187z" />
    <glyph glyph-name="Epsilon" unicode="&#x395;" horiz-adv-x="999" 
d="M140 1454h197v-1454h-197v1454zM239 187h680v-187h-680v187zM239 816h600v-187h-600v187zM239 1454h680v-187h-680v187z" />
    <glyph glyph-name="Zeta" unicode="&#x396;" horiz-adv-x="929" 
d="M839 1285l-512 -1098h527v-187h-754v169l517 1098h-499v187h721v-169z" />
    <glyph glyph-name="Eta" unicode="&#x397;" horiz-adv-x="1130" 
d="M793 1454h197v-1454h-197v1454zM140 1454h198v-1454h-198v1454zM267 810h627v-187h-627v187z" />
    <glyph glyph-name="Theta" unicode="&#x398;" horiz-adv-x="1122" 
d="M424 816h275v-187h-275v187zM329.5 40q-98.5 55 -151.5 156.5t-53 239.5v583q0 138 53 239.5t151.5 156t231.5 54.5t231.5 -54.5t151.5 -156t53 -239.5v-583q0 -138 -53 -239.5t-151.5 -156.5t-231.5 -55t-231.5 55zM686.5 208.5q53.5 30.5 82.5 87.5t29 133v596
q0 77 -29 133.5t-82.5 87t-125.5 30.5t-125.5 -30.5t-82 -87t-28.5 -133.5v-596q0 -76 28.5 -133t82 -87.5t125.5 -30.5t125.5 30.5z" />
    <glyph glyph-name="Iota" unicode="&#x399;" horiz-adv-x="475" 
d="M336 0h-197v1454h197v-1454z" />
    <glyph glyph-name="Kappa" unicode="&#x39a;" horiz-adv-x="1094" 
d="M295 641l511 813h230l-764 -1152zM140 1454h197v-1454h-197v1454zM489 777l145 149l455 -926h-233z" />
    <glyph glyph-name="Lambda" unicode="&#x39b;" horiz-adv-x="1116" 
d="M471 1454h174l436 -1454h-212l-311 1165l-311 -1165h-212z" />
    <glyph glyph-name="Mu" unicode="&#x39c;" horiz-adv-x="1366" 
d="M1047 1454h179v-1454h-186v1095l13 -64l-304 -811h-132l-303 791l16 84v-1095h-190v1454h183l360 -936z" />
    <glyph glyph-name="Nu" unicode="&#x39d;" horiz-adv-x="1174" 
d="M140 1454h176l554 -1119l-27 -26v1145h191v-1453h-177l-553 1094l28 26v-1120h-192v1453z" />
    <glyph glyph-name="Xi" unicode="&#x39e;" horiz-adv-x="1110" 
d="M130 194h850v-194h-850v194zM211 819h688v-194h-688v194zM130 1454h850v-194h-850v194z" />
    <glyph glyph-name="Omicron" unicode="&#x39f;" horiz-adv-x="1122" 
d="M329.5 40q-98.5 55 -151.5 156.5t-53 239.5v583q0 138 53 239.5t151.5 156t231.5 54.5t231.5 -54.5t151.5 -156t53 -239.5v-583q0 -138 -53 -239.5t-151.5 -156.5t-231.5 -55t-231.5 55zM686.5 208.5q53.5 30.5 82.5 87.5t29 133v596q0 77 -29 133.5t-82.5 87
t-125.5 30.5t-125.5 -30.5t-82 -87t-28.5 -133.5v-596q0 -76 28.5 -133t82 -87.5t125.5 -30.5t125.5 30.5z" />
    <glyph glyph-name="Pi" unicode="&#x3a0;" horiz-adv-x="1130" 
d="M793 1454h197v-1454h-197v1454zM140 1454h197v-1454h-197v1454zM267 1454h627v-187h-627v187z" />
    <glyph glyph-name="Rho" unicode="&#x3a1;" horiz-adv-x="1085" 
d="M245 751h370q53 0 92 24.5t60.5 70t21.5 106.5v111q0 62 -21.5 108t-60.5 71t-92 25h-370v187h365q116 0 202 -47t132 -135t46 -207v-116q0 -118 -46.5 -204.5t-132 -133.5t-201.5 -47h-365v187zM140 1454h197v-1454h-197v1454z" />
    <glyph glyph-name="Sigma" unicode="&#x3a3;" horiz-adv-x="841" 
d="M791 1260h-495l344 -533l-344 -533h495v-194h-741v176l351 551l-351 551v176h741v-194z" />
    <glyph glyph-name="Tau" unicode="&#x3a4;" horiz-adv-x="846" 
d="M325 1335h197v-1335h-197v1335zM-10 1454h866v-187h-866v187z" />
    <glyph glyph-name="Upsilon" unicode="&#x3a5;" horiz-adv-x="875" 
d="M539 600v-600h-197v600l-367 854h210l255 -641l250 641h210z" />
    <glyph glyph-name="Phi" unicode="&#x3a6;" horiz-adv-x="1392" 
d="M360 216.5q-139 61.5 -212 179.5t-73 286v140q0 168 73 286.5t212 179.5t336 61t336.5 -61t212 -179.5t72.5 -286.5v-140q0 -168 -72.5 -286t-212 -179.5t-336.5 -61.5t-336 61.5zM598 1504h197v-1504h-197v1504zM1013 429q112 88 112 253v140q0 165 -112 253.5
t-317 88.5q-204 0 -316.5 -88.5t-112.5 -253.5v-140q0 -165 112.5 -253t316.5 -88q205 0 317 88z" />
    <glyph glyph-name="Chi" unicode="&#x3a7;" horiz-adv-x="982" 
d="M448 638l-31 51l-395 765h217l280 -590l34 -56l419 -808h-216zM439 831l295 623h216l-404 -788l-319 -666h-217z" />
    <glyph glyph-name="Psi" unicode="&#x3a8;" horiz-adv-x="1252" 
d="M354.5 413q-112.5 58 -171 169t-58.5 270v602h197v-609q0 -95 35.5 -161t103.5 -101t165 -35t165.5 35t103.5 101t35 161v609h197v-602q0 -159 -58.5 -270t-170.5 -169t-272 -58q-159 0 -271.5 58zM530 1454h197v-1454h-197v1454z" />
    <glyph glyph-name="uni03A9" unicode="&#x3a9;" horiz-adv-x="1122" 
d="M294.5 153.5q-81.5 43.5 -125.5 123.5t-44 189v553q0 138 53 239.5t151.5 156t231.5 54.5t231.5 -54.5t151.5 -156t53 -239.5v-553q0 -109 -43.5 -189t-125 -123.5t-192.5 -43.5v85q49 0 85.5 29.5t56.5 85t20 129.5v586q0 77 -29 133.5t-82.5 87t-125.5 30.5
t-125.5 -30.5t-82 -87t-28.5 -133.5v-586q0 -74 19.5 -129.5t56 -85t85.5 -29.5v-85q-110 0 -191.5 43.5zM125 194h361v-194h-361v194zM636 194h361v-194h-361v194z" />
    <glyph glyph-name="Iotadieresis" unicode="&#x3aa;" horiz-adv-x="475" 
d="M336 0h-197v1454h197v-1454zM335 1772h197v-197h-197v197zM-55 1772h197v-197h-197v197z" />
    <glyph glyph-name="Upsilondieresis" unicode="&#x3ab;" horiz-adv-x="875" 
d="M539 600v-600h-197v600l-367 854h210l255 -641l250 641h210zM560 1772h197v-197h-197v197zM170 1772h197v-197h-197v197z" />
    <glyph glyph-name="alphatonos" unicode="&#x3ac;" horiz-adv-x="1016" 
d="M252 29.5q-69 44.5 -105.5 129t-36.5 203.5v321q0 118 36.5 201.5t105.5 127t166 43.5q125 0 193.5 -84t68.5 -238v-424q0 -154 -68.5 -239t-193.5 -85q-97 0 -166 44.5zM588 224q45 49 45 139v316q0 89 -45 137.5t-126 48.5q-73 0 -114 -48.5t-41 -137.5v-316
q0 -90 41 -139t114 -49q81 0 126 49zM696.5 70q-63.5 72 -63.5 203v765h197v-766q0 -42 18 -64.5t52 -22.5h76v-187h-100q-116 0 -179.5 72zM399.766 1262.76l128.524 424.516l173.003 -57.2686l-152.874 -413.161z" />
    <glyph glyph-name="epsilontonos" unicode="&#x3ad;" horiz-adv-x="831" 
d="M190 60.5q-90 75.5 -90 212.5v77q0 46 17 85.5t51 67t82 39.5q-69 26 -102.5 77t-33.5 114v66q0 122 86 189t243 67q131 0 212.5 -53t108.5 -152v-38l-164 -61v28q-23 47 -63 71t-94 24q-65 0 -101 -25.5t-36 -73.5v-50q0 -45 27 -69.5t75 -24.5h147v-183h-147
q-55 0 -85.5 -25.5t-30.5 -72.5v-56q0 -60 40.5 -94t113.5 -34q52 0 96.5 27.5t71.5 78.5v33l160 -69v-48q-32 -99 -115.5 -151t-212.5 -52q-166 0 -256 75.5zM349.766 1262.76l128.524 424.516l173.003 -57.2686l-152.874 -413.161z" />
    <glyph glyph-name="etatonos" unicode="&#x3ae;" horiz-adv-x="999" 
d="M135 1038h197v-1038h-197v1038zM672 675q0 95 -44 144.5t-128 49.5q-82 0 -125 -47t-43 -136l-21 174q42 96 111.5 145.5t156.5 49.5q139 0 214.5 -91.5t75.5 -260.5v-975h-197v947zM430.766 1262.76l128.524 424.516l173.003 -57.2686l-152.874 -413.161z" />
    <glyph glyph-name="iotatonos" unicode="&#x3af;" horiz-adv-x="517" 
d="M197.5 70q-63.5 72 -63.5 203v765h197v-766q0 -42 18 -64.5t52 -22.5h76v-187h-100q-116 0 -179.5 72zM160.766 1262.76l128.524 424.516l173.003 -57.2686l-152.874 -413.161z" />
    <glyph glyph-name="upsilondieresistonos" unicode="&#x3b0;" horiz-adv-x="1012" 
d="M329.5 27.5q-79.5 42.5 -120 126t-40.5 203.5v422q0 39 -16 59t-47 20h-46v194h70q115 0 175.5 -70t60.5 -205v-420q0 -89 41 -136t118 -47q78 0 119 47t41 136v681h197v-681q0 -120 -41 -203.5t-120.5 -126t-195.5 -42.5t-195.5 42.5zM683 1448h197v-197h-197v197z
M153 1448h197v-197h-197v197zM398 1263l130 425l173 -58l-153 -413z" />
    <glyph glyph-name="alpha" unicode="&#x3b1;" horiz-adv-x="1016" 
d="M252 29.5q-69 44.5 -105.5 129t-36.5 203.5v321q0 118 36.5 201.5t105.5 127t166 43.5q125 0 193.5 -84t68.5 -238v-424q0 -154 -68.5 -239t-193.5 -85q-97 0 -166 44.5zM588 224q45 49 45 139v316q0 89 -45 137.5t-126 48.5q-73 0 -114 -48.5t-41 -137.5v-316
q0 -90 41 -139t114 -49q81 0 126 49zM696.5 70q-63.5 72 -63.5 203v765h197v-766q0 -42 18 -64.5t52 -22.5h76v-187h-100q-116 0 -179.5 72z" />
    <glyph glyph-name="beta" unicode="&#x3b2;" horiz-adv-x="986" 
d="M426 18.5q-62 33.5 -97 102t-41 172.5l44 37q0 -48 24.5 -83t68 -53t99.5 -18q79 0 122 45.5t43 127.5v123q0 91 -40.5 141t-114.5 50h-83v187h83q62 0 96.5 41.5t34.5 116.5v123q0 70 -41.5 109t-117.5 39q-83 0 -128.5 -47t-45.5 -132v-98h-197v100q0 116 44 198.5
t128.5 125.5t203.5 43q112 0 192.5 -39.5t122 -115.5t41.5 -183v-114q0 -84 -45 -152.5t-131 -105.5q95 -27 147.5 -105t52.5 -193v-115q0 -172 -83 -266.5t-234 -94.5q-86 0 -148 33.5zM135 1035h197v-1457h-197v1457z" />
    <glyph glyph-name="gamma" unicode="&#x3b3;" horiz-adv-x="956" 
d="M406 12q0 21 -4 42.5t-10 42.5q-1 4 -2 7t-2 7l-215 679q-12 40 -35 59.5t-54 19.5h-39v184h94q77 0 131.5 -67t95.5 -208l199 -680l38 36v-556h-197v434zM450 71l266 967h200l-338 -1077z" />
    <glyph glyph-name="delta" unicode="&#x3b4;" horiz-adv-x="946" 
d="M278 29.5q-82 44.5 -125 129t-43 203.5v321q0 99 40 172t114.5 114t177.5 47l18 -29l-296 278v64l225 -49l244 -217q67 -58 111 -112t68 -113.5t24 -124.5v-354q0 -118 -42.5 -202t-123.5 -128t-196 -44q-114 0 -196 44.5zM595.5 224q43.5 49 43.5 139v356
q0 89 -43.5 137.5t-122.5 48.5q-78 0 -122 -48.5t-44 -137.5v-356q0 -89 43.5 -138.5t122.5 -49.5t122.5 49zM164 1454h623v-184h-623v184z" />
    <glyph glyph-name="epsilon" unicode="&#x3b5;" horiz-adv-x="831" 
d="M190 60.5q-90 75.5 -90 212.5v77q0 46 17 85.5t51 67t82 39.5q-69 26 -102.5 77t-33.5 114v66q0 122 86 189t243 67q131 0 212.5 -53t108.5 -152v-38l-164 -61v28q-23 47 -63 71t-94 24q-65 0 -101 -25.5t-36 -73.5v-50q0 -45 27 -69.5t75 -24.5h147v-183h-147
q-55 0 -85.5 -25.5t-30.5 -72.5v-56q0 -60 40.5 -94t113.5 -34q52 0 96.5 27.5t71.5 78.5v33l160 -69v-48q-32 -99 -115.5 -151t-212.5 -52q-166 0 -256 75.5z" />
    <glyph glyph-name="zeta" unicode="&#x3b6;" horiz-adv-x="895" 
d="M688 -86q0 38 -17.5 54.5t-56.5 16.5h-101q-143 2 -233 46t-132.5 136.5t-42.5 238.5q0 106 26.5 203t81.5 194.5t143 206.5q42 53 80 97.5t72 80.5q26 28 52.5 53.5t52.5 47.5l212 62v-96q-33 -20 -97 -81.5t-151 -165.5l-40 -48q-80 -101 -130 -190.5t-75 -178.5
t-25 -185q0 -125 52 -182t168 -57h140q115 0 166.5 -53t51.5 -171v-204h-197v175zM159 1262v192h666v-193z" />
    <glyph glyph-name="eta" unicode="&#x3b7;" horiz-adv-x="999" 
d="M135 1038h197v-1038h-197v1038zM672 675q0 95 -44 144.5t-128 49.5q-82 0 -125 -47t-43 -136l-21 174q42 96 111.5 145.5t156.5 49.5q139 0 214.5 -91.5t75.5 -260.5v-975h-197v947z" />
    <glyph glyph-name="theta" unicode="&#x3b8;" horiz-adv-x="946" 
d="M278 29.5q-82 44.5 -125 129t-43 203.5v736q0 117 43 200.5t125 127t196 43.5q115 0 196 -43.5t123.5 -127t42.5 -200.5v-739q0 -118 -42.5 -202t-123.5 -128t-196 -44q-114 0 -196 44.5zM595.5 224q43.5 49 43.5 139v731q0 88 -43.5 137t-122.5 49q-78 0 -122 -49
t-44 -137v-731q0 -89 43.5 -138.5t122.5 -49.5t122.5 49zM244 816h455v-187h-455v187z" />
    <glyph glyph-name="iota" unicode="&#x3b9;" horiz-adv-x="517" 
d="M197.5 70q-63.5 72 -63.5 203v765h197v-766q0 -42 18 -64.5t52 -22.5h76v-187h-100q-116 0 -179.5 72z" />
    <glyph glyph-name="kappa" unicode="&#x3ba;" horiz-adv-x="953" 
d="M252 387l380 528q47 69 106 103.5t129 34.5h54v-199h-29q-40 0 -75 -18.5t-64 -55.5l-462 -597zM135 1038h197v-1038h-197v1038zM445 570l121 140l397 -710h-215z" />
    <glyph glyph-name="lambda" unicode="&#x3bb;" horiz-adv-x="966" 
d="M221 0h-186l410 1108l85 -249zM261.5 1254q-23.5 21 -53.5 21h-64v186h134q57 0 103.5 -39.5t70.5 -115.5l336 -1050q13 -38 36 -58.5t53 -20.5h54v-187h-124q-55 0 -98.5 31.5t-63.5 93.5l-348 1081q-12 37 -35.5 58z" />
    <glyph glyph-name="uni03BC" unicode="&#x3bc;" horiz-adv-x="1042" 
d="M135 1043h197v-880h-10l10 -443h-197v1323zM395 6.5q-40 21.5 -60.5 64t-22.5 105.5l20 158q0 -78 41.5 -118.5t121.5 -40.5q81 0 123 41t42 120l44 -158q-11 -95 -64 -144t-145 -49q-60 0 -100 21.5zM723.5 70q-63.5 72 -63.5 203v765h197v-766q0 -42 18 -64.5t51 -22.5
h77v-187h-100q-116 0 -179.5 72z" />
    <glyph glyph-name="nu" unicode="&#x3bd;" horiz-adv-x="958" 
d="M419 0l-224 791q-11 37 -32.5 56t-53.5 19h-54v187h97q56 0 99.5 -25t74.5 -75t49 -125l120 -542l201 752h202l-327 -1038h-152z" />
    <glyph glyph-name="xi" unicode="&#x3be;" horiz-adv-x="920" 
d="M653 -81q0 33 -17 49.5t-50 16.5h-57q-201 0 -305.5 92.5t-104.5 268.5v115q0 118 53 194t157 104q-87 42 -131.5 105t-44.5 143v62q0 119 96 180.5t283 61.5v-43q-90 0 -136 -51.5t-46 -147.5v-61q0 -78 46 -118t135 -40h223v-187h-223q-106 0 -160.5 -52.5
t-54.5 -153.5v-115q0 -88 54.5 -134t160.5 -46h141q87 0 132.5 -44.5t45.5 -129.5v-249h-197v180zM115 1454h711v-187l-711 -1v188z" />
    <glyph glyph-name="omicron" unicode="&#x3bf;" horiz-adv-x="946" 
d="M278 29.5q-82 44.5 -125 129t-43 203.5v321q0 118 43 201.5t125 127t196 43.5q115 0 196 -43.5t123.5 -127t42.5 -201.5v-324q0 -118 -42.5 -202t-123.5 -128t-196 -44q-114 0 -196 44.5zM595.5 224q43.5 49 43.5 139v316q0 89 -43.5 137.5t-122.5 48.5q-78 0 -122 -48.5
t-44 -137.5v-316q0 -89 43.5 -138.5t122.5 -49.5t122.5 49z" />
    <glyph glyph-name="pi" unicode="&#x3c0;" horiz-adv-x="1176" 
d="M777.5 59.5q-58.5 69.5 -58.5 205.5v665h197v-667q0 -41 16.5 -63.5t49.5 -22.5h83v-187h-103q-126 0 -184.5 69.5zM236 929h197v-929h-197v929zM80 1038h1006v-187h-1006v187z" />
    <glyph glyph-name="rho" unicode="&#x3c1;" horiz-adv-x="969" 
d="M135 678q0 119 43 203.5t124.5 129t194.5 44.5q115 0 196 -44t123.5 -129t42.5 -204v-315q0 -119 -35 -204t-101.5 -129.5t-161.5 -44.5q-93 0 -161 52t-99 146l31 169q0 -90 43 -139t120 -49q80 0 123.5 53t43.5 149v308q0 96 -43 149t-122 53q-78 0 -121.5 -52
t-43.5 -148v-1098h-197v1100z" />
    <glyph glyph-name="sigma1" unicode="&#x3c2;" horiz-adv-x="895" 
d="M565 -97q0 43 -17 62.5t-55 19.5h-1q-121 0 -206.5 44.5t-130.5 129.5t-45 206v304q0 122 45 208.5t130.5 131.5t206.5 45q149 0 237 -68.5t109 -202.5v0l-190 -57v0q-14 71 -53 107t-100 36q-90 0 -138.5 -52.5t-48.5 -147.5v-304q0 -94 48.5 -145.5t138.5 -51.5h53
q105 0 159 -53.5t54 -156.5v-219h-196v164z" />
    <glyph glyph-name="sigma" unicode="&#x3c3;" horiz-adv-x="1006" 
d="M273.5 28.5q-79.5 43.5 -121.5 127t-42 201.5v322q0 114 42 194.5t121.5 122.5t190.5 42l170 -146q58 -14 99 -49.5t62 -86t21 -112.5v-290q0 -117 -41 -199.5t-120 -126t-191 -43.5q-111 0 -190.5 43.5zM578.5 222.5q40.5 47.5 40.5 135.5v317q0 85 -40.5 132t-115.5 47
q-74 0 -115 -47t-41 -132v-317q0 -88 41 -135.5t115 -47.5q75 0 115.5 47.5zM464 1038h502v-187h-452z" />
    <glyph glyph-name="tau" unicode="&#x3c4;" horiz-adv-x="874" 
d="M375 59.5q-59 69.5 -59 205.5v680h197v-681q0 -41 17.5 -64t50.5 -23h92v-187h-113q-126 0 -185 69.5zM80 1038h684v-187h-684v187z" />
    <glyph glyph-name="upsilon" unicode="&#x3c5;" horiz-adv-x="1012" 
d="M329.5 27.5q-79.5 42.5 -120 126t-40.5 203.5v422q0 39 -16 59t-47 20h-46v194h70q115 0 175.5 -70t60.5 -205v-420q0 -89 41 -136t118 -47q78 0 119 47t41 136v681h197v-681q0 -120 -41 -203.5t-120.5 -126t-195.5 -42.5t-195.5 42.5z" />
    <glyph glyph-name="phi" unicode="&#x3c6;" horiz-adv-x="1221" 
d="M327.5 37.5q-114.5 52.5 -173.5 155.5t-59 254v146q0 151 59 254t173.5 155.5t281.5 52.5q169 0 284.5 -52.5t174 -155.5t58.5 -254v-149q0 -150 -58.5 -252.5t-174 -154.5t-284.5 -52q-167 0 -281.5 52.5zM517 1339h192v-1640h-192v1640zM853 203.5q84 71.5 84 209.5
v211q0 139 -84 211.5t-245 72.5q-105 0 -177 -32.5t-109 -96t-37 -155.5v-211q0 -138 82.5 -209.5t240.5 -71.5q161 0 245 71.5z" />
    <glyph glyph-name="chi" unicode="&#x3c7;" horiz-adv-x="921" 
d="M727.5 -418.5q-35.5 16.5 -64 51t-50.5 87.5l-430 1069q-16 39 -38 59t-51 20h-69v187h114q42 0 78.5 -18.5t66 -56.5t53.5 -95l424 -1055q11 -26 24.5 -43t34 -26.5t50.5 -9.5h49v-186h-114q-42 0 -77.5 16.5zM395 366l109 -172l-243 -616h-216zM458 428l211 610h216
l-323 -781z" />
    <glyph glyph-name="psi" unicode="&#x3c8;" horiz-adv-x="1297" 
d="M371.5 43q-115.5 58 -176 169t-60.5 270v556h197v-566q0 -101 37.5 -172t108.5 -107.5t173 -36.5t173.5 36.5t108.5 107.5t37 172v566h197v-556q0 -159 -60 -270t-175.5 -169t-280.5 -58q-164 0 -279.5 58zM554 1339h197v-1640h-197v1640z" />
    <glyph glyph-name="omega" unicode="&#x3c9;" horiz-adv-x="1275" 
d="M670.5 68.5q-71.5 83.5 -71.5 235.5v300h137v-296q0 -63 30.5 -98t85.5 -35t85.5 35t30.5 98v396q0 77 -40 119t-112 42v190q110 0 188.5 -40.5t119.5 -118.5t41 -188v-401q0 -153 -77 -237.5t-217 -84.5q-129 0 -200.5 83.5zM187.5 69.5q-77.5 84.5 -77.5 237.5v401
q0 110 41 188t119.5 118.5t188.5 40.5v-190q-71 0 -111.5 -42t-40.5 -119v-396q0 -63 31 -98t85 -35q55 0 85.5 35t30.5 98v296h137v-300q0 -152 -71 -235.5t-201 -83.5q-139 0 -216.5 84.5z" />
    <glyph glyph-name="iotadieresis" unicode="&#x3ca;" horiz-adv-x="517" 
d="M197.5 70q-63.5 72 -63.5 203v765h197v-766q0 -42 18 -64.5t52 -22.5h76v-187h-100q-116 0 -179.5 72zM321 1448h197v-197h-197v197zM-64 1448h197v-197h-197v197z" />
    <glyph glyph-name="upsilondieresis" unicode="&#x3cb;" horiz-adv-x="1012" 
d="M329.5 27.5q-79.5 42.5 -120 126t-40.5 203.5v422q0 39 -16 59t-47 20h-46v194h70q115 0 175.5 -70t60.5 -205v-420q0 -89 41 -136t118 -47q78 0 119 47t41 136v681h197v-681q0 -120 -41 -203.5t-120.5 -126t-195.5 -42.5t-195.5 42.5zM595 1448h197v-197h-197v197z
M210 1448h197v-197h-197v197z" />
    <glyph glyph-name="omicrontonos" unicode="&#x3cc;" horiz-adv-x="946" 
d="M278 29.5q-82 44.5 -125 129t-43 203.5v321q0 118 43 201.5t125 127t196 43.5q115 0 196 -43.5t123.5 -127t42.5 -201.5v-324q0 -118 -42.5 -202t-123.5 -128t-196 -44q-114 0 -196 44.5zM595.5 224q43.5 49 43.5 139v316q0 89 -43.5 137.5t-122.5 48.5q-78 0 -122 -48.5
t-44 -137.5v-316q0 -89 43.5 -138.5t122.5 -49.5t122.5 49zM407.766 1262.76l128.524 424.516l173.003 -57.2686l-152.874 -413.161z" />
    <glyph glyph-name="upsilontonos" unicode="&#x3cd;" horiz-adv-x="1012" 
d="M329.5 27.5q-79.5 42.5 -120 126t-40.5 203.5v422q0 39 -16 59t-47 20h-46v194h70q115 0 175.5 -70t60.5 -205v-420q0 -89 41 -136t118 -47q78 0 119 47t41 136v681h197v-681q0 -120 -41 -203.5t-120.5 -126t-195.5 -42.5t-195.5 42.5zM434.766 1262.76l128.524 424.516
l173.003 -57.2686l-152.874 -413.161z" />
    <glyph glyph-name="omegatonos" unicode="&#x3ce;" horiz-adv-x="1275" 
d="M670.5 68.5q-71.5 83.5 -71.5 235.5v300h137v-296q0 -63 30.5 -98t85.5 -35t85.5 35t30.5 98v396q0 77 -40 119t-112 42v190q110 0 188.5 -40.5t119.5 -118.5t41 -188v-401q0 -153 -77 -237.5t-217 -84.5q-129 0 -200.5 83.5zM187.5 69.5q-77.5 84.5 -77.5 237.5v401
q0 110 41 188t119.5 118.5t188.5 40.5v-190q-71 0 -111.5 -42t-40.5 -119v-396q0 -63 31 -98t85 -35q55 0 85.5 35t30.5 98v296h137v-300q0 -152 -71 -235.5t-201 -83.5q-139 0 -216.5 84.5zM571.766 1262.76l128.524 424.516l173.003 -57.2686l-152.874 -413.161z" />
    <glyph glyph-name="uni03CF" unicode="&#x3cf;" horiz-adv-x="1094" 
d="M865 -422h-233l224 422h233zM295 641l511 813h230l-764 -1152zM140 1454h197v-1454h-197v1454zM489 777l145 149l455 -926h-233z" />
    <glyph glyph-name="uni03D0" unicode="&#x3d0;" horiz-adv-x="964" 
d="M293 30.5q-82 45.5 -125 131.5t-43 208v722q0 119 41 204t119.5 129t189.5 44q107 0 183.5 -41t116 -120.5t39.5 -190.5v-102q0 -70 -26.5 -134t-78 -103.5t-121.5 -39.5l52 -83h-242v187h97q58 0 90 47t32 133v102q0 76 -37.5 117t-104.5 41q-73 0 -113 -47.5
t-40 -135.5v-732q0 -92 44 -143.5t124 -51.5t123.5 47.5t43.5 132.5v123q0 85 -42.5 132.5t-119.5 47.5v130q113 0 194 -36.5t123 -107.5t42 -170v-119q0 -116 -42.5 -198t-124.5 -125.5t-197 -43.5t-197 45.5z" />
    <glyph glyph-name="theta1" unicode="&#x3d1;" horiz-adv-x="1047" 
d="M347.5 30q-78.5 45 -120 130t-41.5 204h197q0 -88 40.5 -136.5t113.5 -48.5q71 0 110 52.5t39 147.5v703q0 96 -39 148t-110 52q-64 0 -100 -38t-36 -107v-7q0 -63 37 -97.5t104 -34.5h475v-187h-493q-152 0 -236 81t-84 228v17q0 159 87 245.5t246 86.5
q110 0 187.5 -45.5t118 -132.5t40.5 -209v-700q0 -125 -40.5 -214.5t-118 -136t-187.5 -46.5q-111 0 -189.5 45zM186 486q0 57 -17.5 92.5t-51 51.5t-82.5 16v187q110 0 188 -41t119 -119t41 -187v-122h-197v122z" />
    <glyph glyph-name="Upsilon1" unicode="&#x3d2;" horiz-adv-x="994" 
d="M397 1010h195v-1010h-195v1010zM486 979q0 143 58 252t174.5 169.5t285.5 60.5v-192q-135 0 -227 -66.5t-138.5 -187t-46.5 -281.5zM351.5 1015.5q-45.5 120.5 -137 187t-224.5 66.5v192q168 0 283.5 -60.5t173 -169.5t57.5 -252l-107 -245q0 161 -45.5 281.5z" />
    <glyph glyph-name="uni03D3" unicode="&#x3d3;" horiz-adv-x="1349" 
d="M767 1010h195v-1010h-195v1010zM856 979q0 143 58 252t174.5 169.5t285.5 60.5v-192q-135 0 -227 -66.5t-138.5 -187t-46.5 -281.5zM721.5 1015.5q-45.5 120.5 -137 187t-224.5 66.5v192q168 0 283.5 -60.5t173 -169.5t57.5 -252l-107 -245q0 161 -45.5 281.5z
M-24.2344 1047.76l128.524 424.516l173.003 -57.2686l-152.874 -413.161z" />
    <glyph glyph-name="uni03D4" unicode="&#x3d4;" horiz-adv-x="994" 
d="M397 1010h195v-1010h-195v1010zM486 979q0 143 58 252t174.5 169.5t285.5 60.5v-192q-135 0 -227 -66.5t-138.5 -187t-46.5 -281.5zM351.5 1015.5q-45.5 120.5 -137 187t-224.5 66.5v192q168 0 283.5 -60.5t173 -169.5t57.5 -252l-107 -245q0 161 -45.5 281.5zM592 1772
h197v-197h-197v197zM202 1772h197v-197h-197v197z" />
    <glyph glyph-name="phi1" unicode="&#x3d5;" horiz-adv-x="1221" 
d="M516 736q0 160 77.5 239.5t233.5 79.5q150 0 224.5 -80t74.5 -242v-299q0 -150 -56.5 -249.5t-170 -149.5t-285.5 -50q-173 0 -288.5 50t-173 150.5t-57.5 251.5v176q0 149 63.5 248.5t192.5 149.5l88 -141q-77 -36 -115.5 -101t-38.5 -160v-171q0 -153 82 -229.5
t246 -76.5q162 0 243 76.5t81 229.5v306q0 68 -27 101t-82 33q-58 0 -86.5 -31.5t-28.5 -95.5v-1052h-197v1037z" />
    <glyph glyph-name="omega1" unicode="&#x3d6;" horiz-adv-x="1475" 
d="M773 72.5q-74 87.5 -74 246.5v242h137v-238q0 -70 33 -109t93 -39t93 39t33 109v268q0 123 -40 190.5t-111 67.5l60 75q138 0 213 -96.5t75 -272.5v-233q0 -160 -79.5 -248.5t-224.5 -88.5q-134 0 -208 87.5zM270 73.5q-80 88.5 -80 248.5v233q0 117 34.5 199.5
t100.5 126t158 43.5l55 -75q-71 0 -111 -67.5t-40 -190.5v-268q0 -70 33.5 -109t92.5 -39q60 0 93 39t33 109v238h137v-242q0 -159 -73.5 -246.5t-208.5 -87.5q-144 0 -224 88.5zM80 1038h1315v-189h-1315v189z" />
    <glyph glyph-name="uni03D7" unicode="&#x3d7;" horiz-adv-x="1190" 
d="M823 -142h104q35 0 54.5 24.5t19.5 69.5v231h199v-224q0 -138 -66.5 -214t-186.5 -76h-124v189zM822.5 73.5q-61.5 77.5 -61.5 217.5q0 86 11.5 178t48.5 198l-412 -666h-165q33 210 51.5 381.5t18.5 335.5q0 66 -28 102.5t-80 36.5h-71v186h90q129 0 200 -76.5
t71 -218.5q0 -87 -13.5 -182.5t-38.5 -219.5q-2 -9 -4 -18.5t-4 -18.5l455 729h165q-54 -204 -83.5 -398t-29.5 -343q0 -54 21.5 -84t59.5 -30h68v-187h-97q-111 0 -172.5 77.5z" />
    <glyph glyph-name="uni03D8" unicode="&#x3d8;" horiz-adv-x="1122" 
d="M329.5 325.5q-98.5 54.5 -151.5 156.5t-53 239v298q0 138 53 239.5t151.5 156t231.5 54.5t231.5 -54.5t151.5 -156t53 -239.5v-298q0 -137 -53 -239t-151.5 -156.5t-231.5 -54.5t-231.5 54.5zM686.5 494.5q53.5 30.5 82.5 87t29 133.5v310q0 77 -29 133.5t-82.5 87
t-125.5 30.5t-125.5 -30.5t-82 -87t-28.5 -133.5v-310q0 -77 28.5 -133.5t82 -87t125.5 -30.5t125.5 30.5zM463 464h197v-464h-197v464z" />
    <glyph glyph-name="uni03D9" unicode="&#x3d9;" horiz-adv-x="946" 
d="M375 168h197v-440h-197v440zM278 29.5q-82 44.5 -125 129t-43 203.5v321q0 118 43 201.5t125 127t196 43.5q115 0 196 -43.5t123.5 -127t42.5 -201.5v-324q0 -118 -42.5 -202t-123.5 -128t-196 -44q-114 0 -196 44.5zM595.5 224q43.5 49 43.5 139v316q0 89 -43.5 137.5
t-122.5 48.5q-78 0 -122 -48.5t-44 -137.5v-316q0 -89 43.5 -138.5t122.5 -49.5t122.5 49z" />
    <glyph glyph-name="uni03DA" unicode="&#x3da;" horiz-adv-x="1041" 
d="M766 -81q0 34 -16 50t-51 16h-86q-167 2 -274.5 73.5t-160.5 217t-53 370.5q0 235 56 389t170 236t290 98q89 9 131 53.5t42 124.5h192q0 -149 -82 -235t-256 -110q-118 -14 -194.5 -78t-114 -181.5t-37.5 -296.5q0 -166 33 -273t100.5 -159t171.5 -52h125
q108 0 159.5 -53t51.5 -166v-204h-197v180z" />
    <glyph glyph-name="uni03DB" unicode="&#x3db;" horiz-adv-x="896" 
d="M623 -81q0 33 -15.5 49.5t-48.5 16.5h-30q-143 1 -236 55.5t-138 163.5t-45 277q0 161 50.5 271t153.5 174t262 87q42 6 62.5 35.5t20.5 82.5h192q0 -125 -70 -199.5t-213 -90.5q-136 -15 -201 -105.5t-65 -254.5q0 -161 61.5 -237.5t188.5 -76.5h50q73 0 121.5 -26
t72.5 -77.5t24 -130.5v-194h-197v180z" />
    <glyph glyph-name="uni03DC" unicode="&#x3dc;" horiz-adv-x="950" 
d="M140 1454h197v-1454h-197v1454zM240 803h590v-187h-590v187zM240 1454h670v-187h-670v187z" />
    <glyph glyph-name="uni03DD" unicode="&#x3dd;" horiz-adv-x="880" 
d="M140 1035h197v-1457h-197v1457zM240 381l520 2v-187l-520 -2v187zM240 1035h600v-187h-600v187z" />
    <glyph glyph-name="uni03DE" unicode="&#x3de;" horiz-adv-x="1085" 
d="M397 1454h215l-367 -822h-215zM840 821h215l-345 -821h-215zM212 821h692v-189h-692v189z" />
    <glyph glyph-name="uni03DF" unicode="&#x3df;" horiz-adv-x="1075" 
d="M690 -422h-222l325 822h222zM288 211h-223l347 827h223zM232 400h677v-189h-677v189z" />
    <glyph glyph-name="uni03E0" unicode="&#x3e0;" horiz-adv-x="969" 
d="M645 737q0 272 -89 407.5t-268 135.5q-101 0 -238 -45l-30 189q152 45 268 45q279 0 417.5 -182.5t138.5 -549.5q0 -408 -186 -737h-210q197 325 197 737zM159 564l535 222l64 -171l-534 -222zM49 889l560 237l64 -171l-559 -237z" />
    <glyph glyph-name="uni03E1" unicode="&#x3e1;" horiz-adv-x="989" 
d="M617.5 19q47.5 240 47.5 483q0 389 -94 583.5t-283 194.5q-110 0 -233 -45l-35 189q152 45 268 45q289 0 432.5 -241t143.5 -726q0 -241 -44.5 -481.5t-131.5 -442.5h-210q92 201 139.5 441zM169 379l535 222l64 -171l-534 -222zM49 809l560 237l64 -171l-559 -237z" />
    <glyph glyph-name="uni03E2" unicode="&#x3e2;" horiz-adv-x="1673" 
d="M944 32.5q-76 47.5 -116 138t-40 217.5v1066h151v-1073q0 -96 52 -149.5t147 -53.5t146.5 53.5t51.5 149.5v1073h197v-1043l-111 -134q-26 -145 -98 -218.5t-196 -73.5q-108 0 -184 47.5zM319.5 33.5q-87.5 48.5 -133.5 140.5t-46 222v1058h197v-1068q0 -99 52 -153.5
t146 -54.5q99 0 153 53.5t54 149.5v1073h150v-1066q0 -127 -42.5 -217.5t-123.5 -138t-196 -47.5q-123 0 -210.5 48.5zM493 -142h654q79 0 120 24t55 68t14 117v458h197v-449q0 -202 -84.5 -303.5t-281.5 -101.5h-673zM427 -353q-27 -23 -27 -69h-190q0 141 70.5 210.5
t212.5 69.5l16 -187q-55 -1 -82 -24z" />
    <glyph glyph-name="uni03E3" unicode="&#x3e3;" horiz-adv-x="1372" 
d="M442 -142h449q65 0 98 19t44.5 53.5t11.5 91.5v378h197v-369q0 -179 -76.5 -269.5t-254.5 -90.5h-468zM241 -211.5q67 69.5 201 69.5l16 -187q-47 -1 -70.5 -24t-23.5 -69h-190q0 141 67 210.5zM219.5 73q-84.5 88 -84.5 249v716h197v-724q0 -65 33.5 -100.5t94.5 -35.5
q63 0 96.5 35.5t33.5 100.5v724h157v-716q0 -107 -33.5 -182.5t-98 -115t-155.5 -39.5q-156 0 -240.5 88zM754 24.5q-61 39.5 -92.5 115t-31.5 182.5v716h157v-724q0 -65 33.5 -100.5t95.5 -35.5t95.5 35.5t33.5 100.5v724h197v-716l-114 -142q-21 -64 -53 -107t-75.5 -65.5
t-98.5 -22.5q-86 0 -147 39.5z" />
    <glyph glyph-name="uni03E4" unicode="&#x3e4;" horiz-adv-x="1104" 
d="M273 506.5q-87 52.5 -132.5 152t-45.5 238.5v140q0 218 97.5 321t297.5 103h52v-189h-52q-101 0 -149.5 -59t-48.5 -184v-130q0 -123 59 -191.5t166 -68.5q120 0 185.5 65.5t65.5 184.5v115l64 -20v-148q0 -120 -41.5 -206t-120 -131t-188.5 -45q-122 0 -209 52.5z
M768 1454h196v-1454h-196v1454z" />
    <glyph glyph-name="uni03E5" unicode="&#x3e5;" horiz-adv-x="1114" 
d="M788 1038h196v-1460h-196v1460zM552 866h-42q-103 0 -153 -64t-50 -200v-157q0 -130 60.5 -202.5t169.5 -72.5q120 0 185.5 65.5t65.5 184.5v115l64 -20v-148q0 -120 -41.5 -206t-120 -131t-188.5 -45q-124 0 -212 54.5t-134 157t-46 246.5v167q0 228 99 336.5t301 108.5
h42v-189z" />
    <glyph glyph-name="uni03E6" unicode="&#x3e6;" horiz-adv-x="1107" 
d="M425 -142h226q62 0 94.5 22t43.5 62.5t11 106.5v395q0 64 -26.5 109.5t-77.5 69t-123 23.5h-261v187h328q113 0 193 -45.5t122 -132.5t42 -210v-394q0 -189 -75.5 -284.5t-250.5 -95.5h-255zM135 1454h197v-1454h-197v1454zM364 -353q-24 -23 -24 -69h-185
q0 141 67.5 210.5t202.5 69.5l11 -187q-48 -1 -72 -24z" />
    <glyph glyph-name="uni03E7" unicode="&#x3e7;" horiz-adv-x="992" 
d="M848 427q0 -127 -46 -223.5t-130.5 -150t-196.5 -53.5v187q54 0 95 29.5t63.5 83t22.5 124.5v137q0 91 -28 160.5t-79 107t-119 37.5q-64 0 -102.5 -33.5t-38.5 -89.5v-12q0 -54 40 -86.5t106 -32.5q91 0 160 53t106.5 149.5t37.5 223.5h193q0 -183 -65 -321.5t-184 -215
t-276 -76.5q-94 0 -165.5 37t-110.5 104t-39 155v22q0 93 42 163t118.5 108.5t177.5 38.5q125 0 219.5 -61t146.5 -172.5t52 -258.5v-134zM285 -23.5q-28 -23.5 -28 -69.5h-182q0 141 69 210.5t207 69.5h124v-187h-107q-55 0 -83 -23.5z" />
    <glyph glyph-name="uni03E8" unicode="&#x3e8;" horiz-adv-x="1112" 
d="M311 30.5q-108 45.5 -160.5 136.5t-52.5 230v12q0 124 44 214.5t137 155.5t242 112q10 3 20 6.5t19 7.5q58 20 95.5 46t58 63.5t20.5 89.5v16q0 81 -42.5 121t-128.5 40q-75 0 -121.5 -40t-70.5 -122v0l-190 61v0q38 147 130 218t245 71q126 0 209 -37.5t124 -114.5
t41 -194v-12q0 -115 -40.5 -192.5t-113.5 -124.5t-181 -74q-157 -41 -229.5 -117t-72.5 -196v-10q0 -76 31 -125.5t93.5 -74t159.5 -24.5q120 0 192 56.5t102 173.5v0l189 -66v0q-28 -119 -88.5 -197t-156.5 -116.5t-231 -38.5q-165 0 -273 45.5z" />
    <glyph glyph-name="uni03E9" unicode="&#x3e9;" horiz-adv-x="918" 
d="M257 21.5q-85 36.5 -128.5 108t-43.5 174.5q0 107 39.5 174.5t108.5 104t171 57.5q4 1 10 2t10 2q57 11 93.5 26t57 39.5t20.5 61.5q0 53 -31 80.5t-89 27.5q-52 0 -88.5 -29t-55.5 -85v0l-177 70v0q32 111 112 165t209 54q100 0 169.5 -33t105 -97t35.5 -157
q0 -89 -32.5 -148t-89.5 -92.5t-138 -52.5q-1 0 -2.5 -0.5t-3.5 -0.5l-8 -2l-8 -2q-78 -18 -126 -37.5t-74.5 -50.5t-26.5 -77q0 -69 48.5 -105.5t140.5 -36.5q90 0 150.5 35.5t91.5 108.5v0l176 -71v0q-23 -84 -77 -139t-139 -83t-202 -28q-123 0 -208 36.5z" />
    <glyph glyph-name="uni03EA" unicode="&#x3ea;" horiz-adv-x="1160" 
d="M659 1294q34 70 65.5 105.5t66.5 48.5t85 13h136v-184h-124q-20 0 -32 -9.5t-25 -39.5l-592 -1228h-204zM198 187h777v-187h-777v187zM339 1228q-13 29 -24.5 39t-31.5 10h-124v184h135q51 0 86 -13t66.5 -49t64.5 -106l614 -1293h-204z" />
    <glyph glyph-name="uni03EB" unicode="&#x3eb;" horiz-adv-x="973" 
d="M277 822q-14 27 -29.5 38t-37.5 11h-74v184h101q42 0 73 -10.5t58 -38t51 -78.5l489 -928h-199zM251 187h480v-187h-480v187zM562 928q24 50 51 78t57.5 38.5t73.5 10.5h95v-184h-69q-21 0 -36.5 -11t-29.5 -38l-437 -822h-199z" />
    <glyph glyph-name="uni03EC" unicode="&#x3ec;" horiz-adv-x="1176" 
d="M338 38q-104 53 -158.5 154.5t-54.5 244.5v239l174 211q13 79 59 134.5t119.5 83.5t165.5 28q129 0 220.5 -53.5t139.5 -156.5t48 -247v-242q0 -142 -54.5 -242.5t-158.5 -153.5t-250 -53t-250 53zM732 203q60 31 91 90t31 141v242q0 129 -70 199.5t-197 70.5
q-126 0 -195.5 -70.5t-69.5 -199.5v-242q0 -125 69.5 -193.5t195.5 -68.5q85 0 145 31zM125 1016q0 438 396 438h125q86 0 129.5 24t43.5 69h182q0 -260 -339 -260h-124q-226 0 -226 -251v-372h-187v352z" />
    <glyph glyph-name="uni03ED" unicode="&#x3ed;" horiz-adv-x="971" 
d="M302.5 29.5q-81.5 44.5 -124.5 129t-43 203.5v280l139 172q31 98 100 149.5t174 51.5q99 0 169.5 -43.5t107 -127t36.5 -201.5v-284q0 -118 -42.5 -202t-124 -128t-196.5 -44q-114 0 -195.5 44.5zM620 224q44 49 44 139v276q0 89 -44 137.5t-123 48.5q-78 0 -121.5 -48.5
t-43.5 -137.5v-276q0 -90 43.5 -139t121.5 -49q79 0 123 49zM135 966q0 116 39.5 194.5t117 123.5t195.5 60q52 8 86 22t50.5 36t16.5 52h190q0 -80 -31 -134.5t-93 -87t-157 -45.5q-75 -11 -124 -37t-73.5 -70.5t-24.5 -110.5v-415h-192v412z" />
    <glyph glyph-name="uni03EE" unicode="&#x3ee;" horiz-adv-x="907" 
d="M837 1247v-189h-609q-40 0 -62 -15.5t-22 -43.5v-119h-194v134q0 111 63.5 172t181.5 61h642zM516 0h-197v1454h197v-1454z" />
    <glyph glyph-name="uni03EF" unicode="&#x3ef;" horiz-adv-x="797" 
d="M122 -235h107q36 0 54.5 23t18.5 64v1488h197v-1487q0 -136 -60 -205.5t-189 -69.5h-128v187zM45 1038h712v-182h-712v182z" />
    <glyph glyph-name="uni03F0" unicode="&#x3f0;" horiz-adv-x="1082" 
d="M752.5 73.5q-61.5 77.5 -61.5 217.5q0 86 11.5 178t48.5 198l-412 -666h-165q33 210 51.5 381.5t18.5 335.5q0 66 -28 102.5t-80 36.5h-71v186h90q129 0 200 -76.5t71 -218.5q0 -87 -13.5 -182.5t-38.5 -219.5q-2 -9 -4 -18.5t-4 -18.5l455 729h165q-54 -204 -83.5 -398
t-29.5 -343q0 -54 21.5 -84t59.5 -30h68v-187h-97q-111 0 -172.5 77.5z" />
    <glyph glyph-name="uni03F1" unicode="&#x3f1;" horiz-adv-x="969" 
d="M400 35.5q-68 50.5 -99 142.5l31 174q0 -90 43 -139t120 -49q80 0 123.5 53t43.5 149v308q0 94 -43 145.5t-122 51.5q-78 0 -121.5 -51t-43.5 -144v-542h-197v544q0 119 43 203.5t124.5 129t194.5 44.5q115 0 196 -44t123.5 -129t42.5 -204v-315q0 -119 -35 -204
t-101.5 -129.5t-161.5 -44.5q-93 0 -161 50.5zM212 -238.5q-77 90.5 -77 269.5v324h197v-333q0 -57 11.5 -91.5t45 -53.5t97.5 -19h74l7 -187h-101q-177 0 -254 90.5zM550 -329l10 187q138 0 207 -69.5t69 -210.5h-190q0 91 -96 93z" />
    <glyph glyph-name="uni03F2" unicode="&#x3f2;" horiz-adv-x="896" 
d="M285.5 29.5q-85.5 44.5 -130.5 129.5t-45 206v304q0 122 45 208.5t130.5 131.5t206.5 45q99 0 171 -30t116 -90.5t59 -150.5v0l-181 -57v0q-15 70 -56.5 106.5t-105.5 36.5q-90 0 -138.5 -52.5t-48.5 -147.5v-304q0 -93 48.5 -144t138.5 -51q65 0 106.5 35.5t55.5 104.5
v0l182 -61v0q-14 -87 -58 -146.5t-117 -88.5t-172 -29q-121 0 -206.5 44.5z" />
    <glyph glyph-name="uni03F3" unicode="&#x3f3;" horiz-adv-x="488" 
d="M10 -235h83q32 0 49.5 23t17.5 64v1186h197v-1185q0 -131 -63.5 -203t-179.5 -72h-104v187zM159 1446h199v-197h-199v197z" />
    <glyph glyph-name="uni03F4" unicode="&#x3f4;" horiz-adv-x="1122" 
d="M249 816h620v-187h-620v187zM329.5 40q-98.5 55 -151.5 156.5t-53 239.5v583q0 138 53 239.5t151.5 156t231.5 54.5t231.5 -54.5t151.5 -156t53 -239.5v-583q0 -138 -53 -239.5t-151.5 -156.5t-231.5 -55t-231.5 55zM686.5 208.5q53.5 30.5 82.5 87.5t29 133v596
q0 77 -29 133.5t-82.5 87t-125.5 30.5t-125.5 -30.5t-82 -87t-28.5 -133.5v-596q0 -76 28.5 -133t82 -87.5t125.5 -30.5t125.5 30.5z" />
    <glyph glyph-name="uni03F5" unicode="&#x3f5;" horiz-adv-x="896" 
d="M261 603h399v-177h-399v177zM285.5 29.5q-85.5 44.5 -130.5 130t-45 205.5v305q0 122 45 208t130.5 131.5t206.5 45.5q90 0 161.5 -29t118.5 -84t66 -133v-17l-168 -66v17q-22 60 -68 93t-107 33q-89 0 -138.5 -52t-49.5 -147v-305q0 -93 49 -143.5t139 -50.5
q62 0 108 32.5t68 90.5v17l168 -71v-17q-20 -75 -67 -128.5t-118.5 -81.5t-161.5 -28q-121 0 -206.5 44.5z" />
    <glyph glyph-name="uni03F6" unicode="&#x3f6;" horiz-adv-x="896" 
d="M236 426v177h399v-177h-399zM233 14.5q-72 29.5 -116.5 88t-58.5 145.5v0l175 57v0q22 -72 66.5 -108.5t109.5 -36.5q86 0 133.5 53.5t47.5 151.5v303q0 95 -47.5 147.5t-133.5 52.5q-69 0 -114 -36.5t-62 -106.5v0l-174 57v0q14 90 58.5 150.5t116.5 90.5t171 30
q121 0 206.5 -45t130 -131.5t44.5 -208.5v-303q0 -121 -44.5 -206t-130 -129.5t-206.5 -44.5q-100 0 -172 29.5z" />
    <glyph glyph-name="uni03F7" unicode="&#x3f7;" horiz-adv-x="1070" 
d="M245 491h357q53 0 92 24.5t60.5 70t21.5 106.5v111q0 63 -21.5 109t-60.5 70.5t-92 24.5h-357v187h350q116 0 202 -47t132 -135t46 -207v-116q0 -118 -46.5 -204.5t-132 -133.5t-201.5 -47h-350v187zM140 1454h197v-1454h-197v1454z" />
    <glyph glyph-name="uni03F8" unicode="&#x3f8;" horiz-adv-x="969" 
d="M135 1454h197v-1876h-197v1876zM410 32q-63 47 -92 131l14 189q0 -59 19.5 -101t56 -64.5t87.5 -22.5q79 0 123 53t44 149v308q0 95 -44 148.5t-123 53.5q-51 0 -87.5 -21.5t-56 -63t-19.5 -98.5l-21 172q40 90 107.5 140t149.5 50q92 0 157.5 -44t99.5 -128.5t34 -204.5
v-315q0 -119 -35 -204t-102.5 -129.5t-162.5 -44.5q-86 0 -149 47z" />
    <glyph glyph-name="uni03F9" unicode="&#x3f9;" horiz-adv-x="1062" 
d="M323 40.5q-95 55.5 -146.5 158.5t-51.5 243v569q0 140 51.5 243.5t146.5 159t224 55.5q125 0 215.5 -50t142.5 -147t61 -236v0h-200v0q-7 77 -36 131t-76 82t-107 28q-68 0 -117.5 -32.5t-77 -92.5t-27.5 -141v-569q0 -81 27.5 -141t77 -92t117.5 -32q61 0 107.5 27.5
t75.5 81.5t36 132v0h200v0q-9 -139 -61.5 -236t-143 -147t-214.5 -50q-129 0 -224 55.5z" />
    <glyph glyph-name="uni03FA" unicode="&#x3fa;" horiz-adv-x="1366" 
d="M1047 1454h179v-1454h-186v1095l13 -64l-304 -811h-132l-303 791l16 84v-1095h-190v1454h183l360 -936z" />
    <glyph glyph-name="uni03FB" unicode="&#x3fb;" horiz-adv-x="1099" 
d="M312 128v-400h-177v400h177zM782 1038h182v-1038h-177v735l14 -54l-190 -441h-122l-193 431l16 64v-735h-177v1038h182l233 -555z" />
    <glyph glyph-name="uni03FC" unicode="&#x3fc;" horiz-adv-x="944" 
d="M615 -104v-187h-590v187h590zM110 678q0 119 43 203.5t124.5 129t194.5 44.5q115 0 196 -44t123.5 -129t42.5 -204v-315q0 -119 -35 -204t-101.5 -129.5t-161.5 -44.5q-93 0 -161 52t-99 146l31 169q0 -90 43 -139t120 -49q80 0 123.5 53t43.5 149v308q0 96 -43 149
t-122 53q-78 0 -121.5 -52t-43.5 -148v-1098h-197v1100z" />
    <glyph glyph-name="uni03FD" unicode="&#x3fd;" horiz-adv-x="1062" 
d="M296 33q-90 48 -141 144.5t-60 240.5v0h200v0q7 -82 35.5 -135.5t75 -79.5t109.5 -26q67 0 117 32t77 92t27 141v569q0 81 -27 141t-77 92.5t-117 32.5q-63 0 -109.5 -27t-75 -80.5t-35.5 -133.5v0h-200v0q9 144 59.5 240.5t141 144.5t219.5 48q128 0 223 -55.5
t146.5 -159t51.5 -243.5v-569q0 -140 -51.5 -243t-146.5 -158.5t-223 -55.5q-129 0 -219 48z" />
    <glyph glyph-name="uni03FE" unicode="&#x3fe;" horiz-adv-x="1062" 
d="M323 40.5q-95 55.5 -146.5 158.5t-51.5 243v569q0 140 51.5 243.5t146.5 159t224 55.5q125 0 215.5 -50t142.5 -147t61 -236v0h-200v0q-7 77 -36 131t-76 82t-107 28q-68 0 -117.5 -32.5t-77 -92.5t-27.5 -141v-569q0 -81 27.5 -141t77 -92t117.5 -32q61 0 107.5 27.5
t75.5 81.5t36 132v0h200v0q-9 -139 -61.5 -236t-143 -147t-214.5 -50q-129 0 -224 55.5zM501 826h197v-197h-197v197z" />
    <glyph glyph-name="uni03FF" unicode="&#x3ff;" horiz-adv-x="1062" 
d="M296 33q-90 48 -141 144.5t-60 240.5v0h200v0q7 -82 35.5 -135.5t75 -79.5t109.5 -26q67 0 117 32t77 92t27 141v569q0 81 -27 141t-77 92.5t-117 32.5q-63 0 -109.5 -27t-75 -80.5t-35.5 -133.5v0h-200v0q9 144 59.5 240.5t141 144.5t219.5 48q128 0 223 -55.5
t146.5 -159t51.5 -243.5v-569q0 -140 -51.5 -243t-146.5 -158.5t-223 -55.5q-129 0 -219 48zM364 826h197v-197h-197v197z" />
    <glyph glyph-name="uni0400" unicode="&#x400;" horiz-adv-x="999" 
d="M140 1454h197v-1454h-197v1454zM239 187h680v-187h-680v187zM239 816h600v-187h-600v187zM239 1454h680v-187h-680v187zM247 1772l132 137l257 -251l-115 -114z" />
    <glyph glyph-name="uni0401" unicode="&#x401;" horiz-adv-x="999" 
d="M140 1454h197v-1454h-197v1454zM239 187h680v-187h-680v187zM239 816h600v-187h-600v187zM239 1454h680v-187h-680v187zM642 1772h197v-197h-197v197zM252 1772h197v-197h-197v197z" />
    <glyph glyph-name="uni0402" unicode="&#x402;" horiz-adv-x="1215" 
d="M979.5 844q81.5 -45 123.5 -133.5t42 -216.5v-123q0 -120 -39.5 -203t-116.5 -125.5t-189 -42.5h-94v187h74q82 0 125 45t43 129v139q0 99 -50 151t-144 52q-113 0 -173 -57t-60 -163v-115l-64 60v108q0 114 37 193t109 119.5t176 40.5q119 0 200.5 -45zM325 1335h197
v-1335h-197v1335zM-10 1454h861v-187h-861v187z" />
    <glyph glyph-name="uni0403" unicode="&#x403;" horiz-adv-x="800" 
d="M140 1454h197v-1454h-197v1454zM254 1454h556v-187h-556v187zM390 1663l260 251l137 -137l-282 -228z" />
    <glyph glyph-name="uni0404" unicode="&#x404;" horiz-adv-x="1062" 
d="M239 816h570v-187h-570v187zM323.5 40.5q-95.5 55.5 -147 159t-51.5 242.5v569q0 140 51.5 243.5t146.5 159t224 55.5q116 0 206.5 -48.5t145.5 -139.5t68 -214v-31h-201v31q-9 64 -40 111.5t-77.5 73t-101.5 25.5q-67 0 -117 -32.5t-77 -92t-27 -141.5v-569
q0 -80 27 -140t77 -92.5t117 -32.5q56 0 102 24.5t77 72t40 113.5v31h201v-31q-13 -123 -68 -213.5t-145.5 -139.5t-206.5 -49q-128 0 -223.5 55.5z" />
    <glyph glyph-name="uni0405" unicode="&#x405;" horiz-adv-x="1072" 
d="M325 20.5q-90 35.5 -149.5 104t-85.5 167.5v0l189 81v0q27 -96 92 -148t160 -52q118 0 181.5 51t63.5 143v65q0 65 -33 105.5t-84.5 63t-135.5 46.5l-4.5 1.5l-4.5 1.5l-11 3q-120 34 -195.5 69.5t-129 112.5t-53.5 210v43q0 121 50.5 206.5t148 130t235.5 44.5
q102 0 181.5 -34t134 -100t78.5 -160v0l-183 -84v0q-26 92 -81 141t-130 49q-114 0 -176 -50t-62 -141v-46q0 -66 35 -107t87 -63t144 -48q4 -1 8 -2.5t8 -2.5t9 -2.5t9 -2.5q111 -33 182.5 -69t120 -111t48.5 -202v-67q0 -121 -51.5 -207t-150.5 -130.5t-239 -44.5
q-116 0 -206 35.5z" />
    <glyph glyph-name="uni0406" unicode="&#x406;" horiz-adv-x="475" 
d="M336 0h-197v1454h197v-1454z" />
    <glyph glyph-name="uni0407" unicode="&#x407;" horiz-adv-x="475" 
d="M336 0h-197v1454h197v-1454zM335 1772h197v-197h-197v197zM-55 1772h197v-197h-197v197z" />
    <glyph glyph-name="uni0408" unicode="&#x408;" horiz-adv-x="880" 
d="M161.5 28q-86.5 43 -141.5 121l157 119q29 -44 75.5 -68t103.5 -24q89 0 138 56.5t49 158.5v1063h197v-1067q0 -127 -45.5 -217t-132.5 -137.5t-211 -47.5q-103 0 -189.5 43z" />
    <glyph glyph-name="uni0409" unicode="&#x409;" horiz-adv-x="1733" 
d="M883 187h377q55 0 94 23t59.5 67t20.5 106v101q0 63 -20.5 107.5t-59.5 68t-94 23.5h-377v187h370q120 0 205.5 -45t130 -131.5t44.5 -207.5v-106q0 -120 -45 -205t-130 -130t-205 -45h-370v187zM115 186h1q61 0 100.5 29t59 88.5t19.5 151.5v999h197v-999
q0 -154 -39 -255t-117.5 -150.5t-199.5 -49.5h-21v186zM858 1454h197v-1454h-197v1454zM422 1454h537v-187h-537v187z" />
    <glyph glyph-name="uni040A" unicode="&#x40a;" horiz-adv-x="1708" 
d="M883 187h352q54 0 93 23t59.5 67t20.5 106v101q0 63 -20.5 107.5t-59.5 68t-93 23.5h-352v187h344q121 0 206 -45t130 -131.5t45 -207.5v-106q0 -120 -45 -205t-130.5 -130t-205.5 -45h-344v187zM793 1454h197v-1454h-197v1454zM140 1454h198v-1454h-198v1454zM267 810
h627v-187h-627v187z" />
    <glyph glyph-name="uni040B" unicode="&#x40b;" horiz-adv-x="1328" 
d="M1001 640q0 113 -54.5 169.5t-164.5 56.5q-128 0 -192 -54.5t-64 -163.5l-42 70q20 169 111 253t247 84q177 0 266.5 -98.5t89.5 -292.5v-664h-197v640zM330 1335h197v-1335h-197v1335zM-10 1454h866v-187h-866v187z" />
    <glyph glyph-name="uni040C" unicode="&#x40c;" horiz-adv-x="1102" 
d="M493 795l317 659h226l-430 -831zM487 644l174 101l436 -745h-243zM140 1454h197v-1454h-197v1454zM239 816h423v-187h-423v187zM433 1663l260 251l137 -137l-282 -228z" />
    <glyph glyph-name="uni040D" unicode="&#x40d;" horiz-adv-x="1174" 
d="M842 1v1103l24 -26l-563 -1077h-163v1453h193v-1115l-24 26l565 1089h160v-1453h-192zM287 1772l132 137l257 -251l-115 -114z" />
    <glyph glyph-name="uni040E" unicode="&#x40e;" horiz-adv-x="1028" 
d="M55 1454h217l317 -1066l-127 -163zM670 276q-29 -97 -73.5 -161.5t-109 -97t-151.5 -32.5h-129v196h129q43 0 76.5 19.5t58 58t40.5 96.5l302 1099h207zM850 1863q0 -145 -78 -225t-220 -80h-8q-142 0 -220 80t-78 225l165 -2q0 -74 35 -115t98 -41h8q64 0 98.5 41
t34.5 115z" />
    <glyph glyph-name="uni040F" unicode="&#x40f;" horiz-adv-x="1131" 
d="M991 1454v-1454h-197v1454h197zM337 1454v-1454h-197v1454h197zM890 187v-187h-627v187h627zM664 149v-450h-197v450h197z" />
    <glyph glyph-name="uni0410" unicode="&#x410;" horiz-adv-x="1116" 
d="M471 1454h174l436 -1454h-212l-311 1165l-311 -1165h-212zM266 505h598v-187h-598v187z" />
    <glyph glyph-name="uni0411" unicode="&#x411;" horiz-adv-x="1090" 
d="M245 187h372q55 0 94 23t59.5 67t20.5 106v101q0 63 -20.5 107.5t-59.5 68t-94 23.5h-372v187h365q120 0 205.5 -45t130 -131.5t44.5 -207.5v-106q0 -120 -45 -205t-130 -130t-205 -45h-365v187zM140 1454h197v-1454h-197v1454zM253 1454h641v-187h-641v187z" />
    <glyph glyph-name="uni0412" unicode="&#x412;" horiz-adv-x="1091" 
d="M260 185h317q109 0 162.5 45.5t53.5 128.5v96q0 65 -22 111t-65.5 70.5t-108.5 24.5h-337v182h337q86 0 131.5 47t45.5 136v74q0 84 -48.5 127t-141.5 43h-324v184h341q120 0 203.5 -41t125.5 -117.5t42 -183.5v-77q0 -72 -25.5 -131t-76 -99.5t-123.5 -54.5
q76 -11 131 -53.5t84 -107t29 -144.5v-98q0 -106 -44 -184.5t-127.5 -120.5t-196.5 -42h-363v185zM140 1454h197v-1454h-197v1454z" />
    <glyph glyph-name="uni0413" unicode="&#x413;" horiz-adv-x="800" 
d="M140 1454h197v-1454h-197v1454zM254 1454h556v-187h-556v187z" />
    <glyph glyph-name="uni0414" unicode="&#x414;" horiz-adv-x="1209" 
d="M40 187h16q96 0 149 87t53 244v936h197v-954q0 -139 -44.5 -237.5t-129.5 -150.5t-205 -52h-36v127zM25 187h197v-488h-197v488zM25 187h1048v-187h-1048v187zM982 187h197v-488h-197v488zM812 1454h197v-1454h-197v1454zM385 1454h518v-187h-518v187z" />
    <glyph glyph-name="uni0415" unicode="&#x415;" horiz-adv-x="999" 
d="M140 1454h197v-1454h-197v1454zM239 187h680v-187h-680v187zM239 816h600v-187h-600v187zM239 1454h680v-187h-680v187z" />
    <glyph glyph-name="uni0416" unicode="&#x416;" horiz-adv-x="1666" 
d="M1052 795l322 659h226l-435 -831zM1046 644l174 101l441 -745h-243zM446 745l174 -101l-372 -644h-243zM66 1454h226l322 -659l-113 -172zM445 816h776v-187h-776v187zM735 1454h197v-1454h-197v1454z" />
    <glyph glyph-name="uni0417" unicode="&#x417;" horiz-adv-x="1038" 
d="M296.5 29q-94.5 44 -145 134.5t-56.5 229.5v0h199v0q7 -113 67.5 -166.5t174.5 -53.5q102 0 158.5 56t56.5 157v79q0 94 -45 146t-126 52h-212v186h212q70 0 108.5 43.5t38.5 123.5v82q0 89 -50 136t-142 47q-100 0 -154 -51.5t-64 -158.5v0h-198v0q9 136 57.5 224
t138 131t220.5 43q125 0 213.5 -42t134.5 -123.5t46 -198.5v-81q0 -84 -42 -153t-119 -112q88 -28 136.5 -106t48.5 -193v-79q0 -125 -49.5 -214t-144.5 -135.5t-228 -46.5q-140 0 -234.5 44z" />
    <glyph glyph-name="uni0418" unicode="&#x418;" horiz-adv-x="1174" 
d="M842 1v1103l24 -26l-563 -1077h-163v1453h193v-1115l-24 26l565 1089h160v-1453h-192z" />
    <glyph glyph-name="uni0419" unicode="&#x419;" horiz-adv-x="1174" 
d="M842 1v1103l24 -26l-563 -1077h-163v1453h193v-1115l-24 26l565 1089h160v-1453h-192zM887 1863q0 -145 -78 -225t-220 -80h-8q-142 0 -220 80t-78 225l165 -2q0 -74 35 -115t98 -41h8q64 0 98.5 41t34.5 115z" />
    <glyph glyph-name="uni041A" unicode="&#x41a;" horiz-adv-x="1102" 
d="M493 795l317 659h226l-430 -831zM487 644l174 101l436 -745h-243zM140 1454h197v-1454h-197v1454zM239 816h423v-187h-423v187z" />
    <glyph glyph-name="uni041B" unicode="&#x41b;" horiz-adv-x="1195" 
d="M115 186h1q61 0 100.5 29t59 88.5t19.5 151.5v999h197v-999q0 -154 -39 -255t-117.5 -150.5t-199.5 -49.5h-21v186zM858 1454h197v-1454h-197v1454zM422 1454h537v-187h-537v187z" />
    <glyph glyph-name="uni041C" unicode="&#x41c;" horiz-adv-x="1366" 
d="M1047 1454h179v-1454h-186v1095l13 -64l-304 -811h-132l-303 791l16 84v-1095h-190v1454h183l360 -936z" />
    <glyph glyph-name="uni041D" unicode="&#x41d;" horiz-adv-x="1130" 
d="M793 1454h197v-1454h-197v1454zM140 1454h198v-1454h-198v1454zM267 810h627v-187h-627v187z" />
    <glyph glyph-name="uni041E" unicode="&#x41e;" horiz-adv-x="1122" 
d="M329.5 40q-98.5 55 -151.5 156.5t-53 239.5v583q0 138 53 239.5t151.5 156t231.5 54.5t231.5 -54.5t151.5 -156t53 -239.5v-583q0 -138 -53 -239.5t-151.5 -156.5t-231.5 -55t-231.5 55zM686.5 208.5q53.5 30.5 82.5 87.5t29 133v596q0 77 -29 133.5t-82.5 87
t-125.5 30.5t-125.5 -30.5t-82 -87t-28.5 -133.5v-596q0 -76 28.5 -133t82 -87.5t125.5 -30.5t125.5 30.5z" />
    <glyph glyph-name="uni041F" unicode="&#x41f;" horiz-adv-x="1130" 
d="M793 1454h197v-1454h-197v1454zM140 1454h197v-1454h-197v1454zM267 1454h627v-187h-627v187z" />
    <glyph glyph-name="uni0420" unicode="&#x420;" horiz-adv-x="1085" 
d="M245 751h370q53 0 92 24.5t60.5 70t21.5 106.5v111q0 62 -21.5 108t-60.5 71t-92 25h-370v187h365q116 0 202 -47t132 -135t46 -207v-116q0 -118 -46.5 -204.5t-132 -133.5t-201.5 -47h-365v187zM140 1454h197v-1454h-197v1454z" />
    <glyph glyph-name="uni0421" unicode="&#x421;" horiz-adv-x="1062" 
d="M323 40.5q-95 55.5 -146.5 158.5t-51.5 243v569q0 140 51.5 243.5t146.5 159t224 55.5q125 0 215.5 -50t142.5 -147t61 -236v0h-200v0q-7 77 -36 131t-76 82t-107 28q-68 0 -117.5 -32.5t-77 -92.5t-27.5 -141v-569q0 -81 27.5 -141t77 -92t117.5 -32q61 0 107.5 27.5
t75.5 81.5t36 132v0h200v0q-9 -139 -61.5 -236t-143 -147t-214.5 -50q-129 0 -224 55.5z" />
    <glyph glyph-name="uni0422" unicode="&#x422;" horiz-adv-x="846" 
d="M325 1335h197v-1335h-197v1335zM-10 1454h866v-187h-866v187z" />
    <glyph glyph-name="uni0423" unicode="&#x423;" horiz-adv-x="1028" 
d="M55 1454h217l317 -1066l-127 -163zM670 276q-29 -97 -73.5 -161.5t-109 -97t-151.5 -32.5h-129v196h129q43 0 76.5 19.5t58 58t40.5 96.5l302 1099h207z" />
    <glyph glyph-name="uni0424" unicode="&#x424;" horiz-adv-x="1392" 
d="M360 216.5q-139 61.5 -212 179.5t-73 286v140q0 168 73 286.5t212 179.5t336 61t336.5 -61t212 -179.5t72.5 -286.5v-140q0 -168 -72.5 -286t-212 -179.5t-336.5 -61.5t-336 61.5zM598 1504h197v-1504h-197v1504zM1013 429q112 88 112 253v140q0 165 -112 253.5
t-317 88.5q-204 0 -316.5 -88.5t-112.5 -253.5v-140q0 -165 112.5 -253t316.5 -88q205 0 317 88z" />
    <glyph glyph-name="uni0425" unicode="&#x425;" horiz-adv-x="982" 
d="M448 638l-31 51l-395 765h217l280 -590l34 -56l419 -808h-216zM439 831l295 623h216l-404 -788l-319 -666h-217z" />
    <glyph glyph-name="uni0426" unicode="&#x426;" horiz-adv-x="1211" 
d="M794 1454h197v-1454h-197v1454zM268 187h707v-187h-707v187zM964 187h197v-488h-197v488zM140 1454h197v-1454h-197v1454z" />
    <glyph glyph-name="uni0427" unicode="&#x427;" horiz-adv-x="1044" 
d="M707 1454h197v-1454h-197v1454zM269 502.5q-80 47.5 -122 139t-42 219.5v593h197v-597q0 -102 51 -157.5t144 -55.5q100 0 155 61t55 172v104h64v-108q0 -132 -36.5 -226t-105.5 -143t-167 -49q-113 0 -193 47.5z" />
    <glyph glyph-name="uni0428" unicode="&#x428;" horiz-adv-x="1483" 
d="M1146 1454h197v-1454h-197v1454zM263 187h979v-187h-979v187zM140 1454h197v-1454h-197v1454zM643 1454h197v-1454h-197v1454z" />
    <glyph glyph-name="uni0429" unicode="&#x429;" horiz-adv-x="1563" 
d="M263 187h980v-187h-980v187zM1146 1454h197v-1454h-197v1454zM140 1454h197v-1454h-197v1454zM643 1454h197v-1454h-197v1454zM1316 187h197v-488h-197v488z" />
    <glyph glyph-name="uni042A" unicode="&#x42a;" horiz-adv-x="1188" 
d="M-30 1454h455v-187h-455v187zM368 187h347q55 0 94 23t59.5 67t20.5 106v101q0 63 -20.5 107.5t-59.5 68t-94 23.5h-347v187h340q120 0 205.5 -45t130 -131.5t44.5 -207.5v-106q0 -120 -45 -205t-130 -130t-205 -45h-340v187zM263 1454h197v-1454h-197v1454z" />
    <glyph glyph-name="uni042B" unicode="&#x42b;" horiz-adv-x="1434" 
d="M245 187h337q55 0 94 23t59.5 67t20.5 106v101q0 63 -20.5 107.5t-59.5 68t-94 23.5h-337v187h330q120 0 205.5 -45t130 -131.5t44.5 -207.5v-106q0 -120 -45 -205t-130 -130t-205 -45h-330v187zM140 1454h197v-1454h-197v1454zM1295 0h-197v1454h197v-1454z" />
    <glyph glyph-name="uni042C" unicode="&#x42c;" horiz-adv-x="1085" 
d="M245 187h367q55 0 94 23t59.5 67t20.5 106v101q0 63 -20.5 107.5t-59.5 68t-94 23.5h-367v187h360q120 0 205.5 -45t130 -131.5t44.5 -207.5v-106q0 -120 -45 -205t-130 -130t-205 -45h-360v187zM140 1454h197v-1454h-197v1454z" />
    <glyph glyph-name="uni042D" unicode="&#x42d;" horiz-adv-x="1061" 
d="M300 35q-91 50 -143.5 147t-61.5 236v0h200v0q7 -78 36 -132t75.5 -81.5t108.5 -27.5q68 0 118 32t76.5 92t26.5 141v569q0 82 -26.5 141.5t-76.5 92t-118 32.5q-61 0 -108 -28t-76 -82t-36 -131v0h-200v0q9 139 61 236t143 147t216 50q129 0 224.5 -55t146 -158.5
t50.5 -244.5v-569q0 -141 -50.5 -244t-146 -158t-224.5 -55q-124 0 -215 50zM252 815h570v-186h-570v186z" />
    <glyph glyph-name="uni042E" unicode="&#x42e;" horiz-adv-x="1578" 
d="M230 816h500v-187h-500v187zM337 1h-197v1454h197v-1454zM785.5 40q-98.5 55 -151.5 156.5t-53 239.5v583q0 138 53 239.5t151.5 156t231.5 54.5t231.5 -54.5t151.5 -156t53 -239.5v-583q0 -138 -53 -239.5t-151.5 -156.5t-231.5 -55t-231.5 55zM1142.5 208.5
q53.5 30.5 82.5 87.5t29 133v596q0 77 -29 133.5t-82.5 87t-125.5 30.5t-125.5 -30.5t-82 -87t-28.5 -133.5v-596q0 -76 28.5 -133t82 -87.5t125.5 -30.5t125.5 30.5z" />
    <glyph glyph-name="uni042F" unicode="&#x42f;" horiz-adv-x="1075" 
d="M277 632q-89 47 -137.5 134.5t-48.5 206.5v100q0 117 48 203.5t137.5 132.5t210.5 46h359v-187h-372q-55 0 -95.5 -25t-62 -71.5t-21.5 -109.5v-89q0 -61 21.5 -106.5t62.5 -70t95 -24.5h372v-187h-359q-121 0 -210 47zM397 676l186 -46l-273 -630h-225zM738 1455h197
v-1455h-197v1455z" />
    <glyph glyph-name="uni0430" unicode="&#x430;" horiz-adv-x="963" 
d="M643 709q0 82 -44 127.5t-124 45.5q-57 0 -101.5 -26.5t-67.5 -75.5l-167 51q29 107 117 165.5t219 58.5q113 0 193.5 -40.5t122.5 -117t42 -184.5v-713h-190v709zM182.5 61q-79.5 76 -79.5 230q0 165 83.5 246.5t251.5 81.5h214l14 -167h-227q-75 0 -112 -40t-37 -121
q0 -70 41.5 -104t125.5 -34q94 0 140 32.5t46 98.5l21 -121q-14 -60 -45.5 -99.5t-80.5 -59t-116 -19.5q-160 0 -239.5 76z" />
    <glyph glyph-name="uni0431" unicode="&#x431;" horiz-adv-x="971" 
d="M302.5 29.5q-81.5 44.5 -124.5 129t-43 203.5v280l139 172q31 98 100 149.5t174 51.5q99 0 169.5 -43.5t107 -127t36.5 -201.5v-284q0 -118 -42.5 -202t-124 -128t-196.5 -44q-114 0 -195.5 44.5zM620 224q44 49 44 139v276q0 89 -44 137.5t-123 48.5q-78 0 -121.5 -48.5
t-43.5 -137.5v-276q0 -90 43.5 -139t121.5 -49q79 0 123 49zM135 966q0 116 39.5 194.5t117 123.5t195.5 60q52 8 86 22t50.5 36t16.5 52h190q0 -80 -31 -134.5t-93 -87t-157 -45.5q-75 -11 -124 -37t-73.5 -70.5t-24.5 -110.5v-415h-192v412z" />
    <glyph glyph-name="uni0432" unicode="&#x432;" horiz-adv-x="946" 
d="M255 182h302q48 0 74.5 28.5t26.5 80.5v39q0 60 -32 93t-89 33h-282v182h282q49 0 75.5 25.5t26.5 72.5v29q0 43 -24 67t-66 24h-294v182h311q129 0 200 -62t71 -175v-44q0 -85 -50 -140.5t-140 -71.5q99 -18 154 -80.5t55 -159.5v-53q0 -120 -75.5 -186t-212.5 -66h-313
v182zM135 1038h197v-1038h-197v1038z" />
    <glyph glyph-name="uni0433" unicode="&#x433;" horiz-adv-x="752" 
d="M135 1038h197v-1038h-197v1038zM243 1038h467v-187h-467v187z" />
    <glyph glyph-name="uni0434" unicode="&#x434;" horiz-adv-x="1108" 
d="M88 182h24q48 0 76 29.5t40.5 88t12.5 153.5v585h197v-633q0 -166 -73 -250.5t-208 -84.5h-34zM55 182h197v-443h-197v443zM55 182h887v-182h-887v182zM861 182h197v-443h-197v443zM691 1038h197v-1038h-197v1038zM368 1038h404v-182h-404v182z" />
    <glyph glyph-name="uni0435" unicode="&#x435;" horiz-adv-x="950" 
d="M287.5 32q-86.5 47 -132 138t-45.5 220v239q0 135 44 230t127.5 145t201.5 50q114 0 195 -52t123.5 -151t42.5 -239v-171h-593v161h404v56q0 103 -46 160.5t-126 57.5q-88 0 -136.5 -61.5t-48.5 -174.5v-255q0 -102 51.5 -158t146.5 -56q61 0 100.5 28t55.5 81v0l180 -58
v0q-29 -117 -114 -177t-222 -60q-122 0 -208.5 47z" />
    <glyph glyph-name="uni0436" unicode="&#x436;" horiz-adv-x="1297" 
d="M815 440l144 120l343 -560h-232zM339 560l144 -120l-255 -440h-233zM44 1038h215l228 -440l-109 -159zM550 1038h197v-1038h-197v1038zM350 613h617v-182h-617v182zM811 598l227 440h216l-334 -599z" />
    <glyph glyph-name="uni0437" unicode="&#x437;" horiz-adv-x="824" 
d="M226.5 21.5q-73.5 36.5 -113.5 108.5t-45 178v0h189v0q4 -70 41.5 -106.5t104.5 -36.5q68 0 106 34t38 95v56q0 47 -30 73t-86 26h-142v171h142q42 0 64.5 23.5t22.5 66.5v50q0 54 -33.5 84t-92.5 30q-62 0 -97 -33.5t-42 -99.5v0h-188v0q11 154 95.5 233.5t235.5 79.5
q150 0 232 -68t82 -193v-65q0 -64 -31 -111.5t-95 -72.5q77 -17 116 -64.5t39 -124.5v-77q0 -139 -87.5 -216t-246.5 -77q-105 0 -178.5 36.5z" />
    <glyph glyph-name="uni0438" unicode="&#x438;" horiz-adv-x="997" 
d="M672 1v721l24 -26l-396 -695h-165v1037h190v-729l-24 26l398 703h163v-1037h-190z" />
    <glyph glyph-name="uni0439" unicode="&#x439;" horiz-adv-x="997" 
d="M672 1v721l24 -26l-396 -695h-165v1037h190v-729l-24 26l398 703h163v-1037h-190zM283.5 1315.5q-68.5 77.5 -68.5 226.5v35h159v-36q0 -73 28 -111t81 -38h18q54 0 81.5 38t27.5 111v36h159v-35q0 -149 -68.5 -226.5t-199.5 -77.5h-18q-131 0 -199.5 77.5z" />
    <glyph glyph-name="uni043A" unicode="&#x43a;" horiz-adv-x="922" 
d="M435 593l223 445h220l-329 -604zM135 1038h197v-1038h-197v1038zM439 435l149 120l339 -555h-238zM234 611h363v-187h-363v187z" />
    <glyph glyph-name="uni043B" unicode="&#x43b;" horiz-adv-x="980" 
d="M65 175q63 0 96 50t33 144v669h197v-692q0 -115 -35 -194t-103 -120t-168 -41h-20v184zM648 1038h197v-1038h-197v1038zM321 1038h428v-187h-428v187z" />
    <glyph glyph-name="uni043C" unicode="&#x43c;" horiz-adv-x="1099" 
d="M782 1038h182v-1038h-177v735l14 -54l-190 -441h-122l-193 431l16 64v-735h-177v1038h182l233 -555z" />
    <glyph glyph-name="uni043D" unicode="&#x43d;" horiz-adv-x="999" 
d="M667 1038h197v-1038h-197v1038zM135 1038h197v-1038h-197v1038zM255 601h525v-182h-525v182z" />
    <glyph glyph-name="uni043E" unicode="&#x43e;" horiz-adv-x="946" 
d="M278 29.5q-82 44.5 -125 129t-43 203.5v321q0 118 43 201.5t125 127t196 43.5q115 0 196 -43.5t123.5 -127t42.5 -201.5v-324q0 -118 -42.5 -202t-123.5 -128t-196 -44q-114 0 -196 44.5zM595.5 224q43.5 49 43.5 139v316q0 89 -43.5 137.5t-122.5 48.5q-78 0 -122 -48.5
t-44 -137.5v-316q0 -89 43.5 -138.5t122.5 -49.5t122.5 49z" />
    <glyph glyph-name="uni043F" unicode="&#x43f;" horiz-adv-x="999" 
d="M667 1038h197v-1038h-197v1038zM135 1038h197v-1038h-197v1038zM255 1038h520v-187h-520v187z" />
    <glyph glyph-name="uni0440" unicode="&#x440;" horiz-adv-x="969" 
d="M135 1038h197v-1460h-197v1460zM410 32q-63 47 -92 131l14 189q0 -59 19.5 -101t56 -64.5t87.5 -22.5q79 0 123 53t44 149v308q0 95 -44 148.5t-123 53.5q-51 0 -87.5 -21.5t-56 -63t-19.5 -98.5l-21 172q40 91 107.5 140.5t149.5 49.5q92 0 157.5 -44t99.5 -128.5
t34 -204.5v-315q0 -119 -35 -204t-102.5 -129.5t-162.5 -44.5q-86 0 -149 47z" />
    <glyph glyph-name="uni0441" unicode="&#x441;" horiz-adv-x="896" 
d="M285.5 29.5q-85.5 44.5 -130.5 129.5t-45 206v304q0 122 45 208.5t130.5 131.5t206.5 45q99 0 171 -30t116 -90.5t59 -150.5v0l-181 -57v0q-15 70 -56.5 106.5t-105.5 36.5q-90 0 -138.5 -52.5t-48.5 -147.5v-304q0 -93 48.5 -144t138.5 -51q65 0 106.5 35.5t55.5 104.5
v0l182 -61v0q-14 -87 -58 -146.5t-117 -88.5t-172 -29q-121 0 -206.5 44.5z" />
    <glyph glyph-name="uni0442" unicode="&#x442;" horiz-adv-x="844" 
d="M324 984h197v-984h-197v984zM80 1038h684v-182h-684v182z" />
    <glyph glyph-name="uni0443" unicode="&#x443;" horiz-adv-x="879" 
d="M859 1038l-377 -1281q-20 -67 -58 -109t-97 -61.5t-143 -19.5h-35v188h35q63 0 99.5 26.5t55.5 84.5l320 1172h200zM45 1038h200l271 -899l-104 -222z" />
    <glyph glyph-name="uni0444" unicode="&#x444;" horiz-adv-x="1326" 
d="M764 91q-64 91 -64 256v350q0 163 64 252t181 89q129 0 200 -89t71 -252v-353q0 -164 -71 -254t-200 -90q-117 0 -181 91zM181 90q-71 90 -71 254v353q0 163 71 252t200 89q117 0 181 -89t64 -252v-350q0 -165 -64 -256t-181 -91q-129 0 -200 90zM530 227.5
q35 41.5 35 116.5v352q0 74 -35 115t-98 41q-59 0 -92 -41t-33 -115v-352q0 -75 33 -116.5t92 -41.5q63 0 98 41.5zM564 1339h197v-1640h-197v1640zM986 227.5q33 41.5 33 116.5v352q0 74 -33 115t-92 41q-63 0 -98 -41t-35 -115v-352q0 -75 35 -116.5t98 -41.5
q59 0 92 41.5z" />
    <glyph glyph-name="uni0445" unicode="&#x445;" horiz-adv-x="932" 
d="M397 472l-333 566h218l248 -465l357 -573h-217zM397 571l94 -178l-226 -393h-217zM457 660l196 378h218l-331 -558z" />
    <glyph glyph-name="uni0446" unicode="&#x446;" horiz-adv-x="1070" 
d="M652 1038h197v-1038h-197v1038zM255 182h505v-182h-505v182zM135 1038h197v-1038h-197v1038zM823 182h197v-443h-197v443z" />
    <glyph glyph-name="uni0447" unicode="&#x447;" horiz-adv-x="985" 
d="M653 1038h197v-1038h-197v1038zM276 355.5q-71 40.5 -108.5 117.5t-37.5 185v380h197v-382q0 -73 38.5 -113t108.5 -40q85 0 132 45t47 128v143h64v-141q0 -173 -70 -268t-199 -95q-101 0 -172 40.5z" />
    <glyph glyph-name="uni0448" unicode="&#x448;" horiz-adv-x="1286" 
d="M255 184h807v-184h-807v184zM954 1038h197v-1038h-197v1038zM135 1038h197v-1038h-197v1038zM545 1038h197v-1038h-197v1038z" />
    <glyph glyph-name="uni0449" unicode="&#x449;" horiz-adv-x="1371" 
d="M255 182h807v-182h-807v182zM547 1038h197v-1038h-197v1038zM135 1038h197v-1038h-197v1038zM1124 182h197v-443h-197v443zM958 1038h192v-1038h-192v1038z" />
    <glyph glyph-name="uni044A" unicode="&#x44a;" horiz-adv-x="1067" 
d="M55 1038h287v-187h-287v187zM377 187h275q59 0 92.5 35.5t33.5 96.5v39q0 41 -15 71t-43.5 46t-67.5 16h-275v187h288q96 0 167.5 -37t110.5 -106t39 -164v-65q0 -93 -39.5 -162t-113.5 -106.5t-174 -37.5h-278v187zM278 1038h197v-1038h-197v1038z" />
    <glyph glyph-name="uni044B" unicode="&#x44b;" horiz-adv-x="1258" 
d="M931 1038h197v-1038h-197v1038zM242 187h245q59 0 92.5 35.5t33.5 96.5v39q0 41 -15 71t-43.5 46t-67.5 16h-245v187h258q96 0 167.5 -37t110.5 -106t39 -164v-65q0 -93 -39.5 -162t-113.5 -106.5t-174 -37.5h-248v187zM135 1038h197v-1038h-197v1038z" />
    <glyph glyph-name="uni044C" unicode="&#x44c;" horiz-adv-x="939" 
d="M234 187h291q58 0 92 35.5t34 96.5v39q0 41 -15.5 71t-44 46t-66.5 16h-291v187h303q97 0 168.5 -37t110 -106t38.5 -164v-65q0 -93 -39.5 -162t-113.5 -106.5t-174 -37.5h-293v187zM135 1038h197v-1038h-197v1038z" />
    <glyph glyph-name="uni044D" unicode="&#x44d;" horiz-adv-x="896" 
d="M236 426v177h399v-177h-399zM233 14.5q-72 29.5 -116.5 88t-58.5 145.5v0l175 57v0q22 -72 66.5 -108.5t109.5 -36.5q86 0 133.5 53.5t47.5 151.5v303q0 95 -47.5 147.5t-133.5 52.5q-69 0 -114 -36.5t-62 -106.5v0l-174 57v0q14 90 58.5 150.5t116.5 90.5t171 30
q121 0 206.5 -45t130 -131.5t44.5 -208.5v-303q0 -121 -44.5 -206t-130 -129.5t-206.5 -44.5q-100 0 -172 29.5z" />
    <glyph glyph-name="uni044E" unicode="&#x44e;" horiz-adv-x="1361" 
d="M256 603h369v-177h-369v177zM134 1038h197v-1038h-197v1038zM693 29.5q-82 44.5 -125 129t-43 203.5v321q0 118 43 201.5t125 127t196 43.5q115 0 196 -43.5t123.5 -127t42.5 -201.5v-324q0 -118 -42.5 -202t-123.5 -128t-196 -44q-114 0 -196 44.5zM1010.5 224
q43.5 49 43.5 139v316q0 89 -43.5 137.5t-122.5 48.5q-78 0 -122 -48.5t-44 -137.5v-316q0 -89 43.5 -138.5t122.5 -49.5t122.5 49z" />
    <glyph glyph-name="uni044F" unicode="&#x44f;" horiz-adv-x="955" 
d="M413 350q-97 0 -168.5 37.5t-110 106.5t-38.5 163v75q0 94 39.5 163t113.5 106t174 37h298v-187h-296q-58 0 -92 -35.5t-34 -96.5v-49q0 -41 15.5 -70.5t44 -46t66.5 -16.5h296v-187h-308zM623 0v1038h197v-1038h-197zM90 0l234 451l193 -46l-205 -405h-222z" />
    <glyph glyph-name="uni0450" unicode="&#x450;" horiz-adv-x="950" 
d="M287.5 32q-86.5 47 -132 138t-45.5 220v239q0 135 44 230t127.5 145t201.5 50q114 0 195 -52t123.5 -151t42.5 -239v-171h-593v161h404v56q0 103 -46 160.5t-126 57.5q-88 0 -136.5 -61.5t-48.5 -174.5v-255q0 -102 51.5 -158t146.5 -56q61 0 100.5 28t55.5 81v0l180 -58
v0q-29 -117 -114 -177t-222 -60q-122 0 -208.5 47zM169 1567l143 113l266 -355l-124 -94z" />
    <glyph glyph-name="uni0451" unicode="&#x451;" horiz-adv-x="950" 
d="M287.5 32q-86.5 47 -132 138t-45.5 220v239q0 135 44 230t127.5 145t201.5 50q114 0 195 -52t123.5 -151t42.5 -239v-171h-593v161h404v56q0 103 -46 160.5t-126 57.5q-88 0 -136.5 -61.5t-48.5 -174.5v-255q0 -102 51.5 -158t146.5 -56q61 0 100.5 28t55.5 81v0l180 -58
v0q-29 -117 -114 -177t-222 -60q-122 0 -208.5 47zM572 1448h197v-197h-197v197zM187 1448h197v-197h-197v197z" />
    <glyph glyph-name="uni0452" unicode="&#x452;" horiz-adv-x="1015" 
d="M538 -235h83q32 0 49.5 23t17.5 64v704q0 94 -44.5 144t-127.5 50q-82 0 -125 -46.5t-43 -134.5l-21 174q41 95 110.5 144t156.5 49q140 0 215.5 -91t75.5 -260v-732q0 -131 -64 -203t-180 -72h-103v187zM151 1454h197v-1454h-197v1454zM-25 1248h688v-177h-688v177z" />
    <glyph glyph-name="uni0453" unicode="&#x453;" horiz-adv-x="752" 
d="M135 1038h197v-1038h-197v1038zM243 1038h467v-187h-467v187zM322 1325l266 355l143 -113l-285 -336z" />
    <glyph glyph-name="uni0454" unicode="&#x454;" horiz-adv-x="896" 
d="M261 603h399v-177h-399v177zM285.5 29.5q-85.5 44.5 -130.5 130t-45 205.5v305q0 122 45 208t130.5 131.5t206.5 45.5q90 0 161.5 -29t118.5 -84t66 -133v-17l-168 -66v17q-22 60 -68 93t-107 33q-89 0 -138.5 -52t-49.5 -147v-305q0 -93 49 -143.5t139 -50.5
q62 0 108 32.5t68 90.5v17l168 -71v-17q-20 -75 -67 -128.5t-118.5 -81.5t-161.5 -28q-121 0 -206.5 44.5z" />
    <glyph glyph-name="uni0455" unicode="&#x455;" horiz-adv-x="900" 
d="M251 12.5q-77 27.5 -126.5 82.5t-72.5 138v0l176 78v0q30 -75 81 -112t124 -37q91 0 139 36.5t48 105.5q0 45 -26 71t-65 38t-111 25q-6 1 -13 2.5t-13 2.5q-4 1 -7 1.5t-7 0.5q-87 17 -148 44t-101.5 86.5t-40.5 161.5q0 103 40.5 173.5t119 107t191.5 36.5
q96 0 167 -24.5t118 -74t70 -123.5v0l-177 -79v0q-26 63 -70.5 94.5t-107.5 31.5q-79 0 -119.5 -35t-40.5 -103q0 -43 25.5 -67t64 -35.5t107.5 -22.5q3 -1 5.5 -1t4.5 -1q2 0 5 -0.5t5 -0.5q96 -16 161 -41.5t109.5 -89t44.5 -178.5q0 -103 -43.5 -174.5t-128 -108
t-206.5 -36.5q-105 0 -182 27.5z" />
    <glyph glyph-name="uni0456" unicode="&#x456;" horiz-adv-x="460" 
d="M134 1448h197v-197h-197v197zM134 1038h197v-1038h-197v1038z" />
    <glyph glyph-name="uni0457" unicode="&#x457;" horiz-adv-x="460" 
d="M134 1038h197v-1038h-197v1038zM327 1448h197v-197h-197v197zM-58 1448h197v-197h-197v197z" />
    <glyph glyph-name="uni0458" unicode="&#x458;" horiz-adv-x="488" 
d="M10 -235h83q32 0 49.5 23t17.5 64v1186h197v-1185q0 -131 -63.5 -203t-179.5 -72h-104v187zM159 1446h199v-197h-199v197z" />
    <glyph glyph-name="uni0459" unicode="&#x459;" horiz-adv-x="1410" 
d="M737 187h258q59 0 92.5 35.5t33.5 96.5v39q0 41 -15 71t-43.5 46t-67.5 16h-258v187h271q96 0 167.5 -37t110.5 -106t39 -164v-65q0 -93 -39.5 -162t-113.5 -106.5t-174 -37.5h-261v187zM65 175q63 0 96 50t33 144v669h197v-692q0 -115 -35 -194t-103 -120t-168 -41h-20
v184zM648 1038h197v-1038h-197v1038zM321 1038h428v-187h-428v187z" />
    <glyph glyph-name="uni045A" unicode="&#x45a;" horiz-adv-x="1434" 
d="M737 187h282q59 0 92.5 35.5t33.5 96.5v39q0 41 -15 71t-43.5 46t-67.5 16h-282v187h295q96 0 167.5 -37t110.5 -106t39 -164v-65q0 -93 -39.5 -162t-113.5 -106.5t-174 -37.5h-285v187zM667 1038h197v-1038h-197v1038zM135 1038h197v-1038h-197v1038zM255 601h525v-182
h-525v182z" />
    <glyph glyph-name="uni045B" unicode="&#x45b;" horiz-adv-x="1015" 
d="M-25 1248h718v-177h-718v177zM151 1454h197v-1454h-197v1454zM688 555q0 95 -44.5 144.5t-127.5 49.5q-82 0 -125 -46t-43 -135l-21 174q41 94 110.5 143.5t156.5 49.5q140 0 215.5 -91.5t75.5 -260.5v-583h-197v555z" />
    <glyph glyph-name="uni045C" unicode="&#x45c;" horiz-adv-x="922" 
d="M435 593l223 445h220l-329 -604zM135 1038h197v-1038h-197v1038zM439 435l149 120l339 -555h-238zM234 611h363v-187h-363v187zM380 1325l266 355l143 -113l-285 -336z" />
    <glyph glyph-name="uni045D" unicode="&#x45d;" horiz-adv-x="997" 
d="M672 1v721l24 -26l-396 -695h-165v1037h190v-729l-24 26l398 703h163v-1037h-190zM183 1567l143 113l266 -355l-124 -94z" />
    <glyph glyph-name="uni045E" unicode="&#x45e;" horiz-adv-x="879" 
d="M859 1038l-377 -1281q-20 -67 -58 -109t-97 -61.5t-143 -19.5h-35v188h35q63 0 99.5 26.5t55.5 84.5l320 1172h200zM45 1038h200l271 -899l-104 -222zM254.5 1315.5q-68.5 77.5 -68.5 226.5v35h159v-36q0 -73 28 -111t81 -38h18q54 0 81.5 38t27.5 111v36h159v-35
q0 -149 -68.5 -226.5t-199.5 -77.5h-18q-131 0 -199.5 77.5z" />
    <glyph glyph-name="uni045F" unicode="&#x45f;" horiz-adv-x="984" 
d="M652 1038h197v-1038h-197v1038zM398 187h197v-448h-197v448zM255 187h495v-187h-495v187zM135 1038h197v-1038h-197v1038z" />
    <glyph glyph-name="uni0460" unicode="&#x460;" horiz-adv-x="1749" 
d="M322 40.5q-95 55.5 -146 158t-51 240.5v576q0 139 52 241.5t147.5 157.5t225.5 55h21v-190h-21q-68 0 -119 -31.5t-78.5 -90.5t-27.5 -139v-582q0 -79 27.5 -137t78.5 -89.5t119 -31.5t119 31.5t78.5 89.5t27.5 137v249h180v-246q0 -59 -13 -112.5t-38 -98.5
q-44 -116 -137 -179.5t-222 -63.5q-128 0 -223 55.5zM979.5 51.5q-92.5 66.5 -134.5 188.5q-22 44 -33.5 94t-11.5 105v246h175v-249q0 -79 27 -137t78 -89.5t120 -31.5q68 0 119 31.5t78.5 89.5t27.5 137v582q0 80 -27.5 139t-78.5 90.5t-119 31.5h-22v190h22
q129 0 225 -55t147.5 -157.5t51.5 -241.5v-576q0 -138 -51 -240.5t-145.5 -158t-222.5 -55.5q-133 0 -225.5 66.5z" />
    <glyph glyph-name="uni0461" unicode="&#x461;" horiz-adv-x="1374" 
d="M520 1038h213l214 -771q47 94 78.5 216.5t47.5 255.5t18 266v33h208q0 -169 -40 -361.5t-108.5 -370.5t-151.5 -306h-154zM35 1038h213l234 -781l214 472l76 -177l-248 -552h-154z" />
    <glyph glyph-name="uni0462" unicode="&#x462;" horiz-adv-x="1095" 
d="M-47 1283h736v-187h-736v187zM255 187h367q55 0 94 23t59.5 67t20.5 106v101q0 63 -20.5 107.5t-59.5 68t-94 23.5h-367v187h360q120 0 205.5 -45t130 -131.5t44.5 -207.5v-106q0 -120 -45 -205t-130 -130t-205 -45h-360v187zM150 1454h197v-1454h-197v1454z" />
    <glyph glyph-name="uni0463" unicode="&#x463;" horiz-adv-x="971" 
d="M-25 1148h714v-177h-714v177zM261 187h296q58 0 92 35.5t34 96.5v39q0 41 -15.5 71t-44 46t-66.5 16h-296v187h308q97 0 168.5 -37t110 -106t38.5 -164v-65q0 -93 -39.5 -162t-113.5 -106.5t-174 -37.5h-298v187zM162 1340h197v-1340h-197v1340z" />
    <glyph glyph-name="uni0464" unicode="&#x464;" horiz-adv-x="1453" 
d="M220 816h415v-187h-415v187zM337 0h-197v1454h197v-1454zM630 816h570v-187h-570v187zM714.5 40.5q-95.5 55.5 -147 159t-51.5 242.5v569q0 140 51.5 243.5t146.5 159t224 55.5q116 0 206.5 -48.5t145.5 -139.5t68 -214v-31h-201v31q-9 64 -40 111.5t-77.5 73
t-101.5 25.5q-67 0 -117 -32.5t-77 -92t-27 -141.5v-569q0 -80 27 -140t77 -92.5t117 -32.5q56 0 102 24.5t77 72t40 113.5v31h201v-31q-13 -123 -68 -213.5t-145.5 -139.5t-206.5 -49q-128 0 -223.5 55.5z" />
    <glyph glyph-name="uni0465" unicode="&#x465;" horiz-adv-x="1321" 
d="M246 603h399v-177h-399v177zM134 1038h197v-1038h-197v1038zM686 603h399v-177h-399v177zM710.5 29.5q-85.5 44.5 -130.5 130t-45 205.5v305q0 122 45 208t130.5 131.5t206.5 45.5q136 0 226.5 -64.5t119.5 -181.5v-17l-168 -66v17q-22 60 -68 93t-107 33
q-89 0 -138.5 -52t-49.5 -147v-305q0 -93 49 -143.5t139 -50.5q62 0 108 32.5t68 90.5v17l168 -71v-17q-29 -113 -120 -175.5t-227 -62.5q-121 0 -206.5 44.5z" />
    <glyph glyph-name="uni0466" unicode="&#x466;" horiz-adv-x="1146" 
d="M486 1454h174l451 -1454h-212l-326 1165l-326 -1165h-212zM475 534h196v-534h-196v534zM326 662h503v-187h-503v187z" />
    <glyph glyph-name="uni0467" unicode="&#x467;" horiz-adv-x="936" 
d="M381 1041h174l346 -1041h-197l-236 792l-236 -792h-197zM382 341h172v-341h-172v341zM249 412h443v-164h-443v164z" />
    <glyph glyph-name="uni0468" unicode="&#x468;" horiz-adv-x="1542" 
d="M248 663h514v-187h-514v187zM337 0h-197v1454h197v-1454zM882 1454h174l451 -1454h-212l-326 1165l-326 -1165h-212zM871 534h196v-534h-196v534zM722 662h503v-187h-503v187z" />
    <glyph glyph-name="uni0469" unicode="&#x469;" horiz-adv-x="1366" 
d="M265 413h474v-164h-474v164zM134 1038h197v-1038h-197v1038zM811 1041h174l346 -1041h-197l-236 792l-236 -792h-197zM812 341h172v-341h-172v341zM679 412h443v-164h-443v164z" />
    <glyph glyph-name="uni046A" unicode="&#x46a;" horiz-adv-x="1324" 
d="M204 1454h912v-187h-912v187zM485 671l-461 783h241l416 -750zM1055 1454h241l-441 -767l-205 17zM121 463q29 117 88.5 192t135.5 109.5t160 34.5l30 -176q-42 0 -83 -19.5t-74.5 -61.5t-47.5 -105l-97 -437h-228zM567 706h197v-706h-197v706zM500 799h83l80 -132
l85 132h69v-176h-307zM995 437q-15 63 -48 105t-74.5 61.5t-82.5 19.5l30 176q83 0 159.5 -34.5t135.5 -109.5t89 -192l115 -463h-228z" />
    <glyph glyph-name="uni046B" unicode="&#x46b;" horiz-adv-x="1124" 
d="M533 496l349 542h236l-404 -581zM76 283q47 163 143 238.5t247 75.5l-20 -183q-65 0 -105.5 -36.5t-60.5 -120.5l-62 -257h-223zM460 474h204v-474h-204v474zM446 597h36l81 -92l68 92h27l30 -183h-262zM6 1038h236l347 -537l-188 -27zM844 257q-20 84 -64.5 120.5
t-111.5 36.5l-20 183q153 0 253 -75.5t147 -238.5l81 -283h-223zM186 1038h762v-194h-762v194z" />
    <glyph glyph-name="uni046C" unicode="&#x46c;" horiz-adv-x="1770" 
d="M279 799h693v-176h-693v176zM337 0h-197v1454h197v-1454zM650 1454h912v-187h-912v187zM931 671l-461 783h241l416 -750zM1501 1454h241l-441 -767l-205 17zM567 463q29 117 88.5 192t135.5 109.5t160 34.5l30 -176q-42 0 -83 -19.5t-74.5 -61.5t-47.5 -105l-97 -437
h-228zM1013 706h197v-706h-197v706zM946 799h83l80 -132l85 132h69v-176h-307zM1441 437q-15 63 -48 105t-74.5 61.5t-82.5 19.5l30 176q83 0 159.5 -34.5t135.5 -109.5t89 -192l115 -463h-228z" />
    <glyph glyph-name="uni046D" unicode="&#x46d;" horiz-adv-x="1571" 
d="M266 597h547v-183h-547v183zM134 1038h197v-1038h-197v1038zM980 496l349 542h236l-404 -581zM523 283q47 163 143 238.5t247 75.5l-20 -183q-65 0 -105.5 -36.5t-60.5 -120.5l-62 -257h-223zM907 474h204v-474h-204v474zM893 597h36l81 -92l68 92h27l30 -183h-262z
M453 1038h236l347 -537l-188 -27zM1291 257q-20 84 -64.5 120.5t-111.5 36.5l-20 183q153 0 253 -75.5t147 -238.5l81 -283h-223zM633 1038h762v-194h-762v194z" />
    <glyph glyph-name="uni046E" unicode="&#x46e;" horiz-adv-x="1038" 
d="M408 -422q-153 0 -233 75.5t-80 220.5t80 221t233 77h87q116 0 176.5 55t60.5 160v78q0 97 -43.5 147.5t-127.5 50.5h-118v186h118q72 0 109.5 42.5t37.5 123.5v76q0 92 -49 140t-144 48q-98 0 -152 -52t-65 -156v0h-199v0q14 200 118 299t298 99q129 0 216.5 -42
t132.5 -124t45 -202v-77q0 -58 -18 -107t-54 -89t-89 -69q91 -28 138 -104t47 -195v-79q0 -129 -50 -218t-148.5 -134t-241.5 -45h-88q-57 0 -86 -28.5t-29 -81.5t29 -81t86 -28h354v-187h-351zM231 1793l112 117l189 -148l187 148l113 -117l-300 -241z" />
    <glyph glyph-name="uni046F" unicode="&#x46f;" horiz-adv-x="813" 
d="M378 -422q-153 0 -233 75.5t-80 220.5q0 143 80 218.5t233 75.5h24q61 0 95 31t34 87v49q0 51 -29.5 79.5t-80.5 28.5h-93v187h93q40 0 63 21t23 58v73q0 42 -29.5 65.5t-82.5 23.5q-54 0 -85.5 -32.5t-37.5 -96.5v-1h-193v1q7 102 45.5 172t106.5 105t164 35
q147 0 228 -67t81 -189v-80q0 -38 -15 -73.5t-44 -63.5t-67 -42q46 -8 80 -38.5t52 -74.5t18 -91v-62q0 -137 -86 -212t-243 -76h-22q-57 0 -86.5 -28.5t-29.5 -82.5q0 -53 29.5 -81t86.5 -28h262v-187h-261zM104 1524l118 107l175 -185l176 185l117 -107l-293 -299z" />
    <glyph glyph-name="uni0470" unicode="&#x470;" horiz-adv-x="1252" 
d="M354.5 413q-112.5 58 -171 169t-58.5 270v602h197v-609q0 -95 35.5 -161t103.5 -101t165 -35t165.5 35t103.5 101t35 161v609h197v-602q0 -159 -58.5 -270t-170.5 -169t-272 -58q-159 0 -271.5 58zM530 1454h197v-1454h-197v1454z" />
    <glyph glyph-name="uni0471" unicode="&#x471;" horiz-adv-x="1297" 
d="M371.5 43q-115.5 58 -176 169t-60.5 270v556h197v-566q0 -101 37.5 -172t108.5 -107.5t173 -36.5t173.5 36.5t108.5 107.5t37 172v566h197v-556q0 -159 -60 -270t-175.5 -169t-280.5 -58q-164 0 -279.5 58zM554 1339h197v-1640h-197v1640z" />
    <glyph glyph-name="uni0472" unicode="&#x472;" horiz-adv-x="1122" 
d="M249 816h620v-187h-620v187zM329.5 40q-98.5 55 -151.5 156.5t-53 239.5v583q0 138 53 239.5t151.5 156t231.5 54.5t231.5 -54.5t151.5 -156t53 -239.5v-583q0 -138 -53 -239.5t-151.5 -156.5t-231.5 -55t-231.5 55zM686.5 208.5q53.5 30.5 82.5 87.5t29 133v596
q0 77 -29 133.5t-82.5 87t-125.5 30.5t-125.5 -30.5t-82 -87t-28.5 -133.5v-596q0 -76 28.5 -133t82 -87.5t125.5 -30.5t125.5 30.5z" />
    <glyph glyph-name="uni0473" unicode="&#x473;" horiz-adv-x="946" 
d="M189 600h590v-162h-590v162zM278 29.5q-82 44.5 -125 129t-43 203.5v321q0 118 43 201.5t125 127t196 43.5q115 0 196 -43.5t123.5 -127t42.5 -201.5v-324q0 -118 -42.5 -202t-123.5 -128t-196 -44q-114 0 -196 44.5zM595.5 224q43.5 49 43.5 139v316q0 89 -43.5 137.5
t-122.5 48.5q-78 0 -122 -48.5t-44 -137.5v-316q0 -89 43.5 -138.5t122.5 -49.5t122.5 49z" />
    <glyph glyph-name="uni0474" unicode="&#x474;" horiz-adv-x="1014" 
d="M20 1454h210l271 -1128l215 910q19 76 48 124.5t76 74.5t115 26h109v-187h-79q-29 0 -45 -18t-26 -57l-315 -1199h-196z" />
    <glyph glyph-name="uni0475" unicode="&#x475;" horiz-adv-x="958" 
d="M60 1038h202l201 -752l120 542q18 75 49 125t74.5 75t99.5 25h97v-187h-54q-32 0 -53.5 -19t-32.5 -56l-224 -791h-152z" />
    <glyph glyph-name="uni0476" unicode="&#x476;" horiz-adv-x="1014" 
d="M144 1782l142 132l220 -261l-125 -109zM509 1782l142 132l220 -261l-125 -109zM20 1454h210l271 -1128l215 910q19 76 48 124.5t76 74.5t115 26h109v-187h-79q-29 0 -45 -18t-26 -57l-315 -1199h-196z" />
    <glyph glyph-name="uni0477" unicode="&#x477;" horiz-adv-x="960" 
d="M36 1559l158 118l231 -355l-139 -99zM404 1559l158 118l231 -355l-139 -99zM63 1038h201l201 -752l121 542q17 75 48 125t75 75t100 25h96v-187h-53q-33 0 -54.5 -19t-31.5 -56l-225 -791h-152z" />
    <glyph glyph-name="uni0478" unicode="&#x478;" horiz-adv-x="1951" 
d="M329.5 40q-98.5 55 -151.5 156.5t-53 239.5v583q0 138 53 239.5t151.5 156t231.5 54.5t231.5 -54.5t151.5 -156t53 -239.5v-583q0 -138 -53 -239.5t-151.5 -156.5t-231.5 -55t-231.5 55zM686.5 208.5q53.5 30.5 82.5 87.5t29 133v596q0 77 -29 133.5t-82.5 87
t-125.5 30.5t-125.5 -30.5t-82 -87t-28.5 -133.5v-596q0 -76 28.5 -133t82 -87.5t125.5 -30.5t125.5 30.5zM1931 1038l-377 -1281q-20 -67 -58 -109t-97 -61.5t-143 -19.5h-35v188h35q63 0 99.5 26.5t55.5 84.5l320 1172h200zM1117 1038h200l271 -899l-104 -222z" />
    <glyph glyph-name="uni0479" unicode="&#x479;" horiz-adv-x="1785" 
d="M278 29.5q-82 44.5 -125 129t-43 203.5v321q0 118 43 201.5t125 127t196 43.5q115 0 196 -43.5t123.5 -127t42.5 -201.5v-324q0 -118 -42.5 -202t-123.5 -128t-196 -44q-114 0 -196 44.5zM595.5 224q43.5 49 43.5 139v316q0 89 -43.5 137.5t-122.5 48.5q-78 0 -122 -48.5
t-44 -137.5v-316q0 -89 43.5 -138.5t122.5 -49.5t122.5 49zM1765 1038l-377 -1281q-20 -67 -58 -109t-97 -61.5t-143 -19.5h-35v188h35q63 0 99.5 26.5t55.5 84.5l320 1172h200zM951 1038h200l271 -899l-104 -222z" />
    <glyph glyph-name="uni047A" unicode="&#x47a;" horiz-adv-x="1122" 
d="M474 1586h174v-547h-174v547zM474 415h174v-547h-174v547zM329.5 40q-98.5 55 -151.5 156.5t-53 239.5v583q0 138 53 239.5t151.5 156t231.5 54.5t231.5 -54.5t151.5 -156t53 -239.5v-583q0 -138 -53 -239.5t-151.5 -156.5t-231.5 -55t-231.5 55zM686.5 208.5
q53.5 30.5 82.5 87.5t29 133v596q0 77 -29 133.5t-82.5 87t-125.5 30.5t-125.5 -30.5t-82 -87t-28.5 -133.5v-596q0 -76 28.5 -133t82 -87.5t125.5 -30.5t125.5 30.5z" />
    <glyph glyph-name="uni047B" unicode="&#x47b;" horiz-adv-x="946" 
d="M404 1170h139v-482h-139v482zM404 350h139v-482h-139v482zM278 29.5q-82 44.5 -125 129t-43 203.5v321q0 118 43 201.5t125 127t196 43.5q115 0 196 -43.5t123.5 -127t42.5 -201.5v-324q0 -118 -42.5 -202t-123.5 -128t-196 -44q-114 0 -196 44.5zM595.5 224
q43.5 49 43.5 139v316q0 89 -43.5 137.5t-122.5 48.5q-78 0 -122 -48.5t-44 -137.5v-316q0 -89 43.5 -138.5t122.5 -49.5t122.5 49z" />
    <glyph glyph-name="uni047C" unicode="&#x47c;" horiz-adv-x="1749" 
d="M322 40.5q-95 55.5 -146 158t-51 240.5v576q0 139 52 241.5t147.5 157.5t225.5 55h21v-190h-21q-68 0 -119 -31.5t-78.5 -90.5t-27.5 -139v-582q0 -79 27.5 -137t78.5 -89.5t119 -31.5t119 31.5t78.5 89.5t27.5 137v249h180v-246q0 -59 -13 -112.5t-38 -98.5
q-44 -116 -137 -179.5t-222 -63.5q-128 0 -223 55.5zM979.5 51.5q-92.5 66.5 -134.5 188.5q-22 44 -33.5 94t-11.5 105v246h175v-249q0 -79 27 -137t78 -89.5t120 -31.5q68 0 119 31.5t78.5 89.5t27.5 137v582q0 80 -27.5 139t-78.5 90.5t-119 31.5h-22v190h22
q129 0 225 -55t147.5 -157.5t51.5 -241.5v-576q0 -138 -51 -240.5t-145.5 -158t-222.5 -55.5q-133 0 -225.5 66.5zM541 1855h671v-179h-671v179zM541 1793h197v-219h-197v219zM1016 1959h197v-225h-197v225z" />
    <glyph glyph-name="uni047D" unicode="&#x47d;" horiz-adv-x="1374" 
d="M520 1038h213l214 -771q47 94 78.5 216.5t47.5 255.5t18 266v33h208q0 -169 -40 -361.5t-108.5 -370.5t-151.5 -306h-154zM35 1038h213l234 -781l214 472l76 -177l-248 -552h-154zM349 1439h671v-179h-671v179zM349 1377h197v-219h-197v219zM824 1543h197v-225h-197v225z
" />
    <glyph glyph-name="uni047E" unicode="&#x47e;" horiz-adv-x="1749" 
d="M1236 1787v-134h-712v134h712zM1236 1720v-177h-179v177h179zM524 1543v177h179v-177h-179zM960 1720v-177h-159v177h159zM322 40.5q-95 55.5 -146 158t-51 240.5v576q0 139 52 241.5t147.5 157.5t225.5 55h21v-190h-21q-68 0 -119 -31.5t-78.5 -90.5t-27.5 -139v-582
q0 -79 27.5 -137t78.5 -89.5t119 -31.5t119 31.5t78.5 89.5t27.5 137v249h180v-246q0 -59 -13 -112.5t-38 -98.5q-44 -116 -137 -179.5t-222 -63.5q-128 0 -223 55.5zM979.5 51.5q-92.5 66.5 -134.5 188.5q-22 44 -33.5 94t-11.5 105v246h175v-249q0 -79 27 -137t78 -89.5
t120 -31.5q68 0 119 31.5t78.5 89.5t27.5 137v582q0 80 -27.5 139t-78.5 90.5t-119 31.5h-22v190h22q129 0 225 -55t147.5 -157.5t51.5 -241.5v-576q0 -138 -51 -240.5t-145.5 -158t-222.5 -55.5q-133 0 -225.5 66.5z" />
    <glyph glyph-name="uni047F" unicode="&#x47f;" horiz-adv-x="1374" 
d="M1038 1494v-134h-711v134h711zM1038 1427v-177h-179v177h179zM327 1250v177h179v-177h-179zM762 1427v-177h-159v177h159zM520 1038h213l214 -771q47 94 78.5 216.5t47.5 255.5t18 266v33h208q0 -169 -40 -361.5t-108.5 -370.5t-151.5 -306h-154zM35 1038h213l234 -781
l214 472l76 -177l-248 -552h-154z" />
    <glyph glyph-name="uni0480" unicode="&#x480;" horiz-adv-x="1092" 
d="M346.5 326q-108.5 55 -165 160t-56.5 252v248q0 153 53 261.5t154.5 165t244.5 56.5q127 0 217.5 -49t141.5 -145.5t61 -238.5v0h-200v0q-7 79 -34.5 132.5t-74.5 81t-111 27.5q-120 0 -186 -76t-66 -215v-248q0 -131 74 -203t208 -72v-192q-152 0 -260.5 55zM505 463
h197v-463h-197v463z" />
    <glyph glyph-name="uni0481" unicode="&#x481;" horiz-adv-x="895" 
d="M289.5 29.5q-87.5 44.5 -133.5 129.5t-46 206v304q0 122 45 208.5t130 131.5t205 45q100 0 172.5 -30t116.5 -90.5t59 -150.5v0l-184 -57v0q-14 69 -55 104t-106 35q-88 0 -136.5 -52.5t-48.5 -146.5v-294q0 -97 50.5 -150.5t141.5 -53.5v-183q-123 0 -210.5 44.5z
M417 168h197v-440h-197v440z" />
    <glyph glyph-name="uni0482" unicode="&#x482;" horiz-adv-x="1150" 
d="M807 1446l169 -77l-633 -1384l-169 77zM1105 860l-77 -160l-748 356l77 160zM870 373l-77 -160l-748 356l77 160z" />
    <glyph glyph-name="uni0483" unicode="&#x483;" 
d="M-767 1439h671v-179h-671v179zM-767 1377h197v-219h-197v219zM-292 1543h197v-225h-197v225z" />
    <glyph glyph-name="uni0484" unicode="&#x484;" 
d="M-220 1275q0 27 -14 41.5t-40 14.5q-29 0 -60 -9.5t-76 -27.5l-6 -2l-6 -2q-3 -2 -6 -3.5t-7 -2.5q-67 -26 -124 -41t-123 -15h-21v170h18q48 0 96 12t102 32l8 4t8 3t7.5 2.5t7.5 3.5q67 26 116 40t98 14q89 0 135.5 -55t46.5 -161v-66h-160v48z" />
    <glyph glyph-name="uni0485" unicode="&#x485;" 
d="M-747 1439h671v-179h-671v179zM-747 1377h197v-219h-197v219zM-747 1543h197v-225h-197v225z" />
    <glyph glyph-name="uni0486" unicode="&#x486;" 
d="M-746 1439h671v-179h-671v179zM-271 1377h196v-219h-196v219zM-271 1543h196v-225h-196v225z" />
    <glyph glyph-name="uni0487" unicode="&#x487;" 
d="M-196.5 1241q-54.5 13 -111.5 35l-14 6l-14 6q-2 1 -5 2t-5 2q-48 20 -80.5 29.5t-62.5 9.5q-26 0 -40 -14.5t-14 -41.5v-48h-160v66q0 106 46.5 161t135.5 55q51 0 102.5 -15t125.5 -44q3 -1 6.5 -2.5t7.5 -3.5q55 -22 103 -34t98 -12h18v-170h-21q-61 0 -115.5 13z" />
    <glyph glyph-name="uni0488" unicode="&#x488;" 
d="M-1444 1136q0 57 -20.5 86.5t-58.5 29.5h-18q-39 0 -59 -29.5t-20 -86.5v-28h-154v35q0 120 59.5 182.5t173.5 62.5h18q114 0 173.5 -62.5t59.5 -182.5v-35h-154v28zM-1602 672q0 57 -20 86t-59 29h-18q-38 0 -58.5 -29t-20.5 -86v-28h-154v35q0 120 59.5 182.5
t173.5 62.5h18q114 0 173.5 -62.5t59.5 -182.5v-35h-154v28zM-1444 206q0 57 -20.5 86t-58.5 29h-18q-39 0 -59 -29t-20 -86v-28h-154v35q0 120 59.5 182.5t173.5 62.5h18q114 0 173.5 -62.5t59.5 -182.5v-35h-154v28zM-341 1136q0 57 -20.5 86t-58.5 29h-18q-39 0 -59 -29
t-20 -86v-28h-154v35q0 120 59.5 182.5t173.5 62.5h18q114 0 173.5 -62.5t59.5 -182.5v-35h-154v28zM-893 1416q0 57 -20 86t-59 29h-18q-38 0 -58.5 -29t-20.5 -86v-28h-154v35q0 120 59.5 182.5t173.5 62.5h18q114 0 173.5 -62.5t59.5 -182.5v-35h-154v28zM-184 672
q0 57 -20 86t-59 29h-18q-43 0 -66 -29t-23 -86v-28h-144v35q0 120 59.5 182.5t173.5 62.5h18q114 0 173.5 -62.5t59.5 -182.5v-35h-154v28zM-341 206q0 57 -20.5 86t-58.5 29h-18q-39 0 -59 -29t-20 -86v-28h-154v35q0 120 59.5 182.5t173.5 62.5h18q114 0 173.5 -62.5
t59.5 -182.5v-35h-154v28zM-893 -162q0 56 -20 85.5t-59 29.5h-18q-38 0 -58.5 -29.5t-20.5 -85.5v-29h-154v35q0 120 59.5 182.5t173.5 62.5h18q114 0 173.5 -62.5t59.5 -182.5v-35h-154v29z" />
    <glyph glyph-name="uni0489" unicode="&#x489;" 
d="M-718 1182l145 131l274 -13l-287 -263zM-1697 175l288 263l132 -145l-145 -131zM-1096 187h196v-196l-196 -194v390zM-1884 836h391v-196h-196zM-718 293l132 145l144 -132l12 -275zM-1554 1169l-11 275l288 -262l-132 -145zM-1096 1484l196 194v-390h-196v196zM-502 836
h196l194 -196h-390v196z" />
    <glyph glyph-name="uni048A" unicode="&#x48a;" horiz-adv-x="1188" 
d="M1002 56l25 -56h-77v164h243l-75 -465h-173zM842 1v1103l24 -26l-563 -1077h-163v1453h193v-1115l-24 26l565 1089h160v-1453h-192zM887 1863q0 -145 -78 -225t-220 -80h-8q-142 0 -220 80t-78 225l165 -2q0 -74 34.5 -115t98.5 -41h8q63 0 98 41t35 115z" />
    <glyph glyph-name="uni048B" unicode="&#x48b;" horiz-adv-x="1041" 
d="M1038 194l-75 -455h-194l44 265l31 190h194zM672 1v721l24 -26l-396 -695h-165v1037h190v-729l-24 26l398 703h163v-1037h-190zM283.5 1315.5q-68.5 77.5 -68.5 226.5v35h159v-36q0 -73 28 -111t81 -38h18q54 0 81.5 38t27.5 111v36h159v-35q0 -149 -68.5 -226.5
t-199.5 -77.5h-18q-131 0 -199.5 77.5z" />
    <glyph glyph-name="uni048C" unicode="&#x48c;" horiz-adv-x="1113" 
d="M18 1284h618v-182h-618v182zM273 187h367q54 0 93 23t59.5 67t20.5 106v101q0 63 -20.5 107.5t-59.5 68t-93 23.5h-367v187h359q121 0 206 -45t130 -131.5t45 -207.5v-106q0 -120 -45 -205t-130.5 -130t-205.5 -45h-359v187zM168 1454h197v-1454h-197v1454z" />
    <glyph glyph-name="uni048D" unicode="&#x48d;" horiz-adv-x="963" 
d="M-5 1038h594v-176h-594v176zM158 1454h197v-554h-197v554zM258 187h291q58 0 92 35.5t34 96.5v39q0 41 -15.5 71t-44 46t-66.5 16h-291v187h303q97 0 168.5 -37t110 -106t38.5 -164v-65q0 -93 -39.5 -162t-113.5 -106.5t-174 -37.5h-293v187zM159 1038h197v-1038h-197
v1038z" />
    <glyph glyph-name="uni048E" unicode="&#x48e;" horiz-adv-x="1085" 
d="M473 882l140 85l321 -528l-141 -85zM245 751h370q53 0 92 24.5t60.5 70t21.5 106.5v111q0 62 -21.5 108t-60.5 71t-92 25h-370v187h365q116 0 202 -47t132 -135t46 -207v-116q0 -118 -46.5 -204.5t-132 -133.5t-201.5 -47h-365v187zM140 1454h197v-1454h-197v1454z" />
    <glyph glyph-name="uni048F" unicode="&#x48f;" horiz-adv-x="969" 
d="M399 337l132 76l285 -540l-133 -77zM135 1038h197v-1460h-197v1460zM410 32q-63 47 -92 131l14 189q0 -59 19.5 -101t56 -64.5t87.5 -22.5q79 0 123 53t44 149v308q0 95 -44 148.5t-123 53.5q-51 0 -87.5 -21.5t-56 -63t-19.5 -98.5l-21 172q40 91 107.5 140.5
t149.5 49.5q92 0 157.5 -44t99.5 -128.5t34 -204.5v-315q0 -119 -35 -204t-102.5 -129.5t-162.5 -44.5q-86 0 -149 47z" />
    <glyph glyph-name="uni0490" unicode="&#x490;" horiz-adv-x="800" 
d="M613 1696h197v-354h-197v354zM140 1454h197v-1454h-197v1454zM254 1454h556v-187h-556v187z" />
    <glyph glyph-name="uni0491" unicode="&#x491;" horiz-adv-x="752" 
d="M513 1216h197v-326h-197v326zM135 1038h197v-1038h-197v1038zM243 1038h467v-187h-467v187z" />
    <glyph glyph-name="uni0492" unicode="&#x492;" horiz-adv-x="910" 
d="M75 816h665v-187h-665v187zM251 1454h197v-1454h-197v1454zM364 1454h556v-187h-556v187z" />
    <glyph glyph-name="uni0493" unicode="&#x493;" horiz-adv-x="822" 
d="M34 575h608v-177h-608v177zM205 1038h197v-1038h-197v1038zM313 1038h466v-187h-466v187z" />
    <glyph glyph-name="uni0494" unicode="&#x494;" horiz-adv-x="1066" 
d="M543 -89h46q104 0 157 62t53 180v279q0 132 -55.5 201.5t-160.5 69.5q-119 0 -182.5 -57t-63.5 -163v-115l-39 60v108q0 114 37 193t109.5 119.5t175.5 40.5q122 0 206 -53t127 -156.5t43 -253.5v-264q0 -145 -44 -242.5t-132 -146.5t-221 -49h-56v187zM140 1454h197
v-1454h-197v1454zM254 1454h556v-187h-556v187z" />
    <glyph glyph-name="uni0495" unicode="&#x495;" horiz-adv-x="959" 
d="M743 589q71 -51 108.5 -148t37.5 -234v-224q0 -135 -42.5 -225t-126 -135t-206.5 -45h-38v187h28q93 0 140.5 56t47.5 170v221q0 114 -50 177t-140 63q-81 0 -125.5 -48.5t-44.5 -136.5v-82l-44 20v108q0 156 74.5 241.5t209.5 85.5q100 0 171 -51zM135 1038h197v-1038
h-197v1038zM243 1038h467v-187h-467v187z" />
    <glyph glyph-name="uni0496" unicode="&#x496;" horiz-adv-x="1746" 
d="M1052 795l322 659h226l-435 -831zM1046 644l174 101l441 -745h-243zM446 745l174 -101l-372 -644h-243zM66 1454h226l322 -659l-113 -172zM445 816h776v-187h-776v187zM735 1454h197v-1454h-197v1454zM1743 187v-488h-197v488h197zM1628 134v-134h-57v134h57z" />
    <glyph glyph-name="uni0497" unicode="&#x497;" horiz-adv-x="1387" 
d="M815 440l144 120l343 -560h-232zM339 560l144 -120l-255 -440h-233zM44 1038h215l228 -440l-109 -159zM550 1038h197v-1038h-197v1038zM350 613h617v-182h-617v182zM811 598l227 440h216l-334 -599zM1387 182v-443h-197v443h197z" />
    <glyph glyph-name="uni0498" unicode="&#x498;" horiz-adv-x="1038" 
d="M636 119v-420h-197v420h197zM307 28.5q-95 43.5 -149 126t-63 198.5v40h199v-36q10 -88 73 -136t169 -48q103 0 159 56t56 158v78q0 95 -44.5 146.5t-126.5 51.5h-212v187h212q70 0 108.5 43.5t38.5 122.5v82q0 89 -49.5 136t-142.5 47q-90 0 -147 -45.5t-70 -128.5v-35
h-199v35q18 173 127 267.5t289 94.5q126 0 214 -42t134 -123.5t46 -197.5v-81q0 -84 -42 -153.5t-119 -112.5q88 -27 136.5 -105.5t48.5 -193.5v-79q0 -125 -49.5 -214t-144 -135.5t-228.5 -46.5q-129 0 -224 43.5z" />
    <glyph glyph-name="uni0499" unicode="&#x499;" horiz-adv-x="806" 
d="M494 114v-375h-197v375h197zM167 57q-88 72 -99 203v48h189v-33q6 -52 44.5 -80.5t102.5 -28.5q68 0 105.5 33.5t37.5 94.5v56q0 47 -30 73t-85 26h-143v171h143q41 0 63.5 23.5t22.5 66.5v50q0 55 -33 84.5t-93 29.5q-58 0 -94 -27.5t-44 -76.5v-28h-189v38
q15 131 101.5 203t229.5 72q150 0 232 -68.5t82 -192.5v-66q0 -63 -31 -111t-95 -73q77 -17 116 -64.5t39 -124.5v-77q0 -139 -87 -216t-247 -77q-150 0 -238 72z" />
    <glyph glyph-name="uni049A" unicode="&#x49a;" horiz-adv-x="1182" 
d="M493 795l317 659h226l-430 -831zM487 644l174 101l436 -745h-243zM140 1454h197v-1454h-197v1454zM239 816h423v-187h-423v187zM1183 187v-488h-197v488h197zM1068 134v-134h-57v134h57z" />
    <glyph glyph-name="uni049B" unicode="&#x49b;" horiz-adv-x="1042" 
d="M435 593l223 445h220l-329 -604zM135 1038h197v-1038h-197v1038zM439 435l149 120l339 -555h-238zM234 611h363v-187h-363v187zM1011 182v-443h-197v443h197z" />
    <glyph glyph-name="uni049C" unicode="&#x49c;" horiz-adv-x="1102" 
d="M140 1454h197v-1454h-197v1454zM553 795l257 659h226l-370 -831zM550 644l171 101l376 -745h-243zM239 816h483v-187h-483v187zM406 1069h119v-694h-119v694z" />
    <glyph glyph-name="uni049D" unicode="&#x49d;" horiz-adv-x="922" 
d="M469 440l154 120l304 -560h-238zM135 1038h197v-1038h-197v1038zM370 864h114v-694h-114v694zM234 611h393v-187h-393v187zM470 598l188 440h220l-269 -599z" />
    <glyph glyph-name="uni049E" unicode="&#x49e;" horiz-adv-x="1139" 
d="M0 1303h557v-177h-557v177zM530 795l317 659h226l-430 -831zM524 644l174 101l436 -745h-243zM178 1454h197v-1454h-197v1454zM277 816h422v-187h-422v187z" />
    </font>
</defs>
</svg>
