<?xml version="1.0" standalone="no"?>
<!DOCTYPE svg PUBLIC "-//W3C//DTD SVG 1.1//EN" "http://www.w3.org/Graphics/SVG/1.1/DTD/svg11.dtd" >
<svg xmlns="http://www.w3.org/2000/svg" xmlns:xlink="http://www.w3.org/1999/xlink" version="1.1">
<metadata>
Created by FontForge 20201107 at Thu May 29 13:06:41 2025
 By 
(c) 2018 Microsoft Corporation. All rights reserved.
</metadata>
<defs>
<font id="Bahnschrift" horiz-adv-x="0" >
  <font-face 
    font-family="Bahnschrift"
    font-weight="600"
    font-stretch="semi-condensed"
    units-per-em="2048"
    panose-1="2 11 5 2 4 2 4 2 2 3"
    ascent="1626"
    descent="-422"
    x-height="1038"
    cap-height="1454"
    bbox="-1940 -526 1965 2029"
    underline-thickness="50"
    underline-position="-125"
    unicode-range="U+0020-2133"
  />
<missing-glyph horiz-adv-x="1228" 
d="M132 0v1454h964v-1454h-964zM341 209h546v1036h-546v-1036z" />
    <glyph glyph-name=".notdef" horiz-adv-x="1228" 
d="M132 0v1454h964v-1454h-964zM341 209h546v1036h-546v-1036z" />
    <glyph glyph-name=".null" 
 />
    <glyph glyph-name="nonmarkingreturn" horiz-adv-x="682" 
 />
    <glyph glyph-name="space" unicode=" " horiz-adv-x="325" 
 />
    <glyph glyph-name="exclam" unicode="!" horiz-adv-x="425" 
d="M98 1454h229v-1067h-229v1067zM98 229h229v-229h-229v229z" />
    <glyph glyph-name="quotedbl" unicode="&#x22;" horiz-adv-x="671" 
d="M66 1454h227v-510h-227v510zM378 1454h227v-510h-227v510z" />
    <glyph glyph-name="numbersign" unicode="#" horiz-adv-x="1108" 
d="M779 1454h183l-229 -1454h-183zM387 1454h183l-229 -1454h-183zM1053 1111v-189h-920v189h920zM1000 535v-188h-920v188h920z" />
    <glyph glyph-name="dollar" unicode="$" horiz-adv-x="1032" 
d="M297 20.5q-89 35.5 -143.5 107t-73.5 181.5v0l205 81v0q26 -94 83 -138.5t148 -44.5q93 0 142.5 43.5t49.5 125.5v66q0 56 -28.5 91.5t-72.5 56t-116 43.5q-2 1 -4 1.5t-4 1.5q-5 2 -9 3t-9 3q-113 35 -183 71.5t-119.5 114t-49.5 208.5v40q0 126 48.5 214t142.5 133.5
t229 45.5q107 0 183 -31.5t125.5 -97.5t74.5 -169v0l-202 -83v0q-25 83 -71.5 122t-116.5 39q-90 0 -137 -41.5t-47 -118.5v-49q0 -60 29.5 -96.5t74 -57t123.5 -46.5q6 -1 11.5 -3.5t11.5 -3.5q4 -1 8 -3t8 -3q104 -34 171 -71.5t112.5 -113t45.5 -202.5v-64
q0 -126 -49 -213.5t-145 -132.5t-235 -45q-122 0 -211 35.5zM407 1631h223v-1808h-223v1808z" />
    <glyph glyph-name="percent" unicode="%" horiz-adv-x="1307" 
d="M906 1454h198l-699 -1454h-198zM814 47q-62 62 -62 173v168q0 110 62 172t176 62t175.5 -62t61.5 -174v-166q0 -112 -62 -173.5t-175 -61.5q-114 0 -176 62zM1031 166.5q15 16.5 15 47.5v181q0 29 -15 45t-41 16q-27 0 -41.5 -16t-14.5 -46v-180q0 -31 14.5 -47.5
t41.5 -16.5q26 0 41 16.5zM142 893q-62 62 -62 173v168q0 110 62 172t176 62t175.5 -62t61.5 -174v-166q0 -112 -62 -173.5t-175 -61.5q-114 0 -176 62zM359 1012.5q15 16.5 15 47.5v181q0 29 -15 45t-41 16q-27 0 -41.5 -16t-14.5 -46v-180q0 -31 14.5 -47.5t41.5 -16.5
q26 0 41 16.5z" />
    <glyph glyph-name="ampersand" unicode="&#x26;" horiz-adv-x="1180" 
d="M431 583q-70 92 -114.5 172t-69.5 165t-25 176q0 177 95 273.5t268 96.5q172 0 266 -94t94 -266v-73h-229v73q0 76 -34 118t-97 42q-66 0 -102.5 -44.5t-36.5 -125.5q0 -61 20 -126.5t58.5 -133t94.5 -139.5l546 -697h-277zM369.5 546q-64.5 -56 -64.5 -159
q0 -93 58.5 -145t164.5 -52q102 0 175 66t111 191t38 299h219q0 -239 -68.5 -410t-200 -261t-317.5 -90q-126 0 -216 47.5t-137 137.5t-47 217q0 172 100 275t283 119l83 -179q-117 0 -181.5 -56z" />
    <glyph glyph-name="quotesingle" unicode="'" horiz-adv-x="325" 
d="M49 1454h227v-510h-227v510z" />
    <glyph glyph-name="parenleft" unicode="(" horiz-adv-x="580" 
d="M204 109q-74 243 -74 539t74 539t220 422l159 -124q-117 -154 -175.5 -365.5t-58.5 -471.5t58.5 -471.5t175.5 -366.5l-159 -123q-146 179 -220 422z" />
    <glyph glyph-name="parenright" unicode=")" horiz-adv-x="580" 
d="M-3 -190q116 155 175 367t59 471q0 260 -59 471.5t-175 365.5l159 124q146 -179 220 -422t74 -539t-74 -539t-220 -422z" />
    <glyph glyph-name="asterisk" unicode="*" horiz-adv-x="719" 
d="M288 1162l126 103l214 -306l-146 -96zM91 959l214 306l126 -103l-193 -299zM27 1229l57 167l311 -114l-57 -154zM272 1567h175l-3 -364h-169zM325 1284l310 112l57 -167l-311 -101z" />
    <glyph glyph-name="plus" unicode="+" horiz-adv-x="877" 
d="M795 778v-216h-708v216h708zM551 264h-220v812h220v-812z" />
    <glyph glyph-name="comma" unicode="," horiz-adv-x="395" 
d="M83 231h229v-231l-229 -200v431z" />
    <glyph glyph-name="hyphen" unicode="-" horiz-adv-x="857" 
d="M735 631v-219h-608v219h608z" />
    <glyph glyph-name="period" unicode="." horiz-adv-x="395" 
d="M83 229h229v-229h-229v229z" />
    <glyph glyph-name="slash" unicode="/" horiz-adv-x="663" 
d="M212 -276h-215l492 1902h214z" />
    <glyph glyph-name="zero" unicode="0" horiz-adv-x="990" 
d="M214.5 84.5q-97.5 99.5 -97.5 277.5v731q0 180 98 279t280 99q183 0 280.5 -99t97.5 -279v-731q0 -179 -97.5 -278t-280.5 -99t-280.5 99.5zM606.5 251q37.5 45 37.5 129v696q0 84 -37.5 129t-111.5 45t-111.5 -45t-37.5 -129v-696q0 -84 37.5 -129t111.5 -45t111.5 45z
" />
    <glyph glyph-name="one" unicode="1" horiz-adv-x="616" 
d="M484 0h-229v1198l-198 -104v242l202 118h225v-1454z" />
    <glyph glyph-name="two" unicode="2" horiz-adv-x="939" 
d="M100 204l407 605q52 83 79 156.5t27 132.5v6q0 70 -35.5 106.5t-102.5 36.5q-69 0 -108.5 -46.5t-44.5 -136.5v-14h-235v14q7 131 53.5 221.5t130 137t199.5 46.5q123 0 207 -41.5t127.5 -123t43.5 -199.5v-6q0 -85 -34 -184t-99 -203l-321 -491h457v-221h-751v204z" />
    <glyph glyph-name="three" unicode="3" horiz-adv-x="948" 
d="M246 28.5q-86 43.5 -131 133t-49 228.5v0h233v0q3 -64 21 -104t51 -59t83 -19q72 0 112 40t40 112v122q0 78 -36 121t-102 43h-101v220h101q54 0 84 37t30 103v113q0 61 -32.5 94t-91.5 33q-42 0 -70.5 -20t-45 -61t-20.5 -106v0h-232v0q6 141 49 231.5t123.5 134.5
t201.5 44q168 0 260 -90t92 -254v-116q0 -80 -45 -145t-127 -105q93 -26 144.5 -100.5t51.5 -184.5v-124q0 -115 -44.5 -197t-129.5 -125t-204 -43q-130 0 -216 43.5z" />
    <glyph glyph-name="four" unicode="4" horiz-adv-x="1025" 
d="M97 430l388 1023h245l-376 -1011h604v-219h-861v207zM629 841h226v-842h-226v842z" />
    <glyph glyph-name="five" unicode="5" horiz-adv-x="975" 
d="M289.5 28.5q-80.5 43.5 -124 131t-48.5 217.5v0h229v0q4 -85 39.5 -127.5t101.5 -42.5q67 0 104.5 42.5t37.5 118.5v240q0 75 -34.5 116.5t-97.5 41.5q-50 0 -85 -27.5t-48 -77.5h-215v793h682v-221h-453v-308q33 30 77 46.5t90 16.5q99 0 169.5 -44.5t107 -130
t36.5 -205.5v-240q0 -121 -43.5 -207t-127.5 -131t-201 -45q-116 0 -196.5 43.5z" />
    <glyph glyph-name="six" unicode="6" horiz-adv-x="921" 
d="M258.5 31.5q-83.5 46.5 -127.5 134.5t-44 213v95q0 84 18.5 162t54.5 166q6 14 12 27.5t12 26.5l268 598h250l-328 -725l-48 36q30 47 77 73t103 26q104 0 177.5 -44t112 -128.5t38.5 -202.5v-107q0 -125 -44 -214t-128 -136t-202 -47t-201.5 46.5zM568 248.5
q38 42.5 38 121.5v100q0 83 -38.5 128t-109.5 45q-68 0 -105.5 -45.5t-37.5 -128.5v-100q0 -78 38 -120.5t107 -42.5q70 0 108 42.5z" />
    <glyph glyph-name="seven" unicode="7" horiz-adv-x="906" 
d="M809 1275l-321 -1275h-239l317 1240h-262v-193h-227v407h732v-179z" />
    <glyph glyph-name="eight" unicode="8" horiz-adv-x="997" 
d="M290 28.5q-88 43.5 -135.5 125t-47.5 191.5v128q0 94 50 173.5t137 121.5q-75 36 -119 101.5t-44 140.5v118q0 105 44.5 181.5t127 118t194.5 41.5q113 0 196.5 -41.5t128 -118t44.5 -181.5v-118q0 -77 -44.5 -142t-121.5 -100q88 -42 139 -121.5t51 -173.5v-128
q0 -110 -47.5 -191.5t-136.5 -125t-209 -43.5q-119 0 -207 43.5zM584.5 225.5q37.5 19.5 58 55t20.5 82.5v129q0 46 -20.5 79.5t-58 52t-87.5 18.5q-49 0 -85.5 -18.5t-56.5 -52.5t-20 -80v-130q0 -47 20 -82t56.5 -54t85.5 -19q50 0 87.5 19.5zM572.5 880.5
q32.5 18.5 50 53t17.5 80.5v88q0 45 -17.5 78t-50 51t-75.5 18q-42 0 -74 -18t-49 -51.5t-17 -78.5v-89q0 -45 17 -79.5t49 -52.5t74 -18q43 0 75.5 18.5z" />
    <glyph glyph-name="nine" unicode="9" horiz-adv-x="921" 
d="M552 724l44 -36q-30 -47 -78 -70.5t-107 -23.5q-99 0 -172 45t-112.5 129t-39.5 197v106q0 126 44 215.5t128 136t202 46.5t201.5 -47t127.5 -136.5t44 -214.5v-96q0 -82 -19.5 -159.5t-58.5 -172.5q-4 -13 -9.5 -25t-10.5 -25l-253 -593h-244zM568 854.5
q38 44.5 38 124.5v102q0 80 -38 123t-107 43q-70 0 -108 -43t-38 -124v-102q0 -80 38 -124t108 -44q69 0 107 44.5z" />
    <glyph glyph-name="colon" unicode=":" horiz-adv-x="395" 
d="M83 229h229v-229h-229v229zM83 1042h229v-229h-229v229z" />
    <glyph glyph-name="semicolon" unicode=";" horiz-adv-x="395" 
d="M83 231h229v-231l-229 -200v431zM83 1042h229v-229h-229v229z" />
    <glyph glyph-name="less" unicode="&#x3c;" horiz-adv-x="709" 
d="M383 666h-361l605 417v-274zM627 248l-605 418h361l244 -145v-273z" />
    <glyph glyph-name="equal" unicode="=" horiz-adv-x="755" 
d="M87 954h586v-221h-586v221zM87 599h586v-220h-586v220z" />
    <glyph glyph-name="greater" unicode="&#x3e;" horiz-adv-x="714" 
d="M87 1083l605 -417h-359l-246 143v274zM333 666h359l-605 -418v273z" />
    <glyph glyph-name="question" unicode="?" horiz-adv-x="798" 
d="M276 589.5q21 85.5 51 142t77 126.5q35 51 54.5 85t32 75.5t12.5 91.5v4q0 69 -33 107t-93 38q-64 0 -95 -51t-32 -157v0h-232v0q2 142 41.5 234.5t118 138t197.5 45.5q114 0 195 -41t123.5 -119.5t42.5 -188.5v-4q0 -72 -16 -128.5t-39.5 -97.5t-62.5 -96
q-45 -64 -71 -112t-44.5 -121t-18.5 -171h-229q0 114 21 199.5zM255 229h229v-229h-229v229z" />
    <glyph glyph-name="at" unicode="@" horiz-adv-x="1625" 
d="M548 82q-73 97 -73 291v305q0 189 85 282t255 93t254 -93.5t84 -282.5v-408l-129 -46q-20 -120 -82.5 -179t-174.5 -59q-146 0 -219 97zM906.5 238q30.5 44 30.5 134v311q0 81 -30.5 121t-92.5 40q-124 0 -124 -162v-310q0 -90 31 -134t93 -44t92.5 44zM427.5 -309.5
q-155.5 72.5 -233 218t-77.5 363.5v239t1 238q1 231 79 384.5t233 230t387 76.5q227 0 380.5 -77t231.5 -230.5t78 -383.5v-444q0 -163 -70.5 -241.5t-205.5 -78.5q-136 0 -203.5 68.5t-67.5 206.5l193 33q0 -59 18 -88t57 -29t56.5 26.5t17.5 83.5v463q0 165 -55 276.5
t-163 167t-267 55.5q-163 0 -271.5 -55.5t-163.5 -166t-56 -277.5v-236.5v-240.5q0 -153 54 -255t163 -153t274 -51h298v-195h-298q-234 0 -389.5 72.5z" />
    <glyph glyph-name="A" unicode="A" horiz-adv-x="1116" 
d="M471 1454h174l444 -1454h-241l-290 1069l-289 -1069h-242zM269 491h589v-217h-589v217z" />
    <glyph glyph-name="B" unicode="B" horiz-adv-x="1091" 
d="M258 217h329q89 0 135 40t46 113v98q0 55 -19.5 94t-58 60t-94.5 21h-338v214h336q76 0 116 41.5t40 118.5v76q0 70 -42 107.5t-120 37.5h-330v216h347q120 0 204 -41t127 -118t43 -186v-77q0 -74 -27 -132.5t-80.5 -97t-128.5 -52.5q80 -11 137.5 -52t87.5 -105t30 -146
v-99q0 -108 -44 -186.5t-128 -120t-200 -41.5h-368v217zM132 1454h229v-1454h-229v1454z" />
    <glyph glyph-name="C" unicode="C" horiz-adv-x="1061" 
d="M317 39.5q-97 54.5 -148.5 157t-51.5 244.5v571q0 142 51.5 245t148.5 157.5t230 54.5q130 0 222 -52t143.5 -155.5t61.5 -256.5v0h-234v0q-6 78 -31 130.5t-66 79.5t-96 27q-60 0 -104 -28t-68 -79.5t-24 -122.5v-571q0 -71 24 -122.5t68 -79t104 -27.5q56 0 96.5 26.5
t65.5 79t31 131.5v0h234v0q-10 -153 -61.5 -256.5t-143.5 -155.5t-222 -52q-133 0 -230 54.5z" />
    <glyph glyph-name="D" unicode="D" horiz-adv-x="1114" 
d="M273 219h282q100 0 154 52.5t54 148.5v614q0 96 -54 148.5t-154 52.5h-282v219h284q139 0 238 -49t150.5 -143t51.5 -226v-618q0 -130 -51 -224t-150 -144t-240 -50h-283v219zM132 1454h229v-1454h-229v1454z" />
    <glyph glyph-name="E" unicode="E" horiz-adv-x="999" 
d="M132 1454h229v-1454h-229v1454zM234 220h693v-220h-693v220zM234 832h613v-220h-613v220zM234 1454h693v-220h-693v220z" />
    <glyph glyph-name="F" unicode="F" horiz-adv-x="950" 
d="M132 1454h229v-1454h-229v1454zM235 819h603v-219h-603v219zM235 1454h683v-219h-683v219z" />
    <glyph glyph-name="G" unicode="G" horiz-adv-x="1114" 
d="M997 791v-350q0 -139 -53.5 -242t-152 -158.5t-231.5 -55.5q-135 0 -235 52.5t-154 150t-54 230.5v592q0 141 53 244t152 159t232 56q130 0 223 -50t145.5 -149t62.5 -245v0h-242v0q-6 72 -30.5 119.5t-65 71t-93.5 23.5q-62 0 -107.5 -28t-70.5 -79.5t-25 -121.5v-592
q0 -62 25.5 -108t73 -70.5t110.5 -24.5t109 26.5t71 76.5t25 120v134h-200v219h432z" />
    <glyph glyph-name="H" unicode="H" horiz-adv-x="1130" 
d="M769 1454h229v-1454h-229v1454zM132 1454h230v-1454h-230v1454zM257 826h647v-217h-647v217z" />
    <glyph glyph-name="I" unicode="I" horiz-adv-x="475" 
d="M353 0h-231v1454h231v-1454z" />
    <glyph glyph-name="J" unicode="J" horiz-adv-x="880" 
d="M156 29.5q-89 44.5 -144 124.5l176 143q30 -42 73.5 -64.5t93.5 -22.5q77 0 119 48.5t42 137.5v1058h232v-1067q0 -127 -46.5 -217t-134.5 -137.5t-213 -47.5q-109 0 -198 44.5z" />
    <glyph glyph-name="K" unicode="K" horiz-adv-x="1094" 
d="M300 631l472 823h271l-746 -1192zM132 1454h229v-1454h-229v1454zM480 771l174 149l443 -920h-266z" />
    <glyph glyph-name="L" unicode="L" horiz-adv-x="964" 
d="M132 1454h229v-1454h-229v1454zM239 219h678v-219h-678v219z" />
    <glyph glyph-name="M" unicode="M" horiz-adv-x="1366" 
d="M996 1454h238v-1454h-211v1084l13 -64l-274 -805h-158l-274 785l16 84v-1084h-214v1454h241l310 -911z" />
    <glyph glyph-name="N" unicode="N" horiz-adv-x="1174" 
d="M132 1454h221l498 -1081l-27 -29v1110h218v-1453h-222l-496 1050l26 29v-1079h-218v1453z" />
    <glyph glyph-name="O" unicode="O" horiz-adv-x="1122" 
d="M325.5 39q-100.5 54 -154.5 154.5t-54 236.5v594q0 136 54 236.5t154.5 154.5t235.5 54t235.5 -54t154.5 -154.5t54 -236.5v-594q0 -136 -54 -236.5t-154.5 -154.5t-235.5 -54t-235.5 54zM672.5 239q47.5 27 73 77t25.5 117v589q0 67 -25.5 117t-73 76.5t-111.5 26.5
t-111.5 -26.5t-73 -76.5t-25.5 -117v-589q0 -67 25.5 -117t73 -77t111.5 -27t111.5 27z" />
    <glyph glyph-name="P" unicode="P" horiz-adv-x="1085" 
d="M245 783h366q46 0 80.5 21.5t53 61t18.5 92.5v99q0 54 -18.5 94.5t-53 62t-80.5 21.5h-366v219h363q119 0 207 -47t135.5 -134.5t47.5 -206.5v-119q0 -117 -47.5 -203.5t-135.5 -133t-207 -46.5h-363v219zM132 1454h229v-1454h-229v1454z" />
    <glyph glyph-name="Q" unicode="Q" horiz-adv-x="1141" 
d="M518 348l129 159l495 -393l-129 -160zM325.5 39q-100.5 54 -154.5 154.5t-54 236.5v594q0 136 54 236.5t154.5 154.5t235.5 54t235.5 -54t154.5 -154.5t54 -236.5v-594q0 -136 -54 -236.5t-154.5 -154.5t-235.5 -54t-235.5 54zM672.5 239q47.5 27 73 77t25.5 117v589
q0 67 -25.5 117t-73 76.5t-111.5 26.5t-111.5 -26.5t-73 -76.5t-25.5 -117v-589q0 -67 25.5 -117t73 -77t111.5 -27t111.5 27z" />
    <glyph glyph-name="R" unicode="R" horiz-adv-x="1130" 
d="M232 827h383q46 0 80 19.5t52.5 56.5t18.5 87v78q0 51 -18.5 89t-52.5 58.5t-80 20.5h-383v219h378q120 0 208.5 -45.5t136 -131.5t47.5 -202v-85q0 -117 -47.5 -203.5t-136 -133t-208.5 -46.5h-378v219zM132 1455h228v-1455h-228v1455zM520 653l226 46l307 -699h-262z
" />
    <glyph glyph-name="S" unicode="S" horiz-adv-x="1072" 
d="M317.5 21q-91.5 36 -152 106t-85.5 173v0l216 95v0q27 -93 89 -141t151 -48q102 0 158 44.5t56 124.5v64q0 57 -31 93.5t-79 57t-127 44.5q-2 1 -4.5 1.5t-4.5 1.5l-11 3q-120 35 -195.5 71.5t-129 115t-53.5 211.5v40q0 124 51.5 212t150.5 133.5t239 45.5
q105 0 186.5 -34.5t136 -102t80.5 -166.5v0l-207 -96v0q-27 87 -79.5 133t-123.5 46q-99 0 -152.5 -42t-53.5 -119v-48q0 -60 32 -97t80.5 -58t133.5 -46q5 -2 10 -3.5t11 -3.5q4 -1 8.5 -2.5t9.5 -2.5q109 -34 180.5 -71.5t120 -113t48.5 -202.5v-64q0 -124 -52.5 -211.5
t-153.5 -133.5t-243 -46q-119 0 -210.5 36z" />
    <glyph glyph-name="T" unicode="T" horiz-adv-x="846" 
d="M309 1334h229v-1334h-229v1334zM-18 1454h882v-219h-882v219z" />
    <glyph glyph-name="U" unicode="U" horiz-adv-x="1092" 
d="M312.5 37.5q-96.5 52.5 -146.5 153t-50 242.5v1021h229v-1028q0 -103 52.5 -159t147.5 -56q97 0 149.5 56t52.5 159v1028h229v-1021q0 -142 -50.5 -242.5t-147 -153t-233.5 -52.5q-136 0 -232.5 52.5z" />
    <glyph glyph-name="V" unicode="V" horiz-adv-x="1002" 
d="M12 1454h242l247 -1057l248 1057h241l-380 -1454h-218z" />
    <glyph glyph-name="W" unicode="W" horiz-adv-x="1444" 
d="M636 1454h172l229 -1060l161 1060h234l-269 -1454h-228l-207 990l-219 -990h-227l-270 1454h234l161 -1060z" />
    <glyph glyph-name="X" unicode="X" horiz-adv-x="982" 
d="M442 612l-34 65l-394 777h248l262 -565l40 -78l416 -811h-248zM435 849l275 605h248l-406 -804l-302 -650h-248z" />
    <glyph glyph-name="Y" unicode="Y" horiz-adv-x="875" 
d="M555 579v-579h-229v579l-359 875h242l231 -627l227 627h241z" />
    <glyph glyph-name="Z" unicode="Z" horiz-adv-x="929" 
d="M848 1253l-496 -1034h511v-219h-769v201l499 1034h-481v219h736v-201z" />
    <glyph glyph-name="bracketleft" unicode="[" horiz-adv-x="512" 
d="M143 1626h212v-1952h-212v1952zM253 -118h250v-208h-250v208zM253 1626h250v-208h-250v208z" />
    <glyph glyph-name="backslash" unicode="\" horiz-adv-x="663" 
d="M174 1626l492 -1902h-215l-492 1902h215z" />
    <glyph glyph-name="bracketright" unicode="]" horiz-adv-x="512" 
d="M157 1626h212v-1952h-212v1952zM12 -118h248v-208h-248v208zM9 1626h248v-208h-248v208z" />
    <glyph glyph-name="asciicircum" unicode="^" horiz-adv-x="885" 
d="M445 1207v352l368 -559h-244zM77 1000l368 559v-352l-123 -207h-245z" />
    <glyph glyph-name="underscore" unicode="_" horiz-adv-x="777" 
d="M765 -1v-219h-753v219h753z" />
    <glyph glyph-name="grave" unicode="`" horiz-adv-x="498" 
d="M33 1542l166 133l266 -355l-147 -114z" />
    <glyph glyph-name="a" unicode="a" horiz-adv-x="963" 
d="M625 705q0 70 -39.5 108t-112.5 38q-52 0 -93 -24t-64 -67l-185 67q30 108 120 168t224 60q115 0 197 -41t125 -118t43 -186v-710h-215v705zM170.5 62q-75.5 77 -75.5 231q0 162 87 244t259 82h191l14 -185h-201q-68 0 -102 -35.5t-34 -105.5q0 -59 35 -88t106 -29
q87 0 131 29.5t44 89.5l20 -120q-9 -63 -42 -105t-85.5 -63.5t-120.5 -21.5q-151 0 -226.5 77z" />
    <glyph glyph-name="b" unicode="b" horiz-adv-x="969" 
d="M432.5 31.5q-61.5 46.5 -90.5 131.5l14 190q0 -50 16.5 -85.5t48 -54.5t75.5 -19q68 0 106 46t38 130v300q0 83 -38 129.5t-106 46.5q-44 0 -75.5 -18.5t-48 -53.5t-16.5 -85l-21 176q40 90 104.5 140t142.5 50q90 0 154.5 -44t97.5 -127.5t33 -201.5v-323
q0 -118 -34 -202t-99.5 -128t-157.5 -44q-82 0 -143.5 46.5zM127 1454h229v-1454h-229v1454z" />
    <glyph glyph-name="c" unicode="c" horiz-adv-x="896" 
d="M281 30q-87 45 -133 130.5t-46 206.5v301q0 122 46 209t133 132t210 45q104 0 177.5 -30.5t118 -93t59.5 -156.5v0l-211 -68v0q-14 67 -50 100.5t-93 33.5q-77 0 -119 -46.5t-42 -130.5v-291q0 -83 42 -128t119 -45q57 0 93.5 32.5t49.5 97.5v0l211 -72v0
q-14 -92 -58.5 -152.5t-118.5 -90t-178 -29.5q-123 0 -210 45z" />
    <glyph glyph-name="d" unicode="d" horiz-adv-x="964" 
d="M613 1454h229v-1454h-229v1454zM233 26q-64 43 -97.5 125t-33.5 198v337q0 116 33.5 199.5t97 126.5t152.5 43q78 0 143.5 -48.5t105.5 -137.5l-21 -180q0 49 -16.5 84t-47.5 53.5t-76 18.5q-68 0 -106 -45.5t-38 -127.5v-312q0 -79 38 -122.5t106 -43.5q45 0 76 18
t47.5 52.5t16.5 83.5l14 -185q-29 -83 -91.5 -131.5t-148.5 -48.5q-90 0 -154 43z" />
    <glyph glyph-name="e" unicode="e" horiz-adv-x="950" 
d="M283 31.5q-88 46.5 -134.5 136t-46.5 216.5v252q0 132 45 226t130 143t206 49q116 0 199.5 -52.5t126.5 -153t43 -241.5v-177h-585v172h368v66q0 84 -41.5 132t-110.5 48q-79 0 -122 -52.5t-43 -148.5v-269q0 -88 45.5 -136.5t128.5 -48.5q57 0 94.5 27.5t54.5 79.5v0
l199 -70v0q-29 -121 -117 -183t-227 -62q-125 0 -213 46.5z" />
    <glyph glyph-name="f" unicode="f" horiz-adv-x="584" 
d="M151 1179q0 138 64.5 206.5t197.5 68.5h149v-212h-118q-31 0 -47.5 -22.5t-16.5 -58.5v-1161h-229v1179zM47 1038h515v-199h-515v199z" />
    <glyph glyph-name="g" unicode="g" horiz-adv-x="964" 
d="M221.5 -356.5q-85.5 65.5 -104.5 193.5v0l218 67v0q12 -58 47 -88.5t87 -30.5q67 0 105.5 41t38.5 114v1098h229v-1086q0 -118 -45.5 -202t-133 -128t-210.5 -44q-146 0 -231.5 65.5zM233 26q-64 43 -97.5 125t-33.5 198v337q0 116 33 199t96.5 126.5t153.5 43.5
q78 0 143.5 -48.5t105.5 -137.5l-21 -178q0 49 -16.5 84t-48 53t-75.5 18q-68 0 -106 -45t-38 -127v-316q0 -78 38 -122t106 -44q45 0 76 18.5t47.5 53t16.5 83.5l14 -184q-29 -83 -91.5 -131.5t-148.5 -48.5q-90 0 -154 43z" />
    <glyph glyph-name="h" unicode="h" horiz-adv-x="999" 
d="M127 1454h229v-1454h-229v1454zM648 677q0 78 -38 120t-110 42q-70 0 -107 -40t-37 -116l-20 176q40 96 106 146t153 50q135 0 208.5 -90.5t73.5 -257.5v-707h-229v677z" />
    <glyph glyph-name="i" unicode="i" horiz-adv-x="460" 
d="M118 1451h229v-229h-229v229zM118 1038h229v-1038h-229v1038z" />
    <glyph glyph-name="j" unicode="j" horiz-adv-x="488" 
d="M2 -201h65q32 0 50 21t18 60v1158h230v-1185q0 -131 -67 -203t-189 -72h-107v221zM134 1450h232v-228h-232v228z" />
    <glyph glyph-name="k" unicode="k" horiz-adv-x="953" 
d="M244 400l436 638h245l-670 -919zM127 1454h229v-1454h-229v1454zM450 550l156 145l365 -695h-252z" />
    <glyph glyph-name="l" unicode="l" horiz-adv-x="533" 
d="M356 300q0 -38 19 -59.5t53 -21.5h58v-220h-108q-119 0 -185 72t-66 203v1180h229v-1154z" />
    <glyph glyph-name="m" unicode="m" horiz-adv-x="1519" 
d="M1167 670q0 83 -38.5 126.5t-109.5 43.5q-69 0 -105.5 -43t-36.5 -124l-34 179q41 98 111.5 150.5t157.5 52.5q90 0 154 -41.5t97.5 -121.5t33.5 -192v-700h-230v670zM127 1038h230v-1038h-230v1038zM647 670q0 83 -37.5 126.5t-107.5 43.5t-107.5 -40.5t-37.5 -116.5
l-21 177q41 95 108 145t153 50q89 0 151.5 -41t95.5 -119t33 -190v-705h-230v670z" />
    <glyph glyph-name="n" unicode="n" horiz-adv-x="999" 
d="M127 1038h230v-1038h-230v1038zM648 678q0 79 -38 120.5t-110 41.5q-70 0 -106.5 -40.5t-36.5 -116.5l-21 176q40 96 106 146t153 50q135 0 208.5 -90.5t73.5 -257.5v-707h-229v678z" />
    <glyph glyph-name="o" unicode="o" horiz-adv-x="946" 
d="M273 29q-83 44 -127 127.5t-44 200.5v331q0 116 44 198.5t127 125.5t201 43q117 0 200 -43t126.5 -125.5t43.5 -198.5v-334q0 -116 -43.5 -199t-126.5 -126.5t-200 -43.5q-118 0 -201 44zM578.5 243.5q37.5 41.5 37.5 117.5v320q0 75 -37.5 116t-105.5 41q-67 0 -105 -41
t-38 -116v-320q0 -76 37.5 -117.5t105.5 -41.5t105.5 41.5z" />
    <glyph glyph-name="p" unicode="p" horiz-adv-x="969" 
d="M127 1038h229v-1460h-229v1460zM432.5 31.5q-61.5 46.5 -90.5 131.5l14 190q0 -50 16.5 -85.5t48 -54.5t76.5 -19q68 0 105.5 46t37.5 130v300q0 83 -37.5 129.5t-105.5 46.5q-45 0 -76.5 -18.5t-48 -53.5t-16.5 -85l-21 176q39 90 104 140t144 50q90 0 154 -44
t97 -127.5t33 -201.5v-323q0 -118 -34 -202t-99 -128t-157 -44q-83 0 -144.5 46.5z" />
    <glyph glyph-name="q" unicode="q" horiz-adv-x="964" 
d="M613 1038h229v-1460h-229v1460zM233 26q-64 43 -97.5 125t-33.5 198v337q0 116 33.5 199.5t97 126.5t152.5 43q78 0 144 -48.5t106 -137.5l-21 -180q0 49 -16.5 84t-48 53.5t-75.5 18.5q-69 0 -107 -45.5t-38 -127.5v-312q0 -79 38 -122.5t107 -43.5q44 0 75.5 18
t48 52.5t16.5 83.5l14 -185q-30 -83 -92 -131.5t-149 -48.5q-90 0 -154 43z" />
    <glyph glyph-name="r" unicode="r" horiz-adv-x="757" 
d="M127 1038h234v-1038h-234v1038zM619 820.5q-24 6.5 -54 6.5q-96 0 -149.5 -54t-54.5 -149l-21 233q47 93 120.5 145.5t162.5 52.5q34 0 61.5 -10.5t47.5 -30.5l-73 -214q-16 14 -40 20.5z" />
    <glyph glyph-name="s" unicode="s" horiz-adv-x="866" 
d="M252 13.5q-80 28.5 -132.5 84.5t-75.5 137v0l194 94v0q30 -68 82.5 -102.5t123.5 -34.5q76 0 118 30.5t42 83.5q0 40 -23.5 63t-59.5 34.5t-101 24.5l-20 4l-20 4q-4 1 -7 1.5t-6 1.5q-88 20 -148 47.5t-100 87.5t-40 162q0 100 42.5 171.5t123 109t192.5 37.5
q96 0 169.5 -26.5t123 -78t72.5 -126.5v0l-194 -91v0q-26 56 -70 86t-102 30q-68 0 -105 -28.5t-37 -79.5q0 -38 24.5 -60t61 -32.5t101.5 -23.5q4 0 7.5 -0.5t6.5 -1.5q2 -1 4.5 -1t4.5 -1q97 -18 161 -43.5t108.5 -89.5t44.5 -178q0 -102 -45 -175t-130.5 -111t-206.5 -38
q-104 0 -184 28.5z" />
    <glyph glyph-name="t" unicode="t" horiz-adv-x="603" 
d="M211.5 64.5q-61.5 69.5 -61.5 205.5v1070h229v-1043q0 -39 16.5 -60t47.5 -21h78v-221h-116q-132 0 -193.5 69.5zM47 1038h474v-206h-474v206z" />
    <glyph glyph-name="u" unicode="u" horiz-adv-x="987" 
d="M637 1038h227v-1038h-227v1038zM356 341q0 -70 36.5 -107.5t104.5 -36.5q68 -1 104 35.5t36 105.5l14 -168q-29 -85 -88 -135t-146 -50q-141 0 -215.5 90.5t-74.5 260.5v702h229v-697z" />
    <glyph glyph-name="v" unicode="v" horiz-adv-x="909" 
d="M648 1038h229l-333 -1038h-173l-334 1038h230l191 -710z" />
    <glyph glyph-name="w" unicode="w" horiz-adv-x="1374" 
d="M52 1038h226l145 -708l187 708h159l188 -708l144 708h226l-277 -1038h-175l-185 700l-184 -700h-177z" />
    <glyph glyph-name="x" unicode="x" horiz-adv-x="932" 
d="M393 461l-335 577h250l231 -453l357 -585h-248zM386 573l116 -186l-214 -387h-246zM451 668l180 370h249l-322 -559z" />
    <glyph glyph-name="y" unicode="y" horiz-adv-x="879" 
d="M867 1038l-374 -1281q-20 -67 -58 -109t-97 -61.5t-142 -19.5h-52v222h53q56 0 87.5 23t47.5 77l312 1149h223zM37 1038h223l272 -900l-125 -230z" />
    <glyph glyph-name="z" unicode="z" horiz-adv-x="868" 
d="M763 843l-406 -630h433v-213h-694v200l419 626h-405v212h653v-195z" />
    <glyph glyph-name="braceleft" unicode="{" horiz-adv-x="628" 
d="M102 757q65 0 100.5 32.5t35.5 92.5v458q0 167 93.5 258t264.5 91v-210q-66 0 -102.5 -35t-36.5 -99v-477q0 -150 -91.5 -226.5t-263.5 -76.5v192zM332 -302q-94 91 -94 257v460q0 59 -35.5 92t-100.5 33v191q173 0 264 -79.5t91 -235.5v-464q0 -64 36 -99.5t103 -35.5
v-210q-170 0 -264 91z" />
    <glyph glyph-name="bar" unicode="|" horiz-adv-x="477" 
d="M126 1626h225v-1798h-225v1798z" />
    <glyph glyph-name="braceright" unicode="}" horiz-adv-x="628" 
d="M262.5 639.5q-91.5 77.5 -91.5 228.5v477q0 64 -36 99t-103 35v210q171 0 264.5 -91t93.5 -258v-456q0 -59 35.5 -92t100.5 -33v-197q-172 0 -263.5 77.5zM32 -183q67 0 103 35.5t36 99.5v464q0 157 91.5 237.5t263.5 80.5v-197q-65 0 -100.5 -33t-35.5 -92v-457
q0 -166 -93.5 -257t-264.5 -91v210z" />
    <glyph glyph-name="asciitilde" unicode="~" horiz-adv-x="855" 
d="M511 531.5q-34 12.5 -71 35.5l-16 9q-30 19 -50 28t-41 9q-27 0 -40 -18t-13 -54v-22h-196v50q0 135 48 203.5t142 68.5q42 0 75.5 -12t70.5 -34l4 -2l4 -2q3 -2 5 -3t4 -3q31 -17 49.5 -25t38.5 -8q28 0 41.5 20t13.5 59v22h195v-48q0 -141 -48 -213.5t-142 -72.5
q-40 0 -74 12.5z" />
    <glyph glyph-name="uni00A0" unicode="&#xa0;" horiz-adv-x="325" 
 />
    <glyph glyph-name="exclamdown" unicode="&#xa1;" horiz-adv-x="425" 
d="M98 651h229v-1067h-229v1067zM327 1038v-229h-229v229h229z" />
    <glyph glyph-name="cent" unicode="&#xa2;" horiz-adv-x="876" 
d="M275 28.5q-85 43.5 -129 127t-44 203.5v315q0 122 44 206.5t129 128.5t206 44q101 0 172.5 -30.5t115 -93t57.5 -156.5v0l-213 -67v0q-12 71 -46.5 107t-87.5 36q-72 0 -110 -45t-38 -130v-315q0 -87 38 -133.5t110 -46.5q54 0 88 36t47 107v0l212 -66v0
q-14 -92 -57 -151.5t-115 -89.5t-173 -30q-121 0 -206 43.5zM360 1215h227v-1392h-227v1392z" />
    <glyph glyph-name="sterling" unicode="&#xa3;" horiz-adv-x="1035" 
d="M163 263.5q30 44.5 30 128.5v695q0 121 45.5 206.5t133 130.5t209.5 45q123 0 210.5 -47t133 -137.5t45.5 -217.5v-60h-229v58q0 88 -41.5 136t-115.5 48q-77 0 -119.5 -47.5t-42.5 -134.5v-675q0 -116 -89.5 -177.5t-255.5 -61.5v66q56 0 86 44.5zM970 0h-900v219h900
v-219zM750 717v-166h-658v166h658z" />
    <glyph glyph-name="currency" unicode="&#xa4;" horiz-adv-x="1079" 
d="M339.5 333q-83.5 49 -127.5 144t-44 229q0 133 44 227t127 143.5t201 49.5q117 0 200.5 -49t127.5 -144t44 -229q0 -198 -96.5 -306.5t-275.5 -111.5q-117 -2 -200.5 47zM658.5 542q42.5 58 42.5 162q0 107 -42.5 166t-119.5 59t-119 -58.5t-42 -166.5q0 -105 42 -162.5
t119 -57.5t119.5 58zM77 370l187 186l162 -158l-187 -188zM77 1040l162 161l195 -197l-168 -151zM637 415l166 152l199 -197l-162 -160zM655 1014l185 187l162 -161l-200 -199z" />
    <glyph glyph-name="yen" unicode="&#xa5;" horiz-adv-x="875" 
d="M118 502h639v-126h-639v126zM118 273h639v-125h-639v125zM555 579v-579h-229v579l-359 875h242l231 -627l227 627h241z" />
    <glyph glyph-name="brokenbar" unicode="&#xa6;" horiz-adv-x="477" 
d="M126 1626h225v-723h-225v723zM126 530h225v-702h-225v702z" />
    <glyph glyph-name="section" unicode="&#xa7;" horiz-adv-x="1066" 
d="M537 451q108 2 169.5 43t61.5 110q0 49 -24 80t-63.5 49t-99.5 32q-14 5 -28.5 9.5t-29.5 8.5q-120 29 -195 59.5t-128 101.5t-53 196q0 102 45.5 176t132 113.5t204.5 39.5q91 0 169 -26.5t134.5 -75.5t85.5 -115l-180 -90q-35 45 -90 70.5t-117 25.5q-78 0 -122 -32
t-44 -87q0 -50 30.5 -80t77 -46.5t128.5 -35.5l40 -10t40 -11q92 -24 157 -59.5t107 -103t42 -176.5q0 -91 -41.5 -161t-119 -112.5t-184.5 -54.5zM333.5 -177.5q-81.5 27.5 -139 79t-84.5 121.5l174 94q37 -53 98.5 -83.5t133.5 -30.5q91 0 142 31.5t51 85.5q0 46 -28 74.5
t-73 45.5t-119 34l-44 9l-16 4t-17 4q-99 25 -169 59t-116 101.5t-46 177.5q0 99 46 171t132.5 112.5t205.5 44.5l93 -177q-7 1 -14 2.5t-14 2.5q-6 1 -12 1.5t-12 0.5q-97 0 -151 -39t-54 -110q0 -47 26 -77t68 -46.5t109 -33.5l12 -3q10 -2 20.5 -4.5t20.5 -4.5
q114 -25 190 -58.5t128 -103.5t52 -189q0 -100 -50 -173t-143.5 -111.5t-222.5 -38.5q-96 0 -177.5 27.5z" />
    <glyph glyph-name="dieresis" unicode="&#xa8;" horiz-adv-x="665" 
d="M412 1469h229v-229h-229v229zM26 1469h228v-229h-228v229z" />
    <glyph glyph-name="copyright" unicode="&#xa9;" horiz-adv-x="1310" 
d="M351 402.5q-126 63.5 -192.5 184.5t-66.5 291v149q0 173 66 295.5t192.5 187t304.5 64.5t304.5 -64.5t192.5 -187t66 -295.5v-149q0 -170 -66 -291t-192.5 -184.5t-304.5 -63.5t-304 63.5zM461 702.5q-73 71.5 -73 201.5v118q0 128 73 199t205 71q102 0 162 -49t76 -146
v0l-164 -61v0q-10 38 -30 57.5t-49 19.5q-38 0 -59 -24t-21 -67v-118q0 -47 21 -71.5t59 -24.5q30 0 51 20.5t32 62.5v0l165 -61v0q-17 -99 -78.5 -149t-164.5 -50q-132 0 -205 71.5zM862.5 556q86.5 43 132 125.5t45.5 196.5v149q0 120 -45.5 205.5t-132 130.5t-207.5 45
t-207.5 -45t-131.5 -130.5t-45 -205.5v-149q0 -115 45.5 -197t131.5 -125t207 -43t207.5 43z" />
    <glyph glyph-name="ordfeminine" unicode="&#xaa;" horiz-adv-x="640" 
d="M399 1230q0 33 -20.5 52t-54.5 19q-32 0 -51.5 -10.5t-33.5 -36.5l-141 50q23 85 82.5 121t150.5 36q112 0 174.5 -54.5t62.5 -160.5v-415h-169v399zM126 874q-49 50 -49 141q0 89 58 138t163 49h118l6 -134h-105q-34 0 -52.5 -15t-18.5 -43q0 -26 17 -41t48 -15
q43 0 65.5 18.5t22.5 52.5l21 -122q-22 -37 -63 -58t-92 -21q-90 0 -139 50z" />
    <glyph glyph-name="guillemotleft" unicode="&#xab;" horiz-adv-x="955" 
d="M678 878h249l-232 -358h-250zM32 520h251l232 -357h-250zM265 878h250l-232 -358h-251zM445 520h250l232 -357h-249z" />
    <glyph glyph-name="logicalnot" unicode="&#xac;" horiz-adv-x="895" 
d="M87 869h726v-217h-726v217zM587 806h226v-375h-226v375z" />
    <glyph glyph-name="uni00AD" unicode="&#xad;" horiz-adv-x="857" 
d="M735 631v-219h-608v219h608z" />
    <glyph glyph-name="registered" unicode="&#xae;" horiz-adv-x="1310" 
d="M351 402.5q-126 63.5 -192.5 184.5t-66.5 291v149q0 173 66 296t192.5 187t304.5 64t304.5 -64t192.5 -187t66 -296v-149q0 -170 -66 -291t-192.5 -184.5t-304.5 -63.5t-304 63.5zM430 1271h166v-623h-166v623zM628 891l142 66l154 -308h-185zM862 556q86 43 131.5 125
t45.5 197v149q0 120 -45 205.5t-131 130.5t-208 45q-121 0 -207 -45t-131.5 -130.5t-45.5 -205.5v-149q0 -115 45.5 -197t132 -125t206.5 -43q121 0 207 43zM530 981h142q31 0 50 19t19 54t-19 53.5t-50 18.5h-142v145h147q110 0 169 -59.5t59 -157.5t-60 -158t-168 -60
h-147v145z" />
    <glyph glyph-name="macron" unicode="&#xaf;" horiz-adv-x="710" 
d="M670 1449v-227h-630v227h630z" />
    <glyph glyph-name="degree" unicode="&#xb0;" horiz-adv-x="651" 
d="M120.5 947.5q-68.5 74.5 -68.5 223.5q0 150 68.5 224t205.5 74q136 0 204.5 -74.5t68.5 -224.5q0 -148 -68.5 -222.5t-204.5 -74.5q-137 0 -205.5 74.5zM390 1077.5q22 31.5 22 95.5q0 61 -22 91.5t-65 30.5t-64.5 -30.5t-21.5 -93.5t21.5 -94t64.5 -31t65 31.5z" />
    <glyph glyph-name="plusminus" unicode="&#xb1;" horiz-adv-x="877" 
d="M795 846v-197h-708v197h708zM550 335h-218v756h218v-756zM795 452v-197h-708v197h708z" />
    <glyph glyph-name="uni00B2" unicode="&#xb2;" horiz-adv-x="585" 
d="M94 983l117 104l7 7t7 6q40 36 63 62.5t35 50t12 48.5v10q0 22 -9.5 33.5t-28.5 11.5q-23 0 -34.5 -19.5t-12.5 -60.5v0h-177v0q3 114 57.5 169.5t163.5 55.5q110 0 166.5 -46.5t56.5 -137.5v-7q0 -53 -26 -101.5t-86 -109.5l-69 -68h181v-160h-423v152z" />
    <glyph glyph-name="uni00B3" unicode="&#xb3;" horiz-adv-x="598" 
d="M171.5 848.5q-50.5 24.5 -75.5 74.5t-25 127v0h174v0q0 -42 13.5 -62t41.5 -20q25 0 38 12.5t13 37.5v19q0 26 -17.5 39.5t-52.5 13.5h-28v116h28q29 0 44.5 12.5t15.5 36.5v16q0 22 -11 34t-32 12q-25 0 -37 -17.5t-12 -54.5v0h-176v0q0 74 25 121.5t75 71t127 23.5
q110 0 166 -41.5t56 -121.5v-27q0 -45 -24.5 -76t-73.5 -47q53 -8 80.5 -38t27.5 -82v-28q0 -88 -58.5 -132t-173.5 -44q-78 0 -128.5 24.5z" />
    <glyph glyph-name="acute" unicode="&#xb4;" horiz-adv-x="498" 
d="M33 1321l266 355l166 -134l-285 -336z" />
    <glyph glyph-name="mu" unicode="&#xb5;" horiz-adv-x="1042" 
d="M127 1041h229v-854l-9 -6l9 -461h-229v1321zM412 5.5q-37 20.5 -56.5 59.5t-20.5 95l21 170q0 -68 36.5 -103.5t105.5 -35.5q68 0 105 37t37 105l49 -173q-7 -85 -56.5 -130t-131.5 -45q-52 0 -89 20.5zM708.5 67q-68.5 69 -68.5 196v775h229v-724q0 -47 20.5 -73
t59.5 -26h61v-217h-108q-125 0 -193.5 69z" />
    <glyph glyph-name="paragraph" unicode="&#xb6;" horiz-adv-x="1232" 
d="M245.5 569q-94.5 58 -145 165t-50.5 248q0 142 50.5 249t144.5 165t223 58h215v-943h-215q-128 0 -222.5 58zM528 1454h219v-1690h-219v1690zM872 1454h220v-1690h-220v1690zM599 1454h593v-209h-593v209z" />
    <glyph glyph-name="periodcentered" unicode="&#xb7;" horiz-adv-x="375" 
d="M72 644h231v-231h-231v231z" />
    <glyph glyph-name="cedilla" unicode="&#xb8;" horiz-adv-x="488" 
d="M38 -404l41 145q48 -14 95 -14q41 0 61.5 11.5t20.5 34.5q0 24 -32 36t-96 12l92 116q113 0 171.5 -45t58.5 -134t-64 -134.5t-188 -45.5q-96 0 -160 18zM116 91h180v-270h-180v270z" />
    <glyph glyph-name="uni00B9" unicode="&#xb9;" horiz-adv-x="462" 
d="M390 831h-186v411l-127 -65v204l147 73h166v-623z" />
    <glyph glyph-name="ordmasculine" unicode="&#xba;" horiz-adv-x="645" 
d="M142 887q-65 63 -65 177v160q0 113 64.5 175t183.5 62t183.5 -62.5t64.5 -175.5v-159q0 -114 -64.5 -177t-183.5 -63q-118 0 -183 63zM371 1013.5q16 19.5 16 55.5v153q0 33 -16 51t-46 18t-46 -18t-16 -53v-151q0 -36 16 -55.5t46 -19.5t46 19.5z" />
    <glyph glyph-name="guillemotright" unicode="&#xbb;" horiz-adv-x="955" 
d="M440 878h250l232 -358h-249zM260 520h250l-232 -357h-251zM27 878h251l232 -358h-250zM673 520h249l-232 -357h-250z" />
    <glyph glyph-name="onequarter" unicode="&#xbc;" horiz-adv-x="1306" 
d="M874 1454h198l-699 -1454h-198zM758 219l142 404h179l-137 -404h284v-144h-468v144zM1036 348h161v-348h-161v348zM392 831h-186v411l-126 -65v204l147 73h165v-623z" />
    <glyph glyph-name="onehalf" unicode="&#xbd;" horiz-adv-x="1289" 
d="M866 1454h197l-697 -1454h-198zM392 831h-186v411l-126 -65v204l147 73h165v-623zM786 152l117 105q4 3 7.5 6t6.5 7q40 35 63.5 61.5t35 50.5t11.5 48v10q0 23 -9.5 34t-28.5 11q-22 0 -33.5 -15t-13.5 -45v-20h-177v12q4 105 59.5 159t161.5 54q110 0 166.5 -46.5
t56.5 -137.5v-7q0 -53 -26 -101.5t-86 -109.5l-69 -68h181v-160h-423v152z" />
    <glyph glyph-name="threequarters" unicode="&#xbe;" horiz-adv-x="1346" 
d="M934 1454h198l-698 -1454h-198zM798 219l142 404h179l-137 -404h284v-144h-468v144zM1076 348h161v-348h-161v348zM138 875q-58 51 -58 150v25h172v-20q0 -30 14.5 -46t41.5 -16q26 0 39 12.5t13 37.5v19q0 26 -17.5 39.5t-52.5 13.5h-28v116h28q29 0 44.5 12.5
t15.5 36.5v16q0 22 -10.5 34t-32.5 12q-25 0 -38 -14.5t-13 -42.5v-15h-174v15q0 100 57.5 150.5t169.5 50.5q110 0 166 -41t56 -121v-28q0 -45 -25 -76t-74 -47q54 -8 81.5 -38t27.5 -82v-28q0 -87 -58.5 -131.5t-173.5 -44.5q-113 0 -171 51z" />
    <glyph glyph-name="questiondown" unicode="&#xbf;" horiz-adv-x="778" 
d="M228 -381q-81 41 -123 119.5t-42 188.5v4q0 73 16 129t39 97t63 97q44 63 70.5 111t45 121t18.5 172h228q0 -115 -21 -200.5t-50.5 -141t-76.5 -126.5q-34 -51 -53 -85t-32 -75.5t-13 -91.5v-4q0 -69 32.5 -107t91.5 -38t91.5 43t32.5 120v44h235v-44q-2 -118 -45 -202
t-122.5 -128t-189.5 -44q-114 0 -195 41zM546 818h-229v229h229v-229z" />
    <glyph glyph-name="Agrave" unicode="&#xc0;" horiz-adv-x="1116" 
d="M471 1454h174l444 -1454h-241l-290 1069l-289 -1069h-242zM269 491h589v-217h-589v217zM246 1774l157 159l264 -252l-141 -137z" />
    <glyph glyph-name="Aacute" unicode="&#xc1;" horiz-adv-x="1116" 
d="M471 1454h174l444 -1454h-241l-290 1069l-289 -1069h-242zM269 491h589v-217h-589v217zM444 1684l262 252l160 -160l-284 -229z" />
    <glyph glyph-name="Acircumflex" unicode="&#xc2;" horiz-adv-x="1116" 
d="M471 1454h174l444 -1454h-241l-290 1069l-289 -1069h-242zM269 491h589v-217h-589v217zM874 1677l-137 -125l-181 148l-181 -148l-137 125l318 255z" />
    <glyph glyph-name="Atilde" unicode="&#xc3;" horiz-adv-x="1116" 
d="M471 1454h174l444 -1454h-241l-290 1069l-289 -1069h-242zM269 491h589v-217h-589v217zM670 1567q-24 5 -44.5 14t-43.5 21l-2 1q-6 3 -11.5 6t-10.5 6q-31 18 -52.5 27t-44.5 9q-28 0 -41.5 -15.5t-13.5 -46.5v-28h-180v48q0 124 46.5 187t135.5 63q41 0 74.5 -11.5
t74.5 -31.5l2 -2q5 -2 9.5 -4t8.5 -5q30 -16 48.5 -24t37.5 -8q28 0 42.5 17.5t14.5 51.5v25h180v-47q0 -128 -45.5 -193t-134.5 -65q-26 0 -50 5z" />
    <glyph glyph-name="Adieresis" unicode="&#xc4;" horiz-adv-x="1116" 
d="M471 1454h174l444 -1454h-241l-290 1069l-289 -1069h-242zM269 491h589v-217h-589v217zM643 1802h228v-228h-228v228zM245 1802h228v-228h-228v228z" />
    <glyph glyph-name="Aring" unicode="&#xc5;" horiz-adv-x="1116" 
d="M374.5 1472.5q-63.5 62.5 -63.5 180.5q0 123 63.5 188t183.5 65q119 0 183 -66t64 -187q0 -118 -64 -180.5t-183 -62.5q-120 0 -183.5 62.5zM619.5 1587q21.5 25 21.5 70q0 47 -21.5 72.5t-61.5 25.5t-61.5 -25.5t-21.5 -72.5q0 -45 21.5 -70t61.5 -25t61.5 25zM471 1454
h174l444 -1454h-241l-290 1069l-289 -1069h-242zM269 491h589v-217h-589v217z" />
    <glyph glyph-name="AE" unicode="&#xc6;" horiz-adv-x="1580" 
d="M567 1454h211l-549 -1454h-242zM299 488h556v-216h-556v216zM713 1454h229v-1454h-229v1454zM815 220h693v-220h-693v220zM815 832h613v-220h-613v220zM815 1454h693v-220h-693v220z" />
    <glyph glyph-name="Ccedilla" unicode="&#xc7;" horiz-adv-x="1062" 
d="M317 39.5q-97 54.5 -148.5 157t-51.5 244.5v571q0 142 51.5 245t148.5 157.5t230 54.5q130 0 222 -52t143.5 -155.5t61.5 -256.5v0h-234v0q-6 78 -31 130.5t-66 79.5t-96 27q-60 0 -104 -28t-68 -79.5t-24 -122.5v-571q0 -71 24 -122.5t68 -79t104 -27.5q56 0 96.5 26.5
t65.5 79t31 131.5v0h234v0q-10 -153 -61.5 -256.5t-143.5 -155.5t-222 -52q-133 0 -230 54.5zM366 -404l41 146q45 -14 91 -14q44 0 66.5 11t22.5 34q0 24 -34 36t-101 12l92 116q117 0 177 -45t60 -133q0 -90 -65.5 -135.5t-192.5 -45.5q-92 0 -157 18zM621 61v-242l-181 2
v240h181z" />
    <glyph glyph-name="Egrave" unicode="&#xc8;" horiz-adv-x="999" 
d="M132 1454h229v-1454h-229v1454zM234 220h693v-220h-693v220zM234 832h613v-220h-613v220zM234 1454h693v-220h-693v220zM234 1774l157 159l264 -252l-141 -137z" />
    <glyph glyph-name="Eacute" unicode="&#xc9;" horiz-adv-x="999" 
d="M132 1454h229v-1454h-229v1454zM234 220h693v-220h-693v220zM234 832h613v-220h-613v220zM234 1454h693v-220h-693v220zM431 1684l262 252l160 -160l-284 -229z" />
    <glyph glyph-name="Ecircumflex" unicode="&#xca;" horiz-adv-x="999" 
d="M132 1454h229v-1454h-229v1454zM234 220h693v-220h-693v220zM234 832h613v-220h-613v220zM234 1454h693v-220h-693v220zM862 1677l-137 -125l-181 148l-181 -148l-137 125l318 255z" />
    <glyph glyph-name="Edieresis" unicode="&#xcb;" horiz-adv-x="999" 
d="M132 1454h229v-1454h-229v1454zM234 220h693v-220h-693v220zM234 832h613v-220h-613v220zM234 1454h693v-220h-693v220zM631 1802h228v-228h-228v228zM233 1802h228v-228h-228v228z" />
    <glyph glyph-name="Igrave" unicode="&#xcc;" horiz-adv-x="475" 
d="M353 0h-231v1454h231v-1454zM-74 1774l157 159l264 -252l-141 -137z" />
    <glyph glyph-name="Iacute" unicode="&#xcd;" horiz-adv-x="475" 
d="M353 0h-231v1454h231v-1454zM123 1684l262 252l160 -160l-284 -229z" />
    <glyph glyph-name="Icircumflex" unicode="&#xce;" horiz-adv-x="475" 
d="M353 0h-231v1454h231v-1454zM554 1677l-137 -125l-181 148l-181 -148l-137 125l318 255z" />
    <glyph glyph-name="Idieresis" unicode="&#xcf;" horiz-adv-x="475" 
d="M353 0h-231v1454h231v-1454zM323 1802h228v-228h-228v228zM-75 1802h228v-228h-228v228z" />
    <glyph glyph-name="Eth" unicode="&#xd0;" horiz-adv-x="1149" 
d="M308 219h282q100 0 154 52.5t54 148.5v614q0 96 -54 148.5t-154 52.5h-282v219h284q139 0 238 -49t150.5 -143t51.5 -226v-618q0 -130 -51 -224t-150 -144t-240 -50h-283v219zM167 1454h229v-1454h-229v1454zM611 830v-205h-575v205h575z" />
    <glyph glyph-name="Ntilde" unicode="&#xd1;" horiz-adv-x="1174" 
d="M132 1454h221l498 -1081l-27 -29v1110h218v-1453h-222l-496 1050l26 29v-1079h-218v1453zM714 1567q-24 5 -44.5 14t-43.5 21l-2 1q-6 3 -11.5 6t-10.5 6q-31 18 -52.5 27t-44.5 9q-28 0 -41.5 -15.5t-13.5 -46.5v-28h-180v48q0 124 46.5 187t135.5 63q41 0 74.5 -11.5
t74.5 -31.5l2 -2q5 -2 9.5 -4t8.5 -5q30 -16 48.5 -24t37.5 -8q28 0 42.5 17.5t14.5 51.5v25h180v-47q0 -128 -45.5 -193t-134.5 -65q-26 0 -50 5z" />
    <glyph glyph-name="Ograve" unicode="&#xd2;" horiz-adv-x="1122" 
d="M325.5 39q-100.5 54 -154.5 154.5t-54 236.5v594q0 136 54 236.5t154.5 154.5t235.5 54t235.5 -54t154.5 -154.5t54 -236.5v-594q0 -136 -54 -236.5t-154.5 -154.5t-235.5 -54t-235.5 54zM672.5 239q47.5 27 73 77t25.5 117v589q0 67 -25.5 117t-73 76.5t-111.5 26.5
t-111.5 -26.5t-73 -76.5t-25.5 -117v-589q0 -67 25.5 -117t73 -77t111.5 -27t111.5 27zM249 1774l157 159l264 -252l-141 -137z" />
    <glyph glyph-name="Oacute" unicode="&#xd3;" horiz-adv-x="1122" 
d="M325.5 39q-100.5 54 -154.5 154.5t-54 236.5v594q0 136 54 236.5t154.5 154.5t235.5 54t235.5 -54t154.5 -154.5t54 -236.5v-594q0 -136 -54 -236.5t-154.5 -154.5t-235.5 -54t-235.5 54zM672.5 239q47.5 27 73 77t25.5 117v589q0 67 -25.5 117t-73 76.5t-111.5 26.5
t-111.5 -26.5t-73 -76.5t-25.5 -117v-589q0 -67 25.5 -117t73 -77t111.5 -27t111.5 27zM447 1684l262 252l160 -160l-284 -229z" />
    <glyph glyph-name="Ocircumflex" unicode="&#xd4;" horiz-adv-x="1122" 
d="M325.5 39q-100.5 54 -154.5 154.5t-54 236.5v594q0 136 54 236.5t154.5 154.5t235.5 54t235.5 -54t154.5 -154.5t54 -236.5v-594q0 -136 -54 -236.5t-154.5 -154.5t-235.5 -54t-235.5 54zM672.5 239q47.5 27 73 77t25.5 117v589q0 67 -25.5 117t-73 76.5t-111.5 26.5
t-111.5 -26.5t-73 -76.5t-25.5 -117v-589q0 -67 25.5 -117t73 -77t111.5 -27t111.5 27zM877 1677l-137 -125l-181 148l-181 -148l-137 125l318 255z" />
    <glyph glyph-name="Otilde" unicode="&#xd5;" horiz-adv-x="1122" 
d="M325.5 39q-100.5 54 -154.5 154.5t-54 236.5v594q0 136 54 236.5t154.5 154.5t235.5 54t235.5 -54t154.5 -154.5t54 -236.5v-594q0 -136 -54 -236.5t-154.5 -154.5t-235.5 -54t-235.5 54zM672.5 239q47.5 27 73 77t25.5 117v589q0 67 -25.5 117t-73 76.5t-111.5 26.5
t-111.5 -26.5t-73 -76.5t-25.5 -117v-589q0 -67 25.5 -117t73 -77t111.5 -27t111.5 27zM673 1567q-24 5 -44.5 14t-43.5 21l-2 1q-6 3 -11.5 6t-10.5 6q-31 18 -52.5 27t-44.5 9q-28 0 -41.5 -15.5t-13.5 -46.5v-28h-180v48q0 124 46.5 187t135.5 63q41 0 74.5 -11.5
t74.5 -31.5l2 -2q5 -2 9.5 -4t8.5 -5q30 -16 48.5 -24t37.5 -8q28 0 42.5 17.5t14.5 51.5v25h180v-47q0 -128 -45.5 -193t-134.5 -65q-26 0 -50 5z" />
    <glyph glyph-name="Odieresis" unicode="&#xd6;" horiz-adv-x="1122" 
d="M325.5 39q-100.5 54 -154.5 154.5t-54 236.5v594q0 136 54 236.5t154.5 154.5t235.5 54t235.5 -54t154.5 -154.5t54 -236.5v-594q0 -136 -54 -236.5t-154.5 -154.5t-235.5 -54t-235.5 54zM672.5 239q47.5 27 73 77t25.5 117v589q0 67 -25.5 117t-73 76.5t-111.5 26.5
t-111.5 -26.5t-73 -76.5t-25.5 -117v-589q0 -67 25.5 -117t73 -77t111.5 -27t111.5 27zM646 1802h228v-228h-228v228zM248 1802h228v-228h-228v228z" />
    <glyph glyph-name="multiply" unicode="&#xd7;" horiz-adv-x="876" 
d="M90 424l549 623l155 -137l-548 -625zM88 913l150 134l555 -622l-150 -133z" />
    <glyph glyph-name="Oslash" unicode="&#xd8;" horiz-adv-x="1122" 
d="M795 1597h155l-614 -1728h-155zM325.5 39q-100.5 54 -154.5 154.5t-54 236.5v594q0 136 54 236.5t154.5 154.5t235.5 54t235.5 -54t154.5 -154.5t54 -236.5v-594q0 -136 -54 -236.5t-154.5 -154.5t-235.5 -54t-235.5 54zM672.5 239q47.5 27 73 77t25.5 117v589
q0 67 -25.5 117t-73 76.5t-111.5 26.5t-111.5 -26.5t-73 -76.5t-25.5 -117v-589q0 -67 25.5 -117t73 -77t111.5 -27t111.5 27z" />
    <glyph glyph-name="Ugrave" unicode="&#xd9;" horiz-adv-x="1092" 
d="M312.5 37.5q-96.5 52.5 -146.5 153t-50 242.5v1021h229v-1028q0 -103 52.5 -159t147.5 -56q97 0 149.5 56t52.5 159v1028h229v-1021q0 -142 -50.5 -242.5t-147 -153t-233.5 -52.5q-136 0 -232.5 52.5zM233 1774l157 159l264 -252l-141 -137z" />
    <glyph glyph-name="Uacute" unicode="&#xda;" horiz-adv-x="1092" 
d="M312.5 37.5q-96.5 52.5 -146.5 153t-50 242.5v1021h229v-1028q0 -103 52.5 -159t147.5 -56q97 0 149.5 56t52.5 159v1028h229v-1021q0 -142 -50.5 -242.5t-147 -153t-233.5 -52.5q-136 0 -232.5 52.5zM431 1684l262 252l160 -160l-284 -229z" />
    <glyph glyph-name="Ucircumflex" unicode="&#xdb;" horiz-adv-x="1092" 
d="M312.5 37.5q-96.5 52.5 -146.5 153t-50 242.5v1021h229v-1028q0 -103 52.5 -159t147.5 -56q97 0 149.5 56t52.5 159v1028h229v-1021q0 -142 -50.5 -242.5t-147 -153t-233.5 -52.5q-136 0 -232.5 52.5zM861 1677l-137 -125l-181 148l-181 -148l-137 125l318 255z" />
    <glyph glyph-name="Udieresis" unicode="&#xdc;" horiz-adv-x="1092" 
d="M312.5 37.5q-96.5 52.5 -146.5 153t-50 242.5v1021h229v-1028q0 -103 52.5 -159t147.5 -56q97 0 149.5 56t52.5 159v1028h229v-1021q0 -142 -50.5 -242.5t-147 -153t-233.5 -52.5q-136 0 -232.5 52.5zM630 1802h228v-228h-228v228zM232 1802h228v-228h-228v228z" />
    <glyph glyph-name="Yacute" unicode="&#xdd;" horiz-adv-x="875" 
d="M555 579v-579h-229v579l-359 875h242l231 -627l227 627h241zM323 1684l262 252l160 -160l-284 -229z" />
    <glyph glyph-name="Thorn" unicode="&#xde;" horiz-adv-x="1070" 
d="M248 525h349q46 0 80.5 21t53 61t18.5 93v95q0 55 -18.5 95t-53 62t-80.5 22h-349v220h345q119 0 207 -47t135.5 -134.5t47.5 -206.5v-119q0 -117 -47.5 -203.5t-135.5 -133t-207 -46.5h-345v221zM132 1454h229v-1454h-229v1454z" />
    <glyph glyph-name="germandbls" unicode="&#xdf;" horiz-adv-x="995" 
d="M127 1110q0 114 44.5 194.5t128.5 122.5t203 42q117 0 200 -38t126 -110.5t43 -174.5v-70q0 -88 -43.5 -142t-124.5 -71q80 -15 124 -71t44 -141v-411q0 -122 -85 -188.5t-241 -66.5h-51v221h51q46 0 71.5 23.5t25.5 65.5v366q0 42 -25.5 65t-71.5 23h-51v221h51
q47 0 72 27t25 78v64q0 57 -35 88.5t-99 31.5q-72 0 -112.5 -41t-40.5 -116v-1102h-229v1110z" />
    <glyph glyph-name="agrave" unicode="&#xe0;" horiz-adv-x="963" 
d="M625 705q0 70 -39.5 108t-112.5 38q-52 0 -93 -24t-64 -67l-185 67q30 108 120 168t224 60q115 0 197 -41t125 -118t43 -186v-710h-215v705zM170.5 62q-75.5 77 -75.5 231q0 162 87 244t259 82h191l14 -185h-201q-68 0 -102 -35.5t-34 -105.5q0 -59 35 -88t106 -29
q87 0 131 29.5t44 89.5l20 -120q-9 -63 -42 -105t-85.5 -63.5t-120.5 -21.5q-151 0 -226.5 77zM173 1542l166 133l266 -355l-147 -114z" />
    <glyph glyph-name="aacute" unicode="&#xe1;" horiz-adv-x="963" 
d="M625 705q0 70 -39.5 108t-112.5 38q-52 0 -93 -24t-64 -67l-185 67q30 108 120 168t224 60q115 0 197 -41t125 -118t43 -186v-710h-215v705zM170.5 62q-75.5 77 -75.5 231q0 162 87 244t259 82h191l14 -185h-201q-68 0 -102 -35.5t-34 -105.5q0 -59 35 -88t106 -29
q87 0 131 29.5t44 89.5l20 -120q-9 -63 -42 -105t-85.5 -63.5t-120.5 -21.5q-151 0 -226.5 77zM354 1321l266 355l166 -134l-285 -336z" />
    <glyph glyph-name="acircumflex" unicode="&#xe2;" horiz-adv-x="963" 
d="M625 705q0 70 -39.5 108t-112.5 38q-52 0 -93 -24t-64 -67l-185 67q30 108 120 168t224 60q115 0 197 -41t125 -118t43 -186v-710h-215v705zM170.5 62q-75.5 77 -75.5 231q0 162 87 244t259 82h191l14 -185h-201q-68 0 -102 -35.5t-34 -105.5q0 -59 35 -88t106 -29
q87 0 131 29.5t44 89.5l20 -120q-9 -63 -42 -105t-85.5 -63.5t-120.5 -21.5q-151 0 -226.5 77zM787 1324l-130 -118l-175 184l-175 -184l-131 118l306 316z" />
    <glyph glyph-name="atilde" unicode="&#xe3;" horiz-adv-x="963" 
d="M625 705q0 70 -39.5 108t-112.5 38q-52 0 -93 -24t-64 -67l-185 67q30 108 120 168t224 60q115 0 197 -41t125 -118t43 -186v-710h-215v705zM170.5 62q-75.5 77 -75.5 231q0 162 87 244t259 82h191l14 -185h-201q-68 0 -102 -35.5t-34 -105.5q0 -59 35 -88t106 -29
q87 0 131 29.5t44 89.5l20 -120q-9 -63 -42 -105t-85.5 -63.5t-120.5 -21.5q-151 0 -226.5 77zM563.5 1232q-27.5 9 -59.5 28l-8 5q-4 3 -9 6.5t-9 5.5q-30 19 -50 28t-40 9q-28 0 -40.5 -13t-12.5 -41v-38h-175v55q0 124 46 185t139 61q32 0 61.5 -10.5t61.5 -30.5l9 -5
l15 -9q28 -17 46.5 -25.5t35.5 -8.5q28 0 41.5 15t13.5 46v33h175v-52q0 -127 -45.5 -190t-137.5 -63q-30 0 -57.5 9z" />
    <glyph glyph-name="adieresis" unicode="&#xe4;" horiz-adv-x="963" 
d="M625 705q0 70 -39.5 108t-112.5 38q-52 0 -93 -24t-64 -67l-185 67q30 108 120 168t224 60q115 0 197 -41t125 -118t43 -186v-710h-215v705zM170.5 62q-75.5 77 -75.5 231q0 162 87 244t259 82h191l14 -185h-201q-68 0 -102 -35.5t-34 -105.5q0 -59 35 -88t106 -29
q87 0 131 29.5t44 89.5l20 -120q-9 -63 -42 -105t-85.5 -63.5t-120.5 -21.5q-151 0 -226.5 77zM561 1469h229v-229h-229v229zM175 1469h228v-229h-228v229z" />
    <glyph glyph-name="aring" unicode="&#xe5;" horiz-adv-x="963" 
d="M625 705q0 70 -39.5 108t-112.5 38q-52 0 -93 -24t-64 -67l-185 67q30 108 120 168t224 60q115 0 197 -41t125 -118t43 -186v-710h-215v705zM170.5 62q-75.5 77 -75.5 231q0 162 87 244t259 82h191l14 -185h-201q-68 0 -102 -35.5t-34 -105.5q0 -59 35 -88t106 -29
q87 0 131 29.5t44 89.5l20 -120q-9 -63 -42 -105t-85.5 -63.5t-120.5 -21.5q-151 0 -226.5 77zM300.5 1269.5q-62.5 62.5 -62.5 180.5q0 124 62.5 189t181.5 65q118 0 181 -66t63 -188q0 -118 -63 -180.5t-181 -62.5q-119 0 -181.5 62.5zM543 1382.5q21 25.5 21 71.5
q0 49 -21 75t-61 26t-61 -26t-21 -75q0 -47 21 -72t61 -25t61 25.5z" />
    <glyph glyph-name="ae" unicode="&#xe6;" horiz-adv-x="1475" 
d="M625 698q0 74 -40 115t-113 41q-51 0 -92 -25t-64 -69l-185 68q30 108 118.5 167.5t219.5 59.5q147 0 227 -87t80 -245v-433l-151 -6v414zM176.5 64q-81.5 79 -81.5 236q0 155 87 234.5t257 79.5h226l11 -173h-232q-68 0 -102 -35.5t-34 -105.5q0 -64 34 -95.5t103 -31.5
q59 0 99 24.5t59.5 65t19.5 89.5l102 19l32 -140q-32 -123 -116.5 -184.5t-221.5 -61.5q-161 0 -242.5 79zM848 31q-76 46 -116 134t-40 212v271q0 129 38 220t111 139t175 48q115 0 195.5 -52.5t123 -152.5t42.5 -241v-166h-585v169h373l-1 59q-5 87 -44.5 134.5
t-108.5 47.5q-78 0 -121.5 -54t-43.5 -153v-269q0 -91 47.5 -140.5t132.5 -49.5q54 0 97 24t67 68v11l175 -69v-9q-39 -108 -126.5 -167.5t-207.5 -59.5q-107 0 -183 46z" />
    <glyph glyph-name="ccedilla" unicode="&#xe7;" horiz-adv-x="896" 
d="M281 30q-87 45 -133 130.5t-46 206.5v301q0 122 46 209t133 132t210 45q104 0 177.5 -30.5t118 -93t59.5 -156.5v0l-211 -68v0q-14 67 -50 100.5t-93 33.5q-77 0 -119 -46.5t-42 -130.5v-291q0 -83 42 -128t119 -45q57 0 93.5 32.5t49.5 97.5v0l211 -72v0
q-14 -92 -58.5 -152.5t-118.5 -90t-178 -29.5q-123 0 -210 45zM287 -404l41 145q48 -14 95 -14q41 0 61.5 11.5t20.5 34.5q0 24 -32 36t-96 12l92 116q113 0 171.5 -45t58.5 -134t-64 -134.5t-188 -45.5q-96 0 -160 18zM365 91h180v-270h-180v270z" />
    <glyph glyph-name="egrave" unicode="&#xe8;" horiz-adv-x="950" 
d="M283 31.5q-88 46.5 -134.5 136t-46.5 216.5v252q0 132 45 226t130 143t206 49q116 0 199.5 -52.5t126.5 -153t43 -241.5v-177h-585v172h368v66q0 84 -41.5 132t-110.5 48q-79 0 -122 -52.5t-43 -148.5v-269q0 -88 45.5 -136.5t128.5 -48.5q57 0 94.5 27.5t54.5 79.5v0
l199 -70v0q-29 -121 -117 -183t-227 -62q-125 0 -213 46.5zM169 1542l166 133l266 -355l-147 -114z" />
    <glyph glyph-name="eacute" unicode="&#xe9;" horiz-adv-x="950" 
d="M283 31.5q-88 46.5 -134.5 136t-46.5 216.5v252q0 132 45 226t130 143t206 49q116 0 199.5 -52.5t126.5 -153t43 -241.5v-177h-585v172h368v66q0 84 -41.5 132t-110.5 48q-79 0 -122 -52.5t-43 -148.5v-269q0 -88 45.5 -136.5t128.5 -48.5q57 0 94.5 27.5t54.5 79.5v0
l199 -70v0q-29 -121 -117 -183t-227 -62q-125 0 -213 46.5zM350 1321l266 355l166 -134l-285 -336z" />
    <glyph glyph-name="ecircumflex" unicode="&#xea;" horiz-adv-x="950" 
d="M283 31.5q-88 46.5 -134.5 136t-46.5 216.5v252q0 132 45 226t130 143t206 49q116 0 199.5 -52.5t126.5 -153t43 -241.5v-177h-585v172h368v66q0 84 -41.5 132t-110.5 48q-79 0 -122 -52.5t-43 -148.5v-269q0 -88 45.5 -136.5t128.5 -48.5q57 0 94.5 27.5t54.5 79.5v0
l199 -70v0q-29 -121 -117 -183t-227 -62q-125 0 -213 46.5zM784 1324l-130 -118l-175 184l-175 -184l-131 118l306 316z" />
    <glyph glyph-name="edieresis" unicode="&#xeb;" horiz-adv-x="950" 
d="M283 31.5q-88 46.5 -134.5 136t-46.5 216.5v252q0 132 45 226t130 143t206 49q116 0 199.5 -52.5t126.5 -153t43 -241.5v-177h-585v172h368v66q0 84 -41.5 132t-110.5 48q-79 0 -122 -52.5t-43 -148.5v-269q0 -88 45.5 -136.5t128.5 -48.5q57 0 94.5 27.5t54.5 79.5v0
l199 -70v0q-29 -121 -117 -183t-227 -62q-125 0 -213 46.5zM557 1469h229v-229h-229v229zM171 1469h228v-229h-228v229z" />
    <glyph glyph-name="igrave" unicode="&#xec;" horiz-adv-x="460" 
d="M118 1038h229v-1038h-229v1038zM-76 1542l166 133l266 -355l-147 -114z" />
    <glyph glyph-name="iacute" unicode="&#xed;" horiz-adv-x="460" 
d="M118 1038h229v-1038h-229v1038zM105 1321l266 355l166 -134l-285 -336z" />
    <glyph glyph-name="icircumflex" unicode="&#xee;" horiz-adv-x="460" 
d="M118 1038h229v-1038h-229v1038zM538 1324l-130 -118l-175 184l-175 -184l-131 118l306 316z" />
    <glyph glyph-name="idieresis" unicode="&#xef;" horiz-adv-x="460" 
d="M118 1038h229v-1038h-229v1038zM312 1469h229v-229h-229v229zM-74 1469h228v-229h-228v229z" />
    <glyph glyph-name="eth" unicode="&#xf0;" horiz-adv-x="934" 
d="M613 725q1 130 -39 255t-119 241l-160 233h245l113 -183q80 -129 121.5 -277t41.5 -316zM816 678v-332q0 -112 -42.5 -193.5t-124 -124.5t-195.5 -43q-111 0 -190 42.5t-120.5 123.5t-41.5 195v335q0 117 35 201t101.5 128.5t160.5 44.5q79 0 137 -47t108 -142zM595 675
q0 173 -138 173q-67 0 -100 -43t-33 -128v-326q0 -160 133 -160q70 0 104 40.5t34 119.5v324zM760 1431l35 -164l-611 -119l-36 164z" />
    <glyph glyph-name="ntilde" unicode="&#xf1;" horiz-adv-x="999" 
d="M127 1038h230v-1038h-230v1038zM648 678q0 79 -38 120.5t-110 41.5q-70 0 -106.5 -40.5t-36.5 -116.5l-21 176q40 96 106 146t153 50q135 0 208.5 -90.5t73.5 -257.5v-707h-229v678zM578.5 1232q-27.5 9 -59.5 28l-8 5q-4 3 -9 6.5t-9 5.5q-30 19 -50 28t-40 9
q-28 0 -40.5 -13t-12.5 -41v-38h-175v55q0 124 46 185t139 61q32 0 61.5 -10.5t61.5 -30.5l9 -5l15 -9q28 -17 46.5 -25.5t35.5 -8.5q28 0 41.5 15t13.5 46v33h175v-52q0 -127 -45.5 -190t-137.5 -63q-30 0 -57.5 9z" />
    <glyph glyph-name="ograve" unicode="&#xf2;" horiz-adv-x="946" 
d="M273 29q-83 44 -127 127.5t-44 200.5v331q0 116 44 198.5t127 125.5t201 43q117 0 200 -43t126.5 -125.5t43.5 -198.5v-334q0 -116 -43.5 -199t-126.5 -126.5t-200 -43.5q-118 0 -201 44zM578.5 243.5q37.5 41.5 37.5 117.5v320q0 75 -37.5 116t-105.5 41q-67 0 -105 -41
t-38 -116v-320q0 -76 37.5 -117.5t105.5 -41.5t105.5 41.5zM164 1542l166 133l266 -355l-147 -114z" />
    <glyph glyph-name="oacute" unicode="&#xf3;" horiz-adv-x="946" 
d="M273 29q-83 44 -127 127.5t-44 200.5v331q0 116 44 198.5t127 125.5t201 43q117 0 200 -43t126.5 -125.5t43.5 -198.5v-334q0 -116 -43.5 -199t-126.5 -126.5t-200 -43.5q-118 0 -201 44zM578.5 243.5q37.5 41.5 37.5 117.5v320q0 75 -37.5 116t-105.5 41q-67 0 -105 -41
t-38 -116v-320q0 -76 37.5 -117.5t105.5 -41.5t105.5 41.5zM345 1321l266 355l166 -134l-285 -336z" />
    <glyph glyph-name="ocircumflex" unicode="&#xf4;" horiz-adv-x="946" 
d="M273 29q-83 44 -127 127.5t-44 200.5v331q0 116 44 198.5t127 125.5t201 43q117 0 200 -43t126.5 -125.5t43.5 -198.5v-334q0 -116 -43.5 -199t-126.5 -126.5t-200 -43.5q-118 0 -201 44zM578.5 243.5q37.5 41.5 37.5 117.5v320q0 75 -37.5 116t-105.5 41q-67 0 -105 -41
t-38 -116v-320q0 -76 37.5 -117.5t105.5 -41.5t105.5 41.5zM779 1324l-130 -118l-175 184l-175 -184l-131 118l306 316z" />
    <glyph glyph-name="otilde" unicode="&#xf5;" horiz-adv-x="946" 
d="M273 29q-83 44 -127 127.5t-44 200.5v331q0 116 44 198.5t127 125.5t201 43q117 0 200 -43t126.5 -125.5t43.5 -198.5v-334q0 -116 -43.5 -199t-126.5 -126.5t-200 -43.5q-118 0 -201 44zM578.5 243.5q37.5 41.5 37.5 117.5v320q0 75 -37.5 116t-105.5 41q-67 0 -105 -41
t-38 -116v-320q0 -76 37.5 -117.5t105.5 -41.5t105.5 41.5zM554.5 1232q-27.5 9 -59.5 28l-8 5q-4 3 -9 6.5t-9 5.5q-30 19 -50 28t-40 9q-28 0 -40.5 -13t-12.5 -41v-38h-175v55q0 124 46 185t139 61q32 0 61.5 -10.5t61.5 -30.5l9 -5l15 -9q28 -17 46.5 -25.5t35.5 -8.5
q28 0 41.5 15t13.5 46v33h175v-52q0 -127 -45.5 -190t-137.5 -63q-30 0 -57.5 9z" />
    <glyph glyph-name="odieresis" unicode="&#xf6;" horiz-adv-x="946" 
d="M273 29q-83 44 -127 127.5t-44 200.5v331q0 116 44 198.5t127 125.5t201 43q117 0 200 -43t126.5 -125.5t43.5 -198.5v-334q0 -116 -43.5 -199t-126.5 -126.5t-200 -43.5q-118 0 -201 44zM578.5 243.5q37.5 41.5 37.5 117.5v320q0 75 -37.5 116t-105.5 41q-67 0 -105 -41
t-38 -116v-320q0 -76 37.5 -117.5t105.5 -41.5t105.5 41.5zM552 1469h229v-229h-229v229zM166 1469h228v-229h-228v229z" />
    <glyph glyph-name="divide" unicode="&#xf7;" horiz-adv-x="803" 
d="M297 1108h230v-232h-230v232zM87 779h634v-219h-634v219zM297 462h230v-232h-230v232z" />
    <glyph glyph-name="oslash" unicode="&#xf8;" horiz-adv-x="946" 
d="M635 1180h133l-446 -1322h-133zM273 29q-83 44 -127 127.5t-44 200.5v331q0 116 44 198.5t127 125.5t201 43q117 0 200 -43t126.5 -125.5t43.5 -198.5v-334q0 -116 -43.5 -199t-126.5 -126.5t-200 -43.5q-118 0 -201 44zM578.5 243.5q37.5 41.5 37.5 117.5v320
q0 75 -37.5 116t-105.5 41q-67 0 -105 -41t-38 -116v-320q0 -76 37.5 -117.5t105.5 -41.5t105.5 41.5z" />
    <glyph glyph-name="ugrave" unicode="&#xf9;" horiz-adv-x="987" 
d="M637 1038h227v-1038h-227v1038zM356 341q0 -70 36.5 -107.5t104.5 -36.5q68 -1 104 35.5t36 105.5l14 -168q-29 -85 -88 -135t-146 -50q-141 0 -215.5 90.5t-74.5 260.5v702h229v-697zM184 1542l166 133l266 -355l-147 -114z" />
    <glyph glyph-name="uacute" unicode="&#xfa;" horiz-adv-x="987" 
d="M637 1038h227v-1038h-227v1038zM356 341q0 -70 36.5 -107.5t104.5 -36.5q68 -1 104 35.5t36 105.5l14 -168q-29 -85 -88 -135t-146 -50q-141 0 -215.5 90.5t-74.5 260.5v702h229v-697zM365 1321l266 355l166 -134l-285 -336z" />
    <glyph glyph-name="ucircumflex" unicode="&#xfb;" horiz-adv-x="987" 
d="M637 1038h227v-1038h-227v1038zM356 341q0 -70 36.5 -107.5t104.5 -36.5q68 -1 104 35.5t36 105.5l14 -168q-29 -85 -88 -135t-146 -50q-141 0 -215.5 90.5t-74.5 260.5v702h229v-697zM798 1324l-130 -118l-175 184l-175 -184l-131 118l306 316z" />
    <glyph glyph-name="udieresis" unicode="&#xfc;" horiz-adv-x="987" 
d="M637 1038h227v-1038h-227v1038zM356 341q0 -70 36.5 -107.5t104.5 -36.5q68 -1 104 35.5t36 105.5l14 -168q-29 -85 -88 -135t-146 -50q-141 0 -215.5 90.5t-74.5 260.5v702h229v-697zM572 1469h229v-229h-229v229zM186 1469h228v-229h-228v229z" />
    <glyph glyph-name="yacute" unicode="&#xfd;" horiz-adv-x="879" 
d="M867 1038l-374 -1281q-20 -67 -58 -109t-97 -61.5t-142 -19.5h-52v222h53q56 0 87.5 23t47.5 77l312 1149h223zM37 1038h223l272 -900l-125 -230zM332 1321l266 355l166 -134l-285 -336z" />
    <glyph glyph-name="thorn" unicode="&#xfe;" horiz-adv-x="969" 
d="M127 1454h229v-1876h-229v1876zM432.5 31.5q-61.5 46.5 -90.5 131.5l14 190q0 -50 16.5 -85.5t48 -54.5t76.5 -19q68 0 105.5 46t37.5 130v300q0 83 -37.5 129.5t-105.5 46.5q-45 0 -76.5 -18.5t-48 -53.5t-16.5 -85l-21 176q40 90 104.5 140t143.5 50q90 0 154 -44
t97 -127.5t33 -201.5v-323q0 -118 -34 -202t-99 -128t-157 -44q-83 0 -144.5 46.5z" />
    <glyph glyph-name="ydieresis" unicode="&#xff;" horiz-adv-x="879" 
d="M867 1038l-374 -1281q-20 -67 -58 -109t-97 -61.5t-142 -19.5h-52v222h53q56 0 87.5 23t47.5 77l312 1149h223zM37 1038h223l272 -900l-125 -230zM539 1469h229v-229h-229v229zM153 1469h228v-229h-228v229z" />
    <glyph glyph-name="Amacron" unicode="&#x100;" horiz-adv-x="1116" 
d="M471 1454h174l444 -1454h-241l-290 1069l-289 -1069h-242zM269 491h589v-217h-589v217zM873 1789v-215h-630v215h630z" />
    <glyph glyph-name="amacron" unicode="&#x101;" horiz-adv-x="963" 
d="M625 705q0 70 -39.5 108t-112.5 38q-52 0 -93 -24t-64 -67l-185 67q30 108 120 168t224 60q115 0 197 -41t125 -118t43 -186v-710h-215v705zM170.5 62q-75.5 77 -75.5 231q0 162 87 244t259 82h191l14 -185h-201q-68 0 -102 -35.5t-34 -105.5q0 -59 35 -88t106 -29
q87 0 131 29.5t44 89.5l20 -120q-9 -63 -42 -105t-85.5 -63.5t-120.5 -21.5q-151 0 -226.5 77zM797 1449v-227h-630v227h630z" />
    <glyph glyph-name="Abreve" unicode="&#x102;" horiz-adv-x="1116" 
d="M471 1454h174l444 -1454h-241l-290 1069l-289 -1069h-242zM269 491h589v-217h-589v217zM860 1871q0 -149 -78 -231t-220 -82h-8q-142 0 -220 82t-78 231l188 -2q0 -68 29 -106t81 -38h8q53 0 82 38t29 106z" />
    <glyph glyph-name="abreve" unicode="&#x103;" horiz-adv-x="963" 
d="M625 705q0 70 -39.5 108t-112.5 38q-52 0 -93 -24t-64 -67l-185 67q30 108 120 168t224 60q115 0 197 -41t125 -118t43 -186v-710h-215v705zM170.5 62q-75.5 77 -75.5 231q0 162 87 244t259 82h191l14 -185h-201q-68 0 -102 -35.5t-34 -105.5q0 -59 35 -88t106 -29
q87 0 131 29.5t44 89.5l20 -120q-9 -63 -42 -105t-85.5 -63.5t-120.5 -21.5q-151 0 -226.5 77zM264 1301q-72 80 -72 234v42h184v-37q0 -73 25 -110.5t72 -37.5h18q48 0 72.5 37.5t24.5 110.5v37h184v-42q0 -154 -71.5 -234t-209.5 -80h-18q-137 0 -209 80z" />
    <glyph glyph-name="Aogonek" unicode="&#x104;" horiz-adv-x="1116" 
d="M471 1454h174l444 -1454h-241l-290 1069l-289 -1069h-242zM269 491h589v-217h-589v217zM773.5 -356q-76.5 64 -76.5 193q0 136 75 203t225 67h16v-107h-11q-105 0 -105 -118q0 -112 117 -112h67v-190h-78q-153 0 -229.5 64z" />
    <glyph glyph-name="aogonek" unicode="&#x105;" horiz-adv-x="963" 
d="M625 705q0 70 -39.5 108t-112.5 38q-52 0 -93 -24t-64 -67l-185 67q30 108 120 168t224 60q115 0 197 -41t125 -118t43 -186v-710h-215v705zM170.5 62q-75.5 77 -75.5 231q0 162 87 244t259 82h191l14 -185h-201q-68 0 -102 -35.5t-34 -105.5q0 -59 35 -88t106 -29
q87 0 131 29.5t44 89.5l20 -120q-9 -63 -42 -105t-85.5 -63.5t-120.5 -21.5q-151 0 -226.5 77zM581 -373q-58 47 -58 148q0 85 61.5 155t178.5 122l77 -52q-64 -38 -94.5 -77.5t-30.5 -85.5q0 -30 18 -44.5t56 -14.5h51v-198h-79q-122 0 -180 47z" />
    <glyph glyph-name="Cacute" unicode="&#x106;" horiz-adv-x="1062" 
d="M317 39.5q-97 54.5 -148.5 157t-51.5 244.5v571q0 142 51.5 245t148.5 157.5t230 54.5q130 0 222 -52t143.5 -155.5t61.5 -256.5v0h-234v0q-6 78 -31 130.5t-66 79.5t-96 27q-60 0 -104 -28t-68 -79.5t-24 -122.5v-571q0 -71 24 -122.5t68 -79t104 -27.5q56 0 96.5 26.5
t65.5 79t31 131.5v0h234v0q-10 -153 -61.5 -256.5t-143.5 -155.5t-222 -52q-133 0 -230 54.5zM434 1684l262 252l160 -160l-284 -229z" />
    <glyph glyph-name="cacute" unicode="&#x107;" horiz-adv-x="896" 
d="M281 30q-87 45 -133 130.5t-46 206.5v301q0 122 46 209t133 132t210 45q104 0 177.5 -30.5t118 -93t59.5 -156.5v0l-211 -68v0q-14 67 -50 100.5t-93 33.5q-77 0 -119 -46.5t-42 -130.5v-291q0 -83 42 -128t119 -45q57 0 93.5 32.5t49.5 97.5v0l211 -72v0
q-14 -92 -58.5 -152.5t-118.5 -90t-178 -29.5q-123 0 -210 45zM348 1321l266 355l166 -134l-285 -336z" />
    <glyph glyph-name="Cdotaccent" unicode="&#x10a;" horiz-adv-x="1062" 
d="M317 39.5q-97 54.5 -148.5 157t-51.5 244.5v571q0 142 51.5 245t148.5 157.5t230 54.5q130 0 222 -52t143.5 -155.5t61.5 -256.5v0h-234v0q-6 78 -31 130.5t-66 79.5t-96 27q-60 0 -104 -28t-68 -79.5t-24 -122.5v-571q0 -71 24 -122.5t68 -79t104 -27.5q56 0 96.5 26.5
t65.5 79t31 131.5v0h234v0q-10 -153 -61.5 -256.5t-143.5 -155.5t-222 -52q-133 0 -230 54.5zM433 1803h229v-230h-229v230z" />
    <glyph glyph-name="cdotaccent" unicode="&#x10b;" horiz-adv-x="896" 
d="M281 30q-87 45 -133 130.5t-46 206.5v301q0 122 46 209t133 132t210 45q104 0 177.5 -30.5t118 -93t59.5 -156.5v0l-211 -68v0q-14 67 -50 100.5t-93 33.5q-77 0 -119 -46.5t-42 -130.5v-291q0 -83 42 -128t119 -45q57 0 93.5 32.5t49.5 97.5v0l211 -72v0
q-14 -92 -58.5 -152.5t-118.5 -90t-178 -29.5q-123 0 -210 45zM362 1481h228v-230h-228v230z" />
    <glyph glyph-name="Ccaron" unicode="&#x10c;" horiz-adv-x="1062" 
d="M317 39.5q-97 54.5 -148.5 157t-51.5 244.5v571q0 142 51.5 245t148.5 157.5t230 54.5q130 0 222 -52t143.5 -155.5t61.5 -256.5v0h-234v0q-6 78 -31 130.5t-66 79.5t-96 27q-60 0 -104 -28t-68 -79.5t-24 -122.5v-571q0 -71 24 -122.5t68 -79t104 -27.5q56 0 96.5 26.5
t65.5 79t31 131.5v0h234v0q-10 -153 -61.5 -256.5t-143.5 -155.5t-222 -52q-133 0 -230 54.5zM230 1809l127 132l190 -152l189 152l127 -132l-316 -254z" />
    <glyph glyph-name="ccaron" unicode="&#x10d;" horiz-adv-x="896" 
d="M281 30q-87 45 -133 130.5t-46 206.5v301q0 122 46 209t133 132t210 45q104 0 177.5 -30.5t118 -93t59.5 -156.5v0l-211 -68v0q-14 67 -50 100.5t-93 33.5q-77 0 -119 -46.5t-42 -130.5v-291q0 -83 42 -128t119 -45q57 0 93.5 32.5t49.5 97.5v0l211 -72v0
q-14 -92 -58.5 -152.5t-118.5 -90t-178 -29.5q-123 0 -210 45zM170 1522l131 118l175 -184l176 184l131 -118l-307 -316z" />
    <glyph glyph-name="Dcaron" unicode="&#x10e;" horiz-adv-x="1114" 
d="M273 219h282q100 0 154 52.5t54 148.5v614q0 96 -54 148.5t-154 52.5h-282v219h284q139 0 238 -49t150.5 -143t51.5 -226v-618q0 -130 -51 -224t-150 -144t-240 -50h-283v219zM132 1454h229v-1454h-229v1454zM208 1809l127 132l190 -152l189 152l127 -132l-316 -254z" />
    <glyph glyph-name="dcaron" unicode="&#x10f;" horiz-adv-x="1179" 
d="M613 1454h229v-1454h-229v1454zM233 26q-64 43 -97.5 125t-33.5 198v337q0 116 33.5 199.5t97 126.5t152.5 43q78 0 143.5 -48.5t105.5 -137.5l-21 -180q0 49 -16.5 84t-47.5 53.5t-76 18.5q-68 0 -106 -45.5t-38 -127.5v-312q0 -79 38 -122.5t106 -43.5q45 0 76 18
t47.5 52.5t16.5 83.5l14 -185q-29 -83 -91.5 -131.5t-148.5 -48.5q-90 0 -154 43zM978 1469h184v-231l-184 -158v389z" />
    <glyph glyph-name="Dcroat" unicode="&#x110;" horiz-adv-x="1149" 
d="M308 219h282q100 0 154 52.5t54 148.5v614q0 96 -54 148.5t-154 52.5h-282v219h284q139 0 238 -49t150.5 -143t51.5 -226v-618q0 -130 -51 -224t-150 -144t-240 -50h-283v219zM167 1454h229v-1454h-229v1454zM611 830v-205h-575v205h575z" />
    <glyph glyph-name="dcroat" unicode="&#x111;" horiz-adv-x="964" 
d="M348 1364h600v-210h-600v210zM613 1454h229v-1454h-229v1454zM233 26q-64 43 -97.5 125t-33.5 198v337q0 116 33.5 199.5t97 126.5t152.5 43q78 0 143.5 -48.5t105.5 -137.5l-21 -180q0 49 -16.5 84t-47.5 53.5t-76 18.5q-68 0 -106 -45.5t-38 -127.5v-312
q0 -79 38 -122.5t106 -43.5q45 0 76 18t47.5 52.5t16.5 83.5l14 -185q-29 -83 -91.5 -131.5t-148.5 -48.5q-90 0 -154 43z" />
    <glyph glyph-name="Emacron" unicode="&#x112;" horiz-adv-x="999" 
d="M132 1454h229v-1454h-229v1454zM234 220h693v-220h-693v220zM234 832h613v-220h-613v220zM234 1454h693v-220h-693v220zM861 1789v-215h-630v215h630z" />
    <glyph glyph-name="emacron" unicode="&#x113;" horiz-adv-x="950" 
d="M283 31.5q-88 46.5 -134.5 136t-46.5 216.5v252q0 132 45 226t130 143t206 49q116 0 199.5 -52.5t126.5 -153t43 -241.5v-177h-585v172h368v66q0 84 -41.5 132t-110.5 48q-79 0 -122 -52.5t-43 -148.5v-269q0 -88 45.5 -136.5t128.5 -48.5q57 0 94.5 27.5t54.5 79.5v0
l199 -70v0q-29 -121 -117 -183t-227 -62q-125 0 -213 46.5zM793 1449v-227h-630v227h630z" />
    <glyph glyph-name="Edotaccent" unicode="&#x116;" horiz-adv-x="999" 
d="M132 1454h229v-1454h-229v1454zM234 220h693v-220h-693v220zM234 832h613v-220h-613v220zM234 1454h693v-220h-693v220zM431 1803h229v-230h-229v230z" />
    <glyph glyph-name="edotaccent" unicode="&#x117;" horiz-adv-x="950" 
d="M283 31.5q-88 46.5 -134.5 136t-46.5 216.5v252q0 132 45 226t130 143t206 49q116 0 199.5 -52.5t126.5 -153t43 -241.5v-177h-585v172h368v66q0 84 -41.5 132t-110.5 48q-79 0 -122 -52.5t-43 -148.5v-269q0 -88 45.5 -136.5t128.5 -48.5q57 0 94.5 27.5t54.5 79.5v0
l199 -70v0q-29 -121 -117 -183t-227 -62q-125 0 -213 46.5zM364 1481h228v-230h-228v230z" />
    <glyph glyph-name="Eogonek" unicode="&#x118;" horiz-adv-x="999" 
d="M132 1454h229v-1454h-229v1454zM234 220h693v-220h-693v220zM234 832h613v-220h-613v220zM234 1454h693v-220h-693v220zM614.5 -356q-76.5 64 -76.5 193q0 136 75 203t225 67h16v-107h-11q-105 0 -105 -118q0 -112 117 -112h67v-190h-78q-153 0 -229.5 64z" />
    <glyph glyph-name="eogonek" unicode="&#x119;" horiz-adv-x="950" 
d="M559.5 -355q-66.5 55 -66.5 168q0 104 60.5 192.5t178.5 163.5l76 -55l-11 -10q-57 -55 -84.5 -106.5t-27.5 -109.5q0 -50 27 -75t83 -25h36v-198h-67q-138 0 -204.5 55zM283 31.5q-88 46.5 -134.5 136t-46.5 215.5v253q0 133 45 227t130 143t205 49q117 0 200 -53
t126.5 -153.5t43.5 -242.5v-176h-585v172h368v65q-5 86 -44.5 133.5t-108.5 47.5q-78 0 -121 -52.5t-43 -148.5v-269q0 -88 46.5 -136.5t130.5 -48.5q54 0 96 24t65 67v11l184 -74v-9q-40 -108 -130 -167.5t-215 -59.5q-124 0 -212 46.5z" />
    <glyph glyph-name="Ecaron" unicode="&#x11a;" horiz-adv-x="999" 
d="M132 1454h229v-1454h-229v1454zM234 220h693v-220h-693v220zM234 832h613v-220h-613v220zM234 1454h693v-220h-693v220zM228 1809l127 132l190 -152l189 152l127 -132l-316 -254z" />
    <glyph glyph-name="ecaron" unicode="&#x11b;" horiz-adv-x="950" 
d="M283 31.5q-88 46.5 -134.5 136t-46.5 216.5v252q0 132 45 226t130 143t206 49q116 0 199.5 -52.5t126.5 -153t43 -241.5v-177h-585v172h368v66q0 84 -41.5 132t-110.5 48q-79 0 -122 -52.5t-43 -148.5v-269q0 -88 45.5 -136.5t128.5 -48.5q57 0 94.5 27.5t54.5 79.5v0
l199 -70v0q-29 -121 -117 -183t-227 -62q-125 0 -213 46.5zM172 1522l131 118l175 -184l176 184l131 -118l-307 -316z" />
    <glyph glyph-name="Gbreve" unicode="&#x11e;" horiz-adv-x="1114" 
d="M997 791v-350q0 -139 -53.5 -242t-152 -158.5t-231.5 -55.5q-135 0 -235 52.5t-154 150t-54 230.5v592q0 141 53 244t152 159t232 56q130 0 223 -50t145.5 -149t62.5 -245v0h-242v0q-6 72 -30.5 119.5t-65 71t-93.5 23.5q-62 0 -107.5 -28t-70.5 -79.5t-25 -121.5v-592
q0 -62 25.5 -108t73 -70.5t110.5 -24.5t109 26.5t71 76.5t25 120v134h-200v219h432zM862 1871q0 -149 -78 -231t-220 -82h-8q-142 0 -220 82t-78 231l188 -2q0 -68 29 -106t81 -38h8q53 0 82 38t29 106z" />
    <glyph glyph-name="gbreve" unicode="&#x11f;" horiz-adv-x="964" 
d="M221.5 -356.5q-85.5 65.5 -104.5 193.5v0l218 67v0q12 -58 47 -88.5t87 -30.5q67 0 105.5 41t38.5 114v1098h229v-1086q0 -118 -45.5 -202t-133 -128t-210.5 -44q-146 0 -231.5 65.5zM233 26q-64 43 -97.5 125t-33.5 198v337q0 116 33 199t96.5 126.5t153.5 43.5
q78 0 143.5 -48.5t105.5 -137.5l-21 -178q0 49 -16.5 84t-48 53t-75.5 18q-68 0 -106 -45t-38 -127v-316q0 -78 38 -122t106 -44q45 0 76 18.5t47.5 53t16.5 83.5l14 -184q-29 -83 -91.5 -131.5t-148.5 -48.5q-90 0 -154 43zM264 1301q-72 80 -72 234v42h184v-37
q0 -73 25 -110.5t72 -37.5h18q48 0 72.5 37.5t24.5 110.5v37h184v-42q0 -154 -71.5 -234t-209.5 -80h-18q-137 0 -209 80z" />
    <glyph glyph-name="Gdotaccent" unicode="&#x120;" horiz-adv-x="1114" 
d="M997 791v-350q0 -139 -53.5 -242t-152 -158.5t-231.5 -55.5q-135 0 -235 52.5t-154 150t-54 230.5v592q0 141 53 244t152 159t232 56q130 0 223 -50t145.5 -149t62.5 -245v0h-242v0q-6 72 -30.5 119.5t-65 71t-93.5 23.5q-62 0 -107.5 -28t-70.5 -79.5t-25 -121.5v-592
q0 -62 25.5 -108t73 -70.5t110.5 -24.5t109 26.5t71 76.5t25 120v134h-200v219h432zM445 1803h229v-230h-229v230z" />
    <glyph glyph-name="gdotaccent" unicode="&#x121;" horiz-adv-x="964" 
d="M221.5 -356.5q-85.5 65.5 -104.5 193.5v0l218 67v0q12 -58 47 -88.5t87 -30.5q67 0 105.5 41t38.5 114v1098h229v-1086q0 -118 -45.5 -202t-133 -128t-210.5 -44q-146 0 -231.5 65.5zM233 26q-64 43 -97.5 125t-33.5 198v337q0 116 33 199t96.5 126.5t153.5 43.5
q78 0 143.5 -48.5t105.5 -137.5l-21 -178q0 49 -16.5 84t-48 53t-75.5 18q-68 0 -106 -45t-38 -127v-316q0 -78 38 -122t106 -44q45 0 76 18.5t47.5 53t16.5 83.5l14 -184q-29 -83 -91.5 -131.5t-148.5 -48.5q-90 0 -154 43zM368 1481h228v-230h-228v230z" />
    <glyph glyph-name="uni0122" unicode="&#x122;" horiz-adv-x="1114" 
d="M997 791v-350q0 -139 -53.5 -242t-152 -158.5t-231.5 -55.5q-135 0 -235 52.5t-154 150t-54 230.5v592q0 141 53 244t152 159t232 56q130 0 223 -50t145.5 -149t62.5 -245v0h-242v0q-6 72 -30.5 119.5t-65 71t-93.5 23.5q-62 0 -107.5 -28t-70.5 -79.5t-25 -121.5v-592
q0 -62 25.5 -108t73 -70.5t110.5 -24.5t109 26.5t71 76.5t25 120v134h-200v219h432zM446 -127h229v-192l-229 -203v395z" />
    <glyph glyph-name="uni0123" unicode="&#x123;" horiz-adv-x="964" 
d="M365 1383l229 203v-344h-229v141zM231 -361.5q-88 60.5 -114 170.5v19l189 74v-19q19 -46 58 -72t91 -26q74 0 116 41t42 114v1098h229v-1085q0 -119 -45.5 -203t-133 -128t-210.5 -44q-134 0 -222 60.5zM233 26q-64 43 -97.5 125t-33.5 198v337q0 116 33 199.5t97 126.5
t153 43q78 0 143.5 -48.5t105.5 -137.5l-21 -178q0 49 -16.5 84t-47.5 53t-76 18q-68 0 -106 -45t-38 -127v-316q0 -79 38 -122.5t106 -43.5q45 0 76 18.5t47.5 53t16.5 83.5l14 -184q-29 -83 -91 -131.5t-149 -48.5q-90 0 -154 43z" />
    <glyph glyph-name="Hbar" unicode="&#x126;" horiz-adv-x="1230" 
d="M67 1225h1096v-218h-1096v218zM819 1454h229v-1454h-229v1454zM182 1454h230v-1454h-230v1454zM307 826h647v-217h-647v217z" />
    <glyph glyph-name="hbar" unicode="&#x127;" horiz-adv-x="1012" 
d="M626 1374v-210h-614v210h614zM140 1454h229v-1454h-229v1454zM661 677q0 78 -38 120t-110 42q-70 0 -107 -40t-37 -116l-20 176q40 96 106 146t153 50q135 0 208.5 -90.5t73.5 -257.5v-707h-229v677z" />
    <glyph glyph-name="Imacron" unicode="&#x12a;" horiz-adv-x="475" 
d="M353 0h-231v1454h231v-1454zM553 1789v-215h-630v215h630z" />
    <glyph glyph-name="imacron" unicode="&#x12b;" horiz-adv-x="460" 
d="M118 1038h229v-1038h-229v1038zM548 1449v-227h-630v227h630z" />
    <glyph glyph-name="Iogonek" unicode="&#x12e;" horiz-adv-x="475" 
d="M97 -356q-77 64 -77 193q0 136 74.5 203t225.5 67l5 -107q-105 0 -105 -118q0 -112 119 -112h67v-190h-78q-154 0 -231 64zM353 0h-231v1454h231v-1454z" />
    <glyph glyph-name="iogonek" unicode="&#x12f;" horiz-adv-x="460" 
d="M118 1038h229v-1038h-229v1038zM119 1481h228v-230h-228v230zM88 -373q-58 47 -58 148q0 85 61.5 155t178.5 122l77 -52q-64 -38 -94.5 -77.5t-30.5 -85.5q0 -30 18 -44.5t56 -14.5h51v-198h-79q-122 0 -180 47z" />
    <glyph glyph-name="Idotaccent" unicode="&#x130;" horiz-adv-x="475" 
d="M353 0h-231v1454h231v-1454zM123 1803h229v-230h-229v230z" />
    <glyph glyph-name="dotlessi" unicode="&#x131;" horiz-adv-x="460" 
d="M118 1038h229v-1038h-229v1038z" />
    <glyph glyph-name="uni0136" unicode="&#x136;" horiz-adv-x="1094" 
d="M300 631l472 823h271l-746 -1192zM132 1454h229v-1454h-229v1454zM480 771l174 149l443 -920h-266zM459 -127h229v-192l-229 -203v395z" />
    <glyph glyph-name="uni0137" unicode="&#x137;" horiz-adv-x="953" 
d="M244 400l436 638h245l-670 -919zM127 1454h229v-1454h-229v1454zM450 550l156 145l365 -695h-252zM388 -127h229v-192l-229 -203v395z" />
    <glyph glyph-name="Lacute" unicode="&#x139;" horiz-adv-x="964" 
d="M132 1454h229v-1454h-229v1454zM239 219h678v-219h-678v219zM136 1684l262 252l160 -160l-284 -229z" />
    <glyph glyph-name="lacute" unicode="&#x13a;" horiz-adv-x="533" 
d="M356 300q0 -38 19 -59.5t53 -21.5h58v-220h-108q-119 0 -185 72t-66 203v1180h229v-1154zM129 1684l262 252l160 -160l-284 -229z" />
    <glyph glyph-name="uni013B" unicode="&#x13b;" horiz-adv-x="964" 
d="M132 1454h229v-1454h-229v1454zM239 219h678v-219h-678v219zM360 -127h229v-192l-229 -203v395z" />
    <glyph glyph-name="uni013C" unicode="&#x13c;" horiz-adv-x="533" 
d="M356 300q0 -38 19 -59.5t53 -21.5h58v-220h-108q-119 0 -185 72t-66 203v1180h229v-1154zM160 -127h229v-192l-229 -203v395z" />
    <glyph glyph-name="Lcaron" unicode="&#x13d;" horiz-adv-x="964" 
d="M132 1454h229v-1454h-229v1454zM239 219h678v-219h-678v219zM703 1453h184v-231l-184 -158v389z" />
    <glyph glyph-name="lcaron" unicode="&#x13e;" horiz-adv-x="693" 
d="M356 300q0 -38 19 -59.5t53 -21.5h58v-220h-108q-119 0 -185 72t-66 203v1180h229v-1154zM485 1469h184v-231l-184 -158v389z" />
    <glyph glyph-name="Lslash" unicode="&#x141;" horiz-adv-x="1029" 
d="M72 730l658 290v-222l-658 -290v222zM197 1454h229v-1454h-229v1454zM304 219h678v-219h-678v219z" />
    <glyph glyph-name="lslash" unicode="&#x142;" horiz-adv-x="533" 
d="M15 730l471 223v-222l-471 -223v222zM356 300q0 -38 19 -59.5t53 -21.5h58v-220h-108q-119 0 -185 72t-66 203v1180h229v-1154z" />
    <glyph glyph-name="Nacute" unicode="&#x143;" horiz-adv-x="1174" 
d="M132 1454h221l498 -1081l-27 -29v1110h218v-1453h-222l-496 1050l26 29v-1079h-218v1453zM488 1684l262 252l160 -160l-284 -229z" />
    <glyph glyph-name="nacute" unicode="&#x144;" horiz-adv-x="999" 
d="M127 1038h230v-1038h-230v1038zM648 678q0 79 -38 120.5t-110 41.5q-70 0 -106.5 -40.5t-36.5 -116.5l-21 176q40 96 106 146t153 50q135 0 208.5 -90.5t73.5 -257.5v-707h-229v678zM369 1321l266 355l166 -134l-285 -336z" />
    <glyph glyph-name="uni0145" unicode="&#x145;" horiz-adv-x="1174" 
d="M132 1454h221l498 -1081l-27 -29v1110h218v-1453h-222l-496 1050l26 29v-1079h-218v1453zM488 -127h229v-192l-229 -203v395z" />
    <glyph glyph-name="uni0146" unicode="&#x146;" horiz-adv-x="999" 
d="M127 1038h230v-1038h-230v1038zM648 678q0 79 -38 120.5t-110 41.5q-70 0 -106.5 -40.5t-36.5 -116.5l-21 176q40 96 106 146t153 50q135 0 208.5 -90.5t73.5 -257.5v-707h-229v678zM383 -127h229v-192l-229 -203v395z" />
    <glyph glyph-name="Ncaron" unicode="&#x147;" horiz-adv-x="1174" 
d="M132 1454h221l498 -1081l-27 -29v1110h218v-1453h-222l-496 1050l26 29v-1079h-218v1453zM284 1809l127 132l190 -152l189 152l127 -132l-316 -254z" />
    <glyph glyph-name="ncaron" unicode="&#x148;" horiz-adv-x="999" 
d="M127 1038h230v-1038h-230v1038zM648 678q0 79 -38 120.5t-110 41.5q-70 0 -106.5 -40.5t-36.5 -116.5l-21 176q40 96 106 146t153 50q135 0 208.5 -90.5t73.5 -257.5v-707h-229v678zM191 1522l131 118l175 -184l176 184l131 -118l-307 -316z" />
    <glyph glyph-name="Eng" unicode="&#x14a;" horiz-adv-x="1174" 
d="M132 1454h221l510 -1081l-39 -29v1110h218v-1413l-200 -58l-518 1068l26 29v-1079h-218v1453zM661 -186h83q34 0 52.5 22t18.5 62v362h227v-389q0 -131 -67 -203t-189 -72h-125v218z" />
    <glyph glyph-name="eng" unicode="&#x14b;" horiz-adv-x="999" 
d="M514 -201h65q33 0 51 21t18 60v279h229v-306q0 -131 -67 -203t-189 -72h-107v221zM127 1038h230v-1038h-230v1038zM648 678q0 79 -38 120.5t-110 41.5q-70 0 -106.5 -40.5t-36.5 -116.5l-21 176q40 96 106 146t153 50q135 0 208.5 -90.5t73.5 -257.5v-707h-229v678z" />
    <glyph glyph-name="Omacron" unicode="&#x14c;" horiz-adv-x="1122" 
d="M325.5 39q-100.5 54 -154.5 154.5t-54 236.5v594q0 136 54 236.5t154.5 154.5t235.5 54t235.5 -54t154.5 -154.5t54 -236.5v-594q0 -136 -54 -236.5t-154.5 -154.5t-235.5 -54t-235.5 54zM672.5 239q47.5 27 73 77t25.5 117v589q0 67 -25.5 117t-73 76.5t-111.5 26.5
t-111.5 -26.5t-73 -76.5t-25.5 -117v-589q0 -67 25.5 -117t73 -77t111.5 -27t111.5 27zM876 1789v-215h-630v215h630z" />
    <glyph glyph-name="omacron" unicode="&#x14d;" horiz-adv-x="946" 
d="M273 29q-83 44 -127 127.5t-44 200.5v331q0 116 44 198.5t127 125.5t201 43q117 0 200 -43t126.5 -125.5t43.5 -198.5v-334q0 -116 -43.5 -199t-126.5 -126.5t-200 -43.5q-118 0 -201 44zM578.5 243.5q37.5 41.5 37.5 117.5v320q0 75 -37.5 116t-105.5 41q-67 0 -105 -41
t-38 -116v-320q0 -76 37.5 -117.5t105.5 -41.5t105.5 41.5zM788 1449v-227h-630v227h630z" />
    <glyph glyph-name="Ohungarumlaut" unicode="&#x150;" horiz-adv-x="1122" 
d="M325.5 39q-100.5 54 -154.5 154.5t-54 236.5v594q0 136 54 236.5t154.5 154.5t235.5 54t235.5 -54t154.5 -154.5t54 -236.5v-594q0 -136 -54 -236.5t-154.5 -154.5t-235.5 -54t-235.5 54zM672.5 239q47.5 27 73 77t25.5 117v589q0 67 -25.5 117t-73 76.5t-111.5 26.5
t-111.5 -26.5t-73 -76.5t-25.5 -117v-589q0 -67 25.5 -117t73 -77t111.5 -27t111.5 27zM603 1668l210 267l165 -146l-232 -245zM228 1668l209 267l165 -146l-231 -245z" />
    <glyph glyph-name="ohungarumlaut" unicode="&#x151;" horiz-adv-x="946" 
d="M273 29q-83 44 -127 127.5t-44 200.5v331q0 116 44 198.5t127 125.5t201 43q117 0 200 -43t126.5 -125.5t43.5 -198.5v-334q0 -116 -43.5 -199t-126.5 -126.5t-200 -43.5q-118 0 -201 44zM578.5 243.5q37.5 41.5 37.5 117.5v320q0 75 -37.5 116t-105.5 41q-67 0 -105 -41
t-38 -116v-320q0 -76 37.5 -117.5t105.5 -41.5t105.5 41.5zM525 1294l203 366l183 -116l-222 -346zM146 1294l204 366l182 -116l-222 -346z" />
    <glyph glyph-name="OE" unicode="&#x152;" horiz-adv-x="1631" 
d="M320 40q-98 55 -150.5 156.5t-52.5 239.5v582q0 138 52.5 240t150.5 156.5t229 54.5q115 0 197 -54.5t124.5 -156t42.5 -240.5v-582q0 -139 -42.5 -240.5t-124.5 -156t-197 -54.5q-131 0 -229 55zM698.5 238q50.5 28 77.5 80t27 121v576q0 70 -27.5 122t-77.5 80t-119 28
q-70 0 -121.5 -28t-79.5 -80t-28 -122v-576q0 -69 28 -121t79.5 -80t121.5 -28q69 0 119.5 28zM764 1454h229v-1454h-229v1454zM866 220h692v-220h-692v220zM866 832h612v-220h-612v220zM866 1454h692v-220h-692v220z" />
    <glyph glyph-name="oe" unicode="&#x153;" horiz-adv-x="1456" 
d="M266 28.5q-80 43.5 -122 127t-42 200.5v333q0 115 42 197.5t122 125t193 42.5q105 0 179 -42.5t113 -125t39 -197.5v-336q0 -116 -39 -199t-113.5 -126t-178.5 -43q-113 0 -193 43.5zM577.5 232q38.5 44 38.5 125v329q0 78 -38.5 122t-107.5 44q-68 0 -106.5 -44
t-38.5 -122v-329q0 -81 38 -125t107 -44t107.5 44zM829 31.5q-78 46.5 -119 136t-41 216.5v252q0 132 39.5 226t115 143t181.5 49q112 0 191 -52t120.5 -151.5t41.5 -240.5v-177h-582v170h371v64q0 87 -40.5 134.5t-113.5 47.5q-79 0 -122.5 -52.5t-43.5 -149.5v-269
q0 -88 46.5 -135.5t131.5 -47.5q52 0 89 27.5t52 77.5v0l201 -70v0q-28 -117 -114 -181t-216 -64q-110 0 -188 46.5z" />
    <glyph glyph-name="Racute" unicode="&#x154;" horiz-adv-x="1130" 
d="M232 827h383q46 0 80 19.5t52.5 56.5t18.5 87v78q0 51 -18.5 89t-52.5 58.5t-80 20.5h-383v219h378q120 0 208.5 -45.5t136 -131.5t47.5 -202v-85q0 -117 -47.5 -203.5t-136 -133t-208.5 -46.5h-378v219zM132 1455h228v-1455h-228v1455zM520 653l226 46l307 -699h-262z
M424 1684l262 252l160 -160l-284 -229z" />
    <glyph glyph-name="racute" unicode="&#x155;" horiz-adv-x="757" 
d="M127 1038h234v-1038h-234v1038zM619 820.5q-24 6.5 -54 6.5q-96 0 -149.5 -54t-54.5 -149l-21 233q47 93 120.5 145.5t162.5 52.5q34 0 61.5 -10.5t47.5 -30.5l-73 -214q-16 14 -40 20.5zM294 1321l266 355l166 -134l-285 -336z" />
    <glyph glyph-name="uni0156" unicode="&#x156;" horiz-adv-x="1130" 
d="M232 827h383q46 0 80 19.5t52.5 56.5t18.5 87v78q0 51 -18.5 89t-52.5 58.5t-80 20.5h-383v219h378q120 0 208.5 -45.5t136 -131.5t47.5 -202v-85q0 -117 -47.5 -203.5t-136 -133t-208.5 -46.5h-378v219zM132 1455h228v-1455h-228v1455zM520 653l226 46l307 -699h-262z
M427 -127h229v-192l-229 -203v395z" />
    <glyph glyph-name="uni0157" unicode="&#x157;" horiz-adv-x="757" 
d="M127 1038h234v-1038h-234v1038zM619 820.5q-24 6.5 -54 6.5q-96 0 -149.5 -54t-54.5 -149l-21 233q47 93 120.5 145.5t162.5 52.5q34 0 61.5 -10.5t47.5 -30.5l-73 -214q-16 14 -40 20.5zM126 -127h229v-192l-229 -203v395z" />
    <glyph glyph-name="Rcaron" unicode="&#x158;" horiz-adv-x="1130" 
d="M232 827h383q46 0 80 19.5t52.5 56.5t18.5 87v78q0 51 -18.5 89t-52.5 58.5t-80 20.5h-383v219h378q120 0 208.5 -45.5t136 -131.5t47.5 -202v-85q0 -117 -47.5 -203.5t-136 -133t-208.5 -46.5h-378v219zM132 1455h228v-1455h-228v1455zM520 653l226 46l307 -699h-262z
M220 1809l127 132l190 -152l189 152l127 -132l-316 -254z" />
    <glyph glyph-name="rcaron" unicode="&#x159;" horiz-adv-x="757" 
d="M127 1038h234v-1038h-234v1038zM619 820.5q-24 6.5 -54 6.5q-96 0 -149.5 -54t-54.5 -149l-21 233q47 93 120.5 145.5t162.5 52.5q34 0 61.5 -10.5t47.5 -30.5l-73 -214q-16 14 -40 20.5zM116 1522l131 118l175 -184l176 184l131 -118l-307 -316z" />
    <glyph glyph-name="Sacute" unicode="&#x15a;" horiz-adv-x="1072" 
d="M317.5 21q-91.5 36 -152 106t-85.5 173v0l216 95v0q27 -93 89 -141t151 -48q102 0 158 44.5t56 124.5v64q0 57 -31 93.5t-79 57t-127 44.5q-2 1 -4.5 1.5t-4.5 1.5l-11 3q-120 35 -195.5 71.5t-129 115t-53.5 211.5v40q0 124 51.5 212t150.5 133.5t239 45.5
q105 0 186.5 -34.5t136 -102t80.5 -166.5v0l-207 -96v0q-27 87 -79.5 133t-123.5 46q-99 0 -152.5 -42t-53.5 -119v-48q0 -60 32 -97t80.5 -58t133.5 -46q5 -2 10 -3.5t11 -3.5q4 -1 8.5 -2.5t9.5 -2.5q109 -34 180.5 -71.5t120 -113t48.5 -202.5v-64q0 -124 -52.5 -211.5
t-153.5 -133.5t-243 -46q-119 0 -210.5 36zM425 1684l262 252l160 -160l-284 -229z" />
    <glyph glyph-name="sacute" unicode="&#x15b;" horiz-adv-x="900" 
d="M252 13.5q-80 28.5 -132.5 84.5t-75.5 137v0l194 94v0q30 -68 82.5 -102.5t123.5 -34.5q76 0 118 30.5t42 83.5q0 40 -23.5 63t-59.5 34.5t-101 24.5l-20 4l-20 4q-4 1 -7 1.5t-6 1.5q-88 20 -148 47.5t-100 87.5t-40 162q0 100 42.5 171.5t123 109t192.5 37.5
q96 0 169.5 -26.5t123 -78t72.5 -126.5v0l-194 -91v0q-26 56 -70 86t-102 30q-68 0 -105 -28.5t-37 -79.5q0 -38 24.5 -60t61 -32.5t101.5 -23.5q4 0 7.5 -0.5t6.5 -1.5q2 -1 4.5 -1t4.5 -1q97 -18 161 -43.5t108.5 -89.5t44.5 -178q0 -102 -45 -175t-130.5 -111t-206.5 -38
q-104 0 -184 28.5zM319 1321l266 355l166 -134l-285 -336z" />
    <glyph glyph-name="Scedilla" unicode="&#x15e;" horiz-adv-x="1072" 
d="M317.5 21q-91.5 36 -152 106t-85.5 173v0l216 95v0q27 -93 89 -141t151 -48q102 0 158 44.5t56 124.5v64q0 57 -31 93.5t-79 57t-127 44.5q-2 1 -4.5 1.5t-4.5 1.5l-11 3q-120 35 -195.5 71.5t-129 115t-53.5 211.5v40q0 124 51.5 212t150.5 133.5t239 45.5
q105 0 186.5 -34.5t136 -102t80.5 -166.5v0l-207 -96v0q-27 87 -79.5 133t-123.5 46q-99 0 -152.5 -42t-53.5 -119v-48q0 -60 32 -97t80.5 -58t133.5 -46q5 -2 10 -3.5t11 -3.5q4 -1 8.5 -2.5t9.5 -2.5q109 -34 180.5 -71.5t120 -113t48.5 -202.5v-64q0 -124 -52.5 -211.5
t-153.5 -133.5t-243 -46q-119 0 -210.5 36zM374 -404l41 146q45 -14 91 -14q44 0 66.5 11t22.5 34q0 24 -34 36t-101 12l92 116q117 0 177 -45t60 -133q0 -90 -65.5 -135.5t-192.5 -45.5q-92 0 -157 18zM629 61v-242l-181 2v240h181z" />
    <glyph glyph-name="scedilla" unicode="&#x15f;" horiz-adv-x="900" 
d="M252 13.5q-80 28.5 -132.5 84.5t-75.5 137v0l194 94v0q30 -68 82.5 -102.5t123.5 -34.5q76 0 118 30.5t42 83.5q0 40 -23.5 63t-59.5 34.5t-101 24.5l-20 4l-20 4q-4 1 -7 1.5t-6 1.5q-88 20 -148 47.5t-100 87.5t-40 162q0 100 42.5 171.5t123 109t192.5 37.5
q96 0 169.5 -26.5t123 -78t72.5 -126.5v0l-194 -91v0q-26 56 -70 86t-102 30q-68 0 -105 -28.5t-37 -79.5q0 -38 24.5 -60t61 -32.5t101.5 -23.5q4 0 7.5 -0.5t6.5 -1.5q2 -1 4.5 -1t4.5 -1q97 -18 161 -43.5t108.5 -89.5t44.5 -178q0 -102 -45 -175t-130.5 -111t-206.5 -38
q-104 0 -184 28.5zM271 -408l41 145q48 -14 95 -14q41 0 61.5 11.5t20.5 34.5q0 24 -32 36t-96 12l92 116q113 0 171.5 -45t58.5 -134t-64 -134.5t-188 -45.5q-96 0 -160 18zM349 87h180v-270h-180v270z" />
    <glyph glyph-name="Scaron" unicode="&#x160;" horiz-adv-x="1072" 
d="M317.5 21q-91.5 36 -152 106t-85.5 173v0l216 95v0q27 -93 89 -141t151 -48q102 0 158 44.5t56 124.5v64q0 57 -31 93.5t-79 57t-127 44.5q-2 1 -4.5 1.5t-4.5 1.5l-11 3q-120 35 -195.5 71.5t-129 115t-53.5 211.5v40q0 124 51.5 212t150.5 133.5t239 45.5
q105 0 186.5 -34.5t136 -102t80.5 -166.5v0l-207 -96v0q-27 87 -79.5 133t-123.5 46q-99 0 -152.5 -42t-53.5 -119v-48q0 -60 32 -97t80.5 -58t133.5 -46q5 -2 10 -3.5t11 -3.5q4 -1 8.5 -2.5t9.5 -2.5q109 -34 180.5 -71.5t120 -113t48.5 -202.5v-64q0 -124 -52.5 -211.5
t-153.5 -133.5t-243 -46q-119 0 -210.5 36zM222 1809l127 132l190 -152l189 152l127 -132l-316 -254z" />
    <glyph glyph-name="scaron" unicode="&#x161;" horiz-adv-x="900" 
d="M252 13.5q-80 28.5 -132.5 84.5t-75.5 137v0l194 94v0q30 -68 82.5 -102.5t123.5 -34.5q76 0 118 30.5t42 83.5q0 40 -23.5 63t-59.5 34.5t-101 24.5l-20 4l-20 4q-4 1 -7 1.5t-6 1.5q-88 20 -148 47.5t-100 87.5t-40 162q0 100 42.5 171.5t123 109t192.5 37.5
q96 0 169.5 -26.5t123 -78t72.5 -126.5v0l-194 -91v0q-26 56 -70 86t-102 30q-68 0 -105 -28.5t-37 -79.5q0 -38 24.5 -60t61 -32.5t101.5 -23.5q4 0 7.5 -0.5t6.5 -1.5q2 -1 4.5 -1t4.5 -1q97 -18 161 -43.5t108.5 -89.5t44.5 -178q0 -102 -45 -175t-130.5 -111t-206.5 -38
q-104 0 -184 28.5zM141 1522l131 118l175 -184l176 184l131 -118l-307 -316z" />
    <glyph glyph-name="uni0162" unicode="&#x162;" horiz-adv-x="846" 
d="M309 1334h229v-1334h-229v1334zM-18 1454h882v-219h-882v219zM261 -404l41 146q45 -14 91 -14q44 0 66.5 11t22.5 34q0 24 -34 36t-101 12l92 116q117 0 177 -45t60 -133q0 -90 -65.5 -135.5t-192.5 -45.5q-92 0 -157 18zM516 61v-242l-181 2v240h181z" />
    <glyph glyph-name="uni0163" unicode="&#x163;" horiz-adv-x="603" 
d="M211.5 64.5q-61.5 69.5 -61.5 205.5v1070h229v-1043q0 -39 16.5 -60t47.5 -21h78v-221h-116q-132 0 -193.5 69.5zM47 1038h474v-206h-474v206zM132 -404l41 145q48 -14 95 -14q41 0 61.5 11.5t20.5 34.5q0 24 -32 36t-96 12l92 116q113 0 171.5 -45t58.5 -134t-64 -134.5
t-188 -45.5q-96 0 -160 18zM210 91h180v-270h-180v270z" />
    <glyph glyph-name="Tcaron" unicode="&#x164;" horiz-adv-x="846" 
d="M309 1334h229v-1334h-229v1334zM-18 1454h882v-219h-882v219zM105 1809l127 132l190 -152l189 152l127 -132l-316 -254z" />
    <glyph glyph-name="tcaron" unicode="&#x165;" horiz-adv-x="703" 
d="M211.5 64.5q-61.5 69.5 -61.5 205.5v1070h229v-1043q0 -39 16.5 -60t47.5 -21h78v-221h-116q-132 0 -193.5 69.5zM47 1038h474v-206h-474v206zM482 1551h184v-231l-184 -158v389z" />
    <glyph glyph-name="Umacron" unicode="&#x16a;" horiz-adv-x="1092" 
d="M312.5 37.5q-96.5 52.5 -146.5 153t-50 242.5v1021h229v-1028q0 -103 52.5 -159t147.5 -56q97 0 149.5 56t52.5 159v1028h229v-1021q0 -142 -50.5 -242.5t-147 -153t-233.5 -52.5q-136 0 -232.5 52.5zM860 1789v-215h-630v215h630z" />
    <glyph glyph-name="umacron" unicode="&#x16b;" horiz-adv-x="987" 
d="M637 1038h227v-1038h-227v1038zM356 341q0 -70 36.5 -107.5t104.5 -36.5q68 -1 104 35.5t36 105.5l14 -168q-29 -85 -88 -135t-146 -50q-141 0 -215.5 90.5t-74.5 260.5v702h229v-697zM808 1449v-227h-630v227h630z" />
    <glyph glyph-name="Ubreve" unicode="&#x16c;" horiz-adv-x="1092" 
d="M312.5 37.5q-96.5 52.5 -146.5 153t-50 242.5v1021h229v-1028q0 -103 52.5 -159t147.5 -56q97 0 149.5 56t52.5 159v1028h229v-1021q0 -142 -50.5 -242.5t-147 -153t-233.5 -52.5q-136 0 -232.5 52.5zM847 1871q0 -149 -78 -231t-220 -82h-8q-142 0 -220 82t-78 231
l188 -2q0 -68 29 -106t81 -38h8q53 0 82 38t29 106z" />
    <glyph glyph-name="ubreve" unicode="&#x16d;" horiz-adv-x="987" 
d="M637 1038h227v-1038h-227v1038zM356 341q0 -70 36.5 -107.5t104.5 -36.5q68 -1 104 35.5t36 105.5l14 -168q-29 -85 -88 -135t-146 -50q-141 0 -215.5 90.5t-74.5 260.5v702h229v-697zM275 1301q-72 80 -72 234v42h184v-37q0 -73 25 -110.5t72 -37.5h18q48 0 72.5 37.5
t24.5 110.5v37h184v-42q0 -154 -71.5 -234t-209.5 -80h-18q-137 0 -209 80z" />
    <glyph glyph-name="Uring" unicode="&#x16e;" horiz-adv-x="1092" 
d="M312.5 37.5q-96.5 52.5 -146.5 153t-50 242.5v1021h229v-1028q0 -103 52.5 -159t147.5 -56q97 0 149.5 56t52.5 159v1028h229v-1021q0 -142 -50.5 -242.5t-147 -153t-233.5 -52.5q-136 0 -232.5 52.5zM366 1604.5q-63 62.5 -63 176.5q0 119 63 183.5t179 64.5t179.5 -65
t63.5 -183q0 -114 -63.5 -176.5t-179.5 -62.5t-179 62.5zM605.5 1715q21.5 25 21.5 70q0 46 -21 71.5t-61 25.5q-39 0 -60.5 -25.5t-21.5 -71.5q0 -45 21.5 -70t60.5 -25t60.5 25z" />
    <glyph glyph-name="uring" unicode="&#x16f;" horiz-adv-x="987" 
d="M637 1038h227v-1038h-227v1038zM356 341q0 -70 36.5 -107.5t104.5 -36.5q68 -1 104 35.5t36 105.5l14 -168q-29 -85 -88 -135t-146 -50q-141 0 -215.5 90.5t-74.5 260.5v702h229v-697zM311.5 1269.5q-62.5 62.5 -62.5 180.5q0 124 62.5 189t181.5 65q118 0 181 -66
t63 -188q0 -118 -63 -180.5t-181 -62.5q-119 0 -181.5 62.5zM554 1382.5q21 25.5 21 71.5q0 49 -21 75t-61 26t-61 -26t-21 -75q0 -47 21 -72t61 -25t61 25.5z" />
    <glyph glyph-name="Uhungarumlaut" unicode="&#x170;" horiz-adv-x="1092" 
d="M312.5 37.5q-96.5 52.5 -146.5 153t-50 242.5v1021h229v-1028q0 -103 52.5 -159t147.5 -56q97 0 149.5 56t52.5 159v1028h229v-1021q0 -142 -50.5 -242.5t-147 -153t-233.5 -52.5q-136 0 -232.5 52.5zM587 1668l210 267l165 -146l-232 -245zM212 1668l209 267l165 -146
l-231 -245z" />
    <glyph glyph-name="uhungarumlaut" unicode="&#x171;" horiz-adv-x="987" 
d="M637 1038h227v-1038h-227v1038zM356 341q0 -70 36.5 -107.5t104.5 -36.5q68 -1 104 35.5t36 105.5l14 -168q-29 -85 -88 -135t-146 -50q-141 0 -215.5 90.5t-74.5 260.5v702h229v-697zM544 1294l203 366l183 -116l-222 -346zM165 1294l204 366l182 -116l-222 -346z" />
    <glyph glyph-name="Uogonek" unicode="&#x172;" horiz-adv-x="1092" 
d="M457.5 -356q-76.5 64 -76.5 193q0 132 73 197.5t221 65.5l-6 -100q-88 0 -88 -118q0 -112 117 -112h63v-190h-74q-153 0 -229.5 64zM312.5 37.5q-96.5 52.5 -146.5 153t-50 242.5v1021h229v-1028q0 -103 52.5 -159t147.5 -56q97 0 149.5 56t52.5 159v1028h229v-1021
q0 -142 -50.5 -242.5t-147 -153t-233.5 -52.5q-136 0 -232.5 52.5z" />
    <glyph glyph-name="uogonek" unicode="&#x173;" horiz-adv-x="987" 
d="M637 1038h227v-1038h-227v1038zM356 341q0 -70 36.5 -107.5t104.5 -36.5q68 -1 104 35.5t36 105.5l14 -168q-29 -85 -88 -135t-146 -50q-141 0 -215.5 90.5t-74.5 260.5v702h229v-697zM605 -373q-58 47 -58 148q0 85 61.5 155t178.5 122l77 -52q-64 -38 -94.5 -77.5
t-30.5 -85.5q0 -30 18 -44.5t56 -14.5h51v-198h-79q-122 0 -180 47z" />
    <glyph glyph-name="Ydieresis" unicode="&#x178;" horiz-adv-x="875" 
d="M555 579v-579h-229v579l-359 875h242l231 -627l227 627h241zM523 1802h228v-228h-228v228zM125 1802h228v-228h-228v228z" />
    <glyph glyph-name="Zacute" unicode="&#x179;" horiz-adv-x="929" 
d="M848 1253l-496 -1034h511v-219h-769v201l499 1034h-481v219h736v-201zM369 1684l262 252l160 -160l-284 -229z" />
    <glyph glyph-name="zacute" unicode="&#x17a;" horiz-adv-x="868" 
d="M763 843l-406 -630h433v-213h-694v200l419 626h-405v212h653v-195zM319 1321l266 355l166 -134l-285 -336z" />
    <glyph glyph-name="Zdotaccent" unicode="&#x17b;" horiz-adv-x="929" 
d="M848 1253l-496 -1034h511v-219h-769v201l499 1034h-481v219h736v-201zM369 1803h229v-230h-229v230z" />
    <glyph glyph-name="zdotaccent" unicode="&#x17c;" horiz-adv-x="868" 
d="M763 843l-406 -630h433v-213h-694v200l419 626h-405v212h653v-195zM333 1481h228v-230h-228v230z" />
    <glyph glyph-name="Zcaron" unicode="&#x17d;" horiz-adv-x="929" 
d="M848 1253l-496 -1034h511v-219h-769v201l499 1034h-481v219h736v-201zM166 1809l127 132l190 -152l189 152l127 -132l-316 -254z" />
    <glyph glyph-name="zcaron" unicode="&#x17e;" horiz-adv-x="868" 
d="M763 843l-406 -630h433v-213h-694v200l419 626h-405v212h653v-195zM141 1522l131 118l175 -184l176 184l131 -118l-307 -316z" />
    <glyph glyph-name="uni0181" unicode="&#x181;" horiz-adv-x="1313" 
d="M-18 1198q0 122 72 189t203 67h221v-217h-188q-39 0 -60 -18t-21 -51v-69h-227v99zM480 217h329q89 0 135 40t46 113v98q0 55 -19.5 94t-58 60t-94.5 21h-338v214h336q76 0 116 41.5t40 118.5v76q0 70 -42 107.5t-120 37.5h-330v216h347q120 0 204 -41t127 -118t43 -186
v-77q0 -74 -27 -132.5t-80.5 -97t-128.5 -52.5q80 -11 137.5 -52t87.5 -105t30 -146v-99q0 -108 -44 -186.5t-128 -120t-200 -41.5h-368v217zM354 1454h229v-1454h-229v1454z" />
    <glyph glyph-name="uni0186" unicode="&#x186;" horiz-adv-x="1061" 
d="M291 36q-92 51 -143 154t-61 259v0h234v0q7 -80 31 -132.5t65 -78.5t98 -26q60 0 104 27.5t67.5 79t23.5 122.5v571q0 71 -23.5 122.5t-67.5 79.5t-104 28q-56 0 -97 -26.5t-65.5 -79t-31.5 -131.5v0h-234v0q10 156 61 259t142.5 154t224.5 51t229.5 -54.5t148 -157.5
t51.5 -245v-571q0 -142 -51.5 -244.5t-148 -157t-229.5 -54.5q-132 0 -224 51z" />
    <glyph glyph-name="uni0189" unicode="&#x189;" horiz-adv-x="1149" 
d="M308 219h282q100 0 154 52.5t54 148.5v614q0 96 -54 148.5t-154 52.5h-282v219h284q139 0 238 -49t150.5 -143t51.5 -226v-618q0 -130 -51 -224t-150 -144t-240 -50h-283v219zM167 1454h229v-1454h-229v1454zM611 830v-205h-575v205h575z" />
    <glyph glyph-name="uni018A" unicode="&#x18a;" horiz-adv-x="1336" 
d="M-18 1198q0 122 72 189t203 67h216v-217h-183q-39 0 -60 -18t-21 -51v-69h-227v99zM495 219h282q100 0 154 52.5t54 148.5v614q0 96 -54 148.5t-154 52.5h-282v219h284q139 0 238 -49t150.5 -143t51.5 -226v-618q0 -130 -51 -224t-150 -144t-240 -50h-283v219zM354 1454
h229v-1454h-229v1454z" />
    <glyph glyph-name="uni018E" unicode="&#x18e;" horiz-adv-x="999" 
d="M638 0v1454h229v-1454h-229zM72 0v220h693v-220h-693zM152 612v220h613v-220h-613zM72 1234v220h693v-220h-693z" />
    <glyph glyph-name="uni018F" unicode="&#x18f;" horiz-adv-x="1107" 
d="M331 36.5q-95 51.5 -145 149.5t-50 236v391h713v-216h-481v-174q0 -102 50.5 -157.5t141.5 -55.5q90 0 140 53t50 150v622q0 100 -51 154.5t-144 54.5q-84 0 -137.5 -49t-71.5 -144v0l-213 78v0q35 168 141 254t277 86q136 0 232.5 -51.5t147 -149.5t50.5 -236v-620
q0 -135 -49.5 -231t-144 -146t-227.5 -50q-134 0 -229 51.5z" />
    <glyph glyph-name="uni0190" unicode="&#x190;" horiz-adv-x="978" 
d="M288.5 27.5q-88.5 42.5 -134.5 124t-46 198.5v124q0 112 51 185.5t145 99.5q-84 40 -128 104t-44 146v116q0 111 43 187.5t125 116.5t201 40q124 0 207.5 -44.5t128.5 -135t51 -230.5v0h-232v0q-4 64 -22 105.5t-49.5 61.5t-77.5 20q-68 0 -104.5 -32.5t-36.5 -94.5v-113
q0 -68 32 -104t91 -36h140v-220h-140q-71 0 -109 -42t-38 -122v-122q0 -74 44 -113t125 -39q55 0 91 19.5t55 59.5t22 103v0h233v0q-4 -138 -50.5 -228t-135.5 -133.5t-222 -43.5q-127 0 -215.5 42.5z" />
    <glyph glyph-name="uni0191" unicode="&#x191;" horiz-adv-x="970" 
d="M2 -195h79q34 0 52.5 21.5t18.5 61.5v372h229v-398q0 -131 -67 -203t-189 -72h-123v218zM152 1454h229v-1454h-229v1454zM255 819h603v-219h-603v219zM255 1454h683v-219h-683v219z" />
    <glyph glyph-name="florin" unicode="&#x192;" horiz-adv-x="584" 
d="M47 -201h36q32 0 50 21t18 60v220h229v-246q0 -132 -67 -204t-189 -72h-77v221zM151 1179q0 138 64.5 206.5t197.5 68.5h149v-212h-118q-31 0 -47.5 -22.5t-16.5 -58.5v-1161h-229v1179zM47 1038h515v-199h-515v199z" />
    <glyph glyph-name="uni0194" unicode="&#x194;" horiz-adv-x="1002" 
d="M311 -373q-59 49 -59 158q0 57 36.5 144t116.5 222h192q81 -135 117.5 -222t36.5 -144q0 -109 -59.5 -158t-190.5 -49t-190 49zM534.5 -229q10.5 13 10.5 42q0 20 -10.5 53t-33.5 87q-44 -111 -44 -140t10.5 -42t33.5 -13t33.5 13zM12 1454h242l247 -1057l248 1057h241
l-380 -1454h-218z" />
    <glyph glyph-name="uni0198" unicode="&#x198;" horiz-adv-x="1094" 
d="M298 626l399 686q28 52 59.5 84.5t71 48.5t92.5 16h124v-219h-84q-27 0 -48 -16.5t-47 -56.5l-567 -907v364zM132 1454h229v-1454h-229v1454zM480 771l174 149l443 -920h-266z" />
    <glyph glyph-name="uni0199" unicode="&#x199;" horiz-adv-x="953" 
d="M244 400l436 638h245l-670 -919zM450 550l156 145l365 -695h-252zM127 1189q0 131 67 203t189 72h123v-220h-81q-33 0 -51 -21.5t-18 -59.5v-1163h-229v1189z" />
    <glyph glyph-name="Ohorn" unicode="&#x1a0;" horiz-adv-x="1172" 
d="M694 1285v159h159q133 0 133 147v35h220v-55q0 -144 -70 -215t-212 -71h-230zM325.5 39q-100.5 54 -154.5 154.5t-54 236.5v594q0 136 54 236.5t154.5 154.5t235.5 54t235.5 -54t154.5 -154.5t54 -236.5v-594q0 -136 -54 -236.5t-154.5 -154.5t-235.5 -54t-235.5 54z
M672.5 239q47.5 27 73 77t25.5 117v589q0 67 -25.5 117t-73 76.5t-111.5 26.5t-111.5 -26.5t-73 -76.5t-25.5 -117v-589q0 -67 25.5 -117t73 -77t111.5 -27t111.5 27z" />
    <glyph glyph-name="ohorn" unicode="&#x1a1;" horiz-adv-x="983" 
d="M537 1038h129q64 0 99 36t35 100v77h220v-97q0 -121 -73.5 -188.5t-208.5 -67.5h-201v140zM273 29q-83 44 -127 127.5t-44 200.5v331q0 116 44 198.5t127 125.5t201 43q117 0 200 -43t126.5 -125.5t43.5 -198.5v-334q0 -116 -43.5 -199t-126.5 -126.5t-200 -43.5
q-118 0 -201 44zM578.5 243.5q37.5 41.5 37.5 117.5v320q0 75 -37.5 116t-105.5 41q-67 0 -105 -41t-38 -116v-320q0 -76 37.5 -117.5t105.5 -41.5t105.5 41.5z" />
    <glyph glyph-name="Uhorn" unicode="&#x1af;" horiz-adv-x="1227" 
d="M312.5 37.5q-96.5 52.5 -146.5 153t-50 242.5v1021h229v-1028q0 -103 52.5 -159t147.5 -56q97 0 149.5 56t52.5 159v1028h229v-1021q0 -142 -50.5 -242.5t-147 -153t-233.5 -52.5q-136 0 -232.5 52.5zM767 1314v140h140q64 0 99 36t35 100v76h220v-96q0 -121 -74 -188.5
t-208 -67.5h-212z" />
    <glyph glyph-name="uhorn" unicode="&#x1b0;" horiz-adv-x="1111" 
d="M637 1038h227v-1038h-227v1038zM356 341q0 -70 36.5 -107.5t104.5 -36.5q68 -1 104 35.5t36 105.5l14 -168q-29 -85 -88 -135t-146 -50q-141 0 -215.5 90.5t-74.5 260.5v702h229v-697zM654 898v140h140q64 0 99 36t35 100v77h220v-97q0 -121 -74 -188.5t-208 -67.5h-212z
" />
    <glyph glyph-name="uni01B2" unicode="&#x1b2;" horiz-adv-x="1092" 
d="M312.5 37.5q-96.5 52.5 -146.5 153t-50 242.5v1021h229v-1028q0 -103 52.5 -159t147.5 -56q97 0 149.5 56t52.5 159v662h229v-655q0 -142 -50.5 -242.5t-147 -153t-233.5 -52.5q-136 0 -232.5 52.5zM747 1153q0 38 -18 59.5t-51 21.5h-64v220h106q122 0 189 -72t67 -203
v-321h-229v295z" />
    <glyph glyph-name="uni01B3" unicode="&#x1b3;" horiz-adv-x="902" 
d="M326 579l-359 875h242l263 -709l83 -68v-677h-229v579zM391 674l191 561q7 19 20 51q26 62 53 98t69 56.5t105 20.5h121v-219h-82q-28 0 -44 -16t-30 -52l-287 -714z" />
    <glyph glyph-name="uni01B4" unicode="&#x1b4;" horiz-adv-x="954" 
d="M144 -211h53q56 0 88.5 23t46.5 77l263 970q26 98 85.5 146t154.5 48h107v-219h-65q-36 0 -59 -18.5t-34 -56.5l-291 -1002q-20 -67 -58 -109t-97 -61.5t-142 -19.5h-52v222zM37 1038h223l272 -900l-125 -230z" />
    <glyph glyph-name="uni01B7" unicode="&#x1b7;" horiz-adv-x="963" 
d="M244 28q-86 43 -130 132.5t-48 229.5v0h233v0q5 -94 44 -138t116 -44q80 0 121 38.5t41 113.5v146q0 81 -42 123t-123 42h-145v220h145q130 0 219 -44.5t134.5 -131t45.5 -213.5v-149q0 -121 -44.5 -202.5t-132 -123.5t-215.5 -42q-133 0 -219 43zM311 891l259 344h-466
v219h734v-201l-337 -458z" />
    <glyph glyph-name="uni01DD" unicode="&#x1dd;" horiz-adv-x="950" 
d="M268 37.5q-83 52.5 -126.5 152.5t-43.5 241v176h586v-172h-369v-65q0 -85 40.5 -131.5t112.5 -46.5q78 0 121 51.5t43 145.5v269q0 89 -44 138t-124 49q-59 0 -99 -28.5t-57 -84.5v0l-198 77v0q30 121 117.5 182.5t227.5 61.5q124 0 212.5 -47t135 -137t46.5 -216v-252
q0 -131 -45 -225t-130.5 -142.5t-205.5 -48.5q-117 0 -200 52.5z" />
    <glyph glyph-name="uni0218" unicode="&#x218;" horiz-adv-x="1072" 
d="M317.5 21q-91.5 36 -152 106t-85.5 173v0l216 95v0q27 -93 89 -141t151 -48q102 0 158 44.5t56 124.5v64q0 57 -31 93.5t-79 57t-127 44.5q-2 1 -4.5 1.5t-4.5 1.5l-11 3q-120 35 -195.5 71.5t-129 115t-53.5 211.5v40q0 124 51.5 212t150.5 133.5t239 45.5
q105 0 186.5 -34.5t136 -102t80.5 -166.5v0l-207 -96v0q-27 87 -79.5 133t-123.5 46q-99 0 -152.5 -42t-53.5 -119v-48q0 -60 32 -97t80.5 -58t133.5 -46q5 -2 10 -3.5t11 -3.5q4 -1 8.5 -2.5t9.5 -2.5q109 -34 180.5 -71.5t120 -113t48.5 -202.5v-64q0 -124 -52.5 -211.5
t-153.5 -133.5t-243 -46q-119 0 -210.5 36zM422 -127h229v-192l-229 -203v395z" />
    <glyph glyph-name="uni0219" unicode="&#x219;" horiz-adv-x="900" 
d="M252 13.5q-80 28.5 -132.5 84.5t-75.5 137v0l194 94v0q30 -68 82.5 -102.5t123.5 -34.5q76 0 118 30.5t42 83.5q0 40 -23.5 63t-59.5 34.5t-101 24.5l-20 4l-20 4q-4 1 -7 1.5t-6 1.5q-88 20 -148 47.5t-100 87.5t-40 162q0 100 42.5 171.5t123 109t192.5 37.5
q96 0 169.5 -26.5t123 -78t72.5 -126.5v0l-194 -91v0q-26 56 -70 86t-102 30q-68 0 -105 -28.5t-37 -79.5q0 -38 24.5 -60t61 -32.5t101.5 -23.5q4 0 7.5 -0.5t6.5 -1.5q2 -1 4.5 -1t4.5 -1q97 -18 161 -43.5t108.5 -89.5t44.5 -178q0 -102 -45 -175t-130.5 -111t-206.5 -38
q-104 0 -184 28.5zM326 -131h229v-192l-229 -203v395z" />
    <glyph glyph-name="uni021A" unicode="&#x21a;" horiz-adv-x="846" 
d="M309 1334h229v-1334h-229v1334zM-18 1454h882v-219h-882v219zM309 -127h229v-192l-229 -203v395z" />
    <glyph glyph-name="uni021B" unicode="&#x21b;" horiz-adv-x="603" 
d="M211.5 64.5q-61.5 69.5 -61.5 205.5v1070h229v-1043q0 -39 16.5 -60t47.5 -21h78v-221h-116q-132 0 -193.5 69.5zM47 1038h474v-206h-474v206zM187 -127h229v-192l-229 -203v395z" />
    <glyph glyph-name="uni0253" unicode="&#x253;" horiz-adv-x="969" 
d="M127 1189q0 131 67 203t189 72h123v-220h-81q-33 0 -51 -21.5t-18 -59.5v-1163h-229v1189zM432.5 31.5q-61.5 46.5 -90.5 131.5l14 190q0 -50 16.5 -85.5t48 -54.5t75.5 -19q68 0 106 46t38 130v298q0 84 -38 130t-106 46q-44 0 -75.5 -18t-48 -53.5t-16.5 -85.5l-21 176
q40 91 104.5 140.5t142.5 49.5q90 0 154.5 -43.5t97.5 -127.5t33 -202v-321q0 -118 -34 -202t-99.5 -128t-157.5 -44q-82 0 -143.5 46.5z" />
    <glyph glyph-name="uni0254" unicode="&#x254;" horiz-adv-x="896" 
d="M162 53.5q-90 68.5 -112 202.5v0l212 68v0q17 -69 54 -104.5t91 -35.5q76 0 117 48t41 135v299q0 85 -41 131.5t-117 46.5q-56 0 -93.5 -35t-51.5 -105v0l-211 69v0q22 139 112 209.5t242 70.5q123 0 210.5 -45.5t133 -132t45.5 -209.5v-299q0 -121 -45.5 -206.5
t-133 -130.5t-210.5 -45q-153 0 -243 68.5z" />
    <glyph glyph-name="uni0256" unicode="&#x256;" horiz-adv-x="964" 
d="M680 -350q-67 72 -67 203v342h229v-315q0 -39 17.5 -60t50.5 -21h82v-221h-124q-121 0 -188 72zM613 1454h229v-1454h-229v1454zM233 26q-64 43 -97.5 125t-33.5 198v337q0 116 33.5 199.5t97 126.5t152.5 43q78 0 143.5 -48.5t105.5 -137.5l-21 -180q0 49 -16.5 84
t-47.5 53.5t-76 18.5q-68 0 -106 -45.5t-38 -127.5v-312q0 -79 38 -122.5t106 -43.5q45 0 76 18t47.5 52.5t16.5 83.5l14 -185q-29 -83 -91.5 -131.5t-148.5 -48.5q-90 0 -154 43z" />
    <glyph glyph-name="uni0257" unicode="&#x257;" horiz-adv-x="964" 
d="M613 1189q0 131 67 203t188 72h124v-220h-82q-33 0 -50.5 -21.5t-17.5 -59.5v-1163h-229v1189zM233 26q-64 43 -97.5 125t-33.5 198v337q0 116 33.5 199.5t97 126.5t152.5 43q78 0 143.5 -48.5t105.5 -137.5l-21 -180q0 49 -16.5 84t-47.5 53.5t-76 18.5
q-68 0 -106 -45.5t-38 -127.5v-312q0 -79 38 -122.5t106 -43.5q45 0 76 18t47.5 52.5t16.5 83.5l14 -185q-29 -83 -91.5 -131.5t-148.5 -48.5q-90 0 -154 43z" />
    <glyph glyph-name="uni0259" unicode="&#x259;" horiz-adv-x="950" 
d="M268 37.5q-83 52.5 -126.5 152.5t-43.5 241v176h586v-172h-369v-65q0 -85 40.5 -131.5t112.5 -46.5q78 0 121 51.5t43 145.5v269q0 89 -44 138t-124 49q-59 0 -99 -28.5t-57 -84.5v0l-198 77v0q30 121 117.5 182.5t227.5 61.5q124 0 212.5 -47t135 -137t46.5 -216v-252
q0 -131 -45 -225t-130.5 -142.5t-205.5 -48.5q-117 0 -200 52.5z" />
    <glyph glyph-name="uni025B" unicode="&#x25b;" horiz-adv-x="831" 
d="M183 59.5q-91 74.5 -91 213.5v77q0 50 16 89t48.5 65t80.5 38q-66 26 -98.5 75.5t-32.5 115.5v66q0 124 86.5 190t249.5 66q134 0 218 -52.5t111 -150.5v-38l-183 -73v22q-22 39 -58 59t-85 20q-57 0 -87.5 -21t-30.5 -61v-43q0 -38 24.5 -58t68.5 -20h140v-202h-140
q-51 0 -79 -22.5t-28 -64.5v-50q0 -49 34 -76t96 -27q48 0 88.5 22t68.5 63v31l181 -80v-49q-33 -97 -118.5 -148t-217.5 -51q-171 0 -262 74.5z" />
    <glyph glyph-name="uni02BB" unicode="&#x2bb;" horiz-adv-x="325" 
d="M48 1239l229 200v-432h-229v232z" />
    <glyph glyph-name="uni02BC" unicode="&#x2bc;" horiz-adv-x="325" 
d="M48 1454h229v-231l-229 -200v431z" />
    <glyph glyph-name="circumflex" unicode="&#x2c6;" horiz-adv-x="669" 
d="M640 1324l-130 -118l-175 184l-175 -184l-131 118l306 316z" />
    <glyph glyph-name="caron" unicode="&#x2c7;" horiz-adv-x="669" 
d="M29 1522l131 118l175 -184l176 184l131 -118l-307 -316z" />
    <glyph glyph-name="uni02C9" unicode="&#x2c9;" horiz-adv-x="710" 
d="M670 1449v-227h-630v227h630z" />
    <glyph glyph-name="breve" unicode="&#x2d8;" horiz-adv-x="634" 
d="M99 1301q-72 80 -72 234v42h184v-37q0 -73 25 -110.5t72 -37.5h18q48 0 72.5 37.5t24.5 110.5v37h184v-42q0 -154 -71.5 -234t-209.5 -80h-18q-137 0 -209 80z" />
    <glyph glyph-name="dotaccent" unicode="&#x2d9;" horiz-adv-x="424" 
d="M98 1481h228v-230h-228v230z" />
    <glyph glyph-name="ogonek" unicode="&#x2db;" horiz-adv-x="327" 
d="M63 -373q-58 47 -58 148q0 85 61.5 155t178.5 122l77 -52q-64 -38 -94.5 -77.5t-30.5 -85.5q0 -30 18 -44.5t56 -14.5h51v-198h-79q-122 0 -180 47z" />
    <glyph glyph-name="tilde" unicode="&#x2dc;" horiz-adv-x="705" 
d="M433.5 1231q-27.5 9 -59.5 28l-8 5q-4 3 -9 6.5t-9 5.5q-30 19 -50 28t-40 9q-28 0 -40.5 -13t-12.5 -41v-38h-175v55q0 124 46 185t139 61q32 0 61.5 -10.5t61.5 -30.5l9 -5l15 -9q28 -17 46.5 -25.5t35.5 -8.5q28 0 41.5 15t13.5 46v33h175v-52q0 -127 -45.5 -190
t-137.5 -63q-30 0 -57.5 9z" />
    <glyph glyph-name="hungarumlaut" unicode="&#x2dd;" horiz-adv-x="777" 
d="M385 1294l203 366l183 -116l-222 -346zM6 1294l204 366l182 -116l-222 -346z" />
    <glyph glyph-name="gravecomb" unicode="&#x300;" 
d="M-442 1542l166 133l266 -355l-147 -114z" />
    <glyph glyph-name="acutecomb" unicode="&#x301;" 
d="M-466 1321l266 355l166 -134l-285 -336z" />
    <glyph glyph-name="uni0302" unicode="&#x302;" 
d="M-26 1324l-130 -118l-175 184l-175 -184l-131 118l306 316z" />
    <glyph glyph-name="tildecomb" unicode="&#x303;" 
d="M-280.5 1232q-27.5 9 -59.5 28l-8 5q-4 3 -9 6.5t-9 5.5q-30 19 -50 28t-40 9q-28 0 -40.5 -13t-12.5 -41v-38h-175v55q0 124 46 185t139 61q32 0 61.5 -10.5t61.5 -30.5l9 -5l15 -9q28 -17 46.5 -25.5t35.5 -8.5q28 0 41.5 15t13.5 46v33h175v-52q0 -127 -45.5 -190
t-137.5 -63q-30 0 -57.5 9z" />
    <glyph glyph-name="uni0304" unicode="&#x304;" 
d="M-100 1449v-227h-630v227h630z" />
    <glyph glyph-name="uni0306" unicode="&#x306;" 
d="M-575 1301q-72 80 -72 234v42h184v-37q0 -73 25 -110.5t72 -37.5h18q48 0 72.5 37.5t24.5 110.5v37h184v-42q0 -154 -71.5 -234t-209.5 -80h-18q-137 0 -209 80z" />
    <glyph glyph-name="uni0307" unicode="&#x307;" 
d="M-238 1481h228v-230h-228v230z" />
    <glyph glyph-name="uni0308" unicode="&#x308;" 
d="M-278 1469h229v-229h-229v229zM-664 1469h228v-229h-228v229z" />
    <glyph glyph-name="hookabovecomb" unicode="&#x309;" 
d="M-114 1609.5q57 -43.5 57 -132.5q0 -154 -208 -154l-95 79q105 0 105 48t-70 48q-45 0 -93 -14l-22 151q61 18 153 18q116 0 173 -43.5zM-376 1402l188 -2v-150h-188v152z" />
    <glyph glyph-name="uni030A" unicode="&#x30a;" 
d="M-476.5 1269.5q-62.5 62.5 -62.5 180.5q0 124 62.5 189t181.5 65q118 0 181 -66t63 -188q0 -118 -63 -180.5t-181 -62.5q-119 0 -181.5 62.5zM-234 1382.5q21 25.5 21 71.5q0 49 -21 75t-61 26t-61 -26t-21 -75q0 -47 21 -72t61 -25t61 25.5z" />
    <glyph glyph-name="uni030B" unicode="&#x30b;" 
d="M-423 1294l203 366l183 -116l-222 -346zM-802 1294l204 366l182 -116l-222 -346z" />
    <glyph glyph-name="uni030C" unicode="&#x30c;" 
d="M-645 1522l131 118l175 -184l176 184l131 -118l-307 -316z" />
    <glyph glyph-name="uni031B" unicode="&#x31b;" 
d="M-494 898v140h140q64 0 99 36t35 100v77h220v-97q0 -121 -74 -188.5t-208 -67.5h-212z" />
    <glyph glyph-name="dotbelowcomb" unicode="&#x323;" 
d="M-266 -174h229v-230h-229v230z" />
    <glyph glyph-name="uni0326" unicode="&#x326;" 
d="M-245 -127h229v-192l-229 -203v395z" />
    <glyph glyph-name="uni0327" unicode="&#x327;" 
d="M-430 -404l41 145q48 -14 95 -14q41 0 61.5 11.5t20.5 34.5q0 24 -32 36t-96 12l92 116q113 0 171.5 -45t58.5 -134t-64 -134.5t-188 -45.5q-96 0 -160 18zM-352 91h180v-270h-180v270z" />
    <glyph glyph-name="uni0328" unicode="&#x328;" 
d="M-269 -373q-58 47 -58 148q0 85 61.5 155t178.5 122l77 -52q-64 -38 -94.5 -77.5t-30.5 -85.5q0 -30 18 -44.5t56 -14.5h51v-198h-79q-122 0 -180 47z" />
    <glyph glyph-name="uni0335" unicode="&#x335;" 
d="M-110 832v-210h-550v210h550z" />
    <glyph glyph-name="uni0345" unicode="&#x345;" 
d="M-205 -154q0 -33 15.5 -51t42.5 -18h62v-199h-121q-99 0 -153.5 60t-54.5 170v113h209v-75z" />
    <glyph glyph-name="uni0370" unicode="&#x370;" horiz-adv-x="903" 
d="M132 1454h230v-1454h-230v1454zM257 826h544v-217h-544v217z" />
    <glyph glyph-name="uni0371" unicode="&#x371;" horiz-adv-x="661" 
d="M127 1038h229v-1038h-229v1038zM265 617h339v-215h-339v215z" />
    <glyph glyph-name="uni0372" unicode="&#x372;" horiz-adv-x="1039" 
d="M22 1454h221v-476h-221v476zM756 1454h221v-476h-221v476zM384 1334h229v-1334h-229v1334zM57 1454h882v-219h-882v219z" />
    <glyph glyph-name="uni0373" unicode="&#x373;" horiz-adv-x="899" 
d="M2 1454h206v-463h-206v463zM651 1454h206v-463h-206v463zM316 1333h227v-1333h-227v1333zM7 1454h845v-209h-845v209z" />
    <glyph glyph-name="uni0374" unicode="&#x374;" horiz-adv-x="325" 
d="M49 1254l227 200v-431h-227v231z" />
    <glyph glyph-name="uni0375" unicode="&#x375;" horiz-adv-x="395" 
d="M83 32l229 199v-431h-229v232z" />
    <glyph glyph-name="uni0376" unicode="&#x376;" horiz-adv-x="1174" 
d="M824 1v1090l23 -27l-502 -1063h-213v1453h219v-1102l-24 27l504 1075h211v-1453h-218z" />
    <glyph glyph-name="uni0377" unicode="&#x377;" horiz-adv-x="997" 
d="M656 1v706l24 -26l-364 -680h-189v1037h214v-714l-24 26l366 688h186v-1037h-213z" />
    <glyph glyph-name="uni037A" unicode="&#x37a;" horiz-adv-x="283" 
d="M231 -154q0 -33 15.5 -51t42.5 -18h72v-199h-131q-97 0 -150 60t-53 170v113h204v-75z" />
    <glyph glyph-name="uni037B" unicode="&#x37b;" horiz-adv-x="896" 
d="M162 53.5q-90 68.5 -112 202.5v0l212 68v0q17 -69 54 -104.5t91 -35.5q76 0 117 48t41 135v299q0 85 -41 131.5t-117 46.5q-56 0 -93.5 -35t-51.5 -105v0l-211 69v0q22 139 112 209.5t242 70.5q123 0 210.5 -45.5t133 -132t45.5 -209.5v-299q0 -121 -45.5 -206.5
t-133 -130.5t-210.5 -45q-153 0 -243 68.5z" />
    <glyph glyph-name="uni037C" unicode="&#x37c;" horiz-adv-x="896" 
d="M281 30q-87 45 -133 130.5t-46 206.5v301q0 122 46 209t133 132t210 45q104 0 177.5 -30.5t118 -93t59.5 -156.5v0l-211 -68v0q-14 67 -50 100.5t-93 33.5q-77 0 -119 -46.5t-42 -130.5v-291q0 -83 42 -128t119 -45q57 0 93.5 32.5t49.5 97.5v0l211 -72v0
q-14 -92 -58.5 -152.5t-118.5 -90t-178 -29.5q-123 0 -210 45zM447 630h231v-231h-231v231z" />
    <glyph glyph-name="uni037D" unicode="&#x37d;" horiz-adv-x="896" 
d="M162 53.5q-90 68.5 -112 202.5v0l212 68v0q17 -69 54 -104.5t91 -35.5q76 0 117 48t41 135v299q0 85 -41 131.5t-117 46.5q-56 0 -93.5 -35t-51.5 -105v0l-211 69v0q22 139 112 209.5t242 70.5q123 0 210.5 -45.5t133 -132t45.5 -209.5v-299q0 -121 -45.5 -206.5
t-133 -130.5t-210.5 -45q-153 0 -243 68.5zM219 630h231v-231h-231v231z" />
    <glyph glyph-name="uni037E" unicode="&#x37e;" horiz-adv-x="395" 
d="M83 231h229v-231l-229 -200v431zM83 1042h229v-229h-229v229z" />
    <glyph glyph-name="uni037F" unicode="&#x37f;" horiz-adv-x="880" 
d="M156 29.5q-89 44.5 -144 124.5l176 143q30 -42 73.5 -64.5t93.5 -22.5q77 0 119 48.5t42 137.5v1058h232v-1067q0 -127 -46.5 -217t-134.5 -137.5t-213 -47.5q-109 0 -198 44.5z" />
    <glyph glyph-name="tonos" unicode="&#x384;" horiz-adv-x="391" 
d="M30.4023 1254.82l128.524 424.516l201.795 -69.1348l-152.874 -413.161z" />
    <glyph glyph-name="dieresistonos" unicode="&#x385;" horiz-adv-x="850" 
d="M602 1453h228v-229h-228v229zM20 1453h229v-229h-229v229zM288 1254l130 425l202 -69l-153 -413z" />
    <glyph glyph-name="Alphatonos" unicode="&#x386;" horiz-adv-x="1217" 
d="M572 1454h174l444 -1454h-241l-290 1069l-289 -1069h-242zM370 491h589v-217h-589v217zM27.4023 1046.82l128.524 424.516l201.795 -69.1348l-152.874 -413.161z" />
    <glyph glyph-name="anoteleia" unicode="&#x387;" horiz-adv-x="395" 
d="M83 1042h229v-229h-229v229z" />
    <glyph glyph-name="Epsilontonos" unicode="&#x388;" horiz-adv-x="1224" 
d="M357 1454h229v-1454h-229v1454zM459 220h693v-220h-693v220zM459 832h613v-220h-613v220zM459 1454h693v-220h-693v220zM-37.5977 1046.82l128.524 424.516l201.795 -69.1348l-152.874 -413.161z" />
    <glyph glyph-name="Etatonos" unicode="&#x389;" horiz-adv-x="1376" 
d="M1015 1454h229v-1454h-229v1454zM378 1454h230v-1454h-230v1454zM503 826h647v-217h-647v217zM-37.5977 1046.82l128.524 424.516l201.795 -69.1348l-152.874 -413.161z" />
    <glyph glyph-name="Iotatonos" unicode="&#x38a;" horiz-adv-x="705" 
d="M583 0h-231v1454h231v-1454zM-37.5977 1046.82l128.524 424.516l201.795 -69.1348l-152.874 -413.161z" />
    <glyph glyph-name="Omicrontonos" unicode="&#x38c;" horiz-adv-x="1320" 
d="M523.5 39q-100.5 54 -154.5 154.5t-54 236.5v594q0 136 54 236.5t154.5 154.5t235.5 54t235.5 -54t154.5 -154.5t54 -236.5v-594q0 -136 -54 -236.5t-154.5 -154.5t-235.5 -54t-235.5 54zM870.5 239q47.5 27 73 77t25.5 117v589q0 67 -25.5 117t-73 76.5t-111.5 26.5
t-111.5 -26.5t-73 -76.5t-25.5 -117v-589q0 -67 25.5 -117t73 -77t111.5 -27t111.5 27zM-32.5977 1046.82l128.524 424.516l201.795 -69.1348l-152.874 -413.161z" />
    <glyph glyph-name="Upsilontonos" unicode="&#x38e;" horiz-adv-x="1280" 
d="M960 579v-579h-229v579l-359 875h242l231 -627l227 627h241zM27.4023 1046.82l128.524 424.516l201.795 -69.1348l-152.874 -413.161z" />
    <glyph glyph-name="Omegatonos" unicode="&#x38f;" horiz-adv-x="1397" 
d="M569 191q-85 44 -131 125t-46 191v517q0 136 54 236.5t154.5 154.5t235.5 54t235.5 -54t154.5 -154.5t54 -236.5v-517q0 -110 -46 -191t-130.5 -125t-199.5 -44v75q43 0 76 24t51 69t18 105v602q0 68 -26 118t-74 77.5t-113 27.5t-113 -27.5t-73.5 -77.5t-25.5 -118v-602
q0 -60 17.5 -105t50.5 -69t77 -24v-75q-115 0 -200 44zM392 221h377v-221h-377v221zM904 221h376v-221h-376v221zM27.4023 1046.82l128.524 424.516l201.795 -69.1348l-152.874 -413.161z" />
    <glyph glyph-name="iotadieresistonos" unicode="&#x390;" horiz-adv-x="517" 
d="M184 67q-66 69 -66 196v775h229v-736q0 -42 18 -64.5t52 -22.5h68v-217h-115q-120 0 -186 69zM412 1453h228v-229h-228v229zM-170 1453h229v-229h-229v229zM98 1254l130 425l202 -69l-153 -413z" />
    <glyph glyph-name="Alpha" unicode="&#x391;" horiz-adv-x="1116" 
d="M471 1454h174l444 -1454h-241l-290 1069l-289 -1069h-242zM269 491h589v-217h-589v217z" />
    <glyph glyph-name="Beta" unicode="&#x392;" horiz-adv-x="1091" 
d="M258 217h329q89 0 135 40t46 113v98q0 55 -19.5 94t-58 60t-94.5 21h-338v214h336q76 0 116 41.5t40 118.5v76q0 70 -42 107.5t-120 37.5h-330v216h347q120 0 204 -41t127 -118t43 -186v-77q0 -74 -27 -132.5t-80.5 -97t-128.5 -52.5q80 -11 137.5 -52t87.5 -105t30 -146
v-99q0 -108 -44 -186.5t-128 -120t-200 -41.5h-368v217zM132 1454h229v-1454h-229v1454z" />
    <glyph glyph-name="Gamma" unicode="&#x393;" horiz-adv-x="800" 
d="M132 1454h229v-1454h-229v1454zM251 1454h566v-219h-566v219z" />
    <glyph glyph-name="uni0394" unicode="&#x394;" horiz-adv-x="1116" 
d="M471 1454h174l444 -1454h-241l-290 1069l-289 -1069h-242zM211 217h697v-217h-697v217z" />
    <glyph glyph-name="Epsilon" unicode="&#x395;" horiz-adv-x="999" 
d="M132 1454h229v-1454h-229v1454zM234 220h693v-220h-693v220zM234 832h613v-220h-613v220zM234 1454h693v-220h-693v220z" />
    <glyph glyph-name="Zeta" unicode="&#x396;" horiz-adv-x="929" 
d="M848 1253l-496 -1034h511v-219h-769v201l499 1034h-481v219h736v-201z" />
    <glyph glyph-name="Eta" unicode="&#x397;" horiz-adv-x="1130" 
d="M769 1454h229v-1454h-229v1454zM132 1454h230v-1454h-230v1454zM257 826h647v-217h-647v217z" />
    <glyph glyph-name="Theta" unicode="&#x398;" horiz-adv-x="1122" 
d="M444 832h234v-219h-234v219zM325.5 39q-100.5 54 -154.5 154.5t-54 236.5v594q0 136 54 236.5t154.5 154.5t235.5 54t235.5 -54t154.5 -154.5t54 -236.5v-594q0 -136 -54 -236.5t-154.5 -154.5t-235.5 -54t-235.5 54zM672.5 239q47.5 27 73 77t25.5 117v589
q0 67 -25.5 117t-73 76.5t-111.5 26.5t-111.5 -26.5t-73 -76.5t-25.5 -117v-589q0 -67 25.5 -117t73 -77t111.5 -27t111.5 27z" />
    <glyph glyph-name="Iota" unicode="&#x399;" horiz-adv-x="475" 
d="M353 0h-231v1454h231v-1454z" />
    <glyph glyph-name="Kappa" unicode="&#x39a;" horiz-adv-x="1094" 
d="M300 631l472 823h271l-746 -1192zM132 1454h229v-1454h-229v1454zM480 771l174 149l443 -920h-266z" />
    <glyph glyph-name="Lambda" unicode="&#x39b;" horiz-adv-x="1116" 
d="M471 1454h174l444 -1454h-241l-290 1069l-289 -1069h-242z" />
    <glyph glyph-name="Mu" unicode="&#x39c;" horiz-adv-x="1366" 
d="M996 1454h238v-1454h-211v1084l13 -64l-274 -805h-158l-274 785l16 84v-1084h-214v1454h241l310 -911z" />
    <glyph glyph-name="Nu" unicode="&#x39d;" horiz-adv-x="1174" 
d="M132 1454h221l498 -1081l-27 -29v1110h218v-1453h-222l-496 1050l26 29v-1079h-218v1453z" />
    <glyph glyph-name="Xi" unicode="&#x39e;" horiz-adv-x="1110" 
d="M122 229h866v-229h-866v229zM203 837h704v-229h-704v229zM122 1454h866v-229h-866v229z" />
    <glyph glyph-name="Omicron" unicode="&#x39f;" horiz-adv-x="1122" 
d="M325.5 39q-100.5 54 -154.5 154.5t-54 236.5v594q0 136 54 236.5t154.5 154.5t235.5 54t235.5 -54t154.5 -154.5t54 -236.5v-594q0 -136 -54 -236.5t-154.5 -154.5t-235.5 -54t-235.5 54zM672.5 239q47.5 27 73 77t25.5 117v589q0 67 -25.5 117t-73 76.5t-111.5 26.5
t-111.5 -26.5t-73 -76.5t-25.5 -117v-589q0 -67 25.5 -117t73 -77t111.5 -27t111.5 27z" />
    <glyph glyph-name="Pi" unicode="&#x3a0;" horiz-adv-x="1130" 
d="M769 1454h229v-1454h-229v1454zM132 1454h229v-1454h-229v1454zM260 1454h641v-219h-641v219z" />
    <glyph glyph-name="Rho" unicode="&#x3a1;" horiz-adv-x="1085" 
d="M245 783h366q46 0 80.5 21.5t53 61t18.5 92.5v99q0 54 -18.5 94.5t-53 62t-80.5 21.5h-366v219h363q119 0 207 -47t135.5 -134.5t47.5 -206.5v-119q0 -117 -47.5 -203.5t-135.5 -133t-207 -46.5h-363v219zM132 1454h229v-1454h-229v1454z" />
    <glyph glyph-name="Sigma" unicode="&#x3a3;" horiz-adv-x="841" 
d="M799 1230h-478l324 -503l-324 -503h478v-224h-757v206l339 521l-339 521v206h757v-224z" />
    <glyph glyph-name="Tau" unicode="&#x3a4;" horiz-adv-x="846" 
d="M309 1334h229v-1334h-229v1334zM-18 1454h882v-219h-882v219z" />
    <glyph glyph-name="Upsilon" unicode="&#x3a5;" horiz-adv-x="875" 
d="M555 579v-579h-229v579l-359 875h242l231 -627l227 627h241z" />
    <glyph glyph-name="Phi" unicode="&#x3a6;" horiz-adv-x="1392" 
d="M356 216.5q-141 61.5 -215 180.5t-74 288v134q0 169 74 288t215 180.5t340 61.5t340 -61.5t215 -180.5t74 -288v-134q0 -169 -74 -288t-215 -180.5t-340 -61.5t-340 61.5zM580 1504h232v-1504h-232v1504zM997 451.5q106 81.5 106 233.5v134q0 153 -106 234t-301 81
t-301 -81t-106 -234v-134q0 -152 106 -233.5t301 -81.5t301 81.5z" />
    <glyph glyph-name="Chi" unicode="&#x3a7;" horiz-adv-x="982" 
d="M442 612l-34 65l-394 777h248l262 -565l40 -78l416 -811h-248zM435 849l275 605h248l-406 -804l-302 -650h-248z" />
    <glyph glyph-name="Psi" unicode="&#x3a8;" horiz-adv-x="1252" 
d="M349 414q-114 58 -173.5 169t-59.5 269v602h226v-609q0 -85 33 -145.5t97 -92t154 -31.5q91 0 154.5 31.5t96.5 92t33 145.5v609h226v-602q0 -158 -59.5 -269t-173.5 -169t-277 -58t-277 58zM511 1454h232v-1454h-232v1454z" />
    <glyph glyph-name="uni03A9" unicode="&#x3a9;" horiz-adv-x="1122" 
d="M294 191q-85 44 -131 125t-46 191v517q0 136 54 236.5t154.5 154.5t235.5 54t235.5 -54t154.5 -154.5t54 -236.5v-517q0 -110 -46 -191t-130.5 -125t-199.5 -44v75q43 0 76 24t51 69t18 105v602q0 68 -26 118t-74 77.5t-113 27.5t-113 -27.5t-73.5 -77.5t-25.5 -118v-602
q0 -60 17.5 -105t50.5 -69t77 -24v-75q-115 0 -200 44zM117 221h377v-221h-377v221zM629 221h376v-221h-376v221z" />
    <glyph glyph-name="Iotadieresis" unicode="&#x3aa;" horiz-adv-x="475" 
d="M353 0h-231v1454h231v-1454zM323 1802h228v-228h-228v228zM-75 1802h228v-228h-228v228z" />
    <glyph glyph-name="Upsilondieresis" unicode="&#x3ab;" horiz-adv-x="875" 
d="M555 579v-579h-229v579l-359 875h242l231 -627l227 627h241zM535 1802h228v-228h-228v228zM137 1802h228v-228h-228v228z" />
    <glyph glyph-name="alphatonos" unicode="&#x3ac;" horiz-adv-x="1016" 
d="M237 29q-66 44 -100.5 127.5t-34.5 200.5v331q0 116 34.5 198.5t100.5 125.5t158 43q125 0 193.5 -83t68.5 -234v-434q0 -152 -68.5 -235.5t-193.5 -83.5q-92 0 -158 44zM578 245q39 43 39 121v310q0 77 -39 119.5t-110 42.5q-65 0 -101.5 -42.5t-36.5 -119.5v-310
q0 -78 36.5 -121t101.5 -43q71 0 110 43zM684.5 67q-65.5 69 -65.5 196v775h229v-736q0 -42 18 -64.5t51 -22.5h67v-217h-114q-120 0 -185.5 69zM380.402 1254.82l128.524 424.516l201.795 -69.1348l-152.874 -413.161z" />
    <glyph glyph-name="epsilontonos" unicode="&#x3ad;" horiz-adv-x="831" 
d="M183 59.5q-91 74.5 -91 213.5v77q0 50 16 89t48.5 65t80.5 38q-66 26 -98.5 75.5t-32.5 115.5v66q0 124 86.5 190t249.5 66q134 0 218 -52.5t111 -150.5v-38l-183 -73v22q-22 39 -58 59t-85 20q-57 0 -87.5 -21t-30.5 -61v-43q0 -38 24.5 -58t68.5 -20h140v-202h-140
q-51 0 -79 -22.5t-28 -64.5v-50q0 -49 34 -76t96 -27q48 0 88.5 22t68.5 63v31l181 -80v-49q-33 -97 -118.5 -148t-217.5 -51q-171 0 -262 74.5zM335.402 1254.82l128.524 424.516l201.795 -69.1348l-152.874 -413.161z" />
    <glyph glyph-name="etatonos" unicode="&#x3ae;" horiz-adv-x="999" 
d="M127 1038h230v-1038h-230v1038zM648 678q0 79 -38 120.5t-110 41.5q-70 0 -106.5 -40.5t-36.5 -116.5l-21 176q40 96 106 146t153 50q135 0 208.5 -90.5t73.5 -257.5v-994h-229v965zM419.402 1254.82l128.524 424.516l201.795 -69.1348l-152.874 -413.161z" />
    <glyph glyph-name="iotatonos" unicode="&#x3af;" horiz-adv-x="517" 
d="M184 67q-66 69 -66 196v775h229v-736q0 -42 18 -64.5t52 -22.5h68v-217h-115q-120 0 -186 69zM149.402 1254.82l128.524 424.516l201.795 -69.1348l-152.874 -413.161z" />
    <glyph glyph-name="upsilondieresistonos" unicode="&#x3b0;" horiz-adv-x="1012" 
d="M320.5 28q-82.5 43 -124.5 126.5t-42 205.5v392q0 39 -16 59t-47 20h-39v221h68q128 0 195 -69t67 -201v-420q0 -77 36 -117.5t104 -40.5q67 0 103 40.5t36 117.5v676h228v-678q0 -122 -42 -205.5t-123.5 -126.5t-201.5 -43q-119 0 -201.5 43zM681 1453h228v-229h-228
v229zM99 1453h229v-229h-229v229zM367 1254l130 425l202 -69l-153 -413z" />
    <glyph glyph-name="alpha" unicode="&#x3b1;" horiz-adv-x="1016" 
d="M237 29q-66 44 -100.5 127.5t-34.5 200.5v331q0 116 34.5 198.5t100.5 125.5t158 43q125 0 193.5 -83t68.5 -234v-434q0 -152 -68.5 -235.5t-193.5 -83.5q-92 0 -158 44zM578 245q39 43 39 121v310q0 77 -39 119.5t-110 42.5q-65 0 -101.5 -42.5t-36.5 -119.5v-310
q0 -78 36.5 -121t101.5 -43q71 0 110 43zM684.5 67q-65.5 69 -65.5 196v775h229v-736q0 -42 18 -64.5t51 -22.5h67v-217h-114q-120 0 -185.5 69z" />
    <glyph glyph-name="beta" unicode="&#x3b2;" horiz-adv-x="986" 
d="M455.5 17q-61.5 32 -97.5 97.5t-43 165.5l39 80q0 -48 21.5 -83t59.5 -53t87 -18q70 0 108.5 42t38.5 119v113q0 79 -36 123t-101 44h-70v218h70q53 0 83 38t30 107v104q0 67 -37 103.5t-104 36.5q-71 0 -110.5 -43t-39.5 -121v-88h-227v100q0 116 45 198.5t131 125.5
t207 43q116 0 198 -39.5t124.5 -115.5t42.5 -183v-109q0 -85 -43 -155.5t-125 -107.5q92 -26 142 -101t50 -184v-138q0 -167 -78 -259t-220 -92q-84 0 -145.5 32zM127 1035h227v-1457h-227v1457z" />
    <glyph glyph-name="gamma" unicode="&#x3b3;" horiz-adv-x="956" 
d="M385 5q0 19 -3.5 41t-10.5 45q-1 5 -2 9t-2 9l-190 656q-11 39 -34.5 59t-54.5 20h-51v209h127q79 0 135 -67.5t92 -207.5l177 -702l48 68v-566h-231v427zM453 89l239 949h232l-344 -1131z" />
    <glyph glyph-name="delta" unicode="&#x3b4;" horiz-adv-x="946" 
d="M273.5 28.5q-83.5 43.5 -127.5 126.5t-44 199v324q0 95 37.5 167.5t109 114.5t170.5 50l15 -28l-278 250v97l253 -69l226 -191q74 -60 119 -116.5t67.5 -118.5t22.5 -138v-345q0 -116 -43 -198t-126.5 -125t-200.5 -43t-200.5 43.5zM578.5 235q37.5 43 37.5 120v367
q0 76 -37.5 118.5t-105.5 42.5t-105.5 -42.5t-37.5 -118.5v-367q0 -77 37.5 -120t105.5 -43t105.5 43zM156 1454h641v-217h-641v217z" />
    <glyph glyph-name="epsilon" unicode="&#x3b5;" horiz-adv-x="831" 
d="M183 59.5q-91 74.5 -91 213.5v77q0 50 16 89t48.5 65t80.5 38q-66 26 -98.5 75.5t-32.5 115.5v66q0 124 86.5 190t249.5 66q134 0 218 -52.5t111 -150.5v-38l-183 -73v22q-22 39 -58 59t-85 20q-57 0 -87.5 -21t-30.5 -61v-43q0 -38 24.5 -58t68.5 -20h140v-202h-140
q-51 0 -79 -22.5t-28 -64.5v-50q0 -49 34 -76t96 -27q48 0 88.5 22t68.5 63v31l181 -80v-49q-33 -97 -118.5 -148t-217.5 -51q-171 0 -262 74.5z" />
    <glyph glyph-name="zeta" unicode="&#x3b6;" horiz-adv-x="895" 
d="M664 -93q0 40 -20 59t-63 19h-68q-144 2 -236 49t-136 143t-44 247q0 102 29 200t87 196t148 203q29 34 57 66t55 60q34 34 62.5 60.5t58.5 51.5l239 62v-96q-31 -21 -90 -80t-150 -162l-40 -45q-76 -89 -125 -172.5t-73 -168.5t-24 -175q0 -117 50 -170.5t159 -53.5h107
q126 0 186 -67t60 -207v-187h-229v168zM152 1234v220h681v-222z" />
    <glyph glyph-name="eta" unicode="&#x3b7;" horiz-adv-x="999" 
d="M127 1038h230v-1038h-230v1038zM648 678q0 79 -38 120.5t-110 41.5q-70 0 -106.5 -40.5t-36.5 -116.5l-21 176q40 96 106 146t153 50q135 0 208.5 -90.5t73.5 -257.5v-994h-229v965z" />
    <glyph glyph-name="theta" unicode="&#x3b8;" horiz-adv-x="946" 
d="M273 29q-83 44 -127 127.5t-44 200.5v745q0 116 44 198.5t127 125.5t201 43q117 0 200 -43t126.5 -125.5t43.5 -198.5v-748q0 -116 -43.5 -199t-126.5 -126.5t-200 -43.5q-118 0 -201 44zM582.5 240q38.5 43 38.5 121v734q0 78 -38.5 120.5t-109.5 42.5q-70 0 -109 -43
t-39 -120v-734q0 -78 39 -121t109 -43q71 0 109.5 43zM264 829h417v-213h-417v213z" />
    <glyph glyph-name="iota" unicode="&#x3b9;" horiz-adv-x="517" 
d="M184 67q-66 69 -66 196v775h229v-736q0 -42 18 -64.5t52 -22.5h68v-217h-115q-120 0 -186 69z" />
    <glyph glyph-name="kappa" unicode="&#x3ba;" horiz-adv-x="953" 
d="M286 429l319 478q47 72 108.5 109t136.5 37h79v-231h-30q-49 0 -85.5 -19t-65.5 -60l-438 -595zM127 1038h229v-1038h-229v1038zM450 550l156 145l365 -695h-252z" />
    <glyph glyph-name="lambda" unicode="&#x3bb;" horiz-adv-x="966" 
d="M248 0h-221l399 1108l117 -246zM245.5 1224q-24.5 20 -58.5 20h-48v217h137q66 0 113.5 -38t73.5 -117l330 -1019q13 -40 37 -59.5t57 -19.5h52v-218h-137q-62 0 -107 32t-67 99l-344 1044q-14 39 -38.5 59z" />
    <glyph glyph-name="uni03BC" unicode="&#x3bc;" horiz-adv-x="1042" 
d="M127 1041h229v-854l-9 -6l9 -461h-229v1321zM412 5.5q-37 20.5 -56.5 59.5t-20.5 95l21 170q0 -68 36.5 -103.5t105.5 -35.5q68 0 105 37t37 105l49 -173q-7 -85 -56.5 -130t-131.5 -45q-52 0 -89 20.5zM708.5 67q-68.5 69 -68.5 196v775h229v-724q0 -47 20.5 -73
t59.5 -26h61v-217h-108q-125 0 -193.5 69z" />
    <glyph glyph-name="nu" unicode="&#x3bd;" horiz-adv-x="958" 
d="M404 0l-220 759q-11 38 -34 56.5t-59 18.5h-44v219h90q63 0 110.5 -24t80 -74t51.5 -128l111 -501l187 712h228l-328 -1038h-173z" />
    <glyph glyph-name="xi" unicode="&#x3be;" horiz-adv-x="920" 
d="M628 -81q0 33 -17 49.5t-50 16.5h-39q-201 0 -305.5 93.5t-104.5 272.5v115q0 116 47.5 190.5t139.5 102.5q-75 38 -114 95t-39 129v47q0 123 95 186.5t278 63.5l23 -43q-82 0 -125 -47.5t-43 -137.5v-53q0 -66 42 -100t124 -34h219v-218h-219q-98 0 -149 -47.5
t-51 -138.5v-99q0 -82 52 -124.5t153 -42.5h127q90 0 137.5 -53t47.5 -154v-249h-229v180zM109 1454h722v-218l-722 -1v219z" />
    <glyph glyph-name="omicron" unicode="&#x3bf;" horiz-adv-x="946" 
d="M273 29q-83 44 -127 127.5t-44 200.5v331q0 116 44 198.5t127 125.5t201 43q117 0 200 -43t126.5 -125.5t43.5 -198.5v-334q0 -116 -43.5 -199t-126.5 -126.5t-200 -43.5q-118 0 -201 44zM578.5 243.5q37.5 41.5 37.5 117.5v320q0 75 -37.5 116t-105.5 41q-67 0 -105 -41
t-38 -116v-320q0 -76 37.5 -117.5t105.5 -41.5t105.5 41.5z" />
    <glyph glyph-name="pi" unicode="&#x3c0;" horiz-adv-x="1176" 
d="M765 59.5q-66 69.5 -66 205.5v665h229v-636q0 -42 17 -64t49 -22h73v-218h-95q-141 0 -207 69.5zM221 929h231v-929h-231v929zM72 1038h1022v-218h-1022v218z" />
    <glyph glyph-name="rho" unicode="&#x3c1;" horiz-adv-x="969" 
d="M127 672q0 121 44 207t127 131t200 45t200 -45t126 -131t43 -207v-313q0 -118 -34 -202t-100 -128t-158 -44q-93 0 -157 49t-88 139l25 185q0 -79 37.5 -122.5t104.5 -43.5q68 0 105.5 46t37.5 129v305q0 84 -37.5 130t-104.5 46q-68 0 -105.5 -45.5t-37.5 -129.5v-1095
h-228v1094z" />
    <glyph glyph-name="sigma1" unicode="&#x3c2;" horiz-adv-x="895" 
d="M540 -97q0 41 -18 61.5t-57 20.5h-6q-113 0 -193 45t-122 131.5t-42 208.5v307q0 119 46 204t134 129t212 44q154 0 242 -67.5t110 -204.5v0l-216 -71v0q-14 63 -49.5 95t-90.5 32q-76 0 -117.5 -46.5t-41.5 -130.5v-275q0 -89 43.5 -137t122.5 -48h34q115 0 176 -67
t61 -193v-202h-228v164z" />
    <glyph glyph-name="sigma" unicode="&#x3c3;" horiz-adv-x="1006" 
d="M267.5 28q-80.5 43 -123 125.5t-42.5 198.5v332q0 112 42.5 191.5t123 121t193.5 41.5l175 -183q58 -11 99.5 -44.5t62.5 -84.5t21 -112v-265q0 -115 -42 -196.5t-122.5 -124.5t-193.5 -43t-193.5 43zM557 242q34 40 34 114v315q0 71 -34 110.5t-97 39.5
q-61 0 -95.5 -39.5t-34.5 -110.5v-315q0 -74 34.5 -114t95.5 -40q63 0 97 40zM461 1038h513v-218h-488z" />
    <glyph glyph-name="tau" unicode="&#x3c4;" horiz-adv-x="874" 
d="M359.5 59.5q-61.5 69.5 -61.5 205.5v677h229v-650q0 -39 16.5 -60t47.5 -21h85v-221h-123q-132 0 -193.5 69.5zM72 1038h700v-219h-700v219z" />
    <glyph glyph-name="upsilon" unicode="&#x3c5;" horiz-adv-x="1012" 
d="M320.5 28q-82.5 43 -124.5 126.5t-42 205.5v392q0 39 -16 59t-47 20h-39v221h68q128 0 195 -69t67 -201v-420q0 -77 36 -117.5t104 -40.5q67 0 103 40.5t36 117.5v676h228v-678q0 -122 -42 -205.5t-123.5 -126.5t-201.5 -43q-119 0 -201.5 43z" />
    <glyph glyph-name="phi" unicode="&#x3c6;" horiz-adv-x="1221" 
d="M323 37.5q-117 52.5 -176.5 155t-59.5 253.5v147q0 151 59.5 254t176.5 155.5t288 52.5t287.5 -52.5t176 -155.5t59.5 -254v-149q0 -150 -59.5 -252.5t-176.5 -154.5t-287 -52q-171 0 -288 52.5zM503 1339h215v-1640h-215v1640zM841.5 226q79.5 68 79.5 199v187
q0 132 -79.5 200.5t-230.5 68.5q-101 0 -170.5 -30.5t-105 -91t-35.5 -147.5v-187q0 -131 79.5 -199t231.5 -68q151 0 230.5 68z" />
    <glyph glyph-name="chi" unicode="&#x3c7;" horiz-adv-x="921" 
d="M740 -419.5q-35 15.5 -64.5 49.5t-54.5 90l-445 1038q-18 41 -40.5 60t-53.5 19h-55v218h116q45 0 81 -17t67 -55t58 -98l437 -1024q13 -28 27 -45t32.5 -25.5t44.5 -8.5h45v-217h-117q-43 0 -78 15.5zM386 369l134 -172l-247 -619h-243zM451 425l217 613h244l-332 -784z
" />
    <glyph glyph-name="psi" unicode="&#x3c8;" horiz-adv-x="1297" 
d="M367 43q-117 58 -178.5 169t-61.5 270v556h224v-566q0 -91 35 -155.5t102 -98t163 -33.5t163 33.5t102 98t35 155.5v566h224v-556q0 -159 -61 -270t-178.5 -169t-284.5 -58t-284 58zM540 1339h224v-1640h-224v1640z" />
    <glyph glyph-name="omega" unicode="&#x3c9;" horiz-adv-x="1275" 
d="M666.5 71q-71.5 86 -71.5 243v303h155v-299q0 -54 26 -83.5t72 -29.5q47 0 73.5 29.5t26.5 83.5v374q0 68 -35 106t-97 38v219q113 0 193 -40.5t122 -118.5t42 -188v-399q0 -154 -80 -239t-224 -85q-131 0 -202.5 86zM182 70q-80 85 -80 239v399q0 110 42 188
t122.5 118.5t192.5 40.5v-219q-62 0 -97 -38t-35 -106v-374q0 -54 27 -83.5t73 -29.5q47 0 72.5 29.5t25.5 83.5v299h155v-303q0 -157 -71.5 -243t-201.5 -86q-145 0 -225 85z" />
    <glyph glyph-name="iotadieresis" unicode="&#x3ca;" horiz-adv-x="517" 
d="M184 67q-66 69 -66 196v775h229v-736q0 -42 18 -64.5t52 -22.5h68v-217h-115q-120 0 -186 69zM307 1469h229v-229h-229v229zM-79 1469h228v-229h-228v229z" />
    <glyph glyph-name="upsilondieresis" unicode="&#x3cb;" horiz-adv-x="1012" 
d="M320.5 28q-82.5 43 -124.5 126.5t-42 205.5v392q0 39 -16 59t-47 20h-39v221h68q128 0 195 -69t67 -201v-420q0 -77 36 -117.5t104 -40.5q67 0 103 40.5t36 117.5v676h228v-678q0 -122 -42 -205.5t-123.5 -126.5t-201.5 -43q-119 0 -201.5 43zM575 1469h229v-229h-229
v229zM189 1469h228v-229h-228v229z" />
    <glyph glyph-name="omicrontonos" unicode="&#x3cc;" horiz-adv-x="946" 
d="M273 29q-83 44 -127 127.5t-44 200.5v331q0 116 44 198.5t127 125.5t201 43q117 0 200 -43t126.5 -125.5t43.5 -198.5v-334q0 -116 -43.5 -199t-126.5 -126.5t-200 -43.5q-118 0 -201 44zM578.5 243.5q37.5 41.5 37.5 117.5v320q0 75 -37.5 116t-105.5 41q-67 0 -105 -41
t-38 -116v-320q0 -76 37.5 -117.5t105.5 -41.5t105.5 41.5zM395.402 1254.82l128.524 424.516l201.795 -69.1348l-152.874 -413.161z" />
    <glyph glyph-name="upsilontonos" unicode="&#x3cd;" horiz-adv-x="1012" 
d="M320.5 28q-82.5 43 -124.5 126.5t-42 205.5v392q0 39 -16 59t-47 20h-39v221h68q128 0 195 -69t67 -201v-420q0 -77 36 -117.5t104 -40.5q67 0 103 40.5t36 117.5v676h228v-678q0 -122 -42 -205.5t-123.5 -126.5t-201.5 -43q-119 0 -201.5 43zM418.402 1254.82
l128.524 424.516l201.795 -69.1348l-152.874 -413.161z" />
    <glyph glyph-name="omegatonos" unicode="&#x3ce;" horiz-adv-x="1275" 
d="M666.5 71q-71.5 86 -71.5 243v303h155v-299q0 -54 26 -83.5t72 -29.5q47 0 73.5 29.5t26.5 83.5v374q0 68 -35 106t-97 38v219q113 0 193 -40.5t122 -118.5t42 -188v-399q0 -154 -80 -239t-224 -85q-131 0 -202.5 86zM182 70q-80 85 -80 239v399q0 110 42 188
t122.5 118.5t192.5 40.5v-219q-62 0 -97 -38t-35 -106v-374q0 -54 27 -83.5t73 -29.5q47 0 72.5 29.5t25.5 83.5v299h155v-303q0 -157 -71.5 -243t-201.5 -86q-145 0 -225 85zM559.402 1254.82l128.524 424.516l201.795 -69.1348l-152.874 -413.161z" />
    <glyph glyph-name="uni03CF" unicode="&#x3cf;" horiz-adv-x="1094" 
d="M873 -422h-266l224 422h266zM300 631l472 823h271l-746 -1192zM132 1454h229v-1454h-229v1454zM480 771l174 149l443 -920h-266z" />
    <glyph glyph-name="uni03D0" unicode="&#x3d0;" horiz-adv-x="964" 
d="M288.5 29.5q-83.5 44.5 -127.5 129t-44 204.5v739q0 116 42 198.5t122.5 125.5t193.5 43q111 0 189.5 -40t119.5 -117t41 -185v-124q0 -68 -26.5 -128.5t-78.5 -98.5t-122 -38l42 -92l-220 -5v214h72q50 0 77 38.5t27 108.5v120q0 62 -31.5 96t-88.5 34q-62 0 -96 -40.5
t-34 -114.5v-725q0 -81 37.5 -125.5t106.5 -44.5t106.5 40.5t37.5 114.5v125q0 76 -37 117.5t-105 41.5l5 144q116 0 198 -35.5t124.5 -103t42.5 -162.5v-139q0 -114 -43.5 -194.5t-127 -123t-201.5 -42.5t-201.5 44.5z" />
    <glyph glyph-name="theta1" unicode="&#x3d1;" horiz-adv-x="1047" 
d="M340.5 29.5q-81.5 44.5 -124.5 129t-43 203.5h227q0 -74 36 -114.5t101 -40.5q63 0 97.5 44.5t34.5 125.5v705q0 82 -36 127.5t-100 45.5q-54 0 -84 -30t-30 -84v-10q0 -51 31.5 -79t89.5 -28h485v-218h-503q-156 0 -242 82.5t-86 232.5v17q0 158 89.5 244.5t252.5 86.5
q114 0 195 -44t123 -129t42 -204v-720q0 -122 -42.5 -209t-122.5 -132.5t-194 -45.5q-115 0 -196.5 44.5zM173 454q0 57 -17 92.5t-49 51.5t-80 16v219q118 0 202 -41t127.5 -119t43.5 -187v-124h-227v92z" />
    <glyph glyph-name="Upsilon1" unicode="&#x3d2;" horiz-adv-x="994" 
d="M381 994h230v-994h-230v994zM487 964q0 152 59 264t176.5 172.5t289.5 60.5v-227q-132 0 -221.5 -64t-134.5 -182.5t-45 -282.5zM336 987.5q-45 118.5 -134 182.5t-220 64v227q172 0 289 -60.5t175.5 -172.5t58.5 -264l-124 -259q0 164 -45 282.5z" />
    <glyph glyph-name="uni03D3" unicode="&#x3d3;" horiz-adv-x="1349" 
d="M751 994h230v-994h-230v994zM857 964q0 152 59 264t176.5 172.5t289.5 60.5v-227q-132 0 -221.5 -64t-134.5 -182.5t-45 -282.5zM706 987.5q-45 118.5 -134 182.5t-220 64v227q172 0 289 -60.5t175.5 -172.5t58.5 -264l-124 -259q0 164 -45 282.5zM-32.5977 1046.82
l128.524 424.516l201.795 -69.1348l-152.874 -413.161z" />
    <glyph glyph-name="uni03D4" unicode="&#x3d4;" horiz-adv-x="994" 
d="M381 994h230v-994h-230v994zM487 964q0 152 59 264t176.5 172.5t289.5 60.5v-227q-132 0 -221.5 -64t-134.5 -182.5t-45 -282.5zM336 987.5q-45 118.5 -134 182.5t-220 64v227q172 0 289 -60.5t175.5 -172.5t58.5 -264l-124 -259q0 164 -45 282.5zM581 1802h228v-228
h-228v228zM183 1802h228v-228h-228v228z" />
    <glyph glyph-name="phi1" unicode="&#x3d5;" horiz-adv-x="1221" 
d="M501 726q0 166 80 248.5t241 82.5q156 0 234 -83t78 -251v-287q0 -149 -58.5 -249.5t-175 -151t-290.5 -50.5q-172 0 -288.5 51t-175.5 152t-59 251v176q0 151 66.5 252t198.5 151l98 -167q-74 -32 -112 -92.5t-38 -147.5v-164q0 -143 78.5 -216t230.5 -73
q155 0 233.5 73t78.5 216v289q0 63 -25 93.5t-75 30.5q-51 0 -76.5 -29t-25.5 -88v-1044h-218v1027z" />
    <glyph glyph-name="omega1" unicode="&#x3d6;" horiz-adv-x="1475" 
d="M770.5 73.5q-75.5 88.5 -75.5 250.5v224h156v-220q0 -60 29.5 -93t82.5 -33t83 33t30 93v250q0 115 -39.5 178t-109.5 63l60 75q151 0 233.5 -92t82.5 -260v-220q0 -160 -84 -248.5t-236 -88.5q-137 0 -212.5 88.5zM256 73.5q-84 88.5 -84 248.5v220q0 112 38 190.5
t110 120t173 41.5l55 -75q-70 0 -109.5 -63t-39.5 -178v-250q0 -60 30 -93t83 -33t82.5 33t29.5 93v220h156v-224q0 -162 -75 -250.5t-213 -88.5q-152 0 -236 88.5zM72 1038h1331v-219h-1331v219z" />
    <glyph glyph-name="uni03D7" unicode="&#x3d7;" horiz-adv-x="1190" 
d="M818 -112h86q37 0 57 24.5t20 69.5v231h226v-254q0 -138 -66 -214t-187 -76h-136v219zM806 73.5q-69 77.5 -69 217.5q0 82 13.5 169.5t48.5 179.5l-370 -639h-197q33 201 51.5 369t18.5 318q0 66 -28.5 102.5t-79.5 36.5h-67v216h98q137 0 213 -77t76 -218
q0 -74 -13 -163.5t-35 -201.5q-2 -9 -3.5 -18t-3.5 -18l397 691h200q-51 -195 -79 -381.5t-28 -329.5q0 -55 21 -84.5t59 -29.5h71v-217h-100q-125 0 -194 77.5z" />
    <glyph glyph-name="uni03D8" unicode="&#x3d8;" horiz-adv-x="1122" 
d="M325.5 302q-100.5 54 -154.5 154.5t-54 236.5v331q0 136 54 236.5t154.5 154.5t235.5 54t235.5 -54t154.5 -154.5t54 -236.5v-331q0 -136 -54 -236.5t-154.5 -154.5t-235.5 -54t-235.5 54zM674 499.5q48 27.5 74 78t26 118.5v326q0 68 -26 118t-74 77.5t-113 27.5
t-113 -27.5t-73.5 -77.5t-25.5 -118v-326q0 -68 25.5 -118.5t73.5 -78t113 -27.5t113 27.5zM447 472h229v-472h-229v472z" />
    <glyph glyph-name="uni03D9" unicode="&#x3d9;" horiz-adv-x="946" 
d="M359 188h229v-475h-229v475zM273 29q-83 44 -127 127.5t-44 200.5v331q0 116 44 198.5t127 125.5t201 43q117 0 200 -43t126.5 -125.5t43.5 -198.5v-334q0 -116 -43.5 -199t-126.5 -126.5t-200 -43.5q-118 0 -201 44zM578.5 243.5q37.5 41.5 37.5 117.5v320
q0 75 -37.5 116t-105.5 41q-67 0 -105 -41t-38 -116v-320q0 -76 37.5 -117.5t105.5 -41.5t105.5 41.5z" />
    <glyph glyph-name="uni03DA" unicode="&#x3da;" horiz-adv-x="1041" 
d="M739 -81q0 34 -15.5 50t-49.5 16h-73q-165 2 -272 73.5t-159.5 217t-52.5 370.5q0 234 53.5 386.5t162.5 234.5t278 102q90 12 133 55.5t43 122.5h227q0 -160 -81 -252t-252 -120q-113 -16 -186 -76.5t-109.5 -172t-36.5 -280.5q0 -154 30 -253t91.5 -147.5t156.5 -48.5
h128q111 0 163.5 -61t52.5 -190v-207h-232v180z" />
    <glyph glyph-name="uni03DB" unicode="&#x3db;" horiz-adv-x="896" 
d="M607 -93q0 39 -18.5 58.5t-55.5 19.5h-17q-142 2 -233.5 56t-136 163t-44.5 277q0 161 48.5 270t148.5 173t254 87q42 6 62.5 36t20.5 84h225q0 -140 -70 -221t-213 -99q-129 -15 -190.5 -97t-61.5 -233q0 -144 55 -212.5t168 -68.5h40q84 0 138.5 -30.5t81 -93
t26.5 -158.5v-179h-228v168z" />
    <glyph glyph-name="uni03DC" unicode="&#x3dc;" horiz-adv-x="950" 
d="M132 1454h229v-1454h-229v1454zM235 819h603v-219h-603v219zM235 1454h683v-219h-683v219z" />
    <glyph glyph-name="uni03DD" unicode="&#x3dd;" horiz-adv-x="880" 
d="M132 1035h229v-1457h-229v1457zM232 396l536 2v-218l-536 -2v218zM232 1035h616v-218h-616v218z" />
    <glyph glyph-name="uni03DE" unicode="&#x3de;" horiz-adv-x="1085" 
d="M387 1454h250l-365 -840h-250zM813 838h250l-343 -838h-250zM204 838h708v-224h-708v224z" />
    <glyph glyph-name="uni03DF" unicode="&#x3df;" horiz-adv-x="1075" 
d="M695 -422h-252l327 838h253zM310 195h-253l350 843h253zM224 416h680v-221h-680v221z" />
    <glyph glyph-name="uni03E0" unicode="&#x3e0;" horiz-adv-x="969" 
d="M618 737q0 255 -80 381.5t-242 126.5q-108 0 -253 -45l-30 224q160 45 283 45q279 0 417.5 -182.5t138.5 -549.5q0 -408 -186 -737h-245q197 325 197 737zM152 564l553 222l74 -194l-552 -222zM34 899l578 237l74 -191l-577 -237z" />
    <glyph glyph-name="uni03E1" unicode="&#x3e1;" horiz-adv-x="989" 
d="M590.5 19q50.5 240 50.5 483q0 374 -89.5 561t-270.5 187q-110 0 -234 -45l-35 219q153 45 269 45q296 0 443.5 -241t147.5 -726q0 -241 -47.5 -481.5t-138.5 -442.5h-245q99 201 149.5 441zM154 375l539 219l74 -202l-538 -218zM37 817l561 231l79 -204l-560 -231z" />
    <glyph glyph-name="uni03E2" unicode="&#x3e2;" horiz-adv-x="1673" 
d="M943.5 34q-75.5 49 -115 143t-39.5 227v1050h164v-1057q0 -90 48.5 -139t136.5 -49q83 0 128.5 49.5t45.5 138.5v1057h229v-1043l-149 -176q-20 -124 -85 -187t-181 -63q-107 0 -182.5 49zM314 33.5q-89 48.5 -135.5 140.5t-46.5 222v1058h229v-1052q0 -92 46.5 -142.5
t130.5 -50.5q88 0 137 49t49 139v1057h164v-1050q0 -133 -42.5 -227t-123.5 -143t-194 -49q-125 0 -214 48.5zM495 -116h652q69 0 105 21t48 59.5t12 102.5v458h229v-449q0 -204 -86.5 -307t-287.5 -103h-643zM461 -356.5q-26 -21.5 -26 -65.5h-223q0 154 70.5 230t212.5 76
l45 -218q-53 -1 -79 -22.5z" />
    <glyph glyph-name="uni03E3" unicode="&#x3e3;" horiz-adv-x="1372" 
d="M447 -111h444q55 0 83.5 16.5t38.5 46.5t10 80v381h227v-367q0 -187 -78.5 -281t-260.5 -94h-444zM236 -188.5q70 77.5 211 77.5l36 -218q-47 -1 -71 -24t-24 -69h-222q0 156 70 233.5zM212.5 72.5q-85.5 87.5 -85.5 249.5v716h228v-709q0 -58 28 -89.5t80 -31.5
q54 0 83.5 31.5t29.5 89.5v709h172v-701q0 -109 -34 -188t-100 -121.5t-159 -42.5q-157 0 -242.5 87.5zM753 27.5q-61 42.5 -92.5 121.5t-31.5 188v701h172v-709q0 -58 29.5 -89.5t83.5 -31.5q52 0 80.5 31.5t28.5 89.5v709h227v-716l-129 -127q-15 -68 -46.5 -115
t-76.5 -71t-99 -24q-85 0 -146 42.5z" />
    <glyph glyph-name="uni03E4" unicode="&#x3e4;" horiz-adv-x="1104" 
d="M268.5 506q-88.5 52 -135 151t-46.5 238v142q0 218 99.5 321t303.5 103h43v-222h-43q-89 0 -131.5 -51t-42.5 -159v-132q0 -106 52.5 -164.5t148.5 -58.5q108 0 167 55.5t59 157.5v117l64 -20v-153q0 -119 -38.5 -203.5t-111.5 -129t-175 -44.5q-125 0 -213.5 52z
M743 1454h229v-1454h-229v1454z" />
    <glyph glyph-name="uni03E5" unicode="&#x3e5;" horiz-adv-x="1114" 
d="M763 1038h229v-1460h-229v1460zM553 836h-45q-90 0 -133.5 -56t-43.5 -173v-169q0 -113 53.5 -175.5t150.5 -62.5q109 0 168.5 55.5t59.5 157.5v122l59 -20v-160q0 -117 -39.5 -200t-114.5 -126.5t-180 -43.5q-122 0 -208.5 53.5t-132 154.5t-45.5 243v174
q0 228 100.5 336.5t305.5 108.5h45v-219z" />
    <glyph glyph-name="uni03E6" unicode="&#x3e6;" horiz-adv-x="1107" 
d="M439 -111h203q56 0 85 18.5t39 52t10 89.5v374q0 61 -24 104t-68.5 65.5t-104.5 22.5h-243v218h312q113 0 193 -45.5t122 -132.5t42 -210v-394q0 -189 -76 -284.5t-250 -95.5h-226zM127 1454h229v-1454h-229v1454zM401.5 -353q-26.5 -23 -26.5 -69h-223q0 156 71.5 233.5
t215.5 77.5l38 -218q-49 -1 -75.5 -24z" />
    <glyph glyph-name="uni03E7" unicode="&#x3e7;" horiz-adv-x="992" 
d="M851 412q0 -123 -46.5 -216t-131 -144.5t-195.5 -51.5l-10 218q48 0 84.5 23.5t56.5 67t20 100.5v152q0 81 -25.5 143t-71.5 96t-107 34q-53 0 -85 -25t-32 -66v-9q0 -41 33.5 -65t88.5 -24q87 0 152 48.5t101 138t36 206.5h216q0 -183 -66 -321.5t-187 -215t-280 -76.5
q-95 0 -167 37t-111.5 104.5t-39.5 157.5v19q0 93 42.5 163t119.5 108.5t179 38.5q127 0 223.5 -61t149.5 -172.5t53 -258.5v-149zM310.5 -23.5q-23.5 -23.5 -23.5 -69.5h-217q0 156 68 233.5t206 77.5h124l10 -218h-97q-47 0 -70.5 -23.5z" />
    <glyph glyph-name="uni03E8" unicode="&#x3e8;" horiz-adv-x="1112" 
d="M308 32q-109 47 -163.5 140t-54.5 233v12q0 125 45.5 219t140 162.5t243.5 117.5q9 3 17.5 6t16.5 6q51 19 84 42t51.5 55.5t18.5 78.5v16q0 64 -36 96t-107 32q-70 0 -116.5 -38t-71.5 -116v0l-203 84v0q38 147 132 219t248 72q128 0 213 -38.5t127 -115.5t42 -192v-12
q0 -115 -41.5 -194t-116.5 -127t-184 -78q-142 -39 -208.5 -112t-66.5 -186v-9q0 -67 27.5 -111t83 -66t138.5 -22q114 0 184.5 53.5t102.5 162.5v0l208 -83v0q-27 -119 -89 -197.5t-159.5 -117.5t-231.5 -39q-165 0 -274 47z" />
    <glyph glyph-name="uni03E9" unicode="&#x3e9;" horiz-adv-x="918" 
d="M252.5 22q-87.5 37 -133 109.5t-45.5 177.5q0 107 40.5 174t111 104t174.5 58q5 1 10.5 2t10.5 2q48 9 79.5 23t49.5 37.5t18 58.5q0 40 -24.5 61.5t-71.5 21.5q-46 0 -80.5 -26t-55.5 -77v0l-194 85v0q33 112 115 166.5t215 54.5q103 0 174.5 -33t108 -97t36.5 -157
q0 -91 -33.5 -152t-93 -95.5t-142.5 -53.5q-1 0 -3 -0.5t-3 -0.5q-4 -1 -7.5 -1.5t-6.5 -1.5q-70 -16 -113.5 -34t-67.5 -47t-24 -72q0 -61 44 -93t128 -32q82 0 138 37t86 111v0l195 -80v0q-23 -89 -77.5 -148.5t-140 -89t-203.5 -29.5q-127 0 -214.5 37z" />
    <glyph glyph-name="uni03EA" unicode="&#x3ea;" horiz-adv-x="1160" 
d="M667 1294q34 70 65.5 105.5t66.5 48.5t85 13h135v-216h-107q-20 0 -31.5 -9.5t-25.5 -39.5l-586 -1196h-242zM190 218h793v-218h-793v218zM321 1196q-13 29 -24.5 39t-31.5 10h-114v216h143q50 0 85 -13t66.5 -49t65.5 -106l622 -1293h-242z" />
    <glyph glyph-name="uni03EB" unicode="&#x3eb;" horiz-adv-x="973" 
d="M290 789q-14 28 -29.5 38.5t-36.5 10.5h-84v217h121q43 0 74 -10.5t57.5 -38t50.5 -78.5l474 -928h-224zM263 205h460v-205h-460v205zM541 928q24 50 51 78t58 38.5t73 10.5h116v-217h-81q-22 0 -37 -10.5t-29 -38.5l-409 -789h-221z" />
    <glyph glyph-name="uni03EC" unicode="&#x3ec;" horiz-adv-x="1176" 
d="M333.5 37q-105.5 52 -161 152t-55.5 241v256l197 191q14 82 59.5 139.5t117 87t162.5 29.5q128 0 219 -52.5t139 -153t48 -241.5v-259q0 -140 -55.5 -239t-161 -151t-254.5 -52t-254.5 52zM718.5 229q54.5 26 83 76t28.5 120v262q0 109 -63.5 168.5t-179.5 59.5
q-115 0 -178 -59.5t-63 -168.5v-262q0 -106 63 -164t178 -58q77 0 131.5 26zM117 1016q0 438 404 438h130q74 0 111.5 24t37.5 69h214q0 -297 -339 -297h-137q-202 0 -202 -214v-362h-219v342z" />
    <glyph glyph-name="uni03ED" unicode="&#x3ed;" horiz-adv-x="971" 
d="M298 28.5q-83 43.5 -127 126t-44 199.5v311l170 148q32 100 95 151t159 51q100 0 171.5 -43t109 -124.5t37.5 -196.5v-300q0 -116 -43.5 -198t-126.5 -125t-200 -43q-118 0 -201 43.5zM602.5 235.5q37.5 42.5 37.5 119.5v292q0 76 -37.5 117.5t-104.5 41.5t-104.5 -41.5
t-37.5 -117.5v-292q0 -77 37.5 -119.5t104.5 -42.5t104.5 42.5zM127 957q0 122 39.5 203.5t119.5 129.5t205 66q43 7 70.5 19.5t41 32t13.5 46.5h221q0 -87 -30 -145t-92.5 -91.5t-160.5 -45.5q-70 -10 -114.5 -34.5t-66.5 -67t-22 -108.5v-408h-224v403z" />
    <glyph glyph-name="uni03EE" unicode="&#x3ee;" horiz-adv-x="907" 
d="M845 1247v-219h-595q-39 0 -60 -15.5t-21 -43.5v-109h-227v154q0 111 63.5 172t181.5 61h658zM545 0h-231v1454h231v-1454z" />
    <glyph glyph-name="uni03EF" unicode="&#x3ef;" horiz-adv-x="797" 
d="M114 -201h110q32 0 48.5 20.5t16.5 58.5v1462h228v-1482q0 -139 -64 -209.5t-200 -70.5h-139v221zM37 1038h728v-211h-728v211z" />
    <glyph glyph-name="uni03F0" unicode="&#x3f0;" horiz-adv-x="1082" 
d="M736 73.5q-69 77.5 -69 217.5q0 82 13.5 169.5t48.5 179.5l-370 -639h-197q33 201 51.5 369t18.5 318q0 66 -28.5 102.5t-79.5 36.5h-67v216h98q137 0 213 -77t76 -218q0 -74 -13 -163.5t-35 -201.5q-2 -9 -3.5 -18t-3.5 -18l397 691h200q-51 -195 -79 -381.5t-28 -329.5
q0 -55 21 -84.5t59 -29.5h71v-217h-100q-125 0 -194 77.5z" />
    <glyph glyph-name="uni03F1" unicode="&#x3f1;" horiz-adv-x="969" 
d="M418 33.5q-64 48.5 -88 137.5l25 187q0 -79 37.5 -122.5t104.5 -43.5q68 0 105.5 46t37.5 129v305q0 83 -37.5 128.5t-104.5 45.5q-68 0 -105.5 -45t-37.5 -128v-547h-228v546q0 121 44 207t127 131t200 45t200 -45t126 -131t43 -207v-313q0 -118 -34 -202t-100 -128
t-158 -44q-93 0 -157 48.5zM205 -238.5q-78 90.5 -78 269.5v324h229v-333q0 -47 10.5 -75t40.5 -43t89 -15h74l-26 -218h-81q-180 0 -258 90.5zM530 -329l40 218q138 0 207 -77.5t69 -233.5h-225q0 91 -91 93z" />
    <glyph glyph-name="uni03F2" unicode="&#x3f2;" horiz-adv-x="896" 
d="M281 30q-87 45 -133 130.5t-46 206.5v301q0 122 46 209t133 132t210 45q104 0 177.5 -30.5t118 -93t59.5 -156.5v0l-211 -68v0q-14 67 -50 100.5t-93 33.5q-77 0 -119 -46.5t-42 -130.5v-291q0 -83 42 -128t119 -45q57 0 93.5 32.5t49.5 97.5v0l211 -72v0
q-14 -92 -58.5 -152.5t-118.5 -90t-178 -29.5q-123 0 -210 45z" />
    <glyph glyph-name="uni03F3" unicode="&#x3f3;" horiz-adv-x="488" 
d="M2 -201h65q32 0 50 21t18 60v1158h230v-1185q0 -131 -67 -203t-189 -72h-107v221zM134 1450h232v-228h-232v228z" />
    <glyph glyph-name="uni03F4" unicode="&#x3f4;" horiz-adv-x="1122" 
d="M250 832h619v-219h-619v219zM325.5 39q-100.5 54 -154.5 154.5t-54 236.5v594q0 136 54 236.5t154.5 154.5t235.5 54t235.5 -54t154.5 -154.5t54 -236.5v-594q0 -136 -54 -236.5t-154.5 -154.5t-235.5 -54t-235.5 54zM672.5 239q47.5 27 73 77t25.5 117v589
q0 67 -25.5 117t-73 76.5t-111.5 26.5t-111.5 -26.5t-73 -76.5t-25.5 -117v-589q0 -67 25.5 -117t73 -77t111.5 -27t111.5 27z" />
    <glyph glyph-name="uni03F5" unicode="&#x3f5;" horiz-adv-x="896" 
d="M262 617h378v-204h-378v204zM281 30q-87 45 -133 130.5t-46 206.5v301q0 122 46 209t133 132.5t210 45.5q93 0 166 -28.5t121 -82t67 -130.5v-31l-189 -76v26q-20 51 -61 79t-96 28q-80 0 -124 -46.5t-44 -130.5v-291q0 -83 44 -128t124 -45q55 0 96 27.5t61 77.5v24
l190 -82v-29q-20 -73 -68 -125t-121 -79.5t-166 -27.5q-123 0 -210 45z" />
    <glyph glyph-name="uni03F6" unicode="&#x3f6;" horiz-adv-x="896" 
d="M257 413v204h377v-204h-377zM229 15q-74 30 -119 90.5t-60 150.5v0l207 68v0q17 -69 55.5 -104.5t94.5 -35.5q76 0 117 48t41 135v299q0 85 -41 131.5t-117 46.5q-58 0 -96.5 -35t-53.5 -105v0l-206 69v0q15 93 60 155.5t118.5 93.5t175.5 31q123 0 210.5 -45.5t133 -132
t45.5 -209.5v-299q0 -121 -45.5 -206.5t-133 -130.5t-210.5 -45q-102 0 -176 30z" />
    <glyph glyph-name="uni03F7" unicode="&#x3f7;" horiz-adv-x="1070" 
d="M248 525h349q46 0 80.5 21t53 61t18.5 93v95q0 55 -18.5 95t-53 62t-80.5 22h-349v220h345q119 0 207 -47t135.5 -134.5t47.5 -206.5v-119q0 -117 -47.5 -203.5t-135.5 -133t-207 -46.5h-345v221zM132 1454h229v-1454h-229v1454z" />
    <glyph glyph-name="uni03F8" unicode="&#x3f8;" horiz-adv-x="969" 
d="M127 1454h229v-1876h-229v1876zM432.5 31.5q-61.5 46.5 -90.5 131.5l14 190q0 -50 16.5 -85.5t48 -54.5t76.5 -19q68 0 105.5 46t37.5 130v300q0 83 -37.5 129.5t-105.5 46.5q-45 0 -76.5 -18.5t-48 -53.5t-16.5 -85l-21 176q40 90 104.5 140t143.5 50q90 0 154 -44
t97 -127.5t33 -201.5v-323q0 -118 -34 -202t-99 -128t-157 -44q-83 0 -144.5 46.5z" />
    <glyph glyph-name="uni03F9" unicode="&#x3f9;" horiz-adv-x="1062" 
d="M317 39.5q-97 54.5 -148.5 157t-51.5 244.5v571q0 142 51.5 245t148.5 157.5t230 54.5q130 0 222 -52t143.5 -155.5t61.5 -256.5v0h-234v0q-6 78 -31 130.5t-66 79.5t-96 27q-60 0 -104 -28t-68 -79.5t-24 -122.5v-571q0 -71 24 -122.5t68 -79t104 -27.5q56 0 96.5 26.5
t65.5 79t31 131.5v0h234v0q-10 -153 -61.5 -256.5t-143.5 -155.5t-222 -52q-133 0 -230 54.5z" />
    <glyph glyph-name="uni03FA" unicode="&#x3fa;" horiz-adv-x="1366" 
d="M996 1454h238v-1454h-211v1084l13 -64l-274 -805h-158l-274 785l16 84v-1084h-214v1454h241l310 -911z" />
    <glyph glyph-name="uni03FB" unicode="&#x3fb;" horiz-adv-x="1099" 
d="M331 128v-415h-204v415h204zM758 1038h214v-1038h-204v720l14 -53l-166 -426h-133l-168 416l16 63v-720h-204v1038h214l209 -548z" />
    <glyph glyph-name="uni03FC" unicode="&#x3fc;" horiz-adv-x="944" 
d="M608 -91v-217h-591v217h591zM102 672q0 121 44 207t127 131t200 45t200 -45t126 -131t43 -207v-313q0 -118 -34 -202t-100 -128t-158 -44q-93 0 -157 49t-88 139l25 185q0 -79 37.5 -122.5t104.5 -43.5q68 0 105.5 46t37.5 129v305q0 84 -37.5 130t-104.5 46
q-68 0 -105.5 -45.5t-37.5 -129.5v-1095h-228v1094z" />
    <glyph glyph-name="uni03FD" unicode="&#x3fd;" horiz-adv-x="1062" 
d="M291 36q-92 51 -143 154t-61 259v0h234v0q7 -80 31 -132.5t65 -78.5t98 -26q60 0 104 27.5t67.5 79t23.5 122.5v571q0 71 -23.5 122.5t-67.5 79.5t-104 28q-56 0 -97 -26.5t-65.5 -79t-31.5 -131.5v0h-234v0q10 156 61 259t142.5 154t224.5 51t229.5 -54.5t148 -157.5
t51.5 -245v-571q0 -142 -51.5 -244.5t-148 -157t-229.5 -54.5q-132 0 -224 51z" />
    <glyph glyph-name="uni03FE" unicode="&#x3fe;" horiz-adv-x="1062" 
d="M317 39.5q-97 54.5 -148.5 157t-51.5 244.5v571q0 142 51.5 245t148.5 157.5t230 54.5q130 0 222 -52t143.5 -155.5t61.5 -256.5v0h-234v0q-6 78 -31 130.5t-66 79.5t-96 27q-60 0 -104 -28t-68 -79.5t-24 -122.5v-571q0 -71 24 -122.5t68 -79t104 -27.5q56 0 96.5 26.5
t65.5 79t31 131.5v0h234v0q-10 -153 -61.5 -256.5t-143.5 -155.5t-222 -52q-133 0 -230 54.5zM497 844h231v-231h-231v231z" />
    <glyph glyph-name="uni03FF" unicode="&#x3ff;" horiz-adv-x="1062" 
d="M291 36q-92 51 -143 154t-61 259v0h234v0q7 -80 31 -132.5t65 -78.5t98 -26q60 0 104 27.5t67.5 79t23.5 122.5v571q0 71 -23.5 122.5t-67.5 79.5t-104 28q-56 0 -97 -26.5t-65.5 -79t-31.5 -131.5v0h-234v0q10 156 61 259t142.5 154t224.5 51t229.5 -54.5t148 -157.5
t51.5 -245v-571q0 -142 -51.5 -244.5t-148 -157t-229.5 -54.5q-132 0 -224 51zM334 844h231v-231h-231v231z" />
    <glyph glyph-name="uni0400" unicode="&#x400;" horiz-adv-x="999" 
d="M132 1454h229v-1454h-229v1454zM234 220h693v-220h-693v220zM234 832h613v-220h-613v220zM234 1454h693v-220h-693v220zM234 1774l157 159l264 -252l-141 -137z" />
    <glyph glyph-name="uni0401" unicode="&#x401;" horiz-adv-x="999" 
d="M132 1454h229v-1454h-229v1454zM234 220h693v-220h-693v220zM234 832h613v-220h-613v220zM234 1454h693v-220h-693v220zM631 1802h228v-228h-228v228zM233 1802h228v-228h-228v228z" />
    <glyph glyph-name="uni0402" unicode="&#x402;" horiz-adv-x="1215" 
d="M989 843.5q81 -45.5 122.5 -134t41.5 -216.5v-109q0 -124 -40.5 -210t-119.5 -130t-193 -44h-79v219h46q74 0 113 40t39 115v120q0 86 -45 131.5t-130 45.5q-100 0 -153.5 -50t-53.5 -144v-109l-64 60v108q0 114 36.5 193t108 119.5t173.5 40.5q117 0 198 -45.5z
M309 1334h229v-1334h-229v1334zM-18 1454h879v-219h-879v219z" />
    <glyph glyph-name="uni0403" unicode="&#x403;" horiz-adv-x="800" 
d="M132 1454h229v-1454h-229v1454zM251 1454h566v-219h-566v219zM367 1684l262 252l160 -160l-284 -229z" />
    <glyph glyph-name="uni0404" unicode="&#x404;" horiz-adv-x="1062" 
d="M239 830h537v-216h-537v216zM317.5 39.5q-96.5 54.5 -148.5 157.5t-52 245v570q0 142 52 245t148.5 157.5t229.5 54.5q120 0 212 -50t147 -144.5t68 -224.5v-45h-234v45q-8 59 -34.5 102.5t-67.5 66.5t-91 23q-60 0 -104 -27.5t-67.5 -79.5t-23.5 -123v-570
q0 -71 23.5 -122.5t67.5 -79t104 -27.5q51 0 91.5 22t67 65.5t34.5 103.5v45h234v-45q-13 -130 -68.5 -224.5t-147 -144.5t-211.5 -50q-133 0 -229.5 54.5z" />
    <glyph glyph-name="uni0405" unicode="&#x405;" horiz-adv-x="1072" 
d="M317.5 21q-91.5 36 -152 106t-85.5 173v0l216 95v0q27 -93 89 -141t151 -48q102 0 158 44.5t56 124.5v64q0 57 -31 93.5t-79 57t-127 44.5q-2 1 -4.5 1.5t-4.5 1.5l-11 3q-120 35 -195.5 71.5t-129 115t-53.5 211.5v40q0 124 51.5 212t150.5 133.5t239 45.5
q105 0 186.5 -34.5t136 -102t80.5 -166.5v0l-207 -96v0q-27 87 -79.5 133t-123.5 46q-99 0 -152.5 -42t-53.5 -119v-48q0 -60 32 -97t80.5 -58t133.5 -46q5 -2 10 -3.5t11 -3.5q4 -1 8.5 -2.5t9.5 -2.5q109 -34 180.5 -71.5t120 -113t48.5 -202.5v-64q0 -124 -52.5 -211.5
t-153.5 -133.5t-243 -46q-119 0 -210.5 36z" />
    <glyph glyph-name="uni0406" unicode="&#x406;" horiz-adv-x="475" 
d="M353 0h-231v1454h231v-1454z" />
    <glyph glyph-name="uni0407" unicode="&#x407;" horiz-adv-x="475" 
d="M353 0h-231v1454h231v-1454zM323 1802h228v-228h-228v228zM-75 1802h228v-228h-228v228z" />
    <glyph glyph-name="uni0408" unicode="&#x408;" horiz-adv-x="880" 
d="M156 29.5q-89 44.5 -144 124.5l176 143q30 -42 73.5 -64.5t93.5 -22.5q77 0 119 48.5t42 137.5v1058h232v-1067q0 -127 -46.5 -217t-134.5 -137.5t-213 -47.5q-109 0 -198 44.5z" />
    <glyph glyph-name="uni0409" unicode="&#x409;" horiz-adv-x="1733" 
d="M885 219h364q49 0 85 21.5t55 62.5t19 97v80q0 57 -19 98.5t-55 63.5t-85 22h-364v219h370q120 0 206.5 -46.5t133 -134t46.5 -208.5v-110q0 -119 -46.5 -205.5t-133.5 -132.5t-206 -46h-370v219zM105 218v0q56 0 93.5 26.5t56.5 80t19 132.5v997h229v-1007
q0 -148 -42 -247.5t-126.5 -149.5t-209.5 -50h-20v218zM834 1454h229v-1454h-229v1454zM416 1454h529v-219h-529v219z" />
    <glyph glyph-name="uni040A" unicode="&#x40a;" horiz-adv-x="1708" 
d="M885 219h339q49 0 84.5 21.5t55 62.5t19.5 97v80q0 57 -19 98.5t-55 63.5t-85 22h-339v219h344q120 0 207 -46.5t133 -134t46 -208.5v-110q0 -119 -46 -205.5t-133 -132.5t-207 -46h-344v219zM769 1454h229v-1454h-229v1454zM132 1454h230v-1454h-230v1454zM257 826h647
v-217h-647v217z" />
    <glyph glyph-name="uni040B" unicode="&#x40b;" horiz-adv-x="1328" 
d="M968 622q0 106 -50 159t-150 53q-113 0 -169 -53.5t-56 -161.5l-52 84q17 176 108 264t246 88q177 0 267 -100t90 -296v-659h-234v622zM314 1334h229v-1334h-229v1334zM-18 1454h882v-219h-882v219z" />
    <glyph glyph-name="uni040C" unicode="&#x40c;" horiz-adv-x="1102" 
d="M502 795l286 659h255l-387 -833zM498 643l202 113l404 -756h-272zM132 1454h229v-1454h-229v1454zM239 832h436v-219h-436v219zM425 1684l262 252l160 -160l-284 -229z" />
    <glyph glyph-name="uni040D" unicode="&#x40d;" horiz-adv-x="1174" 
d="M824 1v1090l23 -27l-502 -1063h-213v1453h219v-1102l-24 27l504 1075h211v-1453h-218zM270 1774l157 159l264 -252l-141 -137z" />
    <glyph glyph-name="uni040E" unicode="&#x40e;" horiz-adv-x="1028" 
d="M41 1454h247l313 -1064l-146 -183zM679 274q-29 -95 -74.5 -159t-112 -97t-154.5 -33h-132v225h117q43 0 76.5 19.5t58 57.5t40.5 95l287 1072h237zM838 1871q0 -149 -78 -231t-220 -82h-8q-142 0 -220 82t-78 231l188 -2q0 -68 29 -106t81 -38h8q53 0 82 38t29 106z" />
    <glyph glyph-name="uni040F" unicode="&#x40f;" horiz-adv-x="1131" 
d="M998 1454v-1454h-229v1454h229zM362 1454v-1454h-229v1454h229zM889 219v-219h-625v219h625zM680 167v-483h-229v483h229z" />
    <glyph glyph-name="uni0410" unicode="&#x410;" horiz-adv-x="1116" 
d="M471 1454h174l444 -1454h-241l-290 1069l-289 -1069h-242zM269 491h589v-217h-589v217z" />
    <glyph glyph-name="uni0411" unicode="&#x411;" horiz-adv-x="1090" 
d="M248 219h358q49 0 85 21.5t55 62.5t19 97v80q0 57 -19 98.5t-55 63.5t-85 22h-358v219h364q120 0 206.5 -46.5t133 -134t46.5 -208.5v-110q0 -119 -46.5 -205.5t-133.5 -132.5t-206 -46h-364v219zM132 1454h229v-1454h-229v1454zM251 1454h656v-219h-656v219z" />
    <glyph glyph-name="uni0412" unicode="&#x412;" horiz-adv-x="1091" 
d="M258 217h329q89 0 135 40t46 113v98q0 55 -19.5 94t-58 60t-94.5 21h-338v214h336q76 0 116 41.5t40 118.5v76q0 70 -42 107.5t-120 37.5h-330v216h347q120 0 204 -41t127 -118t43 -186v-77q0 -74 -27 -132.5t-80.5 -97t-128.5 -52.5q80 -11 137.5 -52t87.5 -105t30 -146
v-99q0 -108 -44 -186.5t-128 -120t-200 -41.5h-368v217zM132 1454h229v-1454h-229v1454z" />
    <glyph glyph-name="uni0413" unicode="&#x413;" horiz-adv-x="800" 
d="M132 1454h229v-1454h-229v1454zM251 1454h566v-219h-566v219z" />
    <glyph glyph-name="uni0414" unicode="&#x414;" horiz-adv-x="1209" 
d="M50 219h20q86 0 132.5 83t46.5 237v915h223v-898q0 -156 -42 -266.5t-127 -169t-213 -58.5h-40v157zM34 219h222v-510h-222v510zM34 219h1043v-219h-1043v219zM948 219h221v-510h-221v510zM786 1454h229v-1454h-229v1454zM396 1454h495v-219h-495v219z" />
    <glyph glyph-name="uni0415" unicode="&#x415;" horiz-adv-x="999" 
d="M132 1454h229v-1454h-229v1454zM234 220h693v-220h-693v220zM234 832h613v-220h-613v220zM234 1454h693v-220h-693v220z" />
    <glyph glyph-name="uni0416" unicode="&#x416;" horiz-adv-x="1666" 
d="M1048 795l304 659h256l-406 -833zM1045 643l205 102l419 -745h-273zM413 745l206 -102l-349 -643h-273zM58 1454h256l302 -659l-154 -174zM441 832h782v-219h-782v219zM719 1454h229v-1454h-229v1454z" />
    <glyph glyph-name="uni0417" unicode="&#x417;" horiz-adv-x="1038" 
d="M292 30q-96 45 -147 136.5t-58 231.5v0h232v0q6 -99 59 -146t153 -47q92 0 142.5 49.5t50.5 140.5v79q0 82 -40.5 127.5t-114.5 45.5h-209v218h209q62 0 96.5 37t34.5 105v82q0 77 -43.5 118.5t-124.5 41.5q-86 0 -133.5 -46.5t-56.5 -143.5v0h-231v0q9 139 58.5 230
t140.5 135.5t225 44.5q127 0 217.5 -42.5t137.5 -124t47 -197.5v-81q0 -84 -42 -153t-119 -112q88 -28 136.5 -106t48.5 -193v-79q0 -125 -50.5 -214t-147 -135.5t-232.5 -46.5q-143 0 -239 45z" />
    <glyph glyph-name="uni0418" unicode="&#x418;" horiz-adv-x="1174" 
d="M824 1v1090l23 -27l-502 -1063h-213v1453h219v-1102l-24 27l504 1075h211v-1453h-218z" />
    <glyph glyph-name="uni0419" unicode="&#x419;" horiz-adv-x="1174" 
d="M824 1v1090l23 -27l-502 -1063h-213v1453h219v-1102l-24 27l504 1075h211v-1453h-218zM884 1871q0 -149 -78 -231t-220 -82h-8q-142 0 -220 82t-78 231l188 -2q0 -68 29 -106t81 -38h8q53 0 82 38t29 106z" />
    <glyph glyph-name="uni041A" unicode="&#x41a;" horiz-adv-x="1102" 
d="M502 795l286 659h255l-387 -833zM498 643l202 113l404 -756h-272zM132 1454h229v-1454h-229v1454zM239 832h436v-219h-436v219z" />
    <glyph glyph-name="uni041B" unicode="&#x41b;" horiz-adv-x="1195" 
d="M105 218v0q56 0 93.5 26.5t56.5 80t19 132.5v997h229v-1007q0 -148 -42 -247.5t-126.5 -149.5t-209.5 -50h-20v218zM834 1454h229v-1454h-229v1454zM416 1454h529v-219h-529v219z" />
    <glyph glyph-name="uni041C" unicode="&#x41c;" horiz-adv-x="1366" 
d="M996 1454h238v-1454h-211v1084l13 -64l-274 -805h-158l-274 785l16 84v-1084h-214v1454h241l310 -911z" />
    <glyph glyph-name="uni041D" unicode="&#x41d;" horiz-adv-x="1130" 
d="M769 1454h229v-1454h-229v1454zM132 1454h230v-1454h-230v1454zM257 826h647v-217h-647v217z" />
    <glyph glyph-name="uni041E" unicode="&#x41e;" horiz-adv-x="1122" 
d="M325.5 39q-100.5 54 -154.5 154.5t-54 236.5v594q0 136 54 236.5t154.5 154.5t235.5 54t235.5 -54t154.5 -154.5t54 -236.5v-594q0 -136 -54 -236.5t-154.5 -154.5t-235.5 -54t-235.5 54zM672.5 239q47.5 27 73 77t25.5 117v589q0 67 -25.5 117t-73 76.5t-111.5 26.5
t-111.5 -26.5t-73 -76.5t-25.5 -117v-589q0 -67 25.5 -117t73 -77t111.5 -27t111.5 27z" />
    <glyph glyph-name="uni041F" unicode="&#x41f;" horiz-adv-x="1130" 
d="M769 1454h229v-1454h-229v1454zM132 1454h229v-1454h-229v1454zM260 1454h641v-219h-641v219z" />
    <glyph glyph-name="uni0420" unicode="&#x420;" horiz-adv-x="1085" 
d="M245 783h366q46 0 80.5 21.5t53 61t18.5 92.5v99q0 54 -18.5 94.5t-53 62t-80.5 21.5h-366v219h363q119 0 207 -47t135.5 -134.5t47.5 -206.5v-119q0 -117 -47.5 -203.5t-135.5 -133t-207 -46.5h-363v219zM132 1454h229v-1454h-229v1454z" />
    <glyph glyph-name="uni0421" unicode="&#x421;" horiz-adv-x="1062" 
d="M317 39.5q-97 54.5 -148.5 157t-51.5 244.5v571q0 142 51.5 245t148.5 157.5t230 54.5q130 0 222 -52t143.5 -155.5t61.5 -256.5v0h-234v0q-6 78 -31 130.5t-66 79.5t-96 27q-60 0 -104 -28t-68 -79.5t-24 -122.5v-571q0 -71 24 -122.5t68 -79t104 -27.5q56 0 96.5 26.5
t65.5 79t31 131.5v0h234v0q-10 -153 -61.5 -256.5t-143.5 -155.5t-222 -52q-133 0 -230 54.5z" />
    <glyph glyph-name="uni0422" unicode="&#x422;" horiz-adv-x="846" 
d="M309 1334h229v-1334h-229v1334zM-18 1454h882v-219h-882v219z" />
    <glyph glyph-name="uni0423" unicode="&#x423;" horiz-adv-x="1028" 
d="M41 1454h247l313 -1064l-146 -183zM679 274q-29 -95 -74.5 -159t-112 -97t-154.5 -33h-132v225h117q43 0 76.5 19.5t58 57.5t40.5 95l287 1072h237z" />
    <glyph glyph-name="uni0424" unicode="&#x424;" horiz-adv-x="1392" 
d="M356 216.5q-141 61.5 -215 180.5t-74 288v134q0 169 74 288t215 180.5t340 61.5t340 -61.5t215 -180.5t74 -288v-134q0 -169 -74 -288t-215 -180.5t-340 -61.5t-340 61.5zM580 1504h232v-1504h-232v1504zM997 451.5q106 81.5 106 233.5v134q0 153 -106 234t-301 81
t-301 -81t-106 -234v-134q0 -152 106 -233.5t301 -81.5t301 81.5z" />
    <glyph glyph-name="uni0425" unicode="&#x425;" horiz-adv-x="982" 
d="M442 612l-34 65l-394 777h248l262 -565l40 -78l416 -811h-248zM435 849l275 605h248l-406 -804l-302 -650h-248z" />
    <glyph glyph-name="uni0426" unicode="&#x426;" horiz-adv-x="1211" 
d="M767 1453h229v-1453h-229v1453zM274 219h721v-219h-721v219zM936 219h224v-535h-224v535zM132 1454h229v-1454h-229v1454z" />
    <glyph glyph-name="uni0427" unicode="&#x427;" horiz-adv-x="1044" 
d="M680 1454h232v-1454h-232v1454zM259 490q-79 47 -120.5 137.5t-41.5 217.5v609h232v-613q0 -91 43 -141t121 -50q89 0 138 54t49 152v125h64v-156q0 -121 -34.5 -207t-101 -130.5t-159.5 -44.5q-111 0 -190 47z" />
    <glyph glyph-name="uni0428" unicode="&#x428;" horiz-adv-x="1483" 
d="M1127 1454h224v-1454h-224v1454zM258 219h989v-219h-989v219zM132 1454h224v-1454h-224v1454zM628 1454h224v-1454h-224v1454z" />
    <glyph glyph-name="uni0429" unicode="&#x429;" horiz-adv-x="1563" 
d="M263 219h975v-219h-975v219zM1130 1454h224v-1454h-224v1454zM134 1454h224v-1454h-224v1454zM632 1454h224v-1454h-224v1454zM1288 219h229v-535h-229v535z" />
    <glyph glyph-name="uni042A" unicode="&#x42a;" horiz-adv-x="1188" 
d="M-38 1454h464v-219h-464v219zM371 219h333q49 0 85 21.5t55 62.5t19 97v80q0 57 -19 98.5t-55 63.5t-85 22h-333v219h339q120 0 206.5 -46.5t133 -134t46.5 -208.5v-110q0 -119 -46.5 -205.5t-133.5 -132.5t-206 -46h-339v219zM255 1454h229v-1454h-229v1454z" />
    <glyph glyph-name="uni042B" unicode="&#x42b;" horiz-adv-x="1434" 
d="M248 219h316q49 0 84.5 21.5t55 62.5t19.5 97v80q0 57 -19 98.5t-55 63.5t-85 22h-316v219h321q120 0 207 -46.5t133 -134t46 -208.5v-110q0 -119 -46 -205.5t-133 -132.5t-207 -46h-321v219zM132 1454h229v-1454h-229v1454zM1312 0h-232v1454h232v-1454z" />
    <glyph glyph-name="uni042C" unicode="&#x42c;" horiz-adv-x="1085" 
d="M248 219h353q49 0 85 21.5t55 62.5t19 97v80q0 57 -19 98.5t-55 63.5t-85 22h-353v219h359q120 0 206.5 -46.5t133 -134t46.5 -208.5v-110q0 -119 -46.5 -205.5t-133.5 -132.5t-206 -46h-359v219zM132 1454h229v-1454h-229v1454z" />
    <glyph glyph-name="uni042D" unicode="&#x42d;" horiz-adv-x="1061" 
d="M293 37q-92 52 -144 155.5t-62 256.5v0h234v0q7 -79 31.5 -131.5t65.5 -79t97 -26.5q61 0 104.5 27.5t67 79t23.5 122.5v571q0 71 -23.5 122.5t-67 79.5t-104.5 28q-56 0 -97 -27t-65.5 -79.5t-31.5 -130.5v0h-234v0q10 153 61.5 256.5t144 155.5t222.5 52
q133 0 230 -54.5t148 -157t51 -245.5v-571q0 -142 -51 -245t-147.5 -157t-230.5 -54q-130 0 -222 52zM286 830h536v-216h-536v216z" />
    <glyph glyph-name="uni042E" unicode="&#x42e;" horiz-adv-x="1578" 
d="M230 832h501v-219h-501v219zM355 1h-232v1454h232v-1454zM781.5 39q-100.5 54 -154.5 154.5t-54 236.5v594q0 136 54 236.5t154.5 154.5t235.5 54t235.5 -54t154.5 -154.5t54 -236.5v-594q0 -136 -54 -236.5t-154.5 -154.5t-235.5 -54t-235.5 54zM1128.5 239
q47.5 27 73 77t25.5 117v589q0 67 -25.5 117t-73 76.5t-111.5 26.5t-111.5 -26.5t-73 -76.5t-25.5 -117v-589q0 -67 25.5 -117t73 -77t111.5 -27t111.5 27z" />
    <glyph glyph-name="uni042F" unicode="&#x42f;" horiz-adv-x="1075" 
d="M269 620q-89 48 -137.5 137t-48.5 209v103q0 118 48 205.5t137.5 134t210.5 46.5h351v-219h-341q-52 0 -90.5 -23t-59 -66.5t-20.5 -101.5v-65q0 -58 20.5 -100.5t59 -65.5t90.5 -23h341v-219h-351q-121 0 -210 48zM384 656l219 -46l-267 -610h-259zM714 1455h229v-1455
h-229v1455z" />
    <glyph glyph-name="uni0430" unicode="&#x430;" horiz-adv-x="963" 
d="M625 705q0 70 -39.5 108t-112.5 38q-52 0 -93 -24t-64 -67l-185 67q30 108 120 168t224 60q115 0 197 -41t125 -118t43 -186v-710h-215v705zM170.5 62q-75.5 77 -75.5 231q0 162 87 244t259 82h191l14 -185h-201q-68 0 -102 -35.5t-34 -105.5q0 -59 35 -88t106 -29
q87 0 131 29.5t44 89.5l20 -120q-9 -63 -42 -105t-85.5 -63.5t-120.5 -21.5q-151 0 -226.5 77z" />
    <glyph glyph-name="uni0431" unicode="&#x431;" horiz-adv-x="971" 
d="M298 28.5q-83 43.5 -127 126t-44 199.5v311l170 148q32 100 95 151t159 51q100 0 171.5 -43t109 -124.5t37.5 -196.5v-300q0 -116 -43.5 -198t-126.5 -125t-200 -43q-118 0 -201 43.5zM602.5 235.5q37.5 42.5 37.5 119.5v292q0 76 -37.5 117.5t-104.5 41.5t-104.5 -41.5
t-37.5 -117.5v-292q0 -77 37.5 -119.5t104.5 -42.5t104.5 42.5zM127 957q0 122 39.5 203.5t119.5 129.5t205 66q43 7 70.5 19.5t41 32t13.5 46.5h221q0 -87 -30 -145t-92.5 -91.5t-160.5 -45.5q-70 -10 -114.5 -34.5t-66.5 -67t-22 -108.5v-408h-224v403z" />
    <glyph glyph-name="uni0432" unicode="&#x432;" horiz-adv-x="946" 
d="M255 199h284q48 0 74 27t26 76v34q0 53 -29.5 82t-82.5 29h-272v196h272q44 0 68.5 23.5t24.5 66.5v23q0 39 -23.5 61.5t-65.5 22.5h-276v198h311q133 0 206 -62t73 -175v-43q0 -86 -48.5 -141.5t-135.5 -71.5q97 -18 150 -81t53 -160v-52q0 -120 -77.5 -186t-218.5 -66
h-313v199zM127 1038h224v-1038h-224v1038z" />
    <glyph glyph-name="uni0433" unicode="&#x433;" horiz-adv-x="752" 
d="M127 1038h229v-1038h-229v1038zM238 1038h479v-219h-479v219z" />
    <glyph glyph-name="uni0434" unicode="&#x434;" horiz-adv-x="1108" 
d="M98 214h24q42 0 65.5 27t33.5 80t10 138v579h224v-611q0 -166 -74.5 -250t-213.5 -84h-34zM60 214h217v-475h-217v475zM60 214h895v-214h-895v214zM836 214h217v-475h-217v475zM677 1038h229v-1038h-229v1038zM353 1038h426v-214h-426v214z" />
    <glyph glyph-name="uni0435" unicode="&#x435;" horiz-adv-x="950" 
d="M283 31.5q-88 46.5 -134.5 136t-46.5 216.5v252q0 132 45 226t130 143t206 49q116 0 199.5 -52.5t126.5 -153t43 -241.5v-177h-585v172h368v66q0 84 -41.5 132t-110.5 48q-79 0 -122 -52.5t-43 -148.5v-269q0 -88 45.5 -136.5t128.5 -48.5q57 0 94.5 27.5t54.5 79.5v0
l199 -70v0q-29 -121 -117 -183t-227 -62q-125 0 -213 46.5z" />
    <glyph glyph-name="uni0436" unicode="&#x436;" horiz-adv-x="1297" 
d="M815 437l183 121l312 -558h-260zM299 558l183 -121l-235 -437h-260zM36 1038h243l207 -441l-147 -161zM534 1038h229v-1038h-229v1038zM311 628h685v-216h-685v216zM811 597l208 441h242l-303 -602z" />
    <glyph glyph-name="uni0437" unicode="&#x437;" horiz-adv-x="824" 
d="M221.5 22q-75.5 37 -116 111t-46.5 186v0h219v0q3 -63 35.5 -95t92.5 -32q59 0 92 27.5t33 77.5v50q0 44 -29.5 68t-82.5 24h-128v191h128q40 0 62.5 22t22.5 63v42q0 44 -28.5 68.5t-79.5 24.5q-54 0 -84.5 -30t-36.5 -89v0h-218v0q12 161 98 242t244 81
q154 0 238 -68.5t84 -194.5v-66q0 -62 -32 -109t-95 -72q75 -17 114 -65.5t39 -126.5v-77q0 -138 -89 -214t-251 -76q-110 0 -185.5 37z" />
    <glyph glyph-name="uni0438" unicode="&#x438;" horiz-adv-x="997" 
d="M656 1v706l24 -26l-364 -680h-189v1037h214v-714l-24 26l366 688h186v-1037h-213z" />
    <glyph glyph-name="uni0439" unicode="&#x439;" horiz-adv-x="997" 
d="M656 1v706l24 -26l-364 -680h-189v1037h214v-714l-24 26l366 688h186v-1037h-213zM277 1301q-72 80 -72 234v42h184v-37q0 -73 25 -110.5t72 -37.5h18q48 0 72.5 37.5t24.5 110.5v37h184v-42q0 -154 -71.5 -234t-209.5 -80h-18q-137 0 -209 80z" />
    <glyph glyph-name="uni043A" unicode="&#x43a;" horiz-adv-x="922" 
d="M465 594l176 444h245l-261 -604zM127 1038h229v-1038h-229v1038zM467 434l190 121l277 -555h-262zM237 627h426v-219h-426v219z" />
    <glyph glyph-name="uni043B" unicode="&#x43b;" horiz-adv-x="980" 
d="M57 207q59 0 90.5 42t31.5 122v667h217v-690q0 -116 -36 -195.5t-107 -120.5t-173 -41h-23v216zM624 1038h229v-1038h-229v1038zM314 1038h435v-219h-435v219z" />
    <glyph glyph-name="uni043C" unicode="&#x43c;" horiz-adv-x="1099" 
d="M758 1038h214v-1038h-204v720l14 -53l-166 -426h-133l-168 416l16 63v-720h-204v1038h214l209 -548z" />
    <glyph glyph-name="uni043D" unicode="&#x43d;" horiz-adv-x="999" 
d="M645 1038h226v-1038h-226v1038zM127 1038h227v-1038h-227v1038zM256 617h524v-214h-524v214z" />
    <glyph glyph-name="uni043E" unicode="&#x43e;" horiz-adv-x="946" 
d="M273 29q-83 44 -127 127.5t-44 200.5v331q0 116 44 198.5t127 125.5t201 43q117 0 200 -43t126.5 -125.5t43.5 -198.5v-334q0 -116 -43.5 -199t-126.5 -126.5t-200 -43.5q-118 0 -201 44zM578.5 243.5q37.5 41.5 37.5 117.5v320q0 75 -37.5 116t-105.5 41q-67 0 -105 -41
t-38 -116v-320q0 -76 37.5 -117.5t105.5 -41.5t105.5 41.5z" />
    <glyph glyph-name="uni043F" unicode="&#x43f;" horiz-adv-x="999" 
d="M645 1038h226v-1038h-226v1038zM127 1038h227v-1038h-227v1038zM253 1038h524v-219h-524v219z" />
    <glyph glyph-name="uni0440" unicode="&#x440;" horiz-adv-x="969" 
d="M127 1038h229v-1460h-229v1460zM432.5 31.5q-61.5 46.5 -90.5 131.5l14 190q0 -50 16.5 -85.5t48 -54.5t76.5 -19q68 0 105.5 46t37.5 130v300q0 83 -37.5 129.5t-105.5 46.5q-45 0 -76.5 -18.5t-48 -53.5t-16.5 -85l-21 176q39 90 104 140t144 50q90 0 154 -44
t97 -127.5t33 -201.5v-323q0 -118 -34 -202t-99 -128t-157 -44q-83 0 -144.5 46.5z" />
    <glyph glyph-name="uni0441" unicode="&#x441;" horiz-adv-x="896" 
d="M281 30q-87 45 -133 130.5t-46 206.5v301q0 122 46 209t133 132t210 45q104 0 177.5 -30.5t118 -93t59.5 -156.5v0l-211 -68v0q-14 67 -50 100.5t-93 33.5q-77 0 -119 -46.5t-42 -130.5v-291q0 -83 42 -128t119 -45q57 0 93.5 32.5t49.5 97.5v0l211 -72v0
q-14 -92 -58.5 -152.5t-118.5 -90t-178 -29.5q-123 0 -210 45z" />
    <glyph glyph-name="uni0442" unicode="&#x442;" horiz-adv-x="844" 
d="M308 983h229v-983h-229v983zM72 1038h700v-216h-700v216z" />
    <glyph glyph-name="uni0443" unicode="&#x443;" horiz-adv-x="879" 
d="M867 1038l-374 -1281q-20 -67 -58 -109t-97 -61.5t-142 -19.5h-52v222h53q56 0 87.5 23t47.5 77l312 1149h223zM37 1038h223l272 -900l-125 -230z" />
    <glyph glyph-name="uni0444" unicode="&#x444;" horiz-adv-x="1326" 
d="M779.5 88q-62.5 88 -62.5 249v360q0 163 62.5 252t175.5 89q128 0 198.5 -86.5t70.5 -244.5v-373q0 -159 -70.5 -246.5t-198.5 -87.5q-113 0 -175.5 88zM172 87.5q-70 87.5 -70 246.5v373q0 158 70.5 244.5t199.5 86.5q113 0 175 -89t62 -252v-360q0 -161 -62.5 -249
t-176.5 -88q-128 0 -198 87.5zM517.5 243.5q29.5 38.5 29.5 108.5v337q0 69 -29.5 106.5t-83.5 37.5q-50 0 -78 -38t-28 -106v-337q0 -70 28 -108.5t78 -38.5q54 0 83.5 38.5zM547 1339h231v-1640h-231v1640zM969.5 243.5q27.5 38.5 27.5 108.5v337q0 68 -27.5 106t-77.5 38
q-54 0 -84 -38t-30 -106v-337q0 -70 30 -108.5t84 -38.5q50 0 77.5 38.5z" />
    <glyph glyph-name="uni0445" unicode="&#x445;" horiz-adv-x="932" 
d="M393 461l-335 577h250l231 -453l357 -585h-248zM386 573l116 -186l-214 -387h-246zM451 668l180 370h249l-322 -559z" />
    <glyph glyph-name="uni0446" unicode="&#x446;" horiz-adv-x="1070" 
d="M622 1038h229v-1038h-229v1038zM250 217h477v-217h-477v217zM122 1038h229v-1038h-229v1038zM791 217h229v-477h-229v477z" />
    <glyph glyph-name="uni0447" unicode="&#x447;" horiz-adv-x="985" 
d="M629 1038h229v-1038h-229v1038zM263 355.5q-69 40.5 -105 117.5t-36 185v380h229v-374q0 -65 34 -101t97 -36q70 0 108.5 41t38.5 116v135h76v-136q0 -177 -70 -272.5t-206 -95.5q-97 0 -166 40.5z" />
    <glyph glyph-name="uni0448" unicode="&#x448;" horiz-adv-x="1286" 
d="M256 208h805v-208h-805v208zM940 1038h219v-1038h-219v1038zM127 1038h219v-1038h-219v1038zM534 1038h218v-1038h-218v1038z" />
    <glyph glyph-name="uni0449" unicode="&#x449;" horiz-adv-x="1371" 
d="M251 217h788v-217h-788v217zM529 1038h222v-1038h-222v1038zM122 1038h223v-1038h-223v1038zM1092 217h229v-477h-229v477zM935 1038h217v-1038h-217v1038z" />
    <glyph glyph-name="uni044A" unicode="&#x44a;" horiz-adv-x="1067" 
d="M47 1039l295 -1v-218h-295v219zM384 214h261q54 0 85.5 31t31.5 85v47q0 36 -14.5 62.5t-40.5 40.5t-62 14h-261v204h289q96 0 167.5 -38t110.5 -109t39 -167v-70q0 -96 -39.5 -167t-113.5 -109t-174 -38h-279v214zM270 1038h226v-1038h-226v1038z" />
    <glyph glyph-name="uni044B" unicode="&#x44b;" horiz-adv-x="1258" 
d="M929 1038h216v-1038h-216v1038zM236 214h241q55 0 86 31t31 85v47q0 36 -14 62.5t-40.5 40.5t-62.5 14h-241v204h269q97 0 168.5 -38t110 -109t38.5 -167v-70q0 -96 -39.5 -167t-113.5 -109t-174 -38h-259v214zM127 1038h227v-1038h-227v1038z" />
    <glyph glyph-name="uni044C" unicode="&#x44c;" horiz-adv-x="939" 
d="M246 214h271q55 0 86 31t31 85v47q0 36 -14 62.5t-40.5 40.5t-62.5 14h-271v204h299q97 0 168.5 -38t110 -109t38.5 -167v-70q0 -96 -39.5 -167t-113.5 -109t-174 -38h-289v214zM127 1038h227v-1038h-227v1038z" />
    <glyph glyph-name="uni044D" unicode="&#x44d;" horiz-adv-x="896" 
d="M257 413v204h377v-204h-377zM229 15q-74 30 -119 90.5t-60 150.5v0l207 68v0q17 -69 55.5 -104.5t94.5 -35.5q76 0 117 48t41 135v299q0 85 -41 131.5t-117 46.5q-58 0 -96.5 -35t-53.5 -105v0l-206 69v0q15 93 60 155.5t118.5 93.5t175.5 31q123 0 210.5 -45.5t133 -132
t45.5 -209.5v-299q0 -121 -45.5 -206.5t-133 -130.5t-210.5 -45q-102 0 -176 30z" />
    <glyph glyph-name="uni044E" unicode="&#x44e;" horiz-adv-x="1361" 
d="M256 618h369v-207h-369v207zM123 1038h229v-1038h-229v1038zM688 29q-83 44 -127 127.5t-44 200.5v331q0 116 44 198.5t127 125.5t201 43q117 0 200 -43t126.5 -125.5t43.5 -198.5v-334q0 -116 -43.5 -199t-126.5 -126.5t-200 -43.5q-118 0 -201 44zM993.5 243.5
q37.5 41.5 37.5 117.5v320q0 75 -37.5 116t-105.5 41q-67 0 -105 -41t-38 -116v-320q0 -76 37.5 -117.5t105.5 -41.5t105.5 41.5z" />
    <glyph glyph-name="uni044F" unicode="&#x44f;" horiz-adv-x="955" 
d="M405 333q-97 0 -168.5 38t-110 109t-38.5 167v78q0 95 39.5 166t113.5 109t174 38h294v-214h-278q-53 0 -83 -31t-30 -85v-52q0 -36 13.5 -62.5t39 -40.5t60.5 -14h278v-206h-304zM601 0v1038h226v-1038h-226zM80 0l231 451l220 -46l-203 -405h-248z" />
    <glyph glyph-name="uni0450" unicode="&#x450;" horiz-adv-x="950" 
d="M283 31.5q-88 46.5 -134.5 136t-46.5 216.5v252q0 132 45 226t130 143t206 49q116 0 199.5 -52.5t126.5 -153t43 -241.5v-177h-585v172h368v66q0 84 -41.5 132t-110.5 48q-79 0 -122 -52.5t-43 -148.5v-269q0 -88 45.5 -136.5t128.5 -48.5q57 0 94.5 27.5t54.5 79.5v0
l199 -70v0q-29 -121 -117 -183t-227 -62q-125 0 -213 46.5zM169 1542l166 133l266 -355l-147 -114z" />
    <glyph glyph-name="uni0451" unicode="&#x451;" horiz-adv-x="950" 
d="M283 31.5q-88 46.5 -134.5 136t-46.5 216.5v252q0 132 45 226t130 143t206 49q116 0 199.5 -52.5t126.5 -153t43 -241.5v-177h-585v172h368v66q0 84 -41.5 132t-110.5 48q-79 0 -122 -52.5t-43 -148.5v-269q0 -88 45.5 -136.5t128.5 -48.5q57 0 94.5 27.5t54.5 79.5v0
l199 -70v0q-29 -121 -117 -183t-227 -62q-125 0 -213 46.5zM557 1469h229v-229h-229v229zM171 1469h228v-229h-228v229z" />
    <glyph glyph-name="uni0452" unicode="&#x452;" horiz-adv-x="1015" 
d="M522 -203h78q30 0 46.5 21t16.5 60v677q0 85 -38 130t-111 45q-71 0 -108.5 -43.5t-37.5 -126.5l-21 181q40 96 104.5 145t150.5 49q139 0 214.5 -91t75.5 -260v-700q0 -146 -66 -226t-185 -80h-119v219zM139 1454h229v-1454h-229v1454zM-33 1261h706v-204h-706v204z" />
    <glyph glyph-name="uni0453" unicode="&#x453;" horiz-adv-x="752" 
d="M127 1038h229v-1038h-229v1038zM238 1038h479v-219h-479v219zM300 1321l266 355l166 -134l-285 -336z" />
    <glyph glyph-name="uni0454" unicode="&#x454;" horiz-adv-x="896" 
d="M262 617h378v-204h-378v204zM281 30q-87 45 -133 130.5t-46 206.5v301q0 122 46 209t133 132.5t210 45.5q93 0 166 -28.5t121 -82t67 -130.5v-31l-189 -76v26q-20 51 -61 79t-96 28q-80 0 -124 -46.5t-44 -130.5v-291q0 -83 44 -128t124 -45q55 0 96 27.5t61 77.5v24
l190 -82v-29q-20 -73 -68 -125t-121 -79.5t-166 -27.5q-123 0 -210 45z" />
    <glyph glyph-name="uni0455" unicode="&#x455;" horiz-adv-x="900" 
d="M252 13.5q-80 28.5 -132.5 84.5t-75.5 137v0l194 94v0q30 -68 82.5 -102.5t123.5 -34.5q76 0 118 30.5t42 83.5q0 40 -23.5 63t-59.5 34.5t-101 24.5l-20 4l-20 4q-4 1 -7 1.5t-6 1.5q-88 20 -148 47.5t-100 87.5t-40 162q0 100 42.5 171.5t123 109t192.5 37.5
q96 0 169.5 -26.5t123 -78t72.5 -126.5v0l-194 -91v0q-26 56 -70 86t-102 30q-68 0 -105 -28.5t-37 -79.5q0 -38 24.5 -60t61 -32.5t101.5 -23.5q4 0 7.5 -0.5t6.5 -1.5q2 -1 4.5 -1t4.5 -1q97 -18 161 -43.5t108.5 -89.5t44.5 -178q0 -102 -45 -175t-130.5 -111t-206.5 -38
q-104 0 -184 28.5z" />
    <glyph glyph-name="uni0456" unicode="&#x456;" horiz-adv-x="460" 
d="M118 1451h229v-229h-229v229zM118 1038h229v-1038h-229v1038z" />
    <glyph glyph-name="uni0457" unicode="&#x457;" horiz-adv-x="460" 
d="M118 1038h229v-1038h-229v1038zM312 1469h229v-229h-229v229zM-74 1469h228v-229h-228v229z" />
    <glyph glyph-name="uni0458" unicode="&#x458;" horiz-adv-x="488" 
d="M2 -201h65q32 0 50 21t18 60v1158h230v-1185q0 -131 -67 -203t-189 -72h-107v221zM134 1450h232v-228h-232v228z" />
    <glyph glyph-name="uni0459" unicode="&#x459;" horiz-adv-x="1410" 
d="M729 214h261q54 0 84.5 30.5t30.5 83.5v49q0 35 -14 61t-40 40t-61 14h-261v206h287q96 0 167.5 -38t110.5 -109t39 -167v-70q0 -96 -39.5 -167t-113.5 -109t-174 -38h-277v214zM57 207q59 0 90.5 42t31.5 122v667h217v-690q0 -116 -36 -195.5t-107 -120.5t-173 -41h-23
v216zM624 1038h229v-1038h-229v1038zM314 1038h435v-219h-435v219z" />
    <glyph glyph-name="uni045A" unicode="&#x45a;" horiz-adv-x="1434" 
d="M740 214h274q54 0 84.5 30.5t30.5 83.5v49q0 35 -14 61t-40 40t-61 14h-274v206h300q96 0 167.5 -38t110.5 -109t39 -167v-70q0 -96 -39.5 -167t-113.5 -109t-174 -38h-290v214zM645 1038h226v-1038h-226v1038zM127 1038h227v-1038h-227v1038zM256 617h524v-214h-524v214
z" />
    <glyph glyph-name="uni045B" unicode="&#x45b;" horiz-adv-x="1015" 
d="M-33 1260h736v-201h-736v201zM143 1454h229v-1454h-229v1454zM663 557q0 78 -38 120t-109 42q-70 0 -107 -40t-37 -116l-20 176q40 96 106 146t152 50q135 0 208.5 -90.5t73.5 -257.5v-587h-229v557z" />
    <glyph glyph-name="uni045C" unicode="&#x45c;" horiz-adv-x="922" 
d="M465 594l176 444h245l-261 -604zM127 1038h229v-1038h-229v1038zM467 434l190 121l277 -555h-262zM237 627h426v-219h-426v219zM358 1321l266 355l166 -134l-285 -336z" />
    <glyph glyph-name="uni045D" unicode="&#x45d;" horiz-adv-x="997" 
d="M656 1v706l24 -26l-364 -680h-189v1037h214v-714l-24 26l366 688h186v-1037h-213zM186 1542l166 133l266 -355l-147 -114z" />
    <glyph glyph-name="uni045E" unicode="&#x45e;" horiz-adv-x="879" 
d="M867 1038l-374 -1281q-20 -67 -58 -109t-97 -61.5t-142 -19.5h-52v222h53q56 0 87.5 23t47.5 77l312 1149h223zM37 1038h223l272 -900l-125 -230zM242 1301q-72 80 -72 234v42h184v-37q0 -73 25 -110.5t72 -37.5h18q48 0 72.5 37.5t24.5 110.5v37h184v-42
q0 -154 -71.5 -234t-209.5 -80h-18q-137 0 -209 80z" />
    <glyph glyph-name="uni045F" unicode="&#x45f;" horiz-adv-x="984" 
d="M628 1038h229v-1038h-229v1038zM382 219h229v-479h-229v479zM255 219h494v-219h-494v219zM127 1038h229v-1038h-229v1038z" />
    <glyph glyph-name="uni0460" unicode="&#x460;" horiz-adv-x="1749" 
d="M317 40.5q-96 55.5 -148 158t-52 241.5v574q0 139 53.5 241.5t152.5 158t232 55.5h21v-222h-21q-61 0 -106.5 -28t-70 -80t-24.5 -122v-581q0 -69 24.5 -120t69.5 -78.5t105 -27.5q62 0 109 27.5t72 78.5t25 120v249h205v-245q0 -60 -15 -113.5t-45 -98.5
q-45 -117 -138.5 -180t-223.5 -63q-129 0 -225 55.5zM982.5 49q-92.5 64 -135.5 182q-28 46 -42.5 98t-14.5 111v245h201v-249q0 -69 25 -120t71.5 -78.5t109.5 -27.5q60 0 105 27.5t69 78.5t24 120v581q0 70 -24.5 122t-70 80t-106.5 28h-21v222h21q133 0 232 -55.5
t152.5 -158t53.5 -241.5v-574q0 -139 -52 -241.5t-148 -158t-225 -55.5q-132 0 -224.5 64z" />
    <glyph glyph-name="uni0461" unicode="&#x461;" horiz-adv-x="1374" 
d="M508 1038h240l197 -716q40 88 67.5 201.5t41.5 233.5t15 251v30h238q0 -169 -40 -361.5t-108.5 -370.5t-150.5 -306h-171zM27 1038h240l221 -726l202 437l97 -197l-255 -552h-167z" />
    <glyph glyph-name="uni0462" unicode="&#x462;" horiz-adv-x="1095" 
d="M-49 1302h764v-216h-764v216zM258 219h353q49 0 85 21.5t55 62.5t19 97v80q0 57 -19 98.5t-55 63.5t-85 22h-353v219h359q120 0 206.5 -46.5t133 -134t46.5 -208.5v-110q0 -119 -46.5 -205.5t-133.5 -132.5t-206 -46h-359v219zM142 1454h229v-1454h-229v1454z" />
    <glyph glyph-name="uni0463" unicode="&#x463;" horiz-adv-x="971" 
d="M-33 1154h731v-206h-731v206zM273 214h276q53 0 82.5 30t29.5 83v39q0 35 -13.5 60.5t-38.5 39t-60 13.5h-276v214h304q97 0 168.5 -38t110 -109t38.5 -167v-65q0 -96 -39.5 -167t-113.5 -109t-174 -38h-294v214zM154 1340h227v-1340h-227v1340z" />
    <glyph glyph-name="uni0464" unicode="&#x464;" horiz-adv-x="1453" 
d="M225 830h415v-216h-415v216zM360 0h-232v1454h232v-1454zM630 830h537v-216h-537v216zM708.5 39.5q-96.5 54.5 -148.5 157.5t-52 245v570q0 142 52 245t148.5 157.5t229.5 54.5q120 0 212 -50t147 -144.5t68 -224.5v-45h-234v45q-8 59 -34.5 102.5t-67.5 66.5t-91 23
q-60 0 -104 -27.5t-67.5 -79.5t-23.5 -123v-570q0 -71 23.5 -122.5t67.5 -79t104 -27.5q51 0 91.5 22t67 65.5t34.5 103.5v45h234v-45q-13 -130 -68.5 -224.5t-147 -144.5t-211.5 -50q-133 0 -229.5 54.5z" />
    <glyph glyph-name="uni0465" unicode="&#x465;" horiz-adv-x="1321" 
d="M254 617h396v-204h-396v204zM123 1038h229v-1038h-229v1038zM687 617h378v-204h-378v204zM706 30q-87 45 -133 130.5t-46 206.5v301q0 122 46 209t133 132.5t210 45.5q140 0 232.5 -63t121.5 -178v-31l-189 -76v26q-20 51 -61 79t-96 28q-80 0 -124 -46.5t-44 -130.5
v-291q0 -83 44 -128t124 -45q55 0 96 27.5t61 77.5v24l190 -82v-29q-29 -110 -122 -171t-233 -61q-123 0 -210 45z" />
    <glyph glyph-name="uni0466" unicode="&#x466;" horiz-adv-x="1146" 
d="M486 1454h174l459 -1454h-241l-305 1069l-304 -1069h-242zM467 499h212v-499h-212v499zM306 609h542v-215h-542v215z" />
    <glyph glyph-name="uni0467" unicode="&#x467;" horiz-adv-x="936" 
d="M378 1041h180l351 -1041h-224l-217 735l-217 -735h-224zM380 336h176v-336h-176v336zM249 407h442l10 -178h-452v178z" />
    <glyph glyph-name="uni0468" unicode="&#x468;" horiz-adv-x="1542" 
d="M260 609h480v-214h-480v214zM350 0h-232v1454h232v-1454zM882 1454h174l459 -1454h-241l-305 1069l-304 -1069h-242zM863 499h212v-499h-212v499zM702 609h542v-215h-542v215z" />
    <glyph glyph-name="uni0469" unicode="&#x469;" horiz-adv-x="1366" 
d="M244 407h458v-177h-458v177zM127 1038h229v-1038h-229v1038zM808 1041h180l351 -1041h-224l-217 735l-217 -735h-224zM810 336h176v-336h-176v336zM679 407h442l10 -178h-452v178z" />
    <glyph glyph-name="uni046A" unicode="&#x46a;" horiz-adv-x="1324" 
d="M243 1454h828v-220h-828v220zM445 650l-422 804h277l373 -750zM1016 1454h279l-414 -803l-234 46zM108 473q26 113 84 186.5t135.5 108t165.5 34.5l40 -206q-42 0 -82.5 -21.5t-71.5 -66t-44 -111.5l-77 -397h-256zM549 700h229v-700h-229v700zM475 802h84l101 -132
l97 132h83v-206h-355zM989 397q-13 67 -44 111.5t-71.5 66t-82.5 21.5l40 206q88 0 165.5 -34.5t135.5 -108t84 -186.5l106 -473h-256z" />
    <glyph glyph-name="uni046B" unicode="&#x46b;" horiz-adv-x="1124" 
d="M539 478l336 560h256l-372 -595zM60 271q38 160 136.5 239.5t256.5 79.5l-20 -208q-58 0 -93.5 -34t-50.5 -103l-49 -245h-243zM445 467h234v-467h-234v467zM433 590h43l90 -95l77 95h28l30 -208h-288zM-7 1038h256l339 -556l-227 -28zM835 245q-15 69 -53.5 103
t-100.5 34l-20 208q161 0 263 -79.5t140 -239.5l63 -271h-243zM193 1038h748v-209h-748v209z" />
    <glyph glyph-name="uni046C" unicode="&#x46c;" horiz-adv-x="1770" 
d="M300 802h640v-206h-640v206zM360 0h-232v1454h232v-1454zM689 1454h828v-220h-828v220zM891 650l-422 804h277l373 -750zM1462 1454h279l-414 -803l-234 46zM554 473q26 113 84 186.5t135.5 108t165.5 34.5l40 -206q-42 0 -82.5 -21.5t-71.5 -66t-44 -111.5l-77 -397
h-256zM995 700h229v-700h-229v700zM921 802h84l101 -132l97 132h83v-206h-355zM1435 397q-13 67 -44 111.5t-71.5 66t-82.5 21.5l40 206q88 0 165.5 -34.5t135.5 -108t84 -186.5l106 -473h-256z" />
    <glyph glyph-name="uni046D" unicode="&#x46d;" horiz-adv-x="1571" 
d="M280 590h511v-208h-511v208zM118 1038h229v-1038h-229v1038zM986 478l336 560h256l-372 -595zM507 271q38 160 136.5 239.5t256.5 79.5l-20 -208q-58 0 -93.5 -34t-50.5 -103l-49 -245h-243zM892 467h234v-467h-234v467zM880 590h43l90 -95l77 95h28l30 -208h-288z
M440 1038h256l339 -556l-227 -28zM1282 245q-15 69 -53.5 103t-100.5 34l-20 208q161 0 263 -79.5t140 -239.5l63 -271h-243zM640 1038h748v-209h-748v209z" />
    <glyph glyph-name="uni046E" unicode="&#x46e;" horiz-adv-x="1038" 
d="M408 -422q-154 0 -237.5 78t-83.5 223q0 156 83.5 240.5t237.5 84.5h99q99 0 151 49t52 141v72q0 88 -42.5 134.5t-121.5 46.5h-103v218h103q67 0 103.5 39t36.5 111v66q0 80 -45 122.5t-131 42.5q-84 0 -131.5 -47t-56.5 -140v-1h-230v1q13 204 118.5 307t299.5 103
q134 0 225.5 -41.5t139 -124t47.5 -205.5v-74q0 -63 -17.5 -111t-54 -85.5t-95.5 -68.5q93 -27 142 -104.5t49 -194.5v-87q0 -125 -49.5 -212t-144.5 -132t-232 -45h-105q-49 0 -75 -24t-26 -69t26 -69.5t75 -24.5h351v-219h-358zM207 1808l128 131l190 -152l189 152
l129 -131l-318 -256z" />
    <glyph glyph-name="uni046F" unicode="&#x46f;" horiz-adv-x="813" 
d="M375 -422q-154 0 -235 76.5t-81 222.5q0 152 79 231t229 79h24q59 0 91 28t32 80v30q0 49 -27.5 75t-77.5 26h-85v210h85q38 0 59.5 21t21.5 59v57q0 42 -24 64.5t-69 22.5q-48 0 -74.5 -31.5t-31.5 -96.5v-1h-220v1q5 110 42 181.5t107.5 106t176.5 34.5q153 0 234 -66
t81 -190v-75q0 -40 -14 -75.5t-40.5 -64t-63.5 -44.5q44 -10 76.5 -40t49 -74.5t16.5 -98.5v-53q0 -138 -85.5 -212.5t-247.5 -75.5h-16q-51 0 -78 -25t-27 -71t27 -70t78 -24h256v-217h-268zM92 1514l134 120l175 -183l175 183l134 -120l-309 -316z" />
    <glyph glyph-name="uni0470" unicode="&#x470;" horiz-adv-x="1252" 
d="M349 414q-114 58 -173.5 169t-59.5 269v602h226v-609q0 -85 33 -145.5t97 -92t154 -31.5q91 0 154.5 31.5t96.5 92t33 145.5v609h226v-602q0 -158 -59.5 -269t-173.5 -169t-277 -58t-277 58zM511 1454h232v-1454h-232v1454z" />
    <glyph glyph-name="uni0471" unicode="&#x471;" horiz-adv-x="1297" 
d="M367 43q-117 58 -178.5 169t-61.5 270v556h224v-566q0 -91 35 -155.5t102 -98t163 -33.5t163 33.5t102 98t35 155.5v566h224v-556q0 -159 -61 -270t-178.5 -169t-284.5 -58t-284 58zM540 1339h224v-1640h-224v1640z" />
    <glyph glyph-name="uni0472" unicode="&#x472;" horiz-adv-x="1122" 
d="M250 832h619v-219h-619v219zM325.5 39q-100.5 54 -154.5 154.5t-54 236.5v594q0 136 54 236.5t154.5 154.5t235.5 54t235.5 -54t154.5 -154.5t54 -236.5v-594q0 -136 -54 -236.5t-154.5 -154.5t-235.5 -54t-235.5 54zM672.5 239q47.5 27 73 77t25.5 117v589
q0 67 -25.5 117t-73 76.5t-111.5 26.5t-111.5 -26.5t-73 -76.5t-25.5 -117v-589q0 -67 25.5 -117t73 -77t111.5 -27t111.5 27z" />
    <glyph glyph-name="uni0473" unicode="&#x473;" horiz-adv-x="946" 
d="M189 613h590v-188h-590v188zM273 29q-83 44 -127 127.5t-44 200.5v331q0 116 44 198.5t127 125.5t201 43q117 0 200 -43t126.5 -125.5t43.5 -198.5v-334q0 -116 -43.5 -199t-126.5 -126.5t-200 -43.5q-118 0 -201 44zM578.5 243.5q37.5 41.5 37.5 117.5v320
q0 75 -37.5 116t-105.5 41q-67 0 -105 -41t-38 -116v-320q0 -76 37.5 -117.5t105.5 -41.5t105.5 41.5z" />
    <glyph glyph-name="uni0474" unicode="&#x474;" horiz-adv-x="1014" 
d="M12 1454h240l249 -1058l193 839q19 75 50 124.5t81.5 75.5t123.5 26h123v-219h-87q-28 0 -44 -16.5t-24 -51.5l-307 -1174h-217z" />
    <glyph glyph-name="uni0475" unicode="&#x475;" horiz-adv-x="958" 
d="M52 1038h229l187 -712l111 501q18 78 51 128t80.5 74t110.5 24h89v-219h-43q-36 0 -59.5 -18.5t-34.5 -56.5l-219 -759h-173z" />
    <glyph glyph-name="uni0476" unicode="&#x476;" horiz-adv-x="1014" 
d="M117 1786l162 155l233 -268l-145 -129zM519 1786l162 155l233 -268l-145 -129zM12 1454h240l249 -1058l193 839q19 75 50 124.5t81.5 75.5t123.5 26h123v-219h-87q-28 0 -44 -16.5t-24 -51.5l-307 -1174h-217z" />
    <glyph glyph-name="uni0477" unicode="&#x477;" horiz-adv-x="960" 
d="M31 1556l181 118l226 -370l-167 -107zM410 1556l182 118l226 -370l-168 -107zM55 1038h228l187 -712l112 501q18 78 50.5 128t80 74t110.5 24h90v-219h-44q-36 0 -59 -18.5t-34 -56.5l-219 -759h-173z" />
    <glyph glyph-name="uni0478" unicode="&#x478;" horiz-adv-x="1951" 
d="M325.5 39q-100.5 54 -154.5 154.5t-54 236.5v594q0 136 54 236.5t154.5 154.5t235.5 54t235.5 -54t154.5 -154.5t54 -236.5v-594q0 -136 -54 -236.5t-154.5 -154.5t-235.5 -54t-235.5 54zM672.5 239q47.5 27 73 77t25.5 117v589q0 67 -25.5 117t-73 76.5t-111.5 26.5
t-111.5 -26.5t-73 -76.5t-25.5 -117v-589q0 -67 25.5 -117t73 -77t111.5 -27t111.5 27zM1939 1038l-374 -1281q-20 -67 -58 -109t-97 -61.5t-142 -19.5h-52v222h53q56 0 87.5 23t47.5 77l312 1149h223zM1109 1038h223l272 -900l-125 -230z" />
    <glyph glyph-name="uni0479" unicode="&#x479;" horiz-adv-x="1785" 
d="M273 29q-83 44 -127 127.5t-44 200.5v331q0 116 44 198.5t127 125.5t201 43q117 0 200 -43t126.5 -125.5t43.5 -198.5v-334q0 -116 -43.5 -199t-126.5 -126.5t-200 -43.5q-118 0 -201 44zM578.5 243.5q37.5 41.5 37.5 117.5v320q0 75 -37.5 116t-105.5 41q-67 0 -105 -41
t-38 -116v-320q0 -76 37.5 -117.5t105.5 -41.5t105.5 41.5zM1773 1038l-374 -1281q-20 -67 -58 -109t-97 -61.5t-142 -19.5h-52v222h53q56 0 87.5 23t47.5 77l312 1149h223zM943 1038h223l272 -900l-125 -230z" />
    <glyph glyph-name="uni047A" unicode="&#x47a;" horiz-adv-x="1122" 
d="M469 1586h184v-580h-184v580zM469 449h184v-581h-184v581zM325.5 39q-100.5 54 -154.5 154.5t-54 236.5v594q0 136 54 236.5t154.5 154.5t235.5 54t235.5 -54t154.5 -154.5t54 -236.5v-594q0 -136 -54 -236.5t-154.5 -154.5t-235.5 -54t-235.5 54zM672.5 239
q47.5 27 73 77t25.5 117v589q0 67 -25.5 117t-73 76.5t-111.5 26.5t-111.5 -26.5t-73 -76.5t-25.5 -117v-589q0 -67 25.5 -117t73 -77t111.5 -27t111.5 27z" />
    <glyph glyph-name="uni047B" unicode="&#x47b;" horiz-adv-x="946" 
d="M406 1170h134v-510h-134v510zM406 379h134v-511h-134v511zM273 29q-83 44 -127 127.5t-44 200.5v331q0 116 44 198.5t127 125.5t201 43q117 0 200 -43t126.5 -125.5t43.5 -198.5v-334q0 -116 -43.5 -199t-126.5 -126.5t-200 -43.5q-118 0 -201 44zM578.5 243.5
q37.5 41.5 37.5 117.5v320q0 75 -37.5 116t-105.5 41q-67 0 -105 -41t-38 -116v-320q0 -76 37.5 -117.5t105.5 -41.5t105.5 41.5z" />
    <glyph glyph-name="uni047C" unicode="&#x47c;" horiz-adv-x="1749" 
d="M317 40.5q-96 55.5 -148 158t-52 241.5v574q0 139 53.5 241.5t152.5 158t232 55.5h21v-222h-21q-61 0 -106.5 -28t-70 -80t-24.5 -122v-581q0 -69 24.5 -120t69.5 -78.5t105 -27.5q62 0 109 27.5t72 78.5t25 120v249h205v-245q0 -60 -15 -113.5t-45 -98.5
q-45 -117 -138.5 -180t-223.5 -63q-129 0 -225 55.5zM982.5 49q-92.5 64 -135.5 182q-28 46 -42.5 98t-14.5 111v245h201v-249q0 -69 25 -120t71.5 -78.5t109.5 -27.5q60 0 105 27.5t69 78.5t24 120v581q0 70 -24.5 122t-70 80t-106.5 28h-21v222h21q133 0 232 -55.5
t152.5 -158t53.5 -241.5v-574q0 -139 -52 -241.5t-148 -158t-225 -55.5q-132 0 -224.5 64zM539 1879h676v-211h-676v211zM538 1801h224v-235h-224v235zM992 1982h223v-240h-223v240z" />
    <glyph glyph-name="uni047D" unicode="&#x47d;" horiz-adv-x="1374" 
d="M508 1038h240l197 -716q40 88 67.5 201.5t41.5 233.5t15 251v30h238q0 -169 -40 -361.5t-108.5 -370.5t-150.5 -306h-171zM27 1038h240l221 -726l202 437l97 -197l-255 -552h-167zM348 1463h676v-211h-676v211zM347 1385h224v-235h-224v235zM801 1566h223v-240h-223v240z
" />
    <glyph glyph-name="uni047E" unicode="&#x47e;" horiz-adv-x="1749" 
d="M1261 1811v-153h-762v153h762zM1261 1741v-200h-197v200h197zM499 1541v200h197v-200h-197zM971 1741v-200h-182v200h182zM317 40.5q-96 55.5 -148 158t-52 241.5v574q0 139 53.5 241.5t152.5 158t232 55.5h21v-222h-21q-61 0 -106.5 -28t-70 -80t-24.5 -122v-581
q0 -69 24.5 -120t69.5 -78.5t105 -27.5q62 0 109 27.5t72 78.5t25 120v249h205v-245q0 -60 -15 -113.5t-45 -98.5q-45 -117 -138.5 -180t-223.5 -63q-129 0 -225 55.5zM982.5 49q-92.5 64 -135.5 182q-28 46 -42.5 98t-14.5 111v245h201v-249q0 -69 25 -120t71.5 -78.5
t109.5 -27.5q60 0 105 27.5t69 78.5t24 120v581q0 70 -24.5 122t-70 80t-106.5 28h-21v222h21q133 0 232 -55.5t152.5 -158t53.5 -241.5v-574q0 -139 -52 -241.5t-148 -158t-225 -55.5q-132 0 -224.5 64z" />
    <glyph glyph-name="uni047F" unicode="&#x47f;" horiz-adv-x="1374" 
d="M1069 1512v-157h-762v157h762zM1069 1442v-207h-197v207h197zM307 1235v207h197v-207h-197zM779 1442v-207h-182v207h182zM508 1038h240l197 -716q40 88 67.5 201.5t41.5 233.5t15 251v30h238q0 -169 -40 -361.5t-108.5 -370.5t-150.5 -306h-171zM27 1038h240l221 -726
l202 437l97 -197l-255 -552h-167z" />
    <glyph glyph-name="uni0480" unicode="&#x480;" horiz-adv-x="1092" 
d="M332 301.5q-105 54.5 -160 158t-55 249.5v290q0 149 53.5 254.5t155 160.5t244.5 55q136 0 229 -50.5t144 -153t62 -260.5v0h-234v0q-7 80 -31.5 132.5t-67 78.5t-102.5 26q-104 0 -161.5 -64t-57.5 -179v-290q0 -112 61.5 -173t172.5 -61v-228q-148 0 -253 54.5z
M497 475h229v-475h-229v475z" />
    <glyph glyph-name="uni0481" unicode="&#x481;" horiz-adv-x="895" 
d="M283 30q-88 45 -134.5 130.5t-46.5 206.5v301q0 122 45 209t132 132t209 45q104 0 178.5 -30.5t119.5 -93t60 -156.5v0l-212 -68v0q-13 69 -49 103t-93 34q-77 0 -119 -46.5t-42 -130.5v-296q0 -86 45 -134t126 -48l-6 -203q-125 0 -213 45zM401 188h229v-475h-229v475z
" />
    <glyph glyph-name="uni0482" unicode="&#x482;" horiz-adv-x="1150" 
d="M808 1452l194 -85l-658 -1382l-190 88zM1113 860l-88 -184l-753 359l88 184zM878 376l-88 -184l-753 356l88 184z" />
    <glyph glyph-name="uni0483" unicode="&#x483;" 
d="M-769 1463h676v-211h-676v211zM-770 1385h224v-235h-224v235zM-316 1566h223v-240h-223v240z" />
    <glyph glyph-name="uni0484" unicode="&#x484;" 
d="M-242 1265q0 27 -13.5 41t-39.5 14q-28 0 -59 -9.5t-77 -28.5l-6 -2t-6 -3q-3 -1 -6 -2.5t-6 -2.5q-63 -26 -116.5 -40t-111.5 -14h-20v199h18q48 0 96 12t108 35q4 2 8 3.5t9 3.5q2 1 5 2t5 2q67 25 115 38.5t97 13.5q95 0 145 -62.5t50 -181.5v-66h-195v48z" />
    <glyph glyph-name="uni0485" unicode="&#x485;" 
d="M-760 1464h677v-211h-677v211zM-760 1385h224v-235h-224v235zM-760 1566h224v-240h-224v240z" />
    <glyph glyph-name="uni0486" unicode="&#x486;" 
d="M-759 1464h677v-211h-677v211zM-306 1385h224v-235h-224v235zM-306 1566h224v-240h-224v240z" />
    <glyph glyph-name="uni0487" unicode="&#x487;" 
d="M-172.5 1231q-50.5 13 -108.5 35q-7 3 -13.5 6t-13.5 6q-3 1 -5.5 2t-5.5 2q-46 19 -77.5 28.5t-58.5 9.5t-40.5 -14t-13.5 -41v-48h-194v66q0 119 49.5 181.5t145.5 62.5q50 0 99.5 -14t116.5 -40q4 -1 7.5 -2.5t7.5 -2.5q63 -25 112 -38t100 -13h18v-199h-21
q-54 0 -104.5 13z" />
    <glyph glyph-name="uni0488" unicode="&#x488;" 
d="M-1458 1136q0 51 -17 76.5t-50 25.5h-14q-33 0 -50.5 -25.5t-17.5 -76.5v-28h-175v35q0 120 61.5 182.5t179.5 62.5h18q117 0 178.5 -62.5t61.5 -182.5v-35h-175v28zM-1615 672q0 51 -17 76.5t-51 25.5h-13q-34 0 -51.5 -26t-17.5 -76v-28h-175v35q0 120 61.5 182.5
t179.5 62.5h18q118 0 179.5 -62.5t61.5 -182.5v-35h-175v28zM-1458 206q0 51 -17 76.5t-50 25.5h-14q-33 0 -50.5 -26t-17.5 -76v-28h-175v35q0 120 61.5 182.5t179.5 62.5h18q117 0 178.5 -62.5t61.5 -182.5v-35h-175v28zM-355 1136q0 51 -17 76.5t-50 25.5h-14
q-33 0 -50.5 -26t-17.5 -76v-28h-175v35q0 120 61.5 182.5t179.5 62.5h18q117 0 178.5 -62.5t61.5 -182.5v-35h-175v28zM-906 1416q0 51 -17 76.5t-51 25.5h-13q-34 0 -51.5 -26t-17.5 -76v-28h-175v35q0 120 61.5 182.5t179.5 62.5h18q118 0 179.5 -62.5t61.5 -182.5v-35
h-175v28zM-197 672q0 51 -17 76.5t-51 25.5h-13q-39 0 -59 -26t-20 -76v-28h-165v35q0 120 61.5 182.5t179.5 62.5h18q118 0 179.5 -62.5t61.5 -182.5v-35h-175v28zM-355 206q0 51 -17 76.5t-50 25.5h-14q-33 0 -50.5 -26t-17.5 -76v-28h-175v35q0 120 61.5 182.5
t179.5 62.5h18q117 0 178.5 -62.5t61.5 -182.5v-35h-175v28zM-906 -163q0 51 -17 76.5t-51 25.5h-13q-34 0 -51.5 -25.5t-17.5 -76.5v-28h-175v35q0 120 61.5 182.5t179.5 62.5h18q118 0 179.5 -62.5t61.5 -182.5v-35h-175v28z" />
    <glyph glyph-name="uni0489" unicode="&#x489;" 
d="M-723 1206l167 159l302 -26l-311 -298zM-1741 175l310 298l158 -165l-166 -159zM-1112 226h229v-231l-229 -200v431zM-1932 871h431v-228h-231zM-723 308l159 165l165 -160l-12 -302zM-1596 1201l12 302l311 -298l-158 -164zM-1112 1519l229 200v-431h-229v231zM-494 871
h231l200 -228h-431v228z" />
    <glyph glyph-name="uni048A" unicode="&#x48a;" horiz-adv-x="1188" 
d="M968 47l28 -47h-76v208h289l-75 -524h-218zM824 1v1090l23 -27l-502 -1063h-213v1453h219v-1102l-24 27l504 1075h211v-1453h-218zM884 1871q0 -149 -78 -231t-220 -82h-8q-142 0 -220 82t-78 231l188 -2q0 -68 29 -106t81 -38h8q53 0 82 38t29 106z" />
    <glyph glyph-name="uni048B" unicode="&#x48b;" horiz-adv-x="1041" 
d="M1029 220l-75 -481h-215l42 265l33 216h215zM656 1v706l24 -26l-364 -680h-189v1037h214v-714l-24 26l366 688h186v-1037h-213zM276.5 1301q-71.5 80 -71.5 234v42h184v-37q0 -73 24.5 -110.5t72.5 -37.5h18q47 0 71.5 37.5t24.5 110.5v37h184v-42q0 -154 -71.5 -234
t-208.5 -80h-18q-138 0 -209.5 80z" />
    <glyph glyph-name="uni048C" unicode="&#x48c;" horiz-adv-x="1113" 
d="M7 1299h650v-212h-650v212zM275 219h354q49 0 84.5 21.5t55 62.5t19.5 97v80q0 57 -19 98.5t-55 63.5t-85 22h-354v219h359q120 0 207 -46.5t133 -134t46 -208.5v-110q0 -119 -46 -205.5t-133 -132.5t-207 -46h-359v219zM160 1454h229v-1454h-229v1454z" />
    <glyph glyph-name="uni048D" unicode="&#x48d;" horiz-adv-x="963" 
d="M-13 1038h617v-196h-617v196zM151 1454h226v-546h-226v546zM270 214h271q55 0 86 31t31 85v47q0 36 -14 62.5t-40.5 40.5t-62.5 14h-271v204h299q97 0 168.5 -38t110 -109t38.5 -167v-70q0 -96 -39.5 -167t-113.5 -109t-174 -38h-289v214zM151 1038h227v-1038h-227v1038z
" />
    <glyph glyph-name="uni048E" unicode="&#x48e;" horiz-adv-x="1085" 
d="M463 925l155 83l304 -566l-156 -84zM245 783h366q46 0 80.5 21.5t53 61t18.5 92.5v99q0 54 -18.5 94.5t-53 62t-80.5 21.5h-366v219h363q119 0 207 -47t135.5 -134.5t47.5 -206.5v-119q0 -117 -47.5 -203.5t-135.5 -133t-207 -46.5h-363v219zM132 1454h229v-1454h-229
v1454z" />
    <glyph glyph-name="uni048F" unicode="&#x48f;" horiz-adv-x="969" 
d="M401 359l134 68l259 -572l-136 -69zM127 1038h229v-1460h-229v1460zM432.5 31.5q-61.5 46.5 -90.5 131.5l14 190q0 -50 16.5 -85.5t48 -54.5t76.5 -19q68 0 105.5 46t37.5 130v300q0 83 -37.5 129.5t-105.5 46.5q-45 0 -76.5 -18.5t-48 -53.5t-16.5 -85l-21 176
q39 90 104 140t144 50q90 0 154 -44t97 -127.5t33 -201.5v-323q0 -118 -34 -202t-99 -128t-157 -44q-83 0 -144.5 46.5z" />
    <glyph glyph-name="uni0490" unicode="&#x490;" horiz-adv-x="800" 
d="M596 1696h221v-354h-221v354zM132 1454h229v-1454h-229v1454zM251 1454h566v-219h-566v219z" />
    <glyph glyph-name="uni0491" unicode="&#x491;" horiz-adv-x="752" 
d="M501 1217h216v-328h-216v328zM127 1038h229v-1038h-229v1038zM238 1038h479v-219h-479v219z" />
    <glyph glyph-name="uni0492" unicode="&#x492;" horiz-adv-x="910" 
d="M67 832h683v-219h-683v219zM243 1454h229v-1454h-229v1454zM362 1454h566v-219h-566v219z" />
    <glyph glyph-name="uni0493" unicode="&#x493;" horiz-adv-x="822" 
d="M22 575h642v-204h-642v204zM197 1038h229v-1038h-229v1038zM308 1038h479v-219h-479v219z" />
    <glyph glyph-name="uni0494" unicode="&#x494;" horiz-adv-x="1066" 
d="M540 -77h40q93 0 141.5 57.5t48.5 165.5v267q0 125 -52 191.5t-149 66.5q-101 0 -154.5 -52t-53.5 -150v-101l-39 60v108q0 114 35 193t104 119.5t167 40.5q121 0 205 -54t127.5 -158.5t43.5 -256.5v-270q0 -146 -45.5 -245.5t-135 -150t-220.5 -50.5h-63v219zM132 1454
h229v-1454h-229v1454zM251 1454h566v-219h-566v219z" />
    <glyph glyph-name="uni0495" unicode="&#x495;" horiz-adv-x="959" 
d="M756 591.5q69 -48.5 105 -141t36 -221.5v-244q0 -132 -42.5 -223t-125 -137.5t-201.5 -46.5h-47v219h32q75 0 113.5 49.5t38.5 145.5v228q0 101 -42.5 157t-119.5 56q-70 0 -108.5 -41.5t-38.5 -116.5v-69l-40 20v108q0 146 72 226t202 80q97 0 166 -48.5zM127 1038h229
v-1038h-229v1038zM238 1038h479v-219h-479v219z" />
    <glyph glyph-name="uni0496" unicode="&#x496;" horiz-adv-x="1746" 
d="M1048 795l304 659h256l-406 -833zM1045 643l205 102l419 -745h-273zM413 745l206 -102l-349 -643h-273zM58 1454h256l302 -659l-154 -174zM441 832h782v-219h-782v219zM719 1454h229v-1454h-229v1454zM1764 219v-535h-229v535h229zM1653 134v-116h-57v116h57z" />
    <glyph glyph-name="uni0497" unicode="&#x497;" horiz-adv-x="1387" 
d="M815 437l183 121l312 -558h-260zM299 558l183 -121l-235 -437h-260zM36 1038h243l207 -441l-147 -161zM534 1038h229v-1038h-229v1038zM311 628h685v-216h-685v216zM811 597l208 441h242l-303 -602zM1418 214v-475h-229v475h229z" />
    <glyph glyph-name="uni0498" unicode="&#x498;" horiz-adv-x="1038" 
d="M647 127v-443h-228v443h228zM303 29q-97 44 -152 128.5t-64 202.5v38h232v-33q8 -77 63.5 -118.5t148.5 -41.5q92 0 142.5 50t50.5 140v79q0 83 -40.5 128t-113.5 45h-210v219h210q62 0 96 37t34 104v82q0 78 -43.5 119t-123.5 41q-79 0 -129 -40.5t-62 -114.5v-35h-231
v35q19 179 130 277t294 98q128 0 217.5 -42.5t137 -124t47.5 -196.5v-81q0 -84 -42 -153.5t-119 -112.5q88 -27 136.5 -105.5t48.5 -193.5v-79q0 -125 -50.5 -214t-147 -135.5t-232.5 -46.5q-131 0 -228 44z" />
    <glyph glyph-name="uni0499" unicode="&#x499;" horiz-adv-x="806" 
d="M515 114v-375h-229v375h229zM161 59.5q-91 74.5 -102 210.5v49h219v-31q5 -45 38.5 -70.5t89.5 -25.5q59 0 92 27.5t33 77.5v51q0 43 -29.5 67t-82.5 24h-128v191h128q41 0 63 22t22 63v42q0 44 -28 68.5t-79 24.5q-50 0 -82 -25.5t-40 -70.5v-23h-218v38q16 136 105 211
t237 75q154 0 238 -69t84 -195v-66q0 -62 -32 -109t-95 -72q76 -17 114.5 -65.5t38.5 -126.5v-77q0 -138 -88.5 -214t-251.5 -76q-155 0 -246 74.5z" />
    <glyph glyph-name="uni049A" unicode="&#x49a;" horiz-adv-x="1182" 
d="M502 795l286 659h255l-387 -833zM498 643l202 113l404 -756h-272zM132 1454h229v-1454h-229v1454zM239 832h436v-219h-436v219zM1206 219v-535h-229v535h229zM1095 134v-116h-57v116h57z" />
    <glyph glyph-name="uni049B" unicode="&#x49b;" horiz-adv-x="1042" 
d="M465 594l176 444h245l-261 -604zM127 1038h229v-1038h-229v1038zM467 434l190 121l277 -555h-262zM237 627h426v-219h-426v219zM1057 214v-475h-229v475h229z" />
    <glyph glyph-name="uni049C" unicode="&#x49c;" horiz-adv-x="1102" 
d="M132 1454h229v-1454h-229v1454zM563 795l225 659h255l-326 -833zM561 645l199 103l344 -748h-272zM239 832h498v-219h-498v219zM421 1089h124v-734h-124v734z" />
    <glyph glyph-name="uni049D" unicode="&#x49d;" horiz-adv-x="922" 
d="M485 437l193 121l256 -558h-262zM127 1038h229v-1038h-229v1038zM391 864h107v-694h-107v694zM237 626h444v-219h-444v219zM491 596l150 442h245l-227 -602z" />
    <glyph glyph-name="uni049E" unicode="&#x49e;" horiz-adv-x="1139" 
d="M-8 1320h577v-209h-577v209zM540 795l285 659h256l-387 -833zM535 643l202 113l405 -756h-273zM170 1454h229v-1454h-229v1454zM277 832h436v-219h-436v219z" />
    <glyph glyph-name="uni049F" unicode="&#x49f;" horiz-adv-x="962" 
d="M167 1454h229v-554h-229v554zM-33 1331h650v-206h-650v206zM505 594l176 444h245l-261 -604zM167 1038h229v-1038h-229v1038zM507 434l190 121l277 -555h-262zM277 627h426v-219h-426v219z" />
    <glyph glyph-name="uni04A0" unicode="&#x4a0;" horiz-adv-x="1258" 
d="M-93 1235v219h472v-219h-472zM658 795l286 659h255l-387 -833zM654 643l202 113l404 -756h-272zM288 1454h229v-1454h-229v1454zM395 832h436v-219h-436v219z" />
    <glyph glyph-name="uni04A1" unicode="&#x4a1;" horiz-adv-x="1133" 
d="M47 1038h367v-220h-367v220zM676 594l176 444h245l-261 -604zM338 1038h229v-1038h-229v1038zM678 434l190 121l277 -555h-262zM448 627h426v-219h-426v219z" />
    <glyph glyph-name="uni04A2" unicode="&#x4a2;" horiz-adv-x="1200" 
d="M769 1454h229v-1454h-229v1454zM132 1454h230v-1454h-230v1454zM257 826h647v-217h-647v217zM1166 219v-535h-229v535h229zM1055 134v-116h-57v116h57z" />
    <glyph glyph-name="uni04A3" unicode="&#x4a3;" horiz-adv-x="1029" 
d="M645 1038h226v-1038h-226v1038zM127 1038h227v-1038h-227v1038zM256 617h524v-214h-524v214zM1039 214v-475h-229v475h229z" />
    <glyph glyph-name="uni04A4" unicode="&#x4a4;" horiz-adv-x="1358" 
d="M901 1454h475v-219h-475v219zM769 1454h229v-1454h-229v1454zM132 1454h230v-1454h-230v1454zM257 826h647v-217h-647v217z" />
    </font>
</defs>
</svg>
