<?xml version="1.0" standalone="no"?>
<!DOCTYPE svg PUBLIC "-//W3C//DTD SVG 1.1//EN" "http://www.w3.org/Graphics/SVG/1.1/DTD/svg11.dtd" >
<svg xmlns="http://www.w3.org/2000/svg" xmlns:xlink="http://www.w3.org/1999/xlink" version="1.1">
<metadata>
Created by FontForge 20201107 at Thu May 29 13:06:43 2025
 By 
(c) 2018 Microsoft Corporation. All rights reserved.
</metadata>
<defs>
<font id="Bahnschrift" horiz-adv-x="0" >
  <font-face 
    font-family="Bahnschrift"
    font-weight="350"
    font-stretch="condensed"
    units-per-em="2048"
    panose-1="2 11 5 2 4 2 4 2 2 3"
    ascent="1626"
    descent="-422"
    x-height="1038"
    cap-height="1454"
    bbox="-1730 -501 1645 2014"
    underline-thickness="50"
    underline-position="-125"
    unicode-range="U+0020-2133"
  />
<missing-glyph horiz-adv-x="988" 
d="M100 0v1454h788v-1454h-788zM254 154h481v1147h-481v-1147z" />
    <glyph glyph-name=".notdef" horiz-adv-x="988" 
d="M100 0v1454h788v-1454h-788zM254 154h481v1147h-481v-1147z" />
    <glyph glyph-name=".null" 
 />
    <glyph glyph-name="nonmarkingreturn" horiz-adv-x="682" 
 />
    <glyph glyph-name="space" unicode=" " horiz-adv-x="300" 
 />
    <glyph glyph-name="exclam" unicode="!" horiz-adv-x="386" 
d="M110 1454h167v-1106h-167v1106zM110 167h167v-167h-167v167z" />
    <glyph glyph-name="quotedbl" unicode="&#x22;" horiz-adv-x="567" 
d="M70 1454h167v-510h-167v510zM331 1454h167v-510h-167v510z" />
    <glyph glyph-name="numbersign" unicode="#" horiz-adv-x="938" 
d="M705 1454h142l-246 -1454h-142zM359 1454h142l-246 -1454h-142zM898 1102v-143h-760v143h760zM840 496v-143h-760v143h760z" />
    <glyph glyph-name="dollar" unicode="$" horiz-adv-x="883" 
d="M249 23.5q-79 38.5 -119 115t-40 188.5v72h165v-72q0 -93 47.5 -140t141.5 -47q92 0 138.5 47t46.5 140v110q0 62 -29 105t-73 71t-117 63q-3 1 -5 2l-4 2q-4 2 -7.5 3.5t-7.5 3.5q-94 45 -153.5 85t-100.5 109.5t-41 173.5v78q0 110 40 185t118.5 113t193.5 38
q112 0 188.5 -38.5t115 -114.5t38.5 -187v-76h-164v76q0 92 -45 139t-133 47q-92 0 -139.5 -45t-47.5 -131v-85q0 -61 29 -103t73 -68.5t121 -62.5q7 -4 14.5 -7.5t15.5 -6.5q4 -2 8.5 -4t8.5 -4q85 -40 139.5 -79.5t91 -107.5t36.5 -172v-112q0 -112 -39.5 -188t-117 -115
t-192.5 -39q-116 0 -195 38.5zM363 1631h157v-1808h-157v1808z" />
    <glyph glyph-name="percent" unicode="%" horiz-adv-x="1207" 
d="M847 1454h152l-646 -1454h-152zM757.5 42q-55.5 57 -55.5 159v205q0 102 55.5 159t157.5 57t157 -57t55 -161v-203q0 -103 -55.5 -159.5t-156.5 -56.5q-102 0 -157.5 57zM968 135q19 19 19 56v227q0 35 -19 54t-53 19q-35 0 -53.5 -18.5t-18.5 -55.5v-226q0 -37 18.5 -56
t53.5 -19q34 0 53 19zM135.5 888q-55.5 57 -55.5 159v205q0 102 55.5 159t157.5 57t157 -57t55 -161v-203q0 -103 -55.5 -159.5t-156.5 -56.5q-102 0 -157.5 57zM346 981q19 19 19 56v227q0 35 -19 54t-53 19q-35 0 -53.5 -18.5t-18.5 -55.5v-226q0 -37 18.5 -56t53.5 -19
q34 0 53 19z" />
    <glyph glyph-name="ampersand" unicode="&#x26;" horiz-adv-x="1025" 
d="M372 631q-56 83 -93.5 162t-57 161.5t-19.5 171.5q0 167 79 253.5t231 86.5t230.5 -85t78.5 -250v-104h-167v104q0 86 -35.5 130t-106.5 44t-107.5 -45t-36.5 -134q0 -69 17 -138t49.5 -136.5t81.5 -137.5l499 -714h-208zM297 553q-76 -64 -76 -181q0 -115 61.5 -178
t172.5 -63q100 0 170.5 70.5t107.5 205t37 324.5h157q0 -236 -59.5 -403.5t-172 -255t-272.5 -87.5q-114 0 -195.5 45.5t-124.5 132.5t-43 209q0 166 98 265t277 114l78 -134q-140 0 -216 -64z" />
    <glyph glyph-name="quotesingle" unicode="'" horiz-adv-x="286" 
d="M60 1454h167v-510h-167v510z" />
    <glyph glyph-name="parenleft" unicode="(" horiz-adv-x="464" 
d="M168.5 117q-64.5 240 -64.5 531t64.5 531t194.5 430l119 -74q-112 -182 -167 -403.5t-55 -483.5q0 -261 55 -482.5t167 -405.5l-119 -73q-130 190 -194.5 430z" />
    <glyph glyph-name="parenright" unicode=")" horiz-adv-x="464" 
d="M-17 -240q111 184 166 405.5t55 482.5q0 262 -55 483.5t-166 403.5l119 74q130 -190 194.5 -430t64.5 -531t-64.5 -531t-194.5 -430z" />
    <glyph glyph-name="asterisk" unicode="*" horiz-adv-x="556" 
d="M229 1185l91 75l179 -269l-105 -68zM57 991l180 269l91 -75l-166 -262zM11 1271l47 112l241 -105l-39 -112zM217 1567h123v-346h-123v346zM258 1278l241 105l46 -112l-248 -105z" />
    <glyph glyph-name="plus" unicode="+" horiz-adv-x="672" 
d="M622 749v-157h-572v157h572zM416 264h-159v812h159v-812z" />
    <glyph glyph-name="comma" unicode="," horiz-adv-x="326" 
d="M80 167h167v-167l-167 -163v330z" />
    <glyph glyph-name="hyphen" unicode="-" horiz-adv-x="732" 
d="M622 600v-157h-512v157h512z" />
    <glyph glyph-name="period" unicode="." horiz-adv-x="326" 
d="M80 167h167v-167h-167v167z" />
    <glyph glyph-name="slash" unicode="/" horiz-adv-x="550" 
d="M188 -276h-149l323 1902h150z" />
    <glyph glyph-name="zero" unicode="0" horiz-adv-x="850" 
d="M185 72q-85 87 -85 246v818q0 159 85 246t240 87t240 -87t85 -246v-818q0 -159 -85 -246t-240 -87t-240 87zM541.5 188q41.5 46 41.5 130v818q0 84 -41.5 130t-116.5 46t-116.5 -46t-41.5 -130v-818q0 -84 41.5 -130t116.5 -46t116.5 46z" />
    <glyph glyph-name="one" unicode="1" horiz-adv-x="551" 
d="M451 0h-167v1295l-244 -152v174l205 137h206v-1454z" />
    <glyph glyph-name="two" unicode="2" horiz-adv-x="820" 
d="M88 140l348 602q64 110 97.5 207t33.5 171v2q0 91 -37.5 139.5t-107.5 48.5q-82 0 -125.5 -65.5t-43.5 -189.5v-2h-173v2q0 134 38 226.5t112 140t180 47.5q107 0 181 -40t111.5 -118t37.5 -191v-1q0 -91 -35 -203t-103 -231l-305 -528h441v-157h-650v140z" />
    <glyph glyph-name="three" unicode="3" horiz-adv-x="813" 
d="M214.5 20q-75.5 35 -115 101.5t-39.5 161.5v120h170v-108q0 -47 19.5 -80.5t57 -51t89.5 -17.5q76 0 118 43t42 120v203q0 79 -37 122.5t-103 43.5h-103v157h103q55 0 85.5 35t30.5 98v203q0 66 -35.5 102t-101.5 36q-45 0 -76.5 -16.5t-48.5 -47.5t-17 -75v-119h-169
v121q0 94 37.5 160.5t109.5 101.5t174 35q140 0 217 -78t77 -220v-204q0 -53 -33 -107.5t-93 -100.5q71 -29 110.5 -94t39.5 -154v-205q0 -102 -38.5 -174t-112 -109.5t-176.5 -37.5q-106 0 -181.5 35z" />
    <glyph glyph-name="four" unicode="4" horiz-adv-x="885" 
d="M80 366l317 1087h174l-305 -1075h569v-155h-755v143zM563 854h164v-855h-164v855z" />
    <glyph glyph-name="five" unicode="5" horiz-adv-x="835" 
d="M245 22q-71 37 -108 107.5t-37 170.5v62h167v-62q0 -74 39.5 -115t109.5 -41q72 0 112 41t40 116v381q0 75 -37 115.5t-105 40.5t-106 -39.5t-38 -111.5h-150v767h591v-157h-424v-377q27 36 71.5 56.5t91.5 20.5q87 0 148 -37t93 -107.5t32 -170.5v-381
q0 -100 -37.5 -171t-109 -108t-172.5 -37q-100 0 -171 37z" />
    <glyph glyph-name="six" unicode="6" horiz-adv-x="791" 
d="M219 26.5q-73 41.5 -111 120.5t-38 190v188q0 87 19 151.5t59 157.5q5 12 11 24.5t11 25.5l236 570h183l-310 -725l-44 36q38 47 89 73t105 26q93 0 158.5 -37t99.5 -107.5t34 -169.5v-208q0 -113 -38.5 -193t-111.5 -122t-176 -42t-176 41.5zM512.5 193.5
q41.5 47.5 41.5 134.5v203q0 85 -41.5 132t-117.5 47q-75 0 -116.5 -47.5t-41.5 -132.5v-203q0 -87 41.5 -134t116.5 -47q76 0 117.5 47.5z" />
    <glyph glyph-name="seven" unicode="7" horiz-adv-x="781" 
d="M701 1302l-324 -1302h-174l330 1297h-306v-197h-167v354h641v-152z" />
    <glyph glyph-name="eight" unicode="8" horiz-adv-x="842" 
d="M242 22q-72 37 -109.5 107.5t-37.5 169.5v234q0 79 38.5 142t108.5 98q-60 31 -93.5 83t-33.5 116v195q0 95 35.5 163t103 103.5t162.5 35.5q98 0 168 -35.5t106.5 -103t36.5 -163.5v-195q0 -65 -34 -117.5t-96 -81.5q72 -35 111 -98t39 -142v-234q0 -99 -39 -169.5
t-113 -107.5t-179 -37q-102 0 -174 37zM505 165q37 19 56.5 55t19.5 86v250q0 42 -19.5 72t-56.5 45.5t-89 15.5q-48 0 -83 -15.5t-53 -45.5t-18 -73v-251q0 -50 18 -85.5t53 -54t83 -18.5q52 0 89 19zM494.5 859q32.5 17 49 49t16.5 77v160q0 52 -16.5 88.5t-49 56
t-78.5 19.5q-42 0 -72 -19.5t-46 -56.5t-16 -89v-161q0 -44 16 -76t46 -48.5t72 -16.5q46 0 78.5 17z" />
    <glyph glyph-name="nine" unicode="9" horiz-adv-x="791" 
d="M513 725l43 -36q-34 -47 -80 -73t-95 -26q-98 0 -168 37t-106.5 107.5t-36.5 169.5v209q0 112 38.5 192t111.5 122t176 42t176 -41t111 -120t38 -190v-189q0 -86 -19 -150.5t-59 -157.5q-5 -13 -10.5 -25.5t-10.5 -25.5l-236 -570h-183zM512.5 796.5
q41.5 45.5 41.5 127.5v204q0 86 -41.5 133.5t-116.5 47.5q-76 0 -117.5 -47.5t-41.5 -134.5v-204q0 -82 41.5 -127t117.5 -45q75 0 116.5 45.5z" />
    <glyph glyph-name="colon" unicode=":" horiz-adv-x="326" 
d="M80 167h167v-167h-167v167zM80 1001h167v-167h-167v167z" />
    <glyph glyph-name="semicolon" unicode=";" horiz-adv-x="326" 
d="M80 167h167v-167l-167 -163v330zM80 1001h167v-167h-167v167z" />
    <glyph glyph-name="less" unicode="&#x3c;" horiz-adv-x="549" 
d="M257 666h-267l509 384v-213zM499 282l-509 384h267l242 -170v-214z" />
    <glyph glyph-name="equal" unicode="=" horiz-adv-x="570" 
d="M50 908h470v-157h-470v157zM50 581h470v-157h-470v157z" />
    <glyph glyph-name="greater" unicode="&#x3e;" horiz-adv-x="549" 
d="M50 1050l509 -384h-266l-243 171v213zM293 666h266l-509 -384v214z" />
    <glyph glyph-name="question" unicode="?" horiz-adv-x="712" 
d="M287 585.5q20 96.5 47.5 157.5t71.5 134q29 49 46 82.5t28 75.5t11 93v0q0 88 -37.5 136t-105.5 48q-72 0 -112.5 -48.5t-40.5 -135.5v-77h-170v75q0 108 38 185t110 117.5t173 40.5q100 0 170.5 -40t107 -117t36.5 -186v0q0 -73 -13 -126.5t-32 -91.5t-53 -90
q-42 -66 -67 -118.5t-43 -138t-18 -207.5h-167q0 135 20 231.5zM267 167h167v-167h-167v167z" />
    <glyph glyph-name="at" unicode="@" horiz-adv-x="1426" 
d="M487 69.5q-60 84.5 -60 253.5v423q0 154 72 230.5t216 76.5q143 0 214 -77t71 -231v-493l-84 -29q-16 -116 -79 -177t-170 -61q-120 0 -180 84.5zM812 177.5q32 45.5 32 137.5v441q0 76 -32 113.5t-99 37.5q-130 0 -130 -152v-440q0 -92 32.5 -137.5t97.5 -45.5
q67 0 99 45.5zM380 -317q-138 65 -209 191t-71 308v341.5v340.5q0 186 71.5 315t210 195t336.5 66q196 0 331.5 -66t206 -195t70.5 -315v-601q0 -136 -61.5 -207t-176.5 -71q-111 0 -170.5 60t-59.5 174l142 57q0 -75 23 -114.5t67 -39.5t67 34t23 100v608q0 141 -54 240
t-157 149.5t-251 50.5q-150 0 -255.5 -51t-160.5 -149t-55 -240v-338.5v-343.5q0 -136 54 -230.5t159.5 -143t257.5 -48.5h298v-142h-298q-200 0 -338 65z" />
    <glyph glyph-name="A" unicode="A" horiz-adv-x="906" 
d="M366 1454h174l336 -1454h-182l-241 1225l-241 -1225h-182zM231 492h463v-157h-463v157z" />
    <glyph glyph-name="B" unicode="B" horiz-adv-x="859" 
d="M220 157h261q65 0 100.5 32.5t35.5 91.5v224q0 55 -18.5 94.5t-51.5 60t-76 20.5h-251v157h251q61 0 94 41.5t33 117.5v178q0 59 -33 91t-92 32h-253v157h249q94 0 160.5 -31.5t101 -92t34.5 -146.5v-174q0 -69 -19 -122t-54.5 -87t-86.5 -46q57 -10 97 -45t61 -90.5
t21 -129.5v-213q0 -88 -33.5 -150t-98 -94.5t-156.5 -32.5h-276v157zM100 1454h167v-1454h-167v1454z" />
    <glyph glyph-name="C" unicode="C" horiz-adv-x="856" 
d="M256 29q-76 44 -116 127.5t-40 200.5v739q0 118 40 201.5t115.5 127.5t182.5 44t183 -44t115.5 -127.5t39.5 -200.5v-57h-168v57q0 67 -19.5 114t-58 71.5t-92.5 24.5q-53 0 -91 -24.5t-58.5 -72t-20.5 -114.5v-739q0 -66 20.5 -113t58.5 -72t91 -25q54 0 92.5 25t58 72
t19.5 113v58h168v-58q0 -117 -39.5 -200.5t-115.5 -127.5t-183 -44q-106 0 -182 44z" />
    <glyph glyph-name="D" unicode="D" horiz-adv-x="884" 
d="M200 157h309q52 0 80 31t28 88v902q0 57 -28 88t-80 31h-309v157h303q90 0 153 -33t95.5 -96t32.5 -153v-889q0 -90 -33 -153.5t-96 -96.5t-153 -33h-302v157zM100 1454h167v-1454h-167v1454z" />
    <glyph glyph-name="E" unicode="E" horiz-adv-x="774" 
d="M100 1454h167v-1454h-167v1454zM199 157h525v-157h-525v157zM199 801h475v-157h-475v157zM199 1454h525v-157h-525v157z" />
    <glyph glyph-name="F" unicode="F" horiz-adv-x="755" 
d="M100 1454h167v-1454h-167v1454zM200 788h475v-157h-475v157zM200 1454h525v-157h-525v157z" />
    <glyph glyph-name="G" unicode="G" horiz-adv-x="904" 
d="M804 783v-424q0 -118 -41 -202t-119.5 -128t-188.5 -44q-112 0 -192 41.5t-121.5 120.5t-41.5 190v759q0 118 41 201.5t119.5 127.5t188.5 44q108 0 185 -42.5t117.5 -124t40.5 -195.5v-71h-179v71q0 64 -19 109t-55.5 68t-89.5 23q-57 0 -98 -24.5t-62.5 -72
t-21.5 -114.5v-759q0 -60 22.5 -102.5t64.5 -65t101 -22.5q58 0 98.5 24.5t62 71t21.5 112.5v271h-187v157h354z" />
    <glyph glyph-name="H" unicode="H" horiz-adv-x="870" 
d="M603 1454h167v-1454h-167v1454zM100 1454h168v-1454h-168v1454zM227 795h447v-157h-447v157z" />
    <glyph glyph-name="I" unicode="I" horiz-adv-x="386" 
d="M277 0h-167v1454h167v-1454z" />
    <glyph glyph-name="J" unicode="J" horiz-adv-x="725" 
d="M134 24q-76 39 -124 110l122 104q34 -44 81 -68t98 -24q70 0 108.5 44.5t38.5 125.5v1138h167v-1142q0 -103 -38 -176.5t-110.5 -112t-175.5 -38.5q-91 0 -167 39z" />
    <glyph glyph-name="K" unicode="K" horiz-adv-x="874" 
d="M235 626l419 828h184l-606 -1132zM100 1454h167v-1454h-167v1454zM414 777l110 149l360 -926h-193z" />
    <glyph glyph-name="L" unicode="L" horiz-adv-x="754" 
d="M100 1454h167v-1454h-167v1454zM202 157h502v-157h-502v157z" />
    <glyph glyph-name="M" unicode="M" horiz-adv-x="1136" 
d="M882 1454h154v-1454h-156v1135l13 -64l-264 -851h-122l-263 831l16 84v-1135h-160v1454h158l310 -986z" />
    <glyph glyph-name="N" unicode="N" horiz-adv-x="914" 
d="M100 1454h151l429 -1154l-27 -26v1180h161v-1453h-152l-428 1137l28 26v-1163h-162v1453z" />
    <glyph glyph-name="O" unicode="O" horiz-adv-x="922" 
d="M266 28q-81 43 -123.5 125t-42.5 198v753q0 116 42.5 198t123.5 124.5t195 42.5t195 -42.5t123.5 -124.5t42.5 -198v-753q0 -116 -42.5 -198t-123.5 -125t-195 -43t-195 43zM566.5 171q43.5 23 66 67t22.5 106v766q0 62 -22.5 106t-66 67t-105.5 23q-61 0 -104.5 -23
t-66.5 -67t-23 -106v-766q0 -62 23 -106t66.5 -67t104.5 -23q62 0 105.5 23z" />
    <glyph glyph-name="P" unicode="P" horiz-adv-x="895" 
d="M205 721h293q41 0 71.5 19t46 54.5t15.5 85.5v253q0 52 -15.5 89t-45.5 56t-72 19h-293v157h287q98 0 167 -37.5t105 -109t36 -172.5v-258q0 -99 -36.5 -169t-105.5 -107t-166 -37h-287v157zM100 1454h167v-1454h-167v1454z" />
    <glyph glyph-name="Q" unicode="Q" horiz-adv-x="936" 
d="M449 271l95 118l422 -316l-94 -118zM266 28q-81 43 -123.5 125t-42.5 198v753q0 116 42.5 198t123.5 124.5t195 42.5t195 -42.5t123.5 -124.5t42.5 -198v-753q0 -116 -42.5 -198t-123.5 -125t-195 -43t-195 43zM566.5 171q43.5 23 66 67t22.5 106v766q0 62 -22.5 106
t-66 67t-105.5 23q-61 0 -104.5 -23t-66.5 -67t-23 -106v-766q0 -62 23 -106t66.5 -67t104.5 -23q62 0 105.5 23z" />
    <glyph glyph-name="R" unicode="R" horiz-adv-x="925" 
d="M189 772h269q58 0 99.5 21.5t63 63t21.5 99.5v149q0 61 -21.5 104.5t-63 66t-99.5 22.5h-269v157h255q115 0 197 -38.5t125 -113t43 -178.5v-170q0 -107 -43 -183.5t-125 -116.5t-197 -40h-255v157zM100 1455h167v-1455h-167v1455zM465 660l153 46l232 -706h-187z" />
    <glyph glyph-name="S" unicode="S" horiz-adv-x="883" 
d="M249 23.5q-79 38.5 -119 115t-40 188.5v72h166v-69q0 -92 47.5 -139t140.5 -47q91 0 137 47t46 139v107q0 61 -28.5 104.5t-72 72t-116.5 62.5q-2 1 -4.5 2t-4.5 2l-14 7q-95 45 -154 85t-100.5 109.5t-41.5 173.5v78q0 110 40 185t118.5 113t193.5 38q112 0 188.5 -38.5
t115 -114.5t38.5 -187v-76h-166v72q0 92 -44.5 139t-131.5 47q-92 0 -139 -45t-47 -131v-81q0 -61 29.5 -103.5t73.5 -69t120 -62.5q8 -3 14.5 -6.5t14.5 -6.5q4 -2 8.5 -4t8.5 -4q85 -40 139.5 -79.5t91 -107.5t36.5 -172v-112q0 -112 -39.5 -188t-117 -115t-192.5 -39
q-116 0 -195 38.5z" />
    <glyph glyph-name="T" unicode="T" horiz-adv-x="706" 
d="M270 1335h167v-1335h-167v1335zM0 1454h706v-157h-706v157z" />
    <glyph glyph-name="U" unicode="U" horiz-adv-x="842" 
d="M238.5 23.5q-73.5 38.5 -111 115t-37.5 188.5v1127h167v-1135q0 -84 41.5 -127.5t121.5 -43.5q82 0 123.5 43.5t41.5 127.5v1135h167v-1127q0 -112 -37.5 -188t-111.5 -115t-183 -39q-108 0 -181.5 38.5z" />
    <glyph glyph-name="V" unicode="V" horiz-adv-x="802" 
d="M10 1454h175l216 -1203l216 1203h175l-293 -1454h-196z" />
    <glyph glyph-name="W" unicode="W" horiz-adv-x="1154" 
d="M513 1454h129l190 -1206l141 1206h171l-207 -1454h-203l-151 1027l-163 -1027h-202l-208 1454h171l142 -1206z" />
    <glyph glyph-name="X" unicode="X" horiz-adv-x="802" 
d="M368 638l-31 51l-325 765h181l226 -590l34 -56l349 -808h-180zM359 831l241 623h180l-334 -788l-265 -666h-181z" />
    <glyph glyph-name="Y" unicode="Y" horiz-adv-x="720" 
d="M449 610v-610h-167v610l-302 844h170l215 -651l205 651h170z" />
    <glyph glyph-name="Z" unicode="Z" horiz-adv-x="744" 
d="M674 1315l-417 -1158h427v-157h-604v139l422 1158h-404v157h576v-139z" />
    <glyph glyph-name="bracketleft" unicode="[" horiz-adv-x="422" 
d="M120 1626h156v-1952h-156v1952zM220 -179h202v-147h-202v147zM220 1626h202v-147h-202v147z" />
    <glyph glyph-name="backslash" unicode="\" horiz-adv-x="550" 
d="M188 1626l323 -1902h-149l-323 1902h149z" />
    <glyph glyph-name="bracketright" unicode="]" horiz-adv-x="422" 
d="M146 1626h157v-1952h-157v1952zM0 -179h202v-147h-202v147zM0 1626h202v-147h-202v147z" />
    <glyph glyph-name="asciicircum" unicode="^" horiz-adv-x="740" 
d="M370 1257v302l320 -559h-186zM50 1000l320 559v-302l-134 -257h-186z" />
    <glyph glyph-name="underscore" unicode="_" horiz-adv-x="662" 
d="M652 -18v-157h-642v157h642z" />
    <glyph glyph-name="grave" unicode="`" horiz-adv-x="393" 
d="M8 1562l132 97l246 -355l-113 -78z" />
    <glyph glyph-name="a" unicode="a" horiz-adv-x="835" 
d="M566 760q0 73 -40 113.5t-113 40.5q-64 0 -99.5 -40.5t-35.5 -113.5h-162q0 141 79 218.5t223 77.5q97 0 166 -35t105 -101t36 -160v-760h-159v760zM161 57.5q-66 72.5 -66 218.5q0 175 80 261.5t241 86.5h159l14 -137h-172q-83 0 -124 -52.5t-41 -158.5q0 -77 37 -115
t110 -38q84 0 125.5 45t41.5 136l21 -91q-1 -76 -26.5 -127t-76 -76t-125.5 -25q-132 0 -198 72.5z" />
    <glyph glyph-name="b" unicode="b" horiz-adv-x="824" 
d="M344.5 32.5q-59.5 47.5 -81.5 130.5l14 159q0 -59 17 -101t49.5 -64.5t78.5 -22.5q70 0 109 50.5t39 141.5v394q0 89 -39 138t-109 49q-46 0 -78.5 -21.5t-49.5 -62.5t-17 -99l-21 142q32 90 96.5 140t140.5 50q77 0 131 -38.5t82 -113t28 -179.5v-402q0 -107 -29.5 -183
t-85.5 -115.5t-136 -39.5q-79 0 -138.5 47.5zM110 1454h167v-1454h-167v1454z" />
    <glyph glyph-name="c" unicode="c" horiz-adv-x="772" 
d="M234 21.5q-70 36.5 -107 106t-37 167.5v436q0 103 37 176t107.5 111t169.5 38q100 0 171 -38t108 -111.5t37 -177.5v-21h-162v21q0 82 -39.5 127t-111.5 45q-71 0 -110.5 -44.5t-39.5 -125.5v-436q0 -74 39.5 -114t110.5 -40q72 0 111.5 41.5t39.5 116.5v21h164v-21
q0 -99 -37.5 -169.5t-108.5 -107.5t-172 -37q-100 0 -170 36.5z" />
    <glyph glyph-name="d" unicode="d" horiz-adv-x="824" 
d="M547 1454h167v-1454h-167v1454zM202.5 18.5q-54.5 36.5 -83.5 106.5t-29 168v441q0 102 29 174.5t83.5 110t131.5 37.5q74 0 135 -48t99 -135l-21 -145q0 56 -17 95.5t-49.5 60.5t-78.5 21q-68 0 -106.5 -47t-38.5 -131v-430q0 -77 38.5 -120t106.5 -43q46 0 78.5 20
t49.5 58.5t17 92.5l14 -142q-28 -86 -87.5 -133.5t-139.5 -47.5q-77 0 -131.5 36.5z" />
    <glyph glyph-name="e" unicode="e" horiz-adv-x="802" 
d="M235.5 25.5q-70.5 40.5 -108 118t-37.5 186.5v361q0 116 36.5 198t105.5 124.5t166 42.5q99 0 168.5 -39.5t106 -115t36.5 -182.5v-266h-508v145h345v117q0 90 -38.5 139t-109.5 49q-69 0 -107 -52t-38 -149v-377q0 -87 40 -135.5t113 -48.5q68 0 105.5 37.5t37.5 105.5
v7h163v-7q0 -143 -80 -221t-226 -78q-100 0 -170.5 40.5z" />
    <glyph glyph-name="f" unicode="f" horiz-adv-x="519" 
d="M136 1179q0 134 66 204.5t193 70.5h114v-157h-109q-46 0 -71.5 -31t-25.5 -86v-1180h-167v1179zM30 1038h479v-152h-479v152z" />
    <glyph glyph-name="g" unicode="g" horiz-adv-x="824" 
d="M174 -343.5q-79 78.5 -79 219.5v13h167v-13q0 -70 37.5 -108.5t105.5 -38.5t105.5 37t37.5 105v1167h166v-1167q0 -93 -37 -158.5t-108 -100t-171 -34.5q-145 0 -224 78.5zM202.5 18.5q-54.5 36.5 -83.5 106.5t-29 168v441q0 102 29 174.5t83.5 110t131.5 37.5
q74 0 135.5 -48t99.5 -135l-21 -142q0 56 -17 95.5t-50 60.5t-79 21q-69 0 -107 -47t-38 -131v-436q0 -77 38 -120t107 -43q46 0 79 20t50 58.5t17 92.5l14 -139q-29 -86 -88.5 -133.5t-139.5 -47.5q-77 0 -131.5 36.5z" />
    <glyph glyph-name="h" unicode="h" horiz-adv-x="854" 
d="M110 1454h167v-1454h-167v1454zM577 727q0 87 -37 130.5t-113 43.5q-75 0 -112.5 -46.5t-37.5 -139.5l-21 158q36 92 97.5 137.5t145.5 45.5q121 0 183 -76t62 -225v-755h-167v727z" />
    <glyph glyph-name="i" unicode="i" horiz-adv-x="406" 
d="M120 1419h167v-167h-167v167zM120 1038h167v-1038h-167v1038z" />
    <glyph glyph-name="j" unicode="j" horiz-adv-x="427" 
d="M0 -265h53q47 0 72 31t25 86v1186h167v-1185q0 -131 -63.5 -203t-179.5 -72h-74v157zM150 1446h167v-197h-167v197z" />
    <glyph glyph-name="k" unicode="k" horiz-adv-x="823" 
d="M200 351l433 687h179l-605 -897zM110 1454h167v-1454h-167v1454zM415 545l96 140l342 -685h-185z" />
    <glyph glyph-name="l" unicode="l" horiz-adv-x="473" 
d="M277 274q0 -55 24.5 -86t70.5 -31h61v-157h-80q-116 0 -179.5 72t-63.5 203v1179h167v-1180z" />
    <glyph glyph-name="m" unicode="m" horiz-adv-x="1284" 
d="M1007 727q0 87 -37.5 130t-112.5 43q-66 0 -98.5 -46t-32.5 -140l-34 136q29 102 91.5 154t145.5 52q81 0 135.5 -34t82 -101t27.5 -166v-755h-167v727zM110 1038h167v-1038h-167v1038zM559 727q0 87 -32.5 130t-98.5 43q-76 0 -113.5 -46.5t-37.5 -139.5l-21 149
q36 97 97.5 145t145.5 48q74 0 124.5 -33.5t76.5 -101t26 -166.5v-755h-167v727z" />
    <glyph glyph-name="n" unicode="n" horiz-adv-x="854" 
d="M110 1038h167v-1038h-167v1038zM577 727q0 87 -37 130.5t-113 43.5q-75 0 -112.5 -46.5t-37.5 -140.5l-21 149q36 97 97.5 145t145.5 48q121 0 183 -76t62 -225v-755h-167v727z" />
    <glyph glyph-name="o" unicode="o" horiz-adv-x="776" 
d="M228 20.5q-67 35.5 -102.5 103.5t-35.5 163v473q0 94 35.5 160.5t102.5 101t161 34.5t161 -34.5t101.5 -101t34.5 -160.5v-476q0 -94 -34.5 -161.5t-101.5 -102.5t-161 -35t-161 35.5zM484.5 182q34.5 37 34.5 106v468q0 66 -34.5 103.5t-96.5 37.5t-96.5 -37.5
t-34.5 -103.5v-468q0 -68 34.5 -105.5t96.5 -37.5t96.5 37z" />
    <glyph glyph-name="p" unicode="p" horiz-adv-x="824" 
d="M110 1038h167v-1460h-167v1460zM344.5 32.5q-59.5 47.5 -81.5 130.5l14 159q0 -59 17 -101t50 -64.5t78 -22.5q70 0 109 50.5t39 141.5v394q0 89 -39 138t-109 49q-45 0 -78 -21.5t-50 -62.5t-17 -99l-21 142q32 90 96 140t141 50t131 -38.5t82 -113t28 -179.5v-402
q0 -107 -29.5 -183t-85.5 -115.5t-135 -39.5q-80 0 -139.5 47.5z" />
    <glyph glyph-name="q" unicode="q" horiz-adv-x="824" 
d="M547 1038h167v-1460h-167v1460zM202.5 18.5q-54.5 36.5 -83.5 106.5t-29 168v441q0 102 29 174.5t83.5 110t131.5 37.5q74 0 135.5 -48t99.5 -135l-21 -145q0 56 -17 95.5t-50 60.5t-79 21q-68 0 -106.5 -47t-38.5 -131v-430q0 -77 38.5 -120t106.5 -43q46 0 79 20
t50 58.5t17 92.5l14 -142q-29 -86 -88.5 -133.5t-139.5 -47.5q-77 0 -131.5 36.5z" />
    <glyph glyph-name="r" unicode="r" horiz-adv-x="640" 
d="M110 1038h167v-1038h-167v1038zM576 894h-12q-131 0 -206.5 -63t-80.5 -175l-21 201q55 94 140.5 146.5t188.5 52.5v0v0v-162h-9z" />
    <glyph glyph-name="s" unicode="s" horiz-adv-x="738" 
d="M203 21q-70 36 -106.5 106t-36.5 169v4h161v-4q0 -80 39 -122.5t114 -42.5t114.5 40.5t39.5 117.5q0 43 -19.5 71.5t-50.5 45.5t-82 35q-6 1 -11.5 3t-11.5 4q-4 1 -8 2.5t-8 2.5q-82 27 -135.5 56.5t-91 88.5t-37.5 156t34 164.5t99.5 102.5t159.5 35q95 0 160.5 -33.5
t99 -98.5t33.5 -158v-3h-160v4q0 70 -34 106.5t-99 36.5t-98.5 -39t-33.5 -113q0 -48 21.5 -78.5t56.5 -48t89 -33.5q2 -1 5.5 -1.5t5.5 -1.5t4 -1.5t4 -0.5q85 -26 139 -53.5t91.5 -87.5t37.5 -163q0 -98 -36 -166t-106.5 -103t-171.5 -35t-171 36z" />
    <glyph glyph-name="t" unicode="t" horiz-adv-x="538" 
d="M195.5 64.5q-58.5 69.5 -58.5 205.5v1070h167v-1071q0 -56 24.5 -86.5t72.5 -30.5h77v-157h-98q-126 0 -184.5 69.5zM30 1038h448v-157h-448v157z" />
    <glyph glyph-name="u" unicode="u" horiz-adv-x="834" 
d="M558 1038h166v-1038h-166v1038zM277 281q0 -66 36.5 -101t104.5 -35q70 0 105 35t35 105l14 -132q-30 -84 -84 -126t-135 -42q-118 0 -180.5 75.5t-62.5 216.5v761h167v-757z" />
    <glyph glyph-name="v" unicode="v" horiz-adv-x="794" 
d="M586 1038h168l-285 -1038h-142l-287 1038h169l189 -797z" />
    <glyph glyph-name="w" unicode="w" horiz-adv-x="1164" 
d="M50 1038h159l152 -804l162 804h118l163 -804l151 804h159l-239 -1038h-142l-151 717l-150 -717h-142z" />
    <glyph glyph-name="x" unicode="x" horiz-adv-x="804" 
d="M349 472l-298 566h183l213 -465l332 -573h-182zM348 565l79 -146l-210 -419h-182zM393 623l187 415h183l-299 -552z" />
    <glyph glyph-name="y" unicode="y" horiz-adv-x="769" 
d="M749 1038l-327 -1281q-16 -64 -54 -106t-98.5 -63t-145.5 -21h-20v158h20q77 0 119.5 35t60.5 106l275 1172h170zM40 1038h170l231 -891l-74 -222z" />
    <glyph glyph-name="z" unicode="z" horiz-adv-x="723" 
d="M636 896l-367 -736h394v-160h-583v147l381 732h-367v159h542v-142z" />
    <glyph glyph-name="braceleft" unicode="{" horiz-adv-x="518" 
d="M70 736q61 0 94.5 27t33.5 76v567q0 135 70.5 209t199.5 74v-156q-50 0 -78 -27.5t-28 -77.5v-601q0 -118 -76.5 -182.5t-215.5 -64.5v156zM268.5 -320.5q-70.5 72.5 -70.5 203.5v575q0 51 -33.5 79.5t-94.5 28.5v155q140 0 216 -67.5t76 -191.5v-592q0 -51 27.5 -78.5
t78.5 -27.5v-157q-129 0 -199.5 72.5z" />
    <glyph glyph-name="bar" unicode="|" horiz-adv-x="390" 
d="M112 1626h167v-1798h-167v1798z" />
    <glyph glyph-name="braceright" unicode="}" horiz-adv-x="518" 
d="M232.5 644.5q-76.5 64.5 -76.5 182.5v601q0 50 -27.5 77.5t-78.5 27.5v156q130 0 200 -74t70 -209v-567q0 -49 34 -76t94 -27v-156q-139 0 -215.5 64.5zM50 -236q51 0 78.5 27.5t27.5 78.5v592q0 124 76.5 191.5t215.5 67.5v-155q-60 0 -94 -28.5t-34 -79.5v-575
q0 -131 -70.5 -203.5t-199.5 -72.5v157z" />
    <glyph glyph-name="asciitilde" unicode="~" horiz-adv-x="657" 
d="M395.5 564q-30.5 15 -67.5 43l-13 9q-31 24 -52 35t-43 11q-19 0 -29 -14.5t-10 -41.5v-58h-131v81q0 86 37.5 133.5t105.5 47.5q38 0 68 -16.5t69 -47.5q2 -1 3.5 -2t2.5 -2q2 -2 3 -2.5t2 -2.5q30 -22 49.5 -32.5t39.5 -10.5q22 0 34.5 16t12.5 45v67h131v-93
q0 -86 -38.5 -133t-108.5 -47q-35 0 -65.5 15z" />
    <glyph glyph-name="uni00A0" unicode="&#xa0;" horiz-adv-x="300" 
 />
    <glyph glyph-name="exclamdown" unicode="&#xa1;" horiz-adv-x="386" 
d="M110 691h167v-1107h-167v1107zM277 1038v-167h-167v167h167z" />
    <glyph glyph-name="cent" unicode="&#xa2;" horiz-adv-x="772" 
d="M234 21.5q-70 36.5 -107 106t-37 167.5v433q0 103 37 176t107.5 111t169.5 38q100 0 171 -38t108 -111.5t37 -177.5v-21h-159v21q0 82 -40.5 127t-113.5 45q-71 0 -110.5 -44.5t-39.5 -125.5v-433q0 -78 39 -121t111 -43q73 0 113.5 44t40.5 124v21h161v-21
q0 -99 -37.5 -169.5t-108.5 -107.5t-172 -37q-100 0 -170 36.5zM326 1215h158v-1392h-158v1392z" />
    <glyph glyph-name="sterling" unicode="&#xa3;" horiz-adv-x="858" 
d="M133 202q23 45 23 129v806q0 105 37 179.5t107.5 113.5t170.5 39t171 -39.5t108 -114t37 -180.5v-111h-167v111q0 84 -39 130.5t-110 46.5t-109.5 -45.5t-38.5 -129.5v-806q0 -115 -67 -177.5t-189 -62.5v66q43 0 66 45zM788 0h-728v157h728v-157zM599 704v-142h-517v142
h517z" />
    <glyph glyph-name="currency" unicode="&#xa4;" horiz-adv-x="980" 
d="M308.5 347.5q-75.5 46.5 -114.5 138t-39 220.5q0 128 39 218t114.5 137.5t183.5 47.5q109 0 184.5 -47.5t114.5 -138t39 -219.5q0 -189 -87.5 -293.5t-250.5 -107.5q-108 -2 -183.5 44.5zM631 509.5q48 68.5 48 194.5q0 128 -48 197.5t-140 69.5q-91 0 -138.5 -69
t-47.5 -198q0 -126 47.5 -194.5t138.5 -68.5q92 0 140 68.5zM89 353l168 166l119 -107l-174 -173zM89 1060l113 114l173 -172l-111 -116zM608 409l108 117l175 -174l-112 -113zM615 1012l164 162l112 -113l-170 -170z" />
    <glyph glyph-name="yen" unicode="&#xa5;" horiz-adv-x="720" 
d="M88 478h544v-107h-544v107zM88 268h544v-107h-544v107zM449 610v-610h-167v610l-302 844h170l215 -651l205 651h170z" />
    <glyph glyph-name="brokenbar" unicode="&#xa6;" horiz-adv-x="390" 
d="M112 1626h167v-711h-167v711zM112 517h167v-689h-167v689z" />
    <glyph glyph-name="section" unicode="&#xa7;" horiz-adv-x="951" 
d="M486 439q109 0 171 46.5t62 128.5q0 52 -24 86.5t-63.5 56t-99.5 41.5q-16 5 -33.5 10.5t-34.5 11.5q-108 33 -174 64t-112.5 93t-46.5 163q0 102 40.5 176t115.5 113.5t179 39.5q109 0 188 -34.5t121 -100t42 -155.5l-168 2q0 64 -45.5 100t-126.5 36q-85 0 -134 -46
t-49 -127q0 -53 30.5 -86.5t76.5 -53.5t128 -45q17 -6 35.5 -11.5t36.5 -12.5q87 -30 145 -64t96.5 -96t38.5 -161q0 -97 -47.5 -167.5t-136.5 -108t-211 -37.5v138zM280 -167.5q-80 37.5 -123 107.5t-43 166h158q0 -74 53 -116.5t145 -42.5q96 0 150 43t54 118
q0 51 -28.5 86.5t-75.5 59.5t-117 46l-43 13q-7 2 -14.5 4.5t-14.5 4.5q-90 28 -153.5 62.5t-105.5 97t-42 159.5q0 101 47.5 174.5t136.5 112.5t212 39l61 -140q-7 1 -14 2.5t-14 2.5q-5 1 -9.5 2t-9.5 2q-116 0 -181.5 -50t-65.5 -138q0 -52 29.5 -88t75 -58t119.5 -47
l11 -3q5 -2 10.5 -4t11.5 -3q104 -35 171.5 -71.5t113 -101t45.5 -164.5q0 -97 -43 -167.5t-124.5 -108t-192.5 -37.5q-110 0 -190 37.5z" />
    <glyph glyph-name="dieresis" unicode="&#xa8;" horiz-adv-x="536" 
d="M345 1419h167v-167h-167v167zM25 1419h167v-167h-167v167z" />
    <glyph glyph-name="copyright" unicode="&#xa9;" horiz-adv-x="1190" 
d="M323 393q-113 54 -173 157.5t-60 248.5v298q0 151 59.5 258t172.5 163t273 56t273 -56t172.5 -163t59.5 -258v-298q0 -145 -59.5 -248.5t-173 -157.5t-272.5 -54t-272 54zM424.5 691.5q-60.5 60.5 -60.5 169.5v201q0 110 60.5 170t170.5 60q111 0 171.5 -60t60.5 -169
v-40h-142v40q0 46 -23.5 70.5t-66.5 24.5t-66.5 -25t-23.5 -71v-201q0 -46 23.5 -71t66.5 -25t66.5 25t23.5 70v40h142v-40q0 -109 -60.5 -169t-171.5 -60q-110 0 -170.5 60.5zM799 504.5q85 39.5 130 114.5t45 180v298q0 114 -44.5 195t-129.5 123.5t-205 42.5t-205 -42.5
t-129.5 -123.5t-44.5 -195v-298q0 -105 45 -180t130 -114.5t204 -39.5t204 39.5z" />
    <glyph glyph-name="ordfeminine" unicode="&#xaa;" horiz-adv-x="575" 
d="M370 1247q0 42 -21 65t-56 23q-30 0 -51.5 -19.5t-21.5 -61.5h-136q0 113 59 160t153 47q99 0 154 -51.5t55 -152.5v-426h-135v416zM113.5 874.5q-43.5 50.5 -43.5 141.5q0 88 56 137t157 49h104l6 -111h-94q-42 0 -65 -21.5t-23 -60.5q0 -36 17.5 -56t49.5 -20
q44 0 68 21t24 61l22 -110q-19 -38 -60.5 -59.5t-95.5 -21.5q-79 0 -122.5 50.5z" />
    <glyph glyph-name="guillemotleft" unicode="&#xab;" horiz-adv-x="880" 
d="M663 878h187l-226 -358h-188zM40 520h188l226 -357h-187zM267 878h187l-226 -358h-188zM436 520h188l226 -357h-187z" />
    <glyph glyph-name="logicalnot" unicode="&#xac;" horiz-adv-x="720" 
d="M50 860h620v-155h-620v155zM507 793h163v-309h-163v309z" />
    <glyph glyph-name="uni00AD" unicode="&#xad;" horiz-adv-x="732" 
d="M622 600v-157h-512v157h512z" />
    <glyph glyph-name="registered" unicode="&#xae;" horiz-adv-x="1190" 
d="M322.5 393q-113.5 54 -173 157.5t-59.5 248.5v298q0 151 59.5 258t172.5 163t273 56t273 -56t172.5 -163t59.5 -258v-298q0 -145 -59.5 -248.5t-173 -157.5t-272.5 -54t-272.5 54zM401 1271h126v-623h-126v623zM586 876l100 60l147 -287h-138zM799 504.5
q85 39.5 130 114.5t45 180v298q0 114 -44.5 195t-129.5 123.5t-205 42.5t-205 -42.5t-129.5 -123.5t-44.5 -195v-298q0 -105 45 -180t130 -114.5t204 -39.5t204 39.5zM496 959h102q42 0 67.5 26.5t25.5 74.5q0 49 -25.5 75t-67.5 26h-102v110h98q108 0 165.5 -58t57.5 -153
t-58.5 -153.5t-164.5 -58.5h-98v111z" />
    <glyph glyph-name="macron" unicode="&#xaf;" horiz-adv-x="530" 
d="M530 1412v-161h-530v161h530z" />
    <glyph glyph-name="degree" unicode="&#xb0;" horiz-adv-x="556" 
d="M96.5 943.5q-56.5 70.5 -56.5 227.5t56.5 227.5t181.5 70.5t181.5 -71t56.5 -228q0 -156 -56.5 -226.5t-181.5 -70.5t-181.5 70.5zM359.5 1037q25.5 42 25.5 136q0 91 -25.5 132.5t-82.5 41.5q-55 0 -80.5 -41.5t-25.5 -134.5q0 -92 25.5 -134t80.5 -42q57 0 82.5 42z
" />
    <glyph glyph-name="plusminus" unicode="&#xb1;" horiz-adv-x="672" 
d="M622 799v-146h-572v146h572zM418 351h-163v725h163v-725zM622 417v-146h-572v146h572z" />
    <glyph glyph-name="uni00B2" unicode="&#xb2;" horiz-adv-x="530" 
d="M91 947l105 117q3 4 6.5 7.5t6.5 7.5q38 43 61.5 74.5t36.5 59t13 52.5v20q0 30 -14 45.5t-41 15.5q-28 0 -43 -17t-15 -51v-38h-137v20q0 101 48.5 151t145.5 50q98 0 147.5 -42.5t49.5 -128.5v-11q0 -56 -32.5 -110t-106.5 -139l-64 -75h203v-124h-370v116z" />
    <glyph glyph-name="uni00B3" unicode="&#xb3;" horiz-adv-x="508" 
d="M149.5 843q-40.5 19 -60 57t-19.5 96v59h129v-49q0 -34 14 -51t39 -17q27 0 40 15t13 44v55q0 23 -12 34.5t-36 11.5h-41v101h41q19 0 28.5 9.5t9.5 27.5v53q0 29 -11.5 43.5t-35.5 14.5t-36 -15.5t-12 -46.5v-40h-130v40q0 59 20 98t60 58.5t100 19.5q90 0 134.5 -35
t44.5 -106v-58q0 -42 -24 -70.5t-72 -43.5q53 -7 79.5 -33.5t26.5 -72.5v-56q0 -82 -47 -122t-142 -40q-60 0 -100.5 19z" />
    <glyph glyph-name="acute" unicode="&#xb4;" horiz-adv-x="393" 
d="M7 1304l246 355l132 -97l-265 -336z" />
    <glyph glyph-name="mu" unicode="&#xb5;" horiz-adv-x="865" 
d="M110 1043h167v-867h-7l7 -456h-167v1323zM334 3.5q-35 18.5 -53.5 53.5t-18.5 85l15 139q0 -65 37.5 -100.5t106.5 -35.5q65 0 101 36.5t36 103.5l39 -137q-7 -78 -53.5 -120.5t-124.5 -42.5q-50 0 -85 18.5zM617.5 68q-60.5 68 -60.5 192v778h167v-778q0 -47 23 -73.5
t65 -26.5h45v-160h-68q-111 0 -171.5 68z" />
    <glyph glyph-name="paragraph" unicode="&#xb6;" horiz-adv-x="1052" 
d="M208 675q-87 48 -132.5 141t-45.5 224q0 130 45.5 223.5t132.5 142t210 48.5h155v-827h-155q-123 0 -210 48zM479 1454h156v-1690h-156v1690zM774 1454h157v-1690h-157v1690zM486 1454h526v-155h-526v155z" />
    <glyph glyph-name="periodcentered" unicode="&#xb7;" horiz-adv-x="326" 
d="M80 611h167v-167h-167v167z" />
    <glyph glyph-name="cedilla" unicode="&#xb8;" horiz-adv-x="393" 
d="M10 -404l34 116q58 -14 115 -14q37 0 56.5 16t19.5 47t-30 46t-89 15l71 97q96 0 146 -43.5t50 -126.5t-54 -127t-157 -44q-95 0 -162 18zM100 91h134v-269h-134v269z" />
    <glyph glyph-name="uni00B9" unicode="&#xb9;" horiz-adv-x="427" 
d="M357 831h-142v482l-145 -95v159l132 77h155v-623z" />
    <glyph glyph-name="ordmasculine" unicode="&#xba;" horiz-adv-x="590" 
d="M128.5 882q-58.5 58 -58.5 162v208q0 99 58.5 154t166.5 55t166.5 -55t58.5 -155v-207q0 -105 -58.5 -162.5t-166.5 -57.5t-166.5 58zM355.5 981.5q21.5 23.5 21.5 67.5v201q0 37 -21.5 57.5t-60.5 20.5t-60 -21t-21 -59v-199q0 -44 21 -67.5t60 -23.5t60.5 23.5z" />
    <glyph glyph-name="guillemotright" unicode="&#xbb;" horiz-adv-x="880" 
d="M426 878h188l226 -358h-187zM257 520h187l-226 -357h-188zM30 878h188l226 -358h-187zM653 520h187l-226 -357h-188z" />
    <glyph glyph-name="onequarter" unicode="&#xbc;" horiz-adv-x="1211" 
d="M837 1454h152l-647 -1454h-152zM703 188l123 435h126l-117 -435h296v-106h-428v106zM965 348h117v-348h-117v348zM367 831h-142v482l-145 -95v159l132 77h155v-623z" />
    <glyph glyph-name="onehalf" unicode="&#xbd;" horiz-adv-x="1189" 
d="M836 1454h152l-647 -1454h-151zM367 831h-142v482l-145 -95v159l132 77h155v-623zM739 116l105 117q4 4 7 7.5t7 7.5q38 43 61.5 74.5t36 59t12.5 52.5v20q0 30 -14 45.5t-40 15.5q-29 0 -43.5 -17t-14.5 -51v-38h-138v20q0 101 48.5 151t146.5 50t147 -42.5t49 -128.5
v-11q0 -56 -32 -110t-106 -139l-65 -75h203v-124h-370v116z" />
    <glyph glyph-name="threequarters" unicode="&#xbe;" horiz-adv-x="1251" 
d="M856 1454h152l-647 -1454h-151zM743 188l123 435h126l-117 -435h296v-106h-428v106zM1005 348h117v-348h-117v348zM125 867q-45 43 -45 129v59h130v-49q0 -34 13.5 -51t39.5 -17t39.5 15t13.5 44v55q0 23 -12.5 34.5t-36.5 11.5h-41v101h41q19 0 29 9.5t10 27.5v53
q0 29 -12 43.5t-35 14.5q-25 0 -37 -15.5t-12 -46.5v-40h-130v40q0 88 45 132t136 44q89 0 133.5 -35t44.5 -106v-58q0 -42 -23.5 -70.5t-71.5 -43.5q53 -7 79 -33.5t26 -72.5v-56q0 -82 -46.5 -122t-141.5 -40q-91 0 -136 43z" />
    <glyph glyph-name="questiondown" unicode="&#xbf;" horiz-adv-x="712" 
d="M196.5 -381.5q-70.5 40.5 -107.5 117.5t-37 185v1q0 72 13 126t32.5 91.5t53.5 90.5q41 65 66.5 117.5t43.5 138.5t18 208h165q0 -135 -19.5 -231.5t-46 -157t-69.5 -133.5q-28 -49 -44.5 -82.5t-27 -75.5t-10.5 -92v-1q0 -88 36 -136t101 -48q70 0 109.5 48.5
t39.5 136.5v74h174v-74q0 -108 -37.5 -185.5t-109.5 -118t-174 -40.5q-99 0 -169.5 40.5zM446 880h-167v167h167v-167z" />
    <glyph glyph-name="Agrave" unicode="&#xc0;" horiz-adv-x="906" 
d="M366 1454h174l336 -1454h-182l-241 1225l-241 -1225h-182zM231 492h463v-157h-463v157zM170 1777l127 122l237 -256l-105 -99z" />
    <glyph glyph-name="Aacute" unicode="&#xc1;" horiz-adv-x="906" 
d="M366 1454h174l336 -1454h-182l-241 1225l-241 -1225h-182zM231 492h463v-157h-463v157zM354 1643l250 256l127 -122l-272 -233z" />
    <glyph glyph-name="Acircumflex" unicode="&#xc2;" horiz-adv-x="906" 
d="M366 1454h174l336 -1454h-182l-241 1225l-241 -1225h-182zM231 492h463v-157h-463v157zM727 1647l-103 -95l-173 147l-172 -147l-103 95l275 232z" />
    <glyph glyph-name="Atilde" unicode="&#xc3;" horiz-adv-x="906" 
d="M366 1454h174l336 -1454h-182l-241 1225l-241 -1225h-182zM231 492h463v-157h-463v157zM549 1570q-23 8 -42.5 20t-41.5 29l-3 2q-2 1 -3.5 2.5l-3.5 3.5q-33 25 -54.5 37t-45.5 12q-19 0 -29 -15t-10 -41v-59h-130v81q0 86 37 133.5t105 47.5q39 0 69.5 -16.5
t69.5 -48.5l3 -1q2 -2 4.5 -4t4.5 -4q27 -21 46.5 -31.5t39.5 -10.5q22 0 34 16t12 45v61h131v-87q0 -86 -38 -133t-107 -47q-25 0 -48 8z" />
    <glyph glyph-name="Adieresis" unicode="&#xc4;" horiz-adv-x="906" 
d="M366 1454h174l336 -1454h-182l-241 1225l-241 -1225h-182zM231 492h463v-157h-463v157zM542 1747h167v-167h-167v167zM197 1747h167v-167h-167v167z" />
    <glyph glyph-name="Aring" unicode="&#xc5;" horiz-adv-x="906" 
d="M286.5 1482q-58.5 60 -58.5 171q0 116 58.5 179t166.5 63t167 -63.5t59 -178.5q0 -111 -59 -171t-167 -60t-166.5 60zM530.5 1563.5q27.5 33.5 27.5 93.5q0 62 -27.5 96t-77.5 34t-77.5 -34t-27.5 -96q0 -60 27.5 -93.5t77.5 -33.5t77.5 33.5zM366 1454h174l336 -1454
h-182l-241 1225l-241 -1225h-182zM231 492h463v-157h-463v157z" />
    <glyph glyph-name="AE" unicode="&#xc6;" horiz-adv-x="1160" 
d="M366 1454h140l-347 -1454h-169zM228 494h391v-157h-391v157zM486 1454h167v-1454h-167v1454zM585 157h525v-157h-525v157zM585 801h475v-157h-475v157zM585 1454h525v-157h-525v157z" />
    <glyph glyph-name="Ccedilla" unicode="&#xc7;" horiz-adv-x="856" 
d="M256 29q-76 44 -116 127.5t-40 200.5v739q0 118 40 201.5t115.5 127.5t182.5 44t183 -44t115.5 -127.5t39.5 -200.5v-57h-168v57q0 67 -19.5 114t-58 71.5t-92.5 24.5q-53 0 -91 -24.5t-58.5 -72t-20.5 -114.5v-739q0 -66 20.5 -113t58.5 -72t91 -25q54 0 92.5 25t58 72
t19.5 113v58h168v-58q0 -117 -39.5 -200.5t-115.5 -127.5t-183 -44q-106 0 -182 44zM271 -404l34 116q53 -14 105 -14q46 0 70.5 16t24.5 47t-35 46t-103 15l71 97q105 0 160 -43.5t55 -126.5t-59 -127t-171 -44q-85 0 -152 18zM485 61v-240l-134 1v239h134z" />
    <glyph glyph-name="Egrave" unicode="&#xc8;" horiz-adv-x="774" 
d="M100 1454h167v-1454h-167v1454zM199 157h525v-157h-525v157zM199 801h475v-157h-475v157zM199 1454h525v-157h-525v157zM140 1777l127 122l237 -256l-105 -99z" />
    <glyph glyph-name="Eacute" unicode="&#xc9;" horiz-adv-x="774" 
d="M100 1454h167v-1454h-167v1454zM199 157h525v-157h-525v157zM199 801h475v-157h-475v157zM199 1454h525v-157h-525v157zM324 1643l250 256l127 -122l-272 -233z" />
    <glyph glyph-name="Ecircumflex" unicode="&#xca;" horiz-adv-x="774" 
d="M100 1454h167v-1454h-167v1454zM199 157h525v-157h-525v157zM199 801h475v-157h-475v157zM199 1454h525v-157h-525v157zM697 1647l-103 -95l-173 147l-172 -147l-103 95l275 232z" />
    <glyph glyph-name="Edieresis" unicode="&#xcb;" horiz-adv-x="774" 
d="M100 1454h167v-1454h-167v1454zM199 157h525v-157h-525v157zM199 801h475v-157h-475v157zM199 1454h525v-157h-525v157zM512 1747h167v-167h-167v167zM167 1747h167v-167h-167v167z" />
    <glyph glyph-name="Igrave" unicode="&#xcc;" horiz-adv-x="386" 
d="M277 0h-167v1454h167v-1454zM-90 1777l127 122l237 -256l-105 -99z" />
    <glyph glyph-name="Iacute" unicode="&#xcd;" horiz-adv-x="386" 
d="M277 0h-167v1454h167v-1454zM94 1643l250 256l127 -122l-272 -233z" />
    <glyph glyph-name="Icircumflex" unicode="&#xce;" horiz-adv-x="386" 
d="M277 0h-167v1454h167v-1454zM467 1647l-103 -95l-173 147l-172 -147l-103 95l275 232z" />
    <glyph glyph-name="Idieresis" unicode="&#xcf;" horiz-adv-x="386" 
d="M277 0h-167v1454h167v-1454zM282 1747h167v-167h-167v167zM-63 1747h167v-167h-167v167z" />
    <glyph glyph-name="Eth" unicode="&#xd0;" horiz-adv-x="906" 
d="M222 157h309q52 0 80 31t28 88v902q0 57 -28 88t-80 31h-309v157h303q90 0 153 -33t95.5 -96t32.5 -153v-889q0 -90 -33 -153.5t-96 -96.5t-153 -33h-302v157zM122 1454h167v-1454h-167v1454zM498 802v-150h-508v150h508z" />
    <glyph glyph-name="Ntilde" unicode="&#xd1;" horiz-adv-x="914" 
d="M100 1454h151l429 -1154l-27 -26v1180h161v-1453h-152l-428 1137l28 26v-1163h-162v1453zM568 1570q-23 8 -42.5 20t-41.5 29l-3 2q-2 1 -3.5 2.5l-3.5 3.5q-33 25 -54.5 37t-45.5 12q-19 0 -29 -15t-10 -41v-59h-130v81q0 86 37 133.5t105 47.5q39 0 69.5 -16.5
t69.5 -48.5l3 -1q2 -2 4.5 -4t4.5 -4q27 -21 46.5 -31.5t39.5 -10.5q22 0 34 16t12 45v61h131v-87q0 -86 -38 -133t-107 -47q-25 0 -48 8z" />
    <glyph glyph-name="Ograve" unicode="&#xd2;" horiz-adv-x="922" 
d="M266 28q-81 43 -123.5 125t-42.5 198v753q0 116 42.5 198t123.5 124.5t195 42.5t195 -42.5t123.5 -124.5t42.5 -198v-753q0 -116 -42.5 -198t-123.5 -125t-195 -43t-195 43zM566.5 171q43.5 23 66 67t22.5 106v766q0 62 -22.5 106t-66 67t-105.5 23q-61 0 -104.5 -23
t-66.5 -67t-23 -106v-766q0 -62 23 -106t66.5 -67t104.5 -23q62 0 105.5 23zM178 1777l127 122l237 -256l-105 -99z" />
    <glyph glyph-name="Oacute" unicode="&#xd3;" horiz-adv-x="922" 
d="M266 28q-81 43 -123.5 125t-42.5 198v753q0 116 42.5 198t123.5 124.5t195 42.5t195 -42.5t123.5 -124.5t42.5 -198v-753q0 -116 -42.5 -198t-123.5 -125t-195 -43t-195 43zM566.5 171q43.5 23 66 67t22.5 106v766q0 62 -22.5 106t-66 67t-105.5 23q-61 0 -104.5 -23
t-66.5 -67t-23 -106v-766q0 -62 23 -106t66.5 -67t104.5 -23q62 0 105.5 23zM362 1643l250 256l127 -122l-272 -233z" />
    <glyph glyph-name="Ocircumflex" unicode="&#xd4;" horiz-adv-x="922" 
d="M266 28q-81 43 -123.5 125t-42.5 198v753q0 116 42.5 198t123.5 124.5t195 42.5t195 -42.5t123.5 -124.5t42.5 -198v-753q0 -116 -42.5 -198t-123.5 -125t-195 -43t-195 43zM566.5 171q43.5 23 66 67t22.5 106v766q0 62 -22.5 106t-66 67t-105.5 23q-61 0 -104.5 -23
t-66.5 -67t-23 -106v-766q0 -62 23 -106t66.5 -67t104.5 -23q62 0 105.5 23zM735 1647l-103 -95l-173 147l-172 -147l-103 95l275 232z" />
    <glyph glyph-name="Otilde" unicode="&#xd5;" horiz-adv-x="922" 
d="M266 28q-81 43 -123.5 125t-42.5 198v753q0 116 42.5 198t123.5 124.5t195 42.5t195 -42.5t123.5 -124.5t42.5 -198v-753q0 -116 -42.5 -198t-123.5 -125t-195 -43t-195 43zM566.5 171q43.5 23 66 67t22.5 106v766q0 62 -22.5 106t-66 67t-105.5 23q-61 0 -104.5 -23
t-66.5 -67t-23 -106v-766q0 -62 23 -106t66.5 -67t104.5 -23q62 0 105.5 23zM557 1570q-23 8 -42.5 20t-41.5 29l-3 2q-2 1 -3.5 2.5l-3.5 3.5q-33 25 -54.5 37t-45.5 12q-19 0 -29 -15t-10 -41v-59h-130v81q0 86 37 133.5t105 47.5q39 0 69.5 -16.5t69.5 -48.5l3 -1
q2 -2 4.5 -4t4.5 -4q27 -21 46.5 -31.5t39.5 -10.5q22 0 34 16t12 45v61h131v-87q0 -86 -38 -133t-107 -47q-25 0 -48 8z" />
    <glyph glyph-name="Odieresis" unicode="&#xd6;" horiz-adv-x="922" 
d="M266 28q-81 43 -123.5 125t-42.5 198v753q0 116 42.5 198t123.5 124.5t195 42.5t195 -42.5t123.5 -124.5t42.5 -198v-753q0 -116 -42.5 -198t-123.5 -125t-195 -43t-195 43zM566.5 171q43.5 23 66 67t22.5 106v766q0 62 -22.5 106t-66 67t-105.5 23q-61 0 -104.5 -23
t-66.5 -67t-23 -106v-766q0 -62 23 -106t66.5 -67t104.5 -23q62 0 105.5 23zM550 1747h167v-167h-167v167zM205 1747h167v-167h-167v167z" />
    <glyph glyph-name="multiply" unicode="&#xd7;" horiz-adv-x="721" 
d="M54 402l505 622l112 -92l-505 -621zM50 934l112 92l509 -621l-112 -91z" />
    <glyph glyph-name="Oslash" unicode="&#xd8;" horiz-adv-x="922" 
d="M610 1597h138l-434 -1728h-139zM266 28q-81 43 -123.5 125t-42.5 198v753q0 116 42.5 198t123.5 124.5t195 42.5t195 -42.5t123.5 -124.5t42.5 -198v-753q0 -116 -42.5 -198t-123.5 -125t-195 -43t-195 43zM566.5 171q43.5 23 66 67t22.5 106v766q0 62 -22.5 106t-66 67
t-105.5 23q-61 0 -104.5 -23t-66.5 -67t-23 -106v-766q0 -62 23 -106t66.5 -67t104.5 -23q62 0 105.5 23z" />
    <glyph glyph-name="Ugrave" unicode="&#xd9;" horiz-adv-x="842" 
d="M238.5 23.5q-73.5 38.5 -111 115t-37.5 188.5v1127h167v-1135q0 -84 41.5 -127.5t121.5 -43.5q82 0 123.5 43.5t41.5 127.5v1135h167v-1127q0 -112 -37.5 -188t-111.5 -115t-183 -39q-108 0 -181.5 38.5zM137 1777l127 122l237 -256l-105 -99z" />
    <glyph glyph-name="Uacute" unicode="&#xda;" horiz-adv-x="842" 
d="M238.5 23.5q-73.5 38.5 -111 115t-37.5 188.5v1127h167v-1135q0 -84 41.5 -127.5t121.5 -43.5q82 0 123.5 43.5t41.5 127.5v1135h167v-1127q0 -112 -37.5 -188t-111.5 -115t-183 -39q-108 0 -181.5 38.5zM321 1643l250 256l127 -122l-272 -233z" />
    <glyph glyph-name="Ucircumflex" unicode="&#xdb;" horiz-adv-x="842" 
d="M238.5 23.5q-73.5 38.5 -111 115t-37.5 188.5v1127h167v-1135q0 -84 41.5 -127.5t121.5 -43.5q82 0 123.5 43.5t41.5 127.5v1135h167v-1127q0 -112 -37.5 -188t-111.5 -115t-183 -39q-108 0 -181.5 38.5zM694 1647l-103 -95l-173 147l-172 -147l-103 95l275 232z" />
    <glyph glyph-name="Udieresis" unicode="&#xdc;" horiz-adv-x="842" 
d="M238.5 23.5q-73.5 38.5 -111 115t-37.5 188.5v1127h167v-1135q0 -84 41.5 -127.5t121.5 -43.5q82 0 123.5 43.5t41.5 127.5v1135h167v-1127q0 -112 -37.5 -188t-111.5 -115t-183 -39q-108 0 -181.5 38.5zM509 1747h167v-167h-167v167zM164 1747h167v-167h-167v167z" />
    <glyph glyph-name="Yacute" unicode="&#xdd;" horiz-adv-x="720" 
d="M449 610v-610h-167v610l-302 844h170l215 -651l205 651h170zM261 1643l250 256l127 -122l-272 -233z" />
    <glyph glyph-name="Thorn" unicode="&#xde;" horiz-adv-x="865" 
d="M205 461h265q41 0 71.5 19t46 54.5t15.5 85.5v253q0 53 -15.5 89.5t-45.5 55.5t-72 19h-265v157h257q98 0 167 -37.5t105 -109t36 -172.5v-258q0 -99 -36.5 -169t-105.5 -107t-166 -37h-257v157zM100 1454h167v-1454h-167v1454z" />
    <glyph glyph-name="germandbls" unicode="&#xdf;" horiz-adv-x="852" 
d="M110 1161q0 98 37 167t107 105t169 36q101 0 172.5 -35.5t109 -104t37.5 -165.5v-113q0 -83 -36.5 -138.5t-103.5 -69.5q67 -15 103.5 -69.5t36.5 -137.5v-368q0 -135 -80 -209t-226 -74v0v157v0q66 0 102.5 35t36.5 98v373q0 53 -36.5 83t-102.5 30v0v157v0
q66 0 102.5 33.5t36.5 94.5v111q0 74 -38 114.5t-107 40.5q-72 0 -112.5 -42t-40.5 -118v-1152h-167v1161z" />
    <glyph glyph-name="agrave" unicode="&#xe0;" horiz-adv-x="835" 
d="M566 760q0 73 -40 113.5t-113 40.5q-64 0 -99.5 -40.5t-35.5 -113.5h-162q0 141 79 218.5t223 77.5q97 0 166 -35t105 -101t36 -160v-760h-159v760zM161 57.5q-66 72.5 -66 218.5q0 175 80 261.5t241 86.5h159l14 -137h-172q-83 0 -124 -52.5t-41 -158.5q0 -77 37 -115
t110 -38q84 0 125.5 45t41.5 136l21 -91q-1 -76 -26.5 -127t-76 -76t-125.5 -25q-132 0 -198 72.5zM144 1562l132 97l246 -355l-113 -78z" />
    <glyph glyph-name="aacute" unicode="&#xe1;" horiz-adv-x="835" 
d="M566 760q0 73 -40 113.5t-113 40.5q-64 0 -99.5 -40.5t-35.5 -113.5h-162q0 141 79 218.5t223 77.5q97 0 166 -35t105 -101t36 -160v-760h-159v760zM161 57.5q-66 72.5 -66 218.5q0 175 80 261.5t241 86.5h159l14 -137h-172q-83 0 -124 -52.5t-41 -158.5q0 -77 37 -115
t110 -38q84 0 125.5 45t41.5 136l21 -91q-1 -76 -26.5 -127t-76 -76t-125.5 -25q-132 0 -198 72.5zM329 1304l246 355l132 -97l-265 -336z" />
    <glyph glyph-name="acircumflex" unicode="&#xe2;" horiz-adv-x="835" 
d="M566 760q0 73 -40 113.5t-113 40.5q-64 0 -99.5 -40.5t-35.5 -113.5h-162q0 141 79 218.5t223 77.5q97 0 166 -35t105 -101t36 -160v-760h-159v760zM161 57.5q-66 72.5 -66 218.5q0 175 80 261.5t241 86.5h159l14 -137h-172q-83 0 -124 -52.5t-41 -158.5q0 -77 37 -115
t110 -38q84 0 125.5 45t41.5 136l21 -91q-1 -76 -26.5 -127t-76 -76t-125.5 -25q-132 0 -198 72.5zM674 1314l-100 -88l-150 181l-150 -181l-101 88l251 288z" />
    <glyph glyph-name="atilde" unicode="&#xe3;" horiz-adv-x="835" 
d="M566 760q0 73 -40 113.5t-113 40.5q-64 0 -99.5 -40.5t-35.5 -113.5h-162q0 141 79 218.5t223 77.5q97 0 166 -35t105 -101t36 -160v-760h-159v760zM161 57.5q-66 72.5 -66 218.5q0 175 80 261.5t241 86.5h159l14 -137h-172q-83 0 -124 -52.5t-41 -158.5q0 -77 37 -115
t110 -38q84 0 125.5 45t41.5 136l21 -91q-1 -76 -26.5 -127t-76 -76t-125.5 -25q-132 0 -198 72.5zM494.5 1260.5q-29.5 13.5 -63.5 37.5l-8 5q-5 3 -9 6l-8 6q-32 23 -52.5 34t-43.5 11q-22 0 -33 -14.5t-11 -41.5v-58h-120v81q0 86 37 133.5t105 47.5q38 0 67.5 -15.5
t69.5 -45.5l7 -5l15 -11q26 -19 44.5 -29t38.5 -10q24 0 37.5 16t13.5 45v61h121v-87q0 -86 -38 -133t-107 -47q-33 0 -62.5 13.5z" />
    <glyph glyph-name="adieresis" unicode="&#xe4;" horiz-adv-x="835" 
d="M566 760q0 73 -40 113.5t-113 40.5q-64 0 -99.5 -40.5t-35.5 -113.5h-162q0 141 79 218.5t223 77.5q97 0 166 -35t105 -101t36 -160v-760h-159v760zM161 57.5q-66 72.5 -66 218.5q0 175 80 261.5t241 86.5h159l14 -137h-172q-83 0 -124 -52.5t-41 -158.5q0 -77 37 -115
t110 -38q84 0 125.5 45t41.5 136l21 -91q-1 -76 -26.5 -127t-76 -76t-125.5 -25q-132 0 -198 72.5zM500 1419h167v-167h-167v167zM180 1419h167v-167h-167v167z" />
    <glyph glyph-name="aring" unicode="&#xe5;" horiz-adv-x="835" 
d="M566 760q0 73 -40 113.5t-113 40.5q-64 0 -99.5 -40.5t-35.5 -113.5h-162q0 141 79 218.5t223 77.5q97 0 166 -35t105 -101t36 -160v-760h-159v760zM161 57.5q-66 72.5 -66 218.5q0 175 80 261.5t241 86.5h159l14 -137h-172q-83 0 -124 -52.5t-41 -158.5q0 -77 37 -115
t110 -38q84 0 125.5 45t41.5 136l21 -91q-1 -76 -26.5 -127t-76 -76t-125.5 -25q-132 0 -198 72.5zM263 1290.5q-55 59.5 -55 172.5q0 117 55 179t160 62t160.5 -62t55.5 -179q0 -113 -55.5 -172.5t-160.5 -59.5t-160 59.5zM492.5 1373.5q24.5 32.5 24.5 93.5q0 62 -24.5 95
t-69.5 33t-69 -33t-24 -95q0 -61 24 -93.5t69 -32.5t69.5 32.5z" />
    <glyph glyph-name="ae" unicode="&#xe6;" horiz-adv-x="1242" 
d="M556 760q0 69 -37.5 107t-105.5 38q-65 0 -101.5 -38t-36.5 -107h-159q0 141 77.5 218.5t217.5 77.5q126 0 195 -77.5t69 -218.5v-569h-119v569zM170.5 65q-75.5 80 -75.5 231q0 150 83 231t238 81h149l14 -145h-162q-80 0 -123 -43.5t-43 -123.5t40.5 -122t117.5 -42
q47 0 80 17.5t50 52t17 83.5l70 8l17 -84q-2 -108 -68 -166t-188 -58q-141 0 -216.5 80zM714.5 25.5q-60.5 40.5 -92 118t-31.5 186.5v361q0 116 32 198t93.5 124.5t147.5 42.5q91 0 154.5 -39.5t97 -115.5t33.5 -182v-258h-494v145h338v109q0 90 -35.5 139t-99.5 49
q-69 0 -106.5 -52t-37.5 -149v-377q0 -87 38.5 -135.5t106.5 -48.5q65 0 101 37.5t36 105.5v7h156v-7q0 -142 -76.5 -220.5t-215.5 -78.5q-85 0 -145.5 40.5z" />
    <glyph glyph-name="ccedilla" unicode="&#xe7;" horiz-adv-x="772" 
d="M234 21.5q-70 36.5 -107 106t-37 167.5v436q0 103 37 176t107.5 111t169.5 38q100 0 171 -38t108 -111.5t37 -177.5v-21h-162v21q0 82 -39.5 127t-111.5 45q-71 0 -110.5 -44.5t-39.5 -125.5v-436q0 -74 39.5 -114t110.5 -40q72 0 111.5 41.5t39.5 116.5v21h164v-21
q0 -99 -37.5 -169.5t-108.5 -107.5t-172 -37q-100 0 -170 36.5zM227 -404l34 116q58 -14 115 -14q37 0 56.5 16t19.5 47t-30 46t-89 15l71 97q96 0 146 -43.5t50 -126.5t-54 -127t-157 -44q-95 0 -162 18zM317 91h134v-269h-134v269z" />
    <glyph glyph-name="egrave" unicode="&#xe8;" horiz-adv-x="802" 
d="M235.5 25.5q-70.5 40.5 -108 118t-37.5 186.5v361q0 116 36.5 198t105.5 124.5t166 42.5q99 0 168.5 -39.5t106 -115t36.5 -182.5v-266h-508v145h345v117q0 90 -38.5 139t-109.5 49q-69 0 -107 -52t-38 -149v-377q0 -87 40 -135.5t113 -48.5q68 0 105.5 37.5t37.5 105.5
v7h163v-7q0 -143 -80 -221t-226 -78q-100 0 -170.5 40.5zM122 1562l132 97l246 -355l-113 -78z" />
    <glyph glyph-name="eacute" unicode="&#xe9;" horiz-adv-x="802" 
d="M235.5 25.5q-70.5 40.5 -108 118t-37.5 186.5v361q0 116 36.5 198t105.5 124.5t166 42.5q99 0 168.5 -39.5t106 -115t36.5 -182.5v-266h-508v145h345v117q0 90 -38.5 139t-109.5 49q-69 0 -107 -52t-38 -149v-377q0 -87 40 -135.5t113 -48.5q68 0 105.5 37.5t37.5 105.5
v7h163v-7q0 -143 -80 -221t-226 -78q-100 0 -170.5 40.5zM307 1304l246 355l132 -97l-265 -336z" />
    <glyph glyph-name="ecircumflex" unicode="&#xea;" horiz-adv-x="802" 
d="M235.5 25.5q-70.5 40.5 -108 118t-37.5 186.5v361q0 116 36.5 198t105.5 124.5t166 42.5q99 0 168.5 -39.5t106 -115t36.5 -182.5v-266h-508v145h345v117q0 90 -38.5 139t-109.5 49q-69 0 -107 -52t-38 -149v-377q0 -87 40 -135.5t113 -48.5q68 0 105.5 37.5t37.5 105.5
v7h163v-7q0 -143 -80 -221t-226 -78q-100 0 -170.5 40.5zM652 1314l-100 -88l-150 181l-150 -181l-101 88l251 288z" />
    <glyph glyph-name="edieresis" unicode="&#xeb;" horiz-adv-x="802" 
d="M235.5 25.5q-70.5 40.5 -108 118t-37.5 186.5v361q0 116 36.5 198t105.5 124.5t166 42.5q99 0 168.5 -39.5t106 -115t36.5 -182.5v-266h-508v145h345v117q0 90 -38.5 139t-109.5 49q-69 0 -107 -52t-38 -149v-377q0 -87 40 -135.5t113 -48.5q68 0 105.5 37.5t37.5 105.5
v7h163v-7q0 -143 -80 -221t-226 -78q-100 0 -170.5 40.5zM478 1419h167v-167h-167v167zM158 1419h167v-167h-167v167z" />
    <glyph glyph-name="igrave" unicode="&#xec;" horiz-adv-x="406" 
d="M120 1038h167v-1038h-167v1038zM-76 1562l132 97l246 -355l-113 -78z" />
    <glyph glyph-name="iacute" unicode="&#xed;" horiz-adv-x="406" 
d="M120 1038h167v-1038h-167v1038zM109 1304l246 355l132 -97l-265 -336z" />
    <glyph glyph-name="icircumflex" unicode="&#xee;" horiz-adv-x="406" 
d="M120 1038h167v-1038h-167v1038zM454 1314l-100 -88l-150 181l-150 -181l-101 88l251 288z" />
    <glyph glyph-name="idieresis" unicode="&#xef;" horiz-adv-x="406" 
d="M120 1038h167v-1038h-167v1038zM280 1419h167v-167h-167v167zM-40 1419h167v-167h-167v167z" />
    <glyph glyph-name="eth" unicode="&#xf0;" horiz-adv-x="765" 
d="M516 785q1 126 -29 241t-94 219l-128 209h190l86 -164q62 -118 93 -257t31 -299zM665 734v-464q0 -89 -34 -153t-99 -98t-156 -34q-90 0 -154.5 33.5t-98 97.5t-33.5 154v467q0 100 30 171.5t87 109.5t136 38q67 0 118 -39t81 -113zM503 728q0 174 -129 174
q-61 0 -91.5 -44t-30.5 -130v-449q0 -139 122 -139q66 0 97.5 34.5t31.5 104.5v449zM624 1409l34 -121l-519 -141l-34 122z" />
    <glyph glyph-name="ntilde" unicode="&#xf1;" horiz-adv-x="854" 
d="M110 1038h167v-1038h-167v1038zM577 727q0 87 -37 130.5t-113 43.5q-75 0 -112.5 -46.5t-37.5 -140.5l-21 149q36 97 97.5 145t145.5 48q121 0 183 -76t62 -225v-755h-167v727zM493.5 1260.5q-29.5 13.5 -63.5 37.5l-8 5q-5 3 -9 6l-8 6q-32 23 -52.5 34t-43.5 11
q-22 0 -33 -14.5t-11 -41.5v-58h-120v81q0 86 37 133.5t105 47.5q38 0 67.5 -15.5t69.5 -45.5l7 -5l15 -11q26 -19 44.5 -29t38.5 -10q24 0 37.5 16t13.5 45v61h121v-87q0 -86 -38 -133t-107 -47q-33 0 -62.5 13.5z" />
    <glyph glyph-name="ograve" unicode="&#xf2;" horiz-adv-x="776" 
d="M228 20.5q-67 35.5 -102.5 103.5t-35.5 163v473q0 94 35.5 160.5t102.5 101t161 34.5t161 -34.5t101.5 -101t34.5 -160.5v-476q0 -94 -34.5 -161.5t-101.5 -102.5t-161 -35t-161 35.5zM484.5 182q34.5 37 34.5 106v468q0 66 -34.5 103.5t-96.5 37.5t-96.5 -37.5
t-34.5 -103.5v-468q0 -68 34.5 -105.5t96.5 -37.5t96.5 37zM109 1562l132 97l246 -355l-113 -78z" />
    <glyph glyph-name="oacute" unicode="&#xf3;" horiz-adv-x="776" 
d="M228 20.5q-67 35.5 -102.5 103.5t-35.5 163v473q0 94 35.5 160.5t102.5 101t161 34.5t161 -34.5t101.5 -101t34.5 -160.5v-476q0 -94 -34.5 -161.5t-101.5 -102.5t-161 -35t-161 35.5zM484.5 182q34.5 37 34.5 106v468q0 66 -34.5 103.5t-96.5 37.5t-96.5 -37.5
t-34.5 -103.5v-468q0 -68 34.5 -105.5t96.5 -37.5t96.5 37zM294 1304l246 355l132 -97l-265 -336z" />
    <glyph glyph-name="ocircumflex" unicode="&#xf4;" horiz-adv-x="776" 
d="M228 20.5q-67 35.5 -102.5 103.5t-35.5 163v473q0 94 35.5 160.5t102.5 101t161 34.5t161 -34.5t101.5 -101t34.5 -160.5v-476q0 -94 -34.5 -161.5t-101.5 -102.5t-161 -35t-161 35.5zM484.5 182q34.5 37 34.5 106v468q0 66 -34.5 103.5t-96.5 37.5t-96.5 -37.5
t-34.5 -103.5v-468q0 -68 34.5 -105.5t96.5 -37.5t96.5 37zM639 1314l-100 -88l-150 181l-150 -181l-101 88l251 288z" />
    <glyph glyph-name="otilde" unicode="&#xf5;" horiz-adv-x="776" 
d="M228 20.5q-67 35.5 -102.5 103.5t-35.5 163v473q0 94 35.5 160.5t102.5 101t161 34.5t161 -34.5t101.5 -101t34.5 -160.5v-476q0 -94 -34.5 -161.5t-101.5 -102.5t-161 -35t-161 35.5zM484.5 182q34.5 37 34.5 106v468q0 66 -34.5 103.5t-96.5 37.5t-96.5 -37.5
t-34.5 -103.5v-468q0 -68 34.5 -105.5t96.5 -37.5t96.5 37zM459.5 1260.5q-29.5 13.5 -63.5 37.5l-8 5q-5 3 -9 6l-8 6q-32 23 -52.5 34t-43.5 11q-22 0 -33 -14.5t-11 -41.5v-58h-120v81q0 86 37 133.5t105 47.5q38 0 67.5 -15.5t69.5 -45.5l7 -5l15 -11q26 -19 44.5 -29
t38.5 -10q24 0 37.5 16t13.5 45v61h121v-87q0 -86 -38 -133t-107 -47q-33 0 -62.5 13.5z" />
    <glyph glyph-name="odieresis" unicode="&#xf6;" horiz-adv-x="776" 
d="M228 20.5q-67 35.5 -102.5 103.5t-35.5 163v473q0 94 35.5 160.5t102.5 101t161 34.5t161 -34.5t101.5 -101t34.5 -160.5v-476q0 -94 -34.5 -161.5t-101.5 -102.5t-161 -35t-161 35.5zM484.5 182q34.5 37 34.5 106v468q0 66 -34.5 103.5t-96.5 37.5t-96.5 -37.5
t-34.5 -103.5v-468q0 -68 34.5 -105.5t96.5 -37.5t96.5 37zM465 1419h167v-167h-167v167zM145 1419h167v-167h-167v167z" />
    <glyph glyph-name="divide" unicode="&#xf7;" horiz-adv-x="618" 
d="M228 1057h179v-192h-179v192zM50 748h518v-157h-518v157zM228 474h179v-193h-179v193z" />
    <glyph glyph-name="oslash" unicode="&#xf8;" horiz-adv-x="776" 
d="M476 1180h129l-305 -1322h-129zM228 20.5q-67 35.5 -102.5 103.5t-35.5 163v473q0 94 35.5 160.5t102.5 101t161 34.5t161 -34.5t101.5 -101t34.5 -160.5v-476q0 -94 -34.5 -161.5t-101.5 -102.5t-161 -35t-161 35.5zM484.5 182q34.5 37 34.5 106v468q0 66 -34.5 103.5
t-96.5 37.5t-96.5 -37.5t-34.5 -103.5v-468q0 -68 34.5 -105.5t96.5 -37.5t96.5 37z" />
    <glyph glyph-name="ugrave" unicode="&#xf9;" horiz-adv-x="834" 
d="M558 1038h166v-1038h-166v1038zM277 281q0 -66 36.5 -101t104.5 -35q70 0 105 35t35 105l14 -132q-30 -84 -84 -126t-135 -42q-118 0 -180.5 75.5t-62.5 216.5v761h167v-757zM136 1562l132 97l246 -355l-113 -78z" />
    <glyph glyph-name="uacute" unicode="&#xfa;" horiz-adv-x="834" 
d="M558 1038h166v-1038h-166v1038zM277 281q0 -66 36.5 -101t104.5 -35q70 0 105 35t35 105l14 -132q-30 -84 -84 -126t-135 -42q-118 0 -180.5 75.5t-62.5 216.5v761h167v-757zM321 1304l246 355l132 -97l-265 -336z" />
    <glyph glyph-name="ucircumflex" unicode="&#xfb;" horiz-adv-x="834" 
d="M558 1038h166v-1038h-166v1038zM277 281q0 -66 36.5 -101t104.5 -35q70 0 105 35t35 105l14 -132q-30 -84 -84 -126t-135 -42q-118 0 -180.5 75.5t-62.5 216.5v761h167v-757zM666 1314l-100 -88l-150 181l-150 -181l-101 88l251 288z" />
    <glyph glyph-name="udieresis" unicode="&#xfc;" horiz-adv-x="834" 
d="M558 1038h166v-1038h-166v1038zM277 281q0 -66 36.5 -101t104.5 -35q70 0 105 35t35 105l14 -132q-30 -84 -84 -126t-135 -42q-118 0 -180.5 75.5t-62.5 216.5v761h167v-757zM492 1419h167v-167h-167v167zM172 1419h167v-167h-167v167z" />
    <glyph glyph-name="yacute" unicode="&#xfd;" horiz-adv-x="769" 
d="M749 1038l-327 -1281q-16 -64 -54 -106t-98.5 -63t-145.5 -21h-20v158h20q77 0 119.5 35t60.5 106l275 1172h170zM40 1038h170l231 -891l-74 -222zM311 1304l246 355l132 -97l-265 -336z" />
    <glyph glyph-name="thorn" unicode="&#xfe;" horiz-adv-x="824" 
d="M110 1454h167v-1876h-167v1876zM344.5 32.5q-59.5 47.5 -81.5 130.5l14 159q0 -59 17 -101t50 -64.5t78 -22.5q70 0 109 50.5t39 141.5v394q0 89 -39 138t-109 49q-45 0 -78 -21.5t-50 -62.5t-17 -99l-21 142q32 90 96.5 140t140.5 50q77 0 131 -38.5t82 -113t28 -179.5
v-402q0 -107 -29.5 -183t-85.5 -115.5t-135 -39.5q-80 0 -139.5 47.5z" />
    <glyph glyph-name="ydieresis" unicode="&#xff;" horiz-adv-x="769" 
d="M749 1038l-327 -1281q-16 -64 -54 -106t-98.5 -63t-145.5 -21h-20v158h20q77 0 119.5 35t60.5 106l275 1172h170zM40 1038h170l231 -891l-74 -222zM482 1419h167v-167h-167v167zM162 1419h167v-167h-167v167z" />
    <glyph glyph-name="Amacron" unicode="&#x100;" horiz-adv-x="906" 
d="M366 1454h174l336 -1454h-182l-241 1225l-241 -1225h-182zM231 492h463v-157h-463v157zM718 1736v-162h-530v162h530z" />
    <glyph glyph-name="amacron" unicode="&#x101;" horiz-adv-x="835" 
d="M566 760q0 73 -40 113.5t-113 40.5q-64 0 -99.5 -40.5t-35.5 -113.5h-162q0 141 79 218.5t223 77.5q97 0 166 -35t105 -101t36 -160v-760h-159v760zM161 57.5q-66 72.5 -66 218.5q0 175 80 261.5t241 86.5h159l14 -137h-172q-83 0 -124 -52.5t-41 -158.5q0 -77 37 -115
t110 -38q84 0 125.5 45t41.5 136l21 -91q-1 -76 -26.5 -127t-76 -76t-125.5 -25q-132 0 -198 72.5zM688 1412v-161h-530v161h530z" />
    <glyph glyph-name="Abreve" unicode="&#x102;" horiz-adv-x="906" 
d="M366 1454h174l336 -1454h-182l-241 1225l-241 -1225h-182zM231 492h463v-157h-463v157zM720 1862q0 -144 -69 -224t-194 -80h-8q-125 0 -194 80t-69 224l148 -1q0 -81 30 -126t85 -45h8q55 0 85.5 45t30.5 126z" />
    <glyph glyph-name="abreve" unicode="&#x103;" horiz-adv-x="835" 
d="M566 760q0 73 -40 113.5t-113 40.5q-64 0 -99.5 -40.5t-35.5 -113.5h-162q0 141 79 218.5t223 77.5q97 0 166 -35t105 -101t36 -160v-760h-159v760zM161 57.5q-66 72.5 -66 218.5q0 175 80 261.5t241 86.5h159l14 -137h-172q-83 0 -124 -52.5t-41 -158.5q0 -77 37 -115
t110 -38q84 0 125.5 45t41.5 136l21 -91q-1 -76 -26.5 -127t-76 -76t-125.5 -25q-132 0 -198 72.5zM238.5 1306.5q-62.5 65.5 -62.5 184.5v70h142v-72q0 -55 25.5 -85.5t70.5 -30.5h18q46 0 71 30.5t25 85.5v72h142v-70q0 -119 -62.5 -184.5t-175.5 -65.5h-18
q-113 0 -175.5 65.5z" />
    <glyph glyph-name="Aogonek" unicode="&#x104;" horiz-adv-x="906" 
d="M366 1454h174l336 -1454h-182l-241 1225l-241 -1225h-182zM231 492h463v-157h-463v157zM597.5 -356q-76.5 64 -76.5 193q0 136 71.5 203t215.5 67h16v-107h-16q-136 0 -136 -144q0 -140 155 -140h47v-136h-47q-153 0 -229.5 64z" />
    <glyph glyph-name="aogonek" unicode="&#x105;" horiz-adv-x="835" 
d="M566 760q0 73 -40 113.5t-113 40.5q-64 0 -99.5 -40.5t-35.5 -113.5h-162q0 141 79 218.5t223 77.5q97 0 166 -35t105 -101t36 -160v-760h-159v760zM161 57.5q-66 72.5 -66 218.5q0 175 80 261.5t241 86.5h159l14 -137h-172q-83 0 -124 -52.5t-41 -158.5q0 -77 37 -115
t110 -38q84 0 125.5 45t41.5 136l21 -91q-1 -76 -26.5 -127t-76 -76t-125.5 -25q-132 0 -198 72.5zM477.5 -373.5q-59.5 46.5 -59.5 150.5q0 84 59.5 149t177.5 116l70 -42q-81 -48 -118.5 -95t-37.5 -104q0 -42 24 -61t76 -19h56v-141h-56q-132 0 -191.5 46.5z" />
    <glyph glyph-name="Cacute" unicode="&#x106;" horiz-adv-x="856" 
d="M256 29q-76 44 -116 127.5t-40 200.5v739q0 118 40 201.5t115.5 127.5t182.5 44t183 -44t115.5 -127.5t39.5 -200.5v-57h-168v57q0 67 -19.5 114t-58 71.5t-92.5 24.5q-53 0 -91 -24.5t-58.5 -72t-20.5 -114.5v-739q0 -66 20.5 -113t58.5 -72t91 -25q54 0 92.5 25t58 72
t19.5 113v58h168v-58q0 -117 -39.5 -200.5t-115.5 -127.5t-183 -44q-106 0 -182 44zM339 1643l250 256l127 -122l-272 -233z" />
    <glyph glyph-name="cacute" unicode="&#x107;" horiz-adv-x="772" 
d="M234 21.5q-70 36.5 -107 106t-37 167.5v436q0 103 37 176t107.5 111t169.5 38q100 0 171 -38t108 -111.5t37 -177.5v-21h-162v21q0 82 -39.5 127t-111.5 45q-71 0 -110.5 -44.5t-39.5 -125.5v-436q0 -74 39.5 -114t110.5 -40q72 0 111.5 41.5t39.5 116.5v21h164v-21
q0 -99 -37.5 -169.5t-108.5 -107.5t-172 -37q-100 0 -170 36.5zM310 1304l246 355l132 -97l-265 -336z" />
    <glyph glyph-name="Cdotaccent" unicode="&#x10a;" horiz-adv-x="856" 
d="M256 29q-76 44 -116 127.5t-40 200.5v739q0 118 40 201.5t115.5 127.5t182.5 44t183 -44t115.5 -127.5t39.5 -200.5v-57h-168v57q0 67 -19.5 114t-58 71.5t-92.5 24.5q-53 0 -91 -24.5t-58.5 -72t-20.5 -114.5v-739q0 -66 20.5 -113t58.5 -72t91 -25q54 0 92.5 25t58 72
t19.5 113v58h168v-58q0 -117 -39.5 -200.5t-115.5 -127.5t-183 -44q-106 0 -182 44zM355 1739h167v-167h-167v167z" />
    <glyph glyph-name="cdotaccent" unicode="&#x10b;" horiz-adv-x="772" 
d="M234 21.5q-70 36.5 -107 106t-37 167.5v436q0 103 37 176t107.5 111t169.5 38q100 0 171 -38t108 -111.5t37 -177.5v-21h-162v21q0 82 -39.5 127t-111.5 45q-71 0 -110.5 -44.5t-39.5 -125.5v-436q0 -74 39.5 -114t110.5 -40q72 0 111.5 41.5t39.5 116.5v21h164v-21
q0 -99 -37.5 -169.5t-108.5 -107.5t-172 -37q-100 0 -170 36.5zM321 1418h167v-167h-167v167z" />
    <glyph glyph-name="Ccaron" unicode="&#x10c;" horiz-adv-x="856" 
d="M256 29q-76 44 -116 127.5t-40 200.5v739q0 118 40 201.5t115.5 127.5t182.5 44t183 -44t115.5 -127.5t39.5 -200.5v-57h-168v57q0 67 -19.5 114t-58 71.5t-92.5 24.5q-53 0 -91 -24.5t-58.5 -72t-20.5 -114.5v-739q0 -66 20.5 -113t58.5 -72t91 -25q54 0 92.5 25t58 72
t19.5 113v58h168v-58q0 -117 -39.5 -200.5t-115.5 -127.5t-183 -44q-106 0 -182 44zM162 1784l93 96l183 -148l182 148l93 -96l-275 -232z" />
    <glyph glyph-name="ccaron" unicode="&#x10d;" horiz-adv-x="772" 
d="M234 21.5q-70 36.5 -107 106t-37 167.5v436q0 103 37 176t107.5 111t169.5 38q100 0 171 -38t108 -111.5t37 -177.5v-21h-162v21q0 82 -39.5 127t-111.5 45q-71 0 -110.5 -44.5t-39.5 -125.5v-436q0 -74 39.5 -114t110.5 -40q72 0 111.5 41.5t39.5 116.5v21h164v-21
q0 -99 -37.5 -169.5t-108.5 -107.5t-172 -37q-100 0 -170 36.5zM152 1519l100 86l153 -184l153 184l100 -86l-253 -288z" />
    <glyph glyph-name="Dcaron" unicode="&#x10e;" horiz-adv-x="884" 
d="M200 157h309q52 0 80 31t28 88v902q0 57 -28 88t-80 31h-309v157h303q90 0 153 -33t95.5 -96t32.5 -153v-889q0 -90 -33 -153.5t-96 -96.5t-153 -33h-302v157zM100 1454h167v-1454h-167v1454zM120 1784l93 96l183 -148l182 148l93 -96l-275 -232z" />
    <glyph glyph-name="dcaron" unicode="&#x10f;" horiz-adv-x="1044" 
d="M547 1454h167v-1454h-167v1454zM202.5 18.5q-54.5 36.5 -83.5 106.5t-29 168v441q0 102 29 174.5t83.5 110t131.5 37.5q74 0 135 -48t99 -135l-21 -145q0 56 -17 95.5t-49.5 60.5t-78.5 21q-68 0 -106.5 -47t-38.5 -131v-430q0 -77 38.5 -120t106.5 -43q46 0 78.5 20
t49.5 58.5t17 92.5l14 -142q-28 -86 -87.5 -133.5t-139.5 -47.5q-77 0 -131.5 36.5zM867 1469h152v-166l-152 -130v296z" />
    <glyph glyph-name="Dcroat" unicode="&#x110;" horiz-adv-x="906" 
d="M222 157h309q52 0 80 31t28 88v902q0 57 -28 88t-80 31h-309v157h303q90 0 153 -33t95.5 -96t32.5 -153v-889q0 -90 -33 -153.5t-96 -96.5t-153 -33h-302v157zM122 1454h167v-1454h-167v1454zM498 802v-150h-508v150h508z" />
    <glyph glyph-name="dcroat" unicode="&#x111;" horiz-adv-x="824" 
d="M290 1347h532v-156h-532v156zM547 1454h167v-1454h-167v1454zM202.5 18.5q-54.5 36.5 -83.5 106.5t-29 168v441q0 102 29 174.5t83.5 110t131.5 37.5q74 0 135 -48t99 -135l-21 -145q0 56 -17 95.5t-49.5 60.5t-78.5 21q-68 0 -106.5 -47t-38.5 -131v-430
q0 -77 38.5 -120t106.5 -43q46 0 78.5 20t49.5 58.5t17 92.5l14 -142q-28 -86 -87.5 -133.5t-139.5 -47.5q-77 0 -131.5 36.5z" />
    <glyph glyph-name="Emacron" unicode="&#x112;" horiz-adv-x="774" 
d="M100 1454h167v-1454h-167v1454zM199 157h525v-157h-525v157zM199 801h475v-157h-475v157zM199 1454h525v-157h-525v157zM688 1736v-162h-530v162h530z" />
    <glyph glyph-name="emacron" unicode="&#x113;" horiz-adv-x="802" 
d="M235.5 25.5q-70.5 40.5 -108 118t-37.5 186.5v361q0 116 36.5 198t105.5 124.5t166 42.5q99 0 168.5 -39.5t106 -115t36.5 -182.5v-266h-508v145h345v117q0 90 -38.5 139t-109.5 49q-69 0 -107 -52t-38 -149v-377q0 -87 40 -135.5t113 -48.5q68 0 105.5 37.5t37.5 105.5
v7h163v-7q0 -143 -80 -221t-226 -78q-100 0 -170.5 40.5zM666 1412v-161h-530v161h530z" />
    <glyph glyph-name="Edotaccent" unicode="&#x116;" horiz-adv-x="774" 
d="M100 1454h167v-1454h-167v1454zM199 157h525v-157h-525v157zM199 801h475v-157h-475v157zM199 1454h525v-157h-525v157zM339 1739h167v-167h-167v167z" />
    <glyph glyph-name="edotaccent" unicode="&#x117;" horiz-adv-x="802" 
d="M235.5 25.5q-70.5 40.5 -108 118t-37.5 186.5v361q0 116 36.5 198t105.5 124.5t166 42.5q99 0 168.5 -39.5t106 -115t36.5 -182.5v-266h-508v145h345v117q0 90 -38.5 139t-109.5 49q-69 0 -107 -52t-38 -149v-377q0 -87 40 -135.5t113 -48.5q68 0 105.5 37.5t37.5 105.5
v7h163v-7q0 -143 -80 -221t-226 -78q-100 0 -170.5 40.5zM318 1418h167v-167h-167v167z" />
    <glyph glyph-name="Eogonek" unicode="&#x118;" horiz-adv-x="774" 
d="M100 1454h167v-1454h-167v1454zM199 157h525v-157h-525v157zM199 801h475v-157h-475v157zM199 1454h525v-157h-525v157zM451.5 -356q-76.5 64 -76.5 193q0 136 71.5 203t215.5 67h16v-107h-16q-136 0 -136 -144q0 -140 155 -140h47v-136h-47q-153 0 -229.5 64z" />
    <glyph glyph-name="eogonek" unicode="&#x119;" horiz-adv-x="802" 
d="M438 -358.5q-62 51.5 -62 165.5q0 97 52 170t160 138l56 -38l-12 -11q-57 -55 -81 -110.5t-24 -124.5q0 -52 26.5 -76t83.5 -24h51v-141h-51q-137 0 -199 51.5zM235.5 25.5q-70.5 40.5 -108 118t-37.5 186.5v361q0 116 36.5 198t105.5 124.5t166 42.5q99 0 168.5 -39.5
t106 -115t36.5 -182.5v-266h-508v145h345v117q0 90 -38.5 139t-109.5 49q-69 0 -107 -52t-38 -149v-377q0 -87 40 -135.5t113 -48.5q68 0 105.5 37.5t37.5 105.5v7h163v-7q0 -143 -80 -221t-226 -78q-100 0 -170.5 40.5z" />
    <glyph glyph-name="Ecaron" unicode="&#x11a;" horiz-adv-x="774" 
d="M100 1454h167v-1454h-167v1454zM199 157h525v-157h-525v157zM199 801h475v-157h-475v157zM199 1454h525v-157h-525v157zM146 1784l93 96l183 -148l182 148l93 -96l-275 -232z" />
    <glyph glyph-name="ecaron" unicode="&#x11b;" horiz-adv-x="802" 
d="M235.5 25.5q-70.5 40.5 -108 118t-37.5 186.5v361q0 116 36.5 198t105.5 124.5t166 42.5q99 0 168.5 -39.5t106 -115t36.5 -182.5v-266h-508v145h345v117q0 90 -38.5 139t-109.5 49q-69 0 -107 -52t-38 -149v-377q0 -87 40 -135.5t113 -48.5q68 0 105.5 37.5t37.5 105.5
v7h163v-7q0 -143 -80 -221t-226 -78q-100 0 -170.5 40.5zM149 1519l100 86l153 -184l153 184l100 -86l-253 -288z" />
    <glyph glyph-name="Gbreve" unicode="&#x11e;" horiz-adv-x="904" 
d="M804 783v-424q0 -118 -41 -202t-119.5 -128t-188.5 -44q-112 0 -192 41.5t-121.5 120.5t-41.5 190v759q0 118 41 201.5t119.5 127.5t188.5 44q108 0 185 -42.5t117.5 -124t40.5 -195.5v-71h-179v71q0 64 -19 109t-55.5 68t-89.5 23q-57 0 -98 -24.5t-62.5 -72
t-21.5 -114.5v-759q0 -60 22.5 -102.5t64.5 -65t101 -22.5q58 0 98.5 24.5t62 71t21.5 112.5v271h-187v157h354zM722 1862q0 -144 -69 -224t-194 -80h-8q-125 0 -194 80t-69 224l148 -1q0 -81 30 -126t85 -45h8q55 0 85.5 45t30.5 126z" />
    <glyph glyph-name="gbreve" unicode="&#x11f;" horiz-adv-x="824" 
d="M174 -343.5q-79 78.5 -79 219.5v13h167v-13q0 -70 37.5 -108.5t105.5 -38.5t105.5 37t37.5 105v1167h166v-1167q0 -93 -37 -158.5t-108 -100t-171 -34.5q-145 0 -224 78.5zM202.5 18.5q-54.5 36.5 -83.5 106.5t-29 168v441q0 102 29 174.5t83.5 110t131.5 37.5
q74 0 135.5 -48t99.5 -135l-21 -142q0 56 -17 95.5t-50 60.5t-79 21q-69 0 -107 -47t-38 -131v-436q0 -77 38 -120t107 -43q46 0 79 20t50 58.5t17 92.5l14 -139q-29 -86 -88.5 -133.5t-139.5 -47.5q-77 0 -131.5 36.5zM226.5 1306.5q-62.5 65.5 -62.5 184.5v70h142v-72
q0 -55 25.5 -85.5t70.5 -30.5h18q46 0 71 30.5t25 85.5v72h142v-70q0 -119 -62.5 -184.5t-175.5 -65.5h-18q-113 0 -175.5 65.5z" />
    <glyph glyph-name="Gdotaccent" unicode="&#x120;" horiz-adv-x="904" 
d="M804 783v-424q0 -118 -41 -202t-119.5 -128t-188.5 -44q-112 0 -192 41.5t-121.5 120.5t-41.5 190v759q0 118 41 201.5t119.5 127.5t188.5 44q108 0 185 -42.5t117.5 -124t40.5 -195.5v-71h-179v71q0 64 -19 109t-55.5 68t-89.5 23q-57 0 -98 -24.5t-62.5 -72
t-21.5 -114.5v-759q0 -60 22.5 -102.5t64.5 -65t101 -22.5q58 0 98.5 24.5t62 71t21.5 112.5v271h-187v157h354zM372 1739h167v-167h-167v167z" />
    <glyph glyph-name="gdotaccent" unicode="&#x121;" horiz-adv-x="824" 
d="M174 -343.5q-79 78.5 -79 219.5v13h167v-13q0 -70 37.5 -108.5t105.5 -38.5t105.5 37t37.5 105v1167h166v-1167q0 -93 -37 -158.5t-108 -100t-171 -34.5q-145 0 -224 78.5zM202.5 18.5q-54.5 36.5 -83.5 106.5t-29 168v441q0 102 29 174.5t83.5 110t131.5 37.5
q74 0 135.5 -48t99.5 -135l-21 -142q0 56 -17 95.5t-50 60.5t-79 21q-69 0 -107 -47t-38 -131v-436q0 -77 38 -120t107 -43q46 0 79 20t50 58.5t17 92.5l14 -139q-29 -86 -88.5 -133.5t-139.5 -47.5q-77 0 -131.5 36.5zM328 1418h167v-167h-167v167z" />
    <glyph glyph-name="uni0122" unicode="&#x122;" horiz-adv-x="904" 
d="M804 783v-424q0 -118 -41 -202t-119.5 -128t-188.5 -44q-112 0 -192 41.5t-121.5 120.5t-41.5 190v759q0 118 41 201.5t119.5 127.5t188.5 44q108 0 185 -42.5t117.5 -124t40.5 -195.5v-71h-179v71q0 64 -19 109t-55.5 68t-89.5 23q-57 0 -98 -24.5t-62.5 -72
t-21.5 -114.5v-759q0 -60 22.5 -102.5t64.5 -65t101 -22.5q58 0 98.5 24.5t62 71t21.5 112.5v271h-187v157h354zM372 -183h167v-134l-167 -177v311z" />
    <glyph glyph-name="uni0123" unicode="&#x123;" horiz-adv-x="824" 
d="M333 1370l167 177v-296h-167v119zM174 -343.5q-79 78.5 -79 219.5v13h167v-13q0 -70 37.5 -108.5t105.5 -38.5t105.5 37t37.5 105v1167h166v-1167q0 -93 -37 -158.5t-108 -100t-171 -34.5q-145 0 -224 78.5zM202.5 18.5q-54.5 36.5 -83.5 106.5t-29 168v441
q0 102 29 174.5t83.5 110t131.5 37.5q74 0 135.5 -48t99.5 -135l-21 -142q0 56 -17 95.5t-50 60.5t-79 21q-69 0 -107 -47t-38 -131v-436q0 -77 38 -120t107 -43q46 0 79 20t50 58.5t17 92.5l14 -139q-29 -86 -88.5 -133.5t-139.5 -47.5q-77 0 -131.5 36.5z" />
    <glyph glyph-name="Hbar" unicode="&#x126;" horiz-adv-x="910" 
d="M50 1196h810v-157h-810v157zM623 1454h167v-1454h-167v1454zM120 1454h168v-1454h-168v1454zM247 795h447v-157h-447v157z" />
    <glyph glyph-name="hbar" unicode="&#x127;" horiz-adv-x="857" 
d="M530 1347v-156h-530v156h530zM113 1454h167v-1454h-167v1454zM580 727q0 87 -37 130.5t-113 43.5q-75 0 -112.5 -46.5t-37.5 -139.5l-21 158q36 92 97.5 137.5t145.5 45.5q121 0 183 -76t62 -225v-755h-167v727z" />
    <glyph glyph-name="Imacron" unicode="&#x12a;" horiz-adv-x="386" 
d="M277 0h-167v1454h167v-1454zM458 1736v-162h-530v162h530z" />
    <glyph glyph-name="imacron" unicode="&#x12b;" horiz-adv-x="406" 
d="M120 1038h167v-1038h-167v1038zM468 1412v-161h-530v161h530z" />
    <glyph glyph-name="Iogonek" unicode="&#x12e;" horiz-adv-x="386" 
d="M66.5 -356q-77.5 64 -77.5 193q0 136 70 203t212 67v-107q-131 0 -131 -144q0 -140 160 -140h47v-136h-47q-156 0 -233.5 64zM277 0h-167v1454h167v-1454z" />
    <glyph glyph-name="iogonek" unicode="&#x12f;" horiz-adv-x="406" 
d="M120 1038h167v-1038h-167v1038zM120 1418h167v-167h-167v167zM39.5 -373.5q-59.5 46.5 -59.5 150.5q0 84 59.5 149t177.5 116l70 -42q-81 -48 -118.5 -95t-37.5 -104q0 -42 24 -61t76 -19h56v-141h-56q-132 0 -191.5 46.5z" />
    <glyph glyph-name="Idotaccent" unicode="&#x130;" horiz-adv-x="386" 
d="M277 0h-167v1454h167v-1454zM110 1739h167v-167h-167v167z" />
    <glyph glyph-name="dotlessi" unicode="&#x131;" horiz-adv-x="406" 
d="M120 1038h167v-1038h-167v1038z" />
    <glyph glyph-name="uni0136" unicode="&#x136;" horiz-adv-x="874" 
d="M235 626l419 828h184l-606 -1132zM100 1454h167v-1454h-167v1454zM414 777l110 149l360 -926h-193zM377 -183h167v-134l-167 -177v311z" />
    <glyph glyph-name="uni0137" unicode="&#x137;" horiz-adv-x="823" 
d="M200 351l433 687h179l-605 -897zM110 1454h167v-1454h-167v1454zM415 545l96 140l342 -685h-185zM379 -183h167v-134l-167 -177v311z" />
    <glyph glyph-name="Lacute" unicode="&#x139;" horiz-adv-x="754" 
d="M100 1454h167v-1454h-167v1454zM202 157h502v-157h-502v157zM104 1643l250 256l127 -122l-272 -233z" />
    <glyph glyph-name="lacute" unicode="&#x13a;" horiz-adv-x="473" 
d="M277 274q0 -55 24.5 -86t70.5 -31h61v-157h-80q-116 0 -179.5 72t-63.5 203v1179h167v-1180zM114 1643l250 256l127 -122l-272 -233z" />
    <glyph glyph-name="uni013B" unicode="&#x13b;" horiz-adv-x="754" 
d="M100 1454h167v-1454h-167v1454zM202 157h502v-157h-502v157zM261 -183h167v-134l-167 -177v311z" />
    <glyph glyph-name="uni013C" unicode="&#x13c;" horiz-adv-x="473" 
d="M277 274q0 -55 24.5 -86t70.5 -31h61v-157h-80q-116 0 -179.5 72t-63.5 203v1179h167v-1180zM162 -183h167v-134l-167 -177v311z" />
    <glyph glyph-name="Lcaron" unicode="&#x13d;" horiz-adv-x="754" 
d="M100 1454h167v-1454h-167v1454zM202 157h502v-157h-502v157zM535 1453h152v-166l-152 -130v296z" />
    <glyph glyph-name="lcaron" unicode="&#x13e;" horiz-adv-x="632" 
d="M277 274q0 -55 24.5 -86t70.5 -31h61v-157h-80q-116 0 -179.5 72t-63.5 203v1179h167v-1180zM435 1470h152v-166l-152 -130v296z" />
    <glyph glyph-name="Lslash" unicode="&#x141;" horiz-adv-x="794" 
d="M40 702l529 265v-167l-529 -265v167zM140 1454h167v-1454h-167v1454zM242 157h502v-157h-502v157z" />
    <glyph glyph-name="lslash" unicode="&#x142;" horiz-adv-x="473" 
d="M0 702l433 220v-167l-433 -220v167zM277 274q0 -55 24.5 -86t70.5 -31h61v-157h-80q-116 0 -179.5 72t-63.5 203v1179h167v-1180z" />
    <glyph glyph-name="Nacute" unicode="&#x143;" horiz-adv-x="914" 
d="M100 1454h151l429 -1154l-27 -26v1180h161v-1453h-152l-428 1137l28 26v-1163h-162v1453zM373 1643l250 256l127 -122l-272 -233z" />
    <glyph glyph-name="nacute" unicode="&#x144;" horiz-adv-x="854" 
d="M110 1038h167v-1038h-167v1038zM577 727q0 87 -37 130.5t-113 43.5q-75 0 -112.5 -46.5t-37.5 -140.5l-21 149q36 97 97.5 145t145.5 48q121 0 183 -76t62 -225v-755h-167v727zM328 1304l246 355l132 -97l-265 -336z" />
    <glyph glyph-name="uni0145" unicode="&#x145;" horiz-adv-x="914" 
d="M100 1454h151l429 -1154l-27 -26v1180h161v-1453h-152l-428 1137l28 26v-1163h-162v1453zM389 -183h167v-134l-167 -177v311z" />
    <glyph glyph-name="uni0146" unicode="&#x146;" horiz-adv-x="854" 
d="M110 1038h167v-1038h-167v1038zM577 727q0 87 -37 130.5t-113 43.5q-75 0 -112.5 -46.5t-37.5 -140.5l-21 149q36 97 97.5 145t145.5 48q121 0 183 -76t62 -225v-755h-167v727zM339 -183h167v-134l-167 -177v311z" />
    <glyph glyph-name="Ncaron" unicode="&#x147;" horiz-adv-x="914" 
d="M100 1454h151l429 -1154l-27 -26v1180h161v-1453h-152l-428 1137l28 26v-1163h-162v1453zM196 1784l93 96l183 -148l182 148l93 -96l-275 -232z" />
    <glyph glyph-name="ncaron" unicode="&#x148;" horiz-adv-x="854" 
d="M110 1038h167v-1038h-167v1038zM577 727q0 87 -37 130.5t-113 43.5q-75 0 -112.5 -46.5t-37.5 -140.5l-21 149q36 97 97.5 145t145.5 48q121 0 183 -76t62 -225v-755h-167v727zM170 1519l100 86l153 -184l153 184l100 -86l-253 -288z" />
    <glyph glyph-name="Eng" unicode="&#x14a;" horiz-adv-x="914" 
d="M100 1454h151l429 -1154l-27 -26v1180h161v-1453h-152l-428 1137l28 26v-1163h-162v1453zM487 -211h63q47 0 72 30.5t25 86.5v366h167v-365q0 -132 -63.5 -203.5t-179.5 -71.5h-84v157z" />
    <glyph glyph-name="eng" unicode="&#x14b;" horiz-adv-x="854" 
d="M427 -265h53q47 0 72 31t25 86v286h167v-285q0 -131 -63.5 -203t-179.5 -72h-74v157zM110 1038h167v-1038h-167v1038zM577 727q0 87 -37 130.5t-113 43.5q-75 0 -112.5 -46.5t-37.5 -140.5l-21 149q36 97 97.5 145t145.5 48q121 0 183 -76t62 -225v-755h-167v727z" />
    <glyph glyph-name="Omacron" unicode="&#x14c;" horiz-adv-x="922" 
d="M266 28q-81 43 -123.5 125t-42.5 198v753q0 116 42.5 198t123.5 124.5t195 42.5t195 -42.5t123.5 -124.5t42.5 -198v-753q0 -116 -42.5 -198t-123.5 -125t-195 -43t-195 43zM566.5 171q43.5 23 66 67t22.5 106v766q0 62 -22.5 106t-66 67t-105.5 23q-61 0 -104.5 -23
t-66.5 -67t-23 -106v-766q0 -62 23 -106t66.5 -67t104.5 -23q62 0 105.5 23zM726 1736v-162h-530v162h530z" />
    <glyph glyph-name="omacron" unicode="&#x14d;" horiz-adv-x="776" 
d="M228 20.5q-67 35.5 -102.5 103.5t-35.5 163v473q0 94 35.5 160.5t102.5 101t161 34.5t161 -34.5t101.5 -101t34.5 -160.5v-476q0 -94 -34.5 -161.5t-101.5 -102.5t-161 -35t-161 35.5zM484.5 182q34.5 37 34.5 106v468q0 66 -34.5 103.5t-96.5 37.5t-96.5 -37.5
t-34.5 -103.5v-468q0 -68 34.5 -105.5t96.5 -37.5t96.5 37zM653 1412v-161h-530v161h530z" />
    <glyph glyph-name="Ohungarumlaut" unicode="&#x150;" horiz-adv-x="922" 
d="M266 28q-81 43 -123.5 125t-42.5 198v753q0 116 42.5 198t123.5 124.5t195 42.5t195 -42.5t123.5 -124.5t42.5 -198v-753q0 -116 -42.5 -198t-123.5 -125t-195 -43t-195 43zM566.5 171q43.5 23 66 67t22.5 106v766q0 62 -22.5 106t-66 67t-105.5 23q-61 0 -104.5 -23
t-66.5 -67t-23 -106v-766q0 -62 23 -106t66.5 -67t104.5 -23q62 0 105.5 23zM483 1630l195 278l130 -109l-217 -255zM183 1630l195 278l130 -109l-217 -255z" />
    <glyph glyph-name="ohungarumlaut" unicode="&#x151;" horiz-adv-x="776" 
d="M228 20.5q-67 35.5 -102.5 103.5t-35.5 163v473q0 94 35.5 160.5t102.5 101t161 34.5t161 -34.5t101.5 -101t34.5 -160.5v-476q0 -94 -34.5 -161.5t-101.5 -102.5t-161 -35t-161 35.5zM484.5 182q34.5 37 34.5 106v468q0 66 -34.5 103.5t-96.5 37.5t-96.5 -37.5
t-34.5 -103.5v-468q0 -68 34.5 -105.5t96.5 -37.5t96.5 37zM440 1283l196 355l139 -89l-215 -336zM119 1283l196 355l140 -89l-215 -336z" />
    <glyph glyph-name="OE" unicode="&#x152;" horiz-adv-x="1208" 
d="M243 28q-70 43 -106.5 125t-36.5 198v752q0 116 36.5 198t106.5 125t168 43q83 0 141.5 -43t89 -125t30.5 -198v-751q0 -116 -30.5 -198.5t-89 -125.5t-141.5 -43q-98 0 -168 43zM544 170q34 24 51.5 68.5t17.5 107.5v763q0 62 -18 107t-51.5 69t-81.5 24
q-62 0 -105.5 -24t-66.5 -69t-23 -107v-763q0 -63 23 -107.5t66.5 -68.5t105.5 -24q48 0 82 24zM534 1454h167v-1454h-167v1454zM633 157h525v-157h-525v157zM633 801h475v-157h-475v157zM633 1454h525v-157h-525v157z" />
    <glyph glyph-name="oe" unicode="&#x153;" horiz-adv-x="1173" 
d="M215 20.5q-61 35.5 -93 103.5t-32 163v473q0 94 32 160.5t93 101t147 34.5q80 0 137.5 -34.5t87.5 -101t30 -160.5v-476q0 -94 -30 -161.5t-87.5 -102.5t-137.5 -35q-86 0 -147 35.5zM462.5 178.5q31.5 37.5 31.5 105.5v476q0 66 -31.5 103t-88.5 37q-55 0 -86 -37
t-31 -103v-476q0 -68 31 -105.5t86 -37.5q57 0 88.5 37.5zM652.5 25.5q-60.5 40.5 -92 118t-31.5 186.5v361q0 116 32 198t93.5 124.5t147.5 42.5q88 0 150.5 -39.5t95 -115.5t32.5 -182v-266h-498v144h339v118q0 85 -34.5 131.5t-97.5 46.5q-69 0 -106.5 -49.5
t-37.5 -141.5v-377q0 -82 38.5 -128t106.5 -46q65 0 101 37.5t36 105.5v7h156v-7q0 -147 -74.5 -228t-210.5 -81q-85 0 -145.5 40.5z" />
    <glyph glyph-name="Racute" unicode="&#x154;" horiz-adv-x="925" 
d="M189 772h269q58 0 99.5 21.5t63 63t21.5 99.5v149q0 61 -21.5 104.5t-63 66t-99.5 22.5h-269v157h255q115 0 197 -38.5t125 -113t43 -178.5v-170q0 -107 -43 -183.5t-125 -116.5t-197 -40h-255v157zM100 1455h167v-1455h-167v1455zM465 660l153 46l232 -706h-187z
M329 1643l250 256l127 -122l-272 -233z" />
    <glyph glyph-name="racute" unicode="&#x155;" horiz-adv-x="640" 
d="M110 1038h167v-1038h-167v1038zM576 894h-12q-131 0 -206.5 -63t-80.5 -175l-21 201q55 94 140.5 146.5t188.5 52.5v0v0v-162h-9zM253 1304l246 355l132 -97l-265 -336z" />
    <glyph glyph-name="uni0156" unicode="&#x156;" horiz-adv-x="925" 
d="M189 772h269q58 0 99.5 21.5t63 63t21.5 99.5v149q0 61 -21.5 104.5t-63 66t-99.5 22.5h-269v157h255q115 0 197 -38.5t125 -113t43 -178.5v-170q0 -107 -43 -183.5t-125 -116.5t-197 -40h-255v157zM100 1455h167v-1455h-167v1455zM465 660l153 46l232 -706h-187z
M346 -183h167v-134l-167 -177v311z" />
    <glyph glyph-name="uni0157" unicode="&#x157;" horiz-adv-x="640" 
d="M110 1038h167v-1038h-167v1038zM576 894h-12q-131 0 -206.5 -63t-80.5 -175l-21 201q55 94 140.5 146.5t188.5 52.5v0v0v-162h-9zM130 -183h167v-134l-167 -177v311z" />
    <glyph glyph-name="Rcaron" unicode="&#x158;" horiz-adv-x="925" 
d="M189 772h269q58 0 99.5 21.5t63 63t21.5 99.5v149q0 61 -21.5 104.5t-63 66t-99.5 22.5h-269v157h255q115 0 197 -38.5t125 -113t43 -178.5v-170q0 -107 -43 -183.5t-125 -116.5t-197 -40h-255v157zM100 1455h167v-1455h-167v1455zM465 660l153 46l232 -706h-187z
M152 1784l93 96l183 -148l182 148l93 -96l-275 -232z" />
    <glyph glyph-name="rcaron" unicode="&#x159;" horiz-adv-x="640" 
d="M110 1038h167v-1038h-167v1038zM576 894h-12q-131 0 -206.5 -63t-80.5 -175l-21 201q55 94 140.5 146.5t188.5 52.5v0v0v-162h-9zM95 1519l100 86l153 -184l153 184l100 -86l-253 -288z" />
    <glyph glyph-name="Sacute" unicode="&#x15a;" horiz-adv-x="883" 
d="M249 23.5q-79 38.5 -119 115t-40 188.5v72h166v-69q0 -92 47.5 -139t140.5 -47q91 0 137 47t46 139v107q0 61 -28.5 104.5t-72 72t-116.5 62.5q-2 1 -4.5 2t-4.5 2l-14 7q-95 45 -154 85t-100.5 109.5t-41.5 173.5v78q0 110 40 185t118.5 113t193.5 38q112 0 188.5 -38.5
t115 -114.5t38.5 -187v-76h-166v72q0 92 -44.5 139t-131.5 47q-92 0 -139 -45t-47 -131v-81q0 -61 29.5 -103.5t73.5 -69t120 -62.5q8 -3 14.5 -6.5t14.5 -6.5q4 -2 8.5 -4t8.5 -4q85 -40 139.5 -79.5t91 -107.5t36.5 -172v-112q0 -112 -39.5 -188t-117 -115t-192.5 -39
q-116 0 -195 38.5zM344 1643l250 256l127 -122l-272 -233z" />
    <glyph glyph-name="sacute" unicode="&#x15b;" horiz-adv-x="738" 
d="M203 21q-70 36 -106.5 106t-36.5 169v4h161v-4q0 -80 39 -122.5t114 -42.5t114.5 40.5t39.5 117.5q0 43 -19.5 71.5t-50.5 45.5t-82 35q-6 1 -11.5 3t-11.5 4q-4 1 -8 2.5t-8 2.5q-82 27 -135.5 56.5t-91 88.5t-37.5 156t34 164.5t99.5 102.5t159.5 35q95 0 160.5 -33.5
t99 -98.5t33.5 -158v-3h-160v4q0 70 -34 106.5t-99 36.5t-98.5 -39t-33.5 -113q0 -48 21.5 -78.5t56.5 -48t89 -33.5q2 -1 5.5 -1.5t5.5 -1.5t4 -1.5t4 -0.5q85 -26 139 -53.5t91.5 -87.5t37.5 -163q0 -98 -36 -166t-106.5 -103t-171.5 -35t-171 36zM268 1304l246 355
l132 -97l-265 -336z" />
    <glyph glyph-name="Scedilla" unicode="&#x15e;" horiz-adv-x="883" 
d="M249 23.5q-79 38.5 -119 115t-40 188.5v72h166v-69q0 -92 47.5 -139t140.5 -47q91 0 137 47t46 139v107q0 61 -28.5 104.5t-72 72t-116.5 62.5q-2 1 -4.5 2t-4.5 2l-14 7q-95 45 -154 85t-100.5 109.5t-41.5 173.5v78q0 110 40 185t118.5 113t193.5 38q112 0 188.5 -38.5
t115 -114.5t38.5 -187v-76h-166v72q0 92 -44.5 139t-131.5 47q-92 0 -139 -45t-47 -131v-81q0 -61 29.5 -103.5t73.5 -69t120 -62.5q8 -3 14.5 -6.5t14.5 -6.5q4 -2 8.5 -4t8.5 -4q85 -40 139.5 -79.5t91 -107.5t36.5 -172v-112q0 -112 -39.5 -188t-117 -115t-192.5 -39
q-116 0 -195 38.5zM296 -404l34 116q53 -14 105 -14q46 0 70.5 16t24.5 47t-35 46t-103 15l71 97q105 0 160 -43.5t55 -126.5t-59 -127t-171 -44q-85 0 -152 18zM510 61v-240l-134 1v239h134z" />
    <glyph glyph-name="scedilla" unicode="&#x15f;" horiz-adv-x="738" 
d="M203 21q-70 36 -106.5 106t-36.5 169v4h161v-4q0 -80 39 -122.5t114 -42.5t114.5 40.5t39.5 117.5q0 43 -19.5 71.5t-50.5 45.5t-82 35q-6 1 -11.5 3t-11.5 4q-4 1 -8 2.5t-8 2.5q-82 27 -135.5 56.5t-91 88.5t-37.5 156t34 164.5t99.5 102.5t159.5 35q95 0 160.5 -33.5
t99 -98.5t33.5 -158v-3h-160v4q0 70 -34 106.5t-99 36.5t-98.5 -39t-33.5 -113q0 -48 21.5 -78.5t56.5 -48t89 -33.5q2 -1 5.5 -1.5t5.5 -1.5t4 -1.5t4 -0.5q85 -26 139 -53.5t91.5 -87.5t37.5 -163q0 -98 -36 -166t-106.5 -103t-171.5 -35t-171 36zM203 -411l34 116
q58 -14 115 -14q37 0 56.5 16t19.5 47t-30 46t-89 15l71 97q96 0 146 -43.5t50 -126.5t-54 -127t-157 -44q-95 0 -162 18zM293 84h134v-269h-134v269z" />
    <glyph glyph-name="Scaron" unicode="&#x160;" horiz-adv-x="883" 
d="M249 23.5q-79 38.5 -119 115t-40 188.5v72h166v-69q0 -92 47.5 -139t140.5 -47q91 0 137 47t46 139v107q0 61 -28.5 104.5t-72 72t-116.5 62.5q-2 1 -4.5 2t-4.5 2l-14 7q-95 45 -154 85t-100.5 109.5t-41.5 173.5v78q0 110 40 185t118.5 113t193.5 38q112 0 188.5 -38.5
t115 -114.5t38.5 -187v-76h-166v72q0 92 -44.5 139t-131.5 47q-92 0 -139 -45t-47 -131v-81q0 -61 29.5 -103.5t73.5 -69t120 -62.5q8 -3 14.5 -6.5t14.5 -6.5q4 -2 8.5 -4t8.5 -4q85 -40 139.5 -79.5t91 -107.5t36.5 -172v-112q0 -112 -39.5 -188t-117 -115t-192.5 -39
q-116 0 -195 38.5zM167 1784l93 96l183 -148l182 148l93 -96l-275 -232z" />
    <glyph glyph-name="scaron" unicode="&#x161;" horiz-adv-x="738" 
d="M203 21q-70 36 -106.5 106t-36.5 169v4h161v-4q0 -80 39 -122.5t114 -42.5t114.5 40.5t39.5 117.5q0 43 -19.5 71.5t-50.5 45.5t-82 35q-6 1 -11.5 3t-11.5 4q-4 1 -8 2.5t-8 2.5q-82 27 -135.5 56.5t-91 88.5t-37.5 156t34 164.5t99.5 102.5t159.5 35q95 0 160.5 -33.5
t99 -98.5t33.5 -158v-3h-160v4q0 70 -34 106.5t-99 36.5t-98.5 -39t-33.5 -113q0 -48 21.5 -78.5t56.5 -48t89 -33.5q2 -1 5.5 -1.5t5.5 -1.5t4 -1.5t4 -0.5q85 -26 139 -53.5t91.5 -87.5t37.5 -163q0 -98 -36 -166t-106.5 -103t-171.5 -35t-171 36zM110 1519l100 86
l153 -184l153 184l100 -86l-253 -288z" />
    <glyph glyph-name="uni0162" unicode="&#x162;" horiz-adv-x="706" 
d="M270 1335h167v-1335h-167v1335zM0 1454h706v-157h-706v157zM206 -404l34 116q53 -14 105 -14q46 0 70.5 16t24.5 47t-35 46t-103 15l71 97q105 0 160 -43.5t55 -126.5t-59 -127t-171 -44q-85 0 -152 18zM420 61v-240l-134 1v239h134z" />
    <glyph glyph-name="uni0163" unicode="&#x163;" horiz-adv-x="538" 
d="M195.5 64.5q-58.5 69.5 -58.5 205.5v1070h167v-1071q0 -56 24.5 -86.5t72.5 -30.5h77v-157h-98q-126 0 -184.5 69.5zM30 1038h448v-157h-448v157zM122 -404l34 116q58 -14 115 -14q37 0 56.5 16t19.5 47t-30 46t-89 15l71 97q96 0 146 -43.5t50 -126.5t-54 -127t-157 -44
q-95 0 -162 18zM212 91h134v-269h-134v269z" />
    <glyph glyph-name="Tcaron" unicode="&#x164;" horiz-adv-x="706" 
d="M270 1335h167v-1335h-167v1335zM0 1454h706v-157h-706v157zM77 1784l93 96l183 -148l182 148l93 -96l-275 -232z" />
    <glyph glyph-name="tcaron" unicode="&#x165;" horiz-adv-x="618" 
d="M195.5 64.5q-58.5 69.5 -58.5 205.5v1070h167v-1071q0 -56 24.5 -86.5t72.5 -30.5h77v-157h-98q-126 0 -184.5 69.5zM30 1038h448v-157h-448v157zM376 1554h152v-166l-152 -130v296z" />
    <glyph glyph-name="Umacron" unicode="&#x16a;" horiz-adv-x="842" 
d="M238.5 23.5q-73.5 38.5 -111 115t-37.5 188.5v1127h167v-1135q0 -84 41.5 -127.5t121.5 -43.5q82 0 123.5 43.5t41.5 127.5v1135h167v-1127q0 -112 -37.5 -188t-111.5 -115t-183 -39q-108 0 -181.5 38.5zM685 1736v-162h-530v162h530z" />
    <glyph glyph-name="umacron" unicode="&#x16b;" horiz-adv-x="834" 
d="M558 1038h166v-1038h-166v1038zM277 281q0 -66 36.5 -101t104.5 -35q70 0 105 35t35 105l14 -132q-30 -84 -84 -126t-135 -42q-118 0 -180.5 75.5t-62.5 216.5v761h167v-757zM680 1412v-161h-530v161h530z" />
    <glyph glyph-name="Ubreve" unicode="&#x16c;" horiz-adv-x="842" 
d="M238.5 23.5q-73.5 38.5 -111 115t-37.5 188.5v1127h167v-1135q0 -84 41.5 -127.5t121.5 -43.5q82 0 123.5 43.5t41.5 127.5v1135h167v-1127q0 -112 -37.5 -188t-111.5 -115t-183 -39q-108 0 -181.5 38.5zM687 1862q0 -144 -69 -224t-194 -80h-8q-125 0 -194 80t-69 224
l148 -1q0 -81 30 -126t85 -45h8q55 0 85.5 45t30.5 126z" />
    <glyph glyph-name="ubreve" unicode="&#x16d;" horiz-adv-x="834" 
d="M558 1038h166v-1038h-166v1038zM277 281q0 -66 36.5 -101t104.5 -35q70 0 105 35t35 105l14 -132q-30 -84 -84 -126t-135 -42q-118 0 -180.5 75.5t-62.5 216.5v761h167v-757zM230.5 1306.5q-62.5 65.5 -62.5 184.5v70h142v-72q0 -55 25.5 -85.5t70.5 -30.5h18
q46 0 71 30.5t25 85.5v72h142v-70q0 -119 -62.5 -184.5t-175.5 -65.5h-18q-113 0 -175.5 65.5z" />
    <glyph glyph-name="Uring" unicode="&#x16e;" horiz-adv-x="842" 
d="M238.5 23.5q-73.5 38.5 -111 115t-37.5 188.5v1127h167v-1135q0 -84 41.5 -127.5t121.5 -43.5q82 0 123.5 43.5t41.5 127.5v1135h167v-1127q0 -112 -37.5 -188t-111.5 -115t-183 -39q-108 0 -181.5 38.5zM254 1602.5q-59 60.5 -59 170.5q0 115 59 178t166 63t166 -63
t59 -178q0 -110 -59 -170.5t-166 -60.5t-166 60.5zM497.5 1683.5q27.5 33.5 27.5 93.5q0 62 -27.5 96t-77.5 34t-77.5 -34t-27.5 -96q0 -60 27.5 -93.5t77.5 -33.5t77.5 33.5z" />
    <glyph glyph-name="uring" unicode="&#x16f;" horiz-adv-x="834" 
d="M558 1038h166v-1038h-166v1038zM277 281q0 -66 36.5 -101t104.5 -35q70 0 105 35t35 105l14 -132q-30 -84 -84 -126t-135 -42q-118 0 -180.5 75.5t-62.5 216.5v761h167v-757zM255 1290.5q-55 59.5 -55 172.5q0 117 55 179t160 62t160.5 -62t55.5 -179
q0 -113 -55.5 -172.5t-160.5 -59.5t-160 59.5zM484.5 1373.5q24.5 32.5 24.5 93.5q0 62 -24.5 95t-69.5 33t-69 -33t-24 -95q0 -61 24 -93.5t69 -32.5t69.5 32.5z" />
    <glyph glyph-name="Uhungarumlaut" unicode="&#x170;" horiz-adv-x="842" 
d="M238.5 23.5q-73.5 38.5 -111 115t-37.5 188.5v1127h167v-1135q0 -84 41.5 -127.5t121.5 -43.5q82 0 123.5 43.5t41.5 127.5v1135h167v-1127q0 -112 -37.5 -188t-111.5 -115t-183 -39q-108 0 -181.5 38.5zM442 1630l195 278l130 -109l-217 -255zM142 1630l195 278
l130 -109l-217 -255z" />
    <glyph glyph-name="uhungarumlaut" unicode="&#x171;" horiz-adv-x="834" 
d="M558 1038h166v-1038h-166v1038zM277 281q0 -66 36.5 -101t104.5 -35q70 0 105 35t35 105l14 -132q-30 -84 -84 -126t-135 -42q-118 0 -180.5 75.5t-62.5 216.5v761h167v-757zM467 1283l196 355l139 -89l-215 -336zM146 1283l196 355l140 -89l-215 -336z" />
    <glyph glyph-name="Uogonek" unicode="&#x172;" horiz-adv-x="842" 
d="M333 -356q-76 64 -76 193q0 126 67.5 188t204.5 62v-87q-121 0 -121 -144q0 -140 155 -140h39v-136h-39q-154 0 -230 64zM238.5 23.5q-73.5 38.5 -111 115t-37.5 188.5v1127h167v-1135q0 -84 41.5 -127.5t121.5 -43.5q82 0 123.5 43.5t41.5 127.5v1135h167v-1127
q0 -112 -37.5 -188t-111.5 -115t-183 -39q-108 0 -181.5 38.5z" />
    <glyph glyph-name="uogonek" unicode="&#x173;" horiz-adv-x="834" 
d="M558 1038h166v-1038h-166v1038zM277 281q0 -66 36.5 -101t104.5 -35q70 0 105 35t35 105l14 -132q-30 -84 -84 -126t-135 -42q-118 0 -180.5 75.5t-62.5 216.5v761h167v-757zM476.5 -373.5q-59.5 46.5 -59.5 150.5q0 84 59.5 149t177.5 116l70 -42q-81 -48 -118.5 -95
t-37.5 -104q0 -42 24 -61t76 -19h56v-141h-56q-132 0 -191.5 46.5z" />
    <glyph glyph-name="Ydieresis" unicode="&#x178;" horiz-adv-x="720" 
d="M449 610v-610h-167v610l-302 844h170l215 -651l205 651h170zM449 1747h167v-167h-167v167zM104 1747h167v-167h-167v167z" />
    <glyph glyph-name="Zacute" unicode="&#x179;" horiz-adv-x="744" 
d="M674 1315l-417 -1158h427v-157h-604v139l422 1158h-404v157h576v-139zM288 1643l250 256l127 -122l-272 -233z" />
    <glyph glyph-name="zacute" unicode="&#x17a;" horiz-adv-x="723" 
d="M636 896l-367 -736h394v-160h-583v147l381 732h-367v159h542v-142zM284 1304l246 355l132 -97l-265 -336z" />
    <glyph glyph-name="Zdotaccent" unicode="&#x17b;" horiz-adv-x="744" 
d="M674 1315l-417 -1158h427v-157h-604v139l422 1158h-404v157h576v-139zM304 1739h167v-167h-167v167z" />
    <glyph glyph-name="zdotaccent" unicode="&#x17c;" horiz-adv-x="723" 
d="M636 896l-367 -736h394v-160h-583v147l381 732h-367v159h542v-142zM295 1418h167v-167h-167v167z" />
    <glyph glyph-name="Zcaron" unicode="&#x17d;" horiz-adv-x="744" 
d="M674 1315l-417 -1158h427v-157h-604v139l422 1158h-404v157h576v-139zM111 1784l93 96l183 -148l182 148l93 -96l-275 -232z" />
    <glyph glyph-name="zcaron" unicode="&#x17e;" horiz-adv-x="723" 
d="M636 896l-367 -736h394v-160h-583v147l381 732h-367v159h542v-142zM126 1519l100 86l153 -184l153 184l100 -86l-253 -288z" />
    <glyph glyph-name="uni0181" unicode="&#x181;" horiz-adv-x="1126" 
d="M0 1211q0 116 72 179.5t203 63.5h187v-157h-178q-55 0 -86 -25t-31 -72v-88h-167v99zM487 157h261q65 0 100.5 32.5t35.5 91.5v224q0 55 -18.5 94.5t-51.5 60t-76 20.5h-251v157h251q61 0 94 41.5t33 117.5v178q0 59 -33 91t-92 32h-253v157h249q94 0 160.5 -31.5
t101 -92t34.5 -146.5v-174q0 -69 -19 -122t-54.5 -87t-86.5 -46q57 -10 97 -45t61 -90.5t21 -129.5v-213q0 -88 -33.5 -150t-98 -94.5t-156.5 -32.5h-276v157zM367 1454h167v-1454h-167v1454z" />
    <glyph glyph-name="uni0186" unicode="&#x186;" horiz-adv-x="856" 
d="M235 29q-76 44 -115.5 127.5t-39.5 200.5v58h168v-58q0 -66 20 -113t58 -72t92 -25t92 25t58 72t20 113v739q0 67 -20 114.5t-58 72t-92 24.5t-92 -24.5t-58 -71.5t-20 -114v-57h-168v57q0 117 39.5 200.5t115.5 127.5t183 44t182.5 -44t115.5 -127.5t40 -201.5v-739
q0 -117 -40 -200.5t-116 -127.5t-182 -44q-107 0 -183 44z" />
    <glyph glyph-name="uni0189" unicode="&#x189;" horiz-adv-x="906" 
d="M222 157h309q52 0 80 31t28 88v902q0 57 -28 88t-80 31h-309v157h303q90 0 153 -33t95.5 -96t32.5 -153v-889q0 -90 -33 -153.5t-96 -96.5t-153 -33h-302v157zM122 1454h167v-1454h-167v1454zM498 802v-150h-508v150h508z" />
    <glyph glyph-name="uni018A" unicode="&#x18a;" horiz-adv-x="1151" 
d="M0 1211q0 116 72 179.5t203 63.5h187v-157h-178q-55 0 -86 -25t-31 -72v-88h-167v99zM467 157h309q52 0 80 31t28 88v902q0 57 -28 88t-80 31h-309v157h303q90 0 153 -33t95.5 -96t32.5 -153v-889q0 -90 -33 -153.5t-96 -96.5t-153 -33h-302v157zM367 1454h167v-1454
h-167v1454z" />
    <glyph glyph-name="uni018E" unicode="&#x18e;" horiz-adv-x="774" 
d="M507 0v1454h167v-1454h-167zM50 0v157h525v-157h-525zM100 644v157h475v-157h-475zM50 1297v157h525v-157h-525z" />
    <glyph glyph-name="uni018F" unicode="&#x18f;" horiz-adv-x="934" 
d="M280 29q-78 44 -119 127.5t-41 201.5v405h644v-157h-477v-251q0 -99 47.5 -153.5t133.5 -54.5t132.5 50t46.5 140v759q0 101 -46 156t-130 55q-87 0 -134.5 -52t-47.5 -148v-72h-167v72q0 173 91.5 267.5t257.5 94.5q108 0 185.5 -44t117.5 -127.5t40 -201.5v-759
q0 -111 -40.5 -190t-118 -120.5t-187.5 -41.5t-188 44z" />
    <glyph glyph-name="uni0190" unicode="&#x190;" horiz-adv-x="833" 
d="M245 22.5q-76 37.5 -115.5 110t-39.5 173.5v205q0 89 39.5 154t110.5 94q-60 46 -93 100.5t-33 107.5v204q0 94 36 161t104 102t164 35q105 0 179 -35t113 -101.5t39 -160.5v-121h-168v119q0 44 -18 75t-52.5 47.5t-82.5 16.5q-70 0 -108.5 -36.5t-38.5 -101.5v-203
q0 -63 33.5 -98t93.5 -35h132v-157h-132q-71 0 -111 -43.5t-40 -122.5v-203q0 -77 45 -120t125 -43q55 0 95 17.5t61 51t21 80.5v108h169v-120q0 -95 -40.5 -161.5t-118 -101.5t-187.5 -35q-106 0 -182 37.5z" />
    <glyph glyph-name="uni0191" unicode="&#x191;" horiz-adv-x="782" 
d="M0 -265h30q47 0 72 31t25 86v420h167v-419q0 -131 -63.5 -203t-179.5 -72h-51v157zM127 1454h167v-1454h-167v1454zM227 788h475v-157h-475v157zM227 1454h525v-157h-525v157z" />
    <glyph glyph-name="florin" unicode="&#x192;" horiz-adv-x="519" 
d="M30 -265h15q44 0 67.5 28.5t23.5 78.5v258h167v-257q0 -126 -62 -195.5t-175 -69.5h-36v157zM136 1179q0 134 66 204.5t193 70.5h114v-157h-109q-46 0 -71.5 -31t-25.5 -86v-1180h-167v1179zM30 1038h479v-152h-479v152z" />
    <glyph glyph-name="uni0194" unicode="&#x194;" horiz-adv-x="802" 
d="M243.5 -378.5q-50.5 43.5 -50.5 135.5q0 59 40 155t124 239h88q85 -144 124.5 -239.5t39.5 -154.5q0 -92 -50.5 -135.5t-157.5 -43.5t-157.5 43.5zM438.5 -264q11.5 14 11.5 43q0 24 -12 67t-37 107q-49 -138 -49 -174q0 -29 12 -43t37 -14q26 0 37.5 14zM10 1454h175
l216 -1203l216 1203h175l-293 -1454h-196z" />
    <glyph glyph-name="uni0198" unicode="&#x198;" horiz-adv-x="874" 
d="M230 612l374 743q18 38 39.5 61t48 34t61.5 11h84v-157h-37q-23 0 -40 -13t-32 -42l-497 -927zM100 1454h167v-1454h-167v1454zM414 777l110 149l360 -926h-193z" />
    <glyph glyph-name="uni0199" unicode="&#x199;" horiz-adv-x="823" 
d="M200 351l433 687h179l-605 -897zM415 545l96 140l342 -685h-185zM110 1189q0 131 64 203t180 72h50v-157h-30q-46 0 -71.5 -30.5t-25.5 -86.5v-1190h-167v1189z" />
    <glyph glyph-name="Ohorn" unicode="&#x1a0;" horiz-adv-x="982" 
d="M604 1305v134h125q137 0 137 154v33h171v-53q0 -134 -71 -201t-214 -67h-148zM266 28q-81 43 -123.5 125t-42.5 198v753q0 116 42.5 198t123.5 124.5t195 42.5t195 -42.5t123.5 -124.5t42.5 -198v-753q0 -116 -42.5 -198t-123.5 -125t-195 -43t-195 43zM566.5 171
q43.5 23 66 67t22.5 106v766q0 62 -22.5 106t-66 67t-105.5 23q-61 0 -104.5 -23t-66.5 -67t-23 -106v-766q0 -62 23 -106t66.5 -67t104.5 -23q62 0 105.5 23z" />
    <glyph glyph-name="ohorn" unicode="&#x1a1;" horiz-adv-x="841" 
d="M468 1038h115q65 0 101 36.5t36 102.5v74h171v-94q0 -115 -74.5 -179t-210.5 -64h-138v124zM228 20.5q-67 35.5 -102.5 103.5t-35.5 163v473q0 94 35.5 160.5t102.5 101t161 34.5t161 -34.5t101.5 -101t34.5 -160.5v-476q0 -94 -34.5 -161.5t-101.5 -102.5t-161 -35
t-161 35.5zM484.5 182q34.5 37 34.5 106v468q0 66 -34.5 103.5t-96.5 37.5t-96.5 -37.5t-34.5 -103.5v-468q0 -68 34.5 -105.5t96.5 -37.5t96.5 37z" />
    <glyph glyph-name="Uhorn" unicode="&#x1af;" horiz-adv-x="969" 
d="M238.5 23.5q-73.5 38.5 -111 115t-37.5 188.5v1127h167v-1135q0 -84 41.5 -127.5t121.5 -43.5q82 0 123.5 43.5t41.5 127.5v1135h167v-1127q0 -112 -37.5 -188t-111.5 -115t-183 -39q-108 0 -181.5 38.5zM596 1330v124h125q65 0 101 36.5t36 102.5v73h171v-93
q0 -115 -74.5 -179t-210.5 -64h-148z" />
    <glyph glyph-name="uhorn" unicode="&#x1b0;" horiz-adv-x="951" 
d="M558 1038h166v-1038h-166v1038zM277 281q0 -66 36.5 -101t104.5 -35q70 0 105 35t35 105l14 -132q-30 -84 -84 -126t-135 -42q-118 0 -180.5 75.5t-62.5 216.5v761h167v-757zM568 914v124h125q65 0 101 36.5t36 102.5v74h171v-94q0 -115 -74.5 -179t-210.5 -64h-148z" />
    <glyph glyph-name="uni01B2" unicode="&#x1b2;" horiz-adv-x="842" 
d="M238.5 23.5q-73.5 38.5 -111 115t-37.5 188.5v1127h167v-1135q0 -84 41.5 -127.5t121.5 -43.5q82 0 123.5 43.5t41.5 127.5v790h167v-782q0 -112 -37.5 -188t-111.5 -115t-183 -39q-108 0 -181.5 38.5zM585 1180q0 56 -25 86.5t-72 30.5h-53v157h74q116 0 179.5 -72
t63.5 -203v-215h-167v216z" />
    <glyph glyph-name="uni01B3" unicode="&#x1b3;" horiz-adv-x="746" 
d="M282 610l-302 844h170l236 -715l63 -51v-688h-167v610zM323 667l194 619q5 15 15 43q17 47 38 75t53 42.5t80 14.5h78v-157h-36q-33 0 -50 -16.5t-31 -54.5l-255 -738z" />
    <glyph glyph-name="uni01B4" unicode="&#x1b4;" horiz-adv-x="857" 
d="M104 -275h20q77 0 119.5 35t60.5 106l243 1030q18 79 64.5 118t125.5 39h100v-157h-57q-34 0 -55 -18t-30 -53l-273 -1068q-16 -64 -54 -106t-98.5 -63t-145.5 -21h-20v158zM40 1038h170l231 -891l-74 -222z" />
    <glyph glyph-name="uni01B7" unicode="&#x1b7;" horiz-adv-x="813" 
d="M214 20q-75 35 -114.5 102t-39.5 161v120h170v-108q0 -72 43 -110.5t121 -38.5t120 43t42 120v248q0 79 -36.5 122.5t-103.5 43.5h-128v157h128q97 0 166 -38.5t105 -110.5t36 -175v-250q0 -101 -38.5 -173.5t-112.5 -110t-178 -37.5q-105 0 -180 35zM288 880l246 417
h-441v157h621v-139l-280 -490z" />
    <glyph glyph-name="uni01DD" unicode="&#x1dd;" horiz-adv-x="802" 
d="M236 24.5q-70 39.5 -106.5 115.5t-36.5 183v266h509v-146h-346v-116q0 -90 39 -139.5t109 -49.5q69 0 107 52.5t38 148.5v374q0 87 -40 135.5t-113 48.5q-68 0 -105.5 -37t-37.5 -106v-6h-163v6q0 143 80 221t226 78q100 0 170.5 -40.5t108 -117.5t37.5 -186v-359
q0 -115 -36.5 -197t-105.5 -125t-166 -43q-98 0 -168 39.5z" />
    <glyph glyph-name="uni0218" unicode="&#x218;" horiz-adv-x="883" 
d="M249 23.5q-79 38.5 -119 115t-40 188.5v72h166v-69q0 -92 47.5 -139t140.5 -47q91 0 137 47t46 139v107q0 61 -28.5 104.5t-72 72t-116.5 62.5q-2 1 -4.5 2t-4.5 2l-14 7q-95 45 -154 85t-100.5 109.5t-41.5 173.5v78q0 110 40 185t118.5 113t193.5 38q112 0 188.5 -38.5
t115 -114.5t38.5 -187v-76h-166v72q0 92 -44.5 139t-131.5 47q-92 0 -139 -45t-47 -131v-81q0 -61 29.5 -103.5t73.5 -69t120 -62.5q8 -3 14.5 -6.5t14.5 -6.5q4 -2 8.5 -4t8.5 -4q85 -40 139.5 -79.5t91 -107.5t36.5 -172v-112q0 -112 -39.5 -188t-117 -115t-192.5 -39
q-116 0 -195 38.5zM360 -183h167v-134l-167 -177v311z" />
    <glyph glyph-name="uni0219" unicode="&#x219;" horiz-adv-x="738" 
d="M203 21q-70 36 -106.5 106t-36.5 169v4h161v-4q0 -80 39 -122.5t114 -42.5t114.5 40.5t39.5 117.5q0 43 -19.5 71.5t-50.5 45.5t-82 35q-6 1 -11.5 3t-11.5 4q-4 1 -8 2.5t-8 2.5q-82 27 -135.5 56.5t-91 88.5t-37.5 156t34 164.5t99.5 102.5t159.5 35q95 0 160.5 -33.5
t99 -98.5t33.5 -158v-3h-160v4q0 70 -34 106.5t-99 36.5t-98.5 -39t-33.5 -113q0 -48 21.5 -78.5t56.5 -48t89 -33.5q2 -1 5.5 -1.5t5.5 -1.5t4 -1.5t4 -0.5q85 -26 139 -53.5t91.5 -87.5t37.5 -163q0 -98 -36 -166t-106.5 -103t-171.5 -35t-171 36zM277 -190h167v-134
l-167 -177v311z" />
    <glyph glyph-name="uni021A" unicode="&#x21a;" horiz-adv-x="706" 
d="M270 1335h167v-1335h-167v1335zM0 1454h706v-157h-706v157zM270 -183h167v-134l-167 -177v311z" />
    <glyph glyph-name="uni021B" unicode="&#x21b;" horiz-adv-x="538" 
d="M195.5 64.5q-58.5 69.5 -58.5 205.5v1070h167v-1071q0 -56 24.5 -86.5t72.5 -30.5h77v-157h-98q-126 0 -184.5 69.5zM30 1038h448v-157h-448v157zM196 -183h167v-134l-167 -177v311z" />
    <glyph glyph-name="uni0253" unicode="&#x253;" horiz-adv-x="824" 
d="M110 1189q0 131 64 203t180 72h50v-157h-30q-46 0 -71.5 -30.5t-25.5 -86.5v-1190h-167v1189zM344.5 32.5q-59.5 47.5 -81.5 130.5l14 159q0 -59 17 -101t49.5 -64.5t78.5 -22.5q70 0 109 50.5t39 141.5v391q0 89 -39 138t-109 49q-46 0 -78.5 -21.5t-49.5 -62.5t-17 -99
l-21 142q32 90 96.5 140t140.5 50q77 0 131 -38.5t82 -113t28 -179.5v-399q0 -107 -29.5 -183t-85.5 -115.5t-136 -39.5q-79 0 -138.5 47.5z" />
    <glyph glyph-name="uni0254" unicode="&#x254;" horiz-adv-x="772" 
d="M133.5 67.5q-83.5 82.5 -83.5 231.5v21h164v-21q0 -80 40 -124t111 -44q72 0 111 43t39 121v433q0 81 -39.5 125.5t-110.5 44.5t-110.5 -45t-39.5 -127v-21h-163v21q0 157 82.5 242t233.5 85q99 0 169.5 -38t107.5 -111t37 -176v-433q0 -98 -37 -167.5t-107 -106
t-170 -36.5q-151 0 -234.5 82.5z" />
    <glyph glyph-name="uni0256" unicode="&#x256;" horiz-adv-x="811" 
d="M611 -350q-64 72 -64 203v250h167v-251q0 -55 25.5 -86t71.5 -31h30v-157h-50q-116 0 -180 72zM547 1454h167v-1454h-167v1454zM202.5 18.5q-54.5 36.5 -83.5 106.5t-29 168v441q0 102 29 174.5t83.5 110t131.5 37.5q74 0 135 -48t99 -135l-21 -145q0 56 -17 95.5
t-49.5 60.5t-78.5 21q-68 0 -106.5 -47t-38.5 -131v-430q0 -77 38.5 -120t106.5 -43q46 0 78.5 20t49.5 58.5t17 92.5l14 -142q-28 -86 -87.5 -133.5t-139.5 -47.5q-77 0 -131.5 36.5z" />
    <glyph glyph-name="uni0257" unicode="&#x257;" horiz-adv-x="811" 
d="M547 1189q0 131 64 203t180 72h50v-157h-30q-46 0 -71.5 -30.5t-25.5 -86.5v-1190h-167v1189zM202.5 18.5q-54.5 36.5 -83.5 106.5t-29 168v441q0 102 29 174.5t83.5 110t131.5 37.5q74 0 135 -48t99 -135l-21 -145q0 56 -17 95.5t-49.5 60.5t-78.5 21q-68 0 -106.5 -47
t-38.5 -131v-430q0 -77 38.5 -120t106.5 -43q46 0 78.5 20t49.5 58.5t17 92.5l14 -142q-28 -86 -87.5 -133.5t-139.5 -47.5q-77 0 -131.5 36.5z" />
    <glyph glyph-name="uni0259" unicode="&#x259;" horiz-adv-x="802" 
d="M236 24.5q-70 39.5 -106.5 115.5t-36.5 183v266h509v-146h-346v-116q0 -90 39 -139.5t109 -49.5q69 0 107 52.5t38 148.5v374q0 87 -40 135.5t-113 48.5q-68 0 -105.5 -37t-37.5 -106v-6h-163v6q0 143 80 221t226 78q100 0 170.5 -40.5t108 -117.5t37.5 -186v-359
q0 -115 -36.5 -197t-105.5 -125t-166 -43q-98 0 -168 39.5z" />
    <glyph glyph-name="uni025B" unicode="&#x25b;" horiz-adv-x="699" 
d="M154 56q-74 71 -74 199v137q0 43 13 75t38.5 53t63.5 32q-58 25 -84.5 60.5t-26.5 80.5v115q0 119 71.5 183.5t201.5 64.5t201 -64.5t71 -182.5v-61h-162v49q0 50 -28.5 77.5t-81.5 27.5t-82 -27.5t-29 -76.5v-93q0 -39 29.5 -60t82.5 -21h107v-150h-107
q-55 0 -85.5 -26.5t-30.5 -75.5v-103q0 -61 32 -95t90 -34q59 0 91 32.5t32 92.5v48h162v-71q0 -123 -74.5 -190t-210.5 -67t-210 71z" />
    <glyph glyph-name="uni02BB" unicode="&#x2bb;" horiz-adv-x="286" 
d="M60 1204l167 170v-337h-167v167z" />
    <glyph glyph-name="uni02BC" unicode="&#x2bc;" horiz-adv-x="286" 
d="M60 1454h167v-166l-167 -170v336z" />
    <glyph glyph-name="circumflex" unicode="&#x2c6;" horiz-adv-x="530" 
d="M516 1314l-100 -88l-150 181l-150 -181l-101 88l251 288z" />
    <glyph glyph-name="caron" unicode="&#x2c7;" horiz-adv-x="530" 
d="M13 1519l100 86l153 -184l153 184l100 -86l-253 -288z" />
    <glyph glyph-name="uni02C9" unicode="&#x2c9;" horiz-adv-x="530" 
d="M530 1412v-161h-530v161h530z" />
    <glyph glyph-name="breve" unicode="&#x2d8;" horiz-adv-x="494" 
d="M62.5 1306.5q-62.5 65.5 -62.5 184.5v70h142v-72q0 -55 25.5 -85.5t70.5 -30.5h18q46 0 71 30.5t25 85.5v72h142v-70q0 -119 -62.5 -184.5t-175.5 -65.5h-18q-113 0 -175.5 65.5z" />
    <glyph glyph-name="dotaccent" unicode="&#x2d9;" horiz-adv-x="344" 
d="M89 1418h167v-167h-167v167z" />
    <glyph glyph-name="ogonek" unicode="&#x2db;" horiz-adv-x="307" 
d="M59.5 -373.5q-59.5 46.5 -59.5 150.5q0 84 59.5 149t177.5 116l70 -42q-81 -48 -118.5 -95t-37.5 -104q0 -42 24 -61t76 -19h56v-141h-56q-132 0 -191.5 46.5z" />
    <glyph glyph-name="tilde" unicode="&#x2dc;" horiz-adv-x="556" 
d="M349.5 1258.5q-29.5 13.5 -63.5 37.5l-8 5q-5 3 -9 6l-8 6q-32 23 -52.5 34t-43.5 11q-22 0 -33 -14.5t-11 -41.5v-58h-120v81q0 86 37 133.5t105 47.5q38 0 67.5 -15.5t69.5 -45.5l7 -5l15 -11q26 -19 44.5 -29t38.5 -10q24 0 37.5 16t13.5 45v61h121v-87
q0 -86 -38 -133t-107 -47q-33 0 -62.5 13.5z" />
    <glyph glyph-name="hungarumlaut" unicode="&#x2dd;" horiz-adv-x="724" 
d="M356 1283l196 355l139 -89l-215 -336zM35 1283l196 355l140 -89l-215 -336z" />
    <glyph glyph-name="gravecomb" unicode="&#x300;" 
d="M-403 1562l132 97l246 -355l-113 -78z" />
    <glyph glyph-name="acutecomb" unicode="&#x301;" 
d="M-433 1304l246 355l132 -97l-265 -336z" />
    <glyph glyph-name="uni0302" unicode="&#x302;" 
d="M-73 1314l-100 -88l-150 181l-150 -181l-101 88l251 288z" />
    <glyph glyph-name="tildecomb" unicode="&#x303;" 
d="M-285.5 1260.5q-29.5 13.5 -63.5 37.5l-8 5q-5 3 -9 6l-8 6q-32 23 -52.5 34t-43.5 11q-22 0 -33 -14.5t-11 -41.5v-58h-120v81q0 86 37 133.5t105 47.5q38 0 67.5 -15.5t69.5 -45.5l7 -5l15 -11q26 -19 44.5 -29t38.5 -10q24 0 37.5 16t13.5 45v61h121v-87
q0 -86 -38 -133t-107 -47q-33 0 -62.5 13.5z" />
    <glyph glyph-name="uni0304" unicode="&#x304;" 
d="M-150 1412v-161h-530v161h530z" />
    <glyph glyph-name="uni0306" unicode="&#x306;" 
d="M-531.5 1306.5q-62.5 65.5 -62.5 184.5v70h142v-72q0 -55 25.5 -85.5t70.5 -30.5h18q46 0 71 30.5t25 85.5v72h142v-70q0 -119 -62.5 -184.5t-175.5 -65.5h-18q-113 0 -175.5 65.5z" />
    <glyph glyph-name="uni0307" unicode="&#x307;" 
d="M-177 1418h167v-167h-167v167z" />
    <glyph glyph-name="uni0308" unicode="&#x308;" 
d="M-280 1419h167v-167h-167v167zM-600 1419h167v-167h-167v167z" />
    <glyph glyph-name="hookabovecomb" unicode="&#x309;" 
d="M-131.5 1609.5q51.5 -43.5 51.5 -132.5q0 -154 -173 -154l-87 76q111 0 111 61q0 60 -86 60q-35 0 -75 -14l-22 129q52 18 125 18q104 0 155.5 -43.5zM-356 1399h143v-149h-143v149z" />
    <glyph glyph-name="uni030A" unicode="&#x30a;" 
d="M-455 1290.5q-55 59.5 -55 172.5q0 117 55 179t160 62t160.5 -62t55.5 -179q0 -113 -55.5 -172.5t-160.5 -59.5t-160 59.5zM-225.5 1373.5q24.5 32.5 24.5 93.5q0 62 -24.5 95t-69.5 33t-69 -33t-24 -95q0 -61 24 -93.5t69 -32.5t69.5 32.5z" />
    <glyph glyph-name="uni030B" unicode="&#x30b;" 
d="M-419 1283l196 355l139 -89l-215 -336zM-740 1283l196 355l140 -89l-215 -336z" />
    <glyph glyph-name="uni030C" unicode="&#x30c;" 
d="M-576 1519l100 86l153 -184l153 184l100 -86l-253 -288z" />
    <glyph glyph-name="uni031B" unicode="&#x31b;" 
d="M-433 914v124h125q65 0 101 36.5t36 102.5v74h171v-94q0 -115 -74.5 -179t-210.5 -64h-148z" />
    <glyph glyph-name="dotbelowcomb" unicode="&#x323;" 
d="M-235 -205h167v-167h-167v167z" />
    <glyph glyph-name="uni0326" unicode="&#x326;" 
d="M-180 -183h167v-134l-167 -177v311z" />
    <glyph glyph-name="uni0327" unicode="&#x327;" 
d="M-413 -404l34 116q58 -14 115 -14q37 0 56.5 16t19.5 47t-30 46t-89 15l71 97q96 0 146 -43.5t50 -126.5t-54 -127t-157 -44q-95 0 -162 18zM-323 91h134v-269h-134v269z" />
    <glyph glyph-name="uni0328" unicode="&#x328;" 
d="M-257.5 -373.5q-59.5 46.5 -59.5 150.5q0 84 59.5 149t177.5 116l70 -42q-81 -48 -118.5 -95t-37.5 -104q0 -42 24 -61t76 -19h56v-141h-56q-132 0 -191.5 46.5z" />
    <glyph glyph-name="uni0335" unicode="&#x335;" 
d="M-170 805v-156h-430v156h430z" />
    <glyph glyph-name="uni0345" unicode="&#x345;" 
d="M-233 -204q0 -33 18.5 -51t51.5 -18h56v-149h-100q-88 0 -136.5 54.5t-48.5 155.5v133h159v-125z" />
    <glyph glyph-name="uni0370" unicode="&#x370;" horiz-adv-x="650" 
d="M100 1454h168v-1454h-168v1454zM227 795h353v-157h-353v157z" />
    <glyph glyph-name="uni0371" unicode="&#x371;" horiz-adv-x="566" 
d="M110 1038h167v-1038h-167v1038zM223 589h303v-157h-303v157z" />
    <glyph glyph-name="uni0372" unicode="&#x372;" horiz-adv-x="972" 
d="M40 1454h165v-431h-165v431zM727 1454h165v-431h-165v431zM380 1335h167v-1335h-167v1335zM110 1454h706v-157h-706v157z" />
    <glyph glyph-name="uni0373" unicode="&#x373;" horiz-adv-x="852" 
d="M20 1454h157v-436h-157v436zM635 1454h157v-436h-157v436zM323 1355h167v-1355h-167v1355zM20 1454h772v-149h-772v149z" />
    <glyph glyph-name="uni0374" unicode="&#x374;" horiz-adv-x="286" 
d="M60 1284l167 170v-336h-167v166z" />
    <glyph glyph-name="uni0375" unicode="&#x375;" horiz-adv-x="326" 
d="M80 3l167 164v-330h-167v166z" />
    <glyph glyph-name="uni0376" unicode="&#x376;" horiz-adv-x="914" 
d="M656 1v1118l24 -26l-452 -1092h-128v1453h158v-1125l-24 26l454 1099h126v-1453h-158z" />
    <glyph glyph-name="uni0377" unicode="&#x377;" horiz-adv-x="819" 
d="M552 1v748l24 -26l-334 -722h-132v1037h157v-761l-24 26l336 735h130v-1037h-157z" />
    <glyph glyph-name="uni037A" unicode="&#x37a;" horiz-adv-x="213" 
d="M169 -199q0 -35 18.5 -54.5t52.5 -19.5h63v-149h-107q-89 0 -137.5 56t-48.5 159v128h159v-120z" />
    <glyph glyph-name="uni037B" unicode="&#x37b;" horiz-adv-x="772" 
d="M133.5 67.5q-83.5 82.5 -83.5 231.5v21h164v-21q0 -80 40 -124t111 -44q72 0 111 43t39 121v433q0 81 -39.5 125.5t-110.5 44.5t-110.5 -45t-39.5 -127v-21h-163v21q0 157 82.5 242t233.5 85q99 0 169.5 -38t107.5 -111t37 -176v-433q0 -98 -37 -167.5t-107 -106
t-170 -36.5q-151 0 -234.5 82.5z" />
    <glyph glyph-name="uni037C" unicode="&#x37c;" horiz-adv-x="772" 
d="M234 21.5q-70 36.5 -107 106t-37 167.5v436q0 103 37 176t107.5 111t169.5 38q100 0 171 -38t108 -111.5t37 -177.5v-21h-162v21q0 82 -39.5 127t-111.5 45q-71 0 -110.5 -44.5t-39.5 -125.5v-436q0 -74 39.5 -114t110.5 -40q72 0 111.5 41.5t39.5 116.5v21h164v-21
q0 -99 -37.5 -169.5t-108.5 -107.5t-172 -37q-100 0 -170 36.5zM372 599h167v-167h-167v167z" />
    <glyph glyph-name="uni037D" unicode="&#x37d;" horiz-adv-x="772" 
d="M133.5 67.5q-83.5 82.5 -83.5 231.5v21h164v-21q0 -80 40 -124t111 -44q72 0 111 43t39 121v433q0 81 -39.5 125.5t-110.5 44.5t-110.5 -45t-39.5 -127v-21h-163v21q0 157 82.5 242t233.5 85q99 0 169.5 -38t107.5 -111t37 -176v-433q0 -98 -37 -167.5t-107 -106
t-170 -36.5q-151 0 -234.5 82.5zM234 599h167v-167h-167v167z" />
    <glyph glyph-name="uni037E" unicode="&#x37e;" horiz-adv-x="326" 
d="M80 167h167v-167l-167 -163v330zM80 1001h167v-167h-167v167z" />
    <glyph glyph-name="uni037F" unicode="&#x37f;" horiz-adv-x="725" 
d="M134 24q-76 39 -124 110l122 104q34 -44 81 -68t98 -24q70 0 108.5 44.5t38.5 125.5v1138h167v-1142q0 -103 -38 -176.5t-110.5 -112t-175.5 -38.5q-91 0 -167 39z" />
    <glyph glyph-name="tonos" unicode="&#x384;" horiz-adv-x="284" 
d="M8.22168 1248.13l109.733 417.676l157.195 -45.9971l-134.082 -406.322z" />
    <glyph glyph-name="dieresistonos" unicode="&#x385;" horiz-adv-x="756" 
d="M525 1419h167v-167h-167v167zM65 1419h167v-167h-167v167zM273 1248l111 418l157 -47l-134 -406z" />
    <glyph glyph-name="Alphatonos" unicode="&#x386;" horiz-adv-x="1029" 
d="M489 1454h174l336 -1454h-182l-241 1225l-241 -1225h-182zM354 492h463v-157h-463v157zM30.2217 1053.13l109.733 417.676l157.195 -45.9971l-134.082 -406.322z" />
    <glyph glyph-name="anoteleia" unicode="&#x387;" horiz-adv-x="326" 
d="M80 1001h167v-167h-167v167z" />
    <glyph glyph-name="Epsilontonos" unicode="&#x388;" horiz-adv-x="1016" 
d="M342 1454h167v-1454h-167v1454zM441 157h525v-157h-525v157zM441 801h475v-157h-475v157zM441 1454h525v-157h-525v157zM-19.7783 1053.13l109.733 417.676l157.195 -45.9971l-134.082 -406.322z" />
    <glyph glyph-name="Etatonos" unicode="&#x389;" horiz-adv-x="1143" 
d="M876 1454h167v-1454h-167v1454zM373 1454h168v-1454h-168v1454zM500 795h447v-157h-447v157zM-19.7783 1053.13l109.733 417.676l157.195 -45.9971l-134.082 -406.322z" />
    <glyph glyph-name="Iotatonos" unicode="&#x38a;" horiz-adv-x="648" 
d="M539 0h-167v1454h167v-1454zM-19.7783 1053.13l109.733 417.676l157.195 -45.9971l-134.082 -406.322z" />
    <glyph glyph-name="Omicrontonos" unicode="&#x38c;" horiz-adv-x="1122" 
d="M466 28q-81 43 -123.5 125t-42.5 198v753q0 116 42.5 198t123.5 124.5t195 42.5t195 -42.5t123.5 -124.5t42.5 -198v-753q0 -116 -42.5 -198t-123.5 -125t-195 -43t-195 43zM766.5 171q43.5 23 66 67t22.5 106v766q0 62 -22.5 106t-66 67t-105.5 23q-61 0 -104.5 -23
t-66.5 -67t-23 -106v-766q0 -62 23 -106t66.5 -67t104.5 -23q62 0 105.5 23zM-19.7783 1053.13l109.733 417.676l157.195 -45.9971l-134.082 -406.322z" />
    <glyph glyph-name="Upsilontonos" unicode="&#x38e;" horiz-adv-x="1082" 
d="M811 610v-610h-167v610l-302 844h170l215 -651l205 651h170zM30.2217 1053.13l109.733 417.676l157.195 -45.9971l-134.082 -406.322z" />
    <glyph glyph-name="Omegatonos" unicode="&#x38f;" horiz-adv-x="1204" 
d="M511 135q-63 35 -96 101t-33 160v708q0 116 42.5 198t123.5 124.5t195 42.5t195 -42.5t123.5 -124.5t42.5 -198v-708q0 -94 -33 -160t-96 -101t-152 -35v64q36 0 61.5 22.5t39 65.5t13.5 102v760q0 62 -22.5 106t-66 67t-105.5 23q-61 0 -104.5 -23t-66.5 -67t-23 -106
v-760q0 -59 13.5 -102t39 -65.5t61.5 -22.5v-64q-89 0 -152 35zM382 164h281v-164h-281v164zM823 164h281v-164h-281v164zM30.2217 1053.13l109.733 417.676l157.195 -45.9971l-134.082 -406.322z" />
    <glyph glyph-name="iotadieresistonos" unicode="&#x390;" horiz-adv-x="439" 
d="M180.5 68q-60.5 68 -60.5 192v778h167v-778q0 -47 22.5 -73.5t64.5 -26.5h57v-160h-80q-110 0 -170.5 68zM364 1419h167v-167h-167v167zM-96 1419h167v-167h-167v167zM112 1248l111 418l157 -47l-134 -406z" />
    <glyph glyph-name="Alpha" unicode="&#x391;" horiz-adv-x="906" 
d="M366 1454h174l336 -1454h-182l-241 1225l-241 -1225h-182zM231 492h463v-157h-463v157z" />
    <glyph glyph-name="Beta" unicode="&#x392;" horiz-adv-x="859" 
d="M220 157h261q65 0 100.5 32.5t35.5 91.5v224q0 55 -18.5 94.5t-51.5 60t-76 20.5h-251v157h251q61 0 94 41.5t33 117.5v178q0 59 -33 91t-92 32h-253v157h249q94 0 160.5 -31.5t101 -92t34.5 -146.5v-174q0 -69 -19 -122t-54.5 -87t-86.5 -46q57 -10 97 -45t61 -90.5
t21 -129.5v-213q0 -88 -33.5 -150t-98 -94.5t-156.5 -32.5h-276v157zM100 1454h167v-1454h-167v1454z" />
    <glyph glyph-name="Gamma" unicode="&#x393;" horiz-adv-x="624" 
d="M100 1454h167v-1454h-167v1454zM227 1454h397v-157h-397v157z" />
    <glyph glyph-name="uni0394" unicode="&#x394;" horiz-adv-x="906" 
d="M366 1454h174l336 -1454h-182l-241 1225l-241 -1225h-182zM161 157h598v-157h-598v157z" />
    <glyph glyph-name="Epsilon" unicode="&#x395;" horiz-adv-x="774" 
d="M100 1454h167v-1454h-167v1454zM199 157h525v-157h-525v157zM199 801h475v-157h-475v157zM199 1454h525v-157h-525v157z" />
    <glyph glyph-name="Zeta" unicode="&#x396;" horiz-adv-x="744" 
d="M674 1315l-417 -1158h427v-157h-604v139l422 1158h-404v157h576v-139z" />
    <glyph glyph-name="Eta" unicode="&#x397;" horiz-adv-x="870" 
d="M603 1454h167v-1454h-167v1454zM100 1454h168v-1454h-168v1454zM227 795h447v-157h-447v157z" />
    <glyph glyph-name="Theta" unicode="&#x398;" horiz-adv-x="922" 
d="M353 801h216v-157h-216v157zM266 28q-81 43 -123.5 125t-42.5 198v753q0 116 42.5 198t123.5 124.5t195 42.5t195 -42.5t123.5 -124.5t42.5 -198v-753q0 -116 -42.5 -198t-123.5 -125t-195 -43t-195 43zM566.5 171q43.5 23 66 67t22.5 106v766q0 62 -22.5 106t-66 67
t-105.5 23q-61 0 -104.5 -23t-66.5 -67t-23 -106v-766q0 -62 23 -106t66.5 -67t104.5 -23q62 0 105.5 23z" />
    <glyph glyph-name="Iota" unicode="&#x399;" horiz-adv-x="386" 
d="M277 0h-167v1454h167v-1454z" />
    <glyph glyph-name="Kappa" unicode="&#x39a;" horiz-adv-x="874" 
d="M235 626l419 828h184l-606 -1132zM100 1454h167v-1454h-167v1454zM414 777l110 149l360 -926h-193z" />
    <glyph glyph-name="Lambda" unicode="&#x39b;" horiz-adv-x="906" 
d="M366 1454h174l336 -1454h-182l-241 1225l-241 -1225h-182z" />
    <glyph glyph-name="Mu" unicode="&#x39c;" horiz-adv-x="1136" 
d="M882 1454h154v-1454h-156v1135l13 -64l-264 -851h-122l-263 831l16 84v-1135h-160v1454h158l310 -986z" />
    <glyph glyph-name="Nu" unicode="&#x39d;" horiz-adv-x="914" 
d="M100 1454h151l429 -1154l-27 -26v1180h161v-1453h-152l-428 1137l28 26v-1163h-162v1453z" />
    <glyph glyph-name="Xi" unicode="&#x39e;" horiz-adv-x="850" 
d="M90 164h670v-164h-670v164zM162 804h528v-164h-528v164zM90 1454h670v-164h-670v164z" />
    <glyph glyph-name="Omicron" unicode="&#x39f;" horiz-adv-x="922" 
d="M266 28q-81 43 -123.5 125t-42.5 198v753q0 116 42.5 198t123.5 124.5t195 42.5t195 -42.5t123.5 -124.5t42.5 -198v-753q0 -116 -42.5 -198t-123.5 -125t-195 -43t-195 43zM566.5 171q43.5 23 66 67t22.5 106v766q0 62 -22.5 106t-66 67t-105.5 23q-61 0 -104.5 -23
t-66.5 -67t-23 -106v-766q0 -62 23 -106t66.5 -67t104.5 -23q62 0 105.5 23z" />
    <glyph glyph-name="Pi" unicode="&#x3a0;" horiz-adv-x="870" 
d="M603 1454h167v-1454h-167v1454zM100 1454h167v-1454h-167v1454zM219 1454h455v-157h-455v157z" />
    <glyph glyph-name="Rho" unicode="&#x3a1;" horiz-adv-x="895" 
d="M205 721h293q41 0 71.5 19t46 54.5t15.5 85.5v253q0 52 -15.5 89t-45.5 56t-72 19h-293v157h287q98 0 167 -37.5t105 -109t36 -172.5v-258q0 -99 -36.5 -169t-105.5 -107t-166 -37h-287v157zM100 1454h167v-1454h-167v1454z" />
    <glyph glyph-name="Sigma" unicode="&#x3a3;" horiz-adv-x="746" 
d="M706 1290h-460l304 -563l-304 -563h460v-164h-666v146l311 581l-311 581v146h666v-164z" />
    <glyph glyph-name="Tau" unicode="&#x3a4;" horiz-adv-x="706" 
d="M270 1335h167v-1335h-167v1335zM0 1454h706v-157h-706v157z" />
    <glyph glyph-name="Upsilon" unicode="&#x3a5;" horiz-adv-x="720" 
d="M449 610v-610h-167v610l-302 844h170l215 -651l205 651h170z" />
    <glyph glyph-name="Phi" unicode="&#x3a6;" horiz-adv-x="1162" 
d="M299 211q-117 56 -178 163t-61 258v240q0 151 61 258t178 163t282 56t282 -56t178 -163t61 -258v-240q0 -151 -61 -258t-178 -163t-282 -56t-282 56zM498 1504h167v-1504h-167v1504zM842 399.5q93 82.5 93 232.5v240q0 150 -93 232.5t-261 82.5t-261 -82.5t-93 -232.5
v-240q0 -150 93 -232.5t261 -82.5t261 82.5z" />
    <glyph glyph-name="Chi" unicode="&#x3a7;" horiz-adv-x="802" 
d="M368 638l-31 51l-325 765h181l226 -590l34 -56l349 -808h-180zM359 831l241 623h180l-334 -788l-265 -666h-181z" />
    <glyph glyph-name="Psi" unicode="&#x3a8;" horiz-adv-x="1042" 
d="M286.5 422.5q-96.5 47.5 -146.5 139.5t-50 225v667h167v-674q0 -79 30.5 -134t90 -83t144.5 -28t144 28.5t89 83t30 133.5v674h167v-667q0 -133 -49.5 -225t-145.5 -139.5t-235 -47.5t-235.5 47.5zM442 1454h167v-1454h-167v1454z" />
    <glyph glyph-name="uni03A9" unicode="&#x3a9;" horiz-adv-x="922" 
d="M229 135q-63 35 -96 101t-33 160v708q0 116 42.5 198t123.5 124.5t195 42.5t195 -42.5t123.5 -124.5t42.5 -198v-708q0 -94 -33 -160t-96 -101t-152 -35v64q36 0 61.5 22.5t39 65.5t13.5 102v760q0 62 -22.5 106t-66 67t-105.5 23q-61 0 -104.5 -23t-66.5 -67t-23 -106
v-760q0 -59 13.5 -102t39 -65.5t61.5 -22.5v-64q-89 0 -152 35zM100 164h281v-164h-281v164zM541 164h281v-164h-281v164z" />
    <glyph glyph-name="Iotadieresis" unicode="&#x3aa;" horiz-adv-x="386" 
d="M277 0h-167v1454h167v-1454zM282 1747h167v-167h-167v167zM-63 1747h167v-167h-167v167z" />
    <glyph glyph-name="Upsilondieresis" unicode="&#x3ab;" horiz-adv-x="720" 
d="M449 610v-610h-167v610l-302 844h170l215 -651l205 651h170zM499 1747h167v-167h-167v167zM154 1747h167v-167h-167v167z" />
    <glyph glyph-name="alphatonos" unicode="&#x3ac;" horiz-adv-x="861" 
d="M211 20.5q-59 35.5 -90 103.5t-31 163v473q0 94 31 160.5t90 101t142 34.5q116 0 179 -77t63 -219v-476q0 -142 -63 -220.5t-179 -78.5q-83 0 -142 35.5zM514.5 182q38.5 37 38.5 106v468q0 66 -38.5 103.5t-108.5 37.5t-109.5 -37.5t-39.5 -103.5v-468
q0 -68 39.5 -105.5t109.5 -37.5t108.5 37zM613.5 68q-60.5 68 -60.5 192v778h167v-778q0 -47 23 -73.5t65 -26.5h45v-160h-68q-111 0 -171.5 68zM330.222 1248.13l109.733 417.676l157.195 -45.9971l-134.082 -406.322z" />
    <glyph glyph-name="epsilontonos" unicode="&#x3ad;" horiz-adv-x="699" 
d="M154 56q-74 71 -74 199v137q0 43 13 75t38.5 53t63.5 32q-58 25 -84.5 60.5t-26.5 80.5v115q0 119 71.5 183.5t201.5 64.5t201 -64.5t71 -182.5v-61h-162v49q0 50 -28.5 77.5t-81.5 27.5t-82 -27.5t-29 -76.5v-93q0 -39 29.5 -60t82.5 -21h107v-150h-107
q-55 0 -85.5 -26.5t-30.5 -75.5v-103q0 -61 32 -95t90 -34q59 0 91 32.5t32 92.5v48h162v-71q0 -123 -74.5 -190t-210.5 -67t-210 71zM279.222 1248.13l109.733 417.676l157.195 -45.9971l-134.082 -406.322z" />
    <glyph glyph-name="etatonos" unicode="&#x3ae;" horiz-adv-x="854" 
d="M110 1038h167v-1038h-167v1038zM577 727q0 87 -37 130.5t-113 43.5q-75 0 -112.5 -46.5t-37.5 -140.5l-21 149q36 97 97.5 145t145.5 48q121 0 183 -76t62 -225v-1016h-167v988zM361.222 1248.13l109.733 417.676l157.195 -45.9971l-134.082 -406.322z" />
    <glyph glyph-name="iotatonos" unicode="&#x3af;" horiz-adv-x="439" 
d="M180.5 68q-60.5 68 -60.5 192v778h167v-778q0 -47 22.5 -73.5t64.5 -26.5h57v-160h-80q-110 0 -170.5 68zM135.222 1248.13l109.733 417.676l157.195 -45.9971l-134.082 -406.322z" />
    <glyph glyph-name="upsilondieresistonos" unicode="&#x3b0;" horiz-adv-x="874" 
d="M287.5 20.5q-67.5 35.5 -100.5 107t-33 179.5v502q0 40 -15.5 59.5t-47.5 19.5h-31v164h55q103 0 154.5 -61t51.5 -184v-500q0 -80 33.5 -120t103.5 -40q71 0 105.5 40t34.5 120v731h166v-731q0 -108 -33.5 -179.5t-101.5 -107t-171 -35.5t-170.5 35.5zM602 1419h167
v-167h-167v167zM142 1419h167v-167h-167v167zM350 1248l111 418l157 -47l-134 -406z" />
    <glyph glyph-name="alpha" unicode="&#x3b1;" horiz-adv-x="861" 
d="M211 20.5q-59 35.5 -90 103.5t-31 163v473q0 94 31 160.5t90 101t142 34.5q116 0 179 -77t63 -219v-476q0 -142 -63 -220.5t-179 -78.5q-83 0 -142 35.5zM514.5 182q38.5 37 38.5 106v468q0 66 -38.5 103.5t-108.5 37.5t-109.5 -37.5t-39.5 -103.5v-468
q0 -68 39.5 -105.5t109.5 -37.5t108.5 37zM613.5 68q-60.5 68 -60.5 192v778h167v-778q0 -47 23 -73.5t65 -26.5h45v-160h-68q-111 0 -171.5 68z" />
    <glyph glyph-name="beta" unicode="&#x3b2;" horiz-adv-x="858" 
d="M358.5 20q-55.5 35 -83.5 101.5t-28 161.5l30 14q0 -48 21.5 -82t61.5 -52t96 -18q71 0 110.5 43.5t39.5 122.5v201q0 79 -37 122.5t-104 43.5h-72v157h72q55 0 86 35t31 98v200q0 68 -40 105t-112 37t-112.5 -38t-40.5 -105v-196h-167v200q0 95 38.5 161.5t112.5 101.5
t179 35q98 0 167.5 -35t105.5 -102t36 -162v-204q0 -58 -31.5 -114.5t-94.5 -92.5q71 -29 110.5 -94t39.5 -153v-206q0 -153 -72.5 -237t-204.5 -84q-82 0 -137.5 35zM110 1038h167v-1460h-167v1460z" />
    <glyph glyph-name="gamma" unicode="&#x3b3;" horiz-adv-x="851" 
d="M365 -13q0 27 -4.5 57t-12.5 61q-1 6 -2.5 11t-3.5 11l-189 698q-10 39 -34 59t-55 20h-24v149h84q62 0 109 -48t70 -147l187 -764l43 43v-559h-168v409zM403 55l238 983h170l-300 -1070z" />
    <glyph glyph-name="delta" unicode="&#x3b4;" horiz-adv-x="776" 
d="M228.5 20.5q-67.5 35.5 -103 103t-35.5 162.5v474q0 83 37.5 142t104 89t153.5 31l12 -25l-272 294v42l169 -35l243 -247q47 -47 77.5 -87t51 -91t20.5 -113v-477q0 -94 -34.5 -161t-101 -102t-160.5 -35t-161.5 35.5zM484.5 184q34.5 38 34.5 107v486q0 66 -34.5 102.5
t-96.5 36.5q-60 0 -95 -36.5t-35 -102.5v-486q0 -69 34.5 -107t95.5 -38q62 0 96.5 38zM125 1454h522v-159h-522v159z" />
    <glyph glyph-name="epsilon" unicode="&#x3b5;" horiz-adv-x="699" 
d="M154 56q-74 71 -74 199v137q0 43 13 75t38.5 53t63.5 32q-58 25 -84.5 60.5t-26.5 80.5v115q0 119 71.5 183.5t201.5 64.5t201 -64.5t71 -182.5v-61h-162v49q0 50 -28.5 77.5t-81.5 27.5t-82 -27.5t-29 -76.5v-93q0 -39 29.5 -60t82.5 -21h107v-150h-107
q-55 0 -85.5 -26.5t-30.5 -75.5v-103q0 -61 32 -95t90 -34q59 0 91 32.5t32 92.5v48h162v-71q0 -123 -74.5 -190t-210.5 -67t-210 71z" />
    <glyph glyph-name="zeta" unicode="&#x3b6;" horiz-adv-x="750" 
d="M593 -96q0 42 -22 61.5t-69 19.5h-64q-123 2 -202 44.5t-117.5 128.5t-38.5 218q0 117 22 225t66 211.5t113 207.5q39 58 72.5 104.5t66.5 85.5q25 30 48.5 56t47.5 48l184 54v-78q-55 -34 -115.5 -103t-129.5 -177l-28 -45q-60 -99 -98.5 -195t-57.5 -193.5t-19 -200.5
q0 -120 49 -177t151 -57h85q115 0 169 -52t54 -162v-189h-167v165zM134 1297v157h566v-159z" />
    <glyph glyph-name="eta" unicode="&#x3b7;" horiz-adv-x="854" 
d="M110 1038h167v-1038h-167v1038zM577 727q0 87 -37 130.5t-113 43.5q-75 0 -112.5 -46.5t-37.5 -140.5l-21 149q36 97 97.5 145t145.5 48q121 0 183 -76t62 -225v-1016h-167v988z" />
    <glyph glyph-name="theta" unicode="&#x3b8;" horiz-adv-x="776" 
d="M228 20.5q-67 35.5 -102.5 103.5t-35.5 163v886q0 94 35.5 160.5t102.5 101t161 34.5t161 -34.5t101.5 -101t34.5 -160.5v-889q0 -94 -34.5 -161.5t-101.5 -102.5t-161 -35t-161 35.5zM484.5 182q34.5 37 34.5 106v881q0 66 -34.5 103.5t-96.5 37.5t-96.5 -37.5
t-34.5 -103.5v-881q0 -68 34.5 -105.5t96.5 -37.5t96.5 37zM203 801h366v-157h-366v157z" />
    <glyph glyph-name="iota" unicode="&#x3b9;" horiz-adv-x="439" 
d="M180.5 68q-60.5 68 -60.5 192v778h167v-778q0 -47 22.5 -73.5t64.5 -26.5h57v-160h-80q-110 0 -170.5 68z" />
    <glyph glyph-name="kappa" unicode="&#x3ba;" horiz-adv-x="823" 
d="M181 307l361 608q41 70 100.5 104t132.5 34h46v-161h-19q-41 0 -77 -19.5t-62 -59.5l-436 -678zM110 1038h167v-1038h-167v1038zM415 545l96 140l342 -685h-185z" />
    <glyph glyph-name="lambda" unicode="&#x3bb;" horiz-adv-x="856" 
d="M190 0h-160l349 1098l55 -249zM215.5 1283.5q-24.5 21.5 -54.5 21.5h-52v156h101q58 0 105.5 -40t68.5 -115l300 -1080q10 -37 34.5 -58t54.5 -21h53v-157h-101q-56 0 -100 31.5t-62 93.5l-313 1111q-10 36 -34.5 57.5z" />
    <glyph glyph-name="uni03BC" unicode="&#x3bc;" horiz-adv-x="865" 
d="M110 1043h167v-867h-7l7 -456h-167v1323zM334 3.5q-35 18.5 -53.5 53.5t-18.5 85l15 139q0 -65 37.5 -100.5t106.5 -35.5q65 0 101 36.5t36 103.5l39 -137q-7 -78 -53.5 -120.5t-124.5 -42.5q-50 0 -85 18.5zM617.5 68q-60.5 68 -60.5 192v778h167v-778q0 -47 23 -73.5
t65 -26.5h45v-160h-68q-111 0 -171.5 68z" />
    <glyph glyph-name="nu" unicode="&#x3bd;" horiz-adv-x="874" 
d="M399 0l-210 825q-8 36 -28.5 53.5t-54.5 17.5h-56v157h99q54 0 91 -19.5t59.5 -58t35.5 -97.5l134 -634l175 794h170l-275 -1038h-140z" />
    <glyph glyph-name="xi" unicode="&#x3be;" horiz-adv-x="743" 
d="M526 -81q0 32 -17.5 49t-49.5 17h-45q-154 0 -239 84.5t-85 236.5v206q0 88 39.5 153t110.5 94q-60 46 -93 100t-33 107v120q0 116 80 181t224 65v-35q-65 0 -101 -56.5t-36 -156.5v-116q0 -63 37.5 -98t104.5 -35h187v-157h-187q-78 0 -122 -43.5t-44 -122.5v-216
q0 -75 46 -117t129 -42h83q85 0 131.5 -48t46.5 -136v-214h-167v180zM90 1454h586v-157l-586 -2v159z" />
    <glyph glyph-name="omicron" unicode="&#x3bf;" horiz-adv-x="776" 
d="M228 20.5q-67 35.5 -102.5 103.5t-35.5 163v473q0 94 35.5 160.5t102.5 101t161 34.5t161 -34.5t101.5 -101t34.5 -160.5v-476q0 -94 -34.5 -161.5t-101.5 -102.5t-161 -35t-161 35.5zM484.5 182q34.5 37 34.5 106v468q0 66 -34.5 103.5t-96.5 37.5t-96.5 -37.5
t-34.5 -103.5v-468q0 -68 34.5 -105.5t96.5 -37.5t96.5 37z" />
    <glyph glyph-name="pi" unicode="&#x3c0;" horiz-adv-x="966" 
d="M642 53.5q-53 63.5 -53 188.5v688h167v-690q0 -45 18.5 -69t54.5 -24h68v-157h-88q-114 0 -167 63.5zM186 929h167v-929h-167v929zM50 1038h856v-157h-856v157z" />
    <glyph glyph-name="rho" unicode="&#x3c1;" horiz-adv-x="824" 
d="M110 730q0 103 37 176t107.5 111.5t167.5 38.5q99 0 169 -38t106.5 -111.5t36.5 -176.5v-407q0 -107 -30 -183t-87.5 -115.5t-139.5 -39.5q-85 0 -145 50.5t-84 142.5l29 144q0 -90 38 -139t107 -49t107 50.5t38 141.5v399q0 87 -38 134.5t-107 47.5t-107 -46t-38 -132
v-1151h-167v1152z" />
    <glyph glyph-name="sigma1" unicode="&#x3c2;" horiz-adv-x="770" 
d="M506 -91q0 37 -21 56.5t-61 19.5h-20q-100 0 -170 36t-107 105.5t-37 167.5v438q0 103 37 175.5t107.5 110.5t169.5 38q151 0 233.5 -85t82.5 -241v-34h-167v34q0 82 -38.5 127t-107.5 45q-71 0 -110.5 -44.5t-39.5 -125.5v-438q0 -73 39.5 -113t110.5 -40h61
q101 0 153 -50.5t52 -147.5v-204h-167v170z" />
    <glyph glyph-name="sigma" unicode="&#x3c3;" horiz-adv-x="796" 
d="M223.5 19q-64.5 34 -99 99.5t-34.5 158.5v475q0 91 34.5 155t99 97.5t155.5 33.5l174 -137q38 -10 63.5 -41t37.5 -74.5t12 -93.5v-418q0 -92 -33.5 -156.5t-98 -98.5t-155.5 -34t-155.5 34zM467.5 179.5q31.5 34.5 31.5 98.5v470q0 62 -31.5 96.5t-89.5 34.5
q-57 0 -89 -34.5t-32 -96.5v-470q0 -64 32 -98.5t89 -34.5q58 0 89.5 34.5zM379 1038h397v-157h-397v157z" />
    <glyph glyph-name="tau" unicode="&#x3c4;" horiz-adv-x="692" 
d="M299 59.5q-59 69.5 -59 205.5v705h167v-706q0 -56 25 -86.5t73 -30.5h77v-157h-98q-126 0 -185 69.5zM50 1038h562v-157h-562v157z" />
    <glyph glyph-name="upsilon" unicode="&#x3c5;" horiz-adv-x="874" 
d="M287.5 20.5q-67.5 35.5 -100.5 107t-33 179.5v502q0 40 -15.5 59.5t-47.5 19.5h-31v164h55q103 0 154.5 -61t51.5 -184v-500q0 -80 33.5 -120t103.5 -40q71 0 105.5 40t34.5 120v731h166v-731q0 -108 -33.5 -179.5t-101.5 -107t-171 -35.5t-170.5 35.5z" />
    <glyph glyph-name="phi" unicode="&#x3c6;" horiz-adv-x="1076" 
d="M287.5 32.5q-103.5 47.5 -158 137.5t-54.5 216v264q0 129 54.5 220t157.5 138.5t248 47.5q148 0 252.5 -47t159 -138.5t54.5 -220.5v-267q0 -126 -54.5 -215t-159 -136t-252.5 -47q-144 0 -247.5 47.5zM462 1339h157v-1640h-157v1640zM757 182q80 65 80 184v301
q0 121 -80.5 189t-223.5 68q-90 0 -156 -30.5t-101.5 -88.5t-35.5 -138v-301q0 -118 77.5 -183.5t215.5 -65.5q144 0 224 65z" />
    <glyph glyph-name="chi" unicode="&#x3c7;" horiz-adv-x="807" 
d="M661 -420.5q-31 13.5 -55.5 41.5t-39.5 70l-378 1130q-13 38 -37.5 58.5t-56.5 20.5h-74v156h124q38 0 71 -17t59.5 -52t43.5 -86l364 -1094q9 -25 23 -43t32 -27t39 -9h76v-162h-124q-36 0 -67 13.5zM377 367l87 -169l-214 -620h-185zM429 429l174 609h186l-283 -776z
" />
    <glyph glyph-name="psi" unicode="&#x3c8;" horiz-adv-x="1142" 
d="M320 32.5q-103 47.5 -156.5 139.5t-53.5 225v641h167v-654q0 -82 34 -139.5t100 -87.5t161 -30t160.5 30t99 87.5t33.5 139.5v654h167v-641q0 -133 -53 -225t-156 -139.5t-251 -47.5q-149 0 -252 47.5zM490 1339h167v-1640h-167v1640z" />
    <glyph glyph-name="omega" unicode="&#x3c9;" horiz-adv-x="1062" 
d="M561 55q-57 70 -57 198v351h111v-343q0 -52 26 -80.5t73 -28.5q42 0 66.5 29t24.5 80v491q0 67 -35.5 104.5t-97.5 37.5v162q94 0 161.5 -34.5t103 -101t35.5 -160.5v-504q0 -129 -66 -200t-184 -71q-104 0 -161 70zM156 56q-66 71 -66 200v504q0 94 35.5 160.5t103 101
t161.5 34.5v-162q-62 0 -97.5 -37.5t-35.5 -104.5v-491q0 -51 24.5 -80t66.5 -29q47 0 73.5 28.5t26.5 80.5v343h110v-351q0 -128 -57 -198t-161 -70q-118 0 -184 71z" />
    <glyph glyph-name="iotadieresis" unicode="&#x3ca;" horiz-adv-x="439" 
d="M180.5 68q-60.5 68 -60.5 192v778h167v-778q0 -47 22.5 -73.5t64.5 -26.5h57v-160h-80q-110 0 -170.5 68zM273 1419h167v-167h-167v167zM-47 1419h167v-167h-167v167z" />
    <glyph glyph-name="upsilondieresis" unicode="&#x3cb;" horiz-adv-x="874" 
d="M287.5 20.5q-67.5 35.5 -100.5 107t-33 179.5v502q0 40 -15.5 59.5t-47.5 19.5h-31v164h55q103 0 154.5 -61t51.5 -184v-500q0 -80 33.5 -120t103.5 -40q71 0 105.5 40t34.5 120v731h166v-731q0 -108 -33.5 -179.5t-101.5 -107t-171 -35.5t-170.5 35.5zM511 1419h167
v-167h-167v167zM191 1419h167v-167h-167v167z" />
    <glyph glyph-name="omicrontonos" unicode="&#x3cc;" horiz-adv-x="776" 
d="M228 20.5q-67 35.5 -102.5 103.5t-35.5 163v473q0 94 35.5 160.5t102.5 101t161 34.5t161 -34.5t101.5 -101t34.5 -160.5v-476q0 -94 -34.5 -161.5t-101.5 -102.5t-161 -35t-161 35.5zM484.5 182q34.5 37 34.5 106v468q0 66 -34.5 103.5t-96.5 37.5t-96.5 -37.5
t-34.5 -103.5v-468q0 -68 34.5 -105.5t96.5 -37.5t96.5 37zM327.222 1248.13l109.733 417.676l157.195 -45.9971l-134.082 -406.322z" />
    <glyph glyph-name="upsilontonos" unicode="&#x3cd;" horiz-adv-x="874" 
d="M287.5 20.5q-67.5 35.5 -100.5 107t-33 179.5v502q0 40 -15.5 59.5t-47.5 19.5h-31v164h55q103 0 154.5 -61t51.5 -184v-500q0 -80 33.5 -120t103.5 -40q71 0 105.5 40t34.5 120v731h166v-731q0 -108 -33.5 -179.5t-101.5 -107t-171 -35.5t-170.5 35.5zM373.222 1248.13
l109.733 417.676l157.195 -45.9971l-134.082 -406.322z" />
    <glyph glyph-name="omegatonos" unicode="&#x3ce;" horiz-adv-x="1062" 
d="M561 55q-57 70 -57 198v351h111v-343q0 -52 26 -80.5t73 -28.5q42 0 66.5 29t24.5 80v491q0 67 -35.5 104.5t-97.5 37.5v162q94 0 161.5 -34.5t103 -101t35.5 -160.5v-504q0 -129 -66 -200t-184 -71q-104 0 -161 70zM156 56q-66 71 -66 200v504q0 94 35.5 160.5t103 101
t161.5 34.5v-162q-62 0 -97.5 -37.5t-35.5 -104.5v-491q0 -51 24.5 -80t66.5 -29q47 0 73.5 28.5t26.5 80.5v343h110v-351q0 -128 -57 -198t-161 -70q-118 0 -184 71zM470.222 1248.13l109.733 417.676l157.195 -45.9971l-134.082 -406.322z" />
    <glyph glyph-name="uni03CF" unicode="&#x3cf;" horiz-adv-x="874" 
d="M660 -422h-193l224 422h193zM235 626l419 828h184l-606 -1132zM100 1454h167v-1454h-167v1454zM414 777l110 149l360 -926h-193z" />
    <glyph glyph-name="uni03D0" unicode="&#x3d0;" horiz-adv-x="792" 
d="M238 22.5q-68 37.5 -103 108.5t-35 172v859q0 97 33 166t96 105t152 36t152 -36t96 -105t33 -166v-182q0 -61 -22.5 -117t-66.5 -90.5t-104 -34.5l22 -68h-142v157h62q40 0 62 41t22 115v193q0 65 -30 100.5t-84 35.5t-84 -35.5t-30 -100.5v-876q0 -75 35.5 -116.5
t98.5 -41.5q64 0 99 41.5t35 116.5v223q0 70 -32.5 108.5t-91.5 38.5v115q92 0 157.5 -31.5t99.5 -92t34 -145.5v-216q0 -100 -35 -170.5t-103 -107.5t-163 -37t-163 37.5z" />
    <glyph glyph-name="theta1" unicode="&#x3d1;" horiz-adv-x="870" 
d="M303 24q-66 39 -100.5 112.5t-34.5 177.5h167q0 -78 33.5 -121.5t93.5 -43.5q56 0 86.5 43.5t30.5 121.5v828q0 81 -33.5 125.5t-93.5 44.5q-67 0 -104 -42t-37 -118v-2q0 -68 39.5 -105t111.5 -37h398v-157h-406q-148 0 -229 75.5t-81 213.5v12q0 151 80.5 234t227.5 83
q93 0 159 -38.5t100.5 -112t34.5 -176.5v-825q0 -105 -33.5 -179.5t-97 -113.5t-153.5 -39q-93 0 -159 39zM168 516q0 60 -18 97t-53 53.5t-87 16.5v150q103 0 176 -37.5t111 -108.5t38 -171v-202h-167v202z" />
    <glyph glyph-name="Upsilon1" unicode="&#x3d2;" horiz-adv-x="914" 
d="M374 1007h167v-1007h-167v1007zM448 1005q0 137 52 240t157 159.5t257 56.5v-159q-122 0 -206 -63.5t-125.5 -179.5t-41.5 -273zM332 1059q-42 116 -125.5 179.5t-206.5 63.5v159q153 0 257.5 -56.5t156.5 -159.5t52 -240l-92 -219q0 157 -42 273z" />
    <glyph glyph-name="uni03D3" unicode="&#x3d3;" horiz-adv-x="1233" 
d="M713 1007h167v-1007h-167v1007zM787 1005q0 137 52 240t157 159.5t257 56.5v-159q-122 0 -206 -63.5t-125.5 -179.5t-41.5 -273zM671 1059q-42 116 -125.5 179.5t-206.5 63.5v159q153 0 257.5 -56.5t156.5 -159.5t52 -240l-92 -219q0 157 -42 273zM-19.7783 1053.13
l109.733 417.676l157.195 -45.9971l-134.082 -406.322z" />
    <glyph glyph-name="uni03D4" unicode="&#x3d4;" horiz-adv-x="914" 
d="M374 1007h167v-1007h-167v1007zM448 1005q0 137 52 240t157 159.5t257 56.5v-159q-122 0 -206 -63.5t-125.5 -179.5t-41.5 -273zM332 1059q-42 116 -125.5 179.5t-206.5 63.5v159q153 0 257.5 -56.5t156.5 -159.5t52 -240l-92 -219q0 157 -42 273zM546 1747h167v-167
h-167v167zM201 1747h167v-167h-167v167z" />
    <glyph glyph-name="phi1" unicode="&#x3d5;" horiz-adv-x="1076" 
d="M460 776q0 137 69 208.5t201 71.5q133 0 202 -70t69 -206v-407q0 -126 -52 -212.5t-154.5 -131t-252.5 -44.5q-152 0 -256 45t-157.5 132t-53.5 214v324q0 119 66.5 202.5t194.5 124.5l68 -129q-80 -30 -122.5 -82.5t-42.5 -123.5v-311q0 -129 77 -196.5t224 -67.5
q145 0 221 67.5t76 196.5v401q0 61 -26.5 93t-76.5 32q-53 0 -81.5 -31t-28.5 -90v-1087h-164v1077z" />
    <glyph glyph-name="omega1" unicode="&#x3d6;" horiz-adv-x="1162" 
d="M614 55q-58 70 -58 198v264h109v-256q0 -55 24.5 -85.5t69.5 -30.5t70.5 30.5t25.5 85.5v384q0 111 -35 172.5t-96 61.5v85q142 0 220 -81t78 -230v-397q0 -129 -64.5 -200t-180.5 -71q-105 0 -163 70zM205 56q-65 71 -65 200v397q0 99 35 169t102 106t161 36v-85
q-61 0 -96 -61.5t-35 -172.5v-384q0 -55 26 -85.5t70 -30.5q45 0 70 30.5t25 85.5v256h108v-264q0 -128 -57.5 -198t-163.5 -70q-115 0 -180 71zM50 1038h1062v-159h-1062v159z" />
    <glyph glyph-name="uni03D7" unicode="&#x3d7;" horiz-adv-x="1017" 
d="M701 -172h73q50 0 77 32.5t27 91.5v201h169v-194q0 -138 -66 -214t-187 -76h-93v159zM694.5 64q-58.5 68 -58.5 197q0 108 14.5 213.5t50.5 212.5l-342 -686h-150q42 223 63.5 406t21.5 341q0 68 -32.5 103.5t-95.5 35.5h-56v156h65q128 0 194.5 -70t66.5 -205
q0 -79 -14 -183t-41 -256q-3 -12 -5 -24.5t-5 -25.5l380 759h155q-63 -216 -95.5 -411.5t-32.5 -354.5q0 -58 26 -88.5t75 -30.5h63v-157h-77q-112 0 -170.5 68z" />
    <glyph glyph-name="uni03D8" unicode="&#x3d8;" horiz-adv-x="922" 
d="M266 313q-81 43 -123.5 125t-42.5 198v468q0 116 42.5 198t123.5 124.5t195 42.5t195 -42.5t123.5 -124.5t42.5 -198v-468q0 -116 -42.5 -198t-123.5 -125t-195 -43t-195 43zM566.5 453q43.5 23 66 67t22.5 106v488q0 62 -22.5 106t-66 67t-105.5 23q-61 0 -104.5 -23
t-66.5 -67t-23 -106v-488q0 -62 23 -106t66.5 -67t104.5 -23q62 0 105.5 23zM378 430h167v-430h-167v430z" />
    <glyph glyph-name="uni03D9" unicode="&#x3d9;" horiz-adv-x="776" 
d="M305 138h167v-399h-167v399zM228 20.5q-67 35.5 -102.5 103.5t-35.5 163v473q0 94 35.5 160.5t102.5 101t161 34.5t161 -34.5t101.5 -101t34.5 -160.5v-476q0 -94 -34.5 -161.5t-101.5 -102.5t-161 -35t-161 35.5zM484.5 182q34.5 37 34.5 106v468q0 66 -34.5 103.5
t-96.5 37.5t-96.5 -37.5t-34.5 -103.5v-468q0 -68 34.5 -105.5t96.5 -37.5t96.5 37z" />
    <glyph glyph-name="uni03DA" unicode="&#x3da;" horiz-adv-x="886" 
d="M639 -81q0 35 -16 50.5t-51 15.5h-44q-151 2 -245 71.5t-138.5 214t-44.5 375.5q0 226 40.5 371.5t126.5 222.5t224 94q105 13 153 66.5t48 146.5h164q0 -147 -81.5 -238t-256.5 -118q-88 -13 -143.5 -75t-81.5 -177t-26 -293q0 -179 28.5 -291t89 -165t157.5 -53h90
q92 0 133 -43t41 -139v-216h-167v180z" />
    <glyph glyph-name="uni03DB" unicode="&#x3db;" horiz-adv-x="731" 
d="M513 -91q0 38 -19 57t-57 19h-3q-118 2 -194 54.5t-113 158t-37 268.5q0 159 39 269.5t118.5 178t203.5 94.5q47 11 69 40.5t22 82.5h164q0 -111 -56.5 -181t-171.5 -92q-114 -22 -168.5 -120.5t-54.5 -271.5q0 -166 52 -245t160 -79v0q71 0 118.5 -25.5t71 -76
t23.5 -127.5v-174h-167v170z" />
    <glyph glyph-name="uni03DC" unicode="&#x3dc;" horiz-adv-x="755" 
d="M100 1454h167v-1454h-167v1454zM200 788h475v-157h-475v157zM200 1454h525v-157h-525v157z" />
    <glyph glyph-name="uni03DD" unicode="&#x3dd;" horiz-adv-x="755" 
d="M100 1032h167v-1454h-167v1454zM200 366l475 2v-157l-475 -2v157zM200 1032h525v-157h-525v157z" />
    <glyph glyph-name="uni03DE" unicode="&#x3de;" horiz-adv-x="860" 
d="M300 1454h180l-280 -813h-180zM660 801h180l-258 -801h-180zM145 801h581v-159h-581v159z" />
    <glyph glyph-name="uni03DF" unicode="&#x3df;" horiz-adv-x="940" 
d="M623 -422h-185l257 805h185zM245 221h-185l285 814h185zM210 383h562v-162h-562v162z" />
    <glyph glyph-name="uni03E0" unicode="&#x3e0;" horiz-adv-x="794" 
d="M528 737q0 288 -82.5 432t-247.5 144q-79 0 -188 -40l-30 156q125 40 218 40q249 0 372.5 -182.5t123.5 -549.5q0 -408 -186 -737h-172q192 325 192 737zM122 559l443 228l59 -142l-442 -228zM14 882l483 251l60 -144l-482 -251z" />
    <glyph glyph-name="uni03E1" unicode="&#x3e1;" horiz-adv-x="804" 
d="M491.5 47.5q51.5 248.5 51.5 528.5q0 369 -86 553t-259 184q-79 0 -188 -40l-30 156q125 40 218 40q254 0 380 -222.5t126 -670.5q0 -278 -49 -526.5t-147 -471.5h-172q104 221 155.5 469.5zM123 376l461 236l61 -152l-461 -236zM9 804l502 259l60 -151l-500 -259z" />
    <glyph glyph-name="uni03E2" unicode="&#x3e2;" horiz-adv-x="1346" 
d="M770 21.5q-57 36.5 -87 106t-30 167.5v1159h111v-1136q0 -83 41.5 -128t117.5 -45q75 0 115.5 45t40.5 128v1136h167v-1088l-106 -89q-11 -148 -65 -220t-167 -72q-81 0 -138 36.5zM242.5 26.5q-69.5 41.5 -106 120t-36.5 189.5v1118h167v-1126q0 -87 41.5 -135
t116.5 -48q82 0 127 45t45 128v1136h110v-1159q0 -98 -34.5 -167.5t-101 -106t-161.5 -36.5q-98 0 -167.5 41.5zM433 -172h434q84 0 129.5 24.5t64 74t18.5 133.5v420h167v-404q0 -202 -83 -303.5t-276 -101.5h-463zM357 -353q-27 -23 -27 -69h-160q0 126 65.5 188t197.5 62
l6 -157q-55 -1 -82 -24z" />
    <glyph glyph-name="uni03E3" unicode="&#x3e3;" horiz-adv-x="1114" 
d="M411 -172h284q60 0 90.5 18.5t41 52.5t10.5 91v295h167v-279q0 -167 -67 -251t-222 -84h-333zM221 -234q63 62 190 62l-14 -157q-40 -1 -59.5 -24t-19.5 -69h-160q0 126 63 188zM176 56.5q-66 71.5 -66 205.5v776h167v-784q0 -52 25.5 -80.5t72.5 -28.5q48 0 73.5 28.5
t25.5 80.5v784h126v-776q0 -89 -27 -151t-80 -94t-128 -32q-123 0 -189 71.5zM614.5 17q-49.5 32 -75 94t-25.5 151v776h127v-784q0 -52 25.5 -80.5t72.5 -28.5t72.5 28.5t25.5 80.5v784h167v-776l-116 -168q-17 -36 -39.5 -60t-51 -36.5t-63.5 -12.5q-70 0 -119.5 32z" />
    <glyph glyph-name="uni03E4" unicode="&#x3e4;" horiz-adv-x="949" 
d="M251 499.5q-76 45.5 -116 131.5t-40 206v270q0 182 84.5 268t257.5 86h52v-159h-52q-89 0 -132 -49t-43 -154v-260q0 -109 53 -169.5t149 -60.5q105 0 162 62.5t57 177.5v155l64 -20v-188q0 -108 -37 -185t-107 -117t-169 -40q-107 0 -183 45.5zM683 1454h166v-1454h-166
v1454z" />
    <glyph glyph-name="uni03E5" unicode="&#x3e5;" horiz-adv-x="954" 
d="M678 1038h166v-1460h-166v1460zM484 897h-52q-89 0 -132 -51.5t-43 -162.5v-313q0 -110 53 -170t149 -60q105 0 162 62.5t57 177.5v155l54 -20v-188q0 -108 -34.5 -185t-100 -117t-158.5 -40q-110 0 -188.5 45.5t-119.5 131.5t-41 206v323q0 188 84.5 276.5t257.5 88.5
h52v-159z" />
    <glyph glyph-name="uni03E6" unicode="&#x3e6;" horiz-adv-x="930" 
d="M356 -172h208q45 0 69 16.5t32 47t8 79.5v531q0 55 -22 94t-64 59.5t-101 20.5h-229v157h273q98 0 167.5 -39t106 -114t36.5 -180v-524q0 -152 -60 -228.5t-199 -76.5h-242zM110 1454h167v-1454h-167v1454zM295.5 -353q-20.5 -23 -20.5 -69h-145q0 126 57 188t169 62
v-157q-40 -1 -60.5 -24z" />
    <glyph glyph-name="uni03E7" unicode="&#x3e7;" horiz-adv-x="814" 
d="M666 417q0 -131 -38 -225t-111 -143t-177 -49v157q53 0 89.5 30t55.5 87.5t19 139.5v262q0 66 -19 116t-54.5 77t-82.5 27q-59 0 -95 -37.5t-36 -100.5v-12q0 -60 39 -97t102 -37q82 0 143.5 53t95.5 149.5t34 223.5h153q0 -174 -56.5 -306t-159 -204.5t-238.5 -72.5
q-84 0 -147.5 35t-98 98.5t-34.5 147.5v22q0 88 37 155t104.5 103.5t156.5 36.5q95 0 167 -47t111.5 -132.5t39.5 -197.5v-259zM236 -23.5q-26 -23.5 -26 -69.5h-160q0 126 61.5 188t184.5 62h44v-157h-27q-51 0 -77 -23.5z" />
    <glyph glyph-name="uni03E8" unicode="&#x3e8;" horiz-adv-x="963" 
d="M274 29q-91 44 -137.5 129.5t-46.5 208.5v23q0 110 35.5 196.5t111 156.5t196.5 128q9 5 18 9t17 8q70 32 109 55.5t64.5 61.5t25.5 94v31q0 86 -46.5 132.5t-135.5 46.5q-84 0 -128 -48.5t-44 -140.5v-68h-165v76q0 165 87 253t250 88q112 0 189.5 -39t117.5 -114.5
t40 -183.5v-24q0 -107 -40.5 -176.5t-99.5 -107.5t-150 -77q-151 -65 -219 -150t-68 -206v-17q0 -74 27.5 -125t81 -77.5t130.5 -26.5q123 0 188.5 72t65.5 207v65h165v-72q0 -139 -48 -235.5t-142 -146.5t-229 -50q-129 0 -220 44z" />
    <glyph glyph-name="uni03E9" unicode="&#x3e9;" horiz-adv-x="823" 
d="M225.5 20q-78.5 35 -119.5 102.5t-41 164.5q0 99 37 164t98.5 103t157.5 68q4 1 7.5 2t7.5 2q55 17 89 37.5t53 51.5t19 74q0 56 -28.5 86t-83.5 30q-57 0 -89.5 -35.5t-32.5 -102.5v-7l-166 -1v6q0 141 74 216t214 75q90 0 152 -31.5t94 -92t32 -147.5q0 -82 -29.5 -140
t-80 -93.5t-125.5 -59.5q-1 -1 -2.5 -1t-2.5 -1l-8 -2t-7 -2q-73 -24 -118 -48.5t-70.5 -61.5t-25.5 -89q0 -73 47.5 -111.5t138.5 -38.5q93 0 141.5 40.5t48.5 118.5v8h166v-8q0 -99 -41 -169t-121 -106t-194 -36q-113 0 -191.5 35z" />
    <glyph glyph-name="uni03EA" unicode="&#x3ea;" horiz-adv-x="960" 
d="M509 1293q26 71 56 107.5t64 48.5t82 12h132v-154h-134q-21 0 -33 -12t-25 -47l-454 -1248h-167zM163 157h647v-157h-647v157zM309 1248q-12 35 -24.5 47t-33.5 12h-134v154h132q49 0 83 -12t63.5 -48.5t55.5 -107.5l479 -1293h-166z" />
    <glyph glyph-name="uni03EB" unicode="&#x3eb;" horiz-adv-x="820" 
d="M245 843q-16 36 -32.5 47.5t-45.5 11.5h-65v154h72q52 0 86 -9.5t64.5 -42t58.5 -98.5l392 -906h-169zM188 157h467v-157h-467v157zM458 906q29 66 59.5 98.5t63.5 42t85 9.5h62v-154h-54q-29 0 -45.5 -11.5t-32.5 -47.5l-372 -843h-169z" />
    <glyph glyph-name="uni03EC" unicode="&#x3ec;" horiz-adv-x="956" 
d="M274 31q-85 46 -129.5 134t-44.5 212v349l136 171q10 75 49 128.5t97.5 80.5t125.5 27q110 0 188 -48t119 -139.5t41 -219.5v-352q0 -123 -44.5 -210.5t-129.5 -133t-204 -45.5t-204 46zM592 170q48 28 72.5 82t24.5 129v338q0 122 -55.5 189.5t-156.5 67.5
q-100 0 -155 -67t-55 -190v-338q0 -114 55 -176.5t155 -62.5q67 0 115 28zM100 1061q0 393 336 393h56q77 0 116 24t39 69h159q0 -240 -304 -240h-49q-196 0 -196 -226v-367h-157v347z" />
    <glyph glyph-name="uni03ED" unicode="&#x3ed;" horiz-adv-x="796" 
d="M247 20.5q-67 35.5 -102 103t-35 162.5v431l133 148q31 72 91 111.5t134 39.5q75 0 128.5 -34.5t81.5 -101t28 -160.5v-437q0 -94 -35 -161t-102 -102t-161 -35t-161 35.5zM504 185q35 38 35 106v421q0 67 -35 104.5t-97 37.5q-61 0 -95.5 -37.5t-34.5 -104.5v-421
q0 -68 34.5 -106t95.5 -38q62 0 97 38zM110 993q0 88 30.5 149t90 102t151.5 72q53 17 84 35.5t46.5 43t15.5 59.5h165q0 -69 -22 -117.5t-65 -81t-112 -54.5q-76 -23 -122.5 -51t-70.5 -68.5t-24 -101.5v-426h-167v439z" />
    <glyph glyph-name="uni03EE" unicode="&#x3ee;" horiz-adv-x="797" 
d="M717 1247v-159h-473q-56 0 -86.5 -22t-30.5 -62v-124h-167v134q0 111 63.5 172t181.5 61h512zM467 0h-167v1454h167v-1454z" />
    <glyph glyph-name="uni03EF" unicode="&#x3ef;" horiz-adv-x="648" 
d="M80 -265h76q43 0 65.5 33t22.5 92v1480h167v-1487q0 -137 -56 -206t-177 -69h-98v157zM20 1038h618v-157h-618v157z" />
    <glyph glyph-name="uni03F0" unicode="&#x3f0;" horiz-adv-x="912" 
d="M624.5 64q-58.5 68 -58.5 197q0 108 14.5 213.5t50.5 212.5l-342 -686h-150q42 223 63.5 406t21.5 341q0 68 -32.5 103.5t-95.5 35.5h-56v156h65q128 0 194.5 -70t66.5 -205q0 -79 -14 -183t-41 -256q-3 -12 -5 -24.5t-5 -25.5l380 759h155q-63 -216 -95.5 -411.5
t-32.5 -354.5q0 -58 26 -88.5t75 -30.5h63v-157h-77q-112 0 -170.5 68z" />
    <glyph glyph-name="uni03F1" unicode="&#x3f1;" horiz-adv-x="824" 
d="M332 35.5q-60 50.5 -84 142.5l29 144q0 -90 38 -139t107 -49t107 50.5t38 141.5v399q0 87 -38 134.5t-107 47.5t-107 -46t-38 -132v-591h-167v592q0 103 37 176t107.5 111.5t167.5 38.5q99 0 169 -38t106.5 -111.5t36.5 -176.5v-407q0 -107 -30 -183t-87.5 -115.5
t-139.5 -39.5q-85 0 -145 50.5zM177 -247.5q-67 81.5 -67 243.5v204h167v-210q0 -57 10.5 -91t41.5 -52.5t90 -18.5h60l14 -157h-94q-155 0 -222 81.5zM476 -329l3 157q119 0 178 -62t59 -188h-159q0 91 -81 93z" />
    <glyph glyph-name="uni03F2" unicode="&#x3f2;" horiz-adv-x="772" 
d="M234 21.5q-70 36.5 -107 106t-37 167.5v436q0 103 37 176t107.5 111t169.5 38q100 0 171 -38t108 -111.5t37 -177.5v-21h-162v21q0 82 -39.5 127t-111.5 45q-71 0 -110.5 -44.5t-39.5 -125.5v-436q0 -74 39.5 -114t110.5 -40q72 0 111.5 41.5t39.5 116.5v21h164v-21
q0 -99 -37.5 -169.5t-108.5 -107.5t-172 -37q-100 0 -170 36.5z" />
    <glyph glyph-name="uni03F3" unicode="&#x3f3;" horiz-adv-x="427" 
d="M0 -265h53q47 0 72 31t25 86v1186h167v-1185q0 -131 -63.5 -203t-179.5 -72h-74v157zM150 1446h167v-197h-167v197z" />
    <glyph glyph-name="uni03F4" unicode="&#x3f4;" horiz-adv-x="922" 
d="M199 801h515v-157h-515v157zM266 28q-81 43 -123.5 125t-42.5 198v753q0 116 42.5 198t123.5 124.5t195 42.5t195 -42.5t123.5 -124.5t42.5 -198v-753q0 -116 -42.5 -198t-123.5 -125t-195 -43t-195 43zM566.5 171q43.5 23 66 67t22.5 106v766q0 62 -22.5 106t-66 67
t-105.5 23q-61 0 -104.5 -23t-66.5 -67t-23 -106v-766q0 -62 23 -106t66.5 -67t104.5 -23q62 0 105.5 23z" />
    <glyph glyph-name="uni03F5" unicode="&#x3f5;" horiz-adv-x="772" 
d="M213 589h323v-157h-323v157zM234 21.5q-70 36.5 -107 106t-37 167.5v436q0 103 37 176t107.5 111t169.5 38q100 0 171 -38t108 -111.5t37 -177.5v-21h-162v21q0 82 -39.5 127t-111.5 45q-71 0 -110.5 -44.5t-39.5 -125.5v-436q0 -74 39.5 -114t110.5 -40q72 0 111.5 41.5
t39.5 116.5v21h164v-21q0 -99 -37.5 -169.5t-108.5 -107.5t-172 -37q-100 0 -170 36.5z" />
    <glyph glyph-name="uni03F6" unicode="&#x3f6;" horiz-adv-x="772" 
d="M236 432v157h323v-157h-323zM196.5 22q-71.5 37 -109 107.5t-37.5 169.5v21h164v-21q0 -80 40 -124t111 -44q72 0 111 43t39 121v433q0 81 -39.5 125.5t-110.5 44.5t-110.5 -45t-39.5 -127v-21h-163v21q0 104 37 177.5t108 111.5t171 38q99 0 169.5 -38t107.5 -111
t37 -176v-433q0 -98 -37 -167.5t-107 -106t-170 -36.5t-171.5 37z" />
    <glyph glyph-name="uni03F7" unicode="&#x3f7;" horiz-adv-x="865" 
d="M205 461h265q41 0 71.5 19t46 54.5t15.5 85.5v253q0 53 -15.5 89.5t-45.5 55.5t-72 19h-265v157h257q98 0 167 -37.5t105 -109t36 -172.5v-258q0 -99 -36.5 -169t-105.5 -107t-166 -37h-257v157zM100 1454h167v-1454h-167v1454z" />
    <glyph glyph-name="uni03F8" unicode="&#x3f8;" horiz-adv-x="824" 
d="M110 1454h167v-1876h-167v1876zM344.5 32.5q-59.5 47.5 -81.5 130.5l14 159q0 -59 17 -101t50 -64.5t78 -22.5q70 0 109 50.5t39 141.5v394q0 89 -39 138t-109 49q-45 0 -78 -21.5t-50 -62.5t-17 -99l-21 142q32 90 96.5 140t140.5 50q77 0 131 -38.5t82 -113t28 -179.5
v-402q0 -107 -29.5 -183t-85.5 -115.5t-135 -39.5q-80 0 -139.5 47.5z" />
    <glyph glyph-name="uni03F9" unicode="&#x3f9;" horiz-adv-x="856" 
d="M256 29q-76 44 -116 127.5t-40 200.5v739q0 118 40 201.5t115.5 127.5t182.5 44t183 -44t115.5 -127.5t39.5 -200.5v-57h-168v57q0 67 -19.5 114t-58 71.5t-92.5 24.5q-53 0 -91 -24.5t-58.5 -72t-20.5 -114.5v-739q0 -66 20.5 -113t58.5 -72t91 -25q54 0 92.5 25t58 72
t19.5 113v58h168v-58q0 -117 -39.5 -200.5t-115.5 -127.5t-183 -44q-106 0 -182 44z" />
    <glyph glyph-name="uni03FA" unicode="&#x3fa;" horiz-adv-x="1136" 
d="M882 1454h154v-1454h-156v1135l13 -64l-264 -851h-122l-263 831l16 84v-1135h-160v1454h158l310 -986z" />
    <glyph glyph-name="uni03FB" unicode="&#x3fb;" horiz-adv-x="902" 
d="M257 128v-385h-147v385h147zM633 1038h159v-1038h-147v810l14 -64l-157 -506h-102l-159 496l16 74v-810h-147v1038h160l181 -580z" />
    <glyph glyph-name="uni03FC" unicode="&#x3fc;" horiz-adv-x="774" 
d="M510 -122v-157h-510v157h510zM60 730q0 103 37 176t107.5 111.5t167.5 38.5q99 0 169 -38t106.5 -111.5t36.5 -176.5v-407q0 -107 -30 -183t-87.5 -115.5t-139.5 -39.5q-85 0 -145 50.5t-84 142.5l29 144q0 -90 38 -139t107 -49t107 50.5t38 141.5v399q0 87 -38 134.5
t-107 47.5t-107 -46t-38 -132v-1151h-167v1152z" />
    <glyph glyph-name="uni03FD" unicode="&#x3fd;" horiz-adv-x="856" 
d="M235 29q-76 44 -115.5 127.5t-39.5 200.5v58h168v-58q0 -66 20 -113t58 -72t92 -25t92 25t58 72t20 113v739q0 67 -20 114.5t-58 72t-92 24.5t-92 -24.5t-58 -71.5t-20 -114v-57h-168v57q0 117 39.5 200.5t115.5 127.5t183 44t182.5 -44t115.5 -127.5t40 -201.5v-739
q0 -117 -40 -200.5t-116 -127.5t-182 -44q-107 0 -183 44z" />
    <glyph glyph-name="uni03FE" unicode="&#x3fe;" horiz-adv-x="856" 
d="M256 29q-76 44 -116 127.5t-40 200.5v739q0 118 40 201.5t115.5 127.5t182.5 44t183 -44t115.5 -127.5t39.5 -200.5v-57h-168v57q0 67 -19.5 114t-58 71.5t-92.5 24.5q-53 0 -91 -24.5t-58.5 -72t-20.5 -114.5v-739q0 -66 20.5 -113t58.5 -72t91 -25q54 0 92.5 25t58 72
t19.5 113v58h168v-58q0 -117 -39.5 -200.5t-115.5 -127.5t-183 -44q-106 0 -182 44zM407 811h167v-167h-167v167z" />
    <glyph glyph-name="uni03FF" unicode="&#x3ff;" horiz-adv-x="856" 
d="M235 29q-76 44 -115.5 127.5t-39.5 200.5v58h168v-58q0 -66 20 -113t58 -72t92 -25t92 25t58 72t20 113v739q0 67 -20 114.5t-58 72t-92 24.5t-92 -24.5t-58 -71.5t-20 -114v-57h-168v57q0 117 39.5 200.5t115.5 127.5t183 44t182.5 -44t115.5 -127.5t40 -201.5v-739
q0 -117 -40 -200.5t-116 -127.5t-182 -44q-107 0 -183 44zM283 811h167v-167h-167v167z" />
    <glyph glyph-name="uni0400" unicode="&#x400;" horiz-adv-x="774" 
d="M100 1454h167v-1454h-167v1454zM199 157h525v-157h-525v157zM199 801h475v-157h-475v157zM199 1454h525v-157h-525v157zM140 1777l127 122l237 -256l-105 -99z" />
    <glyph glyph-name="uni0401" unicode="&#x401;" horiz-adv-x="774" 
d="M100 1454h167v-1454h-167v1454zM199 157h525v-157h-525v157zM199 801h475v-157h-475v157zM199 1454h525v-157h-525v157zM512 1747h167v-167h-167v167zM167 1747h167v-167h-167v167z" />
    <glyph glyph-name="uni0402" unicode="&#x402;" horiz-adv-x="944" 
d="M770 851q62 -38 93 -114.5t31 -191.5v-269q0 -92 -27.5 -153.5t-82 -92t-137.5 -30.5h-94v157h74q51 0 75.5 25.5t24.5 76.5v301q0 87 -35.5 130t-107.5 43q-74 0 -111 -40t-37 -122v-115l-64 60v108q0 89 27 147.5t80.5 88t134.5 29.5q94 0 156 -38zM270 1335h167v-1335
h-167v1335zM0 1454h706v-157h-706v157z" />
    <glyph glyph-name="uni0403" unicode="&#x403;" horiz-adv-x="624" 
d="M100 1454h167v-1454h-167v1454zM227 1454h397v-157h-397v157zM273 1643l250 256l127 -122l-272 -233z" />
    <glyph glyph-name="uni0404" unicode="&#x404;" horiz-adv-x="856" 
d="M199 803h485v-162h-485v162zM256 29q-76 44 -116 127.5t-40 200.5v739q0 118 40 201.5t115.5 127.5t182.5 44t183 -44t115.5 -127.5t39.5 -200.5v-57h-168v57q0 67 -19.5 114t-58 71.5t-92.5 24.5q-53 0 -91 -24.5t-58.5 -72t-20.5 -114.5v-739q0 -66 20.5 -113t58.5 -72
t91 -25q54 0 92.5 25t58 72t19.5 113v58h168v-58q0 -117 -39.5 -200.5t-115.5 -127.5t-183 -44q-106 0 -182 44z" />
    <glyph glyph-name="uni0405" unicode="&#x405;" horiz-adv-x="883" 
d="M249 23.5q-79 38.5 -119 115t-40 188.5v72h166v-69q0 -92 47.5 -139t140.5 -47q91 0 137 47t46 139v107q0 61 -28.5 104.5t-72 72t-116.5 62.5q-2 1 -4.5 2t-4.5 2l-14 7q-95 45 -154 85t-100.5 109.5t-41.5 173.5v78q0 110 40 185t118.5 113t193.5 38q112 0 188.5 -38.5
t115 -114.5t38.5 -187v-76h-166v72q0 92 -44.5 139t-131.5 47q-92 0 -139 -45t-47 -131v-81q0 -61 29.5 -103.5t73.5 -69t120 -62.5q8 -3 14.5 -6.5t14.5 -6.5q4 -2 8.5 -4t8.5 -4q85 -40 139.5 -79.5t91 -107.5t36.5 -172v-112q0 -112 -39.5 -188t-117 -115t-192.5 -39
q-116 0 -195 38.5z" />
    <glyph glyph-name="uni0406" unicode="&#x406;" horiz-adv-x="386" 
d="M277 0h-167v1454h167v-1454z" />
    <glyph glyph-name="uni0407" unicode="&#x407;" horiz-adv-x="386" 
d="M277 0h-167v1454h167v-1454zM282 1747h167v-167h-167v167zM-63 1747h167v-167h-167v167z" />
    <glyph glyph-name="uni0408" unicode="&#x408;" horiz-adv-x="725" 
d="M134 24q-76 39 -124 110l122 104q34 -44 81 -68t98 -24q70 0 108.5 44.5t38.5 125.5v1138h167v-1142q0 -103 -38 -176.5t-110.5 -112t-175.5 -38.5q-91 0 -167 39z" />
    <glyph glyph-name="uni0409" unicode="&#x409;" horiz-adv-x="1381" 
d="M679 157h327q41 0 71.5 19t46 54.5t15.5 85.5v232q0 52 -15.5 89t-45.5 56t-72 19h-327v157h319q98 0 167 -37.5t105 -109t36 -172.5v-237q0 -99 -36.5 -169t-105.5 -107t-166 -37h-319v157zM110 161h11q31 0 53 15.5t34 43.5t12 67v1167h167v-1179q0 -84 -29.5 -146.5
t-85 -95.5t-131.5 -33h-31v161zM654 1454h167v-1454h-167v1454zM326 1454h419v-157h-419v157z" />
    <glyph glyph-name="uni040A" unicode="&#x40a;" horiz-adv-x="1330" 
d="M694 157h261q41 0 71.5 19t46 54.5t15.5 85.5v232q0 52 -15.5 89t-45.5 56t-72 19h-261v157h253q98 0 167 -37.5t105 -109t36 -172.5v-237q0 -99 -36.5 -169t-105.5 -107t-166 -37h-253v157zM603 1454h167v-1454h-167v1454zM100 1454h168v-1454h-168v1454zM227 795h447
v-157h-447v157z" />
    <glyph glyph-name="uni040B" unicode="&#x40b;" horiz-adv-x="1094" 
d="M817 721q0 88 -46.5 134.5t-134.5 46.5q-92 0 -140.5 -47.5t-48.5 -138.5l-21 147q30 95 101.5 144t173.5 49q136 0 209.5 -72.5t73.5 -207.5v-776h-167v721zM280 1335h167v-1335h-167v1335zM0 1454h716v-157h-716v157z" />
    <glyph glyph-name="uni040C" unicode="&#x40c;" horiz-adv-x="889" 
d="M425 785l237 669h176l-305 -816zM419 659l149 86l331 -745h-188zM100 1454h167v-1454h-167v1454zM199 801h370v-157h-370v157zM338 1643l250 256l127 -122l-272 -233z" />
    <glyph glyph-name="uni040D" unicode="&#x40d;" horiz-adv-x="914" 
d="M656 1v1118l24 -26l-452 -1092h-128v1453h158v-1125l-24 26l454 1099h126v-1453h-158zM174 1777l127 122l237 -256l-105 -99z" />
    <glyph glyph-name="uni040E" unicode="&#x40e;" horiz-adv-x="805" 
d="M50 1454h177l225 -1147l-102 -163zM555 296q-24 -104 -66 -173t-104 -103.5t-144 -34.5h-89v162h89q46 0 82 25.5t61.5 76t41.5 126.5l227 1079h167zM717 1862q0 -144 -69 -224t-194 -80h-8q-125 0 -194 80t-69 224l148 -1q0 -81 30 -126t85 -45h8q55 0 85.5 45t30.5 126
z" />
    <glyph glyph-name="uni040F" unicode="&#x40f;" horiz-adv-x="872" 
d="M772 1454v-1454h-167v1454h167zM267 1454v-1454h-167v1454h167zM675 157v-157h-447v157h447zM520 104v-405h-167v405h167z" />
    <glyph glyph-name="uni0410" unicode="&#x410;" horiz-adv-x="906" 
d="M366 1454h174l336 -1454h-182l-241 1225l-241 -1225h-182zM231 492h463v-157h-463v157z" />
    <glyph glyph-name="uni0411" unicode="&#x411;" horiz-adv-x="875" 
d="M205 157h295q41 0 71.5 19t46 54.5t15.5 85.5v232q0 52 -15.5 89t-45.5 56t-72 19h-295v157h287q98 0 167 -37.5t105 -109t36 -172.5v-237q0 -99 -36.5 -169t-105.5 -107t-166 -37h-287v157zM100 1454h167v-1454h-167v1454zM227 1454h487v-157h-487v157z" />
    <glyph glyph-name="uni0412" unicode="&#x412;" horiz-adv-x="859" 
d="M220 157h261q65 0 100.5 32.5t35.5 91.5v224q0 55 -18.5 94.5t-51.5 60t-76 20.5h-251v157h251q61 0 94 41.5t33 117.5v178q0 59 -33 91t-92 32h-253v157h249q94 0 160.5 -31.5t101 -92t34.5 -146.5v-174q0 -69 -19 -122t-54.5 -87t-86.5 -46q57 -10 97 -45t61 -90.5
t21 -129.5v-213q0 -88 -33.5 -150t-98 -94.5t-156.5 -32.5h-276v157zM100 1454h167v-1454h-167v1454z" />
    <glyph glyph-name="uni0413" unicode="&#x413;" horiz-adv-x="624" 
d="M100 1454h167v-1454h-167v1454zM227 1454h397v-157h-397v157z" />
    <glyph glyph-name="uni0414" unicode="&#x414;" horiz-adv-x="996" 
d="M48 157h24q65 0 97.5 79t32.5 227v991h167v-989q0 -137 -29 -229.5t-90 -141.5t-158 -49h-44v112zM20 157h167v-438h-167v438zM20 157h840v-157h-840v157zM794 157h167v-438h-167v438zM654 1454h167v-1454h-167v1454zM329 1454h401v-157h-401v157z" />
    <glyph glyph-name="uni0415" unicode="&#x415;" horiz-adv-x="774" 
d="M100 1454h167v-1454h-167v1454zM199 157h525v-157h-525v157zM199 801h475v-157h-475v157zM199 1454h525v-157h-525v157z" />
    <glyph glyph-name="uni0416" unicode="&#x416;" horiz-adv-x="1370" 
d="M874 785l267 669h178l-335 -816zM868 659l151 86l361 -745h-190zM351 745l152 -86l-322 -659h-191zM51 1454h179l267 -669l-111 -147zM350 801h670v-157h-670v157zM602 1454h167v-1454h-167v1454z" />
    <glyph glyph-name="uni0417" unicode="&#x417;" horiz-adv-x="868" 
d="M252.5 26q-84.5 41 -128.5 119t-44 188v75h162v-66q0 -93 56 -144t158 -51q97 0 151 55t54 154v156q0 78 -38 120.5t-109 42.5h-211v162h211q59 0 91 34.5t32 96.5v155q0 88 -47 136t-135 48q-90 0 -139.5 -48.5t-49.5 -136.5v-71h-162v70q0 110 42.5 188t123.5 119
t195 41q106 0 180.5 -41t114 -119.5t39.5 -188.5v-154q0 -53 -33 -107t-93 -100q71 -29 110.5 -94t39.5 -153v-156q0 -117 -43 -200.5t-125.5 -127t-198.5 -43.5q-119 0 -203.5 41z" />
    <glyph glyph-name="uni0418" unicode="&#x418;" horiz-adv-x="914" 
d="M656 1v1118l24 -26l-452 -1092h-128v1453h158v-1125l-24 26l454 1099h126v-1453h-158z" />
    <glyph glyph-name="uni0419" unicode="&#x419;" horiz-adv-x="914" 
d="M656 1v1118l24 -26l-452 -1092h-128v1453h158v-1125l-24 26l454 1099h126v-1453h-158zM724 1862q0 -144 -69 -224t-194 -80h-8q-125 0 -194 80t-69 224l148 -1q0 -81 30 -126t85 -45h8q55 0 85.5 45t30.5 126z" />
    <glyph glyph-name="uni041A" unicode="&#x41a;" horiz-adv-x="889" 
d="M425 785l237 669h176l-305 -816zM419 659l149 86l331 -745h-188zM100 1454h167v-1454h-167v1454zM199 801h370v-157h-370v157z" />
    <glyph glyph-name="uni041B" unicode="&#x41b;" horiz-adv-x="921" 
d="M110 161h11q31 0 53 15.5t34 43.5t12 67v1167h167v-1179q0 -84 -29.5 -146.5t-85 -95.5t-131.5 -33h-31v161zM654 1454h167v-1454h-167v1454zM326 1454h419v-157h-419v157z" />
    <glyph glyph-name="uni041C" unicode="&#x41c;" horiz-adv-x="1136" 
d="M882 1454h154v-1454h-156v1135l13 -64l-264 -851h-122l-263 831l16 84v-1135h-160v1454h158l310 -986z" />
    <glyph glyph-name="uni041D" unicode="&#x41d;" horiz-adv-x="870" 
d="M603 1454h167v-1454h-167v1454zM100 1454h168v-1454h-168v1454zM227 795h447v-157h-447v157z" />
    <glyph glyph-name="uni041E" unicode="&#x41e;" horiz-adv-x="922" 
d="M266 28q-81 43 -123.5 125t-42.5 198v753q0 116 42.5 198t123.5 124.5t195 42.5t195 -42.5t123.5 -124.5t42.5 -198v-753q0 -116 -42.5 -198t-123.5 -125t-195 -43t-195 43zM566.5 171q43.5 23 66 67t22.5 106v766q0 62 -22.5 106t-66 67t-105.5 23q-61 0 -104.5 -23
t-66.5 -67t-23 -106v-766q0 -62 23 -106t66.5 -67t104.5 -23q62 0 105.5 23z" />
    <glyph glyph-name="uni041F" unicode="&#x41f;" horiz-adv-x="870" 
d="M603 1454h167v-1454h-167v1454zM100 1454h167v-1454h-167v1454zM219 1454h455v-157h-455v157z" />
    <glyph glyph-name="uni0420" unicode="&#x420;" horiz-adv-x="895" 
d="M205 721h293q41 0 71.5 19t46 54.5t15.5 85.5v253q0 52 -15.5 89t-45.5 56t-72 19h-293v157h287q98 0 167 -37.5t105 -109t36 -172.5v-258q0 -99 -36.5 -169t-105.5 -107t-166 -37h-287v157zM100 1454h167v-1454h-167v1454z" />
    <glyph glyph-name="uni0421" unicode="&#x421;" horiz-adv-x="856" 
d="M256 29q-76 44 -116 127.5t-40 200.5v739q0 118 40 201.5t115.5 127.5t182.5 44t183 -44t115.5 -127.5t39.5 -200.5v-57h-168v57q0 67 -19.5 114t-58 71.5t-92.5 24.5q-53 0 -91 -24.5t-58.5 -72t-20.5 -114.5v-739q0 -66 20.5 -113t58.5 -72t91 -25q54 0 92.5 25t58 72
t19.5 113v58h168v-58q0 -117 -39.5 -200.5t-115.5 -127.5t-183 -44q-106 0 -182 44z" />
    <glyph glyph-name="uni0422" unicode="&#x422;" horiz-adv-x="706" 
d="M270 1335h167v-1335h-167v1335zM0 1454h706v-157h-706v157z" />
    <glyph glyph-name="uni0423" unicode="&#x423;" horiz-adv-x="805" 
d="M50 1454h177l225 -1147l-102 -163zM555 296q-24 -104 -66 -173t-104 -103.5t-144 -34.5h-89v162h89q46 0 82 25.5t61.5 76t41.5 126.5l227 1079h167z" />
    <glyph glyph-name="uni0424" unicode="&#x424;" horiz-adv-x="1162" 
d="M299 211q-117 56 -178 163t-61 258v240q0 151 61 258t178 163t282 56t282 -56t178 -163t61 -258v-240q0 -151 -61 -258t-178 -163t-282 -56t-282 56zM498 1504h167v-1504h-167v1504zM842 399.5q93 82.5 93 232.5v240q0 150 -93 232.5t-261 82.5t-261 -82.5t-93 -232.5
v-240q0 -150 93 -232.5t261 -82.5t261 82.5z" />
    <glyph glyph-name="uni0425" unicode="&#x425;" horiz-adv-x="802" 
d="M368 638l-31 51l-325 765h181l226 -590l34 -56l349 -808h-180zM359 831l241 623h180l-334 -788l-265 -666h-181z" />
    <glyph glyph-name="uni0426" unicode="&#x426;" horiz-adv-x="946" 
d="M604 1454h167v-1454h-167v1454zM198 157h562v-157h-562v157zM745 157h167v-458h-167v458zM100 1454h167v-1454h-167v1454z" />
    <glyph glyph-name="uni0427" unicode="&#x427;" horiz-adv-x="806" 
d="M539 1454h167v-1454h-167v1454zM195 496q-61 41 -93 120t-32 190v648h167v-649q0 -92 41 -142.5t115 -50.5q70 0 108 53.5t38 149.5v93h64v-108q0 -109 -30.5 -186.5t-88.5 -118t-141 -40.5q-87 0 -148 41z" />
    <glyph glyph-name="uni0428" unicode="&#x428;" horiz-adv-x="1070" 
d="M803 1454h167v-1454h-167v1454zM227 157h646v-157h-646v157zM100 1454h167v-1454h-167v1454zM452 1454h167v-1454h-167v1454z" />
    <glyph glyph-name="uni0429" unicode="&#x429;" horiz-adv-x="1145" 
d="M227 157h652v-157h-652v157zM807 1454h167v-1454h-167v1454zM100 1454h167v-1454h-167v1454zM454 1454h167v-1454h-167v1454zM949 157h166v-458h-166v458z" />
    <glyph glyph-name="uni042A" unicode="&#x42a;" horiz-adv-x="933" 
d="M-70 1454h395v-157h-395v157zM288 157h270q41 0 71.5 19t46 54.5t15.5 85.5v232q0 52 -15.5 89t-45.5 56t-72 19h-270v157h262q98 0 167 -37.5t105 -109t36 -172.5v-237q0 -99 -36.5 -169t-105.5 -107t-166 -37h-262v157zM183 1454h167v-1454h-167v1454z" />
    <glyph glyph-name="uni042B" unicode="&#x42b;" horiz-adv-x="1156" 
d="M205 157h270q41 0 71.5 19t46 54.5t15.5 85.5v232q0 52 -15.5 89t-45.5 56t-72 19h-270v157h262q98 0 167 -37.5t105 -109t36 -172.5v-237q0 -99 -36.5 -169t-105.5 -107t-166 -37h-262v157zM100 1454h167v-1454h-167v1454zM1047 0h-167v1454h167v-1454z" />
    <glyph glyph-name="uni042C" unicode="&#x42c;" horiz-adv-x="870" 
d="M205 157h290q41 0 71.5 19t46 54.5t15.5 85.5v232q0 52 -15.5 89t-45.5 56t-72 19h-290v157h282q98 0 167 -37.5t105 -109t36 -172.5v-237q0 -99 -36.5 -169t-105.5 -107t-166 -37h-282v157zM100 1454h167v-1454h-167v1454z" />
    <glyph glyph-name="uni042D" unicode="&#x42d;" horiz-adv-x="856" 
d="M235 29q-76 44 -115.5 127.5t-39.5 200.5v58h168v-58q0 -66 20 -113t58 -72t92 -25t92 25t58 72t20 113v739q0 67 -20 114.5t-58 72t-92 24.5t-92 -24.5t-58 -71.5t-20 -114v-57h-168v57q0 117 39.5 200.5t115.5 127.5t183 44t182.5 -44t115.5 -127.5t40 -201.5v-739
q0 -117 -40 -200.5t-116 -127.5t-182 -44q-107 0 -183 44zM172 803h485v-162h-485v162z" />
    <glyph glyph-name="uni042E" unicode="&#x42e;" horiz-adv-x="1290" 
d="M201 801h395v-157h-395v157zM279 0h-167v1454h167v-1454zM634 28q-81 43 -123.5 125t-42.5 198v753q0 116 42.5 198t123.5 124.5t195 42.5t195 -42.5t123.5 -124.5t42.5 -198v-753q0 -116 -42.5 -198t-123.5 -125t-195 -43t-195 43zM934.5 171q43.5 23 66 67t22.5 106
v766q0 62 -22.5 106t-66 67t-105.5 23q-61 0 -104.5 -23t-66.5 -67t-23 -106v-766q0 -62 23 -106t66.5 -67t104.5 -23q62 0 105.5 23z" />
    <glyph glyph-name="uni042F" unicode="&#x42f;" horiz-adv-x="875" 
d="M246 625q-83 40 -126.5 116.5t-43.5 183.5v200q0 104 43.5 178.5t126.5 113t199 38.5h241v-157h-258q-58 0 -99.5 -22.5t-63.5 -66.5t-22 -105v-178q0 -58 22 -99t63.5 -62.5t99.5 -21.5h258v-158h-241q-116 0 -199 40zM322 676l144 -46l-211 -630h-180zM608 1455h167
v-1455h-167v1455z" />
    <glyph glyph-name="uni0430" unicode="&#x430;" horiz-adv-x="835" 
d="M566 760q0 73 -40 113.5t-113 40.5q-64 0 -99.5 -40.5t-35.5 -113.5h-162q0 141 79 218.5t223 77.5q97 0 166 -35t105 -101t36 -160v-760h-159v760zM161 57.5q-66 72.5 -66 218.5q0 175 80 261.5t241 86.5h159l14 -137h-172q-83 0 -124 -52.5t-41 -158.5q0 -77 37 -115
t110 -38q84 0 125.5 45t41.5 136l21 -91q-1 -76 -26.5 -127t-76 -76t-125.5 -25q-132 0 -198 72.5z" />
    <glyph glyph-name="uni0431" unicode="&#x431;" horiz-adv-x="796" 
d="M247 20.5q-67 35.5 -102 103t-35 162.5v431l133 148q31 72 91 111.5t134 39.5q75 0 128.5 -34.5t81.5 -101t28 -160.5v-437q0 -94 -35 -161t-102 -102t-161 -35t-161 35.5zM504 185q35 38 35 106v421q0 67 -35 104.5t-97 37.5q-61 0 -95.5 -37.5t-34.5 -104.5v-421
q0 -68 34.5 -106t95.5 -38q62 0 97 38zM110 993q0 88 30.5 149t90 102t151.5 72q53 17 84 35.5t46.5 43t15.5 59.5h165q0 -69 -22 -117.5t-65 -81t-112 -54.5q-76 -23 -122.5 -51t-70.5 -68.5t-24 -101.5v-426h-167v439z" />
    <glyph glyph-name="uni0432" unicode="&#x432;" horiz-adv-x="784" 
d="M230 157h242q36 0 55.5 22.5t19.5 65.5v110q0 54 -31 84t-84 30h-202v157h202q46 0 71 25.5t25 71.5v91q0 31 -19.5 49t-54.5 18h-224v157h243q106 0 164 -52.5t58 -148.5v-118q0 -70 -36.5 -115.5t-103.5 -58.5q76 -13 117.5 -62t41.5 -128v-132q0 -106 -61 -164.5
t-173 -58.5h-250v157zM110 1038h167v-1038h-167v1038z" />
    <glyph glyph-name="uni0433" unicode="&#x433;" horiz-adv-x="629" 
d="M110 1038h167v-1038h-167v1038zM226 1038h368v-157h-368v157z" />
    <glyph glyph-name="uni0434" unicode="&#x434;" horiz-adv-x="926" 
d="M56 157h24q34 0 58.5 28t37.5 80.5t13 127.5v645h167v-673q0 -163 -66 -245.5t-190 -82.5h-44v120zM28 157h167v-418h-167v418zM28 157h760v-157h-760v157zM732 157h167v-418h-167v418zM587 1038h167v-1038h-167v1038zM301 1038h347v-157h-347v157z" />
    <glyph glyph-name="uni0435" unicode="&#x435;" horiz-adv-x="802" 
d="M235.5 25.5q-70.5 40.5 -108 118t-37.5 186.5v361q0 116 36.5 198t105.5 124.5t166 42.5q99 0 168.5 -39.5t106 -115t36.5 -182.5v-266h-508v145h345v117q0 90 -38.5 139t-109.5 49q-69 0 -107 -52t-38 -149v-377q0 -87 40 -135.5t113 -48.5q68 0 105.5 37.5t37.5 105.5
v7h163v-7q0 -143 -80 -221t-226 -78q-100 0 -170.5 40.5z" />
    <glyph glyph-name="uni0436" unicode="&#x436;" horiz-adv-x="1130" 
d="M696 457l123 110l321 -567h-175zM311 567l124 -110l-269 -457h-176zM26 1038h169l237 -469l-118 -118zM482 1038h167v-1038h-167v1038zM315 591h520v-154h-520v154zM699 569l237 469h168l-288 -587z" />
    <glyph glyph-name="uni0437" unicode="&#x437;" horiz-adv-x="674" 
d="M171 15.5q-64 30.5 -97.5 88t-33.5 138.5v71h157v-51q0 -59 33.5 -92t94.5 -33q60 0 93.5 34t33.5 95v116q0 46 -31.5 71t-89.5 25h-107v142h107q46 0 71.5 19.5t25.5 55.5v105q0 50 -30.5 77t-85.5 27t-85 -27.5t-30 -77.5v-51h-157v61q0 118 71 182.5t201 64.5
t201.5 -64.5t71.5 -183.5v-115q0 -45 -21.5 -80.5t-69.5 -60.5q58 -16 86.5 -56t28.5 -104v-137q0 -128 -74 -199t-210 -71q-90 0 -154 30.5z" />
    <glyph glyph-name="uni0438" unicode="&#x438;" horiz-adv-x="819" 
d="M552 1v748l24 -26l-334 -722h-132v1037h157v-761l-24 26l336 735h130v-1037h-157z" />
    <glyph glyph-name="uni0439" unicode="&#x439;" horiz-adv-x="819" 
d="M552 1v748l24 -26l-334 -722h-132v1037h157v-761l-24 26l336 735h130v-1037h-157zM219.5 1306.5q-62.5 65.5 -62.5 184.5v70h142v-72q0 -55 25.5 -85.5t70.5 -30.5h18q46 0 71 30.5t25 85.5v72h142v-70q0 -119 -62.5 -184.5t-175.5 -65.5h-18q-113 0 -175.5 65.5z" />
    <glyph glyph-name="uni043A" unicode="&#x43a;" horiz-adv-x="789" 
d="M418 569l172 469h173l-223 -587zM110 1038h167v-1038h-167v1038zM415 457l128 110l256 -567h-180zM209 591h350v-154h-350v154z" />
    <glyph glyph-name="uni043B" unicode="&#x43b;" horiz-adv-x="809" 
d="M40 145q44 0 66.5 28t22.5 81v784h167v-797q0 -81 -26.5 -137t-79.5 -84.5t-130 -28.5h-20v154zM532 1038h167v-1038h-167v1038zM256 1038h347v-157h-347v157z" />
    <glyph glyph-name="uni043C" unicode="&#x43c;" horiz-adv-x="902" 
d="M633 1038h159v-1038h-147v810l14 -64l-157 -506h-102l-159 496l16 74v-810h-147v1038h160l181 -580z" />
    <glyph glyph-name="uni043D" unicode="&#x43d;" horiz-adv-x="817" 
d="M540 1038h167v-1038h-167v1038zM110 1038h167v-1038h-167v1038zM223 589h413v-157h-413v157z" />
    <glyph glyph-name="uni043E" unicode="&#x43e;" horiz-adv-x="776" 
d="M228 20.5q-67 35.5 -102.5 103.5t-35.5 163v473q0 94 35.5 160.5t102.5 101t161 34.5t161 -34.5t101.5 -101t34.5 -160.5v-476q0 -94 -34.5 -161.5t-101.5 -102.5t-161 -35t-161 35.5zM484.5 182q34.5 37 34.5 106v468q0 66 -34.5 103.5t-96.5 37.5t-96.5 -37.5
t-34.5 -103.5v-468q0 -68 34.5 -105.5t96.5 -37.5t96.5 37z" />
    <glyph glyph-name="uni043F" unicode="&#x43f;" horiz-adv-x="817" 
d="M540 1038h167v-1038h-167v1038zM110 1038h167v-1038h-167v1038zM223 1038h402v-157h-402v157z" />
    <glyph glyph-name="uni0440" unicode="&#x440;" horiz-adv-x="824" 
d="M110 1038h167v-1460h-167v1460zM344.5 32.5q-59.5 47.5 -81.5 130.5l14 159q0 -59 17 -101t50 -64.5t78 -22.5q70 0 109 50.5t39 141.5v394q0 89 -39 138t-109 49q-45 0 -78 -21.5t-50 -62.5t-17 -99l-21 142q32 90 96 140t141 50t131 -38.5t82 -113t28 -179.5v-402
q0 -107 -29.5 -183t-85.5 -115.5t-135 -39.5q-80 0 -139.5 47.5z" />
    <glyph glyph-name="uni0441" unicode="&#x441;" horiz-adv-x="772" 
d="M234 21.5q-70 36.5 -107 106t-37 167.5v436q0 103 37 176t107.5 111t169.5 38q100 0 171 -38t108 -111.5t37 -177.5v-21h-162v21q0 82 -39.5 127t-111.5 45q-71 0 -110.5 -44.5t-39.5 -125.5v-436q0 -74 39.5 -114t110.5 -40q72 0 111.5 41.5t39.5 116.5v21h164v-21
q0 -99 -37.5 -169.5t-108.5 -107.5t-172 -37q-100 0 -170 36.5z" />
    <glyph glyph-name="uni0442" unicode="&#x442;" horiz-adv-x="662" 
d="M250 1038h162v-1038h-162v1038zM50 1038h562v-157h-562v157z" />
    <glyph glyph-name="uni0443" unicode="&#x443;" horiz-adv-x="769" 
d="M749 1038l-327 -1281q-16 -64 -54 -106t-98.5 -63t-145.5 -21h-20v158h20q77 0 119.5 35t60.5 106l275 1172h170zM40 1038h170l231 -891l-74 -222z" />
    <glyph glyph-name="uni0444" unicode="&#x444;" horiz-adv-x="1184" 
d="M679 79q-62 79 -62 222v441q0 142 62 219t176 77t176.5 -77t62.5 -219v-444q0 -142 -62.5 -220t-176.5 -78t-176 79zM153 78q-63 78 -63 220v444q0 142 63 219t177 77q113 0 175.5 -77t62.5 -219v-441q0 -143 -62.5 -222t-175.5 -79q-114 0 -177 78zM476 193
q33 38 33 106v442q0 67 -33 104.5t-92 37.5t-93 -37.5t-34 -104.5v-442q0 -68 34 -106t93 -38t92 38zM509 1339h167v-1640h-167v1640zM893.5 193q33.5 38 33.5 106v442q0 67 -33.5 104.5t-93.5 37.5q-59 0 -91.5 -37.5t-32.5 -104.5v-442q0 -68 32.5 -106t91.5 -38
q60 0 93.5 38z" />
    <glyph glyph-name="uni0445" unicode="&#x445;" horiz-adv-x="804" 
d="M349 472l-298 566h183l213 -465l332 -573h-182zM348 565l79 -146l-210 -419h-182zM393 623l187 415h183l-299 -552z" />
    <glyph glyph-name="uni0446" unicode="&#x446;" horiz-adv-x="883" 
d="M540 1038h167v-1038h-167v1038zM223 157h402v-157h-402v157zM110 1038h167v-1038h-167v1038zM686 157h167v-418h-167v418z" />
    <glyph glyph-name="uni0447" unicode="&#x447;" horiz-adv-x="818" 
d="M541 1038h167v-1038h-167v1038zM229.5 337.5q-58.5 32.5 -89 94t-30.5 148.5v458h167v-455q0 -60 34.5 -93t96.5 -33q63 0 98 38.5t35 107.5v181h64v-184q0 -141 -61 -218t-174 -77q-82 0 -140.5 32.5z" />
    <glyph glyph-name="uni0448" unicode="&#x448;" horiz-adv-x="996" 
d="M223 154h603v-154h-603v154zM719 1038h167v-1038h-167v1038zM110 1038h167v-1038h-167v1038zM415 1038h167v-1038h-167v1038z" />
    <glyph glyph-name="uni0449" unicode="&#x449;" horiz-adv-x="1060" 
d="M203 157h602v-157h-602v157zM417 1038h167v-1038h-167v1038zM110 1038h167v-1038h-167v1038zM863 157h167v-418h-167v418zM723 1038h162v-1038h-162v1038z" />
    <glyph glyph-name="uni044A" unicode="&#x44a;" horiz-adv-x="878" 
d="M30 1038h258v-157h-258v157zM292 157h216q66 0 102 38t36 107v78q0 46 -16 79t-47 50t-75 17h-216v157h249q86 0 147 -32.5t93 -94.5t32 -150v-130q0 -87 -34 -149t-100 -94.5t-158 -32.5h-229v157zM204 1038h167v-1038h-167v1038z" />
    <glyph glyph-name="uni044B" unicode="&#x44b;" horiz-adv-x="1082" 
d="M802 1038h167v-1038h-167v1038zM213 157h186q66 0 102 38t36 107v78q0 46 -16 79t-47 50t-75 17h-186v157h219q86 0 147 -32.5t93 -94.5t32 -150v-130q0 -87 -34 -149t-100 -94.5t-158 -32.5h-199v157zM110 1038h167v-1038h-167v1038z" />
    <glyph glyph-name="uni044C" unicode="&#x44c;" horiz-adv-x="794" 
d="M198 157h226q66 0 102 38t36 107v78q0 46 -16 79t-47 50t-75 17h-226v157h259q86 0 147 -32.5t93 -94.5t32 -150v-130q0 -87 -34 -149t-100 -94.5t-158 -32.5h-239v157zM110 1038h167v-1038h-167v1038z" />
    <glyph glyph-name="uni044D" unicode="&#x44d;" horiz-adv-x="772" 
d="M236 432v157h323v-157h-323zM196.5 22q-71.5 37 -109 107.5t-37.5 169.5v21h164v-21q0 -80 40 -124t111 -44q72 0 111 43t39 121v433q0 81 -39.5 125.5t-110.5 44.5t-110.5 -45t-39.5 -127v-21h-163v21q0 104 37 177.5t108 111.5t171 38q99 0 169.5 -38t107.5 -111
t37 -176v-433q0 -98 -37 -167.5t-107 -106t-170 -36.5t-171.5 37z" />
    <glyph glyph-name="uni044E" unicode="&#x44e;" horiz-adv-x="1132" 
d="M233 589h293v-157h-293v157zM120 1038h167v-1038h-167v1038zM584 20.5q-67 35.5 -102.5 103.5t-35.5 163v473q0 94 35.5 160.5t102.5 101t161 34.5t161 -34.5t101.5 -101t34.5 -160.5v-476q0 -94 -34.5 -161.5t-101.5 -102.5t-161 -35t-161 35.5zM840.5 182
q34.5 37 34.5 106v468q0 66 -34.5 103.5t-96.5 37.5t-96.5 -37.5t-34.5 -103.5v-468q0 -68 34.5 -105.5t96.5 -37.5t96.5 37z" />
    <glyph glyph-name="uni044F" unicode="&#x44f;" horiz-adv-x="809" 
d="M352 345q-86 0 -147 32.5t-93 94.5t-32 150v140q0 87 34 149t100 94.5t158 32.5h240v-157h-227q-66 0 -102 -38t-36 -107v-88q0 -46 16.5 -78.5t47.5 -50t74 -17.5h227v-157h-260zM532 0v1038h167v-1038h-167zM89 0l187 446l160 -46l-168 -400h-179z" />
    <glyph glyph-name="uni0450" unicode="&#x450;" horiz-adv-x="802" 
d="M235.5 25.5q-70.5 40.5 -108 118t-37.5 186.5v361q0 116 36.5 198t105.5 124.5t166 42.5q99 0 168.5 -39.5t106 -115t36.5 -182.5v-266h-508v145h345v117q0 90 -38.5 139t-109.5 49q-69 0 -107 -52t-38 -149v-377q0 -87 40 -135.5t113 -48.5q68 0 105.5 37.5t37.5 105.5
v7h163v-7q0 -143 -80 -221t-226 -78q-100 0 -170.5 40.5zM122 1562l132 97l246 -355l-113 -78z" />
    <glyph glyph-name="uni0451" unicode="&#x451;" horiz-adv-x="802" 
d="M235.5 25.5q-70.5 40.5 -108 118t-37.5 186.5v361q0 116 36.5 198t105.5 124.5t166 42.5q99 0 168.5 -39.5t106 -115t36.5 -182.5v-266h-508v145h345v117q0 90 -38.5 139t-109.5 49q-69 0 -107 -52t-38 -149v-377q0 -87 40 -135.5t113 -48.5q68 0 105.5 37.5t37.5 105.5
v7h163v-7q0 -143 -80 -221t-226 -78q-100 0 -170.5 40.5zM478 1419h167v-167h-167v167zM158 1419h167v-167h-167v167z" />
    <glyph glyph-name="uni0452" unicode="&#x452;" horiz-adv-x="865" 
d="M438 -265h67q40 0 61.5 25t21.5 70v769q0 91 -37 136t-113 45q-75 0 -112.5 -46t-37.5 -140l-21 154q32 97 96.5 142.5t149.5 45.5q118 0 180 -77t62 -223v-806q0 -120 -61 -186t-173 -66h-83v157zM121 1454h167v-1454h-167v1454zM-30 1240h531v-157h-531v157z" />
    <glyph glyph-name="uni0453" unicode="&#x453;" horiz-adv-x="629" 
d="M110 1038h167v-1038h-167v1038zM226 1038h368v-157h-368v157zM258 1304l246 355l132 -97l-265 -336z" />
    <glyph glyph-name="uni0454" unicode="&#x454;" horiz-adv-x="772" 
d="M213 589h323v-157h-323v157zM234 21.5q-70 36.5 -107 106t-37 167.5v436q0 103 37 176t107.5 111t169.5 38q100 0 171 -38t108 -111.5t37 -177.5v-21h-162v21q0 82 -39.5 127t-111.5 45q-71 0 -110.5 -44.5t-39.5 -125.5v-436q0 -74 39.5 -114t110.5 -40q72 0 111.5 41.5
t39.5 116.5v21h164v-21q0 -99 -37.5 -169.5t-108.5 -107.5t-172 -37q-100 0 -170 36.5z" />
    <glyph glyph-name="uni0455" unicode="&#x455;" horiz-adv-x="738" 
d="M203 21q-70 36 -106.5 106t-36.5 169v4h161v-4q0 -80 39 -122.5t114 -42.5t114.5 40.5t39.5 117.5q0 43 -19.5 71.5t-50.5 45.5t-82 35q-6 1 -11.5 3t-11.5 4q-4 1 -8 2.5t-8 2.5q-82 27 -135.5 56.5t-91 88.5t-37.5 156t34 164.5t99.5 102.5t159.5 35q95 0 160.5 -33.5
t99 -98.5t33.5 -158v-3h-160v4q0 70 -34 106.5t-99 36.5t-98.5 -39t-33.5 -113q0 -48 21.5 -78.5t56.5 -48t89 -33.5q2 -1 5.5 -1.5t5.5 -1.5t4 -1.5t4 -0.5q85 -26 139 -53.5t91.5 -87.5t37.5 -163q0 -98 -36 -166t-106.5 -103t-171.5 -35t-171 36z" />
    <glyph glyph-name="uni0456" unicode="&#x456;" horiz-adv-x="406" 
d="M120 1419h167v-167h-167v167zM120 1038h167v-1038h-167v1038z" />
    <glyph glyph-name="uni0457" unicode="&#x457;" horiz-adv-x="406" 
d="M120 1038h167v-1038h-167v1038zM280 1419h167v-167h-167v167zM-40 1419h167v-167h-167v167z" />
    <glyph glyph-name="uni0458" unicode="&#x458;" horiz-adv-x="427" 
d="M0 -265h53q47 0 72 31t25 86v1186h167v-1185q0 -131 -63.5 -203t-179.5 -72h-74v157zM150 1446h167v-197h-167v197z" />
    <glyph glyph-name="uni0459" unicode="&#x459;" horiz-adv-x="1168" 
d="M610 157h188q66 0 102 38t36 107v78q0 46 -16 79t-47 50t-75 17h-188v157h221q86 0 147 -32.5t93 -94.5t32 -150v-130q0 -87 -34 -149t-100 -94.5t-158 -32.5h-201v157zM40 145q44 0 66.5 28t22.5 81v784h167v-797q0 -81 -26.5 -137t-79.5 -84.5t-130 -28.5h-20v154z
M532 1038h167v-1038h-167v1038zM256 1038h347v-157h-347v157z" />
    <glyph glyph-name="uni045A" unicode="&#x45a;" horiz-adv-x="1176" 
d="M610 157h196q66 0 102 38t36 107v78q0 46 -16 79t-47 50t-75 17h-196v157h229q86 0 147 -32.5t93 -94.5t32 -150v-130q0 -87 -34 -149t-100 -94.5t-158 -32.5h-209v157zM540 1038h167v-1038h-167v1038zM110 1038h167v-1038h-167v1038zM223 589h413v-157h-413v157z" />
    <glyph glyph-name="uni045B" unicode="&#x45b;" horiz-adv-x="865" 
d="M-30 1240h631v-157h-631v157zM121 1454h167v-1454h-167v1454zM588 607q0 87 -37 130.5t-113 43.5q-75 0 -112.5 -46.5t-37.5 -139.5l-21 158q36 92 97.5 137.5t145.5 45.5q121 0 183 -76t62 -225v-635h-167v607z" />
    <glyph glyph-name="uni045C" unicode="&#x45c;" horiz-adv-x="789" 
d="M418 569l172 469h173l-223 -587zM110 1038h167v-1038h-167v1038zM415 457l128 110l256 -567h-180zM209 591h350v-154h-350v154zM351 1304l246 355l132 -97l-265 -336z" />
    <glyph glyph-name="uni045D" unicode="&#x45d;" horiz-adv-x="819" 
d="M552 1v748l24 -26l-334 -722h-132v1037h157v-761l-24 26l336 735h130v-1037h-157zM125 1562l132 97l246 -355l-113 -78z" />
    <glyph glyph-name="uni045E" unicode="&#x45e;" horiz-adv-x="769" 
d="M749 1038l-327 -1281q-16 -64 -54 -106t-98.5 -63t-145.5 -21h-20v158h20q77 0 119.5 35t60.5 106l275 1172h170zM40 1038h170l231 -891l-74 -222zM220.5 1306.5q-62.5 65.5 -62.5 184.5v70h142v-72q0 -55 25.5 -85.5t70.5 -30.5h18q46 0 71 30.5t25 85.5v72h142v-70
q0 -119 -62.5 -184.5t-175.5 -65.5h-18q-113 0 -175.5 65.5z" />
    <glyph glyph-name="uni045F" unicode="&#x45f;" horiz-adv-x="818" 
d="M541 1038h167v-1038h-167v1038zM326 157h167v-418h-167v418zM223 157h382v-157h-382v157zM110 1038h167v-1038h-167v1038z" />
    <glyph glyph-name="uni0460" unicode="&#x460;" horiz-adv-x="1362" 
d="M252 27q-74 42 -113 122.5t-39 192.5v769q0 113 40 193.5t115.5 122.5t182.5 42h43v-155h-43q-53 0 -91.5 -23.5t-59 -69.5t-20.5 -110v-769q0 -62 19 -106.5t56 -67.5t88 -23q53 0 91 23t57.5 67.5t19.5 106.5v244h128v-244q0 -31 -2.5 -59t-7.5 -53
q-24 -118 -97.5 -181.5t-188.5 -63.5q-104 0 -178 42zM750.5 46.5q-70.5 61.5 -93.5 177.5q-5 27 -7.5 56.5t-2.5 61.5v244h118v-244q0 -62 19.5 -106.5t57 -67.5t91.5 -23q51 0 87.5 23t55.5 67.5t19 106.5v769q0 64 -20 110t-58.5 69.5t-92.5 23.5h-43v155h43
q107 0 183 -42t115.5 -122.5t39.5 -193.5v-769q0 -112 -38.5 -192.5t-113 -122.5t-177.5 -42q-112 0 -182.5 61.5z" />
    <glyph glyph-name="uni0461" unicode="&#x461;" horiz-adv-x="1234" 
d="M455 1038h181l226 -806q38 98 64 226.5t40 268t15 277.5v34h183q0 -169 -33 -361.5t-90 -370.5t-127 -306h-139zM30 1038h183l212 -811l215 537l71 -177l-237 -587h-139z" />
    <glyph glyph-name="uni0462" unicode="&#x462;" horiz-adv-x="900" 
d="M-25 1270h619v-157h-619v157zM235 157h290q41 0 71.5 19t46 54.5t15.5 85.5v232q0 52 -15.5 89t-45.5 56t-72 19h-290v157h282q98 0 167 -37.5t105 -109t36 -172.5v-237q0 -99 -36.5 -169t-105.5 -107t-166 -37h-282v157zM130 1454h167v-1454h-167v1454z" />
    <glyph glyph-name="uni0463" unicode="&#x463;" horiz-adv-x="833" 
d="M-30 1148h680v-157h-680v157zM237 157h226q66 0 102 38t36 107v78q0 46 -16 79t-47 50t-75 17h-226v157h259q86 0 147 -32.5t93 -94.5t32 -150v-130q0 -87 -34 -149t-100 -94.5t-158 -32.5h-239v157zM149 1340h167v-1340h-167v1340z" />
    <glyph glyph-name="uni0464" unicode="&#x464;" horiz-adv-x="1214" 
d="M201 801h365v-157h-365v157zM279 0h-167v1454h167v-1454zM557 803h485v-162h-485v162zM614 29q-76 44 -116 127.5t-40 200.5v739q0 118 40 201.5t115.5 127.5t182.5 44t183 -44t115.5 -127.5t39.5 -200.5v-57h-168v57q0 67 -19.5 114t-58 71.5t-92.5 24.5
q-53 0 -91 -24.5t-58.5 -72t-20.5 -114.5v-739q0 -66 20.5 -113t58.5 -72t91 -25q54 0 92.5 25t58 72t19.5 113v58h168v-58q0 -117 -39.5 -200.5t-115.5 -127.5t-183 -44q-106 0 -182 44z" />
    <glyph glyph-name="uni0465" unicode="&#x465;" horiz-adv-x="1148" 
d="M198 589h323v-157h-323v157zM120 1038h167v-1038h-167v1038zM589 589h323v-157h-323v157zM610 21.5q-70 36.5 -107 106t-37 167.5v436q0 103 37 176t107.5 111t169.5 38q151 0 233.5 -85t82.5 -242v-21h-162v21q0 82 -39.5 127t-111.5 45q-71 0 -110.5 -44.5
t-39.5 -125.5v-436q0 -74 39.5 -114t110.5 -40q72 0 111.5 41.5t39.5 116.5v21h164v-21q0 -149 -83 -231.5t-235 -82.5q-100 0 -170 36.5z" />
    <glyph glyph-name="uni0466" unicode="&#x466;" horiz-adv-x="966" 
d="M396 1454h174l366 -1454h-182l-271 1225l-271 -1225h-182zM403 534h161v-534h-161v534zM261 636h463v-157h-463v157z" />
    <glyph glyph-name="uni0467" unicode="&#x467;" horiz-adv-x="786" 
d="M306 1041h174l276 -1041h-167l-196 852l-196 -852h-167zM320 341h147v-341h-147v341zM224 417h343v-149h-343v149z" />
    <glyph glyph-name="uni0468" unicode="&#x468;" horiz-adv-x="1314" 
d="M233 636h463v-157h-463v157zM279 0h-167v1454h167v-1454zM744 1454h174l366 -1454h-182l-271 1225l-271 -1225h-182zM751 534h161v-534h-161v534zM609 636h463v-157h-463v157z" />
    <glyph glyph-name="uni0469" unicode="&#x469;" horiz-adv-x="1192" 
d="M225 418h374v-149h-374v149zM120 1038h167v-1038h-167v1038zM712 1041h174l276 -1041h-167l-196 852l-196 -852h-167zM726 341h147v-341h-147v341zM630 417h343v-149h-343v149z" />
    <glyph glyph-name="uni046A" unicode="&#x46a;" horiz-adv-x="1144" 
d="M194 1454h757v-157h-757v157zM408 704l-379 750h196l377 -785zM915 1454h196l-369 -750l-193 -33zM103 463q28 113 82.5 186t124.5 106.5t145 33.5l15 -154q-38 0 -77.5 -20.5t-72.5 -65.5t-48 -112l-94 -437h-188zM492 681h167v-681h-167v681zM455 789h36l79 -133
l87 133h29l2 -154h-228zM872 437q-15 67 -47.5 112t-72 65.5t-77.5 20.5l15 154q75 0 144.5 -34t124.5 -106.5t82 -185.5l113 -463h-188z" />
    <glyph glyph-name="uni046B" unicode="&#x46b;" horiz-adv-x="1044" 
d="M500 524l317 514h206l-371 -575zM71 283q46 158 142.5 231.5t250.5 73.5l-20 -158q-77 0 -124.5 -40.5t-69.5 -132.5l-62 -257h-198zM433 514h174v-514h-174v514zM444 588h34l37 -55l40 55h26l30 -158h-187zM6 1038h206l312 -498l-143 -74zM794 257q-22 92 -72.5 132.5
t-130.5 40.5l-20 158q156 0 256.5 -73t145.5 -232l81 -283h-198zM171 1038h697v-164h-697v164z" />
    <glyph glyph-name="uni046C" unicode="&#x46c;" horiz-adv-x="1552" 
d="M229 789h586v-154h-586v154zM279 0h-167v1454h167v-1454zM602 1454h757v-157h-757v157zM816 704l-379 750h196l377 -785zM1323 1454h196l-369 -750l-193 -33zM511 463q28 113 82.5 186t124.5 106.5t145 33.5l15 -154q-38 0 -77.5 -20.5t-72.5 -65.5t-48 -112l-94 -437
h-188zM900 681h167v-681h-167v681zM863 789h36l79 -133l87 133h29l2 -154h-228zM1280 437q-15 67 -47.5 112t-72 65.5t-77.5 20.5l15 154q75 0 144.5 -34t124.5 -106.5t82 -185.5l113 -463h-188z" />
    <glyph glyph-name="uni046D" unicode="&#x46d;" horiz-adv-x="1474" 
d="M224 588h562v-158h-562v158zM120 1038h167v-1038h-167v1038zM930 524l317 514h206l-371 -575zM501 283q46 158 143 231.5t250 73.5l-20 -158q-77 0 -124.5 -40.5t-69.5 -132.5l-62 -257h-198zM863 514h174v-514h-174v514zM874 588h34l37 -55l40 55h26l30 -158h-187z
M436 1038h206l312 -498l-143 -74zM1224 257q-22 92 -72.5 132.5t-130.5 40.5l-20 158q156 0 256.5 -73t145.5 -232l81 -283h-198zM601 1038h697v-164h-697v164z" />
    <glyph glyph-name="uni046E" unicode="&#x46e;" horiz-adv-x="870" 
d="M378 -422q-142 0 -220 74t-78 208t78 208t220 74h45q103 0 159 56.5t56 158.5v155q0 79 -37 122.5t-104 43.5h-122v157h122q55 0 86 34.5t31 98.5v150q0 91 -46 141.5t-131 50.5q-87 0 -135.5 -51t-48.5 -142v-66h-167v70q0 166 94.5 257t266.5 91q106 0 180.5 -41
t114 -119.5t39.5 -188.5v-154q0 -35 -12.5 -71.5t-36 -71t-57.5 -64.5q62 -29 96 -93.5t34 -153.5v-156q0 -118 -46 -201.5t-132.5 -127t-208.5 -43.5h-45q-61 0 -94.5 -32.5t-33.5 -91.5q0 -60 33.5 -92.5t94.5 -32.5h329v-157h-324zM170 1784l92 96l183 -148l183 148
l93 -96l-276 -232z" />
    <glyph glyph-name="uni046F" unicode="&#x46f;" horiz-adv-x="699" 
d="M338 -422q-142 0 -220 74t-78 209q0 130 78 201.5t220 71.5h42q46 0 71.5 26.5t25.5 74.5v117q0 46 -26.5 71t-72.5 25h-109v144h109q35 0 55 19t20 54v135q0 51 -30 79.5t-85 28.5q-54 0 -84 -28.5t-30 -80.5v-61h-159v66q0 80 32 136.5t93.5 86t147.5 29.5
q130 0 201 -66t71 -187v-150q0 -26 -9 -49.5t-29 -44.5t-53 -37q37 -12 62.5 -33.5t39 -51t13.5 -65.5v-142q0 -116 -65.5 -180t-186.5 -65h-45q-62 0 -95.5 -32.5t-33.5 -90.5q0 -61 33.5 -94t95.5 -33h205v-157h-204zM91 1519l100 86l153 -184l153 184l100 -86l-253 -288z
" />
    <glyph glyph-name="uni0470" unicode="&#x470;" horiz-adv-x="1042" 
d="M286.5 422.5q-96.5 47.5 -146.5 139.5t-50 225v667h167v-674q0 -79 30.5 -134t90 -83t144.5 -28t144 28.5t89 83t30 133.5v674h167v-667q0 -133 -49.5 -225t-145.5 -139.5t-235 -47.5t-235.5 47.5zM442 1454h167v-1454h-167v1454z" />
    <glyph glyph-name="uni0471" unicode="&#x471;" horiz-adv-x="1142" 
d="M320 32.5q-103 47.5 -156.5 139.5t-53.5 225v641h167v-654q0 -82 34 -139.5t100 -87.5t161 -30t160.5 30t99 87.5t33.5 139.5v654h167v-641q0 -133 -53 -225t-156 -139.5t-251 -47.5q-149 0 -252 47.5zM490 1339h167v-1640h-167v1640z" />
    <glyph glyph-name="uni0472" unicode="&#x472;" horiz-adv-x="922" 
d="M199 801h515v-157h-515v157zM266 28q-81 43 -123.5 125t-42.5 198v753q0 116 42.5 198t123.5 124.5t195 42.5t195 -42.5t123.5 -124.5t42.5 -198v-753q0 -116 -42.5 -198t-123.5 -125t-195 -43t-195 43zM566.5 171q43.5 23 66 67t22.5 106v766q0 62 -22.5 106t-66 67
t-105.5 23q-61 0 -104.5 -23t-66.5 -67t-23 -106v-766q0 -62 23 -106t66.5 -67t104.5 -23q62 0 105.5 23z" />
    <glyph glyph-name="uni0473" unicode="&#x473;" horiz-adv-x="776" 
d="M159 593h455v-147h-455v147zM228 20.5q-67 35.5 -102.5 103.5t-35.5 163v473q0 94 35.5 160.5t102.5 101t161 34.5t161 -34.5t101.5 -101t34.5 -160.5v-476q0 -94 -34.5 -161.5t-101.5 -102.5t-161 -35t-161 35.5zM484.5 182q34.5 37 34.5 106v468q0 66 -34.5 103.5
t-96.5 37.5t-96.5 -37.5t-34.5 -103.5v-468q0 -68 34.5 -105.5t96.5 -37.5t96.5 37z" />
    <glyph glyph-name="uni0474" unicode="&#x474;" horiz-adv-x="804" 
d="M10 1454h175l216 -1201l186 1033q11 59 34.5 97.5t63 58t95.5 19.5h84v-157h-37q-34 0 -53.5 -17.5t-26.5 -53.5l-248 -1233h-196z" />
    <glyph glyph-name="uni0475" unicode="&#x475;" horiz-adv-x="874" 
d="M60 1038h170l176 -794l134 634q12 59 35 97.5t60 58t90 19.5h99v-157h-56q-34 0 -54 -17.5t-29 -53.5l-209 -825h-140z" />
    <glyph glyph-name="uni0476" unicode="&#x476;" horiz-adv-x="804" 
d="M111 1797l132 107l195 -276l-110 -84zM411 1797l132 107l195 -276l-110 -84zM10 1454h175l216 -1201l186 1033q11 59 34.5 97.5t63 58t95.5 19.5h84v-157h-37q-34 0 -53.5 -17.5t-26.5 -53.5l-248 -1233h-196z" />
    <glyph glyph-name="uni0477" unicode="&#x477;" horiz-adv-x="879" 
d="M38 1549l136 95l206 -355l-117 -76zM361 1549l136 95l206 -355l-117 -76zM65 1038h170l176 -794l134 634q12 59 35 97.5t60 58t90 19.5h99v-157h-56q-34 0 -54 -17.5t-29 -53.5l-209 -825h-140z" />
    <glyph glyph-name="uni0478" unicode="&#x478;" horiz-adv-x="1661" 
d="M266 28q-81 43 -123.5 125t-42.5 198v753q0 116 42.5 198t123.5 124.5t195 42.5t195 -42.5t123.5 -124.5t42.5 -198v-753q0 -116 -42.5 -198t-123.5 -125t-195 -43t-195 43zM566.5 171q43.5 23 66 67t22.5 106v766q0 62 -22.5 106t-66 67t-105.5 23q-61 0 -104.5 -23
t-66.5 -67t-23 -106v-766q0 -62 23 -106t66.5 -67t104.5 -23q62 0 105.5 23zM1641 1038l-327 -1281q-16 -64 -54 -106t-98.5 -63t-145.5 -21h-20v158h20q77 0 119.5 35t60.5 106l275 1172h170zM932 1038h170l231 -891l-74 -222z" />
    <glyph glyph-name="uni0479" unicode="&#x479;" horiz-adv-x="1525" 
d="M228 20.5q-67 35.5 -102.5 103.5t-35.5 163v473q0 94 35.5 160.5t102.5 101t161 34.5t161 -34.5t101.5 -101t34.5 -160.5v-476q0 -94 -34.5 -161.5t-101.5 -102.5t-161 -35t-161 35.5zM484.5 182q34.5 37 34.5 106v468q0 66 -34.5 103.5t-96.5 37.5t-96.5 -37.5
t-34.5 -103.5v-468q0 -68 34.5 -105.5t96.5 -37.5t96.5 37zM1505 1038l-327 -1281q-16 -64 -54 -106t-98.5 -63t-145.5 -21h-20v158h20q77 0 119.5 35t60.5 106l275 1172h170zM796 1038h170l231 -891l-74 -222z" />
    <glyph glyph-name="uni047A" unicode="&#x47a;" horiz-adv-x="922" 
d="M388 1586h146v-522h-146v522zM388 390h146v-522h-146v522zM266 28q-81 43 -123.5 125t-42.5 198v753q0 116 42.5 198t123.5 124.5t195 42.5t195 -42.5t123.5 -124.5t42.5 -198v-753q0 -116 -42.5 -198t-123.5 -125t-195 -43t-195 43zM566.5 171q43.5 23 66 67t22.5 106
v766q0 62 -22.5 106t-66 67t-105.5 23q-61 0 -104.5 -23t-66.5 -67t-23 -106v-766q0 -62 23 -106t66.5 -67t104.5 -23q62 0 105.5 23z" />
    <glyph glyph-name="uni047B" unicode="&#x47b;" horiz-adv-x="776" 
d="M334 1170h109v-452h-109v452zM334 320h109v-452h-109v452zM228 20.5q-67 35.5 -102.5 103.5t-35.5 163v473q0 94 35.5 160.5t102.5 101t161 34.5t161 -34.5t101.5 -101t34.5 -160.5v-476q0 -94 -34.5 -161.5t-101.5 -102.5t-161 -35t-161 35.5zM484.5 182
q34.5 37 34.5 106v468q0 66 -34.5 103.5t-96.5 37.5t-96.5 -37.5t-34.5 -103.5v-468q0 -68 34.5 -105.5t96.5 -37.5t96.5 37z" />
    <glyph glyph-name="uni047C" unicode="&#x47c;" horiz-adv-x="1362" 
d="M252 27q-74 42 -113 122.5t-39 192.5v769q0 113 40 193.5t115.5 122.5t182.5 42h43v-155h-43q-53 0 -91.5 -23.5t-59 -69.5t-20.5 -110v-769q0 -62 19 -106.5t56 -67.5t88 -23q53 0 91 23t57.5 67.5t19.5 106.5v244h128v-244q0 -31 -2.5 -59t-7.5 -53
q-24 -118 -97.5 -181.5t-188.5 -63.5q-104 0 -178 42zM750.5 46.5q-70.5 61.5 -93.5 177.5q-5 27 -7.5 56.5t-2.5 61.5v244h118v-244q0 -62 19.5 -106.5t57 -67.5t91.5 -23q51 0 87.5 23t55.5 67.5t19 106.5v769q0 64 -20 110t-58.5 69.5t-92.5 23.5h-43v155h43
q107 0 183 -42t115.5 -122.5t39.5 -193.5v-769q0 -112 -38.5 -192.5t-113 -122.5t-177.5 -42q-112 0 -182.5 61.5zM390 1812h581v-148h-581v148zM390 1763h167v-192h-167v192zM805 1906h167v-202h-167v202z" />
    <glyph glyph-name="uni047D" unicode="&#x47d;" horiz-adv-x="1234" 
d="M455 1038h181l226 -806q38 98 64 226.5t40 268t15 277.5v34h183q0 -169 -33 -361.5t-90 -370.5t-127 -306h-139zM30 1038h183l212 -811l215 537l71 -177l-237 -587h-139zM324 1396h581v-148h-581v148zM324 1347h167v-192h-167v192zM739 1490h167v-202h-167v202z" />
    <glyph glyph-name="uni047E" unicode="&#x47e;" horiz-adv-x="1362" 
d="M1023 1785v-119h-662v119h662zM1023 1723v-170h-154v170h154zM361 1553v170h154v-170h-154zM764 1723v-170h-144v170h144zM252 27q-74 42 -113 122.5t-39 192.5v769q0 113 40 193.5t115.5 122.5t182.5 42h43v-155h-43q-53 0 -91.5 -23.5t-59 -69.5t-20.5 -110v-769
q0 -62 19 -106.5t56 -67.5t88 -23q53 0 91 23t57.5 67.5t19.5 106.5v244h128v-244q0 -31 -2.5 -59t-7.5 -53q-24 -118 -97.5 -181.5t-188.5 -63.5q-104 0 -178 42zM750.5 46.5q-70.5 61.5 -93.5 177.5q-5 27 -7.5 56.5t-2.5 61.5v244h118v-244q0 -62 19.5 -106.5t57 -67.5
t91.5 -23q51 0 87.5 23t55.5 67.5t19 106.5v769q0 64 -20 110t-58.5 69.5t-92.5 23.5h-43v155h43q107 0 183 -42t115.5 -122.5t39.5 -193.5v-769q0 -112 -38.5 -192.5t-113 -122.5t-177.5 -42q-112 0 -182.5 61.5z" />
    <glyph glyph-name="uni047F" unicode="&#x47f;" horiz-adv-x="1234" 
d="M958 1483v-119h-662v119h662zM958 1421v-170h-154v170h154zM296 1251v170h154v-170h-154zM699 1421v-170h-144v170h144zM455 1038h181l226 -806q38 98 64 226.5t40 268t15 277.5v34h183q0 -169 -33 -361.5t-90 -370.5t-127 -306h-139zM30 1038h183l212 -811l215 537
l71 -177l-237 -587h-139z" />
    <glyph glyph-name="uni0480" unicode="&#x480;" horiz-adv-x="857" 
d="M265.5 315q-80.5 44 -123 127.5t-42.5 200.5v453q0 118 40 201.5t115.5 127.5t182.5 44t183.5 -44t116 -127.5t39.5 -200.5v-57h-167v57q0 67 -20 114t-58.5 71.5t-93.5 24.5q-81 0 -126 -55t-45 -156v-453q0 -100 50.5 -155t140.5 -55v-162q-112 0 -192.5 44zM390 433
h167v-433h-167v433z" />
    <glyph glyph-name="uni0481" unicode="&#x481;" horiz-adv-x="770" 
d="M238.5 21.5q-72.5 36.5 -110.5 106t-38 167.5v436q0 103 37 176t107 111t169 38q101 0 172 -38t108 -111.5t37 -177.5v-21h-163v17q0 82 -39.5 127t-111.5 45q-70 0 -109.5 -44.5t-39.5 -125.5v-424q0 -78 41.5 -121.5t114.5 -43.5v-153q-102 0 -174.5 36.5zM343 138h167
v-399h-167v399z" />
    <glyph glyph-name="uni0482" unicode="&#x482;" horiz-adv-x="1020" 
d="M682 1421l154 -52l-488 -1384l-154 52zM1010 880l-52 -145l-758 276l52 145zM820 393l-52 -145l-758 276l52 145z" />
    <glyph glyph-name="uni0483" unicode="&#x483;" 
d="M-722 1396h581v-148h-581v148zM-722 1347h167v-192h-167v192zM-307 1490h167v-202h-167v202z" />
    <glyph glyph-name="uni0484" unicode="&#x484;" 
d="M-238 1254q0 32 -16.5 49.5t-46.5 17.5q-26 0 -58.5 -10t-76.5 -27l-6 -2t-6 -3q-3 -1 -6.5 -2.5t-6.5 -2.5q-70 -29 -119 -44.5t-94 -15.5h-19v147h19q30 0 73 13t102 36q4 2 8.5 3.5t8.5 3.5l6 2l6 2q71 28 121.5 43t87.5 15q77 0 119 -48t42 -136v-86h-138v45z" />
    <glyph glyph-name="uni0485" unicode="&#x485;" 
d="M-702 1396h581v-148h-581v148zM-702 1347h167v-192h-167v192zM-702 1490h167v-202h-167v202z" />
    <glyph glyph-name="uni0486" unicode="&#x486;" 
d="M-701 1396h581v-148h-581v148zM-286 1347h166v-192h-166v192zM-286 1490h166v-202h-166v202z" />
    <glyph glyph-name="uni0487" unicode="&#x487;" 
d="M-204 1227q-45 13 -101 36q-7 2 -14 5.5t-14 5.5q-3 2 -6 3t-5 2q-50 20 -85.5 31t-62.5 11q-30 0 -46.5 -17.5t-16.5 -49.5v-45h-138v86q0 88 42 136t119 48q40 0 95 -17t136 -49q5 -2 9.5 -4t9.5 -4q55 -21 95 -32.5t68 -11.5h19v-147h-19q-40 0 -85 13z" />
    <glyph glyph-name="uni0488" unicode="&#x488;" 
d="M-1245 1158q0 43 -19.5 66t-54.5 23h-18q-35 0 -54.5 -23t-19.5 -66v-65h-139v70q0 100 56 155t157 55h18q102 0 157.5 -55t55.5 -155v-70h-139v65zM-1390 710q0 43 -19.5 66t-54.5 23h-18q-35 0 -54.5 -23t-19.5 -66v-65h-139v70q0 100 56 155t157 55h18
q102 0 157.5 -55t55.5 -155v-70h-139v65zM-1245 258q0 43 -19.5 66t-54.5 23h-18q-35 0 -54.5 -23t-19.5 -66v-65h-139v70q0 100 56 155t157 55h18q102 0 157.5 -55t55.5 -155v-70h-139v65zM-299 1158q0 43 -19.5 66t-54.5 23h-18q-35 0 -54.5 -23t-19.5 -66v-65h-139v70
q0 100 56 155t157 55h18q102 0 157.5 -55t55.5 -155v-70h-139v65zM-772 1454q0 43 -19.5 66t-54.5 23h-18q-35 0 -54.5 -23t-19.5 -66v-65h-139v70q0 100 56 155t157 55h18q102 0 157.5 -55t55.5 -155v-70h-139v65zM-154 710q0 43 -19.5 66t-54.5 23h-18q-35 0 -54.5 -23
t-19.5 -66v-65h-139v70q0 100 56 155t157 55h18q102 0 157.5 -55t55.5 -155v-70h-139v65zM-299 258q0 43 -19.5 66t-54.5 23h-18q-35 0 -54.5 -23t-19.5 -66v-65h-139v70q0 100 56 155t157 55h18q102 0 157.5 -55t55.5 -155v-70h-139v65zM-772 -124q0 42 -19.5 65.5
t-54.5 23.5h-18q-35 0 -54.5 -23.5t-19.5 -65.5v-65h-139v70q0 100 56 155t157 55h18q102 0 157.5 -55t55.5 -155v-70h-139v65z" />
    <glyph glyph-name="uni0489" unicode="&#x489;" 
d="M-616 1183l118 118l233 -1l-233 -234zM-1522 156l233 234l117 -118l-117 -116h-233zM-977 167h166v-166l-166 -164v330zM-1730 811h330v-166h-166zM-616 272l117 117l117 -117v-233zM-1406 1183v233l234 -233l-117 -117zM-977 1455l166 164v-330h-166v166zM-388 811h166
l164 -166h-330v166z" />
    <glyph glyph-name="uni048A" unicode="&#x48a;" horiz-adv-x="910" 
d="M783 44l31 -44h-103v134h229l-70 -435h-142zM656 1v1118l24 -26l-452 -1092h-128v1453h158v-1125l-24 26l454 1099h126v-1453h-158zM724 1862q0 -144 -69 -224t-194 -80h-8q-125 0 -194 80t-69 224l148 -1q0 -81 30 -126t85 -45h8q55 0 85.5 45t30.5 126z" />
    <glyph glyph-name="uni048B" unicode="&#x48b;" horiz-adv-x="868" 
d="M874 164l-65 -425h-164l40 263l15 162h174zM552 1v748l24 -26l-334 -722h-132v1037h157v-761l-24 26l336 735h130v-1037h-157zM219.5 1306.5q-62.5 65.5 -62.5 184.5v70h142v-72q0 -55 25 -85.5t71 -30.5h18q45 0 70.5 30.5t25.5 85.5v72h142v-70q0 -119 -62.5 -184.5
t-175.5 -65.5h-18q-113 0 -175.5 65.5z" />
    <glyph glyph-name="uni048C" unicode="&#x48c;" horiz-adv-x="865" 
d="M-25 1273h543v-157h-543v157zM200 157h290q41 0 71.5 19t46 54.5t15.5 85.5v232q0 52 -15.5 89t-45.5 56t-72 19h-290v157h282q98 0 167 -37.5t105 -109t36 -172.5v-237q0 -99 -36.5 -169t-105.5 -107t-166 -37h-282v157zM95 1454h167v-1454h-167v1454z" />
    <glyph glyph-name="uni048D" unicode="&#x48d;" horiz-adv-x="821" 
d="M10 1038h534v-152h-534v152zM137 1454h166v-554h-166v554zM225 157h226q66 0 102 38t36 107v78q0 46 -16 79t-47 50t-75 17h-226v157h259q86 0 147 -32.5t93 -94.5t32 -150v-130q0 -87 -34 -149t-100 -94.5t-158 -32.5h-239v157zM137 1038h167v-1038h-167v1038z" />
    <glyph glyph-name="uni048E" unicode="&#x48e;" horiz-adv-x="895" 
d="M360 857l127 69l263 -492l-129 -69zM205 721h293q41 0 71.5 19t46 54.5t15.5 85.5v253q0 52 -15.5 89t-45.5 56t-72 19h-293v157h287q98 0 167 -37.5t105 -109t36 -172.5v-258q0 -99 -36.5 -169t-105.5 -107t-166 -37h-287v157zM100 1454h167v-1454h-167v1454z" />
    <glyph glyph-name="uni048F" unicode="&#x48f;" horiz-adv-x="824" 
d="M345 312l124 52l209 -513l-125 -53zM110 1038h167v-1460h-167v1460zM344.5 32.5q-59.5 47.5 -81.5 130.5l14 159q0 -59 17 -101t50 -64.5t78 -22.5q70 0 109 50.5t39 141.5v394q0 89 -39 138t-109 49q-45 0 -78 -21.5t-50 -62.5t-17 -99l-21 142q32 90 96 140t141 50
t131 -38.5t82 -113t28 -179.5v-402q0 -107 -29.5 -183t-85.5 -115.5t-135 -39.5q-80 0 -139.5 47.5z" />
    <glyph glyph-name="uni0490" unicode="&#x490;" horiz-adv-x="624" 
d="M457 1666h167v-324h-167v324zM100 1454h167v-1454h-167v1454zM227 1454h397v-157h-397v157z" />
    <glyph glyph-name="uni0491" unicode="&#x491;" horiz-adv-x="629" 
d="M427 1215h167v-300h-167v300zM110 1038h167v-1038h-167v1038zM226 1038h368v-157h-368v157z" />
    <glyph glyph-name="uni0492" unicode="&#x492;" horiz-adv-x="655" 
d="M0 801h585v-157h-585v157zM131 1454h167v-1454h-167v1454zM258 1454h397v-157h-397v157z" />
    <glyph glyph-name="uni0493" unicode="&#x493;" horiz-adv-x="678" 
d="M20 604h539v-157h-539v157zM159 1038h167v-1038h-167v1038zM275 1038h368v-157h-368v157z" />
    <glyph glyph-name="uni0494" unicode="&#x494;" horiz-adv-x="786" 
d="M395 -119h74q51 0 75.5 25.5t24.5 76.5v577q0 87 -36 130t-110 43q-78 0 -117 -40t-39 -122v-115l-24 60v108q0 89 25.5 147.5t76.5 88t128 29.5q88 0 146.5 -38t87.5 -114.5t29 -191.5v-545q0 -92 -27.5 -153.5t-82 -92t-137.5 -30.5h-94v157zM100 1454h167v-1454h-167
v1454zM227 1454h397v-157h-397v157z" />
    <glyph glyph-name="uni0495" unicode="&#x495;" horiz-adv-x="781" 
d="M622 603q53 -37 81 -108.5t28 -172.5v-476q0 -85 -31 -145t-90 -91.5t-142 -31.5h-64v157h44q55 0 85.5 31t30.5 88v480q0 71 -38 109.5t-107 38.5q-68 0 -105 -42.5t-37 -120.5v-99l-26 20v118q0 135 63 208.5t180 73.5q75 0 128 -37zM110 1038h167v-1038h-167v1038z
M226 1038h368v-157h-368v157z" />
    <glyph glyph-name="uni0496" unicode="&#x496;" horiz-adv-x="1450" 
d="M874 785l267 669h178l-335 -816zM868 659l151 86l361 -745h-190zM351 745l152 -86l-322 -659h-191zM51 1454h179l267 -669l-111 -147zM350 801h670v-157h-670v157zM602 1454h167v-1454h-167v1454zM1486 157v-458h-167v458h167zM1383 134v-134h-72v134h72z" />
    <glyph glyph-name="uni0497" unicode="&#x497;" horiz-adv-x="1230" 
d="M696 457l123 110l321 -567h-175zM311 567l124 -110l-269 -457h-176zM26 1038h169l237 -469l-118 -118zM482 1038h167v-1038h-167v1038zM315 591h520v-154h-520v154zM699 569l237 469h168l-288 -587zM1218 157v-418h-167v418h167z" />
    <glyph glyph-name="uni0498" unicode="&#x498;" horiz-adv-x="868" 
d="M531 94v-395h-167v395h167zM252.5 26q-84.5 41 -128.5 119t-44 188v75h162v-66q0 -93 56 -144t158 -51q97 0 151 55t54 154v156q0 78 -38 120.5t-109 42.5h-211v162h211q59 0 91 34.5t32 96.5v155q0 88 -47 136t-135 48q-90 0 -139.5 -48.5t-49.5 -136.5v-71h-162v70
q0 166 94.5 257t266.5 91q106 0 180.5 -41t114 -119.5t39.5 -188.5v-154q0 -53 -33 -107t-93 -100q71 -29 110.5 -94t39.5 -153v-156q0 -117 -43 -200.5t-125.5 -127t-198.5 -43.5q-119 0 -203.5 41z" />
    <glyph glyph-name="uni0499" unicode="&#x499;" horiz-adv-x="674" 
d="M409 94v-355h-167v355h167zM114.5 52q-74.5 67 -74.5 190v71h157v-51q0 -59 33.5 -92t94.5 -33q60 0 93.5 34t33.5 95v116q0 46 -31.5 71t-89.5 25h-107v142h107q46 0 71.5 19.5t25.5 55.5v105q0 50 -30.5 77t-85.5 27t-85 -27.5t-30 -77.5v-51h-157v61q0 118 71 182.5
t201 64.5t201.5 -64.5t71.5 -183.5v-115q0 -45 -21.5 -80.5t-69.5 -60.5q58 -16 86.5 -56t28.5 -104v-137q0 -128 -74 -199t-210 -71t-210.5 67z" />
    <glyph glyph-name="uni049A" unicode="&#x49a;" horiz-adv-x="989" 
d="M425 785l237 669h176l-305 -816zM419 659l149 86l331 -745h-188zM100 1454h167v-1454h-167v1454zM199 801h370v-157h-370v157zM1011 157v-458h-167v458h167zM908 134v-134h-72v134h72z" />
    <glyph glyph-name="uni049B" unicode="&#x49b;" horiz-adv-x="929" 
d="M418 569l172 469h173l-223 -587zM110 1038h167v-1038h-167v1038zM415 457l128 110l256 -567h-180zM209 591h350v-154h-350v154zM893 157v-418h-167v418h167z" />
    <glyph glyph-name="uni049C" unicode="&#x49c;" horiz-adv-x="889" 
d="M100 1454h167v-1454h-167v1454zM450 785l207 669h181l-275 -816zM444 659l154 86l301 -745h-193zM199 801h400v-157h-400v157zM319 1049h114v-654h-114v654z" />
    <glyph glyph-name="uni049D" unicode="&#x49d;" horiz-adv-x="789" 
d="M427 457l126 110l246 -567h-178zM110 1038h167v-1038h-167v1038zM318 849h107v-664h-107v664zM209 591h360v-154h-360v154zM430 569l162 469h171l-213 -587z" />
    <glyph glyph-name="uni049E" unicode="&#x49e;" horiz-adv-x="894" 
d="M-30 1311h469v-157h-469v157zM430 785l237 669h176l-305 -816zM424 659l149 86l331 -745h-188zM105 1454h167v-1454h-167v1454zM204 801h370v-157h-370v157z" />
    <glyph glyph-name="uni049F" unicode="&#x49f;" horiz-adv-x="829" 
d="M150 1454h167v-554h-167v554zM-30 1313h541v-157h-541v157zM458 569l172 469h173l-223 -587zM150 1038h167v-1038h-167v1038zM455 457l128 110l256 -567h-180zM249 591h350v-154h-350v154z" />
    <glyph glyph-name="uni04A0" unicode="&#x4a0;" horiz-adv-x="980" 
d="M-140 1287v167h392v-167h-392zM516 785l237 669h176l-305 -816zM510 659l149 86l331 -745h-188zM191 1454h167v-1454h-167v1454zM290 801h370v-157h-370v157z" />
    <glyph glyph-name="uni04A1" unicode="&#x4a1;" horiz-adv-x="961" 
d="M30 1038h339v-157h-339v157zM590 569l172 469h173l-223 -587zM282 1038h167v-1038h-167v1038zM587 457l128 110l256 -567h-180zM381 591h350v-154h-350v154z" />
    <glyph glyph-name="uni04A2" unicode="&#x4a2;" horiz-adv-x="950" 
d="M603 1454h167v-1454h-167v1454zM100 1454h168v-1454h-168v1454zM227 795h447v-157h-447v157zM925 157v-458h-167v458h167zM822 134v-134h-72v134h72z" />
    <glyph glyph-name="uni04A3" unicode="&#x4a3;" horiz-adv-x="877" 
d="M540 1038h167v-1038h-167v1038zM110 1038h167v-1038h-167v1038zM223 589h413v-157h-413v157zM852 157v-418h-167v418h167z" />
    <glyph glyph-name="uni04A4" unicode="&#x4a4;" horiz-adv-x="1034" 
d="M730 1454h304v-157h-304v157zM603 1454h167v-1454h-167v1454zM100 1454h168v-1454h-168v1454zM227 795h447v-157h-447v157z" />
    <glyph glyph-name="uni04A5" unicode="&#x4a5;" horiz-adv-x="984" 
d="M666 1038h283v-157h-283v157zM540 1038h167v-1038h-167v1038zM110 1038h167v-1038h-167v1038zM223 589h413v-157h-413v157z" />
    <glyph glyph-name="uni04A6" unicode="&#x4a6;" horiz-adv-x="1266" 
d="M887 -119h62q51 0 75.5 25.5t24.5 76.5v577q0 87 -34 130t-102 43q-72 0 -107.5 -40t-35.5 -122v-115l-24 60v108q0 88 24 147t72 88.5t121 29.5q85 0 141 -38t84 -114.5t28 -191.5v-545q0 -92 -27.5 -153.5t-82 -92t-137.5 -30.5h-82v157zM603 1454h167v-1454h-167v1454
zM100 1454h167v-1454h-167v1454zM219 1454h455v-157h-455v157z" />
    <glyph glyph-name="uni04A7" unicode="&#x4a7;" horiz-adv-x="1197" 
d="M823 -265h41q55 0 85.5 31t30.5 88v480q0 71 -36 109.5t-103 38.5q-64 0 -99 -42.5t-35 -120.5v-99l-29 20v118q0 135 62 208.5t176 73.5q74 0 125.5 -37t78.5 -108.5t27 -172.5v-476q0 -85 -31 -145t-90 -91.5t-142 -31.5h-61v157zM540 1038h167v-1038h-167v1038z
M110 1038h167v-1038h-167v1038zM223 1038h402v-157h-402v157z" />
    <glyph glyph-name="uni04A8" unicode="&#x4a8;" horiz-adv-x="1215" 
d="M724.5 39.5q-128.5 54.5 -195.5 159t-67 251.5v714q0 145 79 225t222 80t222 -80t79 -225v-714q0 -142 -65 -243t-189 -154t-299 -53l20 157q175 0 270.5 75t95.5 213v730q0 65 -35 101t-99 36t-99 -36t-35 -101v-730q0 -95 47.5 -163t138.5 -104t218 -36h92v-157h-92
q-180 0 -308.5 54.5zM288.5 44.5q-92.5 44.5 -140.5 130t-48 205.5v769q0 153 84 236.5t237 83.5v-162q-73 0 -113.5 -40t-40.5 -113v-759q0 -114 69 -176t195 -62l-20 -157q-130 0 -222.5 44.5z" />
    </font>
</defs>
</svg>
