<?xml version="1.0" standalone="no"?>
<!DOCTYPE svg PUBLIC "-//W3C//DTD SVG 1.1//EN" "http://www.w3.org/Graphics/SVG/1.1/DTD/svg11.dtd" >
<svg xmlns="http://www.w3.org/2000/svg" xmlns:xlink="http://www.w3.org/1999/xlink" version="1.1">
<metadata>
Created by FontForge 20201107 at Thu May 29 13:06:38 2025
 By 
(c) 2018 Microsoft Corporation. All rights reserved.
</metadata>
<defs>
<font id="Bahnschrift" horiz-adv-x="0" >
  <font-face 
    font-family="Bahnschrift"
    font-weight="700"
    font-stretch="normal"
    units-per-em="2048"
    panose-1="2 11 5 2 4 2 4 2 2 3"
    ascent="1626"
    descent="-422"
    x-height="1038"
    cap-height="1454"
    bbox="-2184 -538 2288 2074"
    underline-thickness="50"
    underline-position="-125"
    unicode-range="U+0020-2133"
  />
<missing-glyph horiz-adv-x="1468" 
d="M160 0v1454h1148v-1454h-1148zM425 265h618v924h-618v-924z" />
    <glyph glyph-name=".notdef" horiz-adv-x="1468" 
d="M160 0v1454h1148v-1454h-1148zM425 265h618v924h-618v-924z" />
    <glyph glyph-name=".null" 
 />
    <glyph glyph-name="nonmarkingreturn" horiz-adv-x="682" 
 />
    <glyph glyph-name="space" unicode=" " horiz-adv-x="350" 
 />
    <glyph glyph-name="exclam" unicode="!" horiz-adv-x="464" 
d="M95 1454h274v-1021h-274v1021zM95 274h274v-274h-274v274z" />
    <glyph glyph-name="quotedbl" unicode="&#x22;" horiz-adv-x="775" 
d="M65 1454h274v-510h-274v510zM436 1454h274v-510h-274v510z" />
    <glyph glyph-name="numbersign" unicode="#" horiz-adv-x="1278" 
d="M894 1454h213l-248 -1454h-213zM420 1454h213l-248 -1454h-213zM1228 1101v-219h-1099v219h1099zM1169 572v-219h-1099v219h1099z" />
    <glyph glyph-name="dollar" unicode="$" horiz-adv-x="1181" 
d="M373.5 10.5q-104.5 25.5 -186.5 67t-117 87.5v0l127 226v0q77 -69 175.5 -106.5t204.5 -37.5q115 0 178.5 45.5t63.5 128.5v1q0 58 -28.5 92t-73.5 50t-115 29q-2 1 -4.5 1t-4.5 1q-3 1 -6.5 1.5t-6.5 0.5q-141 26 -228.5 59t-150 119.5t-62.5 246.5v1q0 141 58.5 241
t169.5 152.5t268 52.5q71 0 145.5 -18t146 -52t135.5 -82v0l-116 -232v0q-75 59 -155.5 90.5t-155.5 31.5q-106 0 -165 -41.5t-59 -116.5v-1q0 -65 32 -102t81 -54.5t134 -34.5q1 -1 1.5 -1h1.5l10 -2l10 -2q127 -28 211.5 -66.5t141.5 -124t57 -233.5v-2q0 -139 -60.5 -238
t-176 -151t-277.5 -52q-99 0 -203.5 25.5zM469 1631h274v-1808h-274v1808z" />
    <glyph glyph-name="percent" unicode="%" horiz-adv-x="1407" 
d="M970 1454h249l-760 -1454h-249zM871.5 52.5q-68.5 67.5 -68.5 188.5v125q0 121 68.5 188.5t193.5 67.5q126 0 194 -67.5t68 -190.5v-123q0 -122 -68.5 -189t-193.5 -67t-193.5 67.5zM1098.5 207q11.5 15 11.5 43v110q0 26 -11.5 40.5t-33.5 14.5t-33.5 -14.5t-11.5 -42.5
v-108q0 -29 11.5 -43.5t33.5 -14.5t33.5 15zM148.5 898.5q-68.5 67.5 -68.5 188.5v125q0 121 68.5 188.5t193.5 67.5q126 0 194 -67.5t68 -190.5v-123q0 -122 -68.5 -189t-193.5 -67t-193.5 67.5zM375.5 1053q11.5 15 11.5 43v110q0 26 -11.5 40.5t-33.5 14.5t-33.5 -14.5
t-11.5 -42.5v-108q0 -29 11.5 -43.5t33.5 -14.5t33.5 15z" />
    <glyph glyph-name="ampersand" unicode="&#x26;" horiz-adv-x="1335" 
d="M472 578q-73 77 -121.5 155.5t-73.5 161.5t-25 171q0 191 107 295.5t303 104.5q195 0 301.5 -100.5t106.5 -284.5v-40h-274v40q0 88 -35 137t-99 49q-74 0 -115 -52.5t-41 -148.5q0 -53 26 -118.5t75.5 -139t118.5 -149.5l599 -659h-309zM425.5 577q-57.5 -62 -57.5 -175
q0 -83 62 -128.5t175 -45.5q109 0 187 64.5t119 184t41 280.5h264q0 -239 -76 -412.5t-223 -266.5t-357 -93q-142 0 -243 49t-154 142.5t-53 225.5q0 178 103.5 285t291.5 124l84 -172q-106 0 -163.5 -62z" />
    <glyph glyph-name="quotesingle" unicode="'" horiz-adv-x="364" 
d="M45 1454h274v-510h-274v510z" />
    <glyph glyph-name="parenleft" unicode="(" horiz-adv-x="695" 
d="M253.5 120q-93.5 240 -93.5 528t93.5 528t281.5 433l160 -197q-136 -155 -203.5 -345t-67.5 -419t67.5 -419.5t203.5 -345.5l-160 -196q-188 193 -281.5 433z" />
    <glyph glyph-name="parenright" unicode=")" horiz-adv-x="695" 
d="M0 -117q136 155 203.5 345.5t67.5 419.5t-67.5 419t-203.5 345l160 197q188 -193 281.5 -433t93.5 -528t-93.5 -528t-281.5 -433z" />
    <glyph glyph-name="asterisk" unicode="*" horiz-adv-x="881" 
d="M356 1123l169 122l225 -309l-169 -123zM131 936l225 309l169 -122l-225 -310zM44 1203l65 199l364 -119l-65 -198zM336 1567h209v-383h-209v383zM408 1283l364 119l65 -199l-364 -118z" />
    <glyph glyph-name="plus" unicode="+" horiz-adv-x="1082" 
d="M972 797v-254h-852v254h852zM678 264h-264v812h264v-812z" />
    <glyph glyph-name="comma" unicode="," horiz-adv-x="464" 
d="M95 284h274v-284l-274 -202v486z" />
    <glyph glyph-name="hyphen" unicode="-" horiz-adv-x="982" 
d="M852 653v-264h-712v264h712z" />
    <glyph glyph-name="period" unicode="." horiz-adv-x="464" 
d="M95 274h274v-274h-274v274z" />
    <glyph glyph-name="slash" unicode="/" horiz-adv-x="775" 
d="M230 -276h-260l650 1902h260z" />
    <glyph glyph-name="zero" unicode="0" horiz-adv-x="1130" 
d="M241 94.5q-111 109.5 -111 303.5v661q0 196 111.5 304.5t323.5 108.5q213 0 324 -108t111 -305v-661q0 -196 -111.5 -304.5t-323.5 -108.5q-213 0 -324 109.5zM687 305.5q39 56.5 39 162.5v521q0 106 -39 162.5t-122 56.5t-122 -56.5t-39 -162.5v-521q0 -106 39 -162.5
t122 -56.5t122 56.5z" />
    <glyph glyph-name="one" unicode="1" horiz-adv-x="681" 
d="M521 0h-274v1132l-177 -67v291l217 98h234v-1454z" />
    <glyph glyph-name="two" unicode="2" horiz-adv-x="1058" 
d="M108 247l499 656q34 44 52.5 90.5t18.5 86.5v2q0 59 -38 91t-108 32q-68 0 -110 -44.5t-51 -126.5v-1h-281v1q9 136 65.5 234t152.5 149.5t222 51.5q136 0 232.5 -44.5t147 -129.5t50.5 -205v-1q0 -99 -34.5 -196.5t-96.5 -176.5l-358 -452h497v-264h-860v247z" />
    <glyph glyph-name="three" unicode="3" horiz-adv-x="1083" 
d="M301 33q-103 48 -164 140t-67 219v0h283v0q6 -45 26.5 -76.5t52.5 -48t74 -16.5q78 0 120.5 43.5t42.5 122.5v34q0 83 -34.5 128t-98.5 45h-123v264h123q52 0 80.5 39.5t28.5 110.5v25q0 67 -31.5 103.5t-88.5 36.5q-37 0 -67.5 -19t-51.5 -55t-30 -87v0h-282v0
q12 133 71.5 229.5t155.5 147t214 50.5q193 0 298.5 -98.5t105.5 -279.5v-44q0 -101 -51 -176t-145 -112q105 -24 162.5 -110t57.5 -219v-44q0 -127 -50 -217t-146 -137t-231 -47q-132 0 -235 48z" />
    <glyph glyph-name="four" unicode="4" horiz-adv-x="1165" 
d="M110 475l448 978h310l-436 -966h653v-264h-975v252zM697 855h274v-856h-274v856z" />
    <glyph glyph-name="five" unicode="5" horiz-adv-x="1115" 
d="M345.5 36.5q-93.5 51.5 -150 150t-65.5 233.5v1h274v-1q8 -80 49 -124.5t107 -44.5q72 0 111.5 47t39.5 133v122q0 86 -35.5 132.5t-99.5 46.5q-59 0 -100.5 -30t-57.5 -84h-256v836h781v-264h-507v-257q31 30 84.5 47.5t106.5 17.5q113 0 193.5 -52t122.5 -152t42 -241
v-122q0 -141 -50.5 -241t-146.5 -152.5t-232 -52.5q-117 0 -210.5 51.5z" />
    <glyph glyph-name="six" unicode="6" horiz-adv-x="1051" 
d="M295.5 36.5q-95.5 51.5 -145.5 150t-50 237.5v1q0 79 19.5 167t55.5 177q6 15 12.5 30t13.5 29l295 626h310l-350 -725l-69 36q25 47 73 73t112 26q120 0 205 -51t129.5 -148.5t44.5 -234.5v-1q0 -140 -50 -240t-145.5 -152t-230.5 -52q-134 0 -229.5 51.5zM637.5 291.5
q39.5 42.5 39.5 120.5v1q0 90 -39.5 138.5t-112.5 48.5q-72 0 -111.5 -49.5t-39.5 -138.5v-1q0 -78 39.5 -120t111.5 -42q73 0 112.5 42.5z" />
    <glyph glyph-name="seven" unicode="7" horiz-adv-x="1031" 
d="M921 1272l-326 -1272h-297l316 1190h-250v-219h-274v483h831v-182z" />
    <glyph glyph-name="eight" unicode="8" horiz-adv-x="1152" 
d="M333.5 35q-104.5 50 -161.5 141.5t-57 212.5v24q0 109 60 205t160 145q-86 42 -138 120t-52 166v38q0 114 53.5 200.5t151 134t226.5 47.5t226.5 -47.5t151 -134t53.5 -200.5v-38q0 -90 -53 -167.5t-140 -118.5q101 -50 162 -145.5t61 -204.5v-24q0 -121 -57 -212.5
t-161.5 -141.5t-242.5 -50t-242.5 50zM673.5 271.5q42.5 22.5 66 63.5t23.5 94v14q0 49 -23.5 86t-65.5 57.5t-98 20.5t-98 -20.5t-65.5 -58t-23.5 -86.5v-15q0 -53 23.5 -93.5t66 -62.5t97.5 -22t97.5 22.5zM658.5 893.5q35.5 20.5 55 58t19.5 86.5v14q0 46 -19.5 80.5
t-55 53.5t-82.5 19t-82.5 -19t-55 -54t-19.5 -81v-15q0 -48 19.5 -85t55 -57.5t82.5 -20.5t82.5 20.5z" />
    <glyph glyph-name="nine" unicode="9" horiz-adv-x="1051" 
d="M615 722l49 -36q-25 -46 -75.5 -67.5t-119.5 -21.5q-110 0 -193.5 53t-129.5 149.5t-46 223.5v1q0 141 50 241t145.5 152t230.5 52q134 0 229.5 -53t145.5 -154t50 -243v-1q0 -73 -21 -157.5t-59 -182.5q-5 -14 -10.5 -28t-11.5 -27l-260 -623h-290zM637.5 899.5
q39.5 46.5 39.5 131.5v1q0 82 -39.5 126.5t-111.5 44.5q-73 0 -112.5 -45t-39.5 -127v-1q0 -85 39.5 -131t112.5 -46q72 0 111.5 46.5z" />
    <glyph glyph-name="colon" unicode=":" horiz-adv-x="464" 
d="M95 274h274v-274h-274v274zM95 1028h274v-274h-274v274z" />
    <glyph glyph-name="semicolon" unicode=";" horiz-adv-x="464" 
d="M95 284h274v-284l-274 -202v486zM95 1028h274v-274h-274v274z" />
    <glyph glyph-name="less" unicode="&#x3c;" horiz-adv-x="869" 
d="M484 666h-434l709 449v-323zM759 216l-709 450h434l275 -135v-315z" />
    <glyph glyph-name="equal" unicode="=" horiz-adv-x="940" 
d="M120 996h710v-264h-710v264zM120 600h710v-264h-710v264z" />
    <glyph glyph-name="greater" unicode="&#x3e;" horiz-adv-x="879" 
d="M120 1115l709 -449h-434l-275 126v323zM395 666h434l-709 -450v315z" />
    <glyph glyph-name="question" unicode="?" horiz-adv-x="884" 
d="M278 587q23 68 56 116t87 112q43 50 67 84.5t40.5 76t16.5 90.5v1q0 68 -33.5 105.5t-94.5 37.5q-60 0 -93.5 -41.5t-34.5 -116.5v-1h-284v1q5 132 55 225.5t140.5 142.5t215.5 49q130 0 223 -44t141.5 -127.5t48.5 -201.5v-1q0 -77 -21.5 -139t-53 -108.5t-83.5 -107.5
q-49 -59 -76.5 -99t-46.5 -92.5t-19 -115.5h-274q0 86 23 154zM256 274h274v-274h-274v274z" />
    <glyph glyph-name="at" unicode="@" horiz-adv-x="1823" 
d="M615.5 96.5q-82.5 111.5 -82.5 336.5v172q0 225 94.5 336.5t284.5 111.5t284 -111.5t94 -337.5v-323l-126 -58q-20 -119 -94.5 -178.5t-205.5 -59.5q-166 0 -248.5 111.5zM997 285q28 46 28 140v191q0 92 -28 137.5t-85 45.5q-116 0 -116 -184v-190q0 -94 29 -140t87 -46
q57 0 85 46zM478 -299.5q-174 82.5 -261 247.5t-87 414v136t1 136q2 270 89.5 449t260.5 268t434 89q256 0 429.5 -89.5t261 -269t87.5 -447.5v-312q0 -173 -77 -255t-224 -82q-166 0 -248 78t-82 236l228 6q0 -53 20.5 -79.5t63.5 -26.5q40 0 57.5 24.5t17.5 78.5v332
q0 193 -60.5 322.5t-179.5 194.5t-294 65q-179 0 -298 -64.5t-179.5 -193.5t-62.5 -324q-1 -67 -1 -135v-137q0 -174 60 -289.5t180 -173t301 -57.5h298v-224h-298q-263 0 -437 82.5z" />
    <glyph glyph-name="A" unicode="A" horiz-adv-x="1326" 
d="M576 1454h174l556 -1454h-295l-348 993l-348 -993h-295zM287 497h765v-264h-765v264z" />
    <glyph glyph-name="B" unicode="B" horiz-adv-x="1322" 
d="M280 264h464q94 0 145.5 45.5t51.5 127.5v3q0 55 -23 94t-67.5 59.5t-106.5 20.5h-464v264h464q85 0 131.5 43t46.5 121v0q0 70 -46.5 109t-131.5 39h-464v264h473q141 0 241 -46.5t152 -135t52 -212.5v0q0 -85 -33.5 -150.5t-97.5 -107.5t-154 -57q96 -13 164.5 -58.5
t104 -118.5t35.5 -169v-3q0 -125 -52.5 -214t-153 -135.5t-241.5 -46.5h-490v264zM160 1454h274v-1454h-274v1454z" />
    <glyph glyph-name="C" unicode="C" horiz-adv-x="1267" 
d="M372 48.5q-118 63.5 -180 185t-62 293.5v399q0 172 62 293.5t180 185.5t284 64q137 0 245 -59t178.5 -171.5t97.5 -271.5v0h-284v0q-16 72 -49.5 123t-81 78t-106.5 27q-77 0 -131 -31.5t-82.5 -92t-28.5 -145.5v-399q0 -85 28.5 -145t82.5 -91.5t131 -31.5
q60 0 108 26.5t81 77.5t48 124v0h284v0q-28 -159 -98.5 -271.5t-178 -171.5t-244.5 -59q-166 0 -284 63.5z" />
    <glyph glyph-name="D" unicode="D" horiz-adv-x="1344" 
d="M298 264h349q135 0 209 65t74 184v428q0 119 -74 184t-209 65h-349v264h343q182 0 310.5 -61t195.5 -178t67 -282v-412q0 -157 -64.5 -274t-193.5 -182t-316 -65h-342v264zM160 1454h274v-1454h-274v1454z" />
    <glyph glyph-name="E" unicode="E" horiz-adv-x="1224" 
d="M160 1454h274v-1454h-274v1454zM259 264h875v-264h-875v264zM259 854h765v-264h-765v264zM259 1454h875v-264h-875v264z" />
    <glyph glyph-name="F" unicode="F" horiz-adv-x="1145" 
d="M160 1454h274v-1454h-274v1454zM260 841h745v-264h-745v264zM260 1454h855v-264h-855v264z" />
    <glyph glyph-name="G" unicode="G" horiz-adv-x="1324" 
d="M1194 813v-284q0 -162 -65.5 -285.5t-185.5 -191t-278 -67.5q-159 0 -280.5 63.5t-188 179.5t-66.5 269v429q0 162 65.5 285t185.5 190.5t278 67.5q130 0 240 -53.5t183.5 -151.5t99.5 -227v0h-296v0q-15 46 -49.5 79.5t-81 51t-96.5 17.5q-73 0 -128.5 -32t-86 -91
t-30.5 -136v-429q0 -68 31 -120t88 -80t132 -28q74 0 129.5 30.5t85.5 88.5t30 137v24h-220v264h504z" />
    <glyph glyph-name="H" unicode="H" horiz-adv-x="1390" 
d="M956 1454h274v-1454h-274v1454zM160 1454h274v-1454h-274v1454zM287 853h847v-264h-847v264z" />
    <glyph glyph-name="I" unicode="I" horiz-adv-x="564" 
d="M424 0h-284v1454h284v-1454z" />
    <glyph glyph-name="J" unicode="J" horiz-adv-x="1035" 
d="M172.5 37q-104.5 52 -162.5 147l224 163q36 -46 86.5 -71t105.5 -25q79 0 122 55.5t43 156.5v991h284v-992q0 -151 -54.5 -258t-158.5 -163t-251 -56q-134 0 -238.5 52z" />
    <glyph glyph-name="K" unicode="K" horiz-adv-x="1314" 
d="M325 568l583 886h345l-893 -1242zM160 1454h274v-1454h-274v1454zM567 736l236 149l511 -885h-325z" />
    <glyph glyph-name="L" unicode="L" horiz-adv-x="1174" 
d="M160 1454h274v-1454h-274v1454zM282 264h852v-264h-852v264z" />
    <glyph glyph-name="M" unicode="M" horiz-adv-x="1596" 
d="M1075 1454h361v-1454h-249v1129l10 -64l-278 -903h-242l-278 883l10 84v-1129h-249v1454h361l277 -980z" />
    <glyph glyph-name="N" unicode="N" horiz-adv-x="1434" 
d="M160 1454h335l541 -1114l-24 -26v1140h262v-1453h-337l-539 1097l24 26v-1123h-262v1453z" />
    <glyph glyph-name="O" unicode="O" horiz-adv-x="1322" 
d="M382.5 51.5q-120.5 66.5 -186.5 188t-66 281.5v412q0 160 66 281.5t186.5 188t278.5 66.5t278.5 -66.5t186.5 -188t66 -281.5v-412q0 -160 -66 -281.5t-186.5 -188t-278.5 -66.5t-278.5 66.5zM791 290.5q56 31.5 86.5 89.5t30.5 134v426q0 76 -30.5 134t-86.5 89.5
t-130 31.5t-130 -31.5t-86.5 -89.5t-30.5 -134v-426q0 -76 30.5 -134t86.5 -89.5t130 -31.5t130 31.5z" />
    <glyph glyph-name="P" unicode="P" horiz-adv-x="1275" 
d="M285 828h465q49 0 86.5 22.5t58.5 63.5t21 94v0q0 54 -20.5 95.5t-58 64t-87.5 22.5h-465v264h458q136 0 239.5 -55.5t160.5 -156.5t57 -234v0q0 -133 -57 -233.5t-160.5 -155.5t-239.5 -55h-458v264zM160 1454h274v-1454h-274v1454z" />
    <glyph glyph-name="Q" unicode="Q" horiz-adv-x="1346" 
d="M618 403l146 185l562 -426l-146 -186zM382.5 51.5q-120.5 66.5 -186.5 188t-66 281.5v412q0 160 66 281.5t186.5 188t278.5 66.5t278.5 -66.5t186.5 -188t66 -281.5v-412q0 -160 -66 -281.5t-186.5 -188t-278.5 -66.5t-278.5 66.5zM791 290.5q56 31.5 86.5 89.5t30.5 134
v426q0 76 -30.5 134t-86.5 89.5t-130 31.5t-130 -31.5t-86.5 -89.5t-30.5 -134v-426q0 -76 30.5 -134t86.5 -89.5t130 -31.5t130 31.5z" />
    <glyph glyph-name="R" unicode="R" horiz-adv-x="1335" 
d="M269 849h506q42 0 74 21t49.5 60t18.5 90v0q0 51 -17.5 90t-49.5 60t-75 21h-506v264h528q120 0 211 -54t141 -152.5t50 -228.5v0q0 -130 -50 -228.5t-141.5 -152.5t-210.5 -54h-528v264zM160 1455h274v-1455h-274v1455zM575 630l293 46l392 -676h-332z" />
    <glyph glyph-name="S" unicode="S" horiz-adv-x="1261" 
d="M413.5 6q-99.5 21 -187 61.5t-156.5 97.5v0l127 226v0q84 -69 194 -106.5t226 -37.5q134 0 208 45.5t74 128.5v1q0 58 -33 92t-86 50t-136 29q-3 1 -5.5 1t-5.5 1l-22 3q-146 23 -242 57.5t-163 121t-67 245.5v1q0 141 63 241t183 152.5t290 52.5q78 0 159.5 -18
t159.5 -52t148 -82v0l-116 -232v0q-84 58 -175.5 90t-175.5 32q-126 0 -195 -41.5t-69 -116.5v-1q0 -63 36 -99.5t89 -53.5t149 -36q4 -1 8 -1.5t8 -1.5q6 -1 11.5 -2.5t11.5 -2.5q138 -27 230.5 -65.5t154.5 -124t62 -233.5v-2q0 -139 -65 -238t-189.5 -151t-299.5 -52
q-104 0 -203.5 21z" />
    <glyph glyph-name="T" unicode="T" horiz-adv-x="986" 
d="M356 1335h274v-1335h-274v1335zM-40 1454h1066v-264h-1066v264z" />
    <glyph glyph-name="U" unicode="U" horiz-adv-x="1342" 
d="M383 48.5q-119 63.5 -181 185t-62 292.5v928h274v-935q0 -125 67 -194t189 -69q123 0 190.5 69t67.5 194v935h274v-928q0 -171 -62.5 -292.5t-182 -185t-287.5 -63.5t-287 63.5z" />
    <glyph glyph-name="V" unicode="V" horiz-adv-x="1202" 
d="M10 1454h282l309 -970l309 970h282l-484 -1454h-214z" />
    <glyph glyph-name="W" unicode="W" horiz-adv-x="1734" 
d="M757 1454h220l278 -970l187 970h282l-335 -1454h-258l-258 1016l-270 -1016h-258l-335 1454h282l187 -970z" />
    <glyph glyph-name="X" unicode="X" horiz-adv-x="1162" 
d="M521 595l-28 47l-481 812h289l326 -551l38 -65l497 -838h-289zM524 895l327 559h289l-481 -822l-370 -632h-289z" />
    <glyph glyph-name="Y" unicode="Y" horiz-adv-x="1030" 
d="M652 561v-561h-274v561l-428 893h287l278 -626l278 626h287z" />
    <glyph glyph-name="Z" unicode="Z" horiz-adv-x="1114" 
d="M1024 1208l-598 -944h618v-264h-944v246l598 944h-580v264h906v-246z" />
    <glyph glyph-name="bracketleft" unicode="[" horiz-adv-x="602" 
d="M170 1626h244v-1952h-244v1952zM285 -82h307v-244h-307v244zM285 1626h307v-244h-307v244z" />
    <glyph glyph-name="backslash" unicode="\" horiz-adv-x="775" 
d="M155 1626l650 -1902h-260l-650 1902h260z" />
    <glyph glyph-name="bracketright" unicode="]" horiz-adv-x="602" 
d="M188 1626h244v-1952h-244v1952zM10 -82h307v-244h-307v244zM10 1626h307v-244h-307v244z" />
    <glyph glyph-name="asciicircum" unicode="^" horiz-adv-x="1030" 
d="M520 1204v355l420 -559h-284zM100 1000l420 559v-355l-136 -204h-284z" />
    <glyph glyph-name="underscore" unicode="_" horiz-adv-x="892" 
d="M882 0v-264h-872v264h872z" />
    <glyph glyph-name="grave" unicode="`" horiz-adv-x="603" 
d="M62 1514l193 162l286 -355l-174 -143z" />
    <glyph glyph-name="a" unicode="a" horiz-adv-x="1090" 
d="M711 658q0 72 -48 111t-136 39q-58 0 -115 -19t-101 -53l-170 167q62 71 164 110.5t226 39.5q136 0 232 -45.5t146.5 -132t50.5 -208.5v-667h-249v658zM172.5 64.5q-82.5 79.5 -82.5 241.5q0 154 92.5 231t277.5 77h260l14 -209h-273q-62 0 -93 -24.5t-31 -74.5
q0 -51 39 -75.5t118 -24.5q110 0 163.5 25t53.5 78l21 -151q-6 -56 -51.5 -95t-114 -58.5t-144.5 -19.5q-167 0 -249.5 79.5z" />
    <glyph glyph-name="b" unicode="b" horiz-adv-x="1114" 
d="M498 31.5q-66 46.5 -98 131.5l14 237q0 -51 18 -87t52.5 -55t83.5 -19q77 0 119.5 51t42.5 144v165q0 95 -42.5 147.5t-119.5 52.5q-49 0 -83.5 -19.5t-52.5 -56.5t-18 -90l-21 230q42 91 110.5 140.5t151.5 49.5q110 0 188.5 -53t119.5 -155t41 -245v-166
q0 -142 -41 -242.5t-119.5 -153.5t-188.5 -53q-91 0 -157 46.5zM140 1454h274v-1454h-274v1454z" />
    <glyph glyph-name="c" unicode="c" horiz-adv-x="1020" 
d="M325.5 41.5q-105.5 56.5 -160.5 164.5t-55 260v111q0 151 55 257.5t160.5 162.5t253.5 56q85 0 160.5 -19.5t135.5 -56.5t100 -90v0l-177 -172v0q-38 35 -89 54.5t-107 19.5q-104 0 -161 -55.5t-57 -156.5v-111q0 -104 57 -160.5t161 -56.5q57 0 108 21t88 60v0l177 -182
v0q-41 -52 -101 -88.5t-135 -55.5t-160 -19q-148 0 -253.5 56.5z" />
    <glyph glyph-name="d" unicode="d" horiz-adv-x="1104" 
d="M700 1454h274v-1454h-274v1454zM270.5 38q-78.5 53 -119.5 153.5t-41 242.5v166q0 143 41 245t119.5 155t188.5 53q83 0 151.5 -49.5t110.5 -140.5l-21 -230q0 53 -18 90t-52.5 56.5t-83.5 19.5q-77 0 -119.5 -52.5t-42.5 -147.5v-165q0 -93 42.5 -144t119.5 -51
q49 0 83.5 19t52.5 55t18 87l14 -237q-32 -85 -98 -131.5t-157 -46.5q-110 0 -188.5 53z" />
    <glyph glyph-name="e" unicode="e" horiz-adv-x="1098" 
d="M328.5 39.5q-106.5 54.5 -162.5 159t-56 251.5v117q0 154 53.5 263t156 166t247.5 57q136 0 233 -68t147.5 -197.5t50.5 -312.5v-68h-710v185h460l-3 24q-11 90 -56.5 139t-121.5 49q-99 0 -153.5 -59t-54.5 -167v-132q0 -106 59.5 -164t166.5 -58q55 0 109 19.5t98 55.5
v0l179 -159v0q-81 -74 -182 -114.5t-204 -40.5q-150 0 -256.5 54.5z" />
    <glyph glyph-name="f" unicode="f" horiz-adv-x="649" 
d="M170 1179q0 138 63.5 206.5t195.5 68.5h190v-244h-116q-29 0 -44 -22t-15 -57v-1131h-274v1179zM60 1038h559v-234h-559v234z" />
    <glyph glyph-name="g" unicode="g" horiz-adv-x="1104" 
d="M286.5 -378.5q-97.5 43.5 -151.5 122.5v0l184 169v0q35 -38 84 -58.5t102 -20.5q86 0 140.5 47t54.5 130v1027h274v-1007q0 -143 -54.5 -245t-159 -155t-252.5 -53q-124 0 -221.5 43.5zM270.5 38q-78.5 53 -119.5 153.5t-41 242.5v166q0 143 41 245t119.5 155t188.5 53
q83 0 151.5 -49.5t110.5 -140.5l-21 -230q0 53 -18 90t-52.5 56.5t-83.5 19.5q-77 0 -119.5 -52.5t-42.5 -147.5v-165q0 -93 42.5 -144t119.5 -51q49 0 83.5 19t52.5 55t18 87l14 -237q-32 -85 -98 -131.5t-157 -46.5q-110 0 -188.5 53z" />
    <glyph glyph-name="h" unicode="h" horiz-adv-x="1144" 
d="M140 1454h274v-1454h-274v1454zM740 629q0 76 -43.5 118t-123.5 42q-76 0 -117.5 -42.5t-41.5 -119.5l-21 230q47 98 112.5 147t164.5 49q164 0 254 -110.5t90 -312.5v-630h-274v629z" />
    <glyph glyph-name="i" unicode="i" horiz-adv-x="514" 
d="M125 1454h274v-274h-274v274zM125 1038h274v-1038h-274v1038z" />
    <glyph glyph-name="j" unicode="j" horiz-adv-x="549" 
d="M0 -158h64q38 0 58.5 20.5t20.5 58.5v1117h274v-1185q0 -131 -69 -203t-194 -72h-154v264zM141 1454h278v-274h-278v274z" />
    <glyph glyph-name="k" unicode="k" horiz-adv-x="1083" 
d="M268 374l484 664h290l-737 -966zM140 1454h274v-1454h-274v1454zM514 536l226 136l353 -672h-317z" />
    <glyph glyph-name="l" unicode="l" horiz-adv-x="593" 
d="M414 343q0 -38 21.5 -58.5t61.5 -20.5h46v-264h-140q-125 0 -194 72t-69 203v1179h274v-1111z" />
    <glyph glyph-name="m" unicode="m" horiz-adv-x="1754" 
d="M1350 599q0 91 -43.5 140.5t-123.5 49.5q-79 0 -121.5 -47.5t-42.5 -134.5l-51 240q49 99 127.5 152.5t174.5 53.5q112 0 191.5 -53t121 -155t41.5 -245v-600h-274v599zM140 1038h274v-1038h-274v1038zM745 599q0 91 -45 140.5t-127 49.5q-76 0 -117.5 -42.5
t-41.5 -119.5l-21 230q46 96 115 146t162 50q110 0 188.5 -53t119.5 -155t41 -245v-600h-274v599z" />
    <glyph glyph-name="n" unicode="n" horiz-adv-x="1144" 
d="M140 1038h274v-1038h-274v1038zM740 629q0 76 -43.5 118t-123.5 42q-76 0 -117.5 -42.5t-41.5 -119.5l-21 230q47 98 112.5 147t164.5 49q164 0 254 -110.5t90 -312.5v-630h-274v629z" />
    <glyph glyph-name="o" unicode="o" horiz-adv-x="1116" 
d="M315.5 38q-100.5 53 -153 154.5t-52.5 244.5v169q0 141 52.5 241.5t153 153t242.5 52.5t242.5 -52.5t153 -153t52.5 -241.5v-172q0 -142 -52.5 -242.5t-153 -153.5t-242.5 -53t-242.5 53zM686 297.5q46 48.5 46 136.5v172q0 87 -46 135t-129 48q-82 0 -127.5 -48
t-45.5 -135v-172q0 -88 45 -136.5t128 -48.5t129 48.5z" />
    <glyph glyph-name="p" unicode="p" horiz-adv-x="1114" 
d="M140 1038h274v-1460h-274v1460zM498 31.5q-66 46.5 -98 131.5l14 237q0 -51 18 -87t52.5 -55t83.5 -19q77 0 119.5 51t42.5 144v165q0 95 -42.5 147.5t-119.5 52.5q-49 0 -83.5 -19.5t-52.5 -56.5t-18 -90l-21 230q42 91 110.5 140.5t151.5 49.5q110 0 188.5 -53
t119.5 -155t41 -245v-166q0 -142 -41 -242.5t-119.5 -153.5t-188.5 -53q-91 0 -157 46.5z" />
    <glyph glyph-name="q" unicode="q" horiz-adv-x="1104" 
d="M700 1038h274v-1460h-274v1460zM270.5 38q-78.5 53 -119.5 153.5t-41 242.5v166q0 143 41 245t119.5 155t188.5 53q83 0 151.5 -49.5t110.5 -140.5l-21 -230q0 53 -18 90t-52.5 56.5t-83.5 19.5q-77 0 -119.5 -52.5t-42.5 -147.5v-165q0 -93 42.5 -144t119.5 -51
q49 0 83.5 19t52.5 55t18 87l14 -237q-32 -85 -98 -131.5t-157 -46.5q-110 0 -188.5 53z" />
    <glyph glyph-name="r" unicode="r" horiz-adv-x="874" 
d="M140 1038h294v-1038h-294v1038zM675 779q-29 10 -67 10q-83 0 -128.5 -53.5t-45.5 -148.5l-21 270q43 93 111.5 144.5t150.5 51.5q65 0 117.5 -20.5t91.5 -60.5l-160 -223q-20 20 -49 30z" />
    <glyph glyph-name="s" unicode="s" horiz-adv-x="1062" 
d="M356 1.5q-88 16.5 -165 48.5t-136 77v0l169 211v0q75 -48 157 -74t156 -26q96 0 149 21.5t53 59.5q0 35 -23 53t-59 25.5t-101 13.5q-18 2 -36.5 4t-37.5 4q-4 1 -8.5 1.5t-8.5 0.5q-116 15 -186 37t-118.5 84.5t-48.5 181.5q0 104 50 178t145 112.5t230 38.5
q79 0 157.5 -16t150.5 -46t133 -72v0l-163 -199v0q-68 38 -142 59t-142 21q-83 0 -129 -19t-46 -53q0 -26 24.5 -40.5t61 -21t106.5 -14.5l18 -2l18 -2q4 -1 9 -1t9 -1q121 -14 197 -36t129.5 -88t53.5 -194q0 -108 -52 -185t-152 -117.5t-241 -40.5q-93 0 -181 16.5z" />
    <glyph glyph-name="t" unicode="t" horiz-adv-x="668" 
d="M230.5 64.5q-63.5 69.5 -63.5 205.5v1070h274v-1002q0 -38 15 -58.5t44 -20.5h68v-264h-138q-136 0 -199.5 69.5zM60 1038h508v-234h-508v234z" />
    <glyph glyph-name="u" unicode="u" horiz-adv-x="1139" 
d="M736 1038h273v-1038h-273v1038zM414 407q0 -75 42.5 -116.5t119.5 -41.5t118.5 42.5t41.5 121.5l14 -227q-29 -85 -96.5 -143t-164.5 -58q-167 0 -258 107.5t-91 304.5v641h274v-631z" />
    <glyph glyph-name="v" unicode="v" horiz-adv-x="1024" 
d="M731 1038h273l-390 -1038h-194l-390 1038h273l214 -651z" />
    <glyph glyph-name="w" unicode="w" horiz-adv-x="1584" 
d="M50 1038h263l184 -641l219 641h162l219 -641l184 641h263l-320 -1038h-204l-223 677l-223 -677h-204z" />
    <glyph glyph-name="x" unicode="x" horiz-adv-x="1059" 
d="M457 429l-401 609h302l249 -419l407 -619h-301zM407 573l163 -188l-239 -385h-291zM504 670l192 368h302l-333 -560z" />
    <glyph glyph-name="y" unicode="y" horiz-adv-x="989" 
d="M989 1038l-462 -1281q-26 -71 -64.5 -112.5t-95 -59.5t-139.5 -18h-61v266h61q44 0 73.5 19.5t44.5 63.5l385 1122h258zM30 1038h258l349 -902l-173 -221z" />
    <glyph glyph-name="z" unicode="z" horiz-adv-x="1013" 
d="M896 806l-459 -557h486v-249h-813v236l472 553h-458v249h772v-232z" />
    <glyph glyph-name="braceleft" unicode="{" horiz-adv-x="738" 
d="M120 770q88 0 136.5 43t48.5 120v374q0 182 108 282t305 100v-229q-81 0 -125 -43t-44 -122v-398q0 -172 -106.5 -246.5t-322.5 -74.5v194zM413 -293.5q-108 99.5 -108 281.5v375q0 77 -48.5 120t-136.5 43v194q216 0 322.5 -77.5t106.5 -255.5v-385q0 -80 44 -123
t125 -43v-229q-197 0 -305 99.5z" />
    <glyph glyph-name="bar" unicode="|" horiz-adv-x="564" 
d="M150 1626h264v-1798h-264v1798z" />
    <glyph glyph-name="braceright" unicode="}" horiz-adv-x="738" 
d="M295.5 643q-106.5 77 -106.5 254v398q0 79 -44 122t-125 43v229q197 0 305 -100t108 -282v-364q0 -77 48.5 -120t136.5 -43v-214q-216 0 -322.5 77zM20 -164q81 0 125 43t44 123v385q0 183 106.5 263t322.5 80v-214q-88 0 -136.5 -43t-48.5 -120v-365q0 -182 -108 -281.5
t-305 -99.5v229z" />
    <glyph glyph-name="asciitilde" unicode="~" horiz-adv-x="1052" 
d="M622 481.5q-40 15.5 -83 42.5l-12 7q-32 20 -51 29t-38 9q-35 0 -52.5 -22.5t-17.5 -66.5v-11h-248v35q0 188 56 282.5t168 94.5q44 0 82 -11t75 -31q3 -1 5.5 -3t5.5 -3q6 -4 12.5 -7t12.5 -7q31 -18 49.5 -26t37.5 -8q35 0 52.5 25t17.5 75v10h248v-24
q0 -202 -58 -303.5t-175 -101.5q-47 0 -87 15.5z" />
    <glyph glyph-name="uni00A0" unicode="&#xa0;" horiz-adv-x="350" 
 />
    <glyph glyph-name="exclamdown" unicode="&#xa1;" horiz-adv-x="464" 
d="M95 605h274v-1021h-274v1021zM369 1038v-274h-274v274h274z" />
    <glyph glyph-name="cent" unicode="&#xa2;" horiz-adv-x="980" 
d="M316.5 38q-100.5 53 -153.5 154t-53 244v171q0 141 53 241t153.5 152.5t242.5 52.5q81 0 152.5 -19.5t128.5 -56.5t95 -90v0l-177 -162v0q-31 39 -79.5 61.5t-96.5 22.5q-94 0 -146 -53t-52 -149v-171q0 -104 52 -160.5t146 -56.5q50 0 96.5 24t79.5 67v0l177 -162v0
q-39 -52 -96 -88.5t-128.5 -55.5t-151.5 -19q-142 0 -242.5 53zM407 1215h274v-1392h-274v1392z" />
    <glyph glyph-name="sterling" unicode="&#xa3;" horiz-adv-x="1212" 
d="M187 309.5q39 45.5 39 128.5v601q0 136 54.5 232.5t158.5 147t250 50.5q147 0 251 -59t158 -171.5t54 -271.5v-13h-274v13q0 113 -47 175.5t-132 62.5q-95 0 -147 -61.5t-52 -174.5v-531q0 -115 -110.5 -177.5t-312.5 -62.5v66q71 0 110 45.5zM1152 0h-1082v264h1082
v-264zM905 738v-184h-813v184h813z" />
    <glyph glyph-name="currency" unicode="&#xa4;" horiz-adv-x="1178" 
d="M358 319.5q-96 51.5 -146 150t-50 236.5t50 236t146 149t231 51q132 0 228 -51t147.5 -149.5t51.5 -237.5q0 -207 -110 -319t-317 -115q-135 -2 -231 49.5zM713.5 565.5q44.5 49.5 44.5 138.5q0 92 -44.5 142t-125.5 50q-80 0 -124 -50t-44 -142q0 -89 44 -138.5
t124 -49.5q81 0 125.5 49.5zM80 379l198 200l186 -178l-202 -204zM80 1042l182 182l214 -216l-173 -191zM705 411l179 184l214 -216l-182 -182zM719 1025l197 199l182 -182l-208 -210z" />
    <glyph glyph-name="yen" unicode="&#xa5;" horiz-adv-x="1030" 
d="M123 538h784v-140h-784v140zM123 288h784v-140h-784v140zM652 561v-561h-274v561l-428 893h287l278 -626l278 626h287z" />
    <glyph glyph-name="brokenbar" unicode="&#xa6;" horiz-adv-x="564" 
d="M150 1626h264v-761h-264v761zM150 567h264v-739h-264v739z" />
    <glyph glyph-name="section" unicode="&#xa7;" horiz-adv-x="1180" 
d="M542 445q145 3 224.5 42t79.5 107q0 51 -28 81t-73 44.5t-115 24.5l-14 2l-14 2q-140 19 -228 47.5t-151 109.5t-63 235q0 104 51 178t148.5 112.5t235.5 38.5q77 0 153.5 -16t147 -46t130.5 -72l-166 -206q-73 36 -149 56t-142 20q-79 0 -122 -21.5t-43 -59.5
q0 -41 30.5 -64t77.5 -34t129 -23q20 -3 39.5 -6t38.5 -6q114 -19 195 -52t133.5 -104t52.5 -191q0 -91 -34 -162t-99.5 -119.5t-159.5 -72.5zM385.5 -189.5q-82.5 16.5 -154.5 48.5t-128 77l173 217q70 -50 145.5 -77.5t143.5 -27.5q105 0 163 23.5t58 65.5q0 38 -32.5 59
t-83 31.5t-136.5 20.5l-49 6q-10 1 -19 2.5t-19 3.5q-106 17 -186.5 54t-130.5 112t-50 197q0 92 43 157.5t125.5 103t201.5 45.5l126 -177q-8 2 -16.5 3t-16.5 2q-6 1 -12 1h-12q-90 0 -137.5 -32.5t-47.5 -98.5q0 -43 24 -70t64 -41t99 -24l12 -2q13 -2 27 -4t27 -4
q140 -21 228.5 -48t151.5 -99.5t63 -207.5q0 -105 -56 -180t-162.5 -114t-256.5 -39q-87 0 -169.5 16.5z" />
    <glyph glyph-name="dieresis" unicode="&#xa8;" horiz-adv-x="794" 
d="M470 1525h274v-274h-274v274zM50 1525h274v-274h-274v274z" />
    <glyph glyph-name="copyright" unicode="&#xa9;" horiz-adv-x="1430" 
d="M377 411.5q-140 72.5 -213.5 211.5t-73.5 334v0q0 195 73.5 333.5t213.5 211t338 72.5t338 -72.5t213.5 -211t73.5 -333.5v0q0 -195 -73.5 -334t-213.5 -211.5t-338 -72.5t-338 72.5zM490.5 713q-87.5 82 -87.5 232v36q0 148 87.5 229.5t246.5 81.5q73 0 136 -26.5
t107 -75.5v0l-125 -164v0q-26 24 -54 37.5t-53 13.5q-54 0 -83.5 -25t-29.5 -71v-36q0 -50 29.5 -77.5t83.5 -27.5q25 0 56 16.5t60 45.5v0l126 -161v0q-47 -53 -113 -81.5t-140 -28.5q-159 0 -246.5 82zM936.5 582.5q92.5 49.5 141 145t48.5 229.5v0q0 133 -48.5 228
t-140.5 145t-222 50t-222 -50t-140.5 -145t-48.5 -228v0q0 -134 48.5 -229.5t141 -145t221.5 -49.5t221.5 49.5z" />
    <glyph glyph-name="ordfeminine" unicode="&#xaa;" horiz-adv-x="705" 
d="M426 1197q0 30 -21 46.5t-56 16.5q-36 0 -57 -4t-48 -15l-136 121q47 53 107.5 76t150.5 23q128 0 198.5 -56.5t70.5 -167.5v-406h-209v366zM131 874q-51 50 -51 142q0 89 61 137.5t172 48.5h130l6 -150h-110q-28 0 -44 -10t-16 -28q0 -20 14 -31.5t39 -11.5
q45 0 69.5 16.5t24.5 46.5l23 -129q-27 -38 -72.5 -59.5t-100.5 -21.5q-94 0 -145 50z" />
    <glyph glyph-name="guillemotleft" unicode="&#xab;" horiz-adv-x="1029" 
d="M714 878h310l-244 -358h-310zM25 520h310l244 -357h-310zM269 878h310l-244 -358h-310zM470 520h310l244 -357h-310z" />
    <glyph glyph-name="logicalnot" unicode="&#xac;" horiz-adv-x="1070" 
d="M120 895h840v-264h-840v264zM686 827h274v-427h-274v427z" />
    <glyph glyph-name="uni00AD" unicode="&#xad;" horiz-adv-x="982" 
d="M852 653v-264h-712v264h712z" />
    <glyph glyph-name="registered" unicode="&#xae;" horiz-adv-x="1430" 
d="M377 411.5q-140 72.5 -213.5 211.5t-73.5 334v0q0 195 73.5 333.5t213.5 211t338 72.5t338 -72.5t213.5 -211t73.5 -333.5v0q0 -195 -73.5 -334t-213.5 -211.5t-338 -72.5t-338 72.5zM465 1271h191v-623h-191v623zM673 892l177 66l159 -309h-218zM936.5 582.5
q92.5 49.5 141 145t48.5 229.5v0q0 133 -48.5 228t-140.5 145t-222 50t-222 -50t-140.5 -145t-48.5 -228v0q0 -134 48.5 -229.5t141 -145t221.5 -49.5t221.5 49.5zM569 1001h169q29 0 46.5 14t17.5 38q0 25 -17.5 38.5t-46.5 13.5h-169v166h195q111 0 170 -59.5t59 -158.5
q0 -98 -60 -158t-169 -60h-195v166z" />
    <glyph glyph-name="macron" unicode="&#xaf;" horiz-adv-x="890" 
d="M810 1453v-274h-730v274h730z" />
    <glyph glyph-name="degree" unicode="&#xb0;" horiz-adv-x="746" 
d="M141.5 951.5q-81.5 78.5 -81.5 219.5q0 142 81.5 220t231.5 78t231.5 -78t81.5 -221q0 -141 -82 -219t-231 -78q-150 0 -231.5 78.5zM435 1098q22 26 22 75q0 46 -22 71t-63 25q-40 0 -61.5 -25.5t-21.5 -72.5q0 -48 21.5 -73.5t61.5 -25.5q41 0 63 26z" />
    <glyph glyph-name="plusminus" unicode="&#xb1;" horiz-adv-x="1082" 
d="M972 903v-240h-852v240h852zM683 304h-274v832h274v-832zM972 464v-240h-852v240h852z" />
    <glyph glyph-name="uni00B2" unicode="&#xb2;" horiz-adv-x="640" 
d="M101 1002l113 87q4 2 7 5t6 5q46 35 71.5 58t41.5 48.5t15 52.5v0q0 20 -7.5 31t-21.5 11q-20 0 -29.5 -20t-11.5 -60v0h-205v0q8 117 68.5 179t175.5 62q117 0 181.5 -52.5t64.5 -148.5v-1q0 -54 -17 -97t-61 -84l-73 -68h151v-179h-469v171z" />
    <glyph glyph-name="uni00B3" unicode="&#xb3;" horiz-adv-x="688" 
d="M203.5 851q-60.5 27 -92 79t-31.5 125v0h220v0q0 -33 13 -54.5t35 -21.5t34 12.5t12 35.5v-1q0 26 -18 40t-52 14h-18v136h18q28 0 44 13t16 36v-3q0 20 -9.5 31.5t-25.5 11.5q-22 0 -34.5 -18.5t-12.5 -51.5v0h-222v0q0 72 31.5 122.5t92 77t146.5 26.5q123 0 190.5 -47
t67.5 -131v-20q0 -40 -20 -70.5t-56 -44.5q41 -7 63.5 -36.5t22.5 -76.5v-30q0 -86 -70 -133.5t-198 -47.5q-86 0 -146.5 27z" />
    <glyph glyph-name="acute" unicode="&#xb4;" horiz-adv-x="603" 
d="M62 1321l286 355l193 -162l-305 -336z" />
    <glyph glyph-name="mu" unicode="&#xb5;" horiz-adv-x="1219" 
d="M140 1038h274v-755h-12l12 -563h-274v1318zM480 10q-42 25 -65.5 71.5t-23.5 107.5l23 218q0 -75 42.5 -116.5t119.5 -41.5q76 0 118 43t42 121l44 -224q-3 -97 -56.5 -150.5t-147.5 -53.5q-54 0 -96 25zM809 67q-73 72 -73 203v768h274v-650q0 -61 27 -95t76 -34h55
v-264h-154q-132 0 -205 72z" />
    <glyph glyph-name="paragraph" unicode="&#xb6;" horiz-adv-x="1412" 
d="M274 495q-102 66 -158 182.5t-56 263.5q0 148 55.5 264.5t157 182.5t235.5 66h285v-1025h-285q-132 0 -234 66zM608 1454h264v-1690h-264v1690zM996 1454h264v-1690h-264v1690zM706 1454h666v-264h-666v264z" />
    <glyph glyph-name="periodcentered" unicode="&#xb7;" horiz-adv-x="424" 
d="M70 669h284v-284h-284v284z" />
    <glyph glyph-name="cedilla" unicode="&#xb8;" horiz-adv-x="582" 
d="M60 -405l42 155q53 -14 105 -14q42 0 65.5 9.5t23.5 26.5q0 21 -38 32.5t-108 11.5l97 121q131 0 203 -47t72 -132q0 -86 -77.5 -133.5t-219.5 -47.5q-98 0 -165 18zM150 90h206v-274h-206v274z" />
    <glyph glyph-name="uni00B9" unicode="&#xb9;" horiz-adv-x="497" 
d="M427 831h-225v354l-122 -54v238l174 85h173v-623z" />
    <glyph glyph-name="ordmasculine" unicode="&#xba;" horiz-adv-x="700" 
d="M151.5 892.5q-71.5 68.5 -71.5 191.5v117q0 124 71.5 192t203.5 68t203.5 -68.5t71.5 -192.5v-116q0 -123 -71.5 -191.5t-203.5 -68.5t-203.5 68.5zM388.5 1046q11.5 15 11.5 43v110q0 26 -11.5 40.5t-33.5 14.5t-33.5 -14.5t-11.5 -42.5v-108q0 -29 11.5 -43.5
t33.5 -14.5t33.5 15z" />
    <glyph glyph-name="guillemotright" unicode="&#xbb;" horiz-adv-x="1029" 
d="M450 878h310l244 -358h-310zM249 520h310l-244 -357h-310zM5 878h310l244 -358h-310zM694 520h310l-244 -357h-310z" />
    <glyph glyph-name="onequarter" unicode="&#xbc;" horiz-adv-x="1401" 
d="M935 1454h249l-760 -1454h-249zM803 236l167 387h225l-160 -387h286v-174h-518v174zM1116 384h205v-384h-205v384zM427 831h-225v354l-122 -54v238l174 85h173v-623z" />
    <glyph glyph-name="onehalf" unicode="&#xbd;" horiz-adv-x="1389" 
d="M920 1454h249l-760 -1454h-249zM427 831h-225v354l-122 -54v238l174 85h173v-623zM840 171l113 87q4 2 7 5t6 5q46 35 71.5 58t41.5 48.5t15 52.5v0q0 20 -7.5 31t-21.5 11q-20 0 -29.5 -20t-11.5 -60v0h-205v0q8 117 68.5 179t175.5 62q117 0 181.5 -52.5t64.5 -148.5
v-1q0 -54 -17 -97t-61 -84l-73 -68h151v-179h-469v171z" />
    <glyph glyph-name="threequarters" unicode="&#xbe;" horiz-adv-x="1441" 
d="M1020 1454h249l-760 -1454h-249zM843 236l167 387h225l-160 -387h286v-174h-518v174zM1156 384h205v-384h-205v384zM150.5 884.5q-70.5 60.5 -70.5 170.5v0h220v0q0 -33 13 -54.5t35 -21.5t34 12.5t12 35.5v-1q0 26 -18 40t-52 14h-18v136h18q28 0 44 13t16 36v-3
q0 20 -9.5 31.5t-25.5 11.5q-22 0 -34.5 -18.5t-12.5 -51.5v0h-222v0q0 108 70.5 167t199.5 59q123 0 190.5 -47t67.5 -131v-20q0 -40 -20 -70.5t-56 -44.5q41 -7 63.5 -36.5t22.5 -76.5v-30q0 -86 -70 -133.5t-198 -47.5q-129 0 -199.5 60.5z" />
    <glyph glyph-name="questiondown" unicode="&#xbf;" horiz-adv-x="844" 
d="M245 -378q-93 44 -141.5 127.5t-48.5 201.5v1q0 77 21.5 139t53 108.5t83.5 107.5q49 59 76.5 99t46.5 92.5t19 115.5h274q0 -86 -23 -154t-56 -116t-87 -112q-43 -50 -67 -84.5t-40.5 -76t-16.5 -90.5v-1q0 -68 33.5 -105.5t94.5 -37.5q60 0 93.5 41.5t34.5 116.5v1h284
v-1q-5 -132 -55 -225.5t-140.5 -142.5t-215.5 -49q-130 0 -223 44zM628 773h-274v274h274v-274z" />
    <glyph glyph-name="Agrave" unicode="&#xc0;" horiz-adv-x="1326" 
d="M576 1454h174l556 -1454h-295l-348 993l-348 -993h-295zM287 497h765v-264h-765v264zM314 1770l182 187l286 -245l-173 -168z" />
    <glyph glyph-name="Aacute" unicode="&#xc1;" horiz-adv-x="1326" 
d="M576 1454h174l556 -1454h-295l-348 993l-348 -993h-295zM287 497h765v-264h-765v264zM539 1712l276 245l182 -187l-295 -226z" />
    <glyph glyph-name="Acircumflex" unicode="&#xc2;" horiz-adv-x="1326" 
d="M576 1454h174l556 -1454h-295l-348 993l-348 -993h-295zM287 497h765v-264h-765v264zM1014 1692l-159 -140l-195 150l-195 -150l-159 140l354 274z" />
    <glyph glyph-name="Atilde" unicode="&#xc3;" horiz-adv-x="1326" 
d="M576 1454h174l556 -1454h-295l-348 993l-348 -993h-295zM287 497h765v-264h-765v264zM789 1564.5q-28 6.5 -52.5 16.5t-51.5 24l-3 1l-7 3.5l-7 3.5q-40 20 -64.5 29.5t-49.5 9.5q-35 0 -52.5 -17.5t-17.5 -52.5v-21h-208v25q0 160 51 239.5t153 79.5q41 0 81 -13t94 -37
l3 -2q5 -2 10.5 -4.5t10.5 -5.5q37 -17 57 -24.5t36 -7.5q35 0 52.5 19.5t17.5 57.5v20h208v-24q0 -163 -50.5 -244.5t-152.5 -81.5q-30 0 -58 6.5z" />
    <glyph glyph-name="Adieresis" unicode="&#xc4;" horiz-adv-x="1326" 
d="M576 1454h174l556 -1454h-295l-348 993l-348 -993h-295zM287 497h765v-264h-765v264zM736 1847h274v-274h-274v274zM316 1847h274v-274h-274v274z" />
    <glyph glyph-name="Aring" unicode="&#xc5;" horiz-adv-x="1326" 
d="M459.5 1460q-71.5 68 -71.5 193q0 130 71.5 200.5t203.5 70.5q131 0 203 -71.5t72 -199.5q0 -125 -72 -193t-203 -68q-132 0 -203.5 68zM724.5 1594.5q21.5 22.5 21.5 62.5q0 42 -21.5 65t-61.5 23t-61.5 -23t-21.5 -65q0 -40 21.5 -62.5t61.5 -22.5t61.5 22.5zM576 1454
h174l556 -1454h-295l-348 993l-348 -993h-295zM287 497h765v-264h-765v264z" />
    <glyph glyph-name="AE" unicode="&#xc6;" horiz-adv-x="2000" 
d="M776 1454h276l-790 -1454h-282zM355 487h705v-254h-705v254zM936 1454h274v-1454h-274v1454zM1035 264h875v-264h-875v264zM1035 854h765v-264h-765v264zM1035 1454h875v-264h-875v264z" />
    <glyph glyph-name="Ccedilla" unicode="&#xc7;" horiz-adv-x="1267" 
d="M372 48.5q-118 63.5 -180 185t-62 293.5v399q0 172 62 293.5t180 185.5t284 64q137 0 245 -59t178.5 -171.5t97.5 -271.5v0h-284v0q-16 72 -49.5 123t-81 78t-106.5 27q-77 0 -131 -31.5t-82.5 -92t-28.5 -145.5v-399q0 -85 28.5 -145t82.5 -91.5t131 -31.5
q60 0 108 26.5t81 77.5t48 124v0h284v0q-28 -159 -98.5 -271.5t-178 -171.5t-244.5 -59q-166 0 -284 63.5zM455 -404l42 155q53 -14 105 -14q42 0 65.5 9.5t23.5 26.5q0 21 -38 32.5t-108 11.5l97 121q131 0 203 -47t72 -132q0 -86 -77.5 -133.5t-219.5 -47.5q-98 0 -165 18
zM751 61v-246l-206 2v244h206z" />
    <glyph glyph-name="Egrave" unicode="&#xc8;" horiz-adv-x="1224" 
d="M160 1454h274v-1454h-274v1454zM259 264h875v-264h-875v264zM259 854h765v-264h-765v264zM259 1454h875v-264h-875v264zM316 1770l182 187l286 -245l-173 -168z" />
    <glyph glyph-name="Eacute" unicode="&#xc9;" horiz-adv-x="1224" 
d="M160 1454h274v-1454h-274v1454zM259 264h875v-264h-875v264zM259 854h765v-264h-765v264zM259 1454h875v-264h-875v264zM541 1712l276 245l182 -187l-295 -226z" />
    <glyph glyph-name="Ecircumflex" unicode="&#xca;" horiz-adv-x="1224" 
d="M160 1454h274v-1454h-274v1454zM259 264h875v-264h-875v264zM259 854h765v-264h-765v264zM259 1454h875v-264h-875v264zM1016 1692l-159 -140l-195 150l-195 -150l-159 140l354 274z" />
    <glyph glyph-name="Edieresis" unicode="&#xcb;" horiz-adv-x="1224" 
d="M160 1454h274v-1454h-274v1454zM259 264h875v-264h-875v264zM259 854h765v-264h-765v264zM259 1454h875v-264h-875v264zM738 1847h274v-274h-274v274zM318 1847h274v-274h-274v274z" />
    <glyph glyph-name="Igrave" unicode="&#xcc;" horiz-adv-x="564" 
d="M424 0h-284v1454h284v-1454zM-67 1770l182 187l286 -245l-173 -168z" />
    <glyph glyph-name="Iacute" unicode="&#xcd;" horiz-adv-x="564" 
d="M424 0h-284v1454h284v-1454zM158 1712l276 245l182 -187l-295 -226z" />
    <glyph glyph-name="Icircumflex" unicode="&#xce;" horiz-adv-x="564" 
d="M424 0h-284v1454h284v-1454zM633 1692l-159 -140l-195 150l-195 -150l-159 140l354 274z" />
    <glyph glyph-name="Idieresis" unicode="&#xcf;" horiz-adv-x="564" 
d="M424 0h-284v1454h284v-1454zM355 1847h274v-274h-274v274zM-65 1847h274v-274h-274v274z" />
    <glyph glyph-name="Eth" unicode="&#xd0;" horiz-adv-x="1391" 
d="M345 264h349q135 0 209 65t74 184v428q0 119 -74 184t-209 65h-349v264h343q182 0 310.5 -61t195.5 -178t67 -282v-412q0 -157 -64.5 -274t-193.5 -182t-316 -65h-342v264zM207 1454h274v-1454h-274v1454zM718 849v-244h-670v244h670z" />
    <glyph glyph-name="Ntilde" unicode="&#xd1;" horiz-adv-x="1434" 
d="M160 1454h335l541 -1114l-24 -26v1140h262v-1453h-337l-539 1097l24 26v-1123h-262v1453zM858 1564.5q-28 6.5 -52.5 16.5t-51.5 24l-3 1l-7 3.5l-7 3.5q-40 20 -64.5 29.5t-49.5 9.5q-35 0 -52.5 -17.5t-17.5 -52.5v-21h-208v25q0 160 51 239.5t153 79.5q41 0 81 -13
t94 -37l3 -2q5 -2 10.5 -4.5t10.5 -5.5q37 -17 57 -24.5t36 -7.5q35 0 52.5 19.5t17.5 57.5v20h208v-24q0 -163 -50.5 -244.5t-152.5 -81.5q-30 0 -58 6.5z" />
    <glyph glyph-name="Ograve" unicode="&#xd2;" horiz-adv-x="1322" 
d="M382.5 51.5q-120.5 66.5 -186.5 188t-66 281.5v412q0 160 66 281.5t186.5 188t278.5 66.5t278.5 -66.5t186.5 -188t66 -281.5v-412q0 -160 -66 -281.5t-186.5 -188t-278.5 -66.5t-278.5 66.5zM791 290.5q56 31.5 86.5 89.5t30.5 134v426q0 76 -30.5 134t-86.5 89.5
t-130 31.5t-130 -31.5t-86.5 -89.5t-30.5 -134v-426q0 -76 30.5 -134t86.5 -89.5t130 -31.5t130 31.5zM312 1770l182 187l286 -245l-173 -168z" />
    <glyph glyph-name="Oacute" unicode="&#xd3;" horiz-adv-x="1322" 
d="M382.5 51.5q-120.5 66.5 -186.5 188t-66 281.5v412q0 160 66 281.5t186.5 188t278.5 66.5t278.5 -66.5t186.5 -188t66 -281.5v-412q0 -160 -66 -281.5t-186.5 -188t-278.5 -66.5t-278.5 66.5zM791 290.5q56 31.5 86.5 89.5t30.5 134v426q0 76 -30.5 134t-86.5 89.5
t-130 31.5t-130 -31.5t-86.5 -89.5t-30.5 -134v-426q0 -76 30.5 -134t86.5 -89.5t130 -31.5t130 31.5zM537 1712l276 245l182 -187l-295 -226z" />
    <glyph glyph-name="Ocircumflex" unicode="&#xd4;" horiz-adv-x="1322" 
d="M382.5 51.5q-120.5 66.5 -186.5 188t-66 281.5v412q0 160 66 281.5t186.5 188t278.5 66.5t278.5 -66.5t186.5 -188t66 -281.5v-412q0 -160 -66 -281.5t-186.5 -188t-278.5 -66.5t-278.5 66.5zM791 290.5q56 31.5 86.5 89.5t30.5 134v426q0 76 -30.5 134t-86.5 89.5
t-130 31.5t-130 -31.5t-86.5 -89.5t-30.5 -134v-426q0 -76 30.5 -134t86.5 -89.5t130 -31.5t130 31.5zM1012 1692l-159 -140l-195 150l-195 -150l-159 140l354 274z" />
    <glyph glyph-name="Otilde" unicode="&#xd5;" horiz-adv-x="1322" 
d="M382.5 51.5q-120.5 66.5 -186.5 188t-66 281.5v412q0 160 66 281.5t186.5 188t278.5 66.5t278.5 -66.5t186.5 -188t66 -281.5v-412q0 -160 -66 -281.5t-186.5 -188t-278.5 -66.5t-278.5 66.5zM791 290.5q56 31.5 86.5 89.5t30.5 134v426q0 76 -30.5 134t-86.5 89.5
t-130 31.5t-130 -31.5t-86.5 -89.5t-30.5 -134v-426q0 -76 30.5 -134t86.5 -89.5t130 -31.5t130 31.5zM787 1564.5q-28 6.5 -52.5 16.5t-51.5 24l-3 1l-7 3.5l-7 3.5q-40 20 -64.5 29.5t-49.5 9.5q-35 0 -52.5 -17.5t-17.5 -52.5v-21h-208v25q0 160 51 239.5t153 79.5
q41 0 81 -13t94 -37l3 -2q5 -2 10.5 -4.5t10.5 -5.5q37 -17 57 -24.5t36 -7.5q35 0 52.5 19.5t17.5 57.5v20h208v-24q0 -163 -50.5 -244.5t-152.5 -81.5q-30 0 -58 6.5z" />
    <glyph glyph-name="Odieresis" unicode="&#xd6;" horiz-adv-x="1322" 
d="M382.5 51.5q-120.5 66.5 -186.5 188t-66 281.5v412q0 160 66 281.5t186.5 188t278.5 66.5t278.5 -66.5t186.5 -188t66 -281.5v-412q0 -160 -66 -281.5t-186.5 -188t-278.5 -66.5t-278.5 66.5zM791 290.5q56 31.5 86.5 89.5t30.5 134v426q0 76 -30.5 134t-86.5 89.5
t-130 31.5t-130 -31.5t-86.5 -89.5t-30.5 -134v-426q0 -76 30.5 -134t86.5 -89.5t130 -31.5t130 31.5zM734 1847h274v-274h-274v274zM314 1847h274v-274h-274v274z" />
    <glyph glyph-name="multiply" unicode="&#xd7;" horiz-adv-x="1031" 
d="M120 452l622 616l179 -180l-621 -616zM123 892l173 173l622 -617l-172 -173z" />
    <glyph glyph-name="Oslash" unicode="&#xd8;" horiz-adv-x="1322" 
d="M977 1597h164l-778 -1728h-165zM382.5 51.5q-120.5 66.5 -186.5 188t-66 281.5v412q0 160 66 281.5t186.5 188t278.5 66.5t278.5 -66.5t186.5 -188t66 -281.5v-412q0 -160 -66 -281.5t-186.5 -188t-278.5 -66.5t-278.5 66.5zM791 290.5q56 31.5 86.5 89.5t30.5 134v426
q0 76 -30.5 134t-86.5 89.5t-130 31.5t-130 -31.5t-86.5 -89.5t-30.5 -134v-426q0 -76 30.5 -134t86.5 -89.5t130 -31.5t130 31.5z" />
    <glyph glyph-name="Ugrave" unicode="&#xd9;" horiz-adv-x="1342" 
d="M383 48.5q-119 63.5 -181 185t-62 292.5v928h274v-935q0 -125 67 -194t189 -69q123 0 190.5 69t67.5 194v935h274v-928q0 -171 -62.5 -292.5t-182 -185t-287.5 -63.5t-287 63.5zM321 1770l182 187l286 -245l-173 -168z" />
    <glyph glyph-name="Uacute" unicode="&#xda;" horiz-adv-x="1342" 
d="M383 48.5q-119 63.5 -181 185t-62 292.5v928h274v-935q0 -125 67 -194t189 -69q123 0 190.5 69t67.5 194v935h274v-928q0 -171 -62.5 -292.5t-182 -185t-287.5 -63.5t-287 63.5zM546 1712l276 245l182 -187l-295 -226z" />
    <glyph glyph-name="Ucircumflex" unicode="&#xdb;" horiz-adv-x="1342" 
d="M383 48.5q-119 63.5 -181 185t-62 292.5v928h274v-935q0 -125 67 -194t189 -69q123 0 190.5 69t67.5 194v935h274v-928q0 -171 -62.5 -292.5t-182 -185t-287.5 -63.5t-287 63.5zM1021 1692l-159 -140l-195 150l-195 -150l-159 140l354 274z" />
    <glyph glyph-name="Udieresis" unicode="&#xdc;" horiz-adv-x="1342" 
d="M383 48.5q-119 63.5 -181 185t-62 292.5v928h274v-935q0 -125 67 -194t189 -69q123 0 190.5 69t67.5 194v935h274v-928q0 -171 -62.5 -292.5t-182 -185t-287.5 -63.5t-287 63.5zM743 1847h274v-274h-274v274zM323 1847h274v-274h-274v274z" />
    <glyph glyph-name="Yacute" unicode="&#xdd;" horiz-adv-x="1030" 
d="M652 561v-561h-274v561l-428 893h287l278 -626l278 626h287zM391 1712l276 245l182 -187l-295 -226z" />
    <glyph glyph-name="Thorn" unicode="&#xde;" horiz-adv-x="1275" 
d="M285 568h465q49 0 86.5 22.5t58.5 63.5t21 94v0q0 54 -20.5 95.5t-58 64t-87.5 22.5h-465v264h458q136 0 239.5 -55.5t160.5 -156.5t57 -234v0q0 -133 -57 -233.5t-160.5 -155.5t-239.5 -55h-458v264zM160 1454h274v-1454h-274v1454z" />
    <glyph glyph-name="germandbls" unicode="&#xdf;" horiz-adv-x="1137" 
d="M140 1070q0 126 52 215.5t151.5 136.5t239.5 47q134 0 229.5 -42t145 -121.5t49.5 -191.5v-6q0 -102 -57 -152.5t-174 -72.5q110 -16 170.5 -74t60.5 -147v-430q0 -118 -98 -182.5t-278 -64.5h-96v264h96q49 0 75.5 25t26.5 70v307q0 46 -26.5 71t-75.5 25h-96v264h96
q50 0 76 21.5t26 68.5v7q0 46 -39 71.5t-109 25.5q-81 0 -126 -37.5t-45 -105.5v-1062h-274v1070z" />
    <glyph glyph-name="agrave" unicode="&#xe0;" horiz-adv-x="1090" 
d="M711 658q0 72 -48 111t-136 39q-58 0 -115 -19t-101 -53l-170 167q62 71 164 110.5t226 39.5q136 0 232 -45.5t146.5 -132t50.5 -208.5v-667h-249v658zM172.5 64.5q-82.5 79.5 -82.5 241.5q0 154 92.5 231t277.5 77h260l14 -209h-273q-62 0 -93 -24.5t-31 -74.5
q0 -51 39 -75.5t118 -24.5q110 0 163.5 25t53.5 78l21 -151q-6 -56 -51.5 -95t-114 -58.5t-144.5 -19.5q-167 0 -249.5 79.5zM211 1514l193 162l286 -355l-174 -143z" />
    <glyph glyph-name="aacute" unicode="&#xe1;" horiz-adv-x="1090" 
d="M711 658q0 72 -48 111t-136 39q-58 0 -115 -19t-101 -53l-170 167q62 71 164 110.5t226 39.5q136 0 232 -45.5t146.5 -132t50.5 -208.5v-667h-249v658zM172.5 64.5q-82.5 79.5 -82.5 241.5q0 154 92.5 231t277.5 77h260l14 -209h-273q-62 0 -93 -24.5t-31 -74.5
q0 -51 39 -75.5t118 -24.5q110 0 163.5 25t53.5 78l21 -151q-6 -56 -51.5 -95t-114 -58.5t-144.5 -19.5q-167 0 -249.5 79.5zM386 1321l286 355l193 -162l-305 -336z" />
    <glyph glyph-name="acircumflex" unicode="&#xe2;" horiz-adv-x="1090" 
d="M711 658q0 72 -48 111t-136 39q-58 0 -115 -19t-101 -53l-170 167q62 71 164 110.5t226 39.5q136 0 232 -45.5t146.5 -132t50.5 -208.5v-667h-249v658zM172.5 64.5q-82.5 79.5 -82.5 241.5q0 154 92.5 231t277.5 77h260l14 -209h-273q-62 0 -93 -24.5t-31 -74.5
q0 -51 39 -75.5t118 -24.5q110 0 163.5 25t53.5 78l21 -151q-6 -56 -51.5 -95t-114 -58.5t-144.5 -19.5q-167 0 -249.5 79.5zM894 1318l-154 -140l-200 190l-200 -190l-154 140l354 334z" />
    <glyph glyph-name="atilde" unicode="&#xe3;" horiz-adv-x="1090" 
d="M711 658q0 72 -48 111t-136 39q-58 0 -115 -19t-101 -53l-170 167q62 71 164 110.5t226 39.5q136 0 232 -45.5t146.5 -132t50.5 -208.5v-667h-249v658zM172.5 64.5q-82.5 79.5 -82.5 241.5q0 154 92.5 231t277.5 77h260l14 -209h-273q-62 0 -93 -24.5t-31 -74.5
q0 -51 39 -75.5t118 -24.5q110 0 163.5 25t53.5 78l21 -151q-6 -56 -51.5 -95t-114 -58.5t-144.5 -19.5q-167 0 -249.5 79.5zM634.5 1201.5q-30.5 9.5 -65.5 30.5l-11 7q-4 3 -8.5 6t-8.5 5q-31 19 -55.5 27.5t-44.5 8.5q-32 0 -46 -14t-14 -46v-31h-208v35q0 163 50.5 236
t163.5 73q28 0 59 -10t71 -32l11 -6l21 -12q34 -18 55.5 -26t34.5 -8q32 0 46 16t14 51v30h208v-34q0 -166 -50.5 -241t-162.5 -75q-29 0 -59.5 9.5z" />
    <glyph glyph-name="adieresis" unicode="&#xe4;" horiz-adv-x="1090" 
d="M711 658q0 72 -48 111t-136 39q-58 0 -115 -19t-101 -53l-170 167q62 71 164 110.5t226 39.5q136 0 232 -45.5t146.5 -132t50.5 -208.5v-667h-249v658zM172.5 64.5q-82.5 79.5 -82.5 241.5q0 154 92.5 231t277.5 77h260l14 -209h-273q-62 0 -93 -24.5t-31 -74.5
q0 -51 39 -75.5t118 -24.5q110 0 163.5 25t53.5 78l21 -151q-6 -56 -51.5 -95t-114 -58.5t-144.5 -19.5q-167 0 -249.5 79.5zM613 1525h274v-274h-274v274zM193 1525h274v-274h-274v274z" />
    <glyph glyph-name="aring" unicode="&#xe5;" horiz-adv-x="1090" 
d="M711 658q0 72 -48 111t-136 39q-58 0 -115 -19t-101 -53l-170 167q62 71 164 110.5t226 39.5q136 0 232 -45.5t146.5 -132t50.5 -208.5v-667h-249v658zM172.5 64.5q-82.5 79.5 -82.5 241.5q0 154 92.5 231t277.5 77h260l14 -209h-273q-62 0 -93 -24.5t-31 -74.5
q0 -51 39 -75.5t118 -24.5q110 0 163.5 25t53.5 78l21 -151q-6 -56 -51.5 -95t-114 -58.5t-144.5 -19.5q-167 0 -249.5 79.5zM336.5 1248q-71.5 68 -71.5 193q0 130 71.5 200.5t203.5 70.5q131 0 203 -71.5t72 -199.5q0 -125 -72 -193t-203 -68q-132 0 -203.5 68z
M601.5 1382.5q21.5 22.5 21.5 62.5q0 42 -21.5 65t-61.5 23t-61.5 -23t-21.5 -65q0 -40 21.5 -62.5t61.5 -22.5t61.5 22.5z" />
    <glyph glyph-name="ae" unicode="&#xe6;" horiz-adv-x="1708" 
d="M706 628q0 93 -47 144t-132 51q-59 0 -116 -22.5t-101 -63.5l-169 166q62 71 164 110.5t226 39.5q172 0 265.5 -101t93.5 -285v-397l-184 -25v383zM182.5 64.5q-92.5 79.5 -92.5 241.5q0 145 92.5 217.5t277.5 72.5h315l14 -179h-328q-62 0 -92.5 -27.5t-30.5 -82.5
t39 -83t117 -28q70 0 118 27.5t71 67.5t23 78l129 75l39 -176q-62 -144 -164.5 -213.5t-247.5 -69.5q-187 0 -279.5 79.5zM970 39.5q-98 54.5 -149 159t-51 251.5v117q0 154 47.5 263t139 166t220.5 57q136 0 233 -66.5t147.5 -192.5t50.5 -304v-73h-710v179h475l-3 25
q-12 95 -61.5 146.5t-131.5 51.5q-101 0 -157 -63t-56 -178v-132q0 -108 63.5 -167.5t177.5 -59.5q57 0 114 19.5t103 55.5v0l159 -154v0q-78 -74 -177 -114.5t-199 -40.5q-137 0 -235 54.5z" />
    <glyph glyph-name="ccedilla" unicode="&#xe7;" horiz-adv-x="1020" 
d="M325.5 41.5q-105.5 56.5 -160.5 164.5t-55 260v111q0 151 55 257.5t160.5 162.5t253.5 56q85 0 160.5 -19.5t135.5 -56.5t100 -90v0l-177 -172v0q-38 35 -89 54.5t-107 19.5q-104 0 -161 -55.5t-57 -156.5v-111q0 -104 57 -160.5t161 -56.5q57 0 108 21t88 60v0l177 -182
v0q-41 -52 -101 -88.5t-135 -55.5t-160 -19q-148 0 -253.5 56.5zM331 -405l42 155q53 -14 105 -14q42 0 65.5 9.5t23.5 26.5q0 21 -38 32.5t-108 11.5l97 121q131 0 203 -47t72 -132q0 -86 -77.5 -133.5t-219.5 -47.5q-98 0 -165 18zM421 90h206v-274h-206v274z" />
    <glyph glyph-name="egrave" unicode="&#xe8;" horiz-adv-x="1098" 
d="M328.5 39.5q-106.5 54.5 -162.5 159t-56 251.5v117q0 154 53.5 263t156 166t247.5 57q136 0 233 -68t147.5 -197.5t50.5 -312.5v-68h-710v185h460l-3 24q-11 90 -56.5 139t-121.5 49q-99 0 -153.5 -59t-54.5 -167v-132q0 -106 59.5 -164t166.5 -58q55 0 109 19.5t98 55.5
v0l179 -159v0q-81 -74 -182 -114.5t-204 -40.5q-150 0 -256.5 54.5zM231 1514l193 162l286 -355l-174 -143z" />
    <glyph glyph-name="eacute" unicode="&#xe9;" horiz-adv-x="1098" 
d="M328.5 39.5q-106.5 54.5 -162.5 159t-56 251.5v117q0 154 53.5 263t156 166t247.5 57q136 0 233 -68t147.5 -197.5t50.5 -312.5v-68h-710v185h460l-3 24q-11 90 -56.5 139t-121.5 49q-99 0 -153.5 -59t-54.5 -167v-132q0 -106 59.5 -164t166.5 -58q55 0 109 19.5t98 55.5
v0l179 -159v0q-81 -74 -182 -114.5t-204 -40.5q-150 0 -256.5 54.5zM406 1321l286 355l193 -162l-305 -336z" />
    <glyph glyph-name="ecircumflex" unicode="&#xea;" horiz-adv-x="1098" 
d="M328.5 39.5q-106.5 54.5 -162.5 159t-56 251.5v117q0 154 53.5 263t156 166t247.5 57q136 0 233 -68t147.5 -197.5t50.5 -312.5v-68h-710v185h460l-3 24q-11 90 -56.5 139t-121.5 49q-99 0 -153.5 -59t-54.5 -167v-132q0 -106 59.5 -164t166.5 -58q55 0 109 19.5t98 55.5
v0l179 -159v0q-81 -74 -182 -114.5t-204 -40.5q-150 0 -256.5 54.5zM914 1318l-154 -140l-200 190l-200 -190l-154 140l354 334z" />
    <glyph glyph-name="edieresis" unicode="&#xeb;" horiz-adv-x="1098" 
d="M328.5 39.5q-106.5 54.5 -162.5 159t-56 251.5v117q0 154 53.5 263t156 166t247.5 57q136 0 233 -68t147.5 -197.5t50.5 -312.5v-68h-710v185h460l-3 24q-11 90 -56.5 139t-121.5 49q-99 0 -153.5 -59t-54.5 -167v-132q0 -106 59.5 -164t166.5 -58q55 0 109 19.5t98 55.5
v0l179 -159v0q-81 -74 -182 -114.5t-204 -40.5q-150 0 -256.5 54.5zM633 1525h274v-274h-274v274zM213 1525h274v-274h-274v274z" />
    <glyph glyph-name="igrave" unicode="&#xec;" horiz-adv-x="514" 
d="M125 1038h274v-1038h-274v1038zM-67 1514l193 162l286 -355l-174 -143z" />
    <glyph glyph-name="iacute" unicode="&#xed;" horiz-adv-x="514" 
d="M125 1038h274v-1038h-274v1038zM108 1321l286 355l193 -162l-305 -336z" />
    <glyph glyph-name="icircumflex" unicode="&#xee;" horiz-adv-x="514" 
d="M125 1038h274v-1038h-274v1038zM616 1318l-154 -140l-200 190l-200 -190l-154 140l354 334z" />
    <glyph glyph-name="idieresis" unicode="&#xef;" horiz-adv-x="514" 
d="M125 1038h274v-1038h-274v1038zM335 1525h274v-274h-274v274zM-85 1525h274v-274h-274v274z" />
    <glyph glyph-name="eth" unicode="&#xf0;" horiz-adv-x="1102" 
d="M715 610q0 154 -39 293.5t-109 239.5l-220 311h278l167 -244q83 -121 131.5 -276t48.5 -324h-257zM972 610v-180q0 -139 -51 -239t-148 -153t-234 -53q-135 0 -231.5 52t-147 152t-50.5 241v183q0 137 43 236t125.5 151.5t198.5 52.5q82 0 150.5 -44t122.5 -128zM698 610
q0 179 -159 179q-77 0 -116 -44.5t-39 -131.5v-183q0 -181 155 -181q81 0 120 45.5t39 135.5v180zM905 1425l21 -183l-743 -78l-21 183z" />
    <glyph glyph-name="ntilde" unicode="&#xf1;" horiz-adv-x="1144" 
d="M140 1038h274v-1038h-274v1038zM740 629q0 76 -43.5 118t-123.5 42q-76 0 -117.5 -42.5t-41.5 -119.5l-21 230q47 98 112.5 147t164.5 49q164 0 254 -110.5t90 -312.5v-630h-274v629zM666.5 1201.5q-30.5 9.5 -65.5 30.5l-11 7q-4 3 -8.5 6t-8.5 5q-31 19 -55.5 27.5
t-44.5 8.5q-32 0 -46 -14t-14 -46v-31h-208v35q0 163 50.5 236t163.5 73q28 0 59 -10t71 -32l11 -6l21 -12q34 -18 55.5 -26t34.5 -8q32 0 46 16t14 51v30h208v-34q0 -166 -50.5 -241t-162.5 -75q-29 0 -59.5 9.5z" />
    <glyph glyph-name="ograve" unicode="&#xf2;" horiz-adv-x="1116" 
d="M315.5 38q-100.5 53 -153 154.5t-52.5 244.5v169q0 141 52.5 241.5t153 153t242.5 52.5t242.5 -52.5t153 -153t52.5 -241.5v-172q0 -142 -52.5 -242.5t-153 -153.5t-242.5 -53t-242.5 53zM686 297.5q46 48.5 46 136.5v172q0 87 -46 135t-129 48q-82 0 -127.5 -48
t-45.5 -135v-172q0 -88 45 -136.5t128 -48.5t129 48.5zM229 1514l193 162l286 -355l-174 -143z" />
    <glyph glyph-name="oacute" unicode="&#xf3;" horiz-adv-x="1116" 
d="M315.5 38q-100.5 53 -153 154.5t-52.5 244.5v169q0 141 52.5 241.5t153 153t242.5 52.5t242.5 -52.5t153 -153t52.5 -241.5v-172q0 -142 -52.5 -242.5t-153 -153.5t-242.5 -53t-242.5 53zM686 297.5q46 48.5 46 136.5v172q0 87 -46 135t-129 48q-82 0 -127.5 -48
t-45.5 -135v-172q0 -88 45 -136.5t128 -48.5t129 48.5zM404 1321l286 355l193 -162l-305 -336z" />
    <glyph glyph-name="ocircumflex" unicode="&#xf4;" horiz-adv-x="1116" 
d="M315.5 38q-100.5 53 -153 154.5t-52.5 244.5v169q0 141 52.5 241.5t153 153t242.5 52.5t242.5 -52.5t153 -153t52.5 -241.5v-172q0 -142 -52.5 -242.5t-153 -153.5t-242.5 -53t-242.5 53zM686 297.5q46 48.5 46 136.5v172q0 87 -46 135t-129 48q-82 0 -127.5 -48
t-45.5 -135v-172q0 -88 45 -136.5t128 -48.5t129 48.5zM912 1318l-154 -140l-200 190l-200 -190l-154 140l354 334z" />
    <glyph glyph-name="otilde" unicode="&#xf5;" horiz-adv-x="1116" 
d="M315.5 38q-100.5 53 -153 154.5t-52.5 244.5v169q0 141 52.5 241.5t153 153t242.5 52.5t242.5 -52.5t153 -153t52.5 -241.5v-172q0 -142 -52.5 -242.5t-153 -153.5t-242.5 -53t-242.5 53zM686 297.5q46 48.5 46 136.5v172q0 87 -46 135t-129 48q-82 0 -127.5 -48
t-45.5 -135v-172q0 -88 45 -136.5t128 -48.5t129 48.5zM652.5 1201.5q-30.5 9.5 -65.5 30.5l-11 7q-4 3 -8.5 6t-8.5 5q-31 19 -55.5 27.5t-44.5 8.5q-32 0 -46 -14t-14 -46v-31h-208v35q0 163 50.5 236t163.5 73q28 0 59 -10t71 -32l11 -6l21 -12q34 -18 55.5 -26t34.5 -8
q32 0 46 16t14 51v30h208v-34q0 -166 -50.5 -241t-162.5 -75q-29 0 -59.5 9.5z" />
    <glyph glyph-name="odieresis" unicode="&#xf6;" horiz-adv-x="1116" 
d="M315.5 38q-100.5 53 -153 154.5t-52.5 244.5v169q0 141 52.5 241.5t153 153t242.5 52.5t242.5 -52.5t153 -153t52.5 -241.5v-172q0 -142 -52.5 -242.5t-153 -153.5t-242.5 -53t-242.5 53zM686 297.5q46 48.5 46 136.5v172q0 87 -46 135t-129 48q-82 0 -127.5 -48
t-45.5 -135v-172q0 -88 45 -136.5t128 -48.5t129 48.5zM631 1525h274v-274h-274v274zM211 1525h274v-274h-274v274z" />
    <glyph glyph-name="divide" unicode="&#xf7;" horiz-adv-x="988" 
d="M370 1168h274v-274h-274v274zM120 801h758v-264h-758v264zM370 444h274v-274h-274v274z" />
    <glyph glyph-name="oslash" unicode="&#xf8;" horiz-adv-x="1116" 
d="M807 1180h129l-606 -1322h-129zM315.5 38q-100.5 53 -153 154.5t-52.5 244.5v169q0 141 52.5 241.5t153 153t242.5 52.5t242.5 -52.5t153 -153t52.5 -241.5v-172q0 -142 -52.5 -242.5t-153 -153.5t-242.5 -53t-242.5 53zM686 297.5q46 48.5 46 136.5v172q0 87 -46 135
t-129 48q-82 0 -127.5 -48t-45.5 -135v-172q0 -88 45 -136.5t128 -48.5t129 48.5z" />
    <glyph glyph-name="ugrave" unicode="&#xf9;" horiz-adv-x="1139" 
d="M736 1038h273v-1038h-273v1038zM414 407q0 -75 42.5 -116.5t119.5 -41.5t118.5 42.5t41.5 121.5l14 -227q-29 -85 -96.5 -143t-164.5 -58q-167 0 -258 107.5t-91 304.5v641h274v-631zM241 1514l193 162l286 -355l-174 -143z" />
    <glyph glyph-name="uacute" unicode="&#xfa;" horiz-adv-x="1139" 
d="M736 1038h273v-1038h-273v1038zM414 407q0 -75 42.5 -116.5t119.5 -41.5t118.5 42.5t41.5 121.5l14 -227q-29 -85 -96.5 -143t-164.5 -58q-167 0 -258 107.5t-91 304.5v641h274v-631zM416 1321l286 355l193 -162l-305 -336z" />
    <glyph glyph-name="ucircumflex" unicode="&#xfb;" horiz-adv-x="1139" 
d="M736 1038h273v-1038h-273v1038zM414 407q0 -75 42.5 -116.5t119.5 -41.5t118.5 42.5t41.5 121.5l14 -227q-29 -85 -96.5 -143t-164.5 -58q-167 0 -258 107.5t-91 304.5v641h274v-631zM924 1318l-154 -140l-200 190l-200 -190l-154 140l354 334z" />
    <glyph glyph-name="udieresis" unicode="&#xfc;" horiz-adv-x="1139" 
d="M736 1038h273v-1038h-273v1038zM414 407q0 -75 42.5 -116.5t119.5 -41.5t118.5 42.5t41.5 121.5l14 -227q-29 -85 -96.5 -143t-164.5 -58q-167 0 -258 107.5t-91 304.5v641h274v-631zM643 1525h274v-274h-274v274zM223 1525h274v-274h-274v274z" />
    <glyph glyph-name="yacute" unicode="&#xfd;" horiz-adv-x="989" 
d="M989 1038l-462 -1281q-26 -71 -64.5 -112.5t-95 -59.5t-139.5 -18h-61v266h61q44 0 73.5 19.5t44.5 63.5l385 1122h258zM30 1038h258l349 -902l-173 -221zM366 1321l286 355l193 -162l-305 -336z" />
    <glyph glyph-name="thorn" unicode="&#xfe;" horiz-adv-x="1114" 
d="M140 1454h274v-1876h-274v1876zM498 31.5q-66 46.5 -98 131.5l14 237q0 -51 18 -87t52.5 -55t83.5 -19q77 0 119.5 51t42.5 144v165q0 95 -42.5 147.5t-119.5 52.5q-49 0 -83.5 -19.5t-52.5 -56.5t-18 -90l-21 230q42 91 110.5 140.5t151.5 49.5q110 0 188.5 -53
t119.5 -155t41 -245v-166q0 -142 -41 -242.5t-119.5 -153.5t-188.5 -53q-91 0 -157 46.5z" />
    <glyph glyph-name="ydieresis" unicode="&#xff;" horiz-adv-x="989" 
d="M989 1038l-462 -1281q-26 -71 -64.5 -112.5t-95 -59.5t-139.5 -18h-61v266h61q44 0 73.5 19.5t44.5 63.5l385 1122h258zM30 1038h258l349 -902l-173 -221zM593 1525h274v-274h-274v274zM173 1525h274v-274h-274v274z" />
    <glyph glyph-name="Amacron" unicode="&#x100;" horiz-adv-x="1326" 
d="M576 1454h174l556 -1454h-295l-348 993l-348 -993h-295zM287 497h765v-264h-765v264zM1028 1844v-270h-730v270h730z" />
    <glyph glyph-name="amacron" unicode="&#x101;" horiz-adv-x="1090" 
d="M711 658q0 72 -48 111t-136 39q-58 0 -115 -19t-101 -53l-170 167q62 71 164 110.5t226 39.5q136 0 232 -45.5t146.5 -132t50.5 -208.5v-667h-249v658zM172.5 64.5q-82.5 79.5 -82.5 241.5q0 154 92.5 231t277.5 77h260l14 -209h-273q-62 0 -93 -24.5t-31 -74.5
q0 -51 39 -75.5t118 -24.5q110 0 163.5 25t53.5 78l21 -151q-6 -56 -51.5 -95t-114 -58.5t-144.5 -19.5q-167 0 -249.5 79.5zM905 1453v-274h-730v274h730z" />
    <glyph glyph-name="Abreve" unicode="&#x102;" horiz-adv-x="1326" 
d="M576 1454h174l556 -1454h-295l-348 993l-348 -993h-295zM287 497h765v-264h-765v264zM1000 1893q0 -160 -87 -247.5t-246 -87.5h-8q-159 0 -246 87.5t-87 247.5l225 -2q0 -65 28.5 -101.5t79.5 -36.5h8q51 0 79.5 36.5t28.5 101.5z" />
    <glyph glyph-name="abreve" unicode="&#x103;" horiz-adv-x="1090" 
d="M711 658q0 72 -48 111t-136 39q-58 0 -115 -19t-101 -53l-170 167q62 71 164 110.5t226 39.5q136 0 232 -45.5t146.5 -132t50.5 -208.5v-667h-249v658zM172.5 64.5q-82.5 79.5 -82.5 241.5q0 154 92.5 231t277.5 77h260l14 -209h-273q-62 0 -93 -24.5t-31 -74.5
q0 -51 39 -75.5t118 -24.5q110 0 163.5 25t53.5 78l21 -151q-6 -56 -51.5 -95t-114 -58.5t-144.5 -19.5q-167 0 -249.5 79.5zM285 1304.5q-82 99.5 -82 298.5v0h224v0q0 -100 26 -149.5t78 -49.5h18q52 0 78 49.5t26 149.5v0h224v0q0 -199 -82 -298.5t-246 -99.5h-18
q-164 0 -246 99.5z" />
    <glyph glyph-name="Aogonek" unicode="&#x104;" horiz-adv-x="1326" 
d="M576 1454h174l556 -1454h-295l-348 993l-348 -993h-295zM287 497h765v-264h-765v264zM959 -356q-80 64 -80 193q0 136 79 203t238 67h16v-107h-6q-96 0 -96 -104q0 -90 100 -90h82v-226h-92q-161 0 -241 64z" />
    <glyph glyph-name="aogonek" unicode="&#x105;" horiz-adv-x="1090" 
d="M711 658q0 72 -48 111t-136 39q-58 0 -115 -19t-101 -53l-170 167q62 71 164 110.5t226 39.5q136 0 232 -45.5t146.5 -132t50.5 -208.5v-667h-249v658zM172.5 64.5q-82.5 79.5 -82.5 241.5q0 154 92.5 231t277.5 77h260l14 -209h-273q-62 0 -93 -24.5t-31 -74.5
q0 -51 39 -75.5t118 -24.5q110 0 163.5 25t53.5 78l21 -151q-6 -56 -51.5 -95t-114 -58.5t-144.5 -19.5q-167 0 -249.5 79.5zM685.5 -371q-52.5 49 -52.5 148q0 86 49 155.5t148 124.5l130 -57q-58 -33 -87 -69t-29 -75q0 -25 15 -37.5t45 -12.5h56v-226h-116
q-106 0 -158.5 49z" />
    <glyph glyph-name="Cacute" unicode="&#x106;" horiz-adv-x="1267" 
d="M372 48.5q-118 63.5 -180 185t-62 293.5v399q0 172 62 293.5t180 185.5t284 64q137 0 245 -59t178.5 -171.5t97.5 -271.5v0h-284v0q-16 72 -49.5 123t-81 78t-106.5 27q-77 0 -131 -31.5t-82.5 -92t-28.5 -145.5v-399q0 -85 28.5 -145t82.5 -91.5t131 -31.5
q60 0 108 26.5t81 77.5t48 124v0h284v0q-28 -159 -98.5 -271.5t-178 -171.5t-244.5 -59q-166 0 -284 63.5zM534 1712l276 245l182 -187l-295 -226z" />
    <glyph glyph-name="cacute" unicode="&#x107;" horiz-adv-x="1020" 
d="M325.5 41.5q-105.5 56.5 -160.5 164.5t-55 260v111q0 151 55 257.5t160.5 162.5t253.5 56q85 0 160.5 -19.5t135.5 -56.5t100 -90v0l-177 -172v0q-38 35 -89 54.5t-107 19.5q-104 0 -161 -55.5t-57 -156.5v-111q0 -104 57 -160.5t161 -56.5q57 0 108 21t88 60v0l177 -182
v0q-41 -52 -101 -88.5t-135 -55.5t-160 -19q-148 0 -253.5 56.5zM395 1321l286 355l193 -162l-305 -336z" />
    <glyph glyph-name="Cdotaccent" unicode="&#x10a;" horiz-adv-x="1267" 
d="M372 48.5q-118 63.5 -180 185t-62 293.5v399q0 172 62 293.5t180 185.5t284 64q137 0 245 -59t178.5 -171.5t97.5 -271.5v0h-284v0q-16 72 -49.5 123t-81 78t-106.5 27q-77 0 -131 -31.5t-82.5 -92t-28.5 -145.5v-399q0 -85 28.5 -145t82.5 -91.5t131 -31.5
q60 0 108 26.5t81 77.5t48 124v0h284v0q-28 -159 -98.5 -271.5t-178 -171.5t-244.5 -59q-166 0 -284 63.5zM521 1853h274v-279h-274v279z" />
    <glyph glyph-name="cdotaccent" unicode="&#x10b;" horiz-adv-x="1020" 
d="M325.5 41.5q-105.5 56.5 -160.5 164.5t-55 260v111q0 151 55 257.5t160.5 162.5t253.5 56q85 0 160.5 -19.5t135.5 -56.5t100 -90v0l-177 -172v0q-38 35 -89 54.5t-107 19.5q-104 0 -161 -55.5t-57 -156.5v-111q0 -104 57 -160.5t161 -56.5q57 0 108 21t88 60v0l177 -182
v0q-41 -52 -101 -88.5t-135 -55.5t-160 -19q-148 0 -253.5 56.5zM412 1530h274v-279h-274v279z" />
    <glyph glyph-name="Ccaron" unicode="&#x10c;" horiz-adv-x="1267" 
d="M372 48.5q-118 63.5 -180 185t-62 293.5v399q0 172 62 293.5t180 185.5t284 64q137 0 245 -59t178.5 -171.5t97.5 -271.5v0h-284v0q-16 72 -49.5 123t-81 78t-106.5 27q-77 0 -131 -31.5t-82.5 -92t-28.5 -145.5v-399q0 -85 28.5 -145t82.5 -91.5t131 -31.5
q60 0 108 26.5t81 77.5t48 124v0h284v0q-28 -159 -98.5 -271.5t-178 -171.5t-244.5 -59q-166 0 -284 63.5zM304 1826l147 151l207 -161l207 161l147 -151l-354 -274z" />
    <glyph glyph-name="ccaron" unicode="&#x10d;" horiz-adv-x="1020" 
d="M325.5 41.5q-105.5 56.5 -160.5 164.5t-55 260v111q0 151 55 257.5t160.5 162.5t253.5 56q85 0 160.5 -19.5t135.5 -56.5t100 -90v0l-177 -172v0q-38 35 -89 54.5t-107 19.5q-104 0 -161 -55.5t-57 -156.5v-111q0 -104 57 -160.5t161 -56.5q57 0 108 21t88 60v0l177 -182
v0q-41 -52 -101 -88.5t-135 -55.5t-160 -19q-148 0 -253.5 56.5zM195 1512l154 140l200 -190l200 190l154 -140l-354 -334z" />
    <glyph glyph-name="Dcaron" unicode="&#x10e;" horiz-adv-x="1344" 
d="M298 264h349q135 0 209 65t74 184v428q0 119 -74 184t-209 65h-349v264h343q182 0 310.5 -61t195.5 -178t67 -282v-412q0 -157 -64.5 -274t-193.5 -182t-316 -65h-342v264zM160 1454h274v-1454h-274v1454zM302 1826l147 151l207 -161l207 161l147 -151l-354 -274z" />
    <glyph glyph-name="dcaron" unicode="&#x10f;" horiz-adv-x="1314" 
d="M700 1454h274v-1454h-274v1454zM270.5 38q-78.5 53 -119.5 153.5t-41 242.5v166q0 143 41 245t119.5 155t188.5 53q83 0 151.5 -49.5t110.5 -140.5l-21 -230q0 53 -18 90t-52.5 56.5t-83.5 19.5q-77 0 -119.5 -52.5t-42.5 -147.5v-165q0 -93 42.5 -144t119.5 -51
q49 0 83.5 19t52.5 55t18 87l14 -237q-32 -85 -98 -131.5t-157 -46.5q-110 0 -188.5 53zM1097 1469h214v-284l-214 -162v446z" />
    <glyph glyph-name="Dcroat" unicode="&#x110;" horiz-adv-x="1391" 
d="M345 264h349q135 0 209 65t74 184v428q0 119 -74 184t-209 65h-349v264h343q182 0 310.5 -61t195.5 -178t67 -282v-412q0 -157 -64.5 -274t-193.5 -182t-316 -65h-342v264zM207 1454h274v-1454h-274v1454zM718 849v-244h-670v244h670z" />
    <glyph glyph-name="dcroat" unicode="&#x111;" horiz-adv-x="1104" 
d="M404 1381h670v-264h-670v264zM700 1454h274v-1454h-274v1454zM270.5 38q-78.5 53 -119.5 153.5t-41 242.5v166q0 143 41 245t119.5 155t188.5 53q83 0 151.5 -49.5t110.5 -140.5l-21 -230q0 53 -18 90t-52.5 56.5t-83.5 19.5q-77 0 -119.5 -52.5t-42.5 -147.5v-165
q0 -93 42.5 -144t119.5 -51q49 0 83.5 19t52.5 55t18 87l14 -237q-32 -85 -98 -131.5t-157 -46.5q-110 0 -188.5 53z" />
    <glyph glyph-name="Emacron" unicode="&#x112;" horiz-adv-x="1224" 
d="M160 1454h274v-1454h-274v1454zM259 264h875v-264h-875v264zM259 854h765v-264h-765v264zM259 1454h875v-264h-875v264zM1030 1844v-270h-730v270h730z" />
    <glyph glyph-name="emacron" unicode="&#x113;" horiz-adv-x="1098" 
d="M328.5 39.5q-106.5 54.5 -162.5 159t-56 251.5v117q0 154 53.5 263t156 166t247.5 57q136 0 233 -68t147.5 -197.5t50.5 -312.5v-68h-710v185h460l-3 24q-11 90 -56.5 139t-121.5 49q-99 0 -153.5 -59t-54.5 -167v-132q0 -106 59.5 -164t166.5 -58q55 0 109 19.5t98 55.5
v0l179 -159v0q-81 -74 -182 -114.5t-204 -40.5q-150 0 -256.5 54.5zM925 1453v-274h-730v274h730z" />
    <glyph glyph-name="Edotaccent" unicode="&#x116;" horiz-adv-x="1224" 
d="M160 1454h274v-1454h-274v1454zM259 264h875v-264h-875v264zM259 854h765v-264h-765v264zM259 1454h875v-264h-875v264zM528 1853h274v-279h-274v279z" />
    <glyph glyph-name="edotaccent" unicode="&#x117;" horiz-adv-x="1098" 
d="M328.5 39.5q-106.5 54.5 -162.5 159t-56 251.5v117q0 154 53.5 263t156 166t247.5 57q136 0 233 -68t147.5 -197.5t50.5 -312.5v-68h-710v185h460l-3 24q-11 90 -56.5 139t-121.5 49q-99 0 -153.5 -59t-54.5 -167v-132q0 -106 59.5 -164t166.5 -58q55 0 109 19.5t98 55.5
v0l179 -159v0q-81 -74 -182 -114.5t-204 -40.5q-150 0 -256.5 54.5zM423 1530h274v-279h-274v279z" />
    <glyph glyph-name="Eogonek" unicode="&#x118;" horiz-adv-x="1224" 
d="M160 1454h274v-1454h-274v1454zM259 264h875v-264h-875v264zM259 854h765v-264h-765v264zM259 1454h875v-264h-875v264zM787 -356q-80 64 -80 193q0 136 79 203t238 67h16v-107h-6q-96 0 -96 -104q0 -90 100 -90h82v-226h-92q-161 0 -241 64z" />
    <glyph glyph-name="eogonek" unicode="&#x119;" horiz-adv-x="1098" 
d="M672.5 -356q-62.5 54 -62.5 163q0 116 60.5 211t181.5 169l102 -61l-12 -9q-61 -46 -91 -96.5t-30 -104.5q0 -50 25 -75t75 -25h36v-226h-96q-126 0 -188.5 54zM328.5 39.5q-106.5 54.5 -162.5 159t-56 251.5v117q0 154 53.5 263t156 166t247.5 57q136 0 233 -68
t147.5 -197.5t50.5 -312.5v-68h-710v185h460l-3 24q-11 90 -56.5 139t-121.5 49q-99 0 -153.5 -59t-54.5 -167v-132q0 -106 59.5 -164t166.5 -58q55 0 109 19.5t98 55.5v0l179 -159v0q-81 -74 -182 -114.5t-204 -40.5q-150 0 -256.5 54.5z" />
    <glyph glyph-name="Ecaron" unicode="&#x11a;" horiz-adv-x="1224" 
d="M160 1454h274v-1454h-274v1454zM259 264h875v-264h-875v264zM259 854h765v-264h-765v264zM259 1454h875v-264h-875v264zM311 1826l147 151l207 -161l207 161l147 -151l-354 -274z" />
    <glyph glyph-name="ecaron" unicode="&#x11b;" horiz-adv-x="1098" 
d="M328.5 39.5q-106.5 54.5 -162.5 159t-56 251.5v117q0 154 53.5 263t156 166t247.5 57q136 0 233 -68t147.5 -197.5t50.5 -312.5v-68h-710v185h460l-3 24q-11 90 -56.5 139t-121.5 49q-99 0 -153.5 -59t-54.5 -167v-132q0 -106 59.5 -164t166.5 -58q55 0 109 19.5t98 55.5
v0l179 -159v0q-81 -74 -182 -114.5t-204 -40.5q-150 0 -256.5 54.5zM206 1512l154 140l200 -190l200 190l154 -140l-354 -334z" />
    <glyph glyph-name="Gbreve" unicode="&#x11e;" horiz-adv-x="1324" 
d="M1194 813v-284q0 -162 -65.5 -285.5t-185.5 -191t-278 -67.5q-159 0 -280.5 63.5t-188 179.5t-66.5 269v429q0 162 65.5 285t185.5 190.5t278 67.5q130 0 240 -53.5t183.5 -151.5t99.5 -227v0h-296v0q-15 46 -49.5 79.5t-81 51t-96.5 17.5q-73 0 -128.5 -32t-86 -91
t-30.5 -136v-429q0 -68 31 -120t88 -80t132 -28q74 0 129.5 30.5t85.5 88.5t30 137v24h-220v264h504zM1002 1893q0 -160 -87 -247.5t-246 -87.5h-8q-159 0 -246 87.5t-87 247.5l225 -2q0 -65 28.5 -101.5t79.5 -36.5h8q51 0 79.5 36.5t28.5 101.5z" />
    <glyph glyph-name="gbreve" unicode="&#x11f;" horiz-adv-x="1104" 
d="M286.5 -378.5q-97.5 43.5 -151.5 122.5v0l184 169v0q35 -38 84 -58.5t102 -20.5q86 0 140.5 47t54.5 130v1027h274v-1007q0 -143 -54.5 -245t-159 -155t-252.5 -53q-124 0 -221.5 43.5zM270.5 38q-78.5 53 -119.5 153.5t-41 242.5v166q0 143 41 245t119.5 155t188.5 53
q83 0 151.5 -49.5t110.5 -140.5l-21 -230q0 53 -18 90t-52.5 56.5t-83.5 19.5q-77 0 -119.5 -52.5t-42.5 -147.5v-165q0 -93 42.5 -144t119.5 -51q49 0 83.5 19t52.5 55t18 87l14 -237q-32 -85 -98 -131.5t-157 -46.5q-110 0 -188.5 53zM308 1304.5q-82 99.5 -82 298.5v0
h224v0q0 -100 26 -149.5t78 -49.5h18q52 0 78 49.5t26 149.5v0h224v0q0 -199 -82 -298.5t-246 -99.5h-18q-164 0 -246 99.5z" />
    <glyph glyph-name="Gdotaccent" unicode="&#x120;" horiz-adv-x="1324" 
d="M1194 813v-284q0 -162 -65.5 -285.5t-185.5 -191t-278 -67.5q-159 0 -280.5 63.5t-188 179.5t-66.5 269v429q0 162 65.5 285t185.5 190.5t278 67.5q130 0 240 -53.5t183.5 -151.5t99.5 -227v0h-296v0q-15 46 -49.5 79.5t-81 51t-96.5 17.5q-73 0 -128.5 -32t-86 -91
t-30.5 -136v-429q0 -68 31 -120t88 -80t132 -28q74 0 129.5 30.5t85.5 88.5t30 137v24h-220v264h504zM528 1853h274v-279h-274v279z" />
    <glyph glyph-name="gdotaccent" unicode="&#x121;" horiz-adv-x="1104" 
d="M286.5 -378.5q-97.5 43.5 -151.5 122.5v0l184 169v0q35 -38 84 -58.5t102 -20.5q86 0 140.5 47t54.5 130v1027h274v-1007q0 -143 -54.5 -245t-159 -155t-252.5 -53q-124 0 -221.5 43.5zM270.5 38q-78.5 53 -119.5 153.5t-41 242.5v166q0 143 41 245t119.5 155t188.5 53
q83 0 151.5 -49.5t110.5 -140.5l-21 -230q0 53 -18 90t-52.5 56.5t-83.5 19.5q-77 0 -119.5 -52.5t-42.5 -147.5v-165q0 -93 42.5 -144t119.5 -51q49 0 83.5 19t52.5 55t18 87l14 -237q-32 -85 -98 -131.5t-157 -46.5q-110 0 -188.5 53zM426 1530h274v-279h-274v279z" />
    <glyph glyph-name="uni0122" unicode="&#x122;" horiz-adv-x="1324" 
d="M1194 813v-284q0 -162 -65.5 -285.5t-185.5 -191t-278 -67.5q-159 0 -280.5 63.5t-188 179.5t-66.5 269v429q0 162 65.5 285t185.5 190.5t278 67.5q130 0 240 -53.5t183.5 -151.5t99.5 -227v0h-296v0q-15 46 -49.5 79.5t-81 51t-96.5 17.5q-73 0 -128.5 -32t-86 -91
t-30.5 -136v-429q0 -68 31 -120t88 -80t132 -28q74 0 129.5 30.5t85.5 88.5t30 137v24h-220v264h504zM528 -111h274v-225l-274 -202v427z" />
    <glyph glyph-name="uni0123" unicode="&#x123;" horiz-adv-x="1104" 
d="M426 1369l274 202v-356h-274v154zM286.5 -378.5q-97.5 43.5 -151.5 122.5v0l184 169v0q35 -38 84 -58.5t102 -20.5q86 0 140.5 47t54.5 130v1027h274v-1007q0 -143 -54.5 -245t-159 -155t-252.5 -53q-124 0 -221.5 43.5zM270.5 38q-78.5 53 -119.5 153.5t-41 242.5v166
q0 143 41 245t119.5 155t188.5 53q83 0 151.5 -49.5t110.5 -140.5l-21 -230q0 53 -18 90t-52.5 56.5t-83.5 19.5q-77 0 -119.5 -52.5t-42.5 -147.5v-165q0 -93 42.5 -144t119.5 -51q49 0 83.5 19t52.5 55t18 87l14 -237q-32 -85 -98 -131.5t-157 -46.5q-110 0 -188.5 53z
" />
    <glyph glyph-name="Hbar" unicode="&#x126;" horiz-adv-x="1550" 
d="M90 1248h1370v-264h-1370v264zM1036 1454h274v-1454h-274v1454zM240 1454h274v-1454h-274v1454zM367 853h847v-264h-847v264z" />
    <glyph glyph-name="hbar" unicode="&#x127;" horiz-adv-x="1167" 
d="M720 1401v-264h-710v264h710zM163 1454h274v-1454h-274v1454zM763 629q0 76 -43.5 118t-123.5 42q-76 0 -117.5 -42.5t-41.5 -119.5l-21 230q47 98 112.5 147t164.5 49q164 0 254 -110.5t90 -312.5v-630h-274v629z" />
    <glyph glyph-name="Imacron" unicode="&#x12a;" horiz-adv-x="564" 
d="M424 0h-284v1454h284v-1454zM647 1844v-270h-730v270h730z" />
    <glyph glyph-name="imacron" unicode="&#x12b;" horiz-adv-x="514" 
d="M125 1038h274v-1038h-274v1038zM627 1453v-274h-730v274h730z" />
    <glyph glyph-name="Iogonek" unicode="&#x12e;" horiz-adv-x="564" 
d="M120 -356q-80 64 -80 193q0 136 79 203t238 67l10 -107q-96 0 -96 -104q0 -90 100 -90h82v-226h-92q-161 0 -241 64zM424 0h-284v1454h284v-1454z" />
    <glyph glyph-name="iogonek" unicode="&#x12f;" horiz-adv-x="514" 
d="M125 1038h274v-1038h-274v1038zM125 1530h274v-279h-274v279zM124.5 -371q-52.5 49 -52.5 148q0 86 49 155.5t148 124.5l130 -57q-58 -33 -87 -69t-29 -75q0 -25 15 -37.5t45 -12.5h56v-226h-116q-106 0 -158.5 49z" />
    <glyph glyph-name="Idotaccent" unicode="&#x130;" horiz-adv-x="564" 
d="M424 0h-284v1454h284v-1454zM145 1853h274v-279h-274v279z" />
    <glyph glyph-name="dotlessi" unicode="&#x131;" horiz-adv-x="514" 
d="M125 1038h274v-1038h-274v1038z" />
    <glyph glyph-name="uni0136" unicode="&#x136;" horiz-adv-x="1314" 
d="M325 568l583 886h345l-893 -1242zM160 1454h274v-1454h-274v1454zM567 736l236 149l511 -885h-325zM545 -111h274v-225l-274 -202v427z" />
    <glyph glyph-name="uni0137" unicode="&#x137;" horiz-adv-x="1083" 
d="M268 374l484 664h290l-737 -966zM140 1454h274v-1454h-274v1454zM514 536l226 136l353 -672h-317zM405 -111h274v-225l-274 -202v427z" />
    <glyph glyph-name="Lacute" unicode="&#x139;" horiz-adv-x="1174" 
d="M160 1454h274v-1454h-274v1454zM282 264h852v-264h-852v264zM173 1712l276 245l182 -187l-295 -226z" />
    <glyph glyph-name="lacute" unicode="&#x13a;" horiz-adv-x="593" 
d="M414 343q0 -38 21.5 -58.5t61.5 -20.5h46v-264h-140q-125 0 -194 72t-69 203v1179h274v-1111zM153 1712l276 245l182 -187l-295 -226z" />
    <glyph glyph-name="uni013B" unicode="&#x13b;" horiz-adv-x="1174" 
d="M160 1454h274v-1454h-274v1454zM282 264h852v-264h-852v264zM467 -111h274v-225l-274 -202v427z" />
    <glyph glyph-name="uni013C" unicode="&#x13c;" horiz-adv-x="593" 
d="M414 343q0 -38 21.5 -58.5t61.5 -20.5h46v-264h-140q-125 0 -194 72t-69 203v1179h274v-1111zM157 -111h274v-225l-274 -202v427z" />
    <glyph glyph-name="Lcaron" unicode="&#x13d;" horiz-adv-x="1174" 
d="M160 1454h274v-1454h-274v1454zM282 264h852v-264h-852v264zM870 1453h214v-284l-214 -162v446z" />
    <glyph glyph-name="lcaron" unicode="&#x13e;" horiz-adv-x="753" 
d="M414 343q0 -38 21.5 -58.5t61.5 -20.5h46v-264h-140q-125 0 -194 72t-69 203v1179h274v-1111zM537 1469h214v-284l-214 -162v446z" />
    <glyph glyph-name="Lslash" unicode="&#x141;" horiz-adv-x="1264" 
d="M100 751l744 310v-265l-744 -310v265zM250 1454h274v-1454h-274v1454zM372 264h852v-264h-852v264z" />
    <glyph glyph-name="lslash" unicode="&#x142;" horiz-adv-x="593" 
d="M30 751l513 230v-265l-513 -230v265zM414 343q0 -38 21.5 -58.5t61.5 -20.5h46v-264h-140q-125 0 -194 72t-69 203v1179h274v-1111z" />
    <glyph glyph-name="Nacute" unicode="&#x143;" horiz-adv-x="1434" 
d="M160 1454h335l541 -1114l-24 -26v1140h262v-1453h-337l-539 1097l24 26v-1123h-262v1453zM608 1712l276 245l182 -187l-295 -226z" />
    <glyph glyph-name="nacute" unicode="&#x144;" horiz-adv-x="1144" 
d="M140 1038h274v-1038h-274v1038zM740 629q0 76 -43.5 118t-123.5 42q-76 0 -117.5 -42.5t-41.5 -119.5l-21 230q47 98 112.5 147t164.5 49q164 0 254 -110.5t90 -312.5v-630h-274v629zM418 1321l286 355l193 -162l-305 -336z" />
    <glyph glyph-name="uni0145" unicode="&#x145;" horiz-adv-x="1434" 
d="M160 1454h335l541 -1114l-24 -26v1140h262v-1453h-337l-539 1097l24 26v-1123h-262v1453zM595 -111h274v-225l-274 -202v427z" />
    <glyph glyph-name="uni0146" unicode="&#x146;" horiz-adv-x="1144" 
d="M140 1038h274v-1038h-274v1038zM740 629q0 76 -43.5 118t-123.5 42q-76 0 -117.5 -42.5t-41.5 -119.5l-21 230q47 98 112.5 147t164.5 49q164 0 254 -110.5t90 -312.5v-630h-274v629zM435 -111h274v-225l-274 -202v427z" />
    <glyph glyph-name="Ncaron" unicode="&#x147;" horiz-adv-x="1434" 
d="M160 1454h335l541 -1114l-24 -26v1140h262v-1453h-337l-539 1097l24 26v-1123h-262v1453zM378 1826l147 151l207 -161l207 161l147 -151l-354 -274z" />
    <glyph glyph-name="ncaron" unicode="&#x148;" horiz-adv-x="1144" 
d="M140 1038h274v-1038h-274v1038zM740 629q0 76 -43.5 118t-123.5 42q-76 0 -117.5 -42.5t-41.5 -119.5l-21 230q47 98 112.5 147t164.5 49q164 0 254 -110.5t90 -312.5v-630h-274v629zM218 1512l154 140l200 -190l200 190l154 -140l-354 -334z" />
    <glyph glyph-name="Eng" unicode="&#x14a;" horiz-adv-x="1434" 
d="M160 1454h335l591 -1114l-74 -26v1140h262v-1469l-249 -56l-627 1169l24 26v-1123h-262v1453zM857 -158h64q38 0 58.5 20.5t20.5 58.5v197h274v-265q0 -131 -69 -203t-194 -72h-154v264z" />
    <glyph glyph-name="eng" unicode="&#x14b;" horiz-adv-x="1144" 
d="M597 -158h64q38 0 58.5 20.5t20.5 58.5v217h274v-285q0 -131 -69 -203t-194 -72h-154v264zM140 1038h274v-1038h-274v1038zM740 629q0 76 -43.5 118t-123.5 42q-76 0 -117.5 -42.5t-41.5 -119.5l-21 230q47 98 112.5 147t164.5 49q164 0 254 -110.5t90 -312.5v-630h-274
v629z" />
    <glyph glyph-name="Omacron" unicode="&#x14c;" horiz-adv-x="1322" 
d="M382.5 51.5q-120.5 66.5 -186.5 188t-66 281.5v412q0 160 66 281.5t186.5 188t278.5 66.5t278.5 -66.5t186.5 -188t66 -281.5v-412q0 -160 -66 -281.5t-186.5 -188t-278.5 -66.5t-278.5 66.5zM791 290.5q56 31.5 86.5 89.5t30.5 134v426q0 76 -30.5 134t-86.5 89.5
t-130 31.5t-130 -31.5t-86.5 -89.5t-30.5 -134v-426q0 -76 30.5 -134t86.5 -89.5t130 -31.5t130 31.5zM1026 1844v-270h-730v270h730z" />
    <glyph glyph-name="omacron" unicode="&#x14d;" horiz-adv-x="1116" 
d="M315.5 38q-100.5 53 -153 154.5t-52.5 244.5v169q0 141 52.5 241.5t153 153t242.5 52.5t242.5 -52.5t153 -153t52.5 -241.5v-172q0 -142 -52.5 -242.5t-153 -153.5t-242.5 -53t-242.5 53zM686 297.5q46 48.5 46 136.5v172q0 87 -46 135t-129 48q-82 0 -127.5 -48
t-45.5 -135v-172q0 -88 45 -136.5t128 -48.5t129 48.5zM923 1453v-274h-730v274h730z" />
    <glyph glyph-name="Ohungarumlaut" unicode="&#x150;" horiz-adv-x="1322" 
d="M382.5 51.5q-120.5 66.5 -186.5 188t-66 281.5v412q0 160 66 281.5t186.5 188t278.5 66.5t278.5 -66.5t186.5 -188t66 -281.5v-412q0 -160 -66 -281.5t-186.5 -188t-278.5 -66.5t-278.5 66.5zM791 290.5q56 31.5 86.5 89.5t30.5 134v426q0 76 -30.5 134t-86.5 89.5
t-130 31.5t-130 -31.5t-86.5 -89.5t-30.5 -134v-426q0 -76 30.5 -134t86.5 -89.5t130 -31.5t130 31.5zM717 1702l226 255l182 -177l-245 -236zM277 1702l226 255l182 -177l-245 -236z" />
    <glyph glyph-name="ohungarumlaut" unicode="&#x151;" horiz-adv-x="1116" 
d="M315.5 38q-100.5 53 -153 154.5t-52.5 244.5v169q0 141 52.5 241.5t153 153t242.5 52.5t242.5 -52.5t153 -153t52.5 -241.5v-172q0 -142 -52.5 -242.5t-153 -153.5t-242.5 -53t-242.5 53zM686 297.5q46 48.5 46 136.5v172q0 87 -46 135t-129 48q-82 0 -127.5 -48
t-45.5 -135v-172q0 -88 45 -136.5t128 -48.5t129 48.5zM604 1281l226 385l213 -132l-245 -376zM174 1281l226 385l213 -132l-245 -376z" />
    <glyph glyph-name="OE" unicode="&#x152;" horiz-adv-x="2053" 
d="M396.5 51.5q-127.5 66.5 -197 188t-69.5 281.5v412q0 160 69.5 281.5t197 188t294.5 66.5q150 0 263.5 -66.5t175.5 -188t62 -281.5v-412q0 -160 -62 -281.5t-175.5 -188t-263.5 -66.5q-167 0 -294.5 66.5zM852 282q65 33 100.5 93t35.5 139v426q0 79 -35.5 139
t-100.5 93t-151 33t-151 -33t-100.5 -93t-35.5 -139v-426q0 -79 35.5 -139t100.5 -93t151 -33t151 33zM989 1454h274v-1454h-274v1454zM1088 264h875v-264h-875v264zM1088 854h765v-264h-765v264zM1088 1454h875v-264h-875v264z" />
    <glyph glyph-name="oe" unicode="&#x153;" horiz-adv-x="1740" 
d="M315.5 38q-100.5 53 -153 154.5t-52.5 244.5v169q0 141 52.5 241.5t153 153t242.5 52.5q126 0 215.5 -52.5t136 -153t46.5 -241.5v-172q0 -142 -46.5 -242.5t-136 -153.5t-215.5 -53q-142 0 -242.5 53zM693.5 275q48.5 56 48.5 159v172q0 101 -48.5 157t-136.5 56
q-87 0 -135 -56t-48 -157v-172q0 -103 48 -159t135 -56q88 0 136.5 56zM997.5 39.5q-95.5 54.5 -145.5 159t-50 251.5v117q0 154 47.5 263t139 166t220.5 57q136 0 233 -66.5t147.5 -192.5t50.5 -304v-73h-710v179h475l-3 25q-12 95 -61.5 146.5t-131.5 51.5
q-101 0 -157 -63t-56 -178v-132q0 -108 60.5 -167.5t170.5 -59.5q60 0 119 19.5t108 55.5v0l159 -154v0q-81 -74 -182 -114.5t-204 -40.5q-134 0 -229.5 54.5z" />
    <glyph glyph-name="Racute" unicode="&#x154;" horiz-adv-x="1335" 
d="M269 849h506q42 0 74 21t49.5 60t18.5 90v0q0 51 -17.5 90t-49.5 60t-75 21h-506v264h528q120 0 211 -54t141 -152.5t50 -228.5v0q0 -130 -50 -228.5t-141.5 -152.5t-210.5 -54h-528v264zM160 1455h274v-1455h-274v1455zM575 630l293 46l392 -676h-332zM524 1712l276 245
l182 -187l-295 -226z" />
    <glyph glyph-name="racute" unicode="&#x155;" horiz-adv-x="874" 
d="M140 1038h294v-1038h-294v1038zM675 779q-29 10 -67 10q-83 0 -128.5 -53.5t-45.5 -148.5l-21 270q43 93 111.5 144.5t150.5 51.5q65 0 117.5 -20.5t91.5 -60.5l-160 -223q-20 20 -49 30zM343 1321l286 355l193 -162l-305 -336z" />
    <glyph glyph-name="uni0156" unicode="&#x156;" horiz-adv-x="1335" 
d="M269 849h506q42 0 74 21t49.5 60t18.5 90v0q0 51 -17.5 90t-49.5 60t-75 21h-506v264h528q120 0 211 -54t141 -152.5t50 -228.5v0q0 -130 -50 -228.5t-141.5 -152.5t-210.5 -54h-528v264zM160 1455h274v-1455h-274v1455zM575 630l293 46l392 -676h-332zM511 -111h274
v-225l-274 -202v427z" />
    <glyph glyph-name="uni0157" unicode="&#x157;" horiz-adv-x="874" 
d="M140 1038h294v-1038h-294v1038zM675 779q-29 10 -67 10q-83 0 -128.5 -53.5t-45.5 -148.5l-21 270q43 93 111.5 144.5t150.5 51.5q65 0 117.5 -20.5t91.5 -60.5l-160 -223q-20 20 -49 30zM125 -111h274v-225l-274 -202v427z" />
    <glyph glyph-name="Rcaron" unicode="&#x158;" horiz-adv-x="1335" 
d="M269 849h506q42 0 74 21t49.5 60t18.5 90v0q0 51 -17.5 90t-49.5 60t-75 21h-506v264h528q120 0 211 -54t141 -152.5t50 -228.5v0q0 -130 -50 -228.5t-141.5 -152.5t-210.5 -54h-528v264zM160 1455h274v-1455h-274v1455zM575 630l293 46l392 -676h-332zM294 1826l147 151
l207 -161l207 161l147 -151l-354 -274z" />
    <glyph glyph-name="rcaron" unicode="&#x159;" horiz-adv-x="874" 
d="M140 1038h294v-1038h-294v1038zM675 779q-29 10 -67 10q-83 0 -128.5 -53.5t-45.5 -148.5l-21 270q43 93 111.5 144.5t150.5 51.5q65 0 117.5 -20.5t91.5 -60.5l-160 -223q-20 20 -49 30zM143 1512l154 140l200 -190l200 190l154 -140l-354 -334z" />
    <glyph glyph-name="Sacute" unicode="&#x15a;" horiz-adv-x="1261" 
d="M413.5 6q-99.5 21 -187 61.5t-156.5 97.5v0l127 226v0q84 -69 194 -106.5t226 -37.5q134 0 208 45.5t74 128.5v1q0 58 -33 92t-86 50t-136 29q-3 1 -5.5 1t-5.5 1l-22 3q-146 23 -242 57.5t-163 121t-67 245.5v1q0 141 63 241t183 152.5t290 52.5q78 0 159.5 -18
t159.5 -52t148 -82v0l-116 -232v0q-84 58 -175.5 90t-175.5 32q-126 0 -195 -41.5t-69 -116.5v-1q0 -63 36 -99.5t89 -53.5t149 -36q4 -1 8 -1.5t8 -1.5q6 -1 11.5 -2.5t11.5 -2.5q138 -27 230.5 -65.5t154.5 -124t62 -233.5v-2q0 -139 -65 -238t-189.5 -151t-299.5 -52
q-104 0 -203.5 21zM517 1712l276 245l182 -187l-295 -226z" />
    <glyph glyph-name="sacute" unicode="&#x15b;" horiz-adv-x="1062" 
d="M356 1.5q-88 16.5 -165 48.5t-136 77v0l169 211v0q75 -48 157 -74t156 -26q96 0 149 21.5t53 59.5q0 35 -23 53t-59 25.5t-101 13.5q-18 2 -36.5 4t-37.5 4q-4 1 -8.5 1.5t-8.5 0.5q-116 15 -186 37t-118.5 84.5t-48.5 181.5q0 104 50 178t145 112.5t230 38.5
q79 0 157.5 -16t150.5 -46t133 -72v0l-163 -199v0q-68 38 -142 59t-142 21q-83 0 -129 -19t-46 -53q0 -26 24.5 -40.5t61 -21t106.5 -14.5l18 -2l18 -2q4 -1 9 -1t9 -1q121 -14 197 -36t129.5 -88t53.5 -194q0 -108 -52 -185t-152 -117.5t-241 -40.5q-93 0 -181 16.5z
M382 1321l286 355l193 -162l-305 -336z" />
    <glyph glyph-name="Scedilla" unicode="&#x15e;" horiz-adv-x="1261" 
d="M413.5 6q-99.5 21 -187 61.5t-156.5 97.5v0l127 226v0q84 -69 194 -106.5t226 -37.5q134 0 208 45.5t74 128.5v1q0 58 -33 92t-86 50t-136 29q-3 1 -5.5 1t-5.5 1l-22 3q-146 23 -242 57.5t-163 121t-67 245.5v1q0 141 63 241t183 152.5t290 52.5q78 0 159.5 -18
t159.5 -52t148 -82v0l-116 -232v0q-84 58 -175.5 90t-175.5 32q-126 0 -195 -41.5t-69 -116.5v-1q0 -63 36 -99.5t89 -53.5t149 -36q4 -1 8 -1.5t8 -1.5q6 -1 11.5 -2.5t11.5 -2.5q138 -27 230.5 -65.5t154.5 -124t62 -233.5v-2q0 -139 -65 -238t-189.5 -151t-299.5 -52
q-104 0 -203.5 21zM458 -404l42 155q53 -14 105 -14q42 0 65.5 9.5t23.5 26.5q0 21 -38 32.5t-108 11.5l97 121q131 0 203 -47t72 -132q0 -86 -77.5 -133.5t-219.5 -47.5q-98 0 -165 18zM754 61v-246l-206 2v244h206z" />
    <glyph glyph-name="scedilla" unicode="&#x15f;" horiz-adv-x="1062" 
d="M356 1.5q-88 16.5 -165 48.5t-136 77v0l169 211v0q75 -48 157 -74t156 -26q96 0 149 21.5t53 59.5q0 35 -23 53t-59 25.5t-101 13.5q-18 2 -36.5 4t-37.5 4q-4 1 -8.5 1.5t-8.5 0.5q-116 15 -186 37t-118.5 84.5t-48.5 181.5q0 104 50 178t145 112.5t230 38.5
q79 0 157.5 -16t150.5 -46t133 -72v0l-163 -199v0q-68 38 -142 59t-142 21q-83 0 -129 -19t-46 -53q0 -26 24.5 -40.5t61 -21t106.5 -14.5l18 -2l18 -2q4 -1 9 -1t9 -1q121 -14 197 -36t129.5 -88t53.5 -194q0 -108 -52 -185t-152 -117.5t-241 -40.5q-93 0 -181 16.5z
M328 -405l42 155q53 -14 105 -14q42 0 65.5 9.5t23.5 26.5q0 21 -38 32.5t-108 11.5l97 121q131 0 203 -47t72 -132q0 -86 -77.5 -133.5t-219.5 -47.5q-98 0 -165 18zM418 90h206v-274h-206v274z" />
    <glyph glyph-name="Scaron" unicode="&#x160;" horiz-adv-x="1261" 
d="M413.5 6q-99.5 21 -187 61.5t-156.5 97.5v0l127 226v0q84 -69 194 -106.5t226 -37.5q134 0 208 45.5t74 128.5v1q0 58 -33 92t-86 50t-136 29q-3 1 -5.5 1t-5.5 1l-22 3q-146 23 -242 57.5t-163 121t-67 245.5v1q0 141 63 241t183 152.5t290 52.5q78 0 159.5 -18
t159.5 -52t148 -82v0l-116 -232v0q-84 58 -175.5 90t-175.5 32q-126 0 -195 -41.5t-69 -116.5v-1q0 -63 36 -99.5t89 -53.5t149 -36q4 -1 8 -1.5t8 -1.5q6 -1 11.5 -2.5t11.5 -2.5q138 -27 230.5 -65.5t154.5 -124t62 -233.5v-2q0 -139 -65 -238t-189.5 -151t-299.5 -52
q-104 0 -203.5 21zM287 1826l147 151l207 -161l207 161l147 -151l-354 -274z" />
    <glyph glyph-name="scaron" unicode="&#x161;" horiz-adv-x="1062" 
d="M356 1.5q-88 16.5 -165 48.5t-136 77v0l169 211v0q75 -48 157 -74t156 -26q96 0 149 21.5t53 59.5q0 35 -23 53t-59 25.5t-101 13.5q-18 2 -36.5 4t-37.5 4q-4 1 -8.5 1.5t-8.5 0.5q-116 15 -186 37t-118.5 84.5t-48.5 181.5q0 104 50 178t145 112.5t230 38.5
q79 0 157.5 -16t150.5 -46t133 -72v0l-163 -199v0q-68 38 -142 59t-142 21q-83 0 -129 -19t-46 -53q0 -26 24.5 -40.5t61 -21t106.5 -14.5l18 -2l18 -2q4 -1 9 -1t9 -1q121 -14 197 -36t129.5 -88t53.5 -194q0 -108 -52 -185t-152 -117.5t-241 -40.5q-93 0 -181 16.5z
M182 1512l154 140l200 -190l200 190l154 -140l-354 -334z" />
    <glyph glyph-name="uni0162" unicode="&#x162;" horiz-adv-x="986" 
d="M356 1335h274v-1335h-274v1335zM-40 1454h1066v-264h-1066v264zM310 -404l42 155q53 -14 105 -14q42 0 65.5 9.5t23.5 26.5q0 21 -38 32.5t-108 11.5l97 121q131 0 203 -47t72 -132q0 -86 -77.5 -133.5t-219.5 -47.5q-98 0 -165 18zM606 61v-246l-206 2v244h206z" />
    <glyph glyph-name="uni0163" unicode="&#x163;" horiz-adv-x="668" 
d="M230.5 64.5q-63.5 69.5 -63.5 205.5v1070h274v-1002q0 -38 15 -58.5t44 -20.5h68v-264h-138q-136 0 -199.5 69.5zM60 1038h508v-234h-508v234zM131 -405l42 155q53 -14 105 -14q42 0 65.5 9.5t23.5 26.5q0 21 -38 32.5t-108 11.5l97 121q131 0 203 -47t72 -132
q0 -86 -77.5 -133.5t-219.5 -47.5q-98 0 -165 18zM221 90h206v-274h-206v274z" />
    <glyph glyph-name="Tcaron" unicode="&#x164;" horiz-adv-x="986" 
d="M356 1335h274v-1335h-274v1335zM-40 1454h1066v-264h-1066v264zM139 1826l147 151l207 -161l207 161l147 -151l-354 -274z" />
    <glyph glyph-name="tcaron" unicode="&#x165;" horiz-adv-x="788" 
d="M230.5 64.5q-63.5 69.5 -63.5 205.5v1070h274v-1002q0 -38 15 -58.5t44 -20.5h68v-264h-138q-136 0 -199.5 69.5zM60 1038h508v-234h-508v234zM554 1530h214v-284l-214 -162v446z" />
    <glyph glyph-name="Umacron" unicode="&#x16a;" horiz-adv-x="1342" 
d="M383 48.5q-119 63.5 -181 185t-62 292.5v928h274v-935q0 -125 67 -194t189 -69q123 0 190.5 69t67.5 194v935h274v-928q0 -171 -62.5 -292.5t-182 -185t-287.5 -63.5t-287 63.5zM1035 1844v-270h-730v270h730z" />
    <glyph glyph-name="umacron" unicode="&#x16b;" horiz-adv-x="1139" 
d="M736 1038h273v-1038h-273v1038zM414 407q0 -75 42.5 -116.5t119.5 -41.5t118.5 42.5t41.5 121.5l14 -227q-29 -85 -96.5 -143t-164.5 -58q-167 0 -258 107.5t-91 304.5v641h274v-631zM935 1453v-274h-730v274h730z" />
    <glyph glyph-name="Ubreve" unicode="&#x16c;" horiz-adv-x="1342" 
d="M383 48.5q-119 63.5 -181 185t-62 292.5v928h274v-935q0 -125 67 -194t189 -69q123 0 190.5 69t67.5 194v935h274v-928q0 -171 -62.5 -292.5t-182 -185t-287.5 -63.5t-287 63.5zM1007 1893q0 -160 -87 -247.5t-246 -87.5h-8q-159 0 -246 87.5t-87 247.5l225 -2
q0 -65 28.5 -101.5t79.5 -36.5h8q51 0 79.5 36.5t28.5 101.5z" />
    <glyph glyph-name="ubreve" unicode="&#x16d;" horiz-adv-x="1139" 
d="M736 1038h273v-1038h-273v1038zM414 407q0 -75 42.5 -116.5t119.5 -41.5t118.5 42.5t41.5 121.5l14 -227q-29 -85 -96.5 -143t-164.5 -58q-167 0 -258 107.5t-91 304.5v641h274v-631zM315 1304.5q-82 99.5 -82 298.5v0h224v0q0 -100 26 -149.5t78 -49.5h18q52 0 78 49.5
t26 149.5v0h224v0q0 -199 -82 -298.5t-246 -99.5h-18q-164 0 -246 99.5z" />
    <glyph glyph-name="Uring" unicode="&#x16e;" horiz-adv-x="1342" 
d="M383 48.5q-119 63.5 -181 185t-62 292.5v928h274v-935q0 -125 67 -194t189 -69q123 0 190.5 69t67.5 194v935h274v-928q0 -171 -62.5 -292.5t-182 -185t-287.5 -63.5t-287 63.5zM466.5 1610q-71.5 68 -71.5 193q0 130 71.5 200.5t203.5 70.5q131 0 203 -71.5t72 -199.5
q0 -125 -72 -193t-203 -68q-132 0 -203.5 68zM731.5 1744.5q21.5 22.5 21.5 62.5q0 42 -21.5 65t-61.5 23t-61.5 -23t-21.5 -65q0 -40 21.5 -62.5t61.5 -22.5t61.5 22.5z" />
    <glyph glyph-name="uring" unicode="&#x16f;" horiz-adv-x="1139" 
d="M736 1038h273v-1038h-273v1038zM414 407q0 -75 42.5 -116.5t119.5 -41.5t118.5 42.5t41.5 121.5l14 -227q-29 -85 -96.5 -143t-164.5 -58q-167 0 -258 107.5t-91 304.5v641h274v-631zM366.5 1248q-71.5 68 -71.5 193q0 130 71.5 200.5t203.5 70.5q131 0 203 -71.5
t72 -199.5q0 -125 -72 -193t-203 -68q-132 0 -203.5 68zM631.5 1382.5q21.5 22.5 21.5 62.5q0 42 -21.5 65t-61.5 23t-61.5 -23t-21.5 -65q0 -40 21.5 -62.5t61.5 -22.5t61.5 22.5z" />
    <glyph glyph-name="Uhungarumlaut" unicode="&#x170;" horiz-adv-x="1342" 
d="M383 48.5q-119 63.5 -181 185t-62 292.5v928h274v-935q0 -125 67 -194t189 -69q123 0 190.5 69t67.5 194v935h274v-928q0 -171 -62.5 -292.5t-182 -185t-287.5 -63.5t-287 63.5zM726 1702l226 255l182 -177l-245 -236zM286 1702l226 255l182 -177l-245 -236z" />
    <glyph glyph-name="uhungarumlaut" unicode="&#x171;" horiz-adv-x="1139" 
d="M736 1038h273v-1038h-273v1038zM414 407q0 -75 42.5 -116.5t119.5 -41.5t118.5 42.5t41.5 121.5l14 -227q-29 -85 -96.5 -143t-164.5 -58q-167 0 -258 107.5t-91 304.5v641h274v-631zM616 1281l226 385l213 -132l-245 -376zM186 1281l226 385l213 -132l-245 -376z" />
    <glyph glyph-name="Uogonek" unicode="&#x172;" horiz-adv-x="1342" 
d="M572 -356q-80 64 -80 193q0 136 76.5 203t230.5 67l10 -107q-86 0 -86 -104q0 -90 100 -90h82v-226h-92q-161 0 -241 64zM383 48.5q-119 63.5 -181 185t-62 292.5v928h274v-935q0 -125 67 -194t189 -69q123 0 190.5 69t67.5 194v935h274v-928q0 -171 -62.5 -292.5
t-182 -185t-287.5 -63.5t-287 63.5z" />
    <glyph glyph-name="uogonek" unicode="&#x173;" horiz-adv-x="1139" 
d="M736 1038h273v-1038h-273v1038zM414 407q0 -75 42.5 -116.5t119.5 -41.5t118.5 42.5t41.5 121.5l14 -227q-29 -85 -96.5 -143t-164.5 -58q-167 0 -258 107.5t-91 304.5v641h274v-631zM734.5 -371q-52.5 49 -52.5 148q0 86 49 155.5t148 124.5l130 -57q-58 -33 -87 -69
t-29 -75q0 -25 15 -37.5t45 -12.5h56v-226h-116q-106 0 -158.5 49z" />
    <glyph glyph-name="Ydieresis" unicode="&#x178;" horiz-adv-x="1030" 
d="M652 561v-561h-274v561l-428 893h287l278 -626l278 626h287zM588 1847h274v-274h-274v274zM168 1847h274v-274h-274v274z" />
    <glyph glyph-name="Zacute" unicode="&#x179;" horiz-adv-x="1114" 
d="M1024 1208l-598 -944h618v-264h-944v246l598 944h-580v264h906v-246zM453 1712l276 245l182 -187l-295 -226z" />
    <glyph glyph-name="zacute" unicode="&#x17a;" horiz-adv-x="1013" 
d="M896 806l-459 -557h486v-249h-813v236l472 553h-458v249h772v-232zM364 1321l286 355l193 -162l-305 -336z" />
    <glyph glyph-name="Zdotaccent" unicode="&#x17b;" horiz-adv-x="1114" 
d="M1024 1208l-598 -944h618v-264h-944v246l598 944h-580v264h906v-246zM440 1853h274v-279h-274v279z" />
    <glyph glyph-name="zdotaccent" unicode="&#x17c;" horiz-adv-x="1013" 
d="M896 806l-459 -557h486v-249h-813v236l472 553h-458v249h772v-232zM381 1530h274v-279h-274v279z" />
    <glyph glyph-name="Zcaron" unicode="&#x17d;" horiz-adv-x="1114" 
d="M1024 1208l-598 -944h618v-264h-944v246l598 944h-580v264h906v-246zM223 1826l147 151l207 -161l207 161l147 -151l-354 -274z" />
    <glyph glyph-name="zcaron" unicode="&#x17e;" horiz-adv-x="1013" 
d="M896 806l-459 -557h486v-249h-813v236l472 553h-458v249h772v-232zM164 1512l154 140l200 -190l200 190l154 -140l-354 -334z" />
    <glyph glyph-name="uni0181" unicode="&#x181;" horiz-adv-x="1499" 
d="M-40 1191q0 125 72 194t203 69h222v-264h-154q-38 0 -58.5 -20.5t-20.5 -58.5v-14h-264v94zM457 264h464q94 0 145.5 45.5t51.5 127.5v3q0 55 -23 94t-67.5 59.5t-106.5 20.5h-464v264h464q85 0 131.5 43t46.5 121v0q0 70 -46.5 109t-131.5 39h-464v264h473
q141 0 241 -46.5t152 -135t52 -212.5v0q0 -85 -33.5 -150.5t-97.5 -107.5t-154 -57q96 -13 164.5 -58.5t104 -118.5t35.5 -169v-3q0 -125 -52.5 -214t-153 -135.5t-241.5 -46.5h-490v264zM337 1454h274v-1454h-274v1454z" />
    <glyph glyph-name="uni0186" unicode="&#x186;" horiz-adv-x="1267" 
d="M366.5 44q-107.5 59 -178 171.5t-98.5 271.5v0h284v0q15 -73 48 -124t81 -77.5t108 -26.5q77 0 131 31.5t82.5 91.5t28.5 145v399q0 85 -28.5 145.5t-82.5 92t-131 31.5q-59 0 -106.5 -27t-81 -78t-49.5 -123v0h-284v0q27 159 97.5 271.5t178.5 171.5t245 59
q166 0 284 -64t180 -185.5t62 -293.5v-399q0 -172 -62 -293.5t-180 -185t-284 -63.5q-137 0 -244.5 59z" />
    <glyph glyph-name="uni0189" unicode="&#x189;" horiz-adv-x="1391" 
d="M345 264h349q135 0 209 65t74 184v428q0 119 -74 184t-209 65h-349v264h343q182 0 310.5 -61t195.5 -178t67 -282v-412q0 -157 -64.5 -274t-193.5 -182t-316 -65h-342v264zM207 1454h274v-1454h-274v1454zM718 849v-244h-670v244h670z" />
    <glyph glyph-name="uni018A" unicode="&#x18a;" horiz-adv-x="1521" 
d="M-40 1191q0 125 72 194t203 69h202v-264h-134q-38 0 -58.5 -20.5t-20.5 -58.5v-14h-264v94zM475 264h349q135 0 209 65t74 184v428q0 119 -74 184t-209 65h-349v264h343q182 0 310.5 -61t195.5 -178t67 -282v-412q0 -157 -64.5 -274t-193.5 -182t-316 -65h-342v264z
M337 1454h274v-1454h-274v1454z" />
    <glyph glyph-name="uni018E" unicode="&#x18e;" horiz-adv-x="1224" 
d="M790 0v1454h274v-1454h-274zM90 0v264h875v-264h-875zM200 590v264h765v-264h-765zM90 1190v264h875v-264h-875z" />
    <glyph glyph-name="uni018F" unicode="&#x18f;" horiz-adv-x="1281" 
d="M378.5 43.5q-112.5 58.5 -171 169.5t-58.5 268v383h734v-254h-455v-126q0 -109 58 -168.5t164 -59.5t164 59.5t58 168.5v496q0 104 -63 161t-179 57q-104 0 -192 -38.5t-144 -109.5v0l-154 194v0q95 107 223 166t267 59q165 0 282 -58.5t178 -169.5t61 -268v-492
q0 -157 -58.5 -268t-171 -169.5t-271.5 -58.5t-271.5 58.5z" />
    <glyph glyph-name="uni0190" unicode="&#x190;" horiz-adv-x="1123" 
d="M327.5 32q-101.5 47 -154.5 137t-53 217v44q0 133 57.5 219t162.5 110q-94 37 -145 112t-51 176v44q0 120 50.5 204.5t146.5 129t232 44.5q122 0 221 -50.5t161 -147t74 -229.5v0h-282v0q-10 51 -33 87t-56.5 55t-74.5 19q-69 0 -107 -36.5t-38 -103.5v-25
q0 -71 31.5 -110.5t87.5 -39.5h163v-264h-163q-68 0 -105.5 -45t-37.5 -128v-34q0 -79 49 -122.5t139 -43.5q46 0 81.5 16.5t57.5 48t29 76.5v0h283v0q-6 -127 -69 -219t-169.5 -140t-242.5 -48q-143 0 -244.5 47z" />
    <glyph glyph-name="uni0191" unicode="&#x191;" horiz-adv-x="1158" 
d="M0 -158h94q38 0 58.5 20.5t20.5 58.5v197h274v-265q0 -131 -69 -203t-194 -72h-184v264zM173 1454h274v-1454h-274v1454zM273 841h745v-264h-745v264zM273 1454h855v-264h-855v264z" />
    <glyph glyph-name="florin" unicode="&#x192;" horiz-adv-x="649" 
d="M60 -158h31q38 0 58.5 20.5t20.5 58.5v179h274v-247q0 -131 -69 -203t-194 -72h-121v264zM170 1179q0 138 63.5 206.5t195.5 68.5h190v-244h-116q-29 0 -44 -22t-15 -57v-1131h-274v1179zM60 1038h559v-234h-559v234z" />
    <glyph glyph-name="uni0194" unicode="&#x194;" horiz-adv-x="1202" 
d="M396.5 -368.5q-63.5 53.5 -63.5 172.5q0 54 34 136.5t110 210.5h248q76 -128 110 -210.5t34 -136.5q0 -119 -63.5 -172.5t-204.5 -53.5t-204.5 53.5zM630.5 -215.5q9.5 12.5 9.5 39.5q0 19 -9.5 49.5t-29.5 79.5q-39 -103 -39 -129q0 -27 9.5 -39.5t29.5 -12.5t29.5 12.5
zM10 1454h282l309 -970l309 970h282l-484 -1454h-214z" />
    <glyph glyph-name="uni0198" unicode="&#x198;" horiz-adv-x="1314" 
d="M321 566l465 700q43 64 88 107t98 65.5t117 22.5h165v-264h-118q-37 0 -62 -16.5t-57 -54.5l-657 -913zM160 1454h274v-1454h-274v1454zM567 736l236 149l511 -885h-325z" />
    <glyph glyph-name="uni0199" unicode="&#x199;" horiz-adv-x="1083" 
d="M268 374l484 664h290l-737 -966zM514 536l226 136l353 -672h-317zM140 1189q0 131 69 203t194 72h184v-264h-94q-38 0 -58.5 -20.5t-20.5 -58.5v-1121h-274v1189z" />
    <glyph glyph-name="Ohorn" unicode="&#x1a0;" horiz-adv-x="1362" 
d="M805 1300v154h120q164 0 164 149v23h238v-43q0 -142 -73.5 -212.5t-221.5 -70.5h-227zM382.5 51.5q-120.5 66.5 -186.5 188t-66 281.5v412q0 160 66 281.5t186.5 188t278.5 66.5t278.5 -66.5t186.5 -188t66 -281.5v-412q0 -160 -66 -281.5t-186.5 -188t-278.5 -66.5
t-278.5 66.5zM791 290.5q56 31.5 86.5 89.5t30.5 134v426q0 76 -30.5 134t-86.5 89.5t-130 31.5t-130 -31.5t-86.5 -89.5t-30.5 -134v-426q0 -76 30.5 -134t86.5 -89.5t130 -31.5t130 31.5z" />
    <glyph glyph-name="ohorn" unicode="&#x1a1;" horiz-adv-x="1124" 
d="M642 1038h110q78 0 121 39t43 110v64h238v-84q0 -125 -77 -194t-218 -69h-217v134zM315.5 38q-100.5 53 -153 154.5t-52.5 244.5v169q0 141 52.5 241.5t153 153t242.5 52.5t242.5 -52.5t153 -153t52.5 -241.5v-172q0 -142 -52.5 -242.5t-153 -153.5t-242.5 -53t-242.5 53
zM686 297.5q46 48.5 46 136.5v172q0 87 -46 135t-129 48q-82 0 -127.5 -48t-45.5 -135v-172q0 -88 45 -136.5t128 -48.5t129 48.5z" />
    <glyph glyph-name="Uhorn" unicode="&#x1af;" horiz-adv-x="1484" 
d="M383 48.5q-119 63.5 -181 185t-62 292.5v928h274v-935q0 -125 67 -194t189 -69q123 0 190.5 69t67.5 194v935h274v-928q0 -171 -62.5 -292.5t-182 -185t-287.5 -63.5t-287 63.5zM972 1320v134h120q78 0 121 39t43 110v63h238v-83q0 -125 -77 -194t-218 -69h-227z" />
    <glyph glyph-name="uhorn" unicode="&#x1b0;" horiz-adv-x="1270" 
d="M736 1038h273v-1038h-273v1038zM414 407q0 -75 42.5 -116.5t119.5 -41.5t118.5 42.5t41.5 121.5l14 -227q-29 -85 -96.5 -143t-164.5 -58q-167 0 -258 107.5t-91 304.5v641h274v-631zM778 904v134h120q78 0 121 39t43 110v64h238v-84q0 -125 -77 -194t-218 -69h-227z" />
    <glyph glyph-name="uni01B2" unicode="&#x1b2;" horiz-adv-x="1342" 
d="M383 48.5q-119 63.5 -181 185t-62 292.5v928h274v-935q0 -125 67 -194t189 -69q123 0 190.5 69t67.5 194v575h274v-568q0 -171 -62.5 -292.5t-182 -185t-287.5 -63.5t-287 63.5zM928 1111q0 38 -20.5 58.5t-58.5 20.5h-64v264h154q125 0 194 -72t69 -203v-424h-274v356z
" />
    <glyph glyph-name="uni01B3" unicode="&#x1b3;" horiz-adv-x="1058" 
d="M378 561l-428 893h287l330 -743l85 10v-721h-274v561zM453 694l222 492q4 9 28 60q35 72 71 117.5t90.5 71.5t133.5 26h125v-264h-138q-20 0 -30.5 -11.5t-24.5 -39.5l-341 -719z" />
    <glyph glyph-name="uni01B4" unicode="&#x1b4;" horiz-adv-x="1051" 
d="M167 -167h61q44 0 73.5 19.5t44.5 63.5l314 915q38 111 106 166.5t167 55.5h118v-264h-61q-45 0 -75 -19.5t-44 -59.5l-344 -953q-26 -71 -64.5 -112.5t-95 -59.5t-139.5 -18h-61v266zM30 1038h258l349 -902l-173 -221z" />
    <glyph glyph-name="uni01B7" unicode="&#x1b7;" horiz-adv-x="1113" 
d="M286 30q-101 45 -155 135.5t-61 226.5v0h283v0q12 -71 55 -106t118 -35q87 0 130 41.5t43 124.5v54q0 87 -53 130t-160 43h-123v264h123q170 0 282.5 -50.5t168.5 -152.5t56 -255v-64q0 -134 -50.5 -223t-152 -133.5t-254.5 -44.5q-149 0 -250 45zM363 908l275 282h-520
v264h846v-246l-386 -457z" />
    <glyph glyph-name="uni01DD" unicode="&#x1dd;" horiz-adv-x="1098" 
d="M298 53q-97 68 -147.5 197.5t-50.5 312.5v68h710v-185h-460l3 -24q11 -90 56.5 -139t121.5 -49q99 0 153.5 59t54.5 167v132q0 106 -59.5 164t-166.5 58q-55 0 -109 -19.5t-98 -55.5v0l-179 159v0q81 74 182 114.5t204 40.5q150 0 256.5 -54.5t162.5 -159t56 -251.5v-117
q0 -154 -53.5 -263t-156 -166t-247.5 -57q-136 0 -233 68z" />
    <glyph glyph-name="uni0218" unicode="&#x218;" horiz-adv-x="1261" 
d="M413.5 6q-99.5 21 -187 61.5t-156.5 97.5v0l127 226v0q84 -69 194 -106.5t226 -37.5q134 0 208 45.5t74 128.5v1q0 58 -33 92t-86 50t-136 29q-3 1 -5.5 1t-5.5 1l-22 3q-146 23 -242 57.5t-163 121t-67 245.5v1q0 141 63 241t183 152.5t290 52.5q78 0 159.5 -18
t159.5 -52t148 -82v0l-116 -232v0q-84 58 -175.5 90t-175.5 32q-126 0 -195 -41.5t-69 -116.5v-1q0 -63 36 -99.5t89 -53.5t149 -36q4 -1 8 -1.5t8 -1.5q6 -1 11.5 -2.5t11.5 -2.5q138 -27 230.5 -65.5t154.5 -124t62 -233.5v-2q0 -139 -65 -238t-189.5 -151t-299.5 -52
q-104 0 -203.5 21zM504 -111h274v-225l-274 -202v427z" />
    <glyph glyph-name="uni0219" unicode="&#x219;" horiz-adv-x="1062" 
d="M356 1.5q-88 16.5 -165 48.5t-136 77v0l169 211v0q75 -48 157 -74t156 -26q96 0 149 21.5t53 59.5q0 35 -23 53t-59 25.5t-101 13.5q-18 2 -36.5 4t-37.5 4q-4 1 -8.5 1.5t-8.5 0.5q-116 15 -186 37t-118.5 84.5t-48.5 181.5q0 104 50 178t145 112.5t230 38.5
q79 0 157.5 -16t150.5 -46t133 -72v0l-163 -199v0q-68 38 -142 59t-142 21q-83 0 -129 -19t-46 -53q0 -26 24.5 -40.5t61 -21t106.5 -14.5l18 -2l18 -2q4 -1 9 -1t9 -1q121 -14 197 -36t129.5 -88t53.5 -194q0 -108 -52 -185t-152 -117.5t-241 -40.5q-93 0 -181 16.5z
M389 -111h274v-225l-274 -202v427z" />
    <glyph glyph-name="uni021A" unicode="&#x21a;" horiz-adv-x="986" 
d="M356 1335h274v-1335h-274v1335zM-40 1454h1066v-264h-1066v264zM356 -111h274v-225l-274 -202v427z" />
    <glyph glyph-name="uni021B" unicode="&#x21b;" horiz-adv-x="668" 
d="M230.5 64.5q-63.5 69.5 -63.5 205.5v1070h274v-1002q0 -38 15 -58.5t44 -20.5h68v-264h-138q-136 0 -199.5 69.5zM60 1038h508v-234h-508v234zM192 -111h274v-225l-274 -202v427z" />
    <glyph glyph-name="uni0253" unicode="&#x253;" horiz-adv-x="1114" 
d="M140 1189q0 131 69 203t194 72h184v-264h-94q-38 0 -58.5 -20.5t-20.5 -58.5v-1121h-274v1189zM498 31.5q-66 46.5 -98 131.5l14 237q0 -51 18 -87t52.5 -55t83.5 -19q77 0 119.5 51t42.5 144v165q0 95 -42.5 147.5t-119.5 52.5q-49 0 -83.5 -19.5t-52.5 -56.5t-18 -90
l-21 230q42 91 110.5 140.5t151.5 49.5q110 0 188.5 -53t119.5 -155t41 -245v-166q0 -142 -41 -242.5t-119.5 -153.5t-188.5 -53q-91 0 -157 46.5z" />
    <glyph glyph-name="uni0254" unicode="&#x254;" horiz-adv-x="1020" 
d="M209.5 27.5q-103.5 42.5 -164.5 120.5v0l177 172v0q37 -39 88 -60t108 -21q104 0 161 59t57 168v111q0 101 -57 156.5t-161 55.5q-56 0 -107 -19.5t-89 -54.5v0l-177 172v0q61 79 164.5 122.5t231.5 43.5q148 0 253.5 -56t160.5 -162.5t55 -257.5v-111q0 -152 -55 -260
t-160.5 -164.5t-253.5 -56.5q-128 0 -231.5 42.5z" />
    <glyph glyph-name="uni0256" unicode="&#x256;" horiz-adv-x="1117" 
d="M769 -350q-69 72 -69 203v385h274v-317q0 -38 20.5 -58.5t58.5 -20.5h94v-264h-184q-125 0 -194 72zM700 1454h274v-1454h-274v1454zM270.5 38q-78.5 53 -119.5 153.5t-41 242.5v166q0 143 41 245t119.5 155t188.5 53q83 0 151.5 -49.5t110.5 -140.5l-21 -230
q0 53 -18 90t-52.5 56.5t-83.5 19.5q-77 0 -119.5 -52.5t-42.5 -147.5v-165q0 -93 42.5 -144t119.5 -51q49 0 83.5 19t52.5 55t18 87l14 -237q-32 -85 -98 -131.5t-157 -46.5q-110 0 -188.5 53z" />
    <glyph glyph-name="uni0257" unicode="&#x257;" horiz-adv-x="1117" 
d="M700 1189q0 131 69 203t194 72h184v-264h-94q-38 0 -58.5 -20.5t-20.5 -58.5v-1121h-274v1189zM270.5 38q-78.5 53 -119.5 153.5t-41 242.5v166q0 143 41 245t119.5 155t188.5 53q83 0 151.5 -49.5t110.5 -140.5l-21 -230q0 53 -18 90t-52.5 56.5t-83.5 19.5
q-77 0 -119.5 -52.5t-42.5 -147.5v-165q0 -93 42.5 -144t119.5 -51q49 0 83.5 19t52.5 55t18 87l14 -237q-32 -85 -98 -131.5t-157 -46.5q-110 0 -188.5 53z" />
    <glyph glyph-name="uni0259" unicode="&#x259;" horiz-adv-x="1098" 
d="M298 53q-97 68 -147.5 197.5t-50.5 312.5v68h710v-185h-460l3 -24q11 -90 56.5 -139t121.5 -49q99 0 153.5 59t54.5 167v132q0 106 -59.5 164t-166.5 58q-55 0 -109 -19.5t-98 -55.5v0l-179 159v0q81 74 182 114.5t204 40.5q150 0 256.5 -54.5t162.5 -159t56 -251.5v-117
q0 -154 -53.5 -263t-156 -166t-247.5 -57q-136 0 -233 68z" />
    <glyph glyph-name="uni025B" unicode="&#x25b;" horiz-adv-x="963" 
d="M206.5 62.5q-106.5 77.5 -106.5 233.5v1q0 69 17.5 117.5t53.5 78t89 38.5q-68 33 -102 95.5t-34 156.5v1q0 135 100.5 202t303.5 67q139 0 236.5 -39.5t153.5 -118.5v0l-179 -171v0q-41 37 -90.5 55t-110.5 18q-70 0 -105 -20.5t-35 -61.5v-1q0 -33 19.5 -49.5
t59.5 -16.5h153v-249h-153q-52 0 -77.5 -18t-25.5 -53v-1q0 -43 35.5 -64.5t107.5 -21.5q56 0 111 18.5t110 56.5v0l179 -182v0q-67 -75 -164.5 -112t-225.5 -37q-214 0 -320.5 77.5z" />
    <glyph glyph-name="uni02BB" unicode="&#x2bb;" horiz-adv-x="364" 
d="M45 1242l274 202v-486h-274v284z" />
    <glyph glyph-name="uni02BC" unicode="&#x2bc;" horiz-adv-x="364" 
d="M45 1454h274v-284l-274 -202v486z" />
    <glyph glyph-name="circumflex" unicode="&#x2c6;" horiz-adv-x="808" 
d="M758 1318l-154 -140l-200 190l-200 -190l-154 140l354 334z" />
    <glyph glyph-name="caron" unicode="&#x2c7;" horiz-adv-x="808" 
d="M50 1512l154 140l200 -190l200 190l154 -140l-354 -334z" />
    <glyph glyph-name="uni02C9" unicode="&#x2c9;" horiz-adv-x="890" 
d="M810 1453v-274h-730v274h730z" />
    <glyph glyph-name="breve" unicode="&#x2d8;" horiz-adv-x="774" 
d="M132 1304.5q-82 99.5 -82 298.5v0h224v0q0 -100 26 -149.5t78 -49.5h18q52 0 78 49.5t26 149.5v0h224v0q0 -199 -82 -298.5t-246 -99.5h-18q-164 0 -246 99.5z" />
    <glyph glyph-name="dotaccent" unicode="&#x2d9;" horiz-adv-x="504" 
d="M115 1530h274v-279h-274v279z" />
    <glyph glyph-name="ogonek" unicode="&#x2db;" horiz-adv-x="347" 
d="M62.5 -371q-52.5 49 -52.5 148q0 86 49 155.5t148 124.5l130 -57q-58 -33 -87 -69t-29 -75q0 -25 15 -37.5t45 -12.5h56v-226h-116q-106 0 -158.5 49z" />
    <glyph glyph-name="tilde" unicode="&#x2dc;" horiz-adv-x="854" 
d="M521.5 1201.5q-30.5 9.5 -65.5 30.5l-11 7q-4 3 -8.5 6t-8.5 5q-31 19 -55.5 27.5t-44.5 8.5q-32 0 -46 -14t-14 -46v-31h-208v35q0 163 50.5 236t163.5 73q28 0 59 -10t71 -32l11 -6l21 -12q34 -18 55.5 -26t34.5 -8q32 0 46 16t14 51v30h208v-34q0 -166 -50.5 -241
t-162.5 -75q-29 0 -59.5 9.5z" />
    <glyph glyph-name="hungarumlaut" unicode="&#x2dd;" horiz-adv-x="829" 
d="M411 1281l226 385l213 -132l-245 -376zM-19 1281l226 385l213 -132l-245 -376z" />
    <glyph glyph-name="gravecomb" unicode="&#x300;" 
d="M-489 1514l193 162l286 -355l-174 -143z" />
    <glyph glyph-name="acutecomb" unicode="&#x301;" 
d="M-489 1321l286 355l193 -162l-305 -336z" />
    <glyph glyph-name="uni0302" unicode="&#x302;" 
d="M0 1318l-154 -140l-200 190l-200 -190l-154 140l354 334z" />
    <glyph glyph-name="tildecomb" unicode="&#x303;" 
d="M-272.5 1201.5q-30.5 9.5 -65.5 30.5l-11 7q-4 3 -8.5 6t-8.5 5q-31 19 -55.5 27.5t-44.5 8.5q-32 0 -46 -14t-14 -46v-31h-208v35q0 163 50.5 236t163.5 73q28 0 59 -10t71 -32l11 -6l21 -12q34 -18 55.5 -26t34.5 -8q32 0 46 16t14 51v30h208v-34q0 -166 -50.5 -241
t-162.5 -75q-29 0 -59.5 9.5z" />
    <glyph glyph-name="uni0304" unicode="&#x304;" 
d="M-50 1453v-274h-730v274h730z" />
    <glyph glyph-name="uni0306" unicode="&#x306;" 
d="M-622 1304.5q-82 99.5 -82 298.5v0h224v0q0 -100 26 -149.5t78 -49.5h18q52 0 78 49.5t26 149.5v0h224v0q0 -199 -82 -298.5t-246 -99.5h-18q-164 0 -246 99.5z" />
    <glyph glyph-name="uni0307" unicode="&#x307;" 
d="M-284 1530h274v-279h-274v279z" />
    <glyph glyph-name="uni0308" unicode="&#x308;" 
d="M-284 1525h274v-274h-274v274zM-704 1525h274v-274h-274v274z" />
    <glyph glyph-name="hookabovecomb" unicode="&#x309;" 
d="M-94 1609q64 -44 64 -132q0 -154 -235 -154l-117 86q126 0 126 44q0 36 -89 36q-51 0 -105 -14l-22 160q72 18 185 18q129 0 193 -44zM-398 1409l226 2v-161h-226v159z" />
    <glyph glyph-name="uni030A" unicode="&#x30a;" 
d="M-498.5 1248q-71.5 68 -71.5 193q0 130 71.5 200.5t203.5 70.5q131 0 203 -71.5t72 -199.5q0 -125 -72 -193t-203 -68q-132 0 -203.5 68zM-233.5 1382.5q21.5 22.5 21.5 62.5q0 42 -21.5 65t-61.5 23t-61.5 -23t-21.5 -65q0 -40 21.5 -62.5t61.5 -22.5t61.5 22.5z" />
    <glyph glyph-name="uni030B" unicode="&#x30b;" 
d="M-429 1281l226 385l213 -132l-245 -376zM-859 1281l226 385l213 -132l-245 -376z" />
    <glyph glyph-name="uni030C" unicode="&#x30c;" 
d="M-708 1512l154 140l200 -190l200 190l154 -140l-354 -334z" />
    <glyph glyph-name="uni031B" unicode="&#x31b;" 
d="M-522 904v134h120q78 0 121 39t43 110v64h238v-84q0 -125 -77 -194t-218 -69h-227z" />
    <glyph glyph-name="dotbelowcomb" unicode="&#x323;" 
d="M-289 -143h274v-279h-274v279z" />
    <glyph glyph-name="uni0326" unicode="&#x326;" 
d="M-284 -111h274v-225l-274 -202v427z" />
    <glyph glyph-name="uni0327" unicode="&#x327;" 
d="M-452 -405l42 155q53 -14 105 -14q42 0 65.5 9.5t23.5 26.5q0 21 -38 32.5t-108 11.5l97 121q131 0 203 -47t72 -132q0 -86 -77.5 -133.5t-219.5 -47.5q-98 0 -165 18zM-362 90h206v-274h-206v274z" />
    <glyph glyph-name="uni0328" unicode="&#x328;" 
d="M-284.5 -371q-52.5 49 -52.5 148q0 86 49 155.5t148 124.5l130 -57q-58 -33 -87 -69t-29 -75q0 -25 15 -37.5t45 -12.5h56v-226h-116q-106 0 -158.5 49z" />
    <glyph glyph-name="uni0335" unicode="&#x335;" 
d="M-50 859v-264h-670v264h670z" />
    <glyph glyph-name="uni0345" unicode="&#x345;" 
d="M-181 -99q0 -38 16.5 -58.5t46.5 -20.5h46v-244h-140q-107 0 -165 61.5t-58 173.5v108h254v-20z" />
    <glyph glyph-name="uni0370" unicode="&#x370;" horiz-adv-x="1156" 
d="M160 1454h274v-1454h-274v1454zM287 853h739v-264h-739v264z" />
    <glyph glyph-name="uni0371" unicode="&#x371;" horiz-adv-x="756" 
d="M140 1038h274v-1038h-274v1038zM287 642h399v-264h-399v264z" />
    <glyph glyph-name="uni0372" unicode="&#x372;" horiz-adv-x="1106" 
d="M0 1454h274v-576h-274v576zM792 1454h274v-576h-274v576zM396 1335h274v-1335h-274v1335zM0 1454h1066v-264h-1066v264z" />
    <glyph glyph-name="uni0373" unicode="&#x373;" horiz-adv-x="946" 
d="M-20 1454h244v-546h-244v546zM682 1454h244v-546h-244v546zM321 1335h264v-1335h-264v1335zM0 1454h906v-264h-906v264z" />
    <glyph glyph-name="uni0374" unicode="&#x374;" horiz-adv-x="364" 
d="M45 1252l274 202v-486h-274v284z" />
    <glyph glyph-name="uni0375" unicode="&#x375;" horiz-adv-x="464" 
d="M95 82l274 202v-486h-274v284z" />
    <glyph glyph-name="uni0376" unicode="&#x376;" horiz-adv-x="1434" 
d="M1012 1v1163l24 -26l-549 -1137h-327v1453h262v-1180l-24 26l551 1154h325v-1453h-262z" />
    <glyph glyph-name="uni0377" unicode="&#x377;" horiz-adv-x="1174" 
d="M772 1v687l24 -26l-419 -661h-237v1037h262v-704l-24 26l421 678h235v-1037h-262z" />
    <glyph glyph-name="uni037A" unicode="&#x37a;" horiz-adv-x="353" 
d="M274 -99q0 -38 16.5 -58.5t46.5 -20.5h86v-244h-180q-97 0 -150 61.5t-53 173.5v108h234v-20z" />
    <glyph glyph-name="uni037B" unicode="&#x37b;" horiz-adv-x="1020" 
d="M209.5 27.5q-103.5 42.5 -164.5 120.5v0l177 172v0q37 -39 88 -60t108 -21q104 0 161 59t57 168v111q0 101 -57 156.5t-161 55.5q-56 0 -107 -19.5t-89 -54.5v0l-177 172v0q61 79 164.5 122.5t231.5 43.5q148 0 253.5 -56t160.5 -162.5t55 -257.5v-111q0 -152 -55 -260
t-160.5 -164.5t-253.5 -56.5q-128 0 -231.5 42.5z" />
    <glyph glyph-name="uni037C" unicode="&#x37c;" horiz-adv-x="1020" 
d="M325.5 41.5q-105.5 56.5 -160.5 164.5t-55 260v111q0 151 55 257.5t160.5 162.5t253.5 56q85 0 160.5 -19.5t135.5 -56.5t100 -90v0l-177 -172v0q-38 35 -89 54.5t-107 19.5q-104 0 -161 -55.5t-57 -156.5v-111q0 -104 57 -160.5t161 -56.5q57 0 108 21t88 60v0l177 -182
v0q-41 -52 -101 -88.5t-135 -55.5t-160 -19q-148 0 -253.5 56.5zM522 657h284v-284h-284v284z" />
    <glyph glyph-name="uni037D" unicode="&#x37d;" horiz-adv-x="1020" 
d="M209.5 27.5q-103.5 42.5 -164.5 120.5v0l177 172v0q37 -39 88 -60t108 -21q104 0 161 59t57 168v111q0 101 -57 156.5t-161 55.5q-56 0 -107 -19.5t-89 -54.5v0l-177 172v0q61 79 164.5 122.5t231.5 43.5q148 0 253.5 -56t160.5 -162.5t55 -257.5v-111q0 -152 -55 -260
t-160.5 -164.5t-253.5 -56.5q-128 0 -231.5 42.5zM214 657h284v-284h-284v284z" />
    <glyph glyph-name="uni037E" unicode="&#x37e;" horiz-adv-x="464" 
d="M95 284h274v-284l-274 -202v486zM95 1028h274v-274h-274v274z" />
    <glyph glyph-name="uni037F" unicode="&#x37f;" horiz-adv-x="1035" 
d="M172.5 37q-104.5 52 -162.5 147l224 163q36 -46 86.5 -71t105.5 -25q79 0 122 55.5t43 156.5v991h284v-992q0 -151 -54.5 -258t-158.5 -163t-251 -56q-134 0 -238.5 52z" />
    <glyph glyph-name="tonos" unicode="&#x384;" horiz-adv-x="498" 
d="M56.792 1244.95l147.315 431.355l236.739 -86.209l-171.665 -420.001z" />
    <glyph glyph-name="dieresistonos" unicode="&#x385;" horiz-adv-x="944" 
d="M660 1455h274v-274h-274v274zM10 1455h274v-274h-274v274zM307 1245l148 432l236 -86l-172 -420z" />
    <glyph glyph-name="Alphatonos" unicode="&#x386;" horiz-adv-x="1404" 
d="M654 1454h174l556 -1454h-295l-348 993l-348 -993h-295zM365 497h765v-264h-765v264zM19.792 1038.95l147.315 431.355l236.739 -86.209l-171.665 -420.001z" />
    <glyph glyph-name="anoteleia" unicode="&#x387;" horiz-adv-x="464" 
d="M95 1028h274v-274h-274v274z" />
    <glyph glyph-name="Epsilontonos" unicode="&#x388;" horiz-adv-x="1432" 
d="M368 1454h274v-1454h-274v1454zM467 264h875v-264h-875v264zM467 854h765v-264h-765v264zM467 1454h875v-264h-875v264zM-60.208 1038.95l147.315 431.355l236.739 -86.209l-171.665 -420.001z" />
    <glyph glyph-name="Etatonos" unicode="&#x389;" horiz-adv-x="1608" 
d="M1174 1454h274v-1454h-274v1454zM378 1454h274v-1454h-274v1454zM505 853h847v-264h-847v264zM-60.208 1038.95l147.315 431.355l236.739 -86.209l-171.665 -420.001z" />
    <glyph glyph-name="Iotatonos" unicode="&#x38a;" horiz-adv-x="762" 
d="M622 0h-284v1454h284v-1454zM-60.208 1038.95l147.315 431.355l236.739 -86.209l-171.665 -420.001z" />
    <glyph glyph-name="Omicrontonos" unicode="&#x38c;" horiz-adv-x="1518" 
d="M578.5 51.5q-120.5 66.5 -186.5 188t-66 281.5v412q0 160 66 281.5t186.5 188t278.5 66.5t278.5 -66.5t186.5 -188t66 -281.5v-412q0 -160 -66 -281.5t-186.5 -188t-278.5 -66.5t-278.5 66.5zM987 290.5q56 31.5 86.5 89.5t30.5 134v426q0 76 -30.5 134t-86.5 89.5
t-130 31.5t-130 -31.5t-86.5 -89.5t-30.5 -134v-426q0 -76 30.5 -134t86.5 -89.5t130 -31.5t130 31.5zM-50.208 1038.95l147.315 431.355l236.739 -86.209l-171.665 -420.001z" />
    <glyph glyph-name="Upsilontonos" unicode="&#x38e;" horiz-adv-x="1478" 
d="M1100 561v-561h-274v561l-428 893h287l278 -626l278 626h287zM19.792 1038.95l147.315 431.355l236.739 -86.209l-171.665 -420.001z" />
    <glyph glyph-name="Omegatonos" unicode="&#x38f;" horiz-adv-x="1590" 
d="M626 247q-109 53 -168.5 149.5t-59.5 224.5v312q0 160 66 281.5t186.5 188t278.5 66.5t278.5 -66.5t186.5 -188t66 -281.5v-312q0 -128 -59.5 -224.5t-168.5 -149.5t-253 -53v70q62 0 109 31t72.5 87.5t25.5 131.5v426q0 79 -32 139t-90 93t-135 33t-135 -33t-90 -93
t-32 -139v-426q0 -75 25.5 -131.5t72.5 -87.5t109 -31v-70q-144 0 -253 53zM398 263h481v-263h-481v263zM979 263h481v-263h-481v263zM19.792 1038.95l147.315 431.355l236.739 -86.209l-171.665 -420.001z" />
    <glyph glyph-name="iotadieresistonos" unicode="&#x390;" horiz-adv-x="594" 
d="M198 67q-73 72 -73 203v768h274v-700q0 -38 16.5 -58.5t46.5 -20.5h81v-264h-140q-132 0 -205 72zM450 1455h274v-274h-274v274zM-200 1455h274v-274h-274v274zM97 1245l148 432l236 -86l-172 -420z" />
    <glyph glyph-name="Alpha" unicode="&#x391;" horiz-adv-x="1326" 
d="M576 1454h174l556 -1454h-295l-348 993l-348 -993h-295zM287 497h765v-264h-765v264z" />
    <glyph glyph-name="Beta" unicode="&#x392;" horiz-adv-x="1322" 
d="M280 264h464q94 0 145.5 45.5t51.5 127.5v3q0 55 -23 94t-67.5 59.5t-106.5 20.5h-464v264h464q85 0 131.5 43t46.5 121v0q0 70 -46.5 109t-131.5 39h-464v264h473q141 0 241 -46.5t152 -135t52 -212.5v0q0 -85 -33.5 -150.5t-97.5 -107.5t-154 -57q96 -13 164.5 -58.5
t104 -118.5t35.5 -169v-3q0 -125 -52.5 -214t-153 -135.5t-241.5 -46.5h-490v264zM160 1454h274v-1454h-274v1454z" />
    <glyph glyph-name="Gamma" unicode="&#x393;" horiz-adv-x="975" 
d="M160 1454h274v-1454h-274v1454zM259 1454h756v-264h-756v264z" />
    <glyph glyph-name="uni0394" unicode="&#x394;" horiz-adv-x="1326" 
d="M576 1454h174l556 -1454h-295l-348 993l-348 -993h-295zM287 264h765v-264h-765v264z" />
    <glyph glyph-name="Epsilon" unicode="&#x395;" horiz-adv-x="1224" 
d="M160 1454h274v-1454h-274v1454zM259 264h875v-264h-875v264zM259 854h765v-264h-765v264zM259 1454h875v-264h-875v264z" />
    <glyph glyph-name="Zeta" unicode="&#x396;" horiz-adv-x="1114" 
d="M1024 1208l-598 -944h618v-264h-944v246l598 944h-580v264h906v-246z" />
    <glyph glyph-name="Eta" unicode="&#x397;" horiz-adv-x="1390" 
d="M956 1454h274v-1454h-274v1454zM160 1454h274v-1454h-274v1454zM287 853h847v-264h-847v264z" />
    <glyph glyph-name="Theta" unicode="&#x398;" horiz-adv-x="1322" 
d="M539 854h244v-264h-244v264zM382.5 51.5q-120.5 66.5 -186.5 188t-66 281.5v412q0 160 66 281.5t186.5 188t278.5 66.5t278.5 -66.5t186.5 -188t66 -281.5v-412q0 -160 -66 -281.5t-186.5 -188t-278.5 -66.5t-278.5 66.5zM791 290.5q56 31.5 86.5 89.5t30.5 134v426
q0 76 -30.5 134t-86.5 89.5t-130 31.5t-130 -31.5t-86.5 -89.5t-30.5 -134v-426q0 -76 30.5 -134t86.5 -89.5t130 -31.5t130 31.5z" />
    <glyph glyph-name="Iota" unicode="&#x399;" horiz-adv-x="564" 
d="M424 0h-284v1454h284v-1454z" />
    <glyph glyph-name="Kappa" unicode="&#x39a;" horiz-adv-x="1314" 
d="M325 568l583 886h345l-893 -1242zM160 1454h274v-1454h-274v1454zM567 736l236 149l511 -885h-325z" />
    <glyph glyph-name="Lambda" unicode="&#x39b;" horiz-adv-x="1326" 
d="M576 1454h174l556 -1454h-295l-348 993l-348 -993h-295z" />
    <glyph glyph-name="Mu" unicode="&#x39c;" horiz-adv-x="1596" 
d="M1075 1454h361v-1454h-249v1129l10 -64l-278 -903h-242l-278 883l10 84v-1129h-249v1454h361l277 -980z" />
    <glyph glyph-name="Nu" unicode="&#x39d;" horiz-adv-x="1434" 
d="M160 1454h335l541 -1114l-24 -26v1140h262v-1453h-337l-539 1097l24 26v-1123h-262v1453z" />
    <glyph glyph-name="Xi" unicode="&#x39e;" horiz-adv-x="1370" 
d="M150 264h1070v-264h-1070v264zM240 854h890v-264h-890v264zM150 1454h1070v-264h-1070v264z" />
    <glyph glyph-name="Omicron" unicode="&#x39f;" horiz-adv-x="1322" 
d="M382.5 51.5q-120.5 66.5 -186.5 188t-66 281.5v412q0 160 66 281.5t186.5 188t278.5 66.5t278.5 -66.5t186.5 -188t66 -281.5v-412q0 -160 -66 -281.5t-186.5 -188t-278.5 -66.5t-278.5 66.5zM791 290.5q56 31.5 86.5 89.5t30.5 134v426q0 76 -30.5 134t-86.5 89.5
t-130 31.5t-130 -31.5t-86.5 -89.5t-30.5 -134v-426q0 -76 30.5 -134t86.5 -89.5t130 -31.5t130 31.5z" />
    <glyph glyph-name="Pi" unicode="&#x3a0;" horiz-adv-x="1390" 
d="M956 1454h274v-1454h-274v1454zM160 1454h274v-1454h-274v1454zM287 1454h847v-264h-847v264z" />
    <glyph glyph-name="Rho" unicode="&#x3a1;" horiz-adv-x="1275" 
d="M285 828h465q49 0 86.5 22.5t58.5 63.5t21 94v0q0 54 -20.5 95.5t-58 64t-87.5 22.5h-465v264h458q136 0 239.5 -55.5t160.5 -156.5t57 -234v0q0 -133 -57 -233.5t-160.5 -155.5t-239.5 -55h-458v264zM160 1454h274v-1454h-274v1454z" />
    <glyph glyph-name="Sigma" unicode="&#x3a3;" horiz-adv-x="936" 
d="M896 1190h-510l326 -463l-326 -463h510v-264h-856v246l358 481l-358 481v246h856v-264z" />
    <glyph glyph-name="Tau" unicode="&#x3a4;" horiz-adv-x="986" 
d="M356 1335h274v-1335h-274v1335zM-40 1454h1066v-264h-1066v264z" />
    <glyph glyph-name="Upsilon" unicode="&#x3a5;" horiz-adv-x="1030" 
d="M652 561v-561h-274v561l-428 893h287l278 -626l278 626h287z" />
    <glyph glyph-name="Phi" unicode="&#x3a6;" horiz-adv-x="1622" 
d="M410 221.5q-166 66.5 -253 196t-87 314.5v40q0 185 87 314.5t253 196t401 66.5t401 -66.5t253 -196t87 -314.5v-40q0 -185 -87 -314.5t-253 -196t-401 -66.5t-401 66.5zM669 1504h284v-1504h-284v1504zM1171.5 482q126.5 86 126.5 250v40q0 164 -126.5 250t-360.5 86
t-360.5 -86t-126.5 -250v-40q0 -164 126.5 -250t360.5 -86t360.5 86z" />
    <glyph glyph-name="Chi" unicode="&#x3a7;" horiz-adv-x="1162" 
d="M521 595l-28 47l-481 812h289l326 -551l38 -65l497 -838h-289zM524 895l327 559h289l-481 -822l-370 -632h-289z" />
    <glyph glyph-name="Psi" unicode="&#x3a8;" horiz-adv-x="1462" 
d="M411 403.5q-132 68.5 -201.5 198.5t-69.5 314v538h274v-545q0 -99 37 -169.5t108 -107t171 -36.5q101 0 172 37t108.5 107t37.5 169v545h274v-538q0 -184 -69.5 -314t-202.5 -198.5t-320 -68.5t-319 68.5zM589 1454h284v-1454h-284v1454z" />
    <glyph glyph-name="uni03A9" unicode="&#x3a9;" horiz-adv-x="1322" 
d="M358 247q-109 53 -168.5 149.5t-59.5 224.5v312q0 160 66 281.5t186.5 188t278.5 66.5t278.5 -66.5t186.5 -188t66 -281.5v-312q0 -128 -59.5 -224.5t-168.5 -149.5t-253 -53v70q62 0 109 31t72.5 87.5t25.5 131.5v426q0 79 -32 139t-90 93t-135 33t-135 -33t-90 -93
t-32 -139v-426q0 -75 25.5 -131.5t72.5 -87.5t109 -31v-70q-144 0 -253 53zM130 263h481v-263h-481v263zM711 263h481v-263h-481v263z" />
    <glyph glyph-name="Iotadieresis" unicode="&#x3aa;" horiz-adv-x="564" 
d="M424 0h-284v1454h284v-1454zM355 1847h274v-274h-274v274zM-65 1847h274v-274h-274v274z" />
    <glyph glyph-name="Upsilondieresis" unicode="&#x3ab;" horiz-adv-x="1030" 
d="M652 561v-561h-274v561l-428 893h287l278 -626l278 626h287zM588 1847h274v-274h-274v274zM168 1847h274v-274h-274v274z" />
    <glyph glyph-name="alphatonos" unicode="&#x3ac;" horiz-adv-x="1170" 
d="M265 38q-76 53 -115.5 154.5t-39.5 244.5v169q0 141 39.5 241.5t115.5 153t183 52.5q144 0 223 -91t79 -256v-372q0 -166 -79 -257.5t-223 -91.5q-107 0 -183 53zM663 297.5q43 48.5 43 136.5v172q0 87 -43 135t-121 48q-75 0 -116.5 -48t-41.5 -135v-172
q0 -88 41.5 -136.5t116.5 -48.5q78 0 121 48.5zM779 67q-73 72 -73 203v768h274v-700q0 -38 16.5 -58.5t46.5 -20.5h76v-264h-135q-132 0 -205 72zM435.792 1244.95l147.315 431.355l236.739 -86.209l-171.665 -420.001z" />
    <glyph glyph-name="epsilontonos" unicode="&#x3ad;" horiz-adv-x="963" 
d="M206.5 62.5q-106.5 77.5 -106.5 233.5v1q0 69 17.5 117.5t53.5 78t89 38.5q-68 33 -102 95.5t-34 156.5v1q0 135 100.5 202t303.5 67q139 0 236.5 -39.5t153.5 -118.5v0l-179 -171v0q-41 37 -90.5 55t-110.5 18q-70 0 -105 -20.5t-35 -61.5v-1q0 -33 19.5 -49.5
t59.5 -16.5h153v-249h-153q-52 0 -77.5 -18t-25.5 -53v-1q0 -43 35.5 -64.5t107.5 -21.5q56 0 111 18.5t110 56.5v0l179 -182v0q-67 -75 -164.5 -112t-225.5 -37q-214 0 -320.5 77.5zM409.792 1244.95l147.315 431.355l236.739 -86.209l-171.665 -420.001z" />
    <glyph glyph-name="etatonos" unicode="&#x3ae;" horiz-adv-x="1144" 
d="M140 1038h274v-1038h-274v1038zM740 629q0 76 -43.5 118t-123.5 42q-76 0 -117.5 -42.5t-41.5 -119.5l-21 230q47 98 112.5 147t164.5 49q164 0 254 -110.5t90 -312.5v-934h-274v933zM479.792 1244.95l147.315 431.355l236.739 -86.209l-171.665 -420.001z" />
    <glyph glyph-name="iotatonos" unicode="&#x3af;" horiz-adv-x="594" 
d="M198 67q-73 72 -73 203v768h274v-700q0 -38 16.5 -58.5t46.5 -20.5h81v-264h-140q-132 0 -205 72zM169.792 1244.95l147.315 431.355l236.739 -86.209l-171.665 -420.001z" />
    <glyph glyph-name="upsilondieresistonos" unicode="&#x3b0;" horiz-adv-x="1149" 
d="M356.5 34.5q-96.5 49.5 -147 144.5t-50.5 228v302q0 38 -16.5 58.5t-46.5 20.5h-56v264h80q149 0 231 -72t82 -203v-370q0 -75 41 -116.5t115 -41.5t115 41.5t41 116.5v631h274v-631q0 -133 -50.5 -228t-147 -144.5t-232.5 -49.5t-232.5 49.5zM753 1455h274v-274h-274
v274zM103 1455h274v-274h-274v274zM400 1245l148 432l236 -86l-172 -420z" />
    <glyph glyph-name="alpha" unicode="&#x3b1;" horiz-adv-x="1170" 
d="M265 38q-76 53 -115.5 154.5t-39.5 244.5v169q0 141 39.5 241.5t115.5 153t183 52.5q144 0 223 -91t79 -256v-372q0 -166 -79 -257.5t-223 -91.5q-107 0 -183 53zM663 297.5q43 48.5 43 136.5v172q0 87 -43 135t-121 48q-75 0 -116.5 -48t-41.5 -135v-172
q0 -88 41.5 -136.5t116.5 -48.5q78 0 121 48.5zM779 67q-73 72 -73 203v768h274v-700q0 -38 16.5 -58.5t46.5 -20.5h76v-264h-135q-132 0 -205 72z" />
    <glyph glyph-name="beta" unicode="&#x3b2;" horiz-adv-x="1114" 
d="M550.5 18q-71.5 33 -116 105t-58.5 189l38 130q0 -59 23.5 -102.5t64 -66t90.5 -22.5q73 0 113 43.5t40 122.5v54q0 73 -37.5 113t-105.5 40h-73v264h73q57 0 88 41.5t31 118.5v15q0 67 -39 103.5t-111 36.5q-75 0 -116 -44.5t-41 -126.5v0h-274v0q0 138 51.5 236
t150.5 149.5t239 51.5q134 0 229 -44.5t145 -129.5t50 -204v-24q0 -109 -56.5 -190t-159.5 -118q115 -22 177.5 -100t62.5 -199v-114q0 -172 -80.5 -266.5t-226.5 -94.5q-100 0 -171.5 33zM140 1032h274v-1454h-274v1454z" />
    <glyph glyph-name="gamma" unicode="&#x3b3;" horiz-adv-x="1061" 
d="M402 22q0 19 -3 41.5t-10 48.5q-1 5 -2.5 9.5t-2.5 9.5l-181 589q-12 39 -35 59t-54 20h-84v254h174q80 0 142.5 -69t99.5 -206l187 -680l43 36v-556h-274v444zM515 214l253 824h273l-385 -1077z" />
    <glyph glyph-name="delta" unicode="&#x3b4;" horiz-adv-x="1116" 
d="M315.5 38q-100.5 53 -153 154.5t-52.5 244.5v169q0 104 39 187.5t114.5 136t181.5 65.5l25 -37l-280 225v166l357 -142l185 -139q88 -66 146.5 -128t93 -139.5t34.5 -174.5v-192q0 -142 -52.5 -242.5t-153 -153.5t-242.5 -53t-242.5 53zM686 297.5q46 48.5 46 136.5v232
q0 87 -46 135t-129 48q-82 0 -127.5 -48t-45.5 -135v-232q0 -88 45 -136.5t128 -48.5t129 48.5zM190 1454h756v-265h-756v265z" />
    <glyph glyph-name="epsilon" unicode="&#x3b5;" horiz-adv-x="963" 
d="M206.5 62.5q-106.5 77.5 -106.5 233.5v1q0 69 17.5 117.5t53.5 78t89 38.5q-68 33 -102 95.5t-34 156.5v1q0 135 100.5 202t303.5 67q139 0 236.5 -39.5t153.5 -118.5v0l-179 -171v0q-41 37 -90.5 55t-110.5 18q-70 0 -105 -20.5t-35 -61.5v-1q0 -33 19.5 -49.5
t59.5 -16.5h153v-249h-153q-52 0 -77.5 -18t-25.5 -53v-1q0 -43 35.5 -64.5t107.5 -21.5q56 0 111 18.5t110 56.5v0l179 -182v0q-67 -75 -164.5 -112t-225.5 -37q-214 0 -320.5 77.5z" />
    <glyph glyph-name="zeta" unicode="&#x3b6;" horiz-adv-x="1040" 
d="M756 -111q0 50 -28 73t-89 23h-51q-168 2 -273 50.5t-155 149t-50 261.5q0 94 35.5 187.5t106.5 187.5t179 189l36 32t35 32q63 57 101.5 90t79.5 63l287 62v-106q-19 -19 -84.5 -82t-180.5 -169l-56 -52q-85 -78 -141.5 -151t-85 -143.5t-28.5 -139.5
q0 -104 49.5 -150.5t158.5 -46.5h130q149 0 223.5 -86.5t74.5 -259.5v-164h-274v150zM164 1190v264h806v-266z" />
    <glyph glyph-name="eta" unicode="&#x3b7;" horiz-adv-x="1144" 
d="M140 1038h274v-1038h-274v1038zM740 629q0 76 -43.5 118t-123.5 42q-76 0 -117.5 -42.5t-41.5 -119.5l-21 230q47 98 112.5 147t164.5 49q164 0 254 -110.5t90 -312.5v-934h-274v933z" />
    <glyph glyph-name="theta" unicode="&#x3b8;" horiz-adv-x="1116" 
d="M315.5 38q-100.5 53 -153 154.5t-52.5 244.5v585q0 141 52.5 241.5t153 153t242.5 52.5t242.5 -52.5t153 -153t52.5 -241.5v-588q0 -142 -52.5 -242.5t-153 -153.5t-242.5 -53t-242.5 53zM693.5 290q48.5 51 48.5 144v588q0 92 -48.5 142.5t-136.5 50.5q-87 0 -135 -50.5
t-48 -142.5v-588q0 -93 48 -144t135 -51q88 0 136.5 51zM309 844h474v-244h-474v244z" />
    <glyph glyph-name="iota" unicode="&#x3b9;" horiz-adv-x="594" 
d="M198 67q-73 72 -73 203v768h274v-700q0 -38 16.5 -58.5t46.5 -20.5h81v-264h-140q-132 0 -205 72z" />
    <glyph glyph-name="kappa" unicode="&#x3ba;" horiz-adv-x="1083" 
d="M355 470l283 429q51 77 119 115.5t150 38.5h134v-264h-21q-71 0 -110 -16.5t-75 -62.5l-470 -598zM140 1038h274v-1038h-274v1038zM514 536l226 136l353 -672h-317z" />
    <glyph glyph-name="lambda" unicode="&#x3bb;" horiz-adv-x="1076" 
d="M293 0h-273l445 1118l172 -254zM257 1179.5q-29 17.5 -72 17.5h-21v264h129q85 0 138 -34.5t86 -120.5l374 -973q17 -45 43.5 -62t65.5 -17h56v-264h-144q-82 0 -133 27.5t-79 97.5l-396 1003q-18 44 -47 61.5z" />
    <glyph glyph-name="uni03BC" unicode="&#x3bc;" horiz-adv-x="1219" 
d="M140 1038h274v-755h-12l12 -563h-274v1318zM480 10q-42 25 -65.5 71.5t-23.5 107.5l23 218q0 -75 42.5 -116.5t119.5 -41.5q76 0 118 43t42 121l44 -224q-3 -97 -56.5 -150.5t-147.5 -53.5q-54 0 -96 25zM809 67q-73 72 -73 203v768h274v-650q0 -61 27 -95t76 -34h55
v-264h-154q-132 0 -205 72z" />
    <glyph glyph-name="nu" unicode="&#x3bd;" horiz-adv-x="1041" 
d="M437 0l-237 710q-14 43 -42 61t-77 18h-41v264h104q76 0 131 -26.5t94.5 -86.5t65.5 -162l99 -391l194 651h273l-370 -1038h-194z" />
    <glyph glyph-name="xi" unicode="&#x3be;" horiz-adv-x="1096" 
d="M752 -81q0 33 -16.5 49.5t-50.5 16.5h-41q-259 0 -388 105t-129 316v24q0 140 49.5 221.5t150.5 107.5q-78 26 -117 76.5t-39 126.5v4q0 139 118 207.5t356 68.5v-51q-100 0 -150 -43.5t-50 -129.5v-5q0 -62 47 -93.5t142 -31.5h283v-264h-283q-117 0 -175 -51t-58 -152
v-14q0 -85 60.5 -126.5t182.5 -41.5h204q89 0 133.5 -59t44.5 -177v-264h-274v180zM120 1454h876v-264h-876v264z" />
    <glyph glyph-name="omicron" unicode="&#x3bf;" horiz-adv-x="1116" 
d="M315.5 38q-100.5 53 -153 154.5t-52.5 244.5v169q0 141 52.5 241.5t153 153t242.5 52.5t242.5 -52.5t153 -153t52.5 -241.5v-172q0 -142 -52.5 -242.5t-153 -153.5t-242.5 -53t-242.5 53zM686 297.5q46 48.5 46 136.5v172q0 87 -46 135t-129 48q-82 0 -127.5 -48
t-45.5 -135v-172q0 -88 45 -136.5t128 -48.5t129 48.5z" />
    <glyph glyph-name="pi" unicode="&#x3c0;" horiz-adv-x="1386" 
d="M896.5 59.5q-75.5 69.5 -75.5 205.5v665h274v-597q0 -38 15 -58.5t44 -20.5h78v-264h-98q-162 0 -237.5 69.5zM261 929h284v-929h-284v929zM90 1038h1196v-264h-1196v264z" />
    <glyph glyph-name="rho" unicode="&#x3c1;" horiz-adv-x="1114" 
d="M140 599q0 144 50.5 246t147.5 155t234 53t234 -53t147.5 -155t50.5 -246v-165q0 -142 -41.5 -242.5t-120.5 -153.5t-190 -53q-93 0 -162 46.5t-100 131.5l24 267q0 -91 41.5 -141t116.5 -50t116.5 51t41.5 144v165q0 95 -41.5 147.5t-116.5 52.5t-116.5 -52.5
t-41.5 -147.5v-1021h-274v1021z" />
    <glyph glyph-name="sigma1" unicode="&#x3c2;" horiz-adv-x="1020" 
d="M596 -111q0 48 -18.5 72t-68.5 24h-10q-123 0 -210.5 55t-133 161t-45.5 255v131q0 148 56.5 252.5t164 159t258.5 54.5q125 0 226 -42.5t160 -120.5v0l-180 -188v0q-39 41 -92 64t-111 23q-100 0 -154 -55.5t-54 -156.5v-121q0 -99 54 -153t154 -54v0q132 0 205 -82.5
t73 -233.5v-194h-274v150z" />
    <glyph glyph-name="sigma" unicode="&#x3c3;" horiz-adv-x="1216" 
d="M307 38q-96 53 -146.5 154.5t-50.5 244.5v169q0 136 50.5 233t146.5 148t231 51l190 -236q74 -10 128 -51.5t82 -103.5t28 -131v-82q0 -142 -50.5 -242.5t-146.5 -153.5t-231 -53t-231 53zM651.5 297.5q40.5 48.5 40.5 136.5v162q0 85 -40.5 131.5t-114.5 46.5
q-73 0 -113 -46.5t-40 -131.5v-162q0 -88 40 -136.5t113 -48.5q74 0 114.5 48.5zM537 1038h639v-264h-639v264z" />
    <glyph glyph-name="tau" unicode="&#x3c4;" horiz-adv-x="1056" 
d="M434.5 59.5q-63.5 69.5 -63.5 205.5v664h274v-596q0 -38 15 -58.5t44 -20.5h78v-264h-148q-136 0 -199.5 69.5zM90 1038h846v-264h-846v264z" />
    <glyph glyph-name="upsilon" unicode="&#x3c5;" horiz-adv-x="1149" 
d="M356.5 34.5q-96.5 49.5 -147 144.5t-50.5 228v302q0 38 -16.5 58.5t-46.5 20.5h-56v264h80q149 0 231 -72t82 -203v-370q0 -75 41 -116.5t115 -41.5t115 41.5t41 116.5v631h274v-631q0 -133 -50.5 -228t-147 -144.5t-232.5 -49.5t-232.5 49.5z" />
    <glyph glyph-name="phi" unicode="&#x3c6;" horiz-adv-x="1366" 
d="M355.5 44q-130.5 59 -195.5 177t-65 296v9q0 176 65 293t195.5 175.5t327.5 58.5t327.5 -58.5t195.5 -175.5t65 -293v-12q0 -177 -65 -294.5t-195.5 -176t-327.5 -58.5t-327.5 59zM556 1339h254v-1640h-254v1640zM933.5 270q83.5 71 83.5 214v72q0 142 -83.5 212.5
t-250.5 70.5q-112 0 -186 -31t-111 -94t-37 -158v-72q0 -143 83.5 -214t250.5 -71t250.5 71z" />
    <glyph glyph-name="chi" unicode="&#x3c7;" horiz-adv-x="1035" 
d="M853 -422q-38 15 -73 54.5t-76 115.5l-519 962q-25 47 -49 63t-60 16h-26v264h93q57 0 97 -14t77 -54t78 -117l509 -962q19 -35 34.5 -51.5t32 -22t42.5 -5.5h27v-264h-94q-55 0 -93 15zM419 375l178 -175l-294 -622h-293zM462 416l295 622h293l-410 -797z" />
    <glyph glyph-name="psi" unicode="&#x3c8;" horiz-adv-x="1452" 
d="M411 53.5q-132 68.5 -201.5 198.5t-69.5 314v472h274v-479q0 -102 37 -174.5t108 -110.5t171 -38q101 0 172 38t108.5 110.5t37.5 174.5v479h274v-472q0 -184 -69.5 -314t-202.5 -198.5t-320 -68.5t-319 68.5zM594 1339h274v-1640h-274v1640z" />
    <glyph glyph-name="omega" unicode="&#x3c9;" horiz-adv-x="1488" 
d="M771.5 84.5q-84.5 99.5 -84.5 279.5v290h194v-290q0 -55 28.5 -85t80.5 -30q54 0 84 30t30 85v292q0 64 -38 98.5t-106 34.5v264q132 0 226 -46.5t143 -136t49 -214.5v-289q0 -182 -96 -282t-272 -100q-154 0 -238.5 99.5zM206 85q-96 100 -96 282v289q0 125 49 214.5
t143 136t226 46.5v-264q-68 0 -106 -34.5t-38 -98.5v-292q0 -55 30 -85t84 -30q52 0 80.5 30t28.5 85v290h194v-290q0 -180 -84.5 -279.5t-238.5 -99.5q-176 0 -272 100z" />
    <glyph glyph-name="iotadieresis" unicode="&#x3ca;" horiz-adv-x="594" 
d="M198 67q-73 72 -73 203v768h274v-700q0 -38 16.5 -58.5t46.5 -20.5h81v-264h-140q-132 0 -205 72zM335 1525h274v-274h-274v274zM-85 1525h274v-274h-274v274z" />
    <glyph glyph-name="upsilondieresis" unicode="&#x3cb;" horiz-adv-x="1149" 
d="M356.5 34.5q-96.5 49.5 -147 144.5t-50.5 228v302q0 38 -16.5 58.5t-46.5 20.5h-56v264h80q149 0 231 -72t82 -203v-370q0 -75 41 -116.5t115 -41.5t115 41.5t41 116.5v631h274v-631q0 -133 -50.5 -228t-147 -144.5t-232.5 -49.5t-232.5 49.5zM638 1525h274v-274h-274
v274zM218 1525h274v-274h-274v274z" />
    <glyph glyph-name="omicrontonos" unicode="&#x3cc;" horiz-adv-x="1116" 
d="M315.5 38q-100.5 53 -153 154.5t-52.5 244.5v169q0 141 52.5 241.5t153 153t242.5 52.5t242.5 -52.5t153 -153t52.5 -241.5v-172q0 -142 -52.5 -242.5t-153 -153.5t-242.5 -53t-242.5 53zM686 297.5q46 48.5 46 136.5v172q0 87 -46 135t-129 48q-82 0 -127.5 -48
t-45.5 -135v-172q0 -88 45 -136.5t128 -48.5t129 48.5zM465.792 1244.95l147.315 431.355l236.739 -86.209l-171.665 -420.001z" />
    <glyph glyph-name="upsilontonos" unicode="&#x3cd;" horiz-adv-x="1149" 
d="M356.5 34.5q-96.5 49.5 -147 144.5t-50.5 228v302q0 38 -16.5 58.5t-46.5 20.5h-56v264h80q149 0 231 -72t82 -203v-370q0 -75 41 -116.5t115 -41.5t115 41.5t41 116.5v631h274v-631q0 -133 -50.5 -228t-147 -144.5t-232.5 -49.5t-232.5 49.5zM472.792 1244.95
l147.315 431.355l236.739 -86.209l-171.665 -420.001z" />
    <glyph glyph-name="omegatonos" unicode="&#x3ce;" horiz-adv-x="1488" 
d="M771.5 84.5q-84.5 99.5 -84.5 279.5v290h194v-290q0 -55 28.5 -85t80.5 -30q54 0 84 30t30 85v292q0 64 -38 98.5t-106 34.5v264q132 0 226 -46.5t143 -136t49 -214.5v-289q0 -182 -96 -282t-272 -100q-154 0 -238.5 99.5zM206 85q-96 100 -96 282v289q0 125 49 214.5
t143 136t226 46.5v-264q-68 0 -106 -34.5t-38 -98.5v-292q0 -55 30 -85t84 -30q52 0 80.5 30t28.5 85v290h194v-290q0 -180 -84.5 -279.5t-238.5 -99.5q-176 0 -272 100zM651.792 1244.95l147.315 431.355l236.739 -86.209l-171.665 -420.001z" />
    <glyph glyph-name="uni03CF" unicode="&#x3cf;" horiz-adv-x="1314" 
d="M1090 -422h-325l224 422h325zM325 568l583 886h345l-893 -1242zM160 1454h274v-1454h-274v1454zM567 736l236 149l511 -885h-325z" />
    <glyph glyph-name="uni03D0" unicode="&#x3d0;" horiz-adv-x="1136" 
d="M335.5 38q-100.5 53 -153 154.5t-52.5 244.5v585q0 141 51.5 241.5t149.5 153t237 52.5q132 0 226 -46.5t143 -136t49 -214.5v-22q0 -80 -33 -151.5t-96.5 -116t-150.5 -44.5l82 -122h-292v264h82q64 0 99 47t35 133v12q0 64 -38 98.5t-106 34.5q-78 0 -121 -48t-43 -135
v-588q0 -88 45.5 -136.5t128.5 -48.5t128.5 40.5t45.5 114.5v22q0 91 -45.5 140.5t-128.5 49.5v169q142 0 242.5 -42t153 -123t52.5 -194v-22q0 -132 -52.5 -226t-153 -143.5t-242.5 -49.5t-242.5 53z" />
    <glyph glyph-name="theta1" unicode="&#x3d1;" horiz-adv-x="1224" 
d="M381 34.5q-96 49.5 -146.5 143.5t-50.5 226h274q0 -74 40 -114.5t114 -40.5t114 48.5t40 136.5v588q0 87 -38 135t-106 48q-49 0 -76.5 -24.5t-27.5 -68.5v-12q0 -40 27 -62.5t77 -22.5h572v-264h-600q-167 0 -258.5 89t-91.5 250v22q0 170 98.5 263.5t279.5 93.5
q132 0 226 -52.5t143 -153t49 -241.5v-585q0 -143 -50.5 -244.5t-146.5 -154.5t-231 -53t-231 49.5zM184 416q0 48 -17 82.5t-49.5 52.5t-77.5 18v264q132 0 226 -41t143 -119t49 -187v-82h-274v12z" />
    <glyph glyph-name="Upsilon1" unicode="&#x3d2;" horiz-adv-x="1074" 
d="M395 1047h284v-1047h-284v1047zM528 995q0 136 66 241t198 165t322 60v-274q-142 0 -239.5 -63t-146.5 -175.5t-49 -262.5zM346 948.5q-49 112.5 -146.5 175.5t-239.5 63v274q190 0 322 -60t198 -165t66 -241l-151 -309q0 150 -49 262.5z" />
    <glyph glyph-name="uni03D3" unicode="&#x3d3;" horiz-adv-x="1464" 
d="M795 1047h284v-1047h-284v1047zM928 995q0 136 66 241t198 165t322 60v-274q-142 0 -239.5 -63t-146.5 -175.5t-49 -262.5zM746 948.5q-49 112.5 -146.5 175.5t-239.5 63v274q190 0 322 -60t198 -165t66 -241l-151 -309q0 150 -49 262.5zM-50.208 1038.95
l147.315 431.355l236.739 -86.209l-171.665 -420.001z" />
    <glyph glyph-name="uni03D4" unicode="&#x3d4;" horiz-adv-x="1074" 
d="M395 1047h284v-1047h-284v1047zM528 995q0 136 66 241t198 165t322 60v-274q-142 0 -239.5 -63t-146.5 -175.5t-49 -262.5zM346 948.5q-49 112.5 -146.5 175.5t-239.5 63v274q190 0 322 -60t198 -165t66 -241l-151 -309q0 150 -49 262.5zM610 1847h274v-274h-274v274z
M190 1847h274v-274h-274v274z" />
    <glyph glyph-name="phi1" unicode="&#x3d5;" horiz-adv-x="1366" 
d="M556 655q0 204 89 305.5t268 101.5t268.5 -104t89.5 -313v-122q0 -180 -65 -300t-195.5 -179.5t-327.5 -59.5t-327.5 60t-195.5 180.5t-65 301.5v9q0 187 71.5 310.5t215.5 185.5l138 -205q-85 -38 -128 -111t-43 -180v-12q0 -163 83.5 -244t250.5 -81t250.5 81t83.5 244
v162q0 70 -27 104.5t-82 34.5q-49 0 -73.5 -32t-24.5 -97v-996h-254v956z" />
    <glyph glyph-name="omega1" unicode="&#x3d6;" horiz-adv-x="1788" 
d="M929 89.5q-92 104.5 -92 294.5v170h194v-170q0 -64 36.5 -99.5t102.5 -35.5q68 0 106 35.5t38 99.5v152q0 113 -38 175.5t-106 62.5l120 64q142 0 220 -100t78 -282v-69q0 -191 -104 -296.5t-294 -105.5q-169 0 -261 104.5zM304 90.5q-104 105.5 -104 296.5v69
q0 121 36 206.5t105 130.5t167 45l110 -64q-68 0 -106 -62.5t-38 -175.5v-152q0 -64 38 -99.5t106 -35.5q66 0 102.5 35.5t36.5 99.5v170h194v-170q0 -190 -92 -294.5t-261 -104.5q-190 0 -294 105.5zM90 1038h1608v-264h-1608v264z" />
    <glyph glyph-name="uni03D7" unicode="&#x3d7;" horiz-adv-x="1362" 
d="M915 -82h94q47 0 73 28.5t26 80.5v233h264v-301q0 -145 -71.5 -225t-201.5 -80h-184v264zM908.5 76q-87.5 80 -87.5 225q0 60 8.5 125.5t36.5 140.5l-347 -566h-260q33 187 51.5 340t18.5 299q0 66 -27 102.5t-76 36.5h-86v264h130q157 0 244 -79.5t87 -225.5
q0 -80 -14 -170t-38 -187l-4 -16l-4 -16l400 689h265q-54 -184 -83.5 -359.5t-29.5 -309.5q0 -52 22.5 -80.5t63.5 -28.5h83v-264h-107q-159 0 -246.5 80z" />
    <glyph glyph-name="uni03D8" unicode="&#x3d8;" horiz-adv-x="1322" 
d="M382.5 328.5q-120.5 66.5 -186.5 188t-66 281.5v135q0 160 66 281.5t186.5 188t278.5 66.5t278.5 -66.5t186.5 -188t66 -281.5v-135q0 -160 -66 -281.5t-186.5 -188t-278.5 -66.5t-278.5 66.5zM796 559q58 33 90 93t32 139v149q0 79 -32 139t-90 93t-135 33t-135 -33
t-90 -93t-32 -139v-149q0 -79 32 -139t90 -93t135 -33t135 33zM524 526h274v-526h-274v526z" />
    <glyph glyph-name="uni03D9" unicode="&#x3d9;" horiz-adv-x="1116" 
d="M421 239h274v-543h-274v543zM315.5 38q-100.5 53 -153 154.5t-52.5 244.5v169q0 141 52.5 241.5t153 153t242.5 52.5t242.5 -52.5t153 -153t52.5 -241.5v-172q0 -142 -52.5 -242.5t-153 -153.5t-242.5 -53t-242.5 53zM686 297.5q46 48.5 46 136.5v172q0 87 -46 135
t-129 48q-82 0 -127.5 -48t-45.5 -135v-172q0 -88 45 -136.5t128 -48.5t129 48.5z" />
    <glyph glyph-name="uni03DA" unicode="&#x3da;" horiz-adv-x="1196" 
d="M866 -81q0 33 -16.5 49.5t-50.5 16.5h-101q-189 0 -315.5 74t-189.5 221t-63 366q0 244 65.5 409t197 252.5t328.5 96.5q93 4 139.5 40.5t46.5 102.5h269q0 -178 -89.5 -276.5t-268.5 -110.5q-138 -9 -230 -68.5t-138 -171t-46 -274.5q0 -136 34 -226.5t102.5 -135.5
t171.5 -45h210q109 0 163.5 -73.5t54.5 -222.5v-204h-274v180z" />
    <glyph glyph-name="uni03DB" unicode="&#x3db;" horiz-adv-x="1061" 
d="M726 -111q0 50 -23 73t-74 23h-1q-173 2 -288 59t-172.5 170t-57.5 282q0 157 60 265.5t180 170t301 76.5q47 4 71.5 36.5t24.5 86.5h269q0 -163 -85.5 -258.5t-252.5 -108.5q-150 -11 -224.5 -78t-74.5 -190q0 -124 65.5 -185.5t197.5 -61.5h60q105 0 170.5 -36
t96.5 -112t31 -198v-164h-274v150z" />
    <glyph glyph-name="uni03DC" unicode="&#x3dc;" horiz-adv-x="1145" 
d="M160 1454h274v-1454h-274v1454zM260 841h745v-264h-745v264zM260 1454h855v-264h-855v264z" />
    <glyph glyph-name="uni03DD" unicode="&#x3dd;" horiz-adv-x="1005" 
d="M160 1038h274v-1460h-274v1460zM260 419l605 2v-264l-605 -2v264zM260 1038h715v-264h-715v264z" />
    <glyph glyph-name="uni03DE" unicode="&#x3de;" horiz-adv-x="1310" 
d="M462 1454h290l-442 -860h-290zM1000 858h290l-420 -858h-290zM217 858h877v-264h-877v264z" />
    <glyph glyph-name="uni03DF" unicode="&#x3df;" horiz-adv-x="1210" 
d="M780 -422h-305l390 858h305zM355 172h-305l412 866h305zM217 436h797v-264h-797v264z" />
    <glyph glyph-name="uni03E0" unicode="&#x3e0;" horiz-adv-x="1144" 
d="M735 737q0 232 -83.5 347.5t-252.5 115.5q-142 0 -328 -50l-30 269q202 50 358 50q308 0 461.5 -182.5t153.5 -549.5q0 -408 -185 -737h-290q196 326 196 737zM180 559l695 227l84 -238l-694 -227zM40 924l704 234l84 -228l-703 -234z" />
    <glyph glyph-name="uni03E1" unicode="&#x3e1;" horiz-adv-x="1174" 
d="M711.5 -10q53.5 232 53.5 437q0 387 -101.5 580t-305.5 193q-141 0 -278 -50l-40 269q179 50 318 50q344 0 515 -260t171 -782q0 -204 -51 -436t-145 -413h-290q100 180 153.5 412zM189 374l691 242l84 -248l-690 -242zM69 814l691 242l84 -248l-690 -242z" />
    <glyph glyph-name="uni03E2" unicode="&#x3e2;" horiz-adv-x="2000" 
d="M1131.5 42.5q-89.5 57.5 -136.5 168t-47 265.5v978h189v-985q0 -105 60.5 -162.5t170.5 -57.5q95 0 146.5 57.5t51.5 162.5v985h274v-998l-173 -199q-19 -133 -100 -202.5t-219 -69.5q-127 0 -216.5 57.5zM371.5 40.5q-103.5 55.5 -157.5 161t-54 254.5v998h274v-985
q0 -105 54 -162.5t152 -57.5q106 0 164.5 57.5t58.5 162.5v985h189v-978q0 -155 -51 -265.5t-148 -168t-233 -57.5q-145 0 -248.5 55.5zM533 -85h894q58 0 88.5 18t40.5 51.5t10 89.5v496h274v-494q0 -212 -91 -318.5t-302 -106.5h-859zM536.5 -368q-22.5 -18 -22.5 -54
h-264q0 169 70.5 253t212.5 84l72 -264q-46 -1 -68.5 -19z" />
    <glyph glyph-name="uni03E3" unicode="&#x3e3;" horiz-adv-x="1630" 
d="M493 -65h594q58 0 88.5 18t40.5 51.5t10 89.5v416h274v-394q0 -221 -91 -333t-302 -112h-569zM250.5 -154q80.5 89 242.5 89l62 -264q-55 -1 -83 -24t-28 -69h-274q0 179 80.5 268zM245 87.5q-105 102.5 -105 288.5v662h274v-639q0 -68 33 -105.5t93 -37.5
q68 0 105.5 37.5t37.5 105.5v639h204v-632q0 -133 -41 -227.5t-118.5 -144t-187.5 -49.5q-190 0 -295 102.5zM903 34.5q-73 49.5 -111.5 144t-38.5 227.5v632h204v-639q0 -68 37 -105.5t104 -37.5q61 0 94.5 37.5t33.5 105.5v639h274v-662l-123 -59q-18 -107 -59 -181.5
t-102 -112.5t-138 -38q-102 0 -175 49.5z" />
    <glyph glyph-name="uni03E4" unicode="&#x3e4;" horiz-adv-x="1259" 
d="M283.5 513.5q-101.5 59.5 -155 172.5t-53.5 271v10q0 253 115.5 373.5t351.5 120.5h17v-264h-17q-98 0 -145.5 -58t-47.5 -180v0q0 -114 57.5 -177.5t162.5 -63.5q122 0 189 55t67 156v75l64 -20v-108q0 -133 -42.5 -228t-123.5 -144.5t-194 -49.5q-144 0 -245.5 59.5z
M825 1454h274v-1454h-274v1454z" />
    <glyph glyph-name="uni03E5" unicode="&#x3e5;" horiz-adv-x="1274" 
d="M870 1038h274v-1460h-274v1460zM629 789h-42q-103 0 -153 -65.5t-50 -203.5v0q0 -128 60.5 -199t169.5 -71q122 0 189 55t67 155v75l64 -20v-108q0 -133 -44.5 -228t-130 -144.5t-205.5 -49.5q-141 0 -240.5 63t-151.5 182.5t-52 287.5v10q0 269 118.5 397t358.5 128h42
v-264z" />
    <glyph glyph-name="uni03E6" unicode="&#x3e6;" horiz-adv-x="1284" 
d="M513 -65h258q54 0 82 16t37.5 45t9.5 78v305q0 60 -23 102.5t-67.5 65t-106.5 22.5h-310v264h377q128 0 218.5 -49.5t138 -144.5t47.5 -229v-334q0 -202 -86.5 -303.5t-286.5 -101.5h-273zM140 1454h274v-1454h-274v1454zM462 -353q-28 -23 -28 -69h-274q0 179 88 268
t265 89l32 -264q-55 -1 -83 -24z" />
    <glyph glyph-name="uni03E7" unicode="&#x3e7;" horiz-adv-x="1170" 
d="M1050 437q0 -130 -55.5 -229t-157 -153.5t-235.5 -54.5v264q58 0 102 21t68 59.5t24 89.5v12q0 102 -35.5 180t-99.5 120.5t-149 42.5q-65 0 -104.5 -16.5t-39.5 -44.5v-12q0 -26 39 -41.5t105 -15.5q97 0 170 47t113.5 133t40.5 199h264q0 -192 -76.5 -337.5
t-216 -225.5t-323.5 -80q-110 0 -194 38.5t-130 109t-46 163.5v22q0 97 49.5 170.5t139.5 114t209 40.5q160 0 282 -75.5t189 -213t67 -318.5v-9zM361.5 -23.5q-22.5 -23.5 -22.5 -69.5h-259q0 179 70.5 268t212.5 89h239v-264h-172q-46 0 -68.5 -23.5z" />
    <glyph glyph-name="uni03E8" unicode="&#x3e8;" horiz-adv-x="1241" 
d="M349 37q-130 52 -194.5 156.5t-64.5 262.5v2q0 137 57.5 240.5t173 172t289.5 100.5q9 2 17.5 3.5t16.5 3.5q46 12 76 30t45 43t15 57v1q0 49 -38.5 73.5t-115.5 24.5q-80 0 -158.5 -25.5t-157.5 -76.5v0l-111 222v0q100 71 206.5 106.5t220.5 35.5q143 0 238 -39.5
t142.5 -118.5t47.5 -198v-1q0 -108 -45 -189t-135 -134t-226 -79q-144 -28 -215 -91.5t-71 -166.5v-1q0 -68 34.5 -113.5t104 -68t173.5 -22.5q121 0 226 36t194 108v0l127 -226v0q-75 -60 -160 -100t-182 -60t-205 -20q-195 0 -325 52z" />
    <glyph glyph-name="uni03E9" unicode="&#x3e9;" horiz-adv-x="1022" 
d="M277 24q-101 39 -151.5 117.5t-50.5 196.5q0 99 41 168.5t123 110.5t206 54q7 0 14 0.5t14 1.5q46 3 76.5 13.5t46 27t15.5 39.5t-22 35t-66 12q-57 0 -117 -20t-124 -60v0l-133 209v0q89 62 182.5 93t191.5 31q118 0 196 -32t117 -96t39 -161q0 -93 -32 -158t-97 -102.5
t-163 -48.5q-2 0 -4 -0.5t-4 -0.5q-4 -1 -8.5 -1t-8.5 -1q-74 -8 -122.5 -23t-73 -37.5t-24.5 -53.5q0 -60 48 -90t144 -30q87 0 175 32t176 96v0l121 -199v0q-62 -54 -134.5 -90t-157 -54t-180.5 -18q-152 0 -253 39z" />
    <glyph glyph-name="uni03EA" unicode="&#x3ea;" horiz-adv-x="1360" 
d="M829 1295q43 69 74 103.5t63.5 48.5t79.5 14h154v-264h-99q-19 0 -29.5 -7.5t-25.5 -31.5l-732 -1158h-294zM183 264h1007v-264h-1007v264zM359 1158q-14 23 -24.5 31t-30.5 8h-124v264h184q48 0 81 -13.5t64 -49t72 -105.5l759 -1293h-294z" />
    <glyph glyph-name="uni03EB" unicode="&#x3eb;" horiz-adv-x="1125" 
d="M364 750q-11 19 -25.5 29t-29.5 10h-119v264h174q33 0 60 -9.5t49 -28.5t38 -48l549 -967h-274zM334 254h452v-254h-452v254zM609 967q16 29 38 48t49 28.5t60 9.5h174v-264h-118q-15 0 -29.5 -10t-25.5 -29l-423 -750h-274z" />
    <glyph glyph-name="uni03EC" unicode="&#x3ec;" horiz-adv-x="1396" 
d="M390.5 45q-127.5 60 -194 175t-66.5 277v129l244 211q20 97 72 163t135 99.5t197 33.5q154 0 263.5 -59.5t167 -173.5t57.5 -274v-132q0 -161 -66.5 -275t-194 -174t-307.5 -60t-307.5 60zM856.5 277.5q66.5 28.5 101 83.5t34.5 133v132q0 116 -77.5 179.5t-217.5 63.5
q-139 0 -216 -63.5t-77 -179.5v-132q0 -117 76.5 -181t216.5 -64q93 0 159.5 28.5zM130 971q0 483 476 483h225q63 0 94.5 24t31.5 69h259q0 -337 -339 -337h-254q-229 0 -229 -219v-377h-264v357z" />
    <glyph glyph-name="uni03ED" unicode="&#x3ed;" horiz-adv-x="1146" 
d="M345.5 38q-100.5 53 -153 154.5t-52.5 244.5v189l214 151q25 117 95 176.5t189 59.5q125 0 214.5 -52.5t136.5 -153t47 -241.5v-132q0 -142 -52.5 -242.5t-153 -153.5t-242.5 -53t-242.5 53zM716 297.5q46 48.5 46 136.5v132q0 87 -46 135t-129 48q-82 0 -127.5 -48
t-45.5 -135v-132q0 -88 45 -136.5t128 -48.5t129 48.5zM140 933q0 156 47.5 252.5t147.5 142.5t261 48q39 1 63.5 9t36 25t11.5 44h279q0 -110 -38.5 -178.5t-120.5 -101t-214 -32.5q-74 0 -120 -23.5t-67.5 -74t-21.5 -131.5v-359h-264v379z" />
    <glyph glyph-name="uni03EE" unicode="&#x3ee;" horiz-adv-x="1017" 
d="M977 1247v-264h-709q-38 0 -58.5 -15.5t-20.5 -43.5v-84h-269v174q0 111 63.5 172t181.5 61h812zM614 0h-284v1454h284v-1454z" />
    <glyph glyph-name="uni03EF" unicode="&#x3ef;" horiz-adv-x="946" 
d="M144 -158h123q34 0 51.5 20.5t17.5 58.5v1419h274v-1487q0 -137 -69.5 -206t-218.5 -69h-178v264zM50 1038h846v-254h-846v254z" />
    <glyph glyph-name="uni03F0" unicode="&#x3f0;" horiz-adv-x="1252" 
d="M838.5 76q-87.5 80 -87.5 225q0 60 8.5 125.5t36.5 140.5l-347 -566h-260q33 187 51.5 340t18.5 299q0 66 -27 102.5t-76 36.5h-86v264h130q157 0 244 -79.5t87 -225.5q0 -80 -14 -170t-38 -187l-4 -16l-4 -16l400 689h265q-54 -184 -83.5 -359.5t-29.5 -309.5
q0 -52 22.5 -80.5t63.5 -28.5h83v-264h-107q-159 0 -246.5 80z" />
    <glyph glyph-name="uni03F1" unicode="&#x3f1;" horiz-adv-x="1114" 
d="M490 31.5q-69 46.5 -100 131.5l24 267q0 -91 41.5 -141t116.5 -50t116.5 51t41.5 144v165q0 95 -41.5 147.5t-116.5 52.5t-116.5 -52.5t-41.5 -147.5v-471h-274v471q0 144 50.5 246t147.5 155t234 53t234 -53t147.5 -155t50.5 -246v-165q0 -142 -41.5 -242.5
t-120.5 -153.5t-190 -53q-93 0 -162 46.5zM231 -232.5q-91 96.5 -91 288.5v454h274v-456q0 -42 14 -67t55 -38.5t120 -13.5h74l-70 -264h-74q-211 0 -302 96.5zM590 -329l87 264q149 0 223.5 -89t74.5 -268h-274q0 91 -111 93z" />
    <glyph glyph-name="uni03F2" unicode="&#x3f2;" horiz-adv-x="1020" 
d="M325.5 41.5q-105.5 56.5 -160.5 164.5t-55 260v111q0 151 55 257.5t160.5 162.5t253.5 56q85 0 160.5 -19.5t135.5 -56.5t100 -90v0l-177 -172v0q-38 35 -89 54.5t-107 19.5q-104 0 -161 -55.5t-57 -156.5v-111q0 -104 57 -160.5t161 -56.5q57 0 108 21t88 60v0l177 -182
v0q-41 -52 -101 -88.5t-135 -55.5t-160 -19q-148 0 -253.5 56.5z" />
    <glyph glyph-name="uni03F3" unicode="&#x3f3;" horiz-adv-x="549" 
d="M0 -158h64q38 0 58.5 20.5t20.5 58.5v1117h274v-1185q0 -131 -69 -203t-194 -72h-154v264zM141 1454h278v-274h-278v274z" />
    <glyph glyph-name="uni03F4" unicode="&#x3f4;" horiz-adv-x="1322" 
d="M299 854h725v-264h-725v264zM382.5 51.5q-120.5 66.5 -186.5 188t-66 281.5v412q0 160 66 281.5t186.5 188t278.5 66.5t278.5 -66.5t186.5 -188t66 -281.5v-412q0 -160 -66 -281.5t-186.5 -188t-278.5 -66.5t-278.5 66.5zM791 290.5q56 31.5 86.5 89.5t30.5 134v426
q0 76 -30.5 134t-86.5 89.5t-130 31.5t-130 -31.5t-86.5 -89.5t-30.5 -134v-426q0 -76 30.5 -134t86.5 -89.5t130 -31.5t130 31.5z" />
    <glyph glyph-name="uni03F5" unicode="&#x3f5;" horiz-adv-x="1020" 
d="M279 636h455v-234h-455v234zM325.5 41.5q-105.5 56.5 -160.5 164.5t-55 260v111q0 151 55 257.5t160.5 162.5t253.5 56q85 0 160.5 -19.5t135.5 -56.5t100 -90v0l-177 -172v0q-38 35 -89 54.5t-107 19.5q-104 0 -161 -55.5t-57 -156.5v-111q0 -104 57 -160.5t161 -56.5
q57 0 108 21t88 60v0l177 -182v0q-41 -52 -101 -88.5t-135 -55.5t-160 -19q-148 0 -253.5 56.5z" />
    <glyph glyph-name="uni03F6" unicode="&#x3f6;" horiz-adv-x="1020" 
d="M286 402v234h455v-234h-455zM281 4q-75 19 -135 55.5t-101 88.5v0l177 172v0q37 -39 88 -60t108 -21q104 0 161 59t57 168v111q0 101 -57 156.5t-161 55.5q-56 0 -107 -19.5t-89 -54.5v0l-177 172v0q40 53 100 90t135.5 56.5t160.5 19.5q148 0 253.5 -56t160.5 -162.5
t55 -257.5v-111q0 -152 -55 -260t-160.5 -164.5t-253.5 -56.5q-85 0 -160 19z" />
    <glyph glyph-name="uni03F7" unicode="&#x3f7;" horiz-adv-x="1275" 
d="M285 568h465q49 0 86.5 22.5t58.5 63.5t21 94v0q0 54 -20.5 95.5t-58 64t-87.5 22.5h-465v264h458q136 0 239.5 -55.5t160.5 -156.5t57 -234v0q0 -133 -57 -233.5t-160.5 -155.5t-239.5 -55h-458v264zM160 1454h274v-1454h-274v1454z" />
    <glyph glyph-name="uni03F8" unicode="&#x3f8;" horiz-adv-x="1114" 
d="M140 1454h274v-1876h-274v1876zM498 31.5q-66 46.5 -98 131.5l14 237q0 -51 18 -87t52.5 -55t83.5 -19q77 0 119.5 51t42.5 144v165q0 95 -42.5 147.5t-119.5 52.5q-49 0 -83.5 -19.5t-52.5 -56.5t-18 -90l-21 230q42 91 110.5 140.5t151.5 49.5q110 0 188.5 -53
t119.5 -155t41 -245v-166q0 -142 -41 -242.5t-119.5 -153.5t-188.5 -53q-91 0 -157 46.5z" />
    <glyph glyph-name="uni03F9" unicode="&#x3f9;" horiz-adv-x="1267" 
d="M372 48.5q-118 63.5 -180 185t-62 293.5v399q0 172 62 293.5t180 185.5t284 64q137 0 245 -59t178.5 -171.5t97.5 -271.5v0h-284v0q-16 72 -49.5 123t-81 78t-106.5 27q-77 0 -131 -31.5t-82.5 -92t-28.5 -145.5v-399q0 -85 28.5 -145t82.5 -91.5t131 -31.5
q60 0 108 26.5t81 77.5t48 124v0h284v0q-28 -159 -98.5 -271.5t-178 -171.5t-244.5 -59q-166 0 -284 63.5z" />
    <glyph glyph-name="uni03FA" unicode="&#x3fa;" horiz-adv-x="1596" 
d="M1075 1454h361v-1454h-249v1129l10 -64l-278 -903h-242l-278 883l10 84v-1129h-249v1454h361l277 -980z" />
    <glyph glyph-name="uni03FB" unicode="&#x3fb;" horiz-adv-x="1296" 
d="M389 128v-432h-249v432h249zM910 1038h246v-1038h-249v683l10 -64l-188 -417h-162l-188 417l10 64v-683h-249v1038h246l262 -564z" />
    <glyph glyph-name="uni03FC" unicode="&#x3fc;" horiz-adv-x="1114" 
d="M720 -67v-264h-690v264h690zM140 599q0 144 50.5 246t147.5 155t234 53t234 -53t147.5 -155t50.5 -246v-165q0 -142 -41.5 -242.5t-120.5 -153.5t-190 -53q-93 0 -162 46.5t-100 131.5l24 267q0 -91 41.5 -141t116.5 -50t116.5 51t41.5 144v165q0 95 -41.5 147.5
t-116.5 52.5t-116.5 -52.5t-41.5 -147.5v-1021h-274v1021z" />
    <glyph glyph-name="uni03FD" unicode="&#x3fd;" horiz-adv-x="1267" 
d="M366.5 44q-107.5 59 -178 171.5t-98.5 271.5v0h284v0q15 -73 48 -124t81 -77.5t108 -26.5q77 0 131 31.5t82.5 91.5t28.5 145v399q0 85 -28.5 145.5t-82.5 92t-131 31.5q-59 0 -106.5 -27t-81 -78t-49.5 -123v0h-284v0q27 159 97.5 271.5t178.5 171.5t245 59
q166 0 284 -64t180 -185.5t62 -293.5v-399q0 -172 -62 -293.5t-180 -185t-284 -63.5q-137 0 -244.5 59z" />
    <glyph glyph-name="uni03FE" unicode="&#x3fe;" horiz-adv-x="1267" 
d="M372 48.5q-118 63.5 -180 185t-62 293.5v399q0 172 62 293.5t180 185.5t284 64q137 0 245 -59t178.5 -171.5t97.5 -271.5v0h-284v0q-16 72 -49.5 123t-81 78t-106.5 27q-77 0 -131 -31.5t-82.5 -92t-28.5 -145.5v-399q0 -85 28.5 -145t82.5 -91.5t131 -31.5
q60 0 108 26.5t81 77.5t48 124v0h284v0q-28 -159 -98.5 -271.5t-178 -171.5t-244.5 -59q-166 0 -284 63.5zM547 869h284v-284h-284v284z" />
    <glyph glyph-name="uni03FF" unicode="&#x3ff;" horiz-adv-x="1267" 
d="M366.5 44q-107.5 59 -178 171.5t-98.5 271.5v0h284v0q15 -73 48 -124t81 -77.5t108 -26.5q77 0 131 31.5t82.5 91.5t28.5 145v399q0 85 -28.5 145.5t-82.5 92t-131 31.5q-59 0 -106.5 -27t-81 -78t-49.5 -123v0h-284v0q27 159 97.5 271.5t178.5 171.5t245 59
q166 0 284 -64t180 -185.5t62 -293.5v-399q0 -172 -62 -293.5t-180 -185t-284 -63.5q-137 0 -244.5 59zM436 869h284v-284h-284v284z" />
    <glyph glyph-name="uni0400" unicode="&#x400;" horiz-adv-x="1224" 
d="M160 1454h274v-1454h-274v1454zM259 264h875v-264h-875v264zM259 854h765v-264h-765v264zM259 1454h875v-264h-875v264zM316 1770l182 187l286 -245l-173 -168z" />
    <glyph glyph-name="uni0401" unicode="&#x401;" horiz-adv-x="1224" 
d="M160 1454h274v-1454h-274v1454zM259 264h875v-264h-875v264zM259 854h765v-264h-765v264zM259 1454h875v-264h-875v264zM738 1847h274v-274h-274v274zM318 1847h274v-274h-274v274z" />
    <glyph glyph-name="uni0402" unicode="&#x402;" horiz-adv-x="1486" 
d="M1212 836q100 -53 152 -154t52 -243v0q0 -139 -54 -237.5t-158 -150t-251 -51.5h-44v264h24q91 0 140 45t49 128v0q0 89 -57.5 138t-162.5 49q-130 0 -201 -60t-71 -170v-115l-64 60v108q0 140 47.5 239t139 151t219.5 52q140 0 240 -53zM356 1335h274v-1335h-274v1335z
M-40 1454h1066v-264h-1066v264z" />
    <glyph glyph-name="uni0403" unicode="&#x403;" horiz-adv-x="975" 
d="M160 1454h274v-1454h-274v1454zM259 1454h756v-264h-756v264zM444 1712l276 245l182 -187l-295 -226z" />
    <glyph glyph-name="uni0404" unicode="&#x404;" horiz-adv-x="1267" 
d="M279 849h565v-254h-565v254zM372 48.5q-118 63.5 -180 185t-62 293.5v399q0 172 62 293.5t180 185.5t284 64q137 0 245 -59t178.5 -171.5t97.5 -271.5v0h-284v0q-16 72 -49.5 123t-81 78t-106.5 27q-77 0 -131 -31.5t-82.5 -92t-28.5 -145.5v-399q0 -85 28.5 -145
t82.5 -91.5t131 -31.5q60 0 108 26.5t81 77.5t48 124v0h284v0q-28 -159 -98.5 -271.5t-178 -171.5t-244.5 -59q-166 0 -284 63.5z" />
    <glyph glyph-name="uni0405" unicode="&#x405;" horiz-adv-x="1261" 
d="M413.5 6q-99.5 21 -187 61.5t-156.5 97.5v0l127 226v0q84 -69 194 -106.5t226 -37.5q134 0 208 45.5t74 128.5v1q0 58 -33 92t-86 50t-136 29q-3 1 -5.5 1t-5.5 1l-22 3q-146 23 -242 57.5t-163 121t-67 245.5v1q0 141 63 241t183 152.5t290 52.5q78 0 159.5 -18
t159.5 -52t148 -82v0l-116 -232v0q-84 58 -175.5 90t-175.5 32q-126 0 -195 -41.5t-69 -116.5v-1q0 -63 36 -99.5t89 -53.5t149 -36q4 -1 8 -1.5t8 -1.5q6 -1 11.5 -2.5t11.5 -2.5q138 -27 230.5 -65.5t154.5 -124t62 -233.5v-2q0 -139 -65 -238t-189.5 -151t-299.5 -52
q-104 0 -203.5 21z" />
    <glyph glyph-name="uni0406" unicode="&#x406;" horiz-adv-x="564" 
d="M424 0h-284v1454h284v-1454z" />
    <glyph glyph-name="uni0407" unicode="&#x407;" horiz-adv-x="564" 
d="M424 0h-284v1454h284v-1454zM355 1847h274v-274h-274v274zM-65 1847h274v-274h-274v274z" />
    <glyph glyph-name="uni0408" unicode="&#x408;" horiz-adv-x="1035" 
d="M172.5 37q-104.5 52 -162.5 147l224 163q36 -46 86.5 -71t105.5 -25q79 0 122 55.5t43 156.5v991h284v-992q0 -151 -54.5 -258t-158.5 -163t-251 -56q-134 0 -238.5 52z" />
    <glyph glyph-name="uni0409" unicode="&#x409;" horiz-adv-x="2085" 
d="M1110 264h420q49 0 86.5 23t58.5 65t21 97v0q0 56 -20.5 98.5t-58 65.5t-87.5 23h-420v264h413q136 0 239.5 -56t160.5 -158t57 -237v0q0 -134 -57 -236t-160.5 -157.5t-239.5 -55.5h-413v264zM100 264v0q72 0 123.5 37.5t78.5 109t27 172.5v871h274v-899
q0 -176 -56.5 -300.5t-165 -189.5t-261.5 -65h-20v264zM1035 1454h274v-1454h-274v1454zM476 1454h667v-264h-667v264z" />
    <glyph glyph-name="uni040A" unicode="&#x40a;" horiz-adv-x="2085" 
d="M1110 264h420q49 0 86.5 23t58.5 65t21 97v0q0 56 -20.5 98.5t-58 65.5t-87.5 23h-420v264h413q136 0 239.5 -56t160.5 -158t57 -237v0q0 -134 -57 -236t-160.5 -157.5t-239.5 -55.5h-413v264zM956 1454h274v-1454h-274v1454zM160 1454h274v-1454h-274v1454zM287 853h847
v-264h-847v264z" />
    <glyph glyph-name="uni040B" unicode="&#x40b;" horiz-adv-x="1562" 
d="M1123 539q0 122 -60 182.5t-181 60.5q-127 0 -190 -65.5t-63 -197.5l-104 -7q0 271 110.5 406t331.5 135q226 0 338 -130t112 -391v-532h-294v539zM356 1335h274v-1335h-274v1335zM-40 1454h1066v-264h-1066v264z" />
    <glyph glyph-name="uni040C" unicode="&#x40c;" horiz-adv-x="1314" 
d="M565 798l372 656h316l-485 -835zM564 640l249 105l501 -745h-343zM160 1454h274v-1454h-274v1454zM279 854h515v-264h-515v264zM533 1712l276 245l182 -187l-295 -226z" />
    <glyph glyph-name="uni040D" unicode="&#x40d;" horiz-adv-x="1434" 
d="M1012 1v1163l24 -26l-549 -1137h-327v1453h262v-1180l-24 26l551 1154h325v-1453h-262zM353 1770l182 187l286 -245l-173 -168z" />
    <glyph glyph-name="uni040E" unicode="&#x40e;" horiz-adv-x="1250" 
d="M40 1454h292l427 -1041l-172 -243zM815 301q-39 -106 -88.5 -175.5t-117 -105t-158.5 -35.5h-169v261h109q46 0 82.5 19t64.5 57.5t49 97.5l371 1034h282zM962 1893q0 -160 -87 -247.5t-246 -87.5h-8q-159 0 -246 87.5t-87 247.5l225 -2q0 -65 28.5 -101.5t79.5 -36.5h8
q51 0 79.5 36.5t28.5 101.5z" />
    <glyph glyph-name="uni040F" unicode="&#x40f;" horiz-adv-x="1390" 
d="M1226 1454v-1454h-274v1454h274zM438 1454v-1454h-274v1454h274zM1100 264v-264h-798v264h798zM832 264v-595h-274v595h274z" />
    <glyph glyph-name="uni0410" unicode="&#x410;" horiz-adv-x="1326" 
d="M576 1454h174l556 -1454h-295l-348 993l-348 -993h-295zM287 497h765v-264h-765v264z" />
    <glyph glyph-name="uni0411" unicode="&#x411;" horiz-adv-x="1305" 
d="M285 264h465q49 0 86.5 23t58.5 65t21 97v0q0 56 -20.5 98.5t-58 65.5t-87.5 23h-465v264h458q136 0 239.5 -56t160.5 -158t57 -237v0q0 -134 -57 -236t-160.5 -157.5t-239.5 -55.5h-458v264zM160 1454h274v-1454h-274v1454zM259 1454h835v-264h-835v264z" />
    <glyph glyph-name="uni0412" unicode="&#x412;" horiz-adv-x="1322" 
d="M280 264h464q94 0 145.5 45.5t51.5 127.5v3q0 55 -23 94t-67.5 59.5t-106.5 20.5h-464v264h464q85 0 131.5 43t46.5 121v0q0 70 -46.5 109t-131.5 39h-464v264h473q141 0 241 -46.5t152 -135t52 -212.5v0q0 -85 -33.5 -150.5t-97.5 -107.5t-154 -57q96 -13 164.5 -58.5
t104 -118.5t35.5 -169v-3q0 -125 -52.5 -214t-153 -135.5t-241.5 -46.5h-490v264zM160 1454h274v-1454h-274v1454z" />
    <glyph glyph-name="uni0413" unicode="&#x413;" horiz-adv-x="975" 
d="M160 1454h274v-1454h-274v1454zM259 1454h756v-264h-756v264z" />
    <glyph glyph-name="uni0414" unicode="&#x414;" horiz-adv-x="1421" 
d="M71 264h24q90 0 139.5 83.5t49.5 235.5v871h274v-829q0 -181 -48.5 -307t-147 -192t-247.5 -66h-44v204zM63 264h264v-565h-264v565zM63 264h1220v-264h-1220v264zM1103 264h265v-565h-265v565zM935 1454h274v-1454h-274v1454zM441 1454h612v-264h-612v264z" />
    <glyph glyph-name="uni0415" unicode="&#x415;" horiz-adv-x="1224" 
d="M160 1454h274v-1454h-274v1454zM259 264h875v-264h-875v264zM259 854h765v-264h-765v264zM259 1454h875v-264h-875v264z" />
    <glyph glyph-name="uni0416" unicode="&#x416;" horiz-adv-x="1962" 
d="M1233 798l352 656h316l-465 -835zM1232 640l249 105l481 -745h-343zM481 745l249 -105l-387 -640h-343zM61 1454h316l352 -656l-203 -179zM500 854h962v-264h-962v264zM844 1454h274v-1454h-274v1454z" />
    <glyph glyph-name="uni0417" unicode="&#x417;" horiz-adv-x="1208" 
d="M351 34q-110 49 -176.5 142.5t-84.5 225.5v0h278v0q14 -72 74 -111.5t154 -39.5q101 0 157 52.5t56 148.5v1q0 82 -42.5 126.5t-120.5 44.5h-233v264h233q66 0 102.5 37t36.5 104v9q0 79 -47 122t-133 43q-80 0 -136 -42t-78 -119v0h-277v0q25 135 91 231t168 146t232 50
q150 0 256.5 -44.5t162 -129.5t55.5 -204v-8q0 -115 -54 -199.5t-152 -124.5q110 -26 170 -118t60 -234v-1q0 -133 -58.5 -227.5t-170 -144t-268.5 -49.5q-145 0 -255 49z" />
    <glyph glyph-name="uni0418" unicode="&#x418;" horiz-adv-x="1434" 
d="M1012 1v1163l24 -26l-549 -1137h-327v1453h262v-1180l-24 26l551 1154h325v-1453h-262z" />
    <glyph glyph-name="uni0419" unicode="&#x419;" horiz-adv-x="1434" 
d="M1012 1v1163l24 -26l-549 -1137h-327v1453h262v-1180l-24 26l551 1154h325v-1453h-262zM1039 1893q0 -160 -87 -247.5t-246 -87.5h-8q-159 0 -246 87.5t-87 247.5l225 -2q0 -65 28.5 -101.5t79.5 -36.5h8q51 0 79.5 36.5t28.5 101.5z" />
    <glyph glyph-name="uni041A" unicode="&#x41a;" horiz-adv-x="1314" 
d="M565 798l372 656h316l-485 -835zM564 640l249 105l501 -745h-343zM160 1454h274v-1454h-274v1454zM279 854h515v-264h-515v264z" />
    <glyph glyph-name="uni041B" unicode="&#x41b;" horiz-adv-x="1469" 
d="M100 264v0q72 0 123.5 37.5t78.5 109t27 172.5v871h274v-899q0 -176 -56.5 -300.5t-165 -189.5t-261.5 -65h-20v264zM1035 1454h274v-1454h-274v1454zM476 1454h667v-264h-667v264z" />
    <glyph glyph-name="uni041C" unicode="&#x41c;" horiz-adv-x="1596" 
d="M1075 1454h361v-1454h-249v1129l10 -64l-278 -903h-242l-278 883l10 84v-1129h-249v1454h361l277 -980z" />
    <glyph glyph-name="uni041D" unicode="&#x41d;" horiz-adv-x="1390" 
d="M956 1454h274v-1454h-274v1454zM160 1454h274v-1454h-274v1454zM287 853h847v-264h-847v264z" />
    <glyph glyph-name="uni041E" unicode="&#x41e;" horiz-adv-x="1322" 
d="M382.5 51.5q-120.5 66.5 -186.5 188t-66 281.5v412q0 160 66 281.5t186.5 188t278.5 66.5t278.5 -66.5t186.5 -188t66 -281.5v-412q0 -160 -66 -281.5t-186.5 -188t-278.5 -66.5t-278.5 66.5zM791 290.5q56 31.5 86.5 89.5t30.5 134v426q0 76 -30.5 134t-86.5 89.5
t-130 31.5t-130 -31.5t-86.5 -89.5t-30.5 -134v-426q0 -76 30.5 -134t86.5 -89.5t130 -31.5t130 31.5z" />
    <glyph glyph-name="uni041F" unicode="&#x41f;" horiz-adv-x="1390" 
d="M956 1454h274v-1454h-274v1454zM160 1454h274v-1454h-274v1454zM287 1454h847v-264h-847v264z" />
    <glyph glyph-name="uni0420" unicode="&#x420;" horiz-adv-x="1275" 
d="M285 828h465q49 0 86.5 22.5t58.5 63.5t21 94v0q0 54 -20.5 95.5t-58 64t-87.5 22.5h-465v264h458q136 0 239.5 -55.5t160.5 -156.5t57 -234v0q0 -133 -57 -233.5t-160.5 -155.5t-239.5 -55h-458v264zM160 1454h274v-1454h-274v1454z" />
    <glyph glyph-name="uni0421" unicode="&#x421;" horiz-adv-x="1267" 
d="M372 48.5q-118 63.5 -180 185t-62 293.5v399q0 172 62 293.5t180 185.5t284 64q137 0 245 -59t178.5 -171.5t97.5 -271.5v0h-284v0q-16 72 -49.5 123t-81 78t-106.5 27q-77 0 -131 -31.5t-82.5 -92t-28.5 -145.5v-399q0 -85 28.5 -145t82.5 -91.5t131 -31.5
q60 0 108 26.5t81 77.5t48 124v0h284v0q-28 -159 -98.5 -271.5t-178 -171.5t-244.5 -59q-166 0 -284 63.5z" />
    <glyph glyph-name="uni0422" unicode="&#x422;" horiz-adv-x="986" 
d="M356 1335h274v-1335h-274v1335zM-40 1454h1066v-264h-1066v264z" />
    <glyph glyph-name="uni0423" unicode="&#x423;" horiz-adv-x="1250" 
d="M40 1454h292l427 -1041l-172 -243zM815 301q-39 -106 -88.5 -175.5t-117 -105t-158.5 -35.5h-169v261h109q46 0 82.5 19t64.5 57.5t49 97.5l371 1034h282z" />
    <glyph glyph-name="uni0424" unicode="&#x424;" horiz-adv-x="1622" 
d="M410 221.5q-166 66.5 -253 196t-87 314.5v40q0 185 87 314.5t253 196t401 66.5t401 -66.5t253 -196t87 -314.5v-40q0 -185 -87 -314.5t-253 -196t-401 -66.5t-401 66.5zM669 1504h284v-1504h-284v1504zM1171.5 482q126.5 86 126.5 250v40q0 164 -126.5 250t-360.5 86
t-360.5 -86t-126.5 -250v-40q0 -164 126.5 -250t360.5 -86t360.5 86z" />
    <glyph glyph-name="uni0425" unicode="&#x425;" horiz-adv-x="1162" 
d="M521 595l-28 47l-481 812h289l326 -551l38 -65l497 -838h-289zM524 895l327 559h289l-481 -822l-370 -632h-289z" />
    <glyph glyph-name="uni0426" unicode="&#x426;" horiz-adv-x="1476" 
d="M947 1449h274v-1449h-274v1449zM287 264h1065v-264h-1065v264zM1142 264h274v-595h-274v595zM160 1454h274v-1454h-274v1454z" />
    <glyph glyph-name="uni0427" unicode="&#x427;" horiz-adv-x="1282" 
d="M848 1454h274v-1454h-274v1454zM317.5 465q-96.5 60 -147 174.5t-50.5 276.5v538h274v-545q0 -111 51.5 -172t144.5 -61q123 0 190.5 66t67.5 187v115h64v-238q0 -127 -42.5 -217t-124 -137t-195.5 -47q-136 0 -232.5 60z" />
    <glyph glyph-name="uni0428" unicode="&#x428;" horiz-adv-x="1896" 
d="M1462 1454h274v-1454h-274v1454zM278 264h1353v-264h-1353v264zM160 1454h274v-1454h-274v1454zM811 1454h274v-1454h-274v1454z" />
    <glyph glyph-name="uni0429" unicode="&#x429;" horiz-adv-x="1980" 
d="M298 264h1323v-264h-1323v264zM1446 1454h274v-1454h-274v1454zM165 1454h274v-1454h-274v1454zM806 1454h274v-1454h-274v1454zM1641 264h274v-595h-274v595z" />
    <glyph glyph-name="uni042A" unicode="&#x42a;" horiz-adv-x="1443" 
d="M-10 1454h515v-264h-515v264zM448 264h440q49 0 86.5 23t58.5 65t21 97v0q0 56 -20.5 98.5t-58 65.5t-87.5 23h-440v264h433q136 0 239.5 -56t160.5 -158t57 -237v0q0 -134 -57 -236t-160.5 -157.5t-239.5 -55.5h-433v264zM323 1454h274v-1454h-274v1454z" />
    <glyph glyph-name="uni042B" unicode="&#x42b;" horiz-adv-x="1711" 
d="M285 264h400q49 0 86.5 23t58.5 65t21 97v0q0 56 -20.5 98.5t-58 65.5t-87.5 23h-400v264h393q136 0 239.5 -56t160.5 -158t57 -237v0q0 -134 -57 -236t-160.5 -157.5t-239.5 -55.5h-393v264zM160 1454h274v-1454h-274v1454zM1571 0h-284v1454h284v-1454z" />
    <glyph glyph-name="uni042C" unicode="&#x42c;" horiz-adv-x="1300" 
d="M285 264h460q49 0 86.5 23t58.5 65t21 97v0q0 56 -20.5 98.5t-58 65.5t-87.5 23h-460v264h453q136 0 239.5 -56t160.5 -158t57 -237v0q0 -134 -57 -236t-160.5 -157.5t-239.5 -55.5h-453v264zM160 1454h274v-1454h-274v1454z" />
    <glyph glyph-name="uni042D" unicode="&#x42d;" horiz-adv-x="1267" 
d="M366.5 44q-107.5 59 -178 171.5t-98.5 271.5v0h284v0q15 -73 48 -124t81 -77.5t108 -26.5q77 0 131 31.5t82.5 91.5t28.5 145v399q0 85 -28.5 145.5t-82.5 92t-131 31.5q-59 0 -106.5 -27t-81 -78t-49.5 -123v0h-284v0q27 159 97.5 271.5t178.5 171.5t245 59
q166 0 284 -64t180 -185.5t62 -293.5v-399q0 -172 -62 -293.5t-180 -185t-284 -63.5q-137 0 -244.5 59zM423 849h565v-254h-565v254z" />
    <glyph glyph-name="uni042E" unicode="&#x42e;" horiz-adv-x="1866" 
d="M259 854h565v-264h-565v264zM424 1h-284v1454h284v-1454zM926.5 51.5q-120.5 66.5 -186.5 188t-66 281.5v412q0 160 66 281.5t186.5 188t278.5 66.5t278.5 -66.5t186.5 -188t66 -281.5v-412q0 -160 -66 -281.5t-186.5 -188t-278.5 -66.5t-278.5 66.5zM1335 290.5
q56 31.5 86.5 89.5t30.5 134v426q0 76 -30.5 134t-86.5 89.5t-130 31.5t-130 -31.5t-86.5 -89.5t-30.5 -134v-426q0 -76 30.5 -134t86.5 -89.5t130 -31.5t130 31.5z" />
    <glyph glyph-name="uni042F" unicode="&#x42f;" horiz-adv-x="1275" 
d="M287.5 611q-95.5 56 -148.5 158t-53 236v0q0 134 52.5 236t148 158t221.5 56h478v-264h-446q-50 0 -88 -23t-58.5 -65.5t-20.5 -97.5v0q0 -55 21 -97.5t58.5 -65.5t87.5 -23h446v-264h-478q-125 0 -220.5 56zM467 616l273 -46l-353 -570h-312zM841 1455h274v-1455h-274
v1455z" />
    <glyph glyph-name="uni0430" unicode="&#x430;" horiz-adv-x="1090" 
d="M711 658q0 72 -48 111t-136 39q-58 0 -115 -19t-101 -53l-170 167q62 71 164 110.5t226 39.5q136 0 232 -45.5t146.5 -132t50.5 -208.5v-667h-249v658zM172.5 64.5q-82.5 79.5 -82.5 241.5q0 154 92.5 231t277.5 77h260l14 -209h-273q-62 0 -93 -24.5t-31 -74.5
q0 -51 39 -75.5t118 -24.5q110 0 163.5 25t53.5 78l21 -151q-6 -56 -51.5 -95t-114 -58.5t-144.5 -19.5q-167 0 -249.5 79.5z" />
    <glyph glyph-name="uni0431" unicode="&#x431;" horiz-adv-x="1146" 
d="M345.5 38q-100.5 53 -153 154.5t-52.5 244.5v189l214 151q25 117 95 176.5t189 59.5q125 0 214.5 -52.5t136.5 -153t47 -241.5v-132q0 -142 -52.5 -242.5t-153 -153.5t-242.5 -53t-242.5 53zM716 297.5q46 48.5 46 136.5v132q0 87 -46 135t-129 48q-82 0 -127.5 -48
t-45.5 -135v-132q0 -88 45 -136.5t128 -48.5t129 48.5zM140 933q0 156 47.5 252.5t147.5 142.5t261 48q39 1 63.5 9t36 25t11.5 44h279q0 -110 -38.5 -178.5t-120.5 -101t-214 -32.5q-74 0 -120 -23.5t-67.5 -74t-21.5 -131.5v-359h-264v379z" />
    <glyph glyph-name="uni0432" unicode="&#x432;" horiz-adv-x="1107" 
d="M280 214h334q61 0 94 29t33 81v3q0 51 -33 79t-94 28h-334v214h334q52 0 80 23.5t28 66.5v0q0 41 -28 63.5t-78 22.5h-336v214h393q155 0 240 -67.5t85 -190.5v0q0 -95 -51 -156.5t-144 -78.5q102 -22 158 -94.5t56 -181.5v-3q0 -127 -90.5 -196.5t-256.5 -69.5h-390v214
zM140 1038h273v-1038h-273v1038z" />
    <glyph glyph-name="uni0433" unicode="&#x433;" horiz-adv-x="875" 
d="M140 1038h274v-1038h-274v1038zM240 1038h605v-264h-605v264z" />
    <glyph glyph-name="uni0434" unicode="&#x434;" horiz-adv-x="1290" 
d="M136 254h24q52 0 77.5 31.5t33.5 89.5t8 158v505h274v-573q0 -165 -83.5 -250t-239.5 -85h-24zM98 254h244v-515h-244v515zM98 254h1019v-254h-1019v254zM958 254h244v-515h-244v515zM789 1038h274v-1038h-274v1038zM396 1038h501v-254h-501v254z" />
    <glyph glyph-name="uni0435" unicode="&#x435;" horiz-adv-x="1098" 
d="M328.5 39.5q-106.5 54.5 -162.5 159t-56 251.5v117q0 154 53.5 263t156 166t247.5 57q136 0 233 -68t147.5 -197.5t50.5 -312.5v-68h-710v185h460l-3 24q-11 90 -56.5 139t-121.5 49q-99 0 -153.5 -59t-54.5 -167v-132q0 -106 59.5 -164t166.5 -58q55 0 109 19.5t98 55.5
v0l179 -159v0q-81 -74 -182 -114.5t-204 -40.5q-150 0 -256.5 54.5z" />
    <glyph glyph-name="uni0436" unicode="&#x436;" horiz-adv-x="1464" 
d="M884 438l249 105l351 -543h-313zM331 543l249 -105l-287 -438h-313zM41 1038h286l262 -442l-183 -179zM595 1038h274v-1038h-274v1038zM360 652h744v-264h-744v264zM875 596l262 442h286l-365 -621z" />
    <glyph glyph-name="uni0437" unicode="&#x437;" horiz-adv-x="974" 
d="M285 26q-89 41 -143.5 119t-69.5 188v0h268v0q9 -53 48.5 -82.5t102.5 -29.5q69 0 106.5 25t37.5 71v1q0 41 -32.5 63.5t-91.5 22.5h-113v229h113q48 0 74 26.5t26 74.5v1q0 44 -31.5 68t-89.5 24t-98.5 -32t-54.5 -90v0h-267v0q32 166 142 257t279 91q179 0 276.5 -75.5
t97.5 -213.5v-1q0 -80 -41 -139.5t-116 -87.5q86 -14 133.5 -76.5t47.5 -162.5v-1q0 -148 -104 -229.5t-294 -81.5q-117 0 -206 41z" />
    <glyph glyph-name="uni0438" unicode="&#x438;" horiz-adv-x="1174" 
d="M772 1v687l24 -26l-419 -661h-237v1037h262v-704l-24 26l421 678h235v-1037h-262z" />
    <glyph glyph-name="uni0439" unicode="&#x439;" horiz-adv-x="1174" 
d="M772 1v687l24 -26l-419 -661h-237v1037h262v-704l-24 26l421 678h235v-1037h-262zM332 1304.5q-82 99.5 -82 298.5v0h224v0q0 -100 26 -149.5t78 -49.5h18q52 0 78 49.5t26 149.5v0h224v0q0 -199 -82 -298.5t-246 -99.5h-18q-164 0 -246 99.5z" />
    <glyph glyph-name="uni043A" unicode="&#x43a;" horiz-adv-x="1054" 
d="M545 596l182 442h286l-265 -621zM140 1038h274v-1038h-274v1038zM544 438l249 105l281 -543h-313zM259 652h535v-264h-535v264z" />
    <glyph glyph-name="uni043B" unicode="&#x43b;" horiz-adv-x="1151" 
d="M70 255q66 0 102.5 41.5t36.5 117.5v624h256v-652q0 -125 -44 -213.5t-128.5 -135t-202.5 -46.5h-20v264zM737 1038h274v-1038h-274v1038zM356 1038h539v-264h-539v264z" />
    <glyph glyph-name="uni043C" unicode="&#x43c;" horiz-adv-x="1296" 
d="M910 1038h246v-1038h-249v683l10 -64l-188 -417h-162l-188 417l10 64v-683h-249v1038h246l262 -564z" />
    <glyph glyph-name="uni043D" unicode="&#x43d;" horiz-adv-x="1180" 
d="M766 1038h274v-1038h-274v1038zM140 1038h274v-1038h-274v1038zM287 637h637v-254h-637v254z" />
    <glyph glyph-name="uni043E" unicode="&#x43e;" horiz-adv-x="1116" 
d="M315.5 38q-100.5 53 -153 154.5t-52.5 244.5v169q0 141 52.5 241.5t153 153t242.5 52.5t242.5 -52.5t153 -153t52.5 -241.5v-172q0 -142 -52.5 -242.5t-153 -153.5t-242.5 -53t-242.5 53zM686 297.5q46 48.5 46 136.5v172q0 87 -46 135t-129 48q-82 0 -127.5 -48
t-45.5 -135v-172q0 -88 45 -136.5t128 -48.5t129 48.5z" />
    <glyph glyph-name="uni043F" unicode="&#x43f;" horiz-adv-x="1180" 
d="M766 1038h274v-1038h-274v1038zM140 1038h274v-1038h-274v1038zM287 1038h637v-264h-637v264z" />
    <glyph glyph-name="uni0440" unicode="&#x440;" horiz-adv-x="1114" 
d="M140 1038h274v-1460h-274v1460zM498 31.5q-66 46.5 -98 131.5l14 237q0 -51 18 -87t52.5 -55t83.5 -19q77 0 119.5 51t42.5 144v165q0 95 -42.5 147.5t-119.5 52.5q-49 0 -83.5 -19.5t-52.5 -56.5t-18 -90l-21 230q42 91 110.5 140.5t151.5 49.5q110 0 188.5 -53
t119.5 -155t41 -245v-166q0 -142 -41 -242.5t-119.5 -153.5t-188.5 -53q-91 0 -157 46.5z" />
    <glyph glyph-name="uni0441" unicode="&#x441;" horiz-adv-x="1020" 
d="M325.5 41.5q-105.5 56.5 -160.5 164.5t-55 260v111q0 151 55 257.5t160.5 162.5t253.5 56q85 0 160.5 -19.5t135.5 -56.5t100 -90v0l-177 -172v0q-38 35 -89 54.5t-107 19.5q-104 0 -161 -55.5t-57 -156.5v-111q0 -104 57 -160.5t161 -56.5q57 0 108 21t88 60v0l177 -182
v0q-41 -52 -101 -88.5t-135 -55.5t-160 -19q-148 0 -253.5 56.5z" />
    <glyph glyph-name="uni0442" unicode="&#x442;" horiz-adv-x="1026" 
d="M376 929h274v-929h-274v929zM90 1038h846v-264h-846v264z" />
    <glyph glyph-name="uni0443" unicode="&#x443;" horiz-adv-x="989" 
d="M989 1038l-462 -1281q-26 -71 -64.5 -112.5t-95 -59.5t-139.5 -18h-61v266h61q44 0 73.5 19.5t44.5 63.5l385 1122h258zM30 1038h258l349 -902l-173 -221z" />
    <glyph glyph-name="uni0444" unicode="&#x444;" horiz-adv-x="1467" 
d="M873.5 92q-67.5 92 -67.5 260v299q0 185 67.5 286t190.5 101q140 0 216.5 -90.5t76.5 -256.5v-342q0 -166 -76.5 -257.5t-216.5 -91.5q-123 0 -190.5 92zM186 91.5q-76 91.5 -76 257.5v342q0 166 76 256.5t215 90.5q124 0 192 -101t68 -286v-299q0 -168 -68 -260
t-192 -92q-139 0 -215 91.5zM567 304.5q30 40.5 30 114.5v202q0 74 -30 113.5t-85 39.5q-47 0 -72.5 -40t-25.5 -113v-202q0 -74 25.5 -114.5t72.5 -40.5q55 0 85 40.5zM596 1339h274v-1640h-274v1640zM1056.5 304.5q26.5 40.5 26.5 114.5v202q0 73 -26.5 113t-73.5 40
q-54 0 -83.5 -40t-29.5 -113v-202q0 -74 29.5 -114.5t83.5 -40.5q47 0 73.5 40.5z" />
    <glyph glyph-name="uni0445" unicode="&#x445;" horiz-adv-x="1059" 
d="M457 429l-401 609h302l249 -419l407 -619h-301zM407 573l163 -188l-239 -385h-291zM504 670l192 368h302l-333 -560z" />
    <glyph glyph-name="uni0446" unicode="&#x446;" horiz-adv-x="1256" 
d="M728 1038h274v-1038h-274v1038zM279 264h547v-264h-547v264zM132 1038h274v-1038h-274v1038zM903 264h274v-524h-274v524z" />
    <glyph glyph-name="uni0447" unicode="&#x447;" horiz-adv-x="1152" 
d="M738 1038h274v-1038h-274v1038zM304.5 373.5q-85.5 48.5 -130 140.5t-44.5 222v302h274v-279q0 -78 43.5 -120.5t122.5 -42.5q80 0 124 48t44 135v75h114v-78q0 -223 -81 -337t-261 -114q-120 0 -205.5 48.5z" />
    <glyph glyph-name="uni0448" unicode="&#x448;" horiz-adv-x="1576" 
d="M287 264h1033v-264h-1033v264zM1162 1038h274v-1038h-274v1038zM140 1038h274v-1038h-274v1038zM651 1038h274v-1038h-274v1038z" />
    <glyph glyph-name="uni0449" unicode="&#x449;" horiz-adv-x="1682" 
d="M279 264h992v-264h-992v264zM643 1038h274v-1038h-274v1038zM132 1038h274v-1038h-274v1038zM1329 264h274v-524h-274v524zM1153 1038h274v-1038h-274v1038z" />
    <glyph glyph-name="uni044A" unicode="&#x44a;" horiz-adv-x="1255" 
d="M60 1038h335v-264h-335v264zM450 264h346q49 0 78 32t29 85v0q0 35 -13.5 62t-37.5 41.5t-56 14.5h-346v234h358q107 0 189 -45.5t127.5 -129t45.5 -192.5v0q0 -109 -45 -192t-127 -128.5t-190 -45.5h-358v264zM331 1038h274v-1038h-274v1038z" />
    <glyph glyph-name="uni044B" unicode="&#x44b;" horiz-adv-x="1434" 
d="M1045 1038h274v-1038h-274v1038zM209 264h346q49 0 78 32t29 85v0q0 35 -13.5 62t-37.5 41.5t-56 14.5h-346v234h358q107 0 189 -45.5t127.5 -129t45.5 -192.5v0q0 -109 -45 -192t-127 -128.5t-190 -45.5h-358v264zM140 1038h274v-1038h-274v1038z" />
    <glyph glyph-name="uni044C" unicode="&#x44c;" horiz-adv-x="1084" 
d="M279 264h346q49 0 78 32t29 85v0q0 35 -13.5 62t-37.5 41.5t-56 14.5h-346v234h358q107 0 189 -45.5t127.5 -129t45.5 -192.5v0q0 -109 -45 -192t-127 -128.5t-190 -45.5h-358v264zM140 1038h274v-1038h-274v1038z" />
    <glyph glyph-name="uni044D" unicode="&#x44d;" horiz-adv-x="1020" 
d="M286 402v234h455v-234h-455zM281 4q-75 19 -135 55.5t-101 88.5v0l177 172v0q37 -39 88 -60t108 -21q104 0 161 59t57 168v111q0 101 -57 156.5t-161 55.5q-56 0 -107 -19.5t-89 -54.5v0l-177 172v0q40 53 100 90t135.5 56.5t160.5 19.5q148 0 253.5 -56t160.5 -162.5
t55 -257.5v-111q0 -152 -55 -260t-160.5 -164.5t-253.5 -56.5q-85 0 -160 19z" />
    <glyph glyph-name="uni044E" unicode="&#x44e;" horiz-adv-x="1590" 
d="M279 636h445v-234h-445v234zM125 1038h274v-1038h-274v1038zM789.5 38q-100.5 53 -153 154.5t-52.5 244.5v169q0 141 52.5 241.5t153 153t242.5 52.5t242.5 -52.5t153 -153t52.5 -241.5v-172q0 -142 -52.5 -242.5t-153 -153.5t-242.5 -53t-242.5 53zM1160 297.5
q46 48.5 46 136.5v172q0 87 -46 135t-129 48q-82 0 -127.5 -48t-45.5 -135v-172q0 -88 45 -136.5t128 -48.5t129 48.5z" />
    <glyph glyph-name="uni044F" unicode="&#x44f;" horiz-adv-x="1100" 
d="M453 305q-107 0 -189 45.5t-127.5 129t-45.5 192.5v0q0 109 45 192t127 128.5t190 45.5h368v-264h-346q-49 0 -78 -32t-29 -85v0q0 -35 13 -62t37.5 -41.5t56.5 -14.5h346v-234h-368zM686 0v1038h274v-1038h-274zM70 0l292 456l273 -46l-253 -410h-312z" />
    <glyph glyph-name="uni0450" unicode="&#x450;" horiz-adv-x="1098" 
d="M328.5 39.5q-106.5 54.5 -162.5 159t-56 251.5v117q0 154 53.5 263t156 166t247.5 57q136 0 233 -68t147.5 -197.5t50.5 -312.5v-68h-710v185h460l-3 24q-11 90 -56.5 139t-121.5 49q-99 0 -153.5 -59t-54.5 -167v-132q0 -106 59.5 -164t166.5 -58q55 0 109 19.5t98 55.5
v0l179 -159v0q-81 -74 -182 -114.5t-204 -40.5q-150 0 -256.5 54.5zM231 1514l193 162l286 -355l-174 -143z" />
    <glyph glyph-name="uni0451" unicode="&#x451;" horiz-adv-x="1098" 
d="M328.5 39.5q-106.5 54.5 -162.5 159t-56 251.5v117q0 154 53.5 263t156 166t247.5 57q136 0 233 -68t147.5 -197.5t50.5 -312.5v-68h-710v185h460l-3 24q-11 90 -56.5 139t-121.5 49q-99 0 -153.5 -59t-54.5 -167v-132q0 -106 59.5 -164t166.5 -58q55 0 109 19.5t98 55.5
v0l179 -159v0q-81 -74 -182 -114.5t-204 -40.5q-150 0 -256.5 54.5zM633 1525h274v-274h-274v274zM213 1525h274v-274h-274v274z" />
    <glyph glyph-name="uni0452" unicode="&#x452;" horiz-adv-x="1164" 
d="M587 -158h114q28 0 43.5 20.5t15.5 58.5v588q0 76 -43.5 118t-123.5 42q-76 0 -117.5 -42.5t-41.5 -119.5l-21 230q47 98 112.5 147t164.5 49q164 0 254 -110.5t90 -312.5v-587q0 -165 -66.5 -255t-186.5 -90h-194v264zM160 1454h274v-1454h-274v1454zM-40 1274h844v-234
h-844v234z" />
    <glyph glyph-name="uni0453" unicode="&#x453;" horiz-adv-x="875" 
d="M140 1038h274v-1038h-274v1038zM240 1038h605v-264h-605v264zM349 1321l286 355l193 -162l-305 -336z" />
    <glyph glyph-name="uni0454" unicode="&#x454;" horiz-adv-x="1020" 
d="M279 636h455v-234h-455v234zM325.5 41.5q-105.5 56.5 -160.5 164.5t-55 260v111q0 151 55 257.5t160.5 162.5t253.5 56q85 0 160.5 -19.5t135.5 -56.5t100 -90v0l-177 -172v0q-38 35 -89 54.5t-107 19.5q-104 0 -161 -55.5t-57 -156.5v-111q0 -104 57 -160.5t161 -56.5
q57 0 108 21t88 60v0l177 -182v0q-41 -52 -101 -88.5t-135 -55.5t-160 -19q-148 0 -253.5 56.5z" />
    <glyph glyph-name="uni0455" unicode="&#x455;" horiz-adv-x="1062" 
d="M356 1.5q-88 16.5 -165 48.5t-136 77v0l169 211v0q75 -48 157 -74t156 -26q96 0 149 21.5t53 59.5q0 35 -23 53t-59 25.5t-101 13.5q-18 2 -36.5 4t-37.5 4q-4 1 -8.5 1.5t-8.5 0.5q-116 15 -186 37t-118.5 84.5t-48.5 181.5q0 104 50 178t145 112.5t230 38.5
q79 0 157.5 -16t150.5 -46t133 -72v0l-163 -199v0q-68 38 -142 59t-142 21q-83 0 -129 -19t-46 -53q0 -26 24.5 -40.5t61 -21t106.5 -14.5l18 -2l18 -2q4 -1 9 -1t9 -1q121 -14 197 -36t129.5 -88t53.5 -194q0 -108 -52 -185t-152 -117.5t-241 -40.5q-93 0 -181 16.5z" />
    <glyph glyph-name="uni0456" unicode="&#x456;" horiz-adv-x="514" 
d="M125 1454h274v-274h-274v274zM125 1038h274v-1038h-274v1038z" />
    <glyph glyph-name="uni0457" unicode="&#x457;" horiz-adv-x="514" 
d="M125 1038h274v-1038h-274v1038zM335 1525h274v-274h-274v274zM-85 1525h274v-274h-274v274z" />
    <glyph glyph-name="uni0458" unicode="&#x458;" horiz-adv-x="549" 
d="M0 -158h64q38 0 58.5 20.5t20.5 58.5v1117h274v-1185q0 -131 -69 -203t-194 -72h-154v264zM141 1454h278v-274h-278v274z" />
    <glyph glyph-name="uni0459" unicode="&#x459;" horiz-adv-x="1651" 
d="M846 264h346q49 0 78 32t29 85v0q0 35 -13.5 62t-37.5 41.5t-56 14.5h-346v234h358q107 0 189 -45.5t127.5 -129t45.5 -192.5v0q0 -109 -45 -192t-127 -128.5t-190 -45.5h-358v264zM70 255q66 0 102.5 41.5t36.5 117.5v624h256v-652q0 -125 -44 -213.5t-128.5 -135
t-202.5 -46.5h-20v264zM737 1038h274v-1038h-274v1038zM356 1038h539v-264h-539v264z" />
    <glyph glyph-name="uni045A" unicode="&#x45a;" horiz-adv-x="1691" 
d="M886 264h346q49 0 78 32t29 85v0q0 35 -13.5 62t-37.5 41.5t-56 14.5h-346v234h358q107 0 189 -45.5t127.5 -129t45.5 -192.5v0q0 -109 -45 -192t-127 -128.5t-190 -45.5h-358v264zM766 1038h274v-1038h-274v1038zM140 1038h274v-1038h-274v1038zM287 637h637v-254h-637
v254z" />
    <glyph glyph-name="uni045B" unicode="&#x45b;" horiz-adv-x="1164" 
d="M-40 1274h844v-234h-844v234zM160 1454h274v-1454h-274v1454zM760 509q0 76 -43.5 118t-123.5 42q-76 0 -117.5 -42.5t-41.5 -119.5l-21 230q47 98 112.5 147t164.5 49q164 0 254 -110.5t90 -312.5v-510h-274v509z" />
    <glyph glyph-name="uni045C" unicode="&#x45c;" horiz-adv-x="1054" 
d="M545 596l182 442h286l-265 -621zM140 1038h274v-1038h-274v1038zM544 438l249 105l281 -543h-313zM259 652h535v-264h-535v264zM373 1321l286 355l193 -162l-305 -336z" />
    <glyph glyph-name="uni045D" unicode="&#x45d;" horiz-adv-x="1174" 
d="M772 1v687l24 -26l-419 -661h-237v1037h262v-704l-24 26l421 678h235v-1037h-262zM258 1514l193 162l286 -355l-174 -143z" />
    <glyph glyph-name="uni045E" unicode="&#x45e;" horiz-adv-x="989" 
d="M989 1038l-462 -1281q-26 -71 -64.5 -112.5t-95 -59.5t-139.5 -18h-61v266h61q44 0 73.5 19.5t44.5 63.5l385 1122h258zM30 1038h258l349 -902l-173 -221zM265 1304.5q-82 99.5 -82 298.5v0h224v0q0 -100 26 -149.5t78 -49.5h18q52 0 78 49.5t26 149.5v0h224v0
q0 -199 -82 -298.5t-246 -99.5h-18q-164 0 -246 99.5z" />
    <glyph glyph-name="uni045F" unicode="&#x45f;" horiz-adv-x="1150" 
d="M736 1038h274v-1038h-274v1038zM447 264h274v-524h-274v524zM287 264h607v-264h-607v264zM140 1038h274v-1038h-274v1038z" />
    <glyph glyph-name="uni0460" unicode="&#x460;" horiz-adv-x="2136" 
d="M377.5 51.5q-118.5 66.5 -183 188t-64.5 281.5v412q0 160 68.5 281.5t193.5 188t289 66.5v0v-271v0q-75 0 -132 -32t-88.5 -90.5t-31.5 -135.5v-426q0 -77 29 -135.5t81.5 -90.5t121.5 -32q80 0 140.5 32t93.5 90.5t33 135.5v269h279v-262q0 -83 -31.5 -156t-91.5 -134
q-62 -117 -174.5 -181.5t-258.5 -64.5q-155 0 -273.5 66.5zM1218.5 54.5q-114.5 69.5 -175.5 193.5q-56 59 -85 127.5t-29 145.5v262h279v-269q0 -77 33 -135.5t93.5 -90.5t140.5 -32q69 0 121.5 32t81.5 90.5t29 135.5v426q0 77 -31.5 135.5t-88.5 90.5t-132 32v0v271v0
q164 0 289 -66.5t193.5 -188t68.5 -281.5v-412q0 -160 -64.5 -281.5t-183 -188t-273.5 -66.5q-152 0 -266.5 69.5z" />
    <glyph glyph-name="uni0461" unicode="&#x461;" horiz-adv-x="1514" 
d="M570 1038h273l204 -631q36 83 68 184.5t52.5 210.5t23.5 209v27h263q0 -166 -47.5 -365t-124 -379t-158.5 -294h-184zM20 1038h273l244 -641l214 412l116 -267l-273 -542h-184z" />
    <glyph glyph-name="uni0462" unicode="&#x462;" horiz-adv-x="1290" 
d="M-80 1334h904v-254h-904v254zM275 264h460q49 0 86.5 23t58.5 65t21 97v0q0 56 -20.5 98.5t-58 65.5t-87.5 23h-460v264h453q136 0 239.5 -56t160.5 -158t57 -237v0q0 -134 -57 -236t-160.5 -157.5t-239.5 -55.5h-453v264zM150 1454h274v-1454h-274v1454z" />
    <glyph glyph-name="uni0463" unicode="&#x463;" horiz-adv-x="1109" 
d="M-40 1138h800v-244h-800v244zM294 264h356q40 0 63.5 28t23.5 74v0q0 31 -11 54t-30.5 36t-45.5 13h-356v264h368q107 0 189 -45.5t127.5 -129t45.5 -192.5v0q0 -109 -45 -192t-127 -128.5t-190 -45.5h-368v264zM155 1340h274v-1340h-274v1340z" />
    <glyph glyph-name="uni0464" unicode="&#x464;" horiz-adv-x="1691" 
d="M259 849h465v-254h-465v254zM444 0h-284v1454h284v-1454zM703 849h565v-254h-565v254zM796 48.5q-118 63.5 -180 185t-62 293.5v399q0 172 62 293.5t180 185.5t284 64q137 0 245 -59t178.5 -171.5t97.5 -271.5v0h-284v0q-16 72 -49.5 123t-81 78t-106.5 27
q-77 0 -131 -31.5t-82.5 -92t-28.5 -145.5v-399q0 -85 28.5 -145t82.5 -91.5t131 -31.5q60 0 108 26.5t81 77.5t48 124v0h284v0q-28 -159 -98.5 -271.5t-178 -171.5t-244.5 -59q-166 0 -284 63.5z" />
    <glyph glyph-name="uni0465" unicode="&#x465;" horiz-adv-x="1494" 
d="M279 636h505v-234h-505v234zM125 1038h274v-1038h-274v1038zM753 636h455v-234h-455v234zM799.5 41.5q-105.5 56.5 -160.5 164.5t-55 260v111q0 151 55 257.5t160.5 162.5t253.5 56q128 0 231.5 -43.5t164.5 -122.5v0l-177 -172v0q-38 35 -89 54.5t-107 19.5
q-104 0 -161 -55.5t-57 -156.5v-111q0 -104 57 -160.5t161 -56.5q57 0 108 21t88 60v0l177 -182v0q-61 -78 -164.5 -120.5t-231.5 -42.5q-148 0 -253.5 56.5z" />
    <glyph glyph-name="uni0466" unicode="&#x466;" horiz-adv-x="1326" 
d="M576 1454h174l556 -1454h-295l-348 993l-348 -993h-295zM531 434h264v-434h-264v434zM287 557h765v-254h-765v254z" />
    <glyph glyph-name="uni0467" unicode="&#x467;" horiz-adv-x="1086" 
d="M456 1044h174l436 -1044h-280l-243 643l-243 -643h-280zM446 333h194v-333h-194v333zM267 382h565l40 -184h-605v184z" />
    <glyph glyph-name="uni0468" unicode="&#x468;" horiz-adv-x="1770" 
d="M267 557h495v-254h-495v254zM404 0h-284v1454h284v-1454zM1020 1454h174l556 -1454h-295l-348 993l-348 -993h-295zM975 434h264v-434h-264v434zM731 557h765v-254h-765v254z" />
    <glyph glyph-name="uni0469" unicode="&#x469;" horiz-adv-x="1540" 
d="M212 382h565v-184h-565v184zM140 1038h274v-1038h-274v1038zM910 1044h174l436 -1044h-280l-243 643l-243 -643h-280zM900 333h194v-333h-194v333zM721 382h565l40 -184h-605v184z" />
    <glyph glyph-name="uni046A" unicode="&#x46a;" horiz-adv-x="1504" 
d="M303 1454h882v-274h-882v274zM478 664l-435 790h331l372 -716zM1114 1454h341l-435 -790l-278 74zM131 468q30 127 99.5 207.5t162.5 117t198 36.5l30 -264q-43 0 -90.5 -24t-84.5 -74t-51 -125l-62 -342h-313zM615 694h274v-694h-274v694zM541 829h93l108 -91l122 91h89
v-264h-402zM1109 342q-14 75 -51 125t-84.5 74t-90.5 24l30 264q105 0 198 -36.5t162.5 -117t99.5 -207.5l111 -468h-313z" />
    <glyph glyph-name="uni046B" unicode="&#x46b;" horiz-adv-x="1204" 
d="M601 518l347 520h276l-365 -564zM60 268q38 165 142.5 247t277.5 82l-20 -233q-60 0 -96.5 -30.5t-49.5 -91.5l-52 -242h-263zM465 474h274v-474h-274v474zM460 597h45l103 -78l79 78h37l30 -233h-314zM-20 1038h276l357 -520l-268 -44zM890 242q-14 62 -52.5 92
t-103.5 30l-20 233q178 0 285.5 -82t144.5 -247l61 -268h-263zM200 1038h814v-224h-814v224z" />
    <glyph glyph-name="uni046C" unicode="&#x46c;" horiz-adv-x="1988" 
d="M371 829h642v-264h-642v264zM444 0h-284v1454h284v-1454zM787 1454h882v-274h-882v274zM962 664l-435 790h331l372 -716zM1598 1454h341l-435 -790l-278 74zM615 468q30 127 99.5 207.5t162.5 117t198 36.5l30 -264q-43 0 -90.5 -24t-84.5 -74t-51 -125l-62 -342h-313z
M1099 694h274v-694h-274v694zM1025 829h93l108 -91l122 91h89v-264h-402zM1593 342q-14 75 -51 125t-84.5 74t-90.5 24l30 264q105 0 198 -36.5t162.5 -117t99.5 -207.5l111 -468h-313z" />
    <glyph glyph-name="uni046D" unicode="&#x46d;" horiz-adv-x="1668" 
d="M330 597h474v-233h-474v233zM125 1038h274v-1038h-274v1038zM1065 518l347 520h276l-365 -564zM524 268q38 165 142.5 247t277.5 82l-20 -233q-60 0 -96.5 -30.5t-49.5 -91.5l-52 -242h-263zM929 474h274v-474h-274v474zM924 597h45l103 -78l79 78h37l30 -233h-314z
M444 1038h276l357 -520l-268 -44zM1354 242q-14 62 -52.5 92t-103.5 30l-20 233q178 0 285.5 -82t144.5 -247l61 -268h-263zM664 1038h814v-224h-814v224z" />
    <glyph glyph-name="uni046E" unicode="&#x46e;" horiz-adv-x="1207" 
d="M438 -422q-166 0 -257 83t-91 234q0 168 91.5 261t256.5 93h180q91 0 140.5 51.5t49.5 146.5v1q0 84 -53 130t-150 46h-93v264h93q85 0 132 38t47 107v0q0 81 -55 125.5t-155 44.5q-77 0 -130.5 -42t-73.5 -119v-1h-277v1q36 203 159 315t312 112q167 0 281 -40
t173.5 -125.5t59.5 -221.5v0q0 -101 -19 -158t-63.5 -93t-133.5 -72q115 -25 177.5 -117t62.5 -235v-1q0 -133 -59.5 -227.5t-172.5 -144t-273 -49.5h-160q-34 0 -53.5 -18.5t-19.5 -51.5q0 -34 19 -53t54 -19h378v-265h-377zM237 1826l147 151l207 -161l207 161l147 -151
l-354 -274z" />
    <glyph glyph-name="uni046F" unicode="&#x46f;" horiz-adv-x="927" 
d="M405 -422q-164 0 -246 77t-82 230q0 169 82 252.5t246 83.5h37q67 0 100 24t33 72v1q0 46 -25.5 68.5t-77.5 22.5h-83v249h83q39 0 59 20.5t20 60.5v0q0 45 -22.5 66.5t-67.5 21.5q-50 0 -81 -30t-43 -91v-1h-267v1q10 116 56 193t129.5 115.5t205.5 38.5
q179 0 268 -67.5t89 -203.5v0q0 -52 -14.5 -96t-42.5 -77.5t-69 -52.5q50 -11 83.5 -43t50 -86t16.5 -130v-1q0 -156 -102 -233.5t-308 -77.5h-8q-41 0 -62 -19t-21 -56q0 -34 21 -50.5t62 -16.5h328v-265h-347zM113 1492l154 140l200 -190l200 190l154 -140l-354 -334z" />
    <glyph glyph-name="uni0470" unicode="&#x470;" horiz-adv-x="1462" 
d="M411 403.5q-132 68.5 -201.5 198.5t-69.5 314v538h274v-545q0 -99 37 -169.5t108 -107t171 -36.5q101 0 172 37t108.5 107t37.5 169v545h274v-538q0 -184 -69.5 -314t-202.5 -198.5t-320 -68.5t-319 68.5zM589 1454h284v-1454h-284v1454z" />
    <glyph glyph-name="uni0471" unicode="&#x471;" horiz-adv-x="1452" 
d="M411 53.5q-132 68.5 -201.5 198.5t-69.5 314v472h274v-479q0 -102 37 -174.5t108 -110.5t171 -38q101 0 172 38t108.5 110.5t37.5 174.5v479h274v-472q0 -184 -69.5 -314t-202.5 -198.5t-320 -68.5t-319 68.5zM594 1339h274v-1640h-274v1640z" />
    <glyph glyph-name="uni0472" unicode="&#x472;" horiz-adv-x="1322" 
d="M299 854h725v-264h-725v264zM382.5 51.5q-120.5 66.5 -186.5 188t-66 281.5v412q0 160 66 281.5t186.5 188t278.5 66.5t278.5 -66.5t186.5 -188t66 -281.5v-412q0 -160 -66 -281.5t-186.5 -188t-278.5 -66.5t-278.5 66.5zM791 290.5q56 31.5 86.5 89.5t30.5 134v426
q0 76 -30.5 134t-86.5 89.5t-130 31.5t-130 -31.5t-86.5 -89.5t-30.5 -134v-426q0 -76 30.5 -134t86.5 -89.5t130 -31.5t130 31.5z" />
    <glyph glyph-name="uni0473" unicode="&#x473;" horiz-adv-x="1116" 
d="M219 631h725v-224h-725v224zM315.5 38q-100.5 53 -153 154.5t-52.5 244.5v169q0 141 52.5 241.5t153 153t242.5 52.5t242.5 -52.5t153 -153t52.5 -241.5v-172q0 -142 -52.5 -242.5t-153 -153.5t-242.5 -53t-242.5 53zM686 297.5q46 48.5 46 136.5v172q0 87 -46 135
t-129 48q-82 0 -127.5 -48t-45.5 -135v-172q0 -88 45 -136.5t128 -48.5t129 48.5z" />
    <glyph glyph-name="uni0474" unicode="&#x474;" horiz-adv-x="1224" 
d="M10 1454h282l310 -970l224 702q29 91 68 150.5t101 92t154 32.5h135v-264h-138q-21 0 -34 -13t-21 -38l-382 -1146h-214z" />
    <glyph glyph-name="uni0475" unicode="&#x475;" horiz-adv-x="1041" 
d="M40 1038h273l194 -651l99 391q26 102 65.5 162t94.5 86.5t131 26.5h104v-264h-41q-49 0 -77 -18t-42 -61l-237 -710h-194z" />
    <glyph glyph-name="uni0476" unicode="&#x476;" horiz-adv-x="1224" 
d="M133 1790l182 187l266 -265l-173 -168zM623 1790l182 187l266 -265l-173 -168zM10 1454h282l310 -970l224 702q29 91 68 150.5t101 92t154 32.5h135v-264h-138q-21 0 -34 -13t-21 -38l-382 -1146h-214z" />
    <glyph glyph-name="uni0477" unicode="&#x477;" horiz-adv-x="1041" 
d="M21 1564l203 132l266 -405l-194 -133zM461 1564l203 132l266 -405l-194 -133zM40 1038h273l194 -651l99 391q26 102 65.5 162t94.5 86.5t131 26.5h104v-264h-41q-49 0 -77 -18t-42 -61l-237 -710h-194z" />
    <glyph glyph-name="uni0478" unicode="&#x478;" horiz-adv-x="2241" 
d="M382.5 51.5q-120.5 66.5 -186.5 188t-66 281.5v412q0 160 66 281.5t186.5 188t278.5 66.5t278.5 -66.5t186.5 -188t66 -281.5v-412q0 -160 -66 -281.5t-186.5 -188t-278.5 -66.5t-278.5 66.5zM791 290.5q56 31.5 86.5 89.5t30.5 134v426q0 76 -30.5 134t-86.5 89.5
t-130 31.5t-130 -31.5t-86.5 -89.5t-30.5 -134v-426q0 -76 30.5 -134t86.5 -89.5t130 -31.5t130 31.5zM2241 1038l-462 -1281q-26 -71 -64.5 -112.5t-95 -59.5t-139.5 -18h-61v266h61q44 0 73.5 19.5t44.5 63.5l385 1122h258zM1282 1038h258l349 -902l-173 -221z" />
    <glyph glyph-name="uni0479" unicode="&#x479;" horiz-adv-x="2045" 
d="M315.5 38q-100.5 53 -153 154.5t-52.5 244.5v169q0 141 52.5 241.5t153 153t242.5 52.5t242.5 -52.5t153 -153t52.5 -241.5v-172q0 -142 -52.5 -242.5t-153 -153.5t-242.5 -53t-242.5 53zM686 297.5q46 48.5 46 136.5v172q0 87 -46 135t-129 48q-82 0 -127.5 -48
t-45.5 -135v-172q0 -88 45 -136.5t128 -48.5t129 48.5zM2045 1038l-462 -1281q-26 -71 -64.5 -112.5t-95 -59.5t-139.5 -18h-61v266h61q44 0 73.5 19.5t44.5 63.5l385 1122h258zM1086 1038h258l349 -902l-173 -221z" />
    <glyph glyph-name="uni047A" unicode="&#x47a;" horiz-adv-x="1322" 
d="M539 1586h244v-652h-244v652zM539 520h244v-652h-244v652zM382.5 51.5q-120.5 66.5 -186.5 188t-66 281.5v412q0 160 66 281.5t186.5 188t278.5 66.5t278.5 -66.5t186.5 -188t66 -281.5v-412q0 -160 -66 -281.5t-186.5 -188t-278.5 -66.5t-278.5 66.5zM791 290.5
q56 31.5 86.5 89.5t30.5 134v426q0 76 -30.5 134t-86.5 89.5t-130 31.5t-130 -31.5t-86.5 -89.5t-30.5 -134v-426q0 -76 30.5 -134t86.5 -89.5t130 -31.5t130 31.5z" />
    <glyph glyph-name="uni047B" unicode="&#x47b;" horiz-adv-x="1116" 
d="M466 1170h184v-572h-184v572zM466 440h184v-572h-184v572zM315.5 38q-100.5 53 -153 154.5t-52.5 244.5v169q0 141 52.5 241.5t153 153t242.5 52.5t242.5 -52.5t153 -153t52.5 -241.5v-172q0 -142 -52.5 -242.5t-153 -153.5t-242.5 -53t-242.5 53zM686 297.5
q46 48.5 46 136.5v172q0 87 -46 135t-129 48q-82 0 -127.5 -48t-45.5 -135v-172q0 -88 45 -136.5t128 -48.5t129 48.5z" />
    <glyph glyph-name="uni047C" unicode="&#x47c;" horiz-adv-x="2136" 
d="M377.5 51.5q-118.5 66.5 -183 188t-64.5 281.5v412q0 160 68.5 281.5t193.5 188t289 66.5v0v-271v0q-75 0 -132 -32t-88.5 -90.5t-31.5 -135.5v-426q0 -77 29 -135.5t81.5 -90.5t121.5 -32q80 0 140.5 32t93.5 90.5t33 135.5v269h279v-262q0 -83 -31.5 -156t-91.5 -134
q-62 -117 -174.5 -181.5t-258.5 -64.5q-155 0 -273.5 66.5zM1218.5 54.5q-114.5 69.5 -175.5 193.5q-56 59 -85 127.5t-29 145.5v262h279v-269q0 -77 33 -135.5t93.5 -90.5t140.5 -32q69 0 121.5 32t81.5 90.5t29 135.5v426q0 77 -31.5 135.5t-88.5 90.5t-132 32v0v271v0
q164 0 289 -66.5t193.5 -188t68.5 -281.5v-412q0 -160 -64.5 -281.5t-183 -188t-273.5 -66.5q-152 0 -266.5 69.5zM692 1920h761v-254h-761v254zM692 1823h264v-267h-264v267zM1189 2031h264v-267h-264v267z" />
    <glyph glyph-name="uni047D" unicode="&#x47d;" horiz-adv-x="1514" 
d="M570 1038h273l204 -631q36 83 68 184.5t52.5 210.5t23.5 209v27h263q0 -166 -47.5 -365t-124 -379t-158.5 -294h-184zM20 1038h273l244 -641l214 412l116 -267l-273 -542h-184zM386 1504h761v-254h-761v254zM386 1407h264v-267h-264v267zM883 1615h264v-267h-264v267z
" />
    <glyph glyph-name="uni047E" unicode="&#x47e;" horiz-adv-x="2136" 
d="M1538 1847v-184h-941v184h941zM1538 1780v-252h-237v252h237zM597 1528v252h237v-252h-237zM1187 1780v-252h-238v252h238zM377.5 51.5q-118.5 66.5 -183 188t-64.5 281.5v412q0 160 68.5 281.5t193.5 188t289 66.5v0v-271v0q-75 0 -132 -32t-88.5 -90.5t-31.5 -135.5
v-426q0 -77 29 -135.5t81.5 -90.5t121.5 -32q80 0 140.5 32t93.5 90.5t33 135.5v269h279v-262q0 -83 -31.5 -156t-91.5 -134q-62 -117 -174.5 -181.5t-258.5 -64.5q-155 0 -273.5 66.5zM1218.5 54.5q-114.5 69.5 -175.5 193.5q-56 59 -85 127.5t-29 145.5v262h279v-269
q0 -77 33 -135.5t93.5 -90.5t140.5 -32q69 0 121.5 32t81.5 90.5t29 135.5v426q0 77 -31.5 135.5t-88.5 90.5t-132 32v0v271v0q164 0 289 -66.5t193.5 -188t68.5 -281.5v-412q0 -160 -64.5 -281.5t-183 -188t-273.5 -66.5q-152 0 -266.5 69.5z" />
    <glyph glyph-name="uni047F" unicode="&#x47f;" horiz-adv-x="1514" 
d="M1228 1539v-204h-941v204h941zM1228 1472v-282h-237v282h237zM287 1190v282h237v-282h-237zM877 1472v-282h-238v282h238zM570 1038h273l204 -631q36 83 68 184.5t52.5 210.5t23.5 209v27h263q0 -166 -47.5 -365t-124 -379t-158.5 -294h-184zM20 1038h273l244 -641
l214 412l116 -267l-273 -542h-184z" />
    <glyph glyph-name="uni0480" unicode="&#x480;" horiz-adv-x="1327" 
d="M385.5 325.5q-124.5 63.5 -190 185t-65.5 293.5v122q0 172 65.5 293.5t190 185.5t300.5 64q145 0 259 -59t188.5 -171.5t103.5 -271.5v0h-284v0q-18 72 -55.5 123t-91.5 78t-120 27q-130 0 -201 -70.5t-71 -198.5v-122q0 -128 71 -198t201 -70v-274q-176 0 -300.5 63.5z
M627 536h274v-536h-274v536z" />
    <glyph glyph-name="uni0481" unicode="&#x481;" horiz-adv-x="1020" 
d="M325.5 41.5q-105.5 56.5 -160.5 164.5t-55 260v111q0 151 55 257.5t160.5 162.5t253.5 56q85 0 160.5 -19.5t135.5 -56.5t100 -90v0l-177 -172v0q-38 35 -89 54.5t-107 19.5q-104 0 -161 -55.5t-57 -156.5v-111q0 -109 57 -168t161 -59l-23 -254q-148 0 -253.5 56.5z
M467 239h274v-543h-274v543z" />
    <glyph glyph-name="uni0482" unicode="&#x482;" horiz-adv-x="1280" 
d="M957 1461l209 -112l-848 -1364l-209 112zM1220 845l-122 -210l-758 436l122 210zM940 353l-122 -210l-758 426l122 210z" />
    <glyph glyph-name="uni0483" unicode="&#x483;" 
d="M-812 1504h761v-254h-761v254zM-812 1407h264v-267h-264v267zM-315 1615h264v-267h-264v267z" />
    <glyph glyph-name="uni0484" unicode="&#x484;" 
d="M-238 1256q0 29 -15 44t-45 15t-62 -11.5t-87 -36.5l-6 -2t-6 -3t-6 -3l-6 -2q-58 -26 -110 -40.5t-110 -14.5h-23v248h18q65 0 116 13.5t109 39.5q4 2 8 3.5t8 3.5q1 1 2 1t2 1q68 28 116 42t111 14q112 0 168 -79.5t56 -238.5v-45h-238v51z" />
    <glyph glyph-name="uni0485" unicode="&#x485;" 
d="M-812 1505h761v-254h-761v254zM-812 1407h264v-267h-264v267zM-812 1615h264v-267h-264v267z" />
    <glyph glyph-name="uni0486" unicode="&#x486;" 
d="M-811 1505h761v-254h-761v254zM-314 1407h264v-267h-264v267zM-314 1615h264v-267h-264v267z" />
    <glyph glyph-name="uni0487" unicode="&#x487;" 
d="M-126 1215q-50 13 -102 35q-7 3 -13.5 6t-13.5 6q-3 2 -6 3l-6 2q-55 25 -87 36.5t-62 11.5t-45 -15t-15 -44v-51h-238v45q0 159 56 238.5t168 79.5q61 0 110 -13.5t106 -38.5q4 -1 7.5 -2.5t7.5 -3.5q68 -30 120 -45t121 -15h18v-248h-23q-53 0 -103 13z" />
    <glyph glyph-name="uni0488" unicode="&#x488;" 
d="M-1664 1122q0 57 -17 84.5t-54 27.5h-1q-37 0 -55.5 -27.5t-18.5 -84.5v0h-204v0q0 141 67 211t201 70h18q134 0 201 -70t67 -211v0h-204v0zM-1834 642q0 57 -17 84t-54 27h-1q-37 0 -55.5 -27.5t-18.5 -83.5v0h-204v0q0 140 67 210t201 70h18q134 0 201 -70t67 -210v0
h-204v0zM-1664 162q0 57 -17 84t-54 27h-1q-37 0 -55.5 -27.5t-18.5 -83.5v0h-204v0q0 140 67 210t201 70h18q134 0 201 -70t67 -210v0h-204v0zM-404 1122q0 57 -17 84t-54 27h-1q-37 0 -55.5 -27.5t-18.5 -83.5v0h-204v0q0 140 67 210t201 70h18q134 0 201 -70t67 -210v0
h-204v0zM-1034 1386q0 57 -17 84t-54 27h-1q-37 0 -55.5 -27.5t-18.5 -83.5v0h-204v0q0 140 67 210t201 70h18q134 0 201 -70t67 -210v0h-204v0zM-234 642q0 57 -17 84t-54 27h-1q-47 0 -70.5 -27.5t-23.5 -83.5v0h-184v0q0 140 67 210t201 70h18q134 0 201 -70t67 -210v0
h-204v0zM-404 162q0 57 -17 84t-54 27h-1q-37 0 -55.5 -27.5t-18.5 -83.5v0h-204v0q0 140 67 210t201 70h18q134 0 201 -70t67 -210v0h-204v0zM-1034 -193q0 57 -17 84t-54 27h-1q-37 0 -55.5 -27.5t-18.5 -83.5v0h-204v0q0 140 67 210t201 70h18q134 0 201 -70t67 -210v0
h-204v0z" />
    <glyph glyph-name="uni0489" unicode="&#x489;" 
d="M-839 1238l201 200l335 -50l-342 -344zM-1894 184l343 343l194 -194l-201 -199zM-1235 284h274v-284l-274 -202v486zM-2086 923h486v-274h-284zM-839 333l194 194l199 -200l-49 -336zM-1750 1245l49 336l344 -343l-194 -194zM-1235 1572l274 202v-486h-274v284zM-596 923
h284l202 -274h-486v274z" />
    <glyph glyph-name="uni048A" unicode="&#x48a;" horiz-adv-x="1465" 
d="M1148 43l31 -43h-82v264h355l-80 -595h-274zM1012 1v1163l24 -26l-549 -1137h-327v1453h262v-1180l-24 26l551 1154h325v-1453h-262zM1039 1893q0 -160 -87 -247.5t-246 -87.5h-8q-159 0 -246 87.5t-87 247.5l225 -2q0 -65 28.5 -101.5t79.5 -36.5h8q51 0 79.5 36.5
t28.5 101.5z" />
    <glyph glyph-name="uni048B" unicode="&#x48b;" horiz-adv-x="1214" 
d="M1190 255l-85 -516h-244l44 266l41 250h244zM772 1v687l24 -26l-419 -661h-237v1037h262v-704l-24 26l421 678h235v-1037h-262zM332 1304.5q-82 99.5 -82 298.5v0h224v0q0 -100 26 -149.5t78 -49.5h18q52 0 78 49.5t26 149.5v0h224v0q0 -199 -82 -298.5t-246 -99.5h-18
q-164 0 -246 99.5z" />
    <glyph glyph-name="uni048C" unicode="&#x48c;" horiz-adv-x="1360" 
d="M40 1314h734v-244h-734v244zM345 264h460q49 0 86.5 23t58.5 65t21 97v0q0 56 -20.5 98.5t-58 65.5t-87.5 23h-460v264h453q136 0 239.5 -56t160.5 -158t57 -237v0q0 -134 -57 -236t-160.5 -157.5t-239.5 -55.5h-453v264zM220 1454h274v-1454h-274v1454z" />
    <glyph glyph-name="uni048D" unicode="&#x48d;" horiz-adv-x="1105" 
d="M-40 1038h724v-204h-724v204zM161 1454h274v-524h-274v524zM300 264h346q49 0 78 32t29 85v0q0 35 -13.5 62t-37.5 41.5t-56 14.5h-346v234h358q107 0 189 -45.5t127.5 -129t45.5 -192.5v0q0 -109 -45 -192t-127 -128.5t-190 -45.5h-358v264zM161 1038h274v-1038h-274
v1038z" />
    <glyph glyph-name="uni048E" unicode="&#x48e;" horiz-adv-x="1275" 
d="M541 967l200 124l413 -633l-201 -125zM285 828h465q49 0 86.5 22.5t58.5 63.5t21 94v0q0 54 -20.5 95.5t-58 64t-87.5 22.5h-465v264h458q136 0 239.5 -55.5t160.5 -156.5t57 -234v0q0 -133 -57 -233.5t-160.5 -155.5t-239.5 -55h-458v264zM160 1454h274v-1454h-274v1454
z" />
    <glyph glyph-name="uni048F" unicode="&#x48f;" horiz-adv-x="1114" 
d="M443 416l172 96l341 -644l-173 -97zM140 1038h274v-1460h-274v1460zM498 31.5q-66 46.5 -98 131.5l14 237q0 -51 18 -87t52.5 -55t83.5 -19q77 0 119.5 51t42.5 144v165q0 95 -42.5 147.5t-119.5 52.5q-49 0 -83.5 -19.5t-52.5 -56.5t-18 -90l-21 230q42 91 110.5 140.5
t151.5 49.5q110 0 188.5 -53t119.5 -155t41 -245v-166q0 -142 -41 -242.5t-119.5 -153.5t-188.5 -53q-91 0 -157 46.5z" />
    <glyph glyph-name="uni0490" unicode="&#x490;" horiz-adv-x="975" 
d="M751 1726h264v-384h-264v384zM160 1454h274v-1454h-274v1454zM259 1454h756v-264h-756v264z" />
    <glyph glyph-name="uni0491" unicode="&#x491;" horiz-adv-x="875" 
d="M601 1218h244v-328h-244v328zM140 1038h274v-1038h-274v1038zM240 1038h605v-264h-605v264z" />
    <glyph glyph-name="uni0492" unicode="&#x492;" horiz-adv-x="1165" 
d="M130 854h764v-264h-764v264zM350 1454h274v-1454h-274v1454zM449 1454h756v-264h-756v264z" />
    <glyph glyph-name="uni0493" unicode="&#x493;" horiz-adv-x="965" 
d="M40 554h714v-234h-714v234zM230 1038h274v-1038h-274v1038zM330 1038h605v-264h-605v264z" />
    <glyph glyph-name="uni0494" unicode="&#x494;" horiz-adv-x="1346" 
d="M669 -69h24q139 0 214 92t75 260v0q0 163 -75 252t-213 89q-125 0 -192.5 -60t-67.5 -170v-115l-64 60v108q0 140 46 239t134.5 151t213.5 52q162 0 277 -71t175 -206.5t60 -326.5v0q0 -196 -66 -334.5t-192.5 -211t-304.5 -72.5h-44v264zM160 1454h274v-1454h-274v1454z
M259 1454h756v-264h-756v264z" />
    <glyph glyph-name="uni0495" unicode="&#x495;" horiz-adv-x="1136" 
d="M887.5 578q87.5 -62 133 -181t45.5 -286v-10q0 -165 -53.5 -282.5t-155 -179t-244.5 -61.5h-44v264h24q91 0 140 68t49 194v0q0 129 -51.5 200t-143.5 71q-82 0 -127.5 -39.5t-45.5 -110.5v-75l-64 20v108q0 172 86 267t241 95q123 0 210.5 -62zM140 1038h274v-1038h-274
v1038zM240 1038h605v-264h-605v264z" />
    <glyph glyph-name="uni0496" unicode="&#x496;" horiz-adv-x="2042" 
d="M1233 798l352 656h316l-465 -835zM1232 640l249 105l481 -745h-343zM481 745l249 -105l-387 -640h-343zM61 1454h316l352 -656l-203 -179zM500 854h962v-264h-962v264zM844 1454h274v-1454h-274v1454zM2065 264v-595h-274v595h274zM1927 134v-134h-57v134h57z" />
    <glyph glyph-name="uni0497" unicode="&#x497;" horiz-adv-x="1544" 
d="M884 438l249 105l351 -543h-313zM331 543l249 -105l-287 -438h-313zM41 1038h286l262 -442l-183 -179zM595 1038h274v-1038h-274v1038zM360 652h744v-264h-744v264zM875 596l262 442h286l-365 -621zM1591 254v-515h-274v515h274z" />
    <glyph glyph-name="uni0498" unicode="&#x498;" horiz-adv-x="1208" 
d="M741 134v-465h-274v465h274zM351 34q-110 49 -176.5 142.5t-84.5 225.5v0h278v0q14 -72 74 -111.5t154 -39.5q101 0 157 52.5t56 148.5v1q0 82 -42.5 126.5t-120.5 44.5h-233v264h233q66 0 102.5 37t36.5 104v9q0 79 -47 122t-133 43q-80 0 -136 -42t-78 -119v0h-277v0
q38 203 166.5 315t324.5 112q150 0 256.5 -44.5t162 -129.5t55.5 -204v-8q0 -115 -54 -199.5t-152 -124.5q110 -26 170 -118t60 -234v-1q0 -133 -58.5 -227.5t-170 -144t-268.5 -49.5q-145 0 -255 49z" />
    <glyph glyph-name="uni0499" unicode="&#x499;" horiz-adv-x="938" 
d="M624 134v-395h-274v395h274zM204 76q-110 91 -132 257v0h268v0q9 -53 48.5 -82.5t102.5 -29.5q69 0 106.5 25t37.5 71v1q0 41 -32.5 63.5t-91.5 22.5h-113v229h113q48 0 74 26.5t26 74.5v1q0 44 -31.5 68t-89.5 24t-98.5 -32t-54.5 -90v0h-267v0q32 166 142 257t279 91
q179 0 276.5 -75.5t97.5 -213.5v-1q0 -80 -41 -139.5t-116 -87.5q86 -14 133.5 -76.5t47.5 -162.5v-1q0 -148 -104 -229.5t-294 -81.5q-177 0 -287 91z" />
    <glyph glyph-name="uni049A" unicode="&#x49a;" horiz-adv-x="1374" 
d="M565 798l372 656h316l-485 -835zM564 640l249 105l501 -745h-343zM160 1454h274v-1454h-274v1454zM279 854h515v-264h-515v264zM1411 264v-595h-274v595h274zM1273 134v-134h-57v134h57z" />
    <glyph glyph-name="uni049B" unicode="&#x49b;" horiz-adv-x="1154" 
d="M545 596l182 442h286l-265 -621zM140 1038h274v-1038h-274v1038zM544 438l249 105l281 -543h-313zM259 652h535v-264h-535v264zM1216 254v-515h-274v515h274z" />
    <glyph glyph-name="uni049C" unicode="&#x49c;" horiz-adv-x="1314" 
d="M160 1454h274v-1454h-274v1454zM655 798l282 656h316l-395 -835zM654 640l249 105l411 -745h-343zM279 854h605v-264h-605v264zM487 1109h174v-774h-174v774z" />
    <glyph glyph-name="uni049D" unicode="&#x49d;" horiz-adv-x="1054" 
d="M544 438l249 105l281 -543h-313zM140 1038h274v-1038h-274v1038zM450 864h124v-694h-124v694zM259 652h535v-264h-535v264zM565 596l162 442h286l-265 -621z" />
    <glyph glyph-name="uni049E" unicode="&#x49e;" horiz-adv-x="1384" 
d="M10 1324h694v-244h-694v244zM635 798l372 656h316l-485 -835zM634 640l249 105l501 -745h-343zM230 1454h274v-1454h-274v1454zM349 854h515v-264h-515v264z" />
    </font>
</defs>
</svg>
