<?xml version="1.0" standalone="no"?>
<!DOCTYPE svg PUBLIC "-//W3C//DTD SVG 1.1//EN" "http://www.w3.org/Graphics/SVG/1.1/DTD/svg11.dtd" >
<svg xmlns="http://www.w3.org/2000/svg" xmlns:xlink="http://www.w3.org/1999/xlink" version="1.1">
<metadata>
Created by FontForge 20201107 at Thu May 29 13:06:45 2025
 By 
(c) 2018 Microsoft Corporation. All rights reserved.
</metadata>
<defs>
<font id="Bahnschrift" horiz-adv-x="0" >
  <font-face 
    font-family="Bahnschrift"
    font-weight="600"
    font-stretch="condensed"
    units-per-em="2048"
    panose-1="2 11 5 2 4 2 4 2 2 3"
    ascent="1626"
    descent="-422"
    x-height="1038"
    cap-height="1454"
    bbox="-1791 -530 1652 2014"
    underline-thickness="50"
    underline-position="-125"
    unicode-range="U+0020-2133"
  />
<missing-glyph horiz-adv-x="988" 
d="M95 0v1454h799v-1454h-799zM293 198h403v1059h-403v-1059z" />
    <glyph glyph-name=".notdef" horiz-adv-x="988" 
d="M95 0v1454h799v-1454h-799zM293 198h403v1059h-403v-1059z" />
    <glyph glyph-name=".null" 
 />
    <glyph glyph-name="nonmarkingreturn" horiz-adv-x="682" 
 />
    <glyph glyph-name="space" unicode=" " horiz-adv-x="300" 
 />
    <glyph glyph-name="exclam" unicode="!" horiz-adv-x="386" 
d="M84 1454h219v-1083h-219v1083zM84 219h219v-219h-219v219z" />
    <glyph glyph-name="quotedbl" unicode="&#x22;" horiz-adv-x="567" 
d="M35 1454h214v-510h-214v510zM318 1454h214v-510h-214v510z" />
    <glyph glyph-name="numbersign" unicode="#" horiz-adv-x="938" 
d="M665 1454h177l-211 -1454h-176zM330 1454h176l-210 -1454h-177zM887 1120v-183h-760v183h760zM841 524v-183h-760v183h760z" />
    <glyph glyph-name="dollar" unicode="$" horiz-adv-x="883" 
d="M244.5 26q-80.5 41 -122.5 120t-42 190v76l217 1v-75q0 -68 37 -105t105 -37q66 0 101.5 36.5t35.5 103.5v130q0 47 -24.5 80t-61.5 55.5t-104 53.5q-3 2 -5.5 3t-5.5 2q-4 2 -7.5 4t-7.5 4q-86 41 -144 83t-96.5 113.5t-38.5 179.5v80q0 110 41 187.5t121 117.5t194 40
q110 0 188.5 -40.5t119 -119t40.5 -189.5v-79l-217 -1v79q0 68 -33.5 104.5t-97.5 36.5q-67 0 -103 -34t-36 -96v-98q0 -49 23.5 -82t59.5 -55t100 -52q9 -4 18 -8.5t19 -8.5q3 -2 6.5 -3.5t6.5 -2.5q85 -41 137.5 -78t89 -104.5t36.5 -174.5v-127q0 -112 -41.5 -190.5
t-121 -119.5t-192.5 -41q-114 0 -194.5 41zM331 1631h209v-1808h-209v1808z" />
    <glyph glyph-name="percent" unicode="%" horiz-adv-x="1207" 
d="M825 1454h182l-623 -1454h-182zM749 41.5q-58 56.5 -58 156.5v211q0 101 58 157t165 56q108 0 166 -56t58 -159v-209q0 -101 -58.5 -157t-165.5 -56t-165 56.5zM952.5 146.5q13.5 14.5 13.5 41.5v233q0 26 -13.5 39.5t-38.5 13.5t-38.5 -13.5t-13.5 -40.5v-232
q0 -27 13.5 -41.5t38.5 -14.5t38.5 14.5zM128 887.5q-58 56.5 -58 156.5v211q0 101 58 157t165 56q108 0 166 -56t58 -159v-209q0 -101 -58.5 -157t-165.5 -56t-165 56.5zM331.5 992.5q13.5 14.5 13.5 41.5v233q0 26 -13.5 39.5t-38.5 13.5t-38.5 -13.5t-13.5 -40.5v-232
q0 -27 13.5 -41.5t38.5 -14.5t38.5 14.5z" />
    <glyph glyph-name="ampersand" unicode="&#x26;" horiz-adv-x="1025" 
d="M379 587q-67 109 -108 190.5t-64.5 168t-23.5 180.5q0 163 84.5 251.5t239.5 88.5t239 -87t84 -248v-116h-218v116q0 64 -27 99t-78 35q-50 0 -78 -36t-28 -103q0 -66 18 -133.5t51.5 -135.5t84.5 -147l461 -710h-272zM328 514.5q-66 -50.5 -66 -142.5q0 -90 49.5 -139.5
t138.5 -49.5q88 0 150 66t95 192.5t33 304.5h208q0 -240 -62 -411t-180 -260.5t-284 -89.5q-113 0 -194 45.5t-123.5 132.5t-42.5 209q0 166 99.5 265t280.5 114l83 -186q-119 0 -185 -50.5z" />
    <glyph glyph-name="quotesingle" unicode="'" horiz-adv-x="286" 
d="M36 1454h214v-510h-214v510z" />
    <glyph glyph-name="parenleft" unicode="(" horiz-adv-x="464" 
d="M146.5 99q-56.5 246 -56.5 549q0 304 56.5 550t166.5 411l168 -86q-90 -147 -136 -370.5t-46 -504.5q0 -280 46 -504t136 -372l-168 -85q-110 166 -166.5 412z" />
    <glyph glyph-name="parenright" unicode=")" horiz-adv-x="464" 
d="M-17 -228q90 148 136.5 372.5t46.5 503.5q0 280 -46.5 504t-136.5 371l169 86q109 -165 166 -411t57 -550q0 -303 -57 -549.5t-166 -411.5z" />
    <glyph glyph-name="asterisk" unicode="*" horiz-adv-x="556" 
d="M210 1194l103 98l204 -302l-145 -83zM40 990l204 302l103 -98l-162 -287zM6 1244l57 159l257 -111l-56 -132zM195 1567h166l-6 -344h-154zM237 1296l257 107l57 -159l-258 -84z" />
    <glyph glyph-name="plus" unicode="+" horiz-adv-x="672" 
d="M628 775v-209h-583v209h583zM439 264h-205v812h205v-812z" />
    <glyph glyph-name="comma" unicode="," horiz-adv-x="326" 
d="M54 219h219v-219l-219 -197v416z" />
    <glyph glyph-name="hyphen" unicode="-" horiz-adv-x="732" 
d="M628 626v-209h-523v209h523z" />
    <glyph glyph-name="period" unicode="." horiz-adv-x="326" 
d="M54 219h219v-219h-219v219z" />
    <glyph glyph-name="slash" unicode="/" horiz-adv-x="550" 
d="M216 -276h-202l321 1902h202z" />
    <glyph glyph-name="zero" unicode="0" horiz-adv-x="850" 
d="M181.5 74.5q-86.5 89.5 -86.5 252.5v801q0 163 86.5 252t243.5 89q158 0 244.5 -89t86.5 -252v-801q0 -163 -86.5 -252.5t-244.5 -89.5q-157 0 -243.5 89.5zM507.5 231q29.5 34 29.5 96v801q0 61 -29.5 95t-82.5 34q-52 0 -81.5 -34t-29.5 -95v-801q0 -62 29.5 -96
t81.5 -34q53 0 82.5 34z" />
    <glyph glyph-name="one" unicode="1" horiz-adv-x="551" 
d="M457 0h-219v1214l-203 -111v232l192 119h230v-1454z" />
    <glyph glyph-name="two" unicode="2" horiz-adv-x="820" 
d="M83 195l309 545q66 114 98 207t32 164v11q0 66 -25.5 99.5t-77.5 33.5q-61 0 -91 -45t-30 -135v-28h-223v28q0 131 37 218.5t111.5 131.5t186.5 44t186.5 -39t112 -116.5t37.5 -193.5v-10q0 -84 -35 -191t-105 -237l-253 -470h391v-212h-661v195z" />
    <glyph glyph-name="three" unicode="3" horiz-adv-x="813" 
d="M209 22q-76 37 -116.5 107.5t-40.5 169.5v104h221v-95q0 -34 14 -58t41 -37t65 -13q54 0 84 31t30 87v204q0 61 -28 95t-78 34h-90v212h90q39 0 60.5 28t21.5 79v190q0 44 -24 69t-67 25q-30 0 -52 -11.5t-33.5 -32.5t-11.5 -52v-107h-219v109q0 98 38 167.5t110.5 105.5
t174.5 36q145 0 224 -80.5t79 -228.5v-199q0 -54 -34.5 -107t-97.5 -95q74 -27 115 -87.5t41 -142.5v-214q0 -104 -39 -178.5t-114 -113t-180 -38.5q-108 0 -184 37z" />
    <glyph glyph-name="four" unicode="4" horiz-adv-x="885" 
d="M75 422l308 1031h228l-295 -1019h525v-211h-766v199zM532 827h215v-828h-215v828z" />
    <glyph glyph-name="five" unicode="5" horiz-adv-x="835" 
d="M242.5 22.5q-72.5 37.5 -110 109t-37.5 171.5v65h219v-65q0 -50 27 -77.5t75 -27.5q50 0 78 28.5t28 78.5v358q0 49 -25 75.5t-69 26.5q-45 0 -69.5 -25t-23.5 -71h-208v785h602v-212h-383v-325q30 30 69 46t79 16q78 0 133.5 -37t84.5 -108t29 -171v-358
q0 -101 -38.5 -173t-111 -109.5t-175.5 -37.5q-101 0 -173.5 37.5z" />
    <glyph glyph-name="six" unicode="6" horiz-adv-x="791" 
d="M216.5 26.5q-74.5 40.5 -113 118.5t-38.5 188v189q0 89 17 156.5t54 156.5q5 12 10 24.5t10 25.5l232 569h235l-295 -725l-64 36q35 47 81.5 73t95.5 26q90 0 154 -37t98 -108.5t34 -171.5v-211q0 -110 -39.5 -189t-113.5 -120t-179 -41q-104 0 -178.5 40.5zM480.5 231.5
q29.5 33.5 29.5 96.5v199q0 60 -30 93t-85 33q-54 0 -84 -33.5t-30 -93.5v-199q0 -62 30 -95.5t84 -33.5q56 0 85.5 33.5z" />
    <glyph glyph-name="seven" unicode="7" horiz-adv-x="781" 
d="M707 1277l-292 -1277h-221l290 1254h-216v-172h-213v372h652v-177z" />
    <glyph glyph-name="eight" unicode="8" horiz-adv-x="842" 
d="M240.5 22.5q-73.5 37.5 -112 108.5t-38.5 171v232q0 79 42.5 142t120.5 98q-69 30 -107.5 81.5t-38.5 114.5v200q0 94 36.5 161.5t106.5 102.5t168 35q100 0 171.5 -35t109 -102t37.5 -162v-200q0 -64 -39.5 -115.5t-110.5 -80.5q80 -35 123.5 -98t43.5 -142v-232
q0 -100 -39.5 -171t-115 -108.5t-180.5 -37.5q-104 0 -177.5 37.5zM482 210.5q27 13.5 41 38.5t14 60v245q0 33 -14 57t-41 36.5t-64 12.5q-35 0 -60 -12.5t-38.5 -36.5t-13.5 -58v-246q0 -34 13.5 -59t38.5 -38t60 -13q37 0 64 13.5zM474 881.5q24 13.5 36 39.5t12 62v161
q0 36 -12 62t-36 40t-56 14q-31 0 -53 -14t-33.5 -40t-11.5 -63v-162q0 -35 11.5 -61t33.5 -39t53 -13q32 0 56 13.5z" />
    <glyph glyph-name="nine" unicode="9" horiz-adv-x="791" 
d="M464 725l63 -36q-34 -47 -79.5 -73t-94.5 -26q-91 0 -155.5 37.5t-98.5 108.5t-34 171v212q0 110 39 188.5t113.5 120t178.5 41.5q105 0 179 -40.5t113 -118.5t39 -188v-190q0 -89 -18.5 -157.5t-58.5 -165.5q-4 -12 -8.5 -23t-8.5 -22l-220 -564h-235zM480 835
q30 33 30 92v202q0 62 -29.5 95t-84.5 33t-85 -33t-30 -95v-203q0 -59 30.5 -91.5t84.5 -32.5t84 33z" />
    <glyph glyph-name="colon" unicode=":" horiz-adv-x="326" 
d="M54 219h219v-219h-219v219zM54 1052h219v-219h-219v219z" />
    <glyph glyph-name="semicolon" unicode=";" horiz-adv-x="326" 
d="M54 219h219v-219l-219 -197v416zM54 1052h219v-219h-219v219z" />
    <glyph glyph-name="less" unicode="&#x3c;" horiz-adv-x="549" 
d="M306 666h-321l520 406v-271zM505 260l-520 406h321l199 -134v-272z" />
    <glyph glyph-name="equal" unicode="=" horiz-adv-x="570" 
d="M45 946h481v-212h-481v212zM45 598h481v-212h-481v212z" />
    <glyph glyph-name="greater" unicode="&#x3e;" horiz-adv-x="549" 
d="M45 1072l520 -406h-319l-201 135v271zM246 666h319l-520 -406v272z" />
    <glyph glyph-name="question" unicode="?" horiz-adv-x="712" 
d="M251 604.5q19 95.5 44.5 155.5t66.5 133q28 48 43.5 81t26 74t10.5 92v6q0 62 -27.5 95t-77.5 33q-49 0 -76.5 -35.5t-27.5 -98.5v-89h-219v87q0 104 38 178.5t110 113.5t173 39q103 0 175.5 -38t111 -111t38.5 -176v-6q0 -72 -12 -125t-29.5 -90.5t-49.5 -89.5
q-38 -64 -61 -115.5t-40 -136t-17 -205.5h-219q0 133 19 228.5zM232 219h219v-219h-219v219z" />
    <glyph glyph-name="at" unicode="@" horiz-adv-x="1426" 
d="M488 67q-61 82 -61 247v438q0 151 73 226t218 75q144 0 216 -75t72 -227v-493l-121 -34q-21 -122 -72 -180.5t-143 -58.5q-121 0 -182 82zM781.5 217q21.5 33 21.5 101v432q0 53 -21.5 79t-65.5 26q-87 0 -87 -106v-431q0 -67 22 -100.5t65 -33.5q44 0 65.5 33z
M371.5 -319q-138.5 63 -207.5 188t-69 313v341.5v340.5q0 192 70 320t208.5 192t344.5 64q202 0 338.5 -64t206 -192.5t69.5 -319.5v-575q0 -155 -67.5 -229.5t-193.5 -74.5q-117 0 -175.5 59t-58.5 177l169 61q0 -56 15 -82t48 -26q35 0 51 23t16 73v594q0 129 -47.5 216.5
t-140.5 131t-230 43.5q-139 0 -232.5 -43.5t-141 -130.5t-47.5 -217v-338.5v-343.5q0 -125 47 -208.5t140.5 -125t233.5 -41.5h298v-189h-298q-208 0 -346.5 63z" />
    <glyph glyph-name="A" unicode="A" horiz-adv-x="906" 
d="M366 1454h174l342 -1454h-225l-204 1055l-203 -1055h-225zM250 477h414v-205h-414v205z" />
    <glyph glyph-name="B" unicode="B" horiz-adv-x="859" 
d="M226 207h228q55 0 85.5 28t30.5 80v192q0 46 -14.5 78t-42.5 49t-66 17h-221v205h218q52 0 81 34.5t29 98.5v152q0 51 -29 79t-79 28h-220v206h231q99 0 169.5 -34.5t107.5 -101t37 -159.5v-155q0 -67 -23.5 -119t-68 -85t-107.5 -45q69 -10 117.5 -44t74.5 -88.5
t26 -126.5v-195q0 -96 -36 -163t-105.5 -102.5t-167.5 -35.5h-255v207zM95 1454h219v-1454h-219v1454z" />
    <glyph glyph-name="C" unicode="C" horiz-adv-x="856" 
d="M253 29q-77 44 -117.5 127t-40.5 200v742q0 117 40.5 200.5t117.5 127t185 43.5q109 0 186 -43.5t117.5 -127t40.5 -200.5v-90h-222v90q0 48 -14 82.5t-41.5 52.5t-66.5 18q-38 0 -65 -18t-41.5 -52.5t-14.5 -82.5v-742q0 -48 14.5 -82t41.5 -52t65 -18q39 0 66.5 18
t41.5 52t14 83v89h222v-89q0 -117 -40.5 -200.5t-117.5 -127.5t-186 -44q-108 0 -185 44z" />
    <glyph glyph-name="D" unicode="D" horiz-adv-x="884" 
d="M238 209h225q51 0 78.5 31t27.5 87v801q0 56 -27.5 86.5t-78.5 30.5h-225v209h235q100 0 171 -37t108.5 -107.5t37.5 -170.5v-824q0 -99 -37.5 -170t-109 -108t-171.5 -37h-234v209zM95 1454h219v-1454h-219v1454z" />
    <glyph glyph-name="E" unicode="E" horiz-adv-x="774" 
d="M95 1454h219v-1454h-219v1454zM199 211h531v-211h-531v211zM199 828h481v-211h-481v211zM199 1454h531v-211h-531v211z" />
    <glyph glyph-name="F" unicode="F" horiz-adv-x="755" 
d="M95 1454h219v-1454h-219v1454zM200 814h481v-209h-481v209zM200 1454h531v-209h-531v209z" />
    <glyph glyph-name="G" unicode="G" horiz-adv-x="904" 
d="M810 784v-430q0 -116 -42 -198.5t-121.5 -126.5t-191.5 -44q-113 0 -194 42t-123.5 121.5t-42.5 190.5v756q0 118 41.5 202t121.5 128t191 44q110 0 188 -42.5t119.5 -124.5t41.5 -196v-92h-229v92q0 46 -14 78.5t-41 49.5t-65 17q-41 0 -71.5 -18.5t-46 -53.5t-15.5 -84
v-756q0 -42 16.5 -72.5t48 -46.5t74.5 -16t74 17t47.5 50.5t16.5 80.5v223h-143v209h360z" />
    <glyph glyph-name="H" unicode="H" horiz-adv-x="870" 
d="M557 1454h219v-1454h-219v1454zM95 1454h219v-1454h-219v1454zM217 820h467v-207h-467v207z" />
    <glyph glyph-name="I" unicode="I" horiz-adv-x="386" 
d="M303 0h-219v1454h219v-1454z" />
    <glyph glyph-name="J" unicode="J" horiz-adv-x="725" 
d="M131.5 24q-77.5 39 -126.5 110l156 145q27 -37 62 -56.5t74 -19.5q55 0 85 33t30 94v1124h219v-1142q0 -103 -39 -176.5t-112.5 -112t-178.5 -38.5q-92 0 -169.5 39z" />
    <glyph glyph-name="K" unicode="K" horiz-adv-x="874" 
d="M268 658l332 796h244l-584 -1202zM95 1454h219v-1454h-219v1454zM386 786l150 149l354 -935h-244z" />
    <glyph glyph-name="L" unicode="L" horiz-adv-x="754" 
d="M95 1454h219v-1454h-219v1454zM197 209h513v-209h-513v209z" />
    <glyph glyph-name="M" unicode="M" horiz-adv-x="1136" 
d="M842 1454h200v-1454h-198v1058l16 -64l-230 -746h-123l-230 726l21 84v-1058h-203v1454h206l267 -851z" />
    <glyph glyph-name="N" unicode="N" horiz-adv-x="914" 
d="M95 1454h180l370 -1042l-29 -33v1075h204v-1453h-183l-367 997l29 33v-1030h-204v1453z" />
    <glyph glyph-name="O" unicode="O" horiz-adv-x="922" 
d="M263.5 27q-82.5 42 -125.5 121t-43 191v777q0 112 43 191.5t125.5 120.5t197.5 41q116 0 198 -41t125.5 -120.5t43.5 -191.5v-777q0 -112 -43.5 -191t-125.5 -121t-198 -42q-115 0 -197.5 42zM540 219.5q33 17.5 50 51t17 81.5v752q0 47 -17 80.5t-50 51t-79 17.5
t-78.5 -17.5t-49.5 -51t-17 -80.5v-752q0 -48 17 -81.5t49.5 -51t78.5 -17.5t79 17.5z" />
    <glyph glyph-name="P" unicode="P" horiz-adv-x="895" 
d="M205 773h266q35 0 60 16t38.5 46.5t13.5 72.5v197q0 44 -13 75.5t-38.5 48t-60.5 16.5h-266v209h268q105 0 180 -38.5t114 -112.5t39 -178v-238q0 -102 -39.5 -174.5t-114.5 -110.5t-179 -38h-268v209zM95 1454h219v-1454h-219v1454z" />
    <glyph glyph-name="Q" unicode="Q" horiz-adv-x="936" 
d="M399 294l132 156l436 -360l-131 -157zM263.5 27q-82.5 42 -125.5 121t-43 191v777q0 112 43 191.5t125.5 120.5t197.5 41q116 0 198 -41t125.5 -120.5t43.5 -191.5v-777q0 -112 -43.5 -191t-125.5 -121t-198 -42q-115 0 -197.5 42zM540 219.5q33 17.5 50 51t17 81.5v752
q0 47 -17 80.5t-50 51t-79 17.5t-78.5 -17.5t-49.5 -51t-17 -80.5v-752q0 -48 17 -81.5t49.5 -51t78.5 -17.5t79 17.5z" />
    <glyph glyph-name="R" unicode="R" horiz-adv-x="925" 
d="M195 824h265q41 0 71 15.5t45.5 44t15.5 69.5v155q0 43 -15.5 74.5t-45.5 47.5t-71 16h-265v209h249q117 0 200 -38.5t127 -113t44 -178.5v-170q0 -107 -44 -183.5t-127.5 -116.5t-199.5 -40h-249v209zM95 1455h216v-1455h-216v1455zM421 660l203 46l232 -706h-237z" />
    <glyph glyph-name="S" unicode="S" horiz-adv-x="883" 
d="M244.5 26q-80.5 41 -122.5 119.5t-42 190.5v75l218 1v-72q0 -67 37 -104t104 -37q65 0 100.5 36.5t35.5 103.5v127q0 47 -24.5 80t-61.5 55.5t-102 53.5q-3 1 -6 2.5t-6 2.5l-13 6q-87 42 -144.5 84t-97 114t-39.5 180v80q0 109 41.5 186.5t121.5 118t193 40.5
q111 0 189 -40.5t119 -119t41 -189.5v-79l-219 -2v76q0 68 -33.5 104.5t-96.5 36.5q-66 0 -101.5 -34t-35.5 -96v-94q0 -48 23.5 -82t59.5 -55.5t99 -51.5q9 -4 17.5 -8.5t18.5 -8.5q3 -2 6.5 -3.5t7.5 -3.5q85 -41 137 -77.5t88.5 -104t36.5 -174.5v-127
q0 -112 -41.5 -190.5t-121 -119.5t-192.5 -41q-114 0 -194.5 41z" />
    <glyph glyph-name="T" unicode="T" horiz-adv-x="706" 
d="M244 1334h219v-1334h-219v1334zM-5 1454h717v-209h-717v209z" />
    <glyph glyph-name="U" unicode="U" horiz-adv-x="842" 
d="M237 26.5q-76 41.5 -115.5 121t-39.5 192.5v1114h219v-1122q0 -62 31 -96t88 -34q58 0 89.5 34t31.5 96v1122h220v-1114q0 -113 -40 -192.5t-116.5 -121t-184.5 -41.5q-107 0 -183 41.5z" />
    <glyph glyph-name="V" unicode="V" horiz-adv-x="802" 
d="M5 1454h230l166 -1060l166 1060h231l-280 -1454h-233z" />
    <glyph glyph-name="W" unicode="W" horiz-adv-x="1154" 
d="M495 1454h165l169 -1066l100 1066h221l-193 -1454h-223l-151 964l-162 -964h-223l-193 1454h221l99 -1066z" />
    <glyph glyph-name="X" unicode="X" horiz-adv-x="802" 
d="M356 606l-39 82l-310 766h237l185 -559l44 -96l335 -799h-237zM345 836l204 618h237l-330 -803l-224 -651h-237z" />
    <glyph glyph-name="Y" unicode="Y" horiz-adv-x="720" 
d="M475 583v-583h-219v583l-281 871h225l164 -614l156 614h226z" />
    <glyph glyph-name="Z" unicode="Z" horiz-adv-x="744" 
d="M682 1263l-376 -1054h386v-209h-615v191l380 1054h-362v209h587v-191z" />
    <glyph glyph-name="bracketleft" unicode="[" horiz-adv-x="422" 
d="M106 1626h205v-1952h-205v1952zM218 -124h206v-202h-206v202zM218 1626h206v-202h-206v202z" />
    <glyph glyph-name="backslash" unicode="\" horiz-adv-x="550" 
d="M216 1626l320 -1902h-201l-321 1902h202z" />
    <glyph glyph-name="bracketright" unicode="]" horiz-adv-x="422" 
d="M112 1626h205v-1952h-205v1952zM4 -124h201v-202h-201v202zM-2 1626h201v-202h-201v202z" />
    <glyph glyph-name="asciicircum" unicode="^" horiz-adv-x="740" 
d="M370 1186v373l326 -559h-230zM45 1000l325 559v-373l-96 -186h-229z" />
    <glyph glyph-name="underscore" unicode="_" horiz-adv-x="662" 
d="M658 -3v-209h-653v209h653z" />
    <glyph glyph-name="grave" unicode="`" horiz-adv-x="393" 
d="M-8 1540l162 124l246 -355l-143 -105z" />
    <glyph glyph-name="a" unicode="a" horiz-adv-x="835" 
d="M521 752q0 52 -28 80.5t-78 28.5q-44 0 -68.5 -28.5t-24.5 -80.5h-211q0 145 80.5 224.5t227.5 79.5q98 0 168 -35.5t107 -104t37 -164.5v-752h-210v752zM152.5 59.5q-62.5 74.5 -62.5 219.5q0 171 84 258t248 87h105l14 -183h-112q-65 0 -98 -41t-33 -121
q0 -53 24.5 -79.5t73.5 -26.5q61 0 93 34t32 101l19 -92q-1 -75 -24.5 -127t-68.5 -78t-110 -26q-122 0 -184.5 74.5z" />
    <glyph glyph-name="b" unicode="b" horiz-adv-x="824" 
d="M387.5 32q-53.5 47 -77.5 131l14 154q0 -42 12 -72t34.5 -45.5t54.5 -15.5q47 0 73 36t26 101v405q0 62 -26 96.5t-73 34.5q-33 0 -55 -14.5t-34 -43.5t-12 -69l-21 136q34 90 91 140t126 50q70 0 119.5 -36t75.5 -105t26 -167v-449q0 -99 -27 -169.5t-78 -107.5
t-123 -37t-125.5 47zM105 1454h219v-1454h-219v1454z" />
    <glyph glyph-name="c" unicode="c" horiz-adv-x="772" 
d="M230.5 20q-71.5 35 -109 102t-37.5 161v461q0 99 37.5 169t109.5 106.5t173 36.5t173.5 -36.5t110.5 -107.5t38 -170v-62h-216v51q0 60 -27 93t-76 33t-76.5 -32.5t-27.5 -90.5v-441q0 -52 27.5 -80t76.5 -28t76 29.5t27 83.5v48l218 -2v-57q0 -95 -38.5 -162.5
t-111 -103.5t-174.5 -36t-173.5 35z" />
    <glyph glyph-name="d" unicode="d" horiz-adv-x="824" 
d="M501 1454h219v-1454h-219v1454zM183.5 17.5q-48.5 34.5 -74 101t-25.5 160.5v476q0 95 25.5 162.5t74 103t116.5 35.5q70 0 128 -49t94 -137l-21 -139q0 39 -12 67t-34 42.5t-54 14.5q-48 0 -74.5 -33t-26.5 -92v-429q0 -56 26.5 -86.5t74.5 -30.5q32 0 54 14t34 41.5
t12 65.5l14 -142q-27 -85 -83 -132.5t-132 -47.5q-68 0 -116.5 34.5z" />
    <glyph glyph-name="e" unicode="e" horiz-adv-x="802" 
d="M232 24q-72 39 -110 113.5t-38 179.5v388q0 111 37 190t107.5 120t169.5 41q100 0 171.5 -39t109 -113.5t37.5 -180.5v-284h-466v169h255v118q0 64 -28 99t-79 35q-49 0 -76 -37.5t-27 -105.5v-407q0 -59 29 -92t82 -33q49 0 75.5 25.5t26.5 71.5v22l211 -1v-18
q0 -143 -82 -221.5t-231 -78.5q-102 0 -174 39z" />
    <glyph glyph-name="f" unicode="f" horiz-adv-x="519" 
d="M123 1179q0 138 65 206.5t199 68.5h128v-206h-105q-34 0 -51.5 -23t-17.5 -60v-1165h-218v1179zM25 1038h490v-195h-490v195z" />
    <glyph glyph-name="g" unicode="g" horiz-adv-x="824" 
d="M170 -344q-81 78 -81 219v37l218 1v-37q0 -47 26 -73t72 -26t71 25.5t25 71.5v1164h219v-1164q0 -94 -38 -160t-110 -101t-174 -35q-147 0 -228 78zM183.5 17.5q-48.5 34.5 -74 101t-25.5 160.5v476q0 95 25.5 162.5t74 103t117.5 35.5t127 -49t94 -137l-21 -136
q0 39 -11.5 67t-34 42.5t-54.5 14.5q-48 0 -75 -33t-27 -92v-435q0 -56 27 -86.5t75 -30.5q32 0 54.5 14t34 41.5t11.5 65.5l14 -139q-27 -85 -83 -132.5t-131 -47.5q-69 0 -117.5 34.5z" />
    <glyph glyph-name="h" unicode="h" horiz-adv-x="854" 
d="M105 1454h219v-1454h-219v1454zM531 724q0 65 -26 97.5t-78 32.5t-77.5 -33t-25.5 -98l-19 137q32 96 92.5 146t137.5 50q103 0 159 -70t56 -201v-785h-219v724z" />
    <glyph glyph-name="i" unicode="i" horiz-adv-x="406" 
d="M94 1448h219v-218h-219v218zM94 1038h219v-1038h-219v1038z" />
    <glyph glyph-name="j" unicode="j" horiz-adv-x="427" 
d="M-5 -210h39q33 0 50.5 22t17.5 61v1165h221v-1185q0 -131 -68 -203t-191 -72h-69v212zM102 1446h221v-217h-221v217z" />
    <glyph glyph-name="k" unicode="k" horiz-adv-x="823" 
d="M231 417l362 621h225l-578 -911zM105 1454h217v-1454h-217v1454zM399 532l133 154l327 -686h-235z" />
    <glyph glyph-name="l" unicode="l" horiz-adv-x="473" 
d="M324 295q0 -39 18.5 -61t52.5 -22h44v-212h-86q-118 0 -183 72t-65 203v1179h219v-1159z" />
    <glyph glyph-name="m" unicode="m" horiz-adv-x="1284" 
d="M959 727q0 64 -26.5 96.5t-78.5 32.5q-51 0 -76.5 -33t-25.5 -99l-22 138q33 96 94.5 145t139.5 49q68 0 116.5 -31.5t74 -92.5t25.5 -147v-785h-221v727zM105 1038h220v-1038h-220v1038zM532 727q0 64 -25.5 96.5t-76.5 32.5q-52 0 -78.5 -33t-26.5 -99l-21 139
q34 95 95.5 144t139.5 49q68 0 116 -30t72.5 -88t24.5 -142v-796h-220v727z" />
    <glyph glyph-name="n" unicode="n" horiz-adv-x="854" 
d="M105 1038h220v-1038h-220v1038zM531 727q0 64 -26 96.5t-78 32.5q-51 0 -76.5 -33t-25.5 -99l-21 136q33 97 93.5 146.5t137.5 49.5q103 0 159 -70.5t56 -200.5v-785h-219v727z" />
    <glyph glyph-name="o" unicode="o" horiz-adv-x="776" 
d="M224.5 19.5q-68.5 34.5 -104.5 100t-36 157.5v492q0 91 36 155.5t104.5 98t164.5 33.5t164.5 -33.5t104 -98t35.5 -155.5v-495q0 -91 -35.5 -156t-104 -99t-164.5 -34t-164.5 34.5zM452.5 215q22.5 26 22.5 74v467q0 46 -22.5 71.5t-64.5 25.5q-40 0 -63.5 -26t-23.5 -71
v-467q0 -48 23 -74t64 -26q42 0 64.5 26z" />
    <glyph glyph-name="p" unicode="p" horiz-adv-x="824" 
d="M105 1038h219v-1460h-219v1460zM387.5 32q-53.5 47 -77.5 131l14 154q0 -42 12 -72t34.5 -45.5t54.5 -15.5q47 0 73 36t26 101v405q0 62 -26 96.5t-73 34.5q-32 0 -54.5 -14.5t-34.5 -43.5t-12 -69l-21 136q33 91 90.5 140.5t126.5 49.5q70 0 119.5 -36t75.5 -105
t26 -167v-449q0 -99 -27 -169.5t-77.5 -107.5t-122.5 -37q-73 0 -126.5 47z" />
    <glyph glyph-name="q" unicode="q" horiz-adv-x="824" 
d="M501 1038h219v-1460h-219v1460zM183.5 17.5q-48.5 34.5 -74 101t-25.5 160.5v476q0 95 25.5 162.5t74.5 103t117 35.5q69 0 128 -49t94 -137l-21 -139q0 39 -12 67t-34.5 42.5t-54.5 14.5q-48 0 -74.5 -33t-26.5 -92v-429q0 -56 26.5 -86.5t74.5 -30.5q32 0 54.5 14
t34.5 41.5t12 65.5l14 -142q-27 -85 -83.5 -132.5t-131.5 -47.5q-69 0 -117.5 34.5z" />
    <glyph glyph-name="r" unicode="r" horiz-adv-x="640" 
d="M105 1038h219v-1038h-219v1038zM569 830h-28q-102 0 -159 -54.5t-58 -149.5l-21 231q48 94 123 146.5t165 52.5v0v0v-226h-22z" />
    <glyph glyph-name="s" unicode="s" horiz-adv-x="738" 
d="M205 24q-72 39 -111.5 110t-39.5 165v13l209 1v-12q0 -55 29.5 -87.5t80.5 -32.5t80.5 30.5t29.5 82.5q0 37 -19 62t-48 40t-82 35q-6 2 -12.5 4.5t-13.5 5.5q-2 1 -5 2t-5 2q-68 27 -117 60.5t-81.5 93t-32.5 150.5q0 92 36.5 162t104 107.5t157.5 37.5q91 0 158.5 -36
t104 -103.5t36.5 -157.5v-12l-209 -1v14q0 47 -24 74t-66 27q-41 0 -64.5 -29.5t-23.5 -80.5q0 -40 19.5 -66t50 -41.5t80.5 -32.5q2 -1 4.5 -1.5t4.5 -1.5q1 -1 3 -1t4 -1q78 -26 128.5 -55.5t86 -91t35.5 -165.5q0 -94 -39.5 -163.5t-111.5 -107.5t-169 -38q-96 0 -168 39
z" />
    <glyph glyph-name="t" unicode="t" horiz-adv-x="538" 
d="M185 64.5q-62 69.5 -62 205.5v1070h218v-1050q0 -39 18 -61t51 -22h74v-212h-104q-133 0 -195 69.5zM25 1038h459v-203h-459v203z" />
    <glyph glyph-name="u" unicode="u" horiz-adv-x="834" 
d="M512 1038h218v-1038h-218v1038zM322 275q0 -48 24 -72t72 -24q47 0 70.5 25t23.5 75l14 -115q-26 -90 -74.5 -134.5t-120.5 -44.5q-113 0 -169.5 72t-56.5 214v767h217v-763z" />
    <glyph glyph-name="v" unicode="v" horiz-adv-x="794" 
d="M544 1038h216l-276 -1038h-171l-278 1038h215l148 -725z" />
    <glyph glyph-name="w" unicode="w" horiz-adv-x="1164" 
d="M45 1038h213l105 -726l137 726h165l136 -726l105 726h214l-233 -1038h-172l-133 703l-129 -703h-175z" />
    <glyph glyph-name="x" unicode="x" horiz-adv-x="804" 
d="M328 471l-278 567h235l190 -465l314 -573h-234zM342 572l102 -183l-177 -389h-233zM388 665l150 373h235l-295 -559z" />
    <glyph glyph-name="y" unicode="y" horiz-adv-x="769" 
d="M755 1038l-296 -1281q-15 -64 -52.5 -106t-98 -63t-144.5 -21h-54v213h56q61 0 93 24.5t44 82.5l239 1151h213zM35 1038h213l210 -899l-108 -238z" />
    <glyph glyph-name="z" unicode="z" horiz-adv-x="723" 
d="M639 849l-332 -643h359v-206h-594v193l346 639h-332v206h553v-189z" />
    <glyph glyph-name="braceleft" unicode="{" horiz-adv-x="518" 
d="M75 756q45 0 69.5 24t24.5 68v525q0 151 82.5 233.5t232.5 82.5v-208q-48 0 -75 -27.5t-27 -76.5v-539q0 -130 -80.5 -201t-226.5 -71v190zM251.5 -310.5q-82.5 82.5 -82.5 232.5v527q0 43 -24.5 67.5t-69.5 24.5v189q147 0 227 -74t80 -210v-526q0 -50 26.5 -77
t75.5 -27v-209q-150 0 -232.5 82.5z" />
    <glyph glyph-name="bar" unicode="|" horiz-adv-x="390" 
d="M87 1626h217v-1798h-217v1798z" />
    <glyph glyph-name="braceright" unicode="}" horiz-adv-x="518" 
d="M217 637.5q-81 71.5 -81 200.5v539q0 50 -26.5 77t-74.5 27v208q150 0 232 -82.5t82 -233.5v-525q0 -43 25 -67.5t70 -24.5v-190q-146 0 -227 71.5zM35 -184q48 0 74.5 27t26.5 77v526q0 136 80.5 210t227.5 74v-190q-45 0 -70 -24t-25 -68v-526q0 -150 -82 -232.5
t-232 -82.5v209z" />
    <glyph glyph-name="asciitilde" unicode="~" horiz-adv-x="657" 
d="M400.5 555q-25.5 9 -56.5 28l-9 6q-27 16 -45 23.5t-38 7.5q-19 0 -27.5 -11.5t-8.5 -32.5v-35h-177v71q0 103 42.5 157t122.5 54q33 0 57.5 -8.5t51.5 -25.5q2 -1 3.5 -2t3.5 -2l3 -1.5t2 -1.5q25 -14 41.5 -21t35.5 -7t29.5 13t10.5 38v33h177v-72q0 -107 -42 -163.5
t-122 -56.5q-29 0 -54.5 9z" />
    <glyph glyph-name="uni00A0" unicode="&#xa0;" horiz-adv-x="300" 
 />
    <glyph glyph-name="exclamdown" unicode="&#xa1;" horiz-adv-x="386" 
d="M84 668h219v-1084h-219v1084zM303 1038v-219h-219v219h219z" />
    <glyph glyph-name="cent" unicode="&#xa2;" horiz-adv-x="772" 
d="M230.5 20q-71.5 35 -109 102t-37.5 161v458q0 99 37.5 169t109.5 106.5t173 36.5t173.5 -36.5t110.5 -107.5t38 -170v-62l-214 -1v62q0 60 -27.5 93t-77.5 33t-77 -32.5t-27 -90.5v-458q0 -56 27 -87t77 -31t78 32t28 91v58l215 -2v-57q0 -95 -38.5 -162.5t-111 -103.5
t-174.5 -36t-173.5 35zM299 1215h210v-1392h-210v1392z" />
    <glyph glyph-name="sterling" unicode="&#xa3;" horiz-adv-x="858" 
d="M128.5 253.5q21.5 44.5 21.5 127.5v753q0 106 38 181.5t110.5 114.5t175.5 39q102 0 175 -39.5t111 -115t38 -182.5v-108h-219v105q0 61 -27.5 94.5t-77.5 33.5t-77.5 -33t-27.5 -93v-750q0 -114 -79 -176t-223 -62v66q40 0 61.5 44.5zM799 0h-739v209h739v-209zM604 713
v-162h-522v162h522z" />
    <glyph glyph-name="currency" unicode="&#xa4;" horiz-adv-x="980" 
d="M314.5 338q-73.5 48 -112 142t-38.5 226q0 131 38.5 224t112 141.5t176.5 48.5t177 -48.5t112.5 -142t38.5 -225.5q0 -194 -86 -301.5t-242 -110.5q-103 -2 -176.5 46zM585 536q34 60 34 168q0 111 -34 171.5t-95 60.5q-62 0 -96 -60.5t-34 -171.5q0 -108 34 -168t96 -60
q61 0 95 60zM64 368l183 180l156 -150l-182 -184zM64 1039l157 154l188 -191l-168 -136zM560 416l163 140l193 -188l-157 -154zM579 1011l180 182l157 -154l-197 -193z" />
    <glyph glyph-name="yen" unicode="&#xa5;" horiz-adv-x="720" 
d="M88 482h544v-122h-544v122zM88 269h544v-122h-544v122zM475 583v-583h-219v583l-281 871h225l164 -614l156 614h226z" />
    <glyph glyph-name="brokenbar" unicode="&#xa6;" horiz-adv-x="390" 
d="M87 1626h217v-711h-217v711zM87 517h217v-689h-217v689z" />
    <glyph glyph-name="section" unicode="&#xa7;" horiz-adv-x="951" 
d="M477 468q90 0 144 40t54 107q0 42 -18.5 72t-49.5 50.5t-76 39.5q-20 8 -41.5 15.5t-42.5 15.5q-105 38 -169.5 71.5t-109.5 96.5t-45 164q0 99 42 173.5t119 115t180 40.5q107 0 187.5 -37t124.5 -105t44 -157l-209 1q0 48 -36.5 77t-97.5 29q-64 0 -102.5 -36
t-38.5 -97q0 -48 28 -79t70 -50t117 -43q22 -7 45.5 -15t46.5 -16q72 -28 124 -65.5t84.5 -101.5t32.5 -159t-50.5 -167t-142.5 -111t-214 -39v170zM278 -166q-82 39 -127 110t-45 165l201 2q0 -56 43.5 -89.5t117.5 -33.5q70 0 112 32.5t42 87.5q0 46 -22 78t-60 53.5
t-94 41.5l-35 11q-8 2 -15 5t-15 5q-95 31 -158.5 64.5t-107 98.5t-43.5 170q0 102 50.5 179t142.5 119.5t214 42.5l61 -179q-6 1 -12 2.5t-11 2.5l-12 2l-12 2q-96 0 -153.5 -43t-57.5 -115q0 -47 27 -77.5t67.5 -48.5t111.5 -42l12 -4q7 -2 14 -4.5t14 -4.5
q91 -32 156 -71.5t107 -109.5t42 -178q0 -94 -45 -165t-128 -109.5t-192 -38.5q-108 0 -190 39z" />
    <glyph glyph-name="dieresis" unicode="&#xa8;" horiz-adv-x="536" 
d="M336 1448h218v-218h-218v218zM-17 1448h218v-218h-218v218z" />
    <glyph glyph-name="copyright" unicode="&#xa9;" horiz-adv-x="1190" 
d="M319.5 393q-114.5 54 -175 157.5t-60.5 248.5v298q0 151 60 258t174.5 163t276.5 56t276.5 -56t175 -163t60.5 -258v-298q0 -145 -60.5 -248.5t-175 -157.5t-276.5 -54q-161 0 -275.5 54zM420.5 691.5q-62.5 60.5 -62.5 169.5v201q0 109 62.5 169.5t174.5 60.5
q113 0 175.5 -60t62.5 -169v-40l-184 -1v40q0 30 -14 45.5t-40 15.5q-25 0 -39 -15.5t-14 -45.5v-201q0 -29 14 -45t39 -16q26 0 40 16t14 45v40l184 -1v-40q0 -109 -62.5 -169t-175.5 -60q-112 0 -174.5 60.5zM780 542.5q77 34.5 117.5 100t40.5 156.5v298q0 101 -40.5 172
t-117 108.5t-185.5 37.5q-108 0 -185 -37.5t-117 -108.5t-40 -172v-298q0 -91 40.5 -156.5t117.5 -100t184 -34.5q108 0 185 34.5z" />
    <glyph glyph-name="ordfeminine" unicode="&#xaa;" horiz-adv-x="575" 
d="M353 1247q0 31 -16.5 48.5t-44.5 17.5q-24 0 -41.5 -15t-16.5 -47h-155q0 115 60.5 162.5t156.5 47.5q102 0 158.5 -52t56.5 -155v-423h-158v416zM109 874q-44 50 -44 139q0 90 57.5 139.5t160.5 49.5h87l6 -130h-76q-36 0 -55.5 -16.5t-19.5 -47.5q0 -28 15 -43.5
t41 -15.5q36 0 54 18t18 51l19 -116q-20 -37 -56.5 -57.5t-82.5 -20.5q-80 0 -124 50z" />
    <glyph glyph-name="guillemotleft" unicode="&#xab;" horiz-adv-x="880" 
d="M616 878h227l-183 -358h-228zM32 520h228l184 -357h-228zM216 878h228l-184 -358h-228zM432 520h228l183 -357h-227z" />
    <glyph glyph-name="logicalnot" unicode="&#xac;" horiz-adv-x="720" 
d="M45 860h631v-205h-631v205zM462 803h214v-344h-214v344z" />
    <glyph glyph-name="uni00AD" unicode="&#xad;" horiz-adv-x="732" 
d="M628 626v-209h-523v209h523z" />
    <glyph glyph-name="registered" unicode="&#xae;" horiz-adv-x="1190" 
d="M319.5 393q-114.5 54 -175 157.5t-60.5 248.5v298q0 151 60 258t175 163t276 56q162 0 276.5 -56t175 -163t60.5 -258v-298q0 -145 -60.5 -248.5t-175.5 -157.5t-276 -54t-275.5 54zM390 1271h161v-623h-161v623zM562 890l133 65l149 -306h-178zM780 542.5
q77 34.5 117.5 100t40.5 156.5v298q0 101 -40.5 172t-117 108.5t-185.5 37.5q-108 0 -184.5 -37.5t-117 -108.5t-40.5 -172v-298q0 -91 40.5 -156.5t117.5 -100t184 -34.5q108 0 185 34.5zM490 976h105q32 0 51 20.5t19 57.5q0 38 -19 58t-51 20h-105v139h104
q110 0 169 -59.5t59 -157.5q0 -97 -59.5 -157t-168.5 -60h-104v139z" />
    <glyph glyph-name="macron" unicode="&#xaf;" horiz-adv-x="530" 
d="M530 1445v-215h-530v215h530z" />
    <glyph glyph-name="degree" unicode="&#xb0;" horiz-adv-x="556" 
d="M92.5 943.5q-57.5 70.5 -57.5 227.5t57.5 227.5t185.5 70.5t186 -71t58 -228q0 -156 -58 -226.5t-186 -70.5t-185.5 70.5zM331 1072.5q17 31.5 17 100.5q0 67 -17 97.5t-54 30.5q-36 0 -52 -30.5t-16 -99.5q0 -68 16 -99t52 -31q37 0 54 31.5z" />
    <glyph glyph-name="plusminus" unicode="&#xb1;" horiz-adv-x="672" 
d="M628 832v-188h-583v188h583zM438 346h-203v730h203v-730zM628 453v-188h-583v188h583z" />
    <glyph glyph-name="uni00B2" unicode="&#xb2;" horiz-adv-x="530" 
d="M77 979l110 107l7 7l6 6q34 34 56.5 62t34 52.5t11.5 45.5v20q0 22 -9.5 33t-27.5 11q-20 0 -30 -11.5t-10 -33.5v-41h-169v23q0 101 51.5 151t156.5 50t158 -43t53 -128v-14q0 -53 -29.5 -106.5t-89.5 -117.5l-63 -65h182v-156h-398v148z" />
    <glyph glyph-name="uni00B3" unicode="&#xb3;" horiz-adv-x="508" 
d="M140 844q-44 20 -66 60t-22 101v50h155v-40q0 -25 11 -36.5t33 -11.5t32.5 11t10.5 34v37q0 23 -14.5 34.5t-41.5 11.5h-33v107h33q22 0 34 9.5t12 27.5v36q0 21 -9 32t-28 11t-29 -10.5t-10 -31.5v-31h-156v31q0 62 22 103t66 61.5t110 20.5q99 0 147.5 -37.5
t48.5 -112.5v-44q0 -44 -23.5 -73.5t-72.5 -45.5q54 -7 80 -35t26 -77v-41q0 -86 -51 -128.5t-155 -42.5q-66 0 -110 20z" />
    <glyph glyph-name="acute" unicode="&#xb4;" horiz-adv-x="393" 
d="M-7 1311l246 355l162 -126l-265 -336z" />
    <glyph glyph-name="mu" unicode="&#xb5;" horiz-adv-x="865" 
d="M105 1043h217v-879l-6 -11l7 -433h-218v1323zM362 0.5q-27 15.5 -42 45t-16 72.5l18 147q0 -47 26 -71.5t75 -24.5q44 0 70.5 26t26.5 74l59 -151q-9 -64 -49.5 -98.5t-101.5 -34.5q-39 0 -66 15.5zM588.5 67q-68.5 67 -68.5 188v783h219v-738q0 -45 19.5 -70t56.5 -25
h48v-205h-80q-126 0 -194.5 67z" />
    <glyph glyph-name="paragraph" unicode="&#xb6;" horiz-adv-x="1052" 
d="M208 624.5q-87 51.5 -132.5 150.5t-45.5 238t45.5 238.5t132.5 151t210 51.5h155v-881h-155q-123 0 -210 51.5zM433 1454h203v-1690h-203v1690zM743 1454h206v-1690h-206v1690zM491 1454h532v-189h-532v189z" />
    <glyph glyph-name="periodcentered" unicode="&#xb7;" horiz-adv-x="326" 
d="M54 639h219v-219h-219v219z" />
    <glyph glyph-name="cedilla" unicode="&#xb8;" horiz-adv-x="393" 
d="M6 -404l41 144q45 -14 89 -14q33 0 49.5 11.5t16.5 35.5q0 25 -27.5 37t-82.5 12l91 114q102 0 153.5 -44t51.5 -134t-56.5 -135t-169.5 -45q-93 0 -156 18zM76 91h174v-269h-174v269z" />
    <glyph glyph-name="uni00B9" unicode="&#xb9;" horiz-adv-x="427" 
d="M363 831h-177v425l-121 -61v199l130 60h168v-623z" />
    <glyph glyph-name="ordmasculine" unicode="&#xba;" horiz-adv-x="590" 
d="M125 882q-60 58 -60 161v204q0 102 60 158t170 56q111 0 171 -56t60 -159v-203q0 -103 -60.5 -161t-170.5 -58t-170 58zM337.5 999q15.5 18 15.5 49v197q0 28 -15.5 44t-43.5 16q-27 0 -41.5 -16t-14.5 -46v-195q0 -32 14.5 -49.5t41.5 -17.5q28 0 43.5 18z" />
    <glyph glyph-name="guillemotright" unicode="&#xbb;" horiz-adv-x="880" 
d="M437 878h228l183 -358h-227zM221 520h228l-184 -357h-228zM37 878h228l184 -358h-228zM621 520h227l-183 -357h-228z" />
    <glyph glyph-name="onequarter" unicode="&#xbc;" horiz-adv-x="1211" 
d="M800 1454h183l-623 -1454h-182zM703 213l117 410h163l-113 -410h272v-134h-439v134zM959 340h149v-340h-149v340zM368 831h-177v425l-121 -61v199l130 60h168v-623z" />
    <glyph glyph-name="onehalf" unicode="&#xbd;" horiz-adv-x="1189" 
d="M791 1454h182l-619 -1454h-183zM368 831h-177v425l-121 -61v199l130 60h168v-623zM722 148l110 107l7 7l6 6q34 34 56.5 62t34 52.5t11.5 45.5v20q0 22 -9.5 33t-27.5 11q-20 0 -30 -11.5t-10 -33.5v-41h-169v23q0 101 51.5 151t156.5 50t158 -43t53 -128v-14
q0 -53 -29.5 -106.5t-89.5 -117.5l-63 -65h182v-156h-398v148z" />
    <glyph glyph-name="threequarters" unicode="&#xbe;" horiz-adv-x="1251" 
d="M828 1454h182l-621 -1454h-182zM743 213l117 410h163l-113 -410h272v-134h-439v134zM999 340h149v-340h-149v340zM119.5 869.5q-49.5 45.5 -49.5 135.5v50h154v-40q0 -25 11.5 -36.5t33.5 -11.5q21 0 32 11t11 34v37q0 23 -14.5 34.5t-42.5 11.5h-33v107h33q23 0 35 9.5
t12 27.5v36q0 21 -9 32t-28 11q-20 0 -29.5 -10.5t-9.5 -31.5v-31h-156v31q0 93 49.5 139t148.5 46q98 0 147 -37.5t49 -112.5v-44q0 -44 -24 -73.5t-72 -45.5q53 -7 79.5 -35t26.5 -77v-41q0 -86 -51.5 -128.5t-154.5 -42.5q-99 0 -148.5 45.5z" />
    <glyph glyph-name="questiondown" unicode="&#xbf;" horiz-adv-x="712" 
d="M202 -384q-73 38 -111 111.5t-38 175.5v7q0 72 12 125t29.5 90.5t48.5 88.5q39 64 62 116t40 136.5t17 204.5h217q0 -132 -18.5 -227.5t-43.5 -155t-64 -132.5q-27 -49 -42 -81.5t-25 -73.5t-10 -91v-7q0 -61 26 -94.5t74 -33.5q46 0 72.5 35.5t26.5 99.5v86h223v-86
q0 -105 -37.5 -179t-109.5 -113.5t-173 -39.5q-103 0 -176 38zM481 828h-219v219h219v-219z" />
    <glyph glyph-name="Agrave" unicode="&#xc0;" horiz-adv-x="906" 
d="M366 1454h174l342 -1454h-225l-204 1055l-203 -1055h-225zM250 477h414v-205h-414v205zM158 1777l162 157l246 -259l-137 -131z" />
    <glyph glyph-name="Aacute" unicode="&#xc1;" horiz-adv-x="906" 
d="M366 1454h174l342 -1454h-225l-204 1055l-203 -1055h-225zM250 477h414v-205h-414v205zM333 1675l248 259l162 -156l-272 -234z" />
    <glyph glyph-name="Acircumflex" unicode="&#xc2;" horiz-adv-x="906" 
d="M366 1454h174l342 -1454h-225l-204 1055l-203 -1055h-225zM250 477h414v-205h-414v205zM753 1676l-133 -125l-168 146l-168 -146l-134 125l302 253z" />
    <glyph glyph-name="Atilde" unicode="&#xc3;" horiz-adv-x="906" 
d="M366 1454h174l342 -1454h-225l-204 1055l-203 -1055h-225zM250 477h414v-205h-414v205zM551.5 1570.5q-19.5 4.5 -36.5 12.5t-36 20l-2 1l-4 2t-3 3q-24 15 -42.5 23t-39.5 8q-19 0 -27 -11t-8 -33v-34h-176v69q0 104 41 158.5t119 54.5q33 0 59 -9.5t54 -26.5h1
q2 -2 4.5 -2.5t4.5 -2.5q23 -14 39.5 -21t34.5 -7q19 0 29 13t10 37v32h177v-71q0 -107 -40.5 -163.5t-117.5 -56.5q-21 0 -40.5 4.5z" />
    <glyph glyph-name="Adieresis" unicode="&#xc4;" horiz-adv-x="906" 
d="M366 1454h174l342 -1454h-225l-204 1055l-203 -1055h-225zM250 477h414v-205h-414v205zM534 1793h218v-218h-218v218zM154 1793h218v-218h-218v218z" />
    <glyph glyph-name="Aring" unicode="&#xc5;" horiz-adv-x="906" 
d="M279 1474.5q-60 61.5 -60 178.5q0 122 60 186.5t174 64.5t174.5 -65t60.5 -186q0 -117 -60.5 -178.5t-174.5 -61.5t-174 61.5zM507.5 1587q19.5 25 19.5 70q0 48 -19 73.5t-55 25.5q-35 0 -54 -25.5t-19 -73.5q0 -45 19 -70t54 -25t54.5 25zM366 1454h174l342 -1454h-225
l-204 1055l-203 -1055h-225zM250 477h414v-205h-414v205z" />
    <glyph glyph-name="AE" unicode="&#xc6;" horiz-adv-x="1160" 
d="M342 1454h174l-303 -1454h-228zM243 477h407v-209h-407v209zM481 1454h219v-1454h-219v1454zM585 211h531v-211h-531v211zM585 828h481v-211h-481v211zM585 1454h531v-211h-531v211z" />
    <glyph glyph-name="Ccedilla" unicode="&#xc7;" horiz-adv-x="856" 
d="M253 29q-77 44 -117.5 127t-40.5 200v742q0 117 40.5 200.5t117.5 127t185 43.5q109 0 186 -43.5t117.5 -127t40.5 -200.5v-90h-222v90q0 48 -14 82.5t-41.5 52.5t-66.5 18q-38 0 -65 -18t-41.5 -52.5t-14.5 -82.5v-742q0 -48 14.5 -82t41.5 -52t65 -18q39 0 66.5 18
t41.5 52t14 83v89h222v-89q0 -117 -40.5 -200.5t-117.5 -127.5t-186 -44q-108 0 -185 44zM268 -404l41 144q40 -14 82 -14q40 0 60 11.5t20 35.5q0 25 -31 37t-93 12l91 114q110 0 164 -44t54 -134t-59.5 -135t-179.5 -45q-84 0 -149 18zM505 61v-241l-174 2v239h174z" />
    <glyph glyph-name="Egrave" unicode="&#xc8;" horiz-adv-x="774" 
d="M95 1454h219v-1454h-219v1454zM199 211h531v-211h-531v211zM199 828h481v-211h-481v211zM199 1454h531v-211h-531v211zM131 1777l162 157l246 -259l-137 -131z" />
    <glyph glyph-name="Eacute" unicode="&#xc9;" horiz-adv-x="774" 
d="M95 1454h219v-1454h-219v1454zM199 211h531v-211h-531v211zM199 828h481v-211h-481v211zM199 1454h531v-211h-531v211zM306 1675l248 259l162 -156l-272 -234z" />
    <glyph glyph-name="Ecircumflex" unicode="&#xca;" horiz-adv-x="774" 
d="M95 1454h219v-1454h-219v1454zM199 211h531v-211h-531v211zM199 828h481v-211h-481v211zM199 1454h531v-211h-531v211zM726 1676l-133 -125l-168 146l-168 -146l-134 125l302 253z" />
    <glyph glyph-name="Edieresis" unicode="&#xcb;" horiz-adv-x="774" 
d="M95 1454h219v-1454h-219v1454zM199 211h531v-211h-531v211zM199 828h481v-211h-481v211zM199 1454h531v-211h-531v211zM507 1793h218v-218h-218v218zM127 1793h218v-218h-218v218z" />
    <glyph glyph-name="Igrave" unicode="&#xcc;" horiz-adv-x="386" 
d="M303 0h-219v1454h219v-1454zM-102 1777l162 157l246 -259l-137 -131z" />
    <glyph glyph-name="Iacute" unicode="&#xcd;" horiz-adv-x="386" 
d="M303 0h-219v1454h219v-1454zM73 1675l248 259l162 -156l-272 -234z" />
    <glyph glyph-name="Icircumflex" unicode="&#xce;" horiz-adv-x="386" 
d="M303 0h-219v1454h219v-1454zM493 1676l-133 -125l-168 146l-168 -146l-134 125l302 253z" />
    <glyph glyph-name="Idieresis" unicode="&#xcf;" horiz-adv-x="386" 
d="M303 0h-219v1454h219v-1454zM274 1793h218v-218h-218v218zM-106 1793h218v-218h-218v218z" />
    <glyph glyph-name="Eth" unicode="&#xd0;" horiz-adv-x="906" 
d="M260 209h225q51 0 78.5 31t27.5 87v801q0 56 -27.5 86.5t-78.5 30.5h-225v209h235q100 0 171 -37t108.5 -107.5t37.5 -170.5v-824q0 -99 -37.5 -170t-109 -108t-171.5 -37h-234v209zM117 1454h219v-1454h-219v1454zM491 828v-201h-481v201h481z" />
    <glyph glyph-name="Ntilde" unicode="&#xd1;" horiz-adv-x="914" 
d="M95 1454h180l370 -1042l-29 -33v1075h204v-1453h-183l-367 997l29 33v-1030h-204v1453zM570.5 1570.5q-19.5 4.5 -36.5 12.5t-36 20l-2 1l-4 2t-3 3q-24 15 -42.5 23t-39.5 8q-19 0 -27 -11t-8 -33v-34h-176v69q0 104 41 158.5t119 54.5q33 0 59 -9.5t54 -26.5h1
q2 -2 4.5 -2.5t4.5 -2.5q23 -14 39.5 -21t34.5 -7q19 0 29 13t10 37v32h177v-71q0 -107 -40.5 -163.5t-117.5 -56.5q-21 0 -40.5 4.5z" />
    <glyph glyph-name="Ograve" unicode="&#xd2;" horiz-adv-x="922" 
d="M263.5 27q-82.5 42 -125.5 121t-43 191v777q0 112 43 191.5t125.5 120.5t197.5 41q116 0 198 -41t125.5 -120.5t43.5 -191.5v-777q0 -112 -43.5 -191t-125.5 -121t-198 -42q-115 0 -197.5 42zM540 219.5q33 17.5 50 51t17 81.5v752q0 47 -17 80.5t-50 51t-79 17.5
t-78.5 -17.5t-49.5 -51t-17 -80.5v-752q0 -48 17 -81.5t49.5 -51t78.5 -17.5t79 17.5zM166 1777l162 157l246 -259l-137 -131z" />
    <glyph glyph-name="Oacute" unicode="&#xd3;" horiz-adv-x="922" 
d="M263.5 27q-82.5 42 -125.5 121t-43 191v777q0 112 43 191.5t125.5 120.5t197.5 41q116 0 198 -41t125.5 -120.5t43.5 -191.5v-777q0 -112 -43.5 -191t-125.5 -121t-198 -42q-115 0 -197.5 42zM540 219.5q33 17.5 50 51t17 81.5v752q0 47 -17 80.5t-50 51t-79 17.5
t-78.5 -17.5t-49.5 -51t-17 -80.5v-752q0 -48 17 -81.5t49.5 -51t78.5 -17.5t79 17.5zM341 1675l248 259l162 -156l-272 -234z" />
    <glyph glyph-name="Ocircumflex" unicode="&#xd4;" horiz-adv-x="922" 
d="M263.5 27q-82.5 42 -125.5 121t-43 191v777q0 112 43 191.5t125.5 120.5t197.5 41q116 0 198 -41t125.5 -120.5t43.5 -191.5v-777q0 -112 -43.5 -191t-125.5 -121t-198 -42q-115 0 -197.5 42zM540 219.5q33 17.5 50 51t17 81.5v752q0 47 -17 80.5t-50 51t-79 17.5
t-78.5 -17.5t-49.5 -51t-17 -80.5v-752q0 -48 17 -81.5t49.5 -51t78.5 -17.5t79 17.5zM761 1676l-133 -125l-168 146l-168 -146l-134 125l302 253z" />
    <glyph glyph-name="Otilde" unicode="&#xd5;" horiz-adv-x="922" 
d="M263.5 27q-82.5 42 -125.5 121t-43 191v777q0 112 43 191.5t125.5 120.5t197.5 41q116 0 198 -41t125.5 -120.5t43.5 -191.5v-777q0 -112 -43.5 -191t-125.5 -121t-198 -42q-115 0 -197.5 42zM540 219.5q33 17.5 50 51t17 81.5v752q0 47 -17 80.5t-50 51t-79 17.5
t-78.5 -17.5t-49.5 -51t-17 -80.5v-752q0 -48 17 -81.5t49.5 -51t78.5 -17.5t79 17.5zM559.5 1570.5q-19.5 4.5 -36.5 12.5t-36 20l-2 1l-4 2t-3 3q-24 15 -42.5 23t-39.5 8q-19 0 -27 -11t-8 -33v-34h-176v69q0 104 41 158.5t119 54.5q33 0 59 -9.5t54 -26.5h1
q2 -2 4.5 -2.5t4.5 -2.5q23 -14 39.5 -21t34.5 -7q19 0 29 13t10 37v32h177v-71q0 -107 -40.5 -163.5t-117.5 -56.5q-21 0 -40.5 4.5z" />
    <glyph glyph-name="Odieresis" unicode="&#xd6;" horiz-adv-x="922" 
d="M263.5 27q-82.5 42 -125.5 121t-43 191v777q0 112 43 191.5t125.5 120.5t197.5 41q116 0 198 -41t125.5 -120.5t43.5 -191.5v-777q0 -112 -43.5 -191t-125.5 -121t-198 -42q-115 0 -197.5 42zM540 219.5q33 17.5 50 51t17 81.5v752q0 47 -17 80.5t-50 51t-79 17.5
t-78.5 -17.5t-49.5 -51t-17 -80.5v-752q0 -48 17 -81.5t49.5 -51t78.5 -17.5t79 17.5zM542 1793h218v-218h-218v218zM162 1793h218v-218h-218v218z" />
    <glyph glyph-name="multiply" unicode="&#xd7;" horiz-adv-x="721" 
d="M50 414l477 618l150 -117l-476 -618zM45 920l148 114l483 -615l-148 -115z" />
    <glyph glyph-name="Oslash" unicode="&#xd8;" horiz-adv-x="922" 
d="M604 1597h149l-433 -1728h-151zM263.5 27q-82.5 42 -125.5 121t-43 191v777q0 112 43 191.5t125.5 120.5t197.5 41q116 0 198 -41t125.5 -120.5t43.5 -191.5v-777q0 -112 -43.5 -191t-125.5 -121t-198 -42q-115 0 -197.5 42zM540 219.5q33 17.5 50 51t17 81.5v752
q0 47 -17 80.5t-50 51t-79 17.5t-78.5 -17.5t-49.5 -51t-17 -80.5v-752q0 -48 17 -81.5t49.5 -51t78.5 -17.5t79 17.5z" />
    <glyph glyph-name="Ugrave" unicode="&#xd9;" horiz-adv-x="842" 
d="M237 26.5q-76 41.5 -115.5 121t-39.5 192.5v1114h219v-1122q0 -62 31 -96t88 -34q58 0 89.5 34t31.5 96v1122h220v-1114q0 -113 -40 -192.5t-116.5 -121t-184.5 -41.5q-107 0 -183 41.5zM125 1777l162 157l246 -259l-137 -131z" />
    <glyph glyph-name="Uacute" unicode="&#xda;" horiz-adv-x="842" 
d="M237 26.5q-76 41.5 -115.5 121t-39.5 192.5v1114h219v-1122q0 -62 31 -96t88 -34q58 0 89.5 34t31.5 96v1122h220v-1114q0 -113 -40 -192.5t-116.5 -121t-184.5 -41.5q-107 0 -183 41.5zM300 1675l248 259l162 -156l-272 -234z" />
    <glyph glyph-name="Ucircumflex" unicode="&#xdb;" horiz-adv-x="842" 
d="M237 26.5q-76 41.5 -115.5 121t-39.5 192.5v1114h219v-1122q0 -62 31 -96t88 -34q58 0 89.5 34t31.5 96v1122h220v-1114q0 -113 -40 -192.5t-116.5 -121t-184.5 -41.5q-107 0 -183 41.5zM720 1676l-133 -125l-168 146l-168 -146l-134 125l302 253z" />
    <glyph glyph-name="Udieresis" unicode="&#xdc;" horiz-adv-x="842" 
d="M237 26.5q-76 41.5 -115.5 121t-39.5 192.5v1114h219v-1122q0 -62 31 -96t88 -34q58 0 89.5 34t31.5 96v1122h220v-1114q0 -113 -40 -192.5t-116.5 -121t-184.5 -41.5q-107 0 -183 41.5zM501 1793h218v-218h-218v218zM121 1793h218v-218h-218v218z" />
    <glyph glyph-name="Yacute" unicode="&#xdd;" horiz-adv-x="720" 
d="M475 583v-583h-219v583l-281 871h225l164 -614l156 614h226zM240 1675l248 259l162 -156l-272 -234z" />
    <glyph glyph-name="Thorn" unicode="&#xde;" horiz-adv-x="865" 
d="M211 516h232q35 0 60 16t38.5 46.5t13.5 72.5v191q0 45 -13 76.5t-38.5 47.5t-60.5 16h-232v212h232q105 0 180 -38.5t114 -112.5t39 -178v-238q0 -102 -39.5 -174.5t-114.5 -110.5t-179 -38h-232v212zM95 1454h219v-1454h-219v1454z" />
    <glyph glyph-name="germandbls" unicode="&#xdf;" horiz-adv-x="852" 
d="M105 1171q0 94 37.5 161t109 102t171.5 35q103 0 175.5 -34.5t111 -101t38.5 -160.5v-137q0 -77 -35 -128t-97 -65q63 -15 97.5 -68.5t34.5 -134.5v-393q0 -125 -81.5 -193.5t-230.5 -68.5h-6v212h6q44 0 68.5 22t24.5 62v372q0 38 -24.5 59.5t-68.5 21.5h-6v212h6
q44 0 68.5 25t24.5 71v124q0 53 -26 82.5t-73 29.5q-50 0 -78 -30.5t-28 -86.5v-1161h-219v1171z" />
    <glyph glyph-name="agrave" unicode="&#xe0;" horiz-adv-x="835" 
d="M521 752q0 52 -28 80.5t-78 28.5q-44 0 -68.5 -28.5t-24.5 -80.5h-211q0 145 80.5 224.5t227.5 79.5q98 0 168 -35.5t107 -104t37 -164.5v-752h-210v752zM152.5 59.5q-62.5 74.5 -62.5 219.5q0 171 84 258t248 87h105l14 -183h-112q-65 0 -98 -41t-33 -121
q0 -53 24.5 -79.5t73.5 -26.5q61 0 93 34t32 101l19 -92q-1 -75 -24.5 -127t-68.5 -78t-110 -26q-122 0 -184.5 74.5zM133 1540l162 124l246 -355l-143 -105z" />
    <glyph glyph-name="aacute" unicode="&#xe1;" horiz-adv-x="835" 
d="M521 752q0 52 -28 80.5t-78 28.5q-44 0 -68.5 -28.5t-24.5 -80.5h-211q0 145 80.5 224.5t227.5 79.5q98 0 168 -35.5t107 -104t37 -164.5v-752h-210v752zM152.5 59.5q-62.5 74.5 -62.5 219.5q0 171 84 258t248 87h105l14 -183h-112q-65 0 -98 -41t-33 -121
q0 -53 24.5 -79.5t73.5 -26.5q61 0 93 34t32 101l19 -92q-1 -75 -24.5 -127t-68.5 -78t-110 -26q-122 0 -184.5 74.5zM299 1311l246 355l162 -126l-265 -336z" />
    <glyph glyph-name="acircumflex" unicode="&#xe2;" horiz-adv-x="835" 
d="M521 752q0 52 -28 80.5t-78 28.5q-44 0 -68.5 -28.5t-24.5 -80.5h-211q0 145 80.5 224.5t227.5 79.5q98 0 168 -35.5t107 -104t37 -164.5v-752h-210v752zM152.5 59.5q-62.5 74.5 -62.5 219.5q0 171 84 258t248 87h105l14 -183h-112q-65 0 -98 -41t-33 -121
q0 -53 24.5 -79.5t73.5 -26.5q61 0 93 34t32 101l19 -92q-1 -75 -24.5 -127t-68.5 -78t-110 -26q-122 0 -184.5 74.5zM700 1317l-127 -114l-150 178l-150 -178l-126 114l276 314z" />
    <glyph glyph-name="atilde" unicode="&#xe3;" horiz-adv-x="835" 
d="M521 752q0 52 -28 80.5t-78 28.5q-44 0 -68.5 -28.5t-24.5 -80.5h-211q0 145 80.5 224.5t227.5 79.5q98 0 168 -35.5t107 -104t37 -164.5v-752h-210v752zM152.5 59.5q-62.5 74.5 -62.5 219.5q0 171 84 258t248 87h105l14 -183h-112q-65 0 -98 -41t-33 -121
q0 -53 24.5 -79.5t73.5 -26.5q61 0 93 34t32 101l19 -92q-1 -75 -24.5 -127t-68.5 -78t-110 -26q-122 0 -184.5 74.5zM498.5 1233.5q-24.5 7.5 -53.5 23.5l-7 4q-4 3 -8 5.5t-9 4.5q-24 15 -41 22t-37 7q-21 0 -30.5 -11t-9.5 -32v-35h-166v70q0 104 41 158t119 54
q32 0 57.5 -8t52.5 -23l7 -5l14 -8q22 -12 37.5 -18.5t32.5 -6.5q22 0 33.5 13t11.5 37v32h167v-70q0 -108 -41 -164.5t-117 -56.5q-29 0 -53.5 7.5z" />
    <glyph glyph-name="adieresis" unicode="&#xe4;" horiz-adv-x="835" 
d="M521 752q0 52 -28 80.5t-78 28.5q-44 0 -68.5 -28.5t-24.5 -80.5h-211q0 145 80.5 224.5t227.5 79.5q98 0 168 -35.5t107 -104t37 -164.5v-752h-210v752zM152.5 59.5q-62.5 74.5 -62.5 219.5q0 171 84 258t248 87h105l14 -183h-112q-65 0 -98 -41t-33 -121
q0 -53 24.5 -79.5t73.5 -26.5q61 0 93 34t32 101l19 -92q-1 -75 -24.5 -127t-68.5 -78t-110 -26q-122 0 -184.5 74.5zM491 1448h218v-218h-218v218zM138 1448h218v-218h-218v218z" />
    <glyph glyph-name="aring" unicode="&#xe5;" horiz-adv-x="835" 
d="M521 752q0 52 -28 80.5t-78 28.5q-44 0 -68.5 -28.5t-24.5 -80.5h-211q0 145 80.5 224.5t227.5 79.5q98 0 168 -35.5t107 -104t37 -164.5v-752h-210v752zM152.5 59.5q-62.5 74.5 -62.5 219.5q0 171 84 258t248 87h105l14 -183h-112q-65 0 -98 -41t-33 -121
q0 -53 24.5 -79.5t73.5 -26.5q61 0 93 34t32 101l19 -92q-1 -75 -24.5 -127t-68.5 -78t-110 -26q-122 0 -184.5 74.5zM253.5 1265q-57.5 61 -57.5 179q0 124 57.5 187.5t169.5 63.5t170 -64.5t58 -186.5q0 -118 -58 -179t-170 -61t-169.5 61zM476 1373.5q18 25.5 18 74.5
q0 51 -18 77t-53 26t-52.5 -26t-17.5 -77q0 -50 17.5 -75t52.5 -25t53 25.5z" />
    <glyph glyph-name="ae" unicode="&#xe6;" horiz-adv-x="1242" 
d="M518 752q0 51 -27.5 79t-77.5 28q-43 0 -67.5 -28.5t-24.5 -79.5l-210 1q0 145 78 224.5t219 79.5q128 0 198.5 -79t70.5 -224v-550h-159v549zM163 63.5q-73 78.5 -73 229.5q0 162 84 247t245 85h112l7 -176h-112q-64 0 -97 -40t-33 -116q0 -62 26 -94t78 -32
q39 0 65.5 14t39.5 41.5t13 67.5h86l44 -67q-3 -117 -72 -177.5t-199 -60.5q-141 0 -214 78.5zM714.5 24q-61.5 39 -93.5 113.5t-32 178.5v391q0 110 31.5 188.5t91 119.5t144.5 41q95 0 162.5 -39t102.5 -114t35 -180v-270h-460v168h250v106q0 64 -25.5 98.5t-74.5 34.5
q-47 0 -73 -37.5t-26 -105.5v-407q0 -60 28 -92.5t78 -32.5q47 0 72 25t25 72v21h209v-18q0 -143 -77.5 -221.5t-219.5 -78.5q-86 0 -147.5 39z" />
    <glyph glyph-name="ccedilla" unicode="&#xe7;" horiz-adv-x="772" 
d="M230.5 20q-71.5 35 -109 102t-37.5 161v461q0 99 37.5 169t109.5 106.5t173 36.5t173.5 -36.5t110.5 -107.5t38 -170v-62h-216v51q0 60 -27 93t-76 33t-76.5 -32.5t-27.5 -90.5v-441q0 -52 27.5 -80t76.5 -28t76 29.5t27 83.5v48l218 -2v-57q0 -95 -38.5 -162.5
t-111 -103.5t-174.5 -36t-173.5 35zM227 -404l41 144q45 -14 89 -14q33 0 49.5 11.5t16.5 35.5q0 25 -27.5 37t-82.5 12l91 114q102 0 153.5 -44t51.5 -134t-56.5 -135t-169.5 -45q-93 0 -156 18zM297 91h174v-269h-174v269z" />
    <glyph glyph-name="egrave" unicode="&#xe8;" horiz-adv-x="802" 
d="M232 24q-72 39 -110 113.5t-38 179.5v388q0 111 37 190t107.5 120t169.5 41q100 0 171.5 -39t109 -113.5t37.5 -180.5v-284h-466v169h255v118q0 64 -28 99t-79 35q-49 0 -76 -37.5t-27 -105.5v-407q0 -59 29 -92t82 -33q49 0 75.5 25.5t26.5 71.5v22l211 -1v-18
q0 -143 -82 -221.5t-231 -78.5q-102 0 -174 39zM109 1540l162 124l246 -355l-143 -105z" />
    <glyph glyph-name="eacute" unicode="&#xe9;" horiz-adv-x="802" 
d="M232 24q-72 39 -110 113.5t-38 179.5v388q0 111 37 190t107.5 120t169.5 41q100 0 171.5 -39t109 -113.5t37.5 -180.5v-284h-466v169h255v118q0 64 -28 99t-79 35q-49 0 -76 -37.5t-27 -105.5v-407q0 -59 29 -92t82 -33q49 0 75.5 25.5t26.5 71.5v22l211 -1v-18
q0 -143 -82 -221.5t-231 -78.5q-102 0 -174 39zM275 1311l246 355l162 -126l-265 -336z" />
    <glyph glyph-name="ecircumflex" unicode="&#xea;" horiz-adv-x="802" 
d="M232 24q-72 39 -110 113.5t-38 179.5v388q0 111 37 190t107.5 120t169.5 41q100 0 171.5 -39t109 -113.5t37.5 -180.5v-284h-466v169h255v118q0 64 -28 99t-79 35q-49 0 -76 -37.5t-27 -105.5v-407q0 -59 29 -92t82 -33q49 0 75.5 25.5t26.5 71.5v22l211 -1v-18
q0 -143 -82 -221.5t-231 -78.5q-102 0 -174 39zM676 1317l-127 -114l-150 178l-150 -178l-126 114l276 314z" />
    <glyph glyph-name="edieresis" unicode="&#xeb;" horiz-adv-x="802" 
d="M232 24q-72 39 -110 113.5t-38 179.5v388q0 111 37 190t107.5 120t169.5 41q100 0 171.5 -39t109 -113.5t37.5 -180.5v-284h-466v169h255v118q0 64 -28 99t-79 35q-49 0 -76 -37.5t-27 -105.5v-407q0 -59 29 -92t82 -33q49 0 75.5 25.5t26.5 71.5v22l211 -1v-18
q0 -143 -82 -221.5t-231 -78.5q-102 0 -174 39zM467 1448h218v-218h-218v218zM114 1448h218v-218h-218v218z" />
    <glyph glyph-name="igrave" unicode="&#xec;" horiz-adv-x="406" 
d="M94 1038h219v-1038h-219v1038zM-87 1540l162 124l246 -355l-143 -105z" />
    <glyph glyph-name="iacute" unicode="&#xed;" horiz-adv-x="406" 
d="M94 1038h219v-1038h-219v1038zM79 1311l246 355l162 -126l-265 -336z" />
    <glyph glyph-name="icircumflex" unicode="&#xee;" horiz-adv-x="406" 
d="M94 1038h219v-1038h-219v1038zM480 1317l-127 -114l-150 178l-150 -178l-126 114l276 314z" />
    <glyph glyph-name="idieresis" unicode="&#xef;" horiz-adv-x="406" 
d="M94 1038h219v-1038h-219v1038zM271 1448h218v-218h-218v218zM-82 1448h218v-218h-218v218z" />
    <glyph glyph-name="eth" unicode="&#xf0;" horiz-adv-x="765" 
d="M475 802q1 119 -30.5 230t-96.5 216l-130 206h237l85 -162q64 -123 97.5 -257t33.5 -288zM671 747v-484q0 -87 -35.5 -149t-103.5 -95.5t-163 -33.5q-90 0 -154 33t-97.5 95t-33.5 150v487q0 96 27.5 164.5t81 105t127.5 36.5q63 0 106.5 -38t81.5 -116zM462 741
q0 127 -88 127q-40 0 -60.5 -32t-20.5 -95v-469q0 -98 81 -98q44 0 66 24.5t22 73.5v469zM615 1425l45 -160l-521 -138l-46 159z" />
    <glyph glyph-name="ntilde" unicode="&#xf1;" horiz-adv-x="854" 
d="M105 1038h220v-1038h-220v1038zM531 727q0 64 -26 96.5t-78 32.5q-51 0 -76.5 -33t-25.5 -99l-21 136q33 97 93.5 146.5t137.5 49.5q103 0 159 -70.5t56 -200.5v-785h-219v727zM497.5 1233.5q-24.5 7.5 -53.5 23.5l-7 4q-4 3 -8 5.5t-9 4.5q-24 15 -41 22t-37 7
q-21 0 -30.5 -11t-9.5 -32v-35h-166v70q0 104 41 158t119 54q32 0 57.5 -8t52.5 -23l7 -5l14 -8q22 -12 37.5 -18.5t32.5 -6.5q22 0 33.5 13t11.5 37v32h167v-70q0 -108 -41 -164.5t-117 -56.5q-29 0 -53.5 7.5z" />
    <glyph glyph-name="ograve" unicode="&#xf2;" horiz-adv-x="776" 
d="M224.5 19.5q-68.5 34.5 -104.5 100t-36 157.5v492q0 91 36 155.5t104.5 98t164.5 33.5t164.5 -33.5t104 -98t35.5 -155.5v-495q0 -91 -35.5 -156t-104 -99t-164.5 -34t-164.5 34.5zM452.5 215q22.5 26 22.5 74v467q0 46 -22.5 71.5t-64.5 25.5q-40 0 -63.5 -26t-23.5 -71
v-467q0 -48 23 -74t64 -26q42 0 64.5 26zM98 1540l162 124l246 -355l-143 -105z" />
    <glyph glyph-name="oacute" unicode="&#xf3;" horiz-adv-x="776" 
d="M224.5 19.5q-68.5 34.5 -104.5 100t-36 157.5v492q0 91 36 155.5t104.5 98t164.5 33.5t164.5 -33.5t104 -98t35.5 -155.5v-495q0 -91 -35.5 -156t-104 -99t-164.5 -34t-164.5 34.5zM452.5 215q22.5 26 22.5 74v467q0 46 -22.5 71.5t-64.5 25.5q-40 0 -63.5 -26t-23.5 -71
v-467q0 -48 23 -74t64 -26q42 0 64.5 26zM264 1311l246 355l162 -126l-265 -336z" />
    <glyph glyph-name="ocircumflex" unicode="&#xf4;" horiz-adv-x="776" 
d="M224.5 19.5q-68.5 34.5 -104.5 100t-36 157.5v492q0 91 36 155.5t104.5 98t164.5 33.5t164.5 -33.5t104 -98t35.5 -155.5v-495q0 -91 -35.5 -156t-104 -99t-164.5 -34t-164.5 34.5zM452.5 215q22.5 26 22.5 74v467q0 46 -22.5 71.5t-64.5 25.5q-40 0 -63.5 -26t-23.5 -71
v-467q0 -48 23 -74t64 -26q42 0 64.5 26zM665 1317l-127 -114l-150 178l-150 -178l-126 114l276 314z" />
    <glyph glyph-name="otilde" unicode="&#xf5;" horiz-adv-x="776" 
d="M224.5 19.5q-68.5 34.5 -104.5 100t-36 157.5v492q0 91 36 155.5t104.5 98t164.5 33.5t164.5 -33.5t104 -98t35.5 -155.5v-495q0 -91 -35.5 -156t-104 -99t-164.5 -34t-164.5 34.5zM452.5 215q22.5 26 22.5 74v467q0 46 -22.5 71.5t-64.5 25.5q-40 0 -63.5 -26t-23.5 -71
v-467q0 -48 23 -74t64 -26q42 0 64.5 26zM463.5 1233.5q-24.5 7.5 -53.5 23.5l-7 4q-4 3 -8 5.5t-9 4.5q-24 15 -41 22t-37 7q-21 0 -30.5 -11t-9.5 -32v-35h-166v70q0 104 41 158t119 54q32 0 57.5 -8t52.5 -23l7 -5l14 -8q22 -12 37.5 -18.5t32.5 -6.5q22 0 33.5 13
t11.5 37v32h167v-70q0 -108 -41 -164.5t-117 -56.5q-29 0 -53.5 7.5z" />
    <glyph glyph-name="odieresis" unicode="&#xf6;" horiz-adv-x="776" 
d="M224.5 19.5q-68.5 34.5 -104.5 100t-36 157.5v492q0 91 36 155.5t104.5 98t164.5 33.5t164.5 -33.5t104 -98t35.5 -155.5v-495q0 -91 -35.5 -156t-104 -99t-164.5 -34t-164.5 34.5zM452.5 215q22.5 26 22.5 74v467q0 46 -22.5 71.5t-64.5 25.5q-40 0 -63.5 -26t-23.5 -71
v-467q0 -48 23 -74t64 -26q42 0 64.5 26zM456 1448h218v-218h-218v218zM103 1448h218v-218h-218v218z" />
    <glyph glyph-name="divide" unicode="&#xf7;" horiz-adv-x="618" 
d="M207 1098h220v-224h-220v224zM45 774h529v-209h-529v209zM207 465h220v-225h-220v225z" />
    <glyph glyph-name="oslash" unicode="&#xf8;" horiz-adv-x="776" 
d="M473 1180h132l-302 -1322h-132zM224.5 19.5q-68.5 34.5 -104.5 100t-36 157.5v492q0 91 36 155.5t104.5 98t164.5 33.5t164.5 -33.5t104 -98t35.5 -155.5v-495q0 -91 -35.5 -156t-104 -99t-164.5 -34t-164.5 34.5zM452.5 215q22.5 26 22.5 74v467q0 46 -22.5 71.5
t-64.5 25.5q-40 0 -63.5 -26t-23.5 -71v-467q0 -48 23 -74t64 -26q42 0 64.5 26z" />
    <glyph glyph-name="ugrave" unicode="&#xf9;" horiz-adv-x="834" 
d="M512 1038h218v-1038h-218v1038zM322 275q0 -48 24 -72t72 -24q47 0 70.5 25t23.5 75l14 -115q-26 -90 -74.5 -134.5t-120.5 -44.5q-113 0 -169.5 72t-56.5 214v767h217v-763zM125 1540l162 124l246 -355l-143 -105z" />
    <glyph glyph-name="uacute" unicode="&#xfa;" horiz-adv-x="834" 
d="M512 1038h218v-1038h-218v1038zM322 275q0 -48 24 -72t72 -24q47 0 70.5 25t23.5 75l14 -115q-26 -90 -74.5 -134.5t-120.5 -44.5q-113 0 -169.5 72t-56.5 214v767h217v-763zM291 1311l246 355l162 -126l-265 -336z" />
    <glyph glyph-name="ucircumflex" unicode="&#xfb;" horiz-adv-x="834" 
d="M512 1038h218v-1038h-218v1038zM322 275q0 -48 24 -72t72 -24q47 0 70.5 25t23.5 75l14 -115q-26 -90 -74.5 -134.5t-120.5 -44.5q-113 0 -169.5 72t-56.5 214v767h217v-763zM692 1317l-127 -114l-150 178l-150 -178l-126 114l276 314z" />
    <glyph glyph-name="udieresis" unicode="&#xfc;" horiz-adv-x="834" 
d="M512 1038h218v-1038h-218v1038zM322 275q0 -48 24 -72t72 -24q47 0 70.5 25t23.5 75l14 -115q-26 -90 -74.5 -134.5t-120.5 -44.5q-113 0 -169.5 72t-56.5 214v767h217v-763zM483 1448h218v-218h-218v218zM130 1448h218v-218h-218v218z" />
    <glyph glyph-name="yacute" unicode="&#xfd;" horiz-adv-x="769" 
d="M755 1038l-296 -1281q-15 -64 -52.5 -106t-98 -63t-144.5 -21h-54v213h56q61 0 93 24.5t44 82.5l239 1151h213zM35 1038h213l210 -899l-108 -238zM276 1311l246 355l162 -126l-265 -336z" />
    <glyph glyph-name="thorn" unicode="&#xfe;" horiz-adv-x="824" 
d="M105 1454h219v-1876h-219v1876zM387.5 32q-53.5 47 -77.5 131l14 154q0 -42 12 -72t34.5 -45.5t54.5 -15.5q47 0 73 36t26 101v405q0 62 -26 96.5t-73 34.5q-32 0 -54.5 -14.5t-34.5 -43.5t-12 -69l-21 136q34 90 91 140t126 50q70 0 119.5 -36t75.5 -105t26 -167v-449
q0 -99 -27 -169.5t-77.5 -107.5t-122.5 -37q-73 0 -126.5 47z" />
    <glyph glyph-name="ydieresis" unicode="&#xff;" horiz-adv-x="769" 
d="M755 1038l-296 -1281q-15 -64 -52.5 -106t-98 -63t-144.5 -21h-54v213h56q61 0 93 24.5t44 82.5l239 1151h213zM35 1038h213l210 -899l-108 -238zM468 1448h218v-218h-218v218zM115 1448h218v-218h-218v218z" />
    <glyph glyph-name="Amacron" unicode="&#x100;" horiz-adv-x="906" 
d="M366 1454h174l342 -1454h-225l-204 1055l-203 -1055h-225zM250 477h414v-205h-414v205zM718 1769v-195h-530v195h530z" />
    <glyph glyph-name="amacron" unicode="&#x101;" horiz-adv-x="835" 
d="M521 752q0 52 -28 80.5t-78 28.5q-44 0 -68.5 -28.5t-24.5 -80.5h-211q0 145 80.5 224.5t227.5 79.5q98 0 168 -35.5t107 -104t37 -164.5v-752h-210v752zM152.5 59.5q-62.5 74.5 -62.5 219.5q0 171 84 258t248 87h105l14 -183h-112q-65 0 -98 -41t-33 -121
q0 -53 24.5 -79.5t73.5 -26.5q61 0 93 34t32 101l19 -92q-1 -75 -24.5 -127t-68.5 -78t-110 -26q-122 0 -184.5 74.5zM688 1445v-215h-530v215h530z" />
    <glyph glyph-name="Abreve" unicode="&#x102;" horiz-adv-x="906" 
d="M366 1454h174l342 -1454h-225l-204 1055l-203 -1055h-225zM250 477h414v-205h-414v205zM720 1863q0 -145 -69 -225t-194 -80h-8q-125 0 -194 80t-69 225l180 -2q0 -66 22 -102.5t61 -36.5h8q40 0 61.5 36.5t21.5 102.5z" />
    <glyph glyph-name="abreve" unicode="&#x103;" horiz-adv-x="835" 
d="M521 752q0 52 -28 80.5t-78 28.5q-44 0 -68.5 -28.5t-24.5 -80.5h-211q0 145 80.5 224.5t227.5 79.5q98 0 168 -35.5t107 -104t37 -164.5v-752h-210v752zM152.5 59.5q-62.5 74.5 -62.5 219.5q0 171 84 258t248 87h105l14 -183h-112q-65 0 -98 -41t-33 -121
q0 -53 24.5 -79.5t73.5 -26.5q61 0 93 34t32 101l19 -92q-1 -75 -24.5 -127t-68.5 -78t-110 -26q-122 0 -184.5 74.5zM231 1287.5q-65 65.5 -65 184.5v85h174v-74q0 -46 19.5 -71.5t54.5 -25.5h18q36 0 55.5 25.5t19.5 71.5v74h174v-85q0 -119 -65 -184.5t-184 -65.5h-18
q-118 0 -183 65.5z" />
    <glyph glyph-name="Aogonek" unicode="&#x104;" horiz-adv-x="906" 
d="M366 1454h174l342 -1454h-225l-204 1055l-203 -1055h-225zM250 477h414v-205h-414v205zM587 -356q-75 64 -75 193q0 136 72.5 203t219.5 67h15v-107h-9q-104 0 -104 -117q0 -118 123 -118h46v-185h-62q-151 0 -226 64z" />
    <glyph glyph-name="aogonek" unicode="&#x105;" horiz-adv-x="835" 
d="M521 752q0 52 -28 80.5t-78 28.5q-44 0 -68.5 -28.5t-24.5 -80.5h-211q0 145 80.5 224.5t227.5 79.5q98 0 168 -35.5t107 -104t37 -164.5v-752h-210v752zM152.5 59.5q-62.5 74.5 -62.5 219.5q0 171 84 258t248 87h105l14 -183h-112q-65 0 -98 -41t-33 -121
q0 -53 24.5 -79.5t73.5 -26.5q61 0 93 34t32 101l19 -92q-1 -75 -24.5 -127t-68.5 -78t-110 -26q-122 0 -184.5 74.5zM472.5 -372.5q-58.5 46.5 -58.5 145.5q0 87 64.5 157.5t188.5 123.5l64 -53q-63 -37 -93 -76.5t-30 -84.5q0 -30 17.5 -44.5t55.5 -14.5h50v-200h-76
q-124 0 -182.5 46.5z" />
    <glyph glyph-name="Cacute" unicode="&#x106;" horiz-adv-x="856" 
d="M253 29q-77 44 -117.5 127t-40.5 200v742q0 117 40.5 200.5t117.5 127t185 43.5q109 0 186 -43.5t117.5 -127t40.5 -200.5v-90h-222v90q0 48 -14 82.5t-41.5 52.5t-66.5 18q-38 0 -65 -18t-41.5 -52.5t-14.5 -82.5v-742q0 -48 14.5 -82t41.5 -52t65 -18q39 0 66.5 18
t41.5 52t14 83v89h222v-89q0 -117 -40.5 -200.5t-117.5 -127.5t-186 -44q-108 0 -185 44zM318 1675l248 259l162 -156l-272 -234z" />
    <glyph glyph-name="cacute" unicode="&#x107;" horiz-adv-x="772" 
d="M230.5 20q-71.5 35 -109 102t-37.5 161v461q0 99 37.5 169t109.5 106.5t173 36.5t173.5 -36.5t110.5 -107.5t38 -170v-62h-216v51q0 60 -27 93t-76 33t-76.5 -32.5t-27.5 -90.5v-441q0 -52 27.5 -80t76.5 -28t76 29.5t27 83.5v48l218 -2v-57q0 -95 -38.5 -162.5
t-111 -103.5t-174.5 -36t-173.5 35zM280 1311l246 355l162 -126l-265 -336z" />
    <glyph glyph-name="Cdotaccent" unicode="&#x10a;" horiz-adv-x="856" 
d="M253 29q-77 44 -117.5 127t-40.5 200v742q0 117 40.5 200.5t117.5 127t185 43.5q109 0 186 -43.5t117.5 -127t40.5 -200.5v-90h-222v90q0 48 -14 82.5t-41.5 52.5t-66.5 18q-38 0 -65 -18t-41.5 -52.5t-14.5 -82.5v-742q0 -48 14.5 -82t41.5 -52t65 -18q39 0 66.5 18
t41.5 52t14 83v89h222v-89q0 -117 -40.5 -200.5t-117.5 -127.5t-186 -44q-108 0 -185 44zM329 1791h219v-219h-219v219z" />
    <glyph glyph-name="cdotaccent" unicode="&#x10b;" horiz-adv-x="772" 
d="M230.5 20q-71.5 35 -109 102t-37.5 161v461q0 99 37.5 169t109.5 106.5t173 36.5t173.5 -36.5t110.5 -107.5t38 -170v-62h-216v51q0 60 -27 93t-76 33t-76.5 -32.5t-27.5 -90.5v-441q0 -52 27.5 -80t76.5 -28t76 29.5t27 83.5v48l218 -2v-57q0 -95 -38.5 -162.5
t-111 -103.5t-174.5 -36t-173.5 35zM294 1469h219v-219h-219v219z" />
    <glyph glyph-name="Ccaron" unicode="&#x10c;" horiz-adv-x="856" 
d="M253 29q-77 44 -117.5 127t-40.5 200v742q0 117 40.5 200.5t117.5 127t185 43.5q109 0 186 -43.5t117.5 -127t40.5 -200.5v-90h-222v90q0 48 -14 82.5t-41.5 52.5t-66.5 18q-38 0 -65 -18t-41.5 -52.5t-14.5 -82.5v-742q0 -48 14.5 -82t41.5 -52t65 -18q39 0 66.5 18
t41.5 52t14 83v89h222v-89q0 -117 -40.5 -200.5t-117.5 -127.5t-186 -44q-108 0 -185 44zM134 1804l123 129l179 -149l177 149l124 -129l-301 -252z" />
    <glyph glyph-name="ccaron" unicode="&#x10d;" horiz-adv-x="772" 
d="M230.5 20q-71.5 35 -109 102t-37.5 161v461q0 99 37.5 169t109.5 106.5t173 36.5t173.5 -36.5t110.5 -107.5t38 -170v-62h-216v51q0 60 -27 93t-76 33t-76.5 -32.5t-27.5 -90.5v-441q0 -52 27.5 -80t76.5 -28t76 29.5t27 83.5v48l218 -2v-57q0 -95 -38.5 -162.5
t-111 -103.5t-174.5 -36t-173.5 35zM125 1517l129 113l150 -177l151 177l128 -113l-279 -314z" />
    <glyph glyph-name="Dcaron" unicode="&#x10e;" horiz-adv-x="884" 
d="M238 209h225q51 0 78.5 31t27.5 87v801q0 56 -27.5 86.5t-78.5 30.5h-225v209h235q100 0 171 -37t108.5 -107.5t37.5 -170.5v-824q0 -99 -37.5 -170t-109 -108t-171.5 -37h-234v209zM95 1454h219v-1454h-219v1454zM92 1804l123 129l179 -149l177 149l124 -129l-301 -252z
" />
    <glyph glyph-name="dcaron" unicode="&#x10f;" horiz-adv-x="1044" 
d="M501 1454h219v-1454h-219v1454zM183.5 17.5q-48.5 34.5 -74 101t-25.5 160.5v476q0 95 25.5 162.5t74 103t116.5 35.5q70 0 128 -49t94 -137l-21 -139q0 39 -12 67t-34 42.5t-54 14.5q-48 0 -74.5 -33t-26.5 -92v-429q0 -56 26.5 -86.5t74.5 -30.5q32 0 54 14t34 41.5
t12 65.5l14 -142q-27 -85 -83 -132.5t-132 -47.5q-68 0 -116.5 34.5zM852 1469h174v-218l-174 -154v372z" />
    <glyph glyph-name="Dcroat" unicode="&#x110;" horiz-adv-x="906" 
d="M260 209h225q51 0 78.5 31t27.5 87v801q0 56 -27.5 86.5t-78.5 30.5h-225v209h235q100 0 171 -37t108.5 -107.5t37.5 -170.5v-824q0 -99 -37.5 -170t-109 -108t-171.5 -37h-234v209zM117 1454h219v-1454h-219v1454zM491 828v-201h-481v201h481z" />
    <glyph glyph-name="dcroat" unicode="&#x111;" horiz-adv-x="824" 
d="M292 1364h530v-190h-530v190zM501 1454h219v-1454h-219v1454zM183.5 17.5q-48.5 34.5 -74 101t-25.5 160.5v476q0 95 25.5 162.5t74 103t116.5 35.5q70 0 128 -49t94 -137l-21 -139q0 39 -12 67t-34 42.5t-54 14.5q-48 0 -74.5 -33t-26.5 -92v-429q0 -56 26.5 -86.5
t74.5 -30.5q32 0 54 14t34 41.5t12 65.5l14 -142q-27 -85 -83 -132.5t-132 -47.5q-68 0 -116.5 34.5z" />
    <glyph glyph-name="Emacron" unicode="&#x112;" horiz-adv-x="774" 
d="M95 1454h219v-1454h-219v1454zM199 211h531v-211h-531v211zM199 828h481v-211h-481v211zM199 1454h531v-211h-531v211zM691 1769v-195h-530v195h530z" />
    <glyph glyph-name="emacron" unicode="&#x113;" horiz-adv-x="802" 
d="M232 24q-72 39 -110 113.5t-38 179.5v388q0 111 37 190t107.5 120t169.5 41q100 0 171.5 -39t109 -113.5t37.5 -180.5v-284h-466v169h255v118q0 64 -28 99t-79 35q-49 0 -76 -37.5t-27 -105.5v-407q0 -59 29 -92t82 -33q49 0 75.5 25.5t26.5 71.5v22l211 -1v-18
q0 -143 -82 -221.5t-231 -78.5q-102 0 -174 39zM664 1445v-215h-530v215h530z" />
    <glyph glyph-name="Edotaccent" unicode="&#x116;" horiz-adv-x="774" 
d="M95 1454h219v-1454h-219v1454zM199 211h531v-211h-531v211zM199 828h481v-211h-481v211zM199 1454h531v-211h-531v211zM317 1791h219v-219h-219v219z" />
    <glyph glyph-name="edotaccent" unicode="&#x117;" horiz-adv-x="802" 
d="M232 24q-72 39 -110 113.5t-38 179.5v388q0 111 37 190t107.5 120t169.5 41q100 0 171.5 -39t109 -113.5t37.5 -180.5v-284h-466v169h255v118q0 64 -28 99t-79 35q-49 0 -76 -37.5t-27 -105.5v-407q0 -59 29 -92t82 -33q49 0 75.5 25.5t26.5 71.5v22l211 -1v-18
q0 -143 -82 -221.5t-231 -78.5q-102 0 -174 39zM290 1469h219v-219h-219v219z" />
    <glyph glyph-name="Eogonek" unicode="&#x118;" horiz-adv-x="774" 
d="M95 1454h219v-1454h-219v1454zM199 211h531v-211h-531v211zM199 828h481v-211h-481v211zM199 1454h531v-211h-531v211zM440 -356q-75 64 -75 193q0 136 72.5 203t219.5 67h15v-107h-9q-104 0 -104 -117q0 -118 123 -118h46v-185h-62q-151 0 -226 64z" />
    <glyph glyph-name="eogonek" unicode="&#x119;" horiz-adv-x="802" 
d="M440 -357q-65 53 -65 165q0 102 55.5 186t157.5 157l76 -55l-8 -10q-46 -52 -66.5 -98.5t-20.5 -102.5q0 -48 25.5 -71.5t79.5 -23.5h36v-200h-68q-137 0 -202 53zM232 24q-72 39 -110 113.5t-38 179.5v388q0 111 37 190t107.5 120t169.5 41q100 0 171.5 -39t109 -113.5
t37.5 -180.5v-284h-466v169h255v118q0 64 -28 99t-79 35q-49 0 -76 -37.5t-27 -105.5v-407q0 -59 29 -92t82 -33q49 0 75.5 25.5t26.5 71.5v22l211 -1v-18q0 -143 -82 -221.5t-231 -78.5q-102 0 -174 39z" />
    <glyph glyph-name="Ecaron" unicode="&#x11a;" horiz-adv-x="774" 
d="M95 1454h219v-1454h-219v1454zM199 211h531v-211h-531v211zM199 828h481v-211h-481v211zM199 1454h531v-211h-531v211zM122 1804l123 129l179 -149l177 149l124 -129l-301 -252z" />
    <glyph glyph-name="ecaron" unicode="&#x11b;" horiz-adv-x="802" 
d="M232 24q-72 39 -110 113.5t-38 179.5v388q0 111 37 190t107.5 120t169.5 41q100 0 171.5 -39t109 -113.5t37.5 -180.5v-284h-466v169h255v118q0 64 -28 99t-79 35q-49 0 -76 -37.5t-27 -105.5v-407q0 -59 29 -92t82 -33q49 0 75.5 25.5t26.5 71.5v22l211 -1v-18
q0 -143 -82 -221.5t-231 -78.5q-102 0 -174 39zM120 1517l129 113l150 -177l151 177l128 -113l-279 -314z" />
    <glyph glyph-name="Gbreve" unicode="&#x11e;" horiz-adv-x="904" 
d="M810 784v-430q0 -116 -42 -198.5t-121.5 -126.5t-191.5 -44q-113 0 -194 42t-123.5 121.5t-42.5 190.5v756q0 118 41.5 202t121.5 128t191 44q110 0 188 -42.5t119.5 -124.5t41.5 -196v-92h-229v92q0 46 -14 78.5t-41 49.5t-65 17q-41 0 -71.5 -18.5t-46 -53.5t-15.5 -84
v-756q0 -42 16.5 -72.5t48 -46.5t74.5 -16t74 17t47.5 50.5t16.5 80.5v223h-143v209h360zM722 1863q0 -145 -69 -225t-194 -80h-8q-125 0 -194 80t-69 225l180 -2q0 -66 22 -102.5t61 -36.5h8q40 0 61.5 36.5t21.5 102.5z" />
    <glyph glyph-name="gbreve" unicode="&#x11f;" horiz-adv-x="824" 
d="M170 -344q-81 78 -81 219v37l218 1v-37q0 -47 26 -73t72 -26t71 25.5t25 71.5v1164h219v-1164q0 -94 -38 -160t-110 -101t-174 -35q-147 0 -228 78zM183.5 17.5q-48.5 34.5 -74 101t-25.5 160.5v476q0 95 25.5 162.5t74 103t117.5 35.5t127 -49t94 -137l-21 -136
q0 39 -11.5 67t-34 42.5t-54.5 14.5q-48 0 -75 -33t-27 -92v-435q0 -56 27 -86.5t75 -30.5q32 0 54.5 14t34 41.5t11.5 65.5l14 -139q-27 -85 -83 -132.5t-131 -47.5q-69 0 -117.5 34.5zM214 1287.5q-65 65.5 -65 184.5v85h174v-74q0 -46 19.5 -71.5t54.5 -25.5h18
q36 0 55.5 25.5t19.5 71.5v74h174v-85q0 -119 -65 -184.5t-184 -65.5h-18q-118 0 -183 65.5z" />
    <glyph glyph-name="Gdotaccent" unicode="&#x120;" horiz-adv-x="904" 
d="M810 784v-430q0 -116 -42 -198.5t-121.5 -126.5t-191.5 -44q-113 0 -194 42t-123.5 121.5t-42.5 190.5v756q0 118 41.5 202t121.5 128t191 44q110 0 188 -42.5t119.5 -124.5t41.5 -196v-92h-229v92q0 46 -14 78.5t-41 49.5t-65 17q-41 0 -71.5 -18.5t-46 -53.5t-15.5 -84
v-756q0 -42 16.5 -72.5t48 -46.5t74.5 -16t74 17t47.5 50.5t16.5 80.5v223h-143v209h360zM346 1791h219v-219h-219v219z" />
    <glyph glyph-name="gdotaccent" unicode="&#x121;" horiz-adv-x="824" 
d="M170 -344q-81 78 -81 219v37l218 1v-37q0 -47 26 -73t72 -26t71 25.5t25 71.5v1164h219v-1164q0 -94 -38 -160t-110 -101t-174 -35q-147 0 -228 78zM183.5 17.5q-48.5 34.5 -74 101t-25.5 160.5v476q0 95 25.5 162.5t74 103t117.5 35.5t127 -49t94 -137l-21 -136
q0 39 -11.5 67t-34 42.5t-54.5 14.5q-48 0 -75 -33t-27 -92v-435q0 -56 27 -86.5t75 -30.5q32 0 54.5 14t34 41.5t11.5 65.5l14 -139q-27 -85 -83 -132.5t-131 -47.5q-69 0 -117.5 34.5zM296 1469h219v-219h-219v219z" />
    <glyph glyph-name="uni0122" unicode="&#x122;" horiz-adv-x="904" 
d="M810 784v-430q0 -116 -42 -198.5t-121.5 -126.5t-191.5 -44q-113 0 -194 42t-123.5 121.5t-42.5 190.5v756q0 118 41.5 202t121.5 128t191 44q110 0 188 -42.5t119.5 -124.5t41.5 -196v-92h-229v92q0 46 -14 78.5t-41 49.5t-65 17q-41 0 -71.5 -18.5t-46 -53.5t-15.5 -84
v-756q0 -42 16.5 -72.5t48 -46.5t74.5 -16t74 17t47.5 50.5t16.5 80.5v223h-143v209h360zM346 -125h219v-193l-219 -205v398z" />
    <glyph glyph-name="uni0123" unicode="&#x123;" horiz-adv-x="824" 
d="M301 1392l219 205v-345h-219v140zM170 -344q-81 78 -81 219v37l218 1v-37q0 -47 26 -73t72 -26t71 25.5t25 71.5v1164h219v-1164q0 -94 -38 -160t-110 -101t-174 -35q-147 0 -228 78zM183.5 17.5q-48.5 34.5 -74 101t-25.5 160.5v476q0 95 25.5 162.5t74 103t117.5 35.5
t127 -49t94 -137l-21 -136q0 39 -11.5 67t-34 42.5t-54.5 14.5q-48 0 -75 -33t-27 -92v-435q0 -56 27 -86.5t75 -30.5q32 0 54.5 14t34 41.5t11.5 65.5l14 -139q-27 -85 -83 -132.5t-131 -47.5q-69 0 -117.5 34.5z" />
    <glyph glyph-name="Hbar" unicode="&#x126;" horiz-adv-x="910" 
d="M35 1219h841v-206h-841v206zM577 1454h219v-1454h-219v1454zM115 1454h219v-1454h-219v1454zM237 820h467v-207h-467v207z" />
    <glyph glyph-name="hbar" unicode="&#x127;" horiz-adv-x="857" 
d="M532 1364v-190h-537v190h537zM108 1454h219v-1454h-219v1454zM534 724q0 65 -26 97.5t-78 32.5t-77.5 -33t-25.5 -98l-19 137q32 96 92.5 146t137.5 50q103 0 159 -70t56 -201v-785h-219v724z" />
    <glyph glyph-name="Imacron" unicode="&#x12a;" horiz-adv-x="386" 
d="M303 0h-219v1454h219v-1454zM458 1769v-195h-530v195h530z" />
    <glyph glyph-name="imacron" unicode="&#x12b;" horiz-adv-x="406" 
d="M94 1038h219v-1038h-219v1038zM468 1445v-215h-530v215h530z" />
    <glyph glyph-name="Iogonek" unicode="&#x12e;" horiz-adv-x="386" 
d="M66 -356q-76 64 -76 193q0 136 73 203t220 67l5 -107q-104 0 -104 -117q0 -118 128 -118h47v-185h-63q-154 0 -230 64zM303 0h-219v1454h219v-1454z" />
    <glyph glyph-name="iogonek" unicode="&#x12f;" horiz-adv-x="406" 
d="M94 1038h219v-1038h-219v1038zM94 1469h219v-219h-219v219zM54.5 -372.5q-58.5 46.5 -58.5 145.5q0 87 64.5 157.5t188.5 123.5l64 -53q-63 -37 -93 -76.5t-30 -84.5q0 -30 17.5 -44.5t55.5 -14.5h50v-200h-76q-124 0 -182.5 46.5z" />
    <glyph glyph-name="Idotaccent" unicode="&#x130;" horiz-adv-x="386" 
d="M303 0h-219v1454h219v-1454zM84 1791h219v-219h-219v219z" />
    <glyph glyph-name="dotlessi" unicode="&#x131;" horiz-adv-x="406" 
d="M94 1038h219v-1038h-219v1038z" />
    <glyph glyph-name="uni0136" unicode="&#x136;" horiz-adv-x="874" 
d="M268 658l332 796h244l-584 -1202zM95 1454h219v-1454h-219v1454zM386 786l150 149l354 -935h-244zM356 -125h219v-193l-219 -205v398z" />
    <glyph glyph-name="uni0137" unicode="&#x137;" horiz-adv-x="823" 
d="M231 417l362 621h225l-578 -911zM105 1454h217v-1454h-217v1454zM399 532l133 154l327 -686h-235zM353 -125h219v-193l-219 -205v398z" />
    <glyph glyph-name="Lacute" unicode="&#x139;" horiz-adv-x="754" 
d="M95 1454h219v-1454h-219v1454zM197 209h513v-209h-513v209zM92 1675l248 259l162 -156l-272 -234z" />
    <glyph glyph-name="lacute" unicode="&#x13a;" horiz-adv-x="473" 
d="M324 295q0 -39 18.5 -61t52.5 -22h44v-212h-86q-118 0 -183 72t-65 203v1179h219v-1159zM98 1675l248 259l162 -156l-272 -234z" />
    <glyph glyph-name="uni013B" unicode="&#x13b;" horiz-adv-x="754" 
d="M95 1454h219v-1454h-219v1454zM197 209h513v-209h-513v209zM235 -125h219v-193l-219 -205v398z" />
    <glyph glyph-name="uni013C" unicode="&#x13c;" horiz-adv-x="473" 
d="M324 295q0 -39 18.5 -61t52.5 -22h44v-212h-86q-118 0 -183 72t-65 203v1179h219v-1159zM146 -125h219v-193l-219 -205v398z" />
    <glyph glyph-name="Lcaron" unicode="&#x13d;" horiz-adv-x="754" 
d="M95 1454h219v-1454h-219v1454zM197 209h513v-209h-513v209zM519 1453h174v-218l-174 -154v372z" />
    <glyph glyph-name="lcaron" unicode="&#x13e;" horiz-adv-x="632" 
d="M324 295q0 -39 18.5 -61t52.5 -22h44v-212h-86q-118 0 -183 72t-65 203v1179h219v-1159zM441 1469h174v-218l-174 -154v372z" />
    <glyph glyph-name="Lslash" unicode="&#x141;" horiz-adv-x="794" 
d="M35 726l571 270v-214l-571 -270v214zM135 1454h219v-1454h-219v1454zM237 209h513v-209h-513v209z" />
    <glyph glyph-name="lslash" unicode="&#x142;" horiz-adv-x="473" 
d="M0 726l439 209v-214l-439 -209v214zM324 295q0 -39 18.5 -61t52.5 -22h44v-212h-86q-118 0 -183 72t-65 203v1179h219v-1159z" />
    <glyph glyph-name="Nacute" unicode="&#x143;" horiz-adv-x="914" 
d="M95 1454h180l370 -1042l-29 -33v1075h204v-1453h-183l-367 997l29 33v-1030h-204v1453zM352 1675l248 259l162 -156l-272 -234z" />
    <glyph glyph-name="nacute" unicode="&#x144;" horiz-adv-x="854" 
d="M105 1038h220v-1038h-220v1038zM531 727q0 64 -26 96.5t-78 32.5q-51 0 -76.5 -33t-25.5 -99l-21 136q33 97 93.5 146.5t137.5 49.5q103 0 159 -70.5t56 -200.5v-785h-219v727zM298 1311l246 355l162 -126l-265 -336z" />
    <glyph glyph-name="uni0145" unicode="&#x145;" horiz-adv-x="914" 
d="M95 1454h180l370 -1042l-29 -33v1075h204v-1453h-183l-367 997l29 33v-1030h-204v1453zM363 -125h219v-193l-219 -205v398z" />
    <glyph glyph-name="uni0146" unicode="&#x146;" horiz-adv-x="854" 
d="M105 1038h220v-1038h-220v1038zM531 727q0 64 -26 96.5t-78 32.5q-51 0 -76.5 -33t-25.5 -99l-21 136q33 97 93.5 146.5t137.5 49.5q103 0 159 -70.5t56 -200.5v-785h-219v727zM313 -125h219v-193l-219 -205v398z" />
    <glyph glyph-name="Ncaron" unicode="&#x147;" horiz-adv-x="914" 
d="M95 1454h180l370 -1042l-29 -33v1075h204v-1453h-183l-367 997l29 33v-1030h-204v1453zM168 1804l123 129l179 -149l177 149l124 -129l-301 -252z" />
    <glyph glyph-name="ncaron" unicode="&#x148;" horiz-adv-x="854" 
d="M105 1038h220v-1038h-220v1038zM531 727q0 64 -26 96.5t-78 32.5q-51 0 -76.5 -33t-25.5 -99l-21 136q33 97 93.5 146.5t137.5 49.5q103 0 159 -70.5t56 -200.5v-785h-219v727zM143 1517l129 113l150 -177l151 177l128 -113l-279 -314z" />
    <glyph glyph-name="Eng" unicode="&#x14a;" horiz-adv-x="914" 
d="M95 1454h180l370 -1042l-29 -33v1075h204v-1451l-183 -2l-367 997l29 33v-1030h-204v1453zM456 -196h75q35 0 54 23t19 65v438h216v-458q0 -131 -68 -203t-191 -72h-105v207z" />
    <glyph glyph-name="eng" unicode="&#x14b;" horiz-adv-x="854" 
d="M422 -210h41q32 0 50 22t18 61v307h219v-327q0 -131 -68 -203t-191 -72h-69v212zM105 1038h220v-1038h-220v1038zM531 727q0 64 -26 96.5t-78 32.5q-51 0 -76.5 -33t-25.5 -99l-21 136q33 97 93.5 146.5t137.5 49.5q103 0 159 -70.5t56 -200.5v-785h-219v727z" />
    <glyph glyph-name="Omacron" unicode="&#x14c;" horiz-adv-x="922" 
d="M263.5 27q-82.5 42 -125.5 121t-43 191v777q0 112 43 191.5t125.5 120.5t197.5 41q116 0 198 -41t125.5 -120.5t43.5 -191.5v-777q0 -112 -43.5 -191t-125.5 -121t-198 -42q-115 0 -197.5 42zM540 219.5q33 17.5 50 51t17 81.5v752q0 47 -17 80.5t-50 51t-79 17.5
t-78.5 -17.5t-49.5 -51t-17 -80.5v-752q0 -48 17 -81.5t49.5 -51t78.5 -17.5t79 17.5zM726 1769v-195h-530v195h530z" />
    <glyph glyph-name="omacron" unicode="&#x14d;" horiz-adv-x="776" 
d="M224.5 19.5q-68.5 34.5 -104.5 100t-36 157.5v492q0 91 36 155.5t104.5 98t164.5 33.5t164.5 -33.5t104 -98t35.5 -155.5v-495q0 -91 -35.5 -156t-104 -99t-164.5 -34t-164.5 34.5zM452.5 215q22.5 26 22.5 74v467q0 46 -22.5 71.5t-64.5 25.5q-40 0 -63.5 -26t-23.5 -71
v-467q0 -48 23 -74t64 -26q42 0 64.5 26zM653 1445v-215h-530v215h530z" />
    <glyph glyph-name="Ohungarumlaut" unicode="&#x150;" horiz-adv-x="922" 
d="M263.5 27q-82.5 42 -125.5 121t-43 191v777q0 112 43 191.5t125.5 120.5t197.5 41q116 0 198 -41t125.5 -120.5t43.5 -191.5v-777q0 -112 -43.5 -191t-125.5 -121t-198 -42q-115 0 -197.5 42zM540 219.5q33 17.5 50 51t17 81.5v752q0 47 -17 80.5t-50 51t-79 17.5
t-78.5 -17.5t-49.5 -51t-17 -80.5v-752q0 -48 17 -81.5t49.5 -51t78.5 -17.5t79 17.5zM480 1655l193 279l167 -137l-217 -253zM148 1655l194 279l167 -137l-218 -253z" />
    <glyph glyph-name="ohungarumlaut" unicode="&#x151;" horiz-adv-x="776" 
d="M224.5 19.5q-68.5 34.5 -104.5 100t-36 157.5v492q0 91 36 155.5t104.5 98t164.5 33.5t164.5 -33.5t104 -98t35.5 -155.5v-495q0 -91 -35.5 -156t-104 -99t-164.5 -34t-164.5 34.5zM452.5 215q22.5 26 22.5 74v467q0 46 -22.5 71.5t-64.5 25.5q-40 0 -63.5 -26t-23.5 -71
v-467q0 -48 23 -74t64 -26q42 0 64.5 26zM431 1288l200 360l173 -111l-220 -336zM88 1288l201 360l173 -111l-220 -336z" />
    <glyph glyph-name="OE" unicode="&#x152;" horiz-adv-x="1208" 
d="M238.5 28q-70.5 43 -107 125.5t-36.5 197.5v752q0 116 36.5 198t107 125t168.5 43q83 0 141.5 -43t89 -125t30.5 -198v-751q0 -116 -30.5 -198.5t-89 -125.5t-141.5 -43q-98 0 -168.5 43zM541.5 221.5q32.5 19.5 49.5 56t17 87.5v725q0 51 -17 88t-49.5 56t-78.5 19
q-47 0 -80 -19t-50.5 -56t-17.5 -88v-725q0 -51 17.5 -87.5t50.5 -56t80 -19.5q46 0 78.5 19.5zM529 1454h219v-1454h-219v1454zM633 211h531v-211h-531v211zM633 828h481v-211h-481v211zM633 1454h531v-211h-531v211z" />
    <glyph glyph-name="oe" unicode="&#x153;" horiz-adv-x="1173" 
d="M210.5 19.5q-61.5 34.5 -94 99t-32.5 156.5v497q0 90 32.5 154t94 97t148.5 33q86 0 146 -33t92 -97t32 -154v-500q0 -91 -32 -155t-92 -98t-146 -34q-87 0 -148.5 34.5zM446.5 207.5q22.5 25.5 22.5 71.5v486q0 45 -22.5 70t-63.5 25q-38 0 -60 -25.5t-22 -69.5v-486
q0 -46 22 -71.5t60 -25.5q41 0 63.5 25.5zM658.5 24q-62.5 39 -95 113.5t-32.5 179.5v388q0 111 32 190t92.5 120t146.5 41q90 0 154 -39t97.5 -114t33.5 -180v-284h-465v173h252v114q0 59 -25.5 91.5t-71.5 32.5q-48 0 -73.5 -34.5t-25.5 -98.5v-407q0 -55 28 -85t78 -30
q47 0 72 25t25 72v22l209 -1v-18q0 -148 -73.5 -229t-208.5 -81q-87 0 -149.5 39z" />
    <glyph glyph-name="Racute" unicode="&#x154;" horiz-adv-x="925" 
d="M195 824h265q41 0 71 15.5t45.5 44t15.5 69.5v155q0 43 -15.5 74.5t-45.5 47.5t-71 16h-265v209h249q117 0 200 -38.5t127 -113t44 -178.5v-170q0 -107 -44 -183.5t-127.5 -116.5t-199.5 -40h-249v209zM95 1455h216v-1455h-216v1455zM421 660l203 46l232 -706h-237z
M308 1675l248 259l162 -156l-272 -234z" />
    <glyph glyph-name="racute" unicode="&#x155;" horiz-adv-x="640" 
d="M105 1038h219v-1038h-219v1038zM569 830h-28q-102 0 -159 -54.5t-58 -149.5l-21 231q48 94 123 146.5t165 52.5v0v0v-226h-22zM223 1311l246 355l162 -126l-265 -336z" />
    <glyph glyph-name="uni0156" unicode="&#x156;" horiz-adv-x="925" 
d="M195 824h265q41 0 71 15.5t45.5 44t15.5 69.5v155q0 43 -15.5 74.5t-45.5 47.5t-71 16h-265v209h249q117 0 200 -38.5t127 -113t44 -178.5v-170q0 -107 -44 -183.5t-127.5 -116.5t-199.5 -40h-249v209zM95 1455h216v-1455h-216v1455zM421 660l203 46l232 -706h-237z
M326 -125h219v-193l-219 -205v398z" />
    <glyph glyph-name="uni0157" unicode="&#x157;" horiz-adv-x="640" 
d="M105 1038h219v-1038h-219v1038zM569 830h-28q-102 0 -159 -54.5t-58 -149.5l-21 231q48 94 123 146.5t165 52.5v0v0v-226h-22zM110 -125h219v-193l-219 -205v398z" />
    <glyph glyph-name="Rcaron" unicode="&#x158;" horiz-adv-x="925" 
d="M195 824h265q41 0 71 15.5t45.5 44t15.5 69.5v155q0 43 -15.5 74.5t-45.5 47.5t-71 16h-265v209h249q117 0 200 -38.5t127 -113t44 -178.5v-170q0 -107 -44 -183.5t-127.5 -116.5t-199.5 -40h-249v209zM95 1455h216v-1455h-216v1455zM421 660l203 46l232 -706h-237z
M124 1804l123 129l179 -149l177 149l124 -129l-301 -252z" />
    <glyph glyph-name="rcaron" unicode="&#x159;" horiz-adv-x="640" 
d="M105 1038h219v-1038h-219v1038zM569 830h-28q-102 0 -159 -54.5t-58 -149.5l-21 231q48 94 123 146.5t165 52.5v0v0v-226h-22zM68 1517l129 113l150 -177l151 177l128 -113l-279 -314z" />
    <glyph glyph-name="Sacute" unicode="&#x15a;" horiz-adv-x="883" 
d="M244.5 26q-80.5 41 -122.5 119.5t-42 190.5v75l218 1v-72q0 -67 37 -104t104 -37q65 0 100.5 36.5t35.5 103.5v127q0 47 -24.5 80t-61.5 55.5t-102 53.5q-3 1 -6 2.5t-6 2.5l-13 6q-87 42 -144.5 84t-97 114t-39.5 180v80q0 109 41.5 186.5t121.5 118t193 40.5
q111 0 189 -40.5t119 -119t41 -189.5v-79l-219 -2v76q0 68 -33.5 104.5t-96.5 36.5q-66 0 -101.5 -34t-35.5 -96v-94q0 -48 23.5 -82t59.5 -55.5t99 -51.5q9 -4 17.5 -8.5t18.5 -8.5q3 -2 6.5 -3.5t7.5 -3.5q85 -41 137 -77.5t88.5 -104t36.5 -174.5v-127
q0 -112 -41.5 -190.5t-121 -119.5t-192.5 -41q-114 0 -194.5 41zM318 1675l248 259l162 -156l-272 -234z" />
    <glyph glyph-name="sacute" unicode="&#x15b;" horiz-adv-x="738" 
d="M205 24q-72 39 -111.5 110t-39.5 165v13l209 1v-12q0 -55 29.5 -87.5t80.5 -32.5t80.5 30.5t29.5 82.5q0 37 -19 62t-48 40t-82 35q-6 2 -12.5 4.5t-13.5 5.5q-2 1 -5 2t-5 2q-68 27 -117 60.5t-81.5 93t-32.5 150.5q0 92 36.5 162t104 107.5t157.5 37.5q91 0 158.5 -36
t104 -103.5t36.5 -157.5v-12l-209 -1v14q0 47 -24 74t-66 27q-41 0 -64.5 -29.5t-23.5 -80.5q0 -40 19.5 -66t50 -41.5t80.5 -32.5q2 -1 4.5 -1.5t4.5 -1.5q1 -1 3 -1t4 -1q78 -26 128.5 -55.5t86 -91t35.5 -165.5q0 -94 -39.5 -163.5t-111.5 -107.5t-169 -38q-96 0 -168 39
zM233 1311l246 355l162 -126l-265 -336z" />
    <glyph glyph-name="Scedilla" unicode="&#x15e;" horiz-adv-x="883" 
d="M244.5 26q-80.5 41 -122.5 119.5t-42 190.5v75l218 1v-72q0 -67 37 -104t104 -37q65 0 100.5 36.5t35.5 103.5v127q0 47 -24.5 80t-61.5 55.5t-102 53.5q-3 1 -6 2.5t-6 2.5l-13 6q-87 42 -144.5 84t-97 114t-39.5 180v80q0 109 41.5 186.5t121.5 118t193 40.5
q111 0 189 -40.5t119 -119t41 -189.5v-79l-219 -2v76q0 68 -33.5 104.5t-96.5 36.5q-66 0 -101.5 -34t-35.5 -96v-94q0 -48 23.5 -82t59.5 -55.5t99 -51.5q9 -4 17.5 -8.5t18.5 -8.5q3 -2 6.5 -3.5t7.5 -3.5q85 -41 137 -77.5t88.5 -104t36.5 -174.5v-127
q0 -112 -41.5 -190.5t-121 -119.5t-192.5 -41q-114 0 -194.5 41zM281 -404l41 144q40 -14 82 -14q40 0 60 11.5t20 35.5q0 25 -31 37t-93 12l91 114q110 0 164 -44t54 -134t-59.5 -135t-179.5 -45q-84 0 -149 18zM518 61v-241l-174 2v239h174z" />
    <glyph glyph-name="scedilla" unicode="&#x15f;" horiz-adv-x="738" 
d="M205 24q-72 39 -111.5 110t-39.5 165v13l209 1v-12q0 -55 29.5 -87.5t80.5 -32.5t80.5 30.5t29.5 82.5q0 37 -19 62t-48 40t-82 35q-6 2 -12.5 4.5t-13.5 5.5q-2 1 -5 2t-5 2q-68 27 -117 60.5t-81.5 93t-32.5 150.5q0 92 36.5 162t104 107.5t157.5 37.5q91 0 158.5 -36
t104 -103.5t36.5 -157.5v-12l-209 -1v14q0 47 -24 74t-66 27q-41 0 -64.5 -29.5t-23.5 -80.5q0 -40 19.5 -66t50 -41.5t80.5 -32.5q2 -1 4.5 -1.5t4.5 -1.5q1 -1 3 -1t4 -1q78 -26 128.5 -55.5t86 -91t35.5 -165.5q0 -94 -39.5 -163.5t-111.5 -107.5t-169 -38q-96 0 -168 39
zM198 -411l41 144q45 -14 89 -14q33 0 49.5 11.5t16.5 35.5q0 25 -27.5 37t-82.5 12l91 114q102 0 153.5 -44t51.5 -134t-56.5 -135t-169.5 -45q-93 0 -156 18zM268 84h174v-269h-174v269z" />
    <glyph glyph-name="Scaron" unicode="&#x160;" horiz-adv-x="883" 
d="M244.5 26q-80.5 41 -122.5 119.5t-42 190.5v75l218 1v-72q0 -67 37 -104t104 -37q65 0 100.5 36.5t35.5 103.5v127q0 47 -24.5 80t-61.5 55.5t-102 53.5q-3 1 -6 2.5t-6 2.5l-13 6q-87 42 -144.5 84t-97 114t-39.5 180v80q0 109 41.5 186.5t121.5 118t193 40.5
q111 0 189 -40.5t119 -119t41 -189.5v-79l-219 -2v76q0 68 -33.5 104.5t-96.5 36.5q-66 0 -101.5 -34t-35.5 -96v-94q0 -48 23.5 -82t59.5 -55.5t99 -51.5q9 -4 17.5 -8.5t18.5 -8.5q3 -2 6.5 -3.5t7.5 -3.5q85 -41 137 -77.5t88.5 -104t36.5 -174.5v-127
q0 -112 -41.5 -190.5t-121 -119.5t-192.5 -41q-114 0 -194.5 41zM134 1804l123 129l179 -149l177 149l124 -129l-301 -252z" />
    <glyph glyph-name="scaron" unicode="&#x161;" horiz-adv-x="738" 
d="M205 24q-72 39 -111.5 110t-39.5 165v13l209 1v-12q0 -55 29.5 -87.5t80.5 -32.5t80.5 30.5t29.5 82.5q0 37 -19 62t-48 40t-82 35q-6 2 -12.5 4.5t-13.5 5.5q-2 1 -5 2t-5 2q-68 27 -117 60.5t-81.5 93t-32.5 150.5q0 92 36.5 162t104 107.5t157.5 37.5q91 0 158.5 -36
t104 -103.5t36.5 -157.5v-12l-209 -1v14q0 47 -24 74t-66 27q-41 0 -64.5 -29.5t-23.5 -80.5q0 -40 19.5 -66t50 -41.5t80.5 -32.5q2 -1 4.5 -1.5t4.5 -1.5q1 -1 3 -1t4 -1q78 -26 128.5 -55.5t86 -91t35.5 -165.5q0 -94 -39.5 -163.5t-111.5 -107.5t-169 -38q-96 0 -168 39
zM78 1517l129 113l150 -177l151 177l128 -113l-279 -314z" />
    <glyph glyph-name="uni0162" unicode="&#x162;" horiz-adv-x="706" 
d="M244 1334h219v-1334h-219v1334zM-5 1454h717v-209h-717v209zM203 -404l41 144q40 -14 82 -14q40 0 60 11.5t20 35.5q0 25 -31 37t-93 12l91 114q110 0 164 -44t54 -134t-59.5 -135t-179.5 -45q-84 0 -149 18zM440 61v-241l-174 2v239h174z" />
    <glyph glyph-name="uni0163" unicode="&#x163;" horiz-adv-x="538" 
d="M185 64.5q-62 69.5 -62 205.5v1070h218v-1050q0 -39 18 -61t51 -22h74v-212h-104q-133 0 -195 69.5zM25 1038h459v-203h-459v203zM117 -404l41 144q45 -14 89 -14q33 0 49.5 11.5t16.5 35.5q0 25 -27.5 37t-82.5 12l91 114q102 0 153.5 -44t51.5 -134t-56.5 -135
t-169.5 -45q-93 0 -156 18zM187 91h174v-269h-174v269z" />
    <glyph glyph-name="Tcaron" unicode="&#x164;" horiz-adv-x="706" 
d="M244 1334h219v-1334h-219v1334zM-5 1454h717v-209h-717v209zM49 1804l123 129l179 -149l177 149l124 -129l-301 -252z" />
    <glyph glyph-name="tcaron" unicode="&#x165;" horiz-adv-x="618" 
d="M185 64.5q-62 69.5 -62 205.5v1070h218v-1050q0 -39 18 -61t51 -22h74v-212h-104q-133 0 -195 69.5zM25 1038h459v-203h-459v203zM393 1560h174v-218l-174 -154v372z" />
    <glyph glyph-name="Umacron" unicode="&#x16a;" horiz-adv-x="842" 
d="M237 26.5q-76 41.5 -115.5 121t-39.5 192.5v1114h219v-1122q0 -62 31 -96t88 -34q58 0 89.5 34t31.5 96v1122h220v-1114q0 -113 -40 -192.5t-116.5 -121t-184.5 -41.5q-107 0 -183 41.5zM685 1769v-195h-530v195h530z" />
    <glyph glyph-name="umacron" unicode="&#x16b;" horiz-adv-x="834" 
d="M512 1038h218v-1038h-218v1038zM322 275q0 -48 24 -72t72 -24q47 0 70.5 25t23.5 75l14 -115q-26 -90 -74.5 -134.5t-120.5 -44.5q-113 0 -169.5 72t-56.5 214v767h217v-763zM680 1445v-215h-530v215h530z" />
    <glyph glyph-name="Ubreve" unicode="&#x16c;" horiz-adv-x="842" 
d="M237 26.5q-76 41.5 -115.5 121t-39.5 192.5v1114h219v-1122q0 -62 31 -96t88 -34q58 0 89.5 34t31.5 96v1122h220v-1114q0 -113 -40 -192.5t-116.5 -121t-184.5 -41.5q-107 0 -183 41.5zM687 1863q0 -145 -69 -225t-194 -80h-8q-125 0 -194 80t-69 225l180 -2
q0 -66 22 -102.5t61 -36.5h8q40 0 61.5 36.5t21.5 102.5z" />
    <glyph glyph-name="ubreve" unicode="&#x16d;" horiz-adv-x="834" 
d="M512 1038h218v-1038h-218v1038zM322 275q0 -48 24 -72t72 -24q47 0 70.5 25t23.5 75l14 -115q-26 -90 -74.5 -134.5t-120.5 -44.5q-113 0 -169.5 72t-56.5 214v767h217v-763zM223 1287.5q-65 65.5 -65 184.5v85h174v-74q0 -46 19.5 -71.5t54.5 -25.5h18q36 0 55.5 25.5
t19.5 71.5v74h174v-85q0 -119 -65 -184.5t-184 -65.5h-18q-118 0 -183 65.5z" />
    <glyph glyph-name="Uring" unicode="&#x16e;" horiz-adv-x="842" 
d="M237 26.5q-76 41.5 -115.5 121t-39.5 192.5v1114h219v-1122q0 -62 31 -96t88 -34q58 0 89.5 34t31.5 96v1122h220v-1114q0 -113 -40 -192.5t-116.5 -121t-184.5 -41.5q-107 0 -183 41.5zM254 1602.5q-59 60.5 -59 170.5q0 115 59 178t166 63t166 -63t59 -178
q0 -110 -59 -170.5t-166 -60.5t-166 60.5zM477 1704.5q20 25.5 20 72.5q0 48 -20 75t-57 27q-36 0 -56 -27t-20 -75q0 -47 20 -72.5t56 -25.5q37 0 57 25.5z" />
    <glyph glyph-name="uring" unicode="&#x16f;" horiz-adv-x="834" 
d="M512 1038h218v-1038h-218v1038zM322 275q0 -48 24 -72t72 -24q47 0 70.5 25t23.5 75l14 -115q-26 -90 -74.5 -134.5t-120.5 -44.5q-113 0 -169.5 72t-56.5 214v767h217v-763zM245.5 1265q-57.5 61 -57.5 179q0 124 57.5 187.5t169.5 63.5t170 -64.5t58 -186.5
q0 -118 -58 -179t-170 -61t-169.5 61zM468 1373.5q18 25.5 18 74.5q0 51 -18 77t-53 26t-52.5 -26t-17.5 -77q0 -50 17.5 -75t52.5 -25t53 25.5z" />
    <glyph glyph-name="Uhungarumlaut" unicode="&#x170;" horiz-adv-x="842" 
d="M237 26.5q-76 41.5 -115.5 121t-39.5 192.5v1114h219v-1122q0 -62 31 -96t88 -34q58 0 89.5 34t31.5 96v1122h220v-1114q0 -113 -40 -192.5t-116.5 -121t-184.5 -41.5q-107 0 -183 41.5zM439 1655l193 279l167 -137l-217 -253zM107 1655l194 279l167 -137l-218 -253z" />
    <glyph glyph-name="uhungarumlaut" unicode="&#x171;" horiz-adv-x="834" 
d="M512 1038h218v-1038h-218v1038zM322 275q0 -48 24 -72t72 -24q47 0 70.5 25t23.5 75l14 -115q-26 -90 -74.5 -134.5t-120.5 -44.5q-113 0 -169.5 72t-56.5 214v767h217v-763zM458 1288l200 360l173 -111l-220 -336zM115 1288l201 360l173 -111l-220 -336z" />
    <glyph glyph-name="Uogonek" unicode="&#x172;" horiz-adv-x="842" 
d="M336 -356q-75 64 -75 193q0 132 72 197t217 65l-16 -98q-79 0 -79 -118t122 -118h40v-185h-55q-151 0 -226 64zM237 26.5q-76 41.5 -115.5 121t-39.5 192.5v1114h219v-1122q0 -62 31 -96t88 -34q58 0 89.5 34t31.5 96v1122h220v-1114q0 -113 -40 -192.5t-116.5 -121
t-184.5 -41.5q-107 0 -183 41.5z" />
    <glyph glyph-name="uogonek" unicode="&#x173;" horiz-adv-x="834" 
d="M512 1038h218v-1038h-218v1038zM322 275q0 -48 24 -72t72 -24q47 0 70.5 25t23.5 75l14 -115q-26 -90 -74.5 -134.5t-120.5 -44.5q-113 0 -169.5 72t-56.5 214v767h217v-763zM471.5 -372.5q-58.5 46.5 -58.5 145.5q0 87 64.5 157.5t188.5 123.5l64 -53q-63 -37 -93 -76.5
t-30 -84.5q0 -30 17.5 -44.5t55.5 -14.5h50v-200h-76q-124 0 -182.5 46.5z" />
    <glyph glyph-name="Ydieresis" unicode="&#x178;" horiz-adv-x="720" 
d="M475 583v-583h-219v583l-281 871h225l164 -614l156 614h226zM441 1793h218v-218h-218v218zM61 1793h218v-218h-218v218z" />
    <glyph glyph-name="Zacute" unicode="&#x179;" horiz-adv-x="744" 
d="M682 1263l-376 -1054h386v-209h-615v191l380 1054h-362v209h587v-191zM270 1675l248 259l162 -156l-272 -234z" />
    <glyph glyph-name="zacute" unicode="&#x17a;" horiz-adv-x="723" 
d="M639 849l-332 -643h359v-206h-594v193l346 639h-332v206h553v-189zM252 1311l246 355l162 -126l-265 -336z" />
    <glyph glyph-name="Zdotaccent" unicode="&#x17b;" horiz-adv-x="744" 
d="M682 1263l-376 -1054h386v-209h-615v191l380 1054h-362v209h587v-191zM281 1791h219v-219h-219v219z" />
    <glyph glyph-name="zdotaccent" unicode="&#x17c;" horiz-adv-x="723" 
d="M639 849l-332 -643h359v-206h-594v193l346 639h-332v206h553v-189zM266 1469h219v-219h-219v219z" />
    <glyph glyph-name="Zcaron" unicode="&#x17d;" horiz-adv-x="744" 
d="M682 1263l-376 -1054h386v-209h-615v191l380 1054h-362v209h587v-191zM86 1804l123 129l179 -149l177 149l124 -129l-301 -252z" />
    <glyph glyph-name="zcaron" unicode="&#x17e;" horiz-adv-x="723" 
d="M639 849l-332 -643h359v-206h-594v193l346 639h-332v206h553v-189zM97 1517l129 113l150 -177l151 177l128 -113l-279 -314z" />
    <glyph glyph-name="uni0181" unicode="&#x181;" horiz-adv-x="1126" 
d="M-5 1196q0 122 72 190t203 68h213v-208h-185q-40 0 -62 -17.5t-22 -50.5v-97h-219v115zM493 207h228q55 0 85.5 28t30.5 80v192q0 46 -14.5 78t-42.5 49t-66 17h-221v205h218q52 0 81 34.5t29 98.5v152q0 51 -29 79t-79 28h-220v206h231q99 0 169.5 -34.5t107.5 -101
t37 -159.5v-155q0 -67 -23.5 -119t-68 -85t-107.5 -45q69 -10 117.5 -44t74.5 -88.5t26 -126.5v-195q0 -96 -36 -163t-105.5 -102.5t-167.5 -35.5h-255v207zM362 1454h219v-1454h-219v1454z" />
    <glyph glyph-name="uni0186" unicode="&#x186;" horiz-adv-x="856" 
d="M232.5 29q-77.5 44 -117.5 127.5t-40 200.5v89h221v-89q0 -49 14 -83t41.5 -52t66.5 -18q38 0 65.5 18t42 52t14.5 82v742q0 48 -14.5 82.5t-42 52.5t-65.5 18t-66 -18t-42 -52.5t-14 -82.5v-90h-221v90q0 117 40 200.5t117.5 127t185.5 43.5q109 0 185.5 -43.5
t117.5 -127t41 -200.5v-742q0 -117 -41 -200t-118 -127t-185 -44t-185.5 44z" />
    <glyph glyph-name="uni0189" unicode="&#x189;" horiz-adv-x="906" 
d="M260 209h225q51 0 78.5 31t27.5 87v801q0 56 -27.5 86.5t-78.5 30.5h-225v209h235q100 0 171 -37t108.5 -107.5t37.5 -170.5v-824q0 -99 -37.5 -170t-109 -108t-171.5 -37h-234v209zM117 1454h219v-1454h-219v1454zM491 828v-201h-481v201h481z" />
    <glyph glyph-name="uni018A" unicode="&#x18a;" horiz-adv-x="1151" 
d="M-5 1196q0 122 72 190t203 68h212v-208h-184q-40 0 -62 -17.5t-22 -50.5v-97h-219v115zM505 209h225q51 0 78.5 31t27.5 87v801q0 56 -27.5 86.5t-78.5 30.5h-225v209h235q100 0 171 -37t108.5 -107.5t37.5 -170.5v-824q0 -99 -37.5 -170t-109 -108t-171.5 -37h-234v209z
M362 1454h219v-1454h-219v1454z" />
    <glyph glyph-name="uni018E" unicode="&#x18e;" horiz-adv-x="774" 
d="M461 0v1454h219v-1454h-219zM45 0v211h530v-211h-530zM95 617v211h480v-211h-480zM45 1243v211h530v-211h-530z" />
    <glyph glyph-name="uni018F" unicode="&#x18f;" horiz-adv-x="934" 
d="M277 29.5q-80 44.5 -121.5 129.5t-41.5 205v433h650v-208h-431v-228q0 -77 36 -119.5t100 -42.5t98.5 37.5t34.5 106.5v748q0 79 -33.5 121.5t-95.5 42.5q-66 0 -102.5 -40t-36.5 -114v-67l-218 1v67q0 175 93.5 271t263.5 96q110 0 188 -44.5t119 -129.5t41 -204v-748
q0 -114 -41.5 -194t-120.5 -122t-190 -42q-112 0 -192 44.5z" />
    <glyph glyph-name="uni0190" unicode="&#x190;" horiz-adv-x="833" 
d="M245 23.5q-77 38.5 -117.5 113t-40.5 178.5v214q0 83 41 143t116 87q-65 42 -99 94.5t-34 107.5v199q0 98 37 167.5t107 105.5t169 36q106 0 180.5 -36t114 -105.5t39.5 -167.5v-109h-220v107q0 30 -12.5 51.5t-36.5 33t-58 11.5q-48 0 -74.5 -24.5t-26.5 -69.5v-190
q0 -52 24.5 -79.5t67.5 -27.5h121v-212h-121q-54 0 -85 -34t-31 -95v-204q0 -56 33 -87t92 -31q40 0 69.5 13t45 37t15.5 58v95h220v-104q0 -100 -41 -170t-120 -107t-189 -37q-109 0 -186 38.5z" />
    <glyph glyph-name="uni0191" unicode="&#x191;" horiz-adv-x="782" 
d="M-5 -215h52q37 0 56 23t19 65v457h219v-477q0 -131 -68 -203t-191 -72h-87v207zM122 1454h219v-1454h-219v1454zM227 814h481v-209h-481v209zM227 1454h531v-209h-531v209z" />
    <glyph glyph-name="florin" unicode="&#x192;" horiz-adv-x="519" 
d="M25 -210h29q33 0 51 22.5t18 61.5v226h218v-246q0 -131 -68 -203.5t-191 -72.5h-57v212zM123 1179q0 138 65 206.5t199 68.5h128v-206h-105q-34 0 -51.5 -23t-17.5 -60v-1165h-218v1179zM25 1038h490v-195h-490v195z" />
    <glyph glyph-name="uni0194" unicode="&#x194;" horiz-adv-x="802" 
d="M209.5 -372.5q-59.5 49.5 -59.5 158.5q0 57 36.5 143.5t117.5 221.5h195q80 -135 116.5 -221.5t36.5 -143.5q0 -109 -59.5 -158.5t-191.5 -49.5t-191.5 49.5zM434.5 -227q10.5 13 10.5 41q0 20 -10 53t-34 86q-43 -109 -43 -139q0 -28 10 -41t33 -13t33.5 13zM5 1454h230
l166 -1060l166 1060h231l-280 -1454h-233z" />
    <glyph glyph-name="uni0198" unicode="&#x198;" horiz-adv-x="874" 
d="M264 648l284 663q22 54 47 86.5t60.5 48t89.5 15.5h100v-209h-52q-27 0 -43 -15.5t-36 -55.5l-452 -928zM95 1454h219v-1454h-219v1454zM386 786l150 149l354 -935h-244z" />
    <glyph glyph-name="uni0199" unicode="&#x199;" horiz-adv-x="823" 
d="M231 417l362 621h225l-578 -911zM399 532l133 154l327 -686h-235zM105 1189q0 131 67.5 203t189.5 72h89v-212h-59q-33 0 -50.5 -21.5t-17.5 -61.5v-1169h-219v1189z" />
    <glyph glyph-name="Ohorn" unicode="&#x1a0;" horiz-adv-x="982" 
d="M571 1285v160h142q120 0 120 139v42h222v-62q0 -140 -67 -209.5t-203 -69.5h-214zM263.5 27q-82.5 42 -125.5 121t-43 191v777q0 112 43 191.5t125.5 120.5t197.5 41q116 0 198 -41t125.5 -120.5t43.5 -191.5v-777q0 -112 -43.5 -191t-125.5 -121t-198 -42
q-115 0 -197.5 42zM540 219.5q33 17.5 50 51t17 81.5v752q0 47 -17 80.5t-50 51t-79 17.5t-78.5 -17.5t-49.5 -51t-17 -80.5v-752q0 -48 17 -81.5t49.5 -51t78.5 -17.5t79 17.5z" />
    <glyph glyph-name="ohorn" unicode="&#x1a1;" horiz-adv-x="841" 
d="M425 1038h129q57 0 88.5 34t31.5 95v84h223v-104q0 -119 -70.5 -184t-199.5 -65h-202v140zM224.5 19.5q-68.5 34.5 -104.5 100t-36 157.5v492q0 91 36 155.5t104.5 98t164.5 33.5t164.5 -33.5t104 -98t35.5 -155.5v-495q0 -91 -35.5 -156t-104 -99t-164.5 -34
t-164.5 34.5zM452.5 215q22.5 26 22.5 74v467q0 46 -22.5 71.5t-64.5 25.5q-40 0 -63.5 -26t-23.5 -71v-467q0 -48 23 -74t64 -26q42 0 64.5 26z" />
    <glyph glyph-name="Uhorn" unicode="&#x1af;" horiz-adv-x="969" 
d="M237 26.5q-76 41.5 -115.5 121t-39.5 192.5v1114h219v-1122q0 -62 31 -96t88 -34q58 0 89.5 34t31.5 96v1122h220v-1114q0 -113 -40 -192.5t-116.5 -121t-184.5 -41.5q-107 0 -183 41.5zM554 1314v140h142q57 0 88.5 34t31.5 95v83h222v-103q0 -119 -70.5 -184
t-198.5 -65h-215z" />
    <glyph glyph-name="uhorn" unicode="&#x1b0;" horiz-adv-x="951" 
d="M512 1038h218v-1038h-218v1038zM322 275q0 -48 24 -72t72 -24q47 0 70.5 25t23.5 75l14 -115q-26 -90 -74.5 -134.5t-120.5 -44.5q-113 0 -169.5 72t-56.5 214v767h217v-763zM523 898v140h142q57 0 88.5 34t31.5 95v84h222v-104q0 -119 -70.5 -184t-198.5 -65h-215z" />
    <glyph glyph-name="uni01B2" unicode="&#x1b2;" horiz-adv-x="842" 
d="M237 26.5q-76 41.5 -115.5 121t-39.5 192.5v1114h219v-1122q0 -62 31 -96t88 -34q58 0 89.5 34t31.5 96v756h220v-748q0 -113 -40 -192.5t-116.5 -121t-184.5 -41.5q-107 0 -183 41.5zM540 1159q0 40 -17.5 61.5t-50.5 21.5h-39v212h69q123 0 191 -72t68 -203v-268h-221
v248z" />
    <glyph glyph-name="uni01B3" unicode="&#x1b3;" horiz-adv-x="746" 
d="M256 583l-281 871h225l179 -667l96 -138v-649h-219v583zM315 637l160 646q3 16 12 44q16 46 38.5 75.5t58.5 44t91 14.5h112v-209h-48q-31 0 -48.5 -16.5t-28.5 -54.5l-225 -717z" />
    <glyph glyph-name="uni01B4" unicode="&#x1b4;" horiz-adv-x="857" 
d="M110 -220h56q61 0 92.5 24.5t44.5 82.5l201 971q20 98 78 146.5t158 48.5h103v-209h-67q-34 0 -54.5 -18t-28.5 -53l-234 -1016q-15 -64 -52.5 -106t-98 -63t-144.5 -21h-54v213zM35 1038h213l210 -899l-108 -238z" />
    <glyph glyph-name="uni01B7" unicode="&#x1b7;" horiz-adv-x="813" 
d="M208 22q-76 37 -116 107t-40 170v104h221v-95q0 -52 30.5 -80t87.5 -28q56 0 86 31t30 87v244q0 61 -27.5 94.5t-78.5 33.5h-147v212h147q102 0 175.5 -39.5t111.5 -114t38 -180.5v-253q0 -104 -39 -178.5t-114.5 -113t-181.5 -38.5q-107 0 -183 37zM254 902l219 343
h-398v209h647v-191l-279 -433z" />
    <glyph glyph-name="uni01DD" unicode="&#x1dd;" horiz-adv-x="802" 
d="M233 24q-71 39 -108.5 114t-37.5 180v285h465v-169h-254v-119q0 -63 28 -98t79 -35q49 0 75.5 37t26.5 105v404q0 60 -28.5 92.5t-81.5 32.5q-49 0 -76 -25t-27 -72v-21l-210 1v18q0 143 82 221t231 78q101 0 173 -39t110.5 -113.5t38.5 -178.5v-386q0 -111 -37.5 -190
t-107.5 -120t-169 -41q-101 0 -172 39z" />
    <glyph glyph-name="uni0218" unicode="&#x218;" horiz-adv-x="883" 
d="M244.5 26q-80.5 41 -122.5 119.5t-42 190.5v75l218 1v-72q0 -67 37 -104t104 -37q65 0 100.5 36.5t35.5 103.5v127q0 47 -24.5 80t-61.5 55.5t-102 53.5q-3 1 -6 2.5t-6 2.5l-13 6q-87 42 -144.5 84t-97 114t-39.5 180v80q0 109 41.5 186.5t121.5 118t193 40.5
q111 0 189 -40.5t119 -119t41 -189.5v-79l-219 -2v76q0 68 -33.5 104.5t-96.5 36.5q-66 0 -101.5 -34t-35.5 -96v-94q0 -48 23.5 -82t59.5 -55.5t99 -51.5q9 -4 17.5 -8.5t18.5 -8.5q3 -2 6.5 -3.5t7.5 -3.5q85 -41 137 -77.5t88.5 -104t36.5 -174.5v-127
q0 -112 -41.5 -190.5t-121 -119.5t-192.5 -41q-114 0 -194.5 41zM322 -125h219v-193l-219 -205v398z" />
    <glyph glyph-name="uni0219" unicode="&#x219;" horiz-adv-x="738" 
d="M205 24q-72 39 -111.5 110t-39.5 165v13l209 1v-12q0 -55 29.5 -87.5t80.5 -32.5t80.5 30.5t29.5 82.5q0 37 -19 62t-48 40t-82 35q-6 2 -12.5 4.5t-13.5 5.5q-2 1 -5 2t-5 2q-68 27 -117 60.5t-81.5 93t-32.5 150.5q0 92 36.5 162t104 107.5t157.5 37.5q91 0 158.5 -36
t104 -103.5t36.5 -157.5v-12l-209 -1v14q0 47 -24 74t-66 27q-41 0 -64.5 -29.5t-23.5 -80.5q0 -40 19.5 -66t50 -41.5t80.5 -32.5q2 -1 4.5 -1.5t4.5 -1.5q1 -1 3 -1t4 -1q78 -26 128.5 -55.5t86 -91t35.5 -165.5q0 -94 -39.5 -163.5t-111.5 -107.5t-169 -38q-96 0 -168 39
zM246 -132h219v-193l-219 -205v398z" />
    <glyph glyph-name="uni021A" unicode="&#x21a;" horiz-adv-x="706" 
d="M244 1334h219v-1334h-219v1334zM-5 1454h717v-209h-717v209zM244 -125h219v-193l-219 -205v398z" />
    <glyph glyph-name="uni021B" unicode="&#x21b;" horiz-adv-x="538" 
d="M185 64.5q-62 69.5 -62 205.5v1070h218v-1050q0 -39 18 -61t51 -22h74v-212h-104q-133 0 -195 69.5zM25 1038h459v-203h-459v203zM165 -125h219v-193l-219 -205v398z" />
    <glyph glyph-name="uni0253" unicode="&#x253;" horiz-adv-x="824" 
d="M105 1189q0 131 67.5 203t189.5 72h89v-212h-59q-33 0 -50.5 -21.5t-17.5 -61.5v-1169h-219v1189zM387.5 32q-53.5 47 -77.5 131l14 154q0 -42 12 -72t34.5 -45.5t54.5 -15.5q47 0 73 36t26 101v402q0 62 -26 96.5t-73 34.5q-33 0 -55 -14.5t-34 -43.5t-12 -69l-21 136
q34 90 91 140t126 50q70 0 119.5 -36t75.5 -105t26 -167v-446q0 -99 -27 -169.5t-78 -107.5t-123 -37t-125.5 47z" />
    <glyph glyph-name="uni0254" unicode="&#x254;" horiz-adv-x="772" 
d="M129.5 64.5q-84.5 79.5 -84.5 222.5v57l218 2v-58q0 -59 27 -91t76 -32t76 31t27 87v458q0 58 -27 90.5t-76 32.5t-76 -33t-27 -93v-61h-216v62q0 150 84 232t238 82q101 0 172.5 -36.5t109.5 -106.5t38 -169v-458q0 -94 -38 -161t-109.5 -102t-172.5 -35
q-155 0 -239.5 79.5z" />
    <glyph glyph-name="uni0256" unicode="&#x256;" horiz-adv-x="811" 
d="M568.5 -350q-67.5 72 -67.5 203v299h219v-279q0 -39 17.5 -61t49.5 -22h60v-212h-89q-122 0 -189.5 72zM501 1454h219v-1454h-219v1454zM183.5 17.5q-48.5 34.5 -74 101t-25.5 160.5v476q0 95 25.5 162.5t74 103t116.5 35.5q70 0 128 -49t94 -137l-21 -139q0 39 -12 67
t-34 42.5t-54 14.5q-48 0 -74.5 -33t-26.5 -92v-429q0 -56 26.5 -86.5t74.5 -30.5q32 0 54 14t34 41.5t12 65.5l14 -142q-27 -85 -83 -132.5t-132 -47.5q-68 0 -116.5 34.5z" />
    <glyph glyph-name="uni0257" unicode="&#x257;" horiz-adv-x="811" 
d="M501 1189q0 131 67.5 203t189.5 72h89v-212h-60q-32 0 -49.5 -21.5t-17.5 -61.5v-1169h-219v1189zM183.5 17.5q-48.5 34.5 -74 101t-25.5 160.5v476q0 95 25.5 162.5t74 103t116.5 35.5q70 0 128 -49t94 -137l-21 -139q0 39 -12 67t-34 42.5t-54 14.5q-48 0 -74.5 -33
t-26.5 -92v-429q0 -56 26.5 -86.5t74.5 -30.5q32 0 54 14t34 41.5t12 65.5l14 -142q-27 -85 -83 -132.5t-132 -47.5q-68 0 -116.5 34.5z" />
    <glyph glyph-name="uni0259" unicode="&#x259;" horiz-adv-x="802" 
d="M233 24q-71 39 -108.5 114t-37.5 180v285h465v-169h-254v-119q0 -63 28 -98t79 -35q49 0 75.5 37t26.5 105v404q0 60 -28.5 92.5t-81.5 32.5q-49 0 -76 -25t-27 -72v-21l-210 1v18q0 143 82 221t231 78q101 0 173 -39t110.5 -113.5t38.5 -178.5v-386q0 -111 -37.5 -190
t-107.5 -120t-169 -41q-101 0 -172 39z" />
    <glyph glyph-name="uni025B" unicode="&#x25b;" horiz-adv-x="699" 
d="M149.5 54.5q-75.5 69.5 -75.5 195.5v153q0 38 13 66.5t39.5 49t67.5 33.5q-61 22 -88.5 55.5t-27.5 75.5v131q0 115 73 178.5t205 63.5q133 0 205.5 -63.5t73.5 -178.5v-77h-204v46q0 33 -19.5 51.5t-54.5 18.5q-36 0 -55.5 -18t-19.5 -51v-84q0 -29 24 -44.5t67 -15.5
h118v-180h-118q-45 0 -70 -22t-25 -61v-100q0 -41 22.5 -64.5t63.5 -23.5t64 19.5t23 54.5v61h204v-97q0 -116 -76.5 -179t-215.5 -63q-138 0 -213.5 69.5z" />
    <glyph glyph-name="uni02BB" unicode="&#x2bb;" horiz-adv-x="286" 
d="M34 1235l219 199v-418h-219v219z" />
    <glyph glyph-name="uni02BC" unicode="&#x2bc;" horiz-adv-x="286" 
d="M34 1454h219v-218l-219 -199v417z" />
    <glyph glyph-name="circumflex" unicode="&#x2c6;" horiz-adv-x="530" 
d="M542 1317l-127 -114l-150 178l-150 -178l-126 114l276 314z" />
    <glyph glyph-name="caron" unicode="&#x2c7;" horiz-adv-x="530" 
d="M-14 1517l129 113l150 -177l151 177l128 -113l-279 -314z" />
    <glyph glyph-name="uni02C9" unicode="&#x2c9;" horiz-adv-x="530" 
d="M530 1445v-215h-530v215h530z" />
    <glyph glyph-name="breve" unicode="&#x2d8;" horiz-adv-x="494" 
d="M55 1287.5q-65 65.5 -65 184.5v85h174v-74q0 -46 19.5 -71.5t54.5 -25.5h18q36 0 55.5 25.5t19.5 71.5v74h174v-85q0 -119 -65 -184.5t-184 -65.5h-18q-118 0 -183 65.5z" />
    <glyph glyph-name="dotaccent" unicode="&#x2d9;" horiz-adv-x="344" 
d="M63 1469h219v-219h-219v219z" />
    <glyph glyph-name="ogonek" unicode="&#x2db;" horiz-adv-x="307" 
d="M53.5 -373.5q-58.5 46.5 -58.5 145.5q0 87 64.5 157.5t188.5 123.5l64 -53q-63 -37 -93 -76.5t-30 -84.5q0 -30 17.5 -44.5t55.5 -14.5h50v-200h-76q-124 0 -182.5 46.5z" />
    <glyph glyph-name="tilde" unicode="&#x2dc;" horiz-adv-x="556" 
d="M353.5 1231.5q-24.5 7.5 -53.5 23.5l-7 4q-4 3 -8 5.5t-9 4.5q-24 15 -41 22t-37 7q-21 0 -30.5 -11t-9.5 -32v-35h-166v70q0 104 41 158t119 54q32 0 57.5 -8t52.5 -23l7 -5l14 -8q22 -12 37.5 -18.5t32.5 -6.5q22 0 33.5 13t11.5 37v32h167v-70q0 -108 -41 -164.5
t-117 -56.5q-29 0 -53.5 7.5z" />
    <glyph glyph-name="hungarumlaut" unicode="&#x2dd;" horiz-adv-x="724" 
d="M348 1288l200 360l173 -111l-220 -336zM5 1288l201 360l173 -111l-220 -336z" />
    <glyph glyph-name="gravecomb" unicode="&#x300;" 
d="M-414 1540l162 124l246 -355l-143 -105z" />
    <glyph glyph-name="acutecomb" unicode="&#x301;" 
d="M-463 1311l246 355l162 -126l-265 -336z" />
    <glyph glyph-name="uni0302" unicode="&#x302;" 
d="M-47 1317l-127 -114l-150 178l-150 -178l-126 114l276 314z" />
    <glyph glyph-name="tildecomb" unicode="&#x303;" 
d="M-281.5 1233.5q-24.5 7.5 -53.5 23.5l-7 4q-4 3 -8 5.5t-9 4.5q-24 15 -41 22t-37 7q-21 0 -30.5 -11t-9.5 -32v-35h-166v70q0 104 41 158t119 54q32 0 57.5 -8t52.5 -23l7 -5l14 -8q22 -12 37.5 -18.5t32.5 -6.5q22 0 33.5 13t11.5 37v32h167v-70q0 -108 -41 -164.5
t-117 -56.5q-29 0 -53.5 7.5z" />
    <glyph glyph-name="uni0304" unicode="&#x304;" 
d="M-150 1445v-215h-530v215h530z" />
    <glyph glyph-name="uni0306" unicode="&#x306;" 
d="M-539 1287.5q-65 65.5 -65 184.5v85h174v-74q0 -46 19.5 -71.5t54.5 -25.5h18q36 0 55.5 25.5t19.5 71.5v74h174v-85q0 -119 -65 -184.5t-184 -65.5h-18q-118 0 -183 65.5z" />
    <glyph glyph-name="uni0307" unicode="&#x307;" 
d="M-228 1469h219v-219h-219v219z" />
    <glyph glyph-name="uni0308" unicode="&#x308;" 
d="M-289 1448h218v-218h-218v218zM-642 1448h218v-218h-218v218z" />
    <glyph glyph-name="hookabovecomb" unicode="&#x309;" 
d="M-127 1609.5q53 -43.5 53 -132.5q0 -154 -191 -154l-88 76q84 0 84 48q0 50 -51 50q-36 0 -75 -14l-22 152q53 18 130 18q107 0 160 -43.5zM-369 1399h179v-149h-179v149z" />
    <glyph glyph-name="uni030A" unicode="&#x30a;" 
d="M-464.5 1265q-57.5 61 -57.5 179q0 124 57.5 187.5t169.5 63.5t170 -64.5t58 -186.5q0 -118 -58 -179t-170 -61t-169.5 61zM-242 1373.5q18 25.5 18 74.5q0 51 -18 77t-53 26t-52.5 -26t-17.5 -77q0 -50 17.5 -75t52.5 -25t53 25.5z" />
    <glyph glyph-name="uni030B" unicode="&#x30b;" 
d="M-447 1288l200 360l173 -111l-220 -336zM-790 1288l201 360l173 -111l-220 -336z" />
    <glyph glyph-name="uni030C" unicode="&#x30c;" 
d="M-603 1517l129 113l150 -177l151 177l128 -113l-279 -314z" />
    <glyph glyph-name="uni031B" unicode="&#x31b;" 
d="M-484 898v140h142q57 0 88.5 34t31.5 95v84h222v-104q0 -119 -70.5 -184t-198.5 -65h-215z" />
    <glyph glyph-name="dotbelowcomb" unicode="&#x323;" 
d="M-261 -186h219v-219h-219v219z" />
    <glyph glyph-name="uni0326" unicode="&#x326;" 
d="M-241 -125h219v-193l-219 -205v398z" />
    <glyph glyph-name="uni0327" unicode="&#x327;" 
d="M-413 -404l41 144q45 -14 89 -14q33 0 49.5 11.5t16.5 35.5q0 25 -27.5 37t-82.5 12l91 114q102 0 153.5 -44t51.5 -134t-56.5 -135t-169.5 -45q-93 0 -156 18zM-343 91h174v-269h-174v269z" />
    <glyph glyph-name="uni0328" unicode="&#x328;" 
d="M-268.5 -373.5q-58.5 46.5 -58.5 145.5q0 87 64.5 157.5t188.5 123.5l64 -53q-63 -37 -93 -76.5t-30 -84.5q0 -30 17.5 -44.5t55.5 -14.5h50v-200h-76q-124 0 -182.5 46.5z" />
    <glyph glyph-name="uni0335" unicode="&#x335;" 
d="M-170 823v-191h-430v191h430z" />
    <glyph glyph-name="uni0345" unicode="&#x345;" 
d="M-211 -174q0 -28 14 -43.5t39 -15.5h52v-189h-101q-97 0 -150 58.5t-53 166.5v118h199v-95z" />
    <glyph glyph-name="uni0370" unicode="&#x370;" horiz-adv-x="650" 
d="M95 1454h219v-1454h-219v1454zM217 820h369v-207h-369v207z" />
    <glyph glyph-name="uni0371" unicode="&#x371;" horiz-adv-x="566" 
d="M105 1038h217v-1038h-217v1038zM243 612h289v-207h-289v207z" />
    <glyph glyph-name="uni0372" unicode="&#x372;" horiz-adv-x="972" 
d="M35 1454h202v-416h-202v416zM696 1454h202v-416h-202v416zM354 1334h219v-1334h-219v1334zM105 1454h717v-209h-717v209z" />
    <glyph glyph-name="uni0373" unicode="&#x373;" horiz-adv-x="852" 
d="M15 1454h188v-436h-188v436zM610 1454h188v-436h-188v436zM296 1330h220v-1330h-220v1330zM15 1454h783v-194h-783v194z" />
    <glyph glyph-name="uni0374" unicode="&#x374;" horiz-adv-x="286" 
d="M36 1256l214 198v-417h-214v219z" />
    <glyph glyph-name="uni0375" unicode="&#x375;" horiz-adv-x="326" 
d="M54 21l219 198v-416h-219v218z" />
    <glyph glyph-name="uni0376" unicode="&#x376;" horiz-adv-x="914" 
d="M615 1v1027l23 -28l-364 -999h-179v1453h204v-1034l-23 28l367 1006h177v-1453h-205z" />
    <glyph glyph-name="uni0377" unicode="&#x377;" horiz-adv-x="819" 
d="M519 1v700l24 -26l-268 -674h-170v1037h195v-699l-24 26l270 673h169v-1037h-196z" />
    <glyph glyph-name="uni037A" unicode="&#x37a;" horiz-adv-x="213" 
d="M204 -174q0 -28 14 -43.5t39 -15.5h52v-189h-101q-97 0 -150 58.5t-53 166.5v118h199v-95z" />
    <glyph glyph-name="uni037B" unicode="&#x37b;" horiz-adv-x="772" 
d="M129.5 64.5q-84.5 79.5 -84.5 222.5v57l218 2v-58q0 -59 27 -91t76 -32t76 31t27 87v458q0 58 -27 90.5t-76 32.5t-76 -33t-27 -93v-61h-216v62q0 150 84 232t238 82q101 0 172.5 -36.5t109.5 -106.5t38 -169v-458q0 -94 -38 -161t-109.5 -102t-172.5 -35
q-155 0 -239.5 79.5z" />
    <glyph glyph-name="uni037C" unicode="&#x37c;" horiz-adv-x="772" 
d="M230.5 20q-71.5 35 -109 102t-37.5 161v461q0 99 37.5 169t109.5 106.5t173 36.5t173.5 -36.5t110.5 -107.5t38 -170v-62h-216v51q0 60 -27 93t-76 33t-76.5 -32.5t-27.5 -90.5v-441q0 -52 27.5 -80t76.5 -28t76 29.5t27 83.5v48l218 -2v-57q0 -95 -38.5 -162.5
t-111 -103.5t-174.5 -36t-173.5 35zM386 623h219v-219h-219v219z" />
    <glyph glyph-name="uni037D" unicode="&#x37d;" horiz-adv-x="772" 
d="M129.5 64.5q-84.5 79.5 -84.5 222.5v57l218 2v-58q0 -59 27 -91t76 -32t76 31t27 87v458q0 58 -27 90.5t-76 32.5t-76 -33t-27 -93v-61h-216v62q0 150 84 232t238 82q101 0 172.5 -36.5t109.5 -106.5t38 -169v-458q0 -94 -38 -161t-109.5 -102t-172.5 -35
q-155 0 -239.5 79.5zM168 623h219v-219h-219v219z" />
    <glyph glyph-name="uni037E" unicode="&#x37e;" horiz-adv-x="326" 
d="M54 219h219v-219l-219 -197v416zM54 1052h219v-219h-219v219z" />
    <glyph glyph-name="uni037F" unicode="&#x37f;" horiz-adv-x="725" 
d="M131.5 24q-77.5 39 -126.5 110l156 145q27 -37 62 -56.5t74 -19.5q55 0 85 33t30 94v1124h219v-1142q0 -103 -39 -176.5t-112.5 -112t-178.5 -38.5q-92 0 -169.5 39z" />
    <glyph glyph-name="tonos" unicode="&#x384;" horiz-adv-x="284" 
d="M-10.3594 1249.45l109.732 417.677l195.301 -62.9863l-134.082 -406.322z" />
    <glyph glyph-name="dieresistonos" unicode="&#x385;" horiz-adv-x="756" 
d="M546 1450h218v-218h-218v218zM-7 1450h218v-218h-218v218zM251 1249l111 418l195 -63l-134 -406z" />
    <glyph glyph-name="Alphatonos" unicode="&#x386;" horiz-adv-x="1029" 
d="M489 1454h174l342 -1454h-225l-204 1055l-203 -1055h-225zM373 477h414v-205h-414v205zM25.6406 1054.45l109.732 417.677l195.301 -62.9863l-134.082 -406.322z" />
    <glyph glyph-name="anoteleia" unicode="&#x387;" horiz-adv-x="326" 
d="M54 1052h219v-219h-219v219z" />
    <glyph glyph-name="Epsilontonos" unicode="&#x388;" horiz-adv-x="1016" 
d="M337 1454h219v-1454h-219v1454zM441 211h531v-211h-531v211zM441 828h481v-211h-481v211zM441 1454h531v-211h-531v211zM-24.3594 1054.45l109.732 417.677l195.301 -62.9863l-134.082 -406.322z" />
    <glyph glyph-name="Etatonos" unicode="&#x389;" horiz-adv-x="1143" 
d="M830 1454h219v-1454h-219v1454zM368 1454h219v-1454h-219v1454zM490 820h467v-207h-467v207zM-24.3594 1054.45l109.732 417.677l195.301 -62.9863l-134.082 -406.322z" />
    <glyph glyph-name="Iotatonos" unicode="&#x38a;" horiz-adv-x="648" 
d="M565 0h-219v1454h219v-1454zM-24.3594 1054.45l109.732 417.677l195.301 -62.9863l-134.082 -406.322z" />
    <glyph glyph-name="Omicrontonos" unicode="&#x38c;" horiz-adv-x="1122" 
d="M463.5 27q-82.5 42 -125.5 121t-43 191v777q0 112 43 191.5t125.5 120.5t197.5 41q116 0 198 -41t125.5 -120.5t43.5 -191.5v-777q0 -112 -43.5 -191t-125.5 -121t-198 -42q-115 0 -197.5 42zM740 219.5q33 17.5 50 51t17 81.5v752q0 47 -17 80.5t-50 51t-79 17.5
t-78.5 -17.5t-49.5 -51t-17 -80.5v-752q0 -48 17 -81.5t49.5 -51t78.5 -17.5t79 17.5zM-24.3594 1054.45l109.732 417.677l195.301 -62.9863l-134.082 -406.322z" />
    <glyph glyph-name="Upsilontonos" unicode="&#x38e;" horiz-adv-x="1082" 
d="M837 583v-583h-219v583l-281 871h225l164 -614l156 614h226zM25.6406 1054.45l109.732 417.677l195.301 -62.9863l-134.082 -406.322z" />
    <glyph glyph-name="Omegatonos" unicode="&#x38f;" horiz-adv-x="1204" 
d="M511 184.5q-65 34.5 -99.5 100.5t-34.5 159v672q0 112 43 191.5t125.5 120.5t197.5 41q116 0 198 -41t125.5 -120.5t43.5 -191.5v-672q0 -93 -34.5 -159t-100 -100.5t-157.5 -34.5v64q22 0 38 13t24.5 39t8.5 61v777q0 47 -17 80.5t-50 51t-79 17.5t-78.5 -17.5
t-49.5 -51t-17 -80.5v-777q0 -35 8 -61t24 -39t38 -13v-64q-92 0 -157 34.5zM377 214h291v-214h-291v214zM818 214h292v-214h-292v214zM25.6406 1054.45l109.732 417.677l195.301 -62.9863l-134.082 -406.322z" />
    <glyph glyph-name="iotadieresistonos" unicode="&#x390;" horiz-adv-x="439" 
d="M157.5 67q-63.5 67 -63.5 188v783h219v-738q0 -45 19.5 -70t56.5 -25h48v-205h-100q-116 0 -179.5 67zM377 1450h218v-218h-218v218zM-176 1450h218v-218h-218v218zM82 1249l111 418l195 -63l-134 -406z" />
    <glyph glyph-name="Alpha" unicode="&#x391;" horiz-adv-x="906" 
d="M366 1454h174l342 -1454h-225l-204 1055l-203 -1055h-225zM250 477h414v-205h-414v205z" />
    <glyph glyph-name="Beta" unicode="&#x392;" horiz-adv-x="859" 
d="M226 207h228q55 0 85.5 28t30.5 80v192q0 46 -14.5 78t-42.5 49t-66 17h-221v205h218q52 0 81 34.5t29 98.5v152q0 51 -29 79t-79 28h-220v206h231q99 0 169.5 -34.5t107.5 -101t37 -159.5v-155q0 -67 -23.5 -119t-68 -85t-107.5 -45q69 -10 117.5 -44t74.5 -88.5
t26 -126.5v-195q0 -96 -36 -163t-105.5 -102.5t-167.5 -35.5h-255v207zM95 1454h219v-1454h-219v1454z" />
    <glyph glyph-name="Gamma" unicode="&#x393;" horiz-adv-x="624" 
d="M95 1454h219v-1454h-219v1454zM233 1454h397v-209h-397v209z" />
    <glyph glyph-name="uni0394" unicode="&#x394;" horiz-adv-x="906" 
d="M366 1454h174l342 -1454h-225l-204 1055l-203 -1055h-225zM185 206h544v-206h-544v206z" />
    <glyph glyph-name="Epsilon" unicode="&#x395;" horiz-adv-x="774" 
d="M95 1454h219v-1454h-219v1454zM199 211h531v-211h-531v211zM199 828h481v-211h-481v211zM199 1454h531v-211h-531v211z" />
    <glyph glyph-name="Zeta" unicode="&#x396;" horiz-adv-x="744" 
d="M682 1263l-376 -1054h386v-209h-615v191l380 1054h-362v209h587v-191z" />
    <glyph glyph-name="Eta" unicode="&#x397;" horiz-adv-x="870" 
d="M557 1454h219v-1454h-219v1454zM95 1454h219v-1454h-219v1454zM217 820h467v-207h-467v207z" />
    <glyph glyph-name="Theta" unicode="&#x398;" horiz-adv-x="922" 
d="M380 827h163v-209h-163v209zM263.5 27q-82.5 42 -125.5 121t-43 191v777q0 112 43 191.5t125.5 120.5t197.5 41q116 0 198 -41t125.5 -120.5t43.5 -191.5v-777q0 -112 -43.5 -191t-125.5 -121t-198 -42q-115 0 -197.5 42zM540 219.5q33 17.5 50 51t17 81.5v752
q0 47 -17 80.5t-50 51t-79 17.5t-78.5 -17.5t-49.5 -51t-17 -80.5v-752q0 -48 17 -81.5t49.5 -51t78.5 -17.5t79 17.5z" />
    <glyph glyph-name="Iota" unicode="&#x399;" horiz-adv-x="386" 
d="M303 0h-219v1454h219v-1454z" />
    <glyph glyph-name="Kappa" unicode="&#x39a;" horiz-adv-x="874" 
d="M268 658l332 796h244l-584 -1202zM95 1454h219v-1454h-219v1454zM386 786l150 149l354 -935h-244z" />
    <glyph glyph-name="Lambda" unicode="&#x39b;" horiz-adv-x="906" 
d="M366 1454h174l342 -1454h-225l-204 1055l-203 -1055h-225z" />
    <glyph glyph-name="Mu" unicode="&#x39c;" horiz-adv-x="1136" 
d="M842 1454h200v-1454h-198v1058l16 -64l-230 -746h-123l-230 726l21 84v-1058h-203v1454h206l267 -851z" />
    <glyph glyph-name="Nu" unicode="&#x39d;" horiz-adv-x="914" 
d="M95 1454h180l370 -1042l-29 -33v1075h204v-1453h-183l-367 997l29 33v-1030h-204v1453z" />
    <glyph glyph-name="Xi" unicode="&#x39e;" horiz-adv-x="850" 
d="M85 229h681v-229h-681v229zM157 837h537v-229h-537v229zM85 1454h681v-229h-681v229z" />
    <glyph glyph-name="Omicron" unicode="&#x39f;" horiz-adv-x="922" 
d="M263.5 27q-82.5 42 -125.5 121t-43 191v777q0 112 43 191.5t125.5 120.5t197.5 41q116 0 198 -41t125.5 -120.5t43.5 -191.5v-777q0 -112 -43.5 -191t-125.5 -121t-198 -42q-115 0 -197.5 42zM540 219.5q33 17.5 50 51t17 81.5v752q0 47 -17 80.5t-50 51t-79 17.5
t-78.5 -17.5t-49.5 -51t-17 -80.5v-752q0 -48 17 -81.5t49.5 -51t78.5 -17.5t79 17.5z" />
    <glyph glyph-name="Pi" unicode="&#x3a0;" horiz-adv-x="870" 
d="M557 1454h219v-1454h-219v1454zM95 1454h219v-1454h-219v1454zM223 1454h456v-208h-456v208z" />
    <glyph glyph-name="Rho" unicode="&#x3a1;" horiz-adv-x="895" 
d="M205 773h266q35 0 60 16t38.5 46.5t13.5 72.5v197q0 44 -13 75.5t-38.5 48t-60.5 16.5h-266v209h268q105 0 180 -38.5t114 -112.5t39 -178v-238q0 -102 -39.5 -174.5t-114.5 -110.5t-179 -38h-268v209zM95 1454h219v-1454h-219v1454z" />
    <glyph glyph-name="Sigma" unicode="&#x3a3;" horiz-adv-x="746" 
d="M712 1235h-421l292 -508l-292 -508h421v-219h-677v201l299 526l-299 526v201h677v-219z" />
    <glyph glyph-name="Tau" unicode="&#x3a4;" horiz-adv-x="706" 
d="M244 1334h219v-1334h-219v1334zM-5 1454h717v-209h-717v209z" />
    <glyph glyph-name="Upsilon" unicode="&#x3a5;" horiz-adv-x="720" 
d="M475 583v-583h-219v583l-281 871h225l164 -614l156 614h226z" />
    <glyph glyph-name="Phi" unicode="&#x3a6;" horiz-adv-x="1162" 
d="M296.5 212q-118.5 57 -180 165t-61.5 261v229q0 152 61.5 260.5t180 165t284.5 56.5q167 0 285 -56.5t180 -165t62 -260.5v-229q0 -153 -62 -261t-180 -165t-285 -57q-166 0 -284.5 57zM472 1504h219v-1504h-219v1504zM808.5 443q80.5 69 80.5 195v229q0 126 -80.5 195
t-227.5 69q-146 0 -226.5 -69t-80.5 -195v-229q0 -126 80.5 -195t226.5 -69q147 0 227.5 69z" />
    <glyph glyph-name="Chi" unicode="&#x3a7;" horiz-adv-x="802" 
d="M356 606l-39 82l-310 766h237l185 -559l44 -96l335 -799h-237zM345 836l204 618h237l-330 -803l-224 -651h-237z" />
    <glyph glyph-name="Psi" unicode="&#x3a8;" horiz-adv-x="1042" 
d="M282 424.5q-98 47.5 -149 139.5t-51 225v665h213v-672q0 -63 26.5 -107t77 -67t123.5 -23t123.5 23t76 67t25.5 107v672h214v-665q0 -133 -50.5 -225t-148.5 -139.5t-240 -47.5t-240 47.5zM414 1454h219v-1454h-219v1454z" />
    <glyph glyph-name="uni03A9" unicode="&#x3a9;" horiz-adv-x="922" 
d="M229 184.5q-65 34.5 -99.5 100.5t-34.5 159v672q0 112 43 191.5t125.5 120.5t197.5 41q116 0 198 -41t125.5 -120.5t43.5 -191.5v-672q0 -93 -34.5 -159t-100 -100.5t-157.5 -34.5v64q22 0 38 13t24.5 39t8.5 61v777q0 47 -17 80.5t-50 51t-79 17.5t-78.5 -17.5
t-49.5 -51t-17 -80.5v-777q0 -35 8 -61t24 -39t38 -13v-64q-92 0 -157 34.5zM95 214h291v-214h-291v214zM536 214h292v-214h-292v214z" />
    <glyph glyph-name="Iotadieresis" unicode="&#x3aa;" horiz-adv-x="386" 
d="M303 0h-219v1454h219v-1454zM274 1793h218v-218h-218v218zM-106 1793h218v-218h-218v218z" />
    <glyph glyph-name="Upsilondieresis" unicode="&#x3ab;" horiz-adv-x="720" 
d="M475 583v-583h-219v583l-281 871h225l164 -614l156 614h226zM466 1793h218v-218h-218v218zM86 1793h218v-218h-218v218z" />
    <glyph glyph-name="alphatonos" unicode="&#x3ac;" horiz-adv-x="861" 
d="M194 19.5q-54 34.5 -82 100t-28 157.5v492q0 91 28 155.5t82 98t129 33.5q108 0 167.5 -74.5t59.5 -212.5v-495q0 -137 -59.5 -213t-167.5 -76q-75 0 -129 34.5zM484.5 217.5q27.5 28.5 27.5 81.5v447q0 50 -27.5 78.5t-77.5 28.5q-49 0 -77.5 -28.5t-28.5 -78.5v-447
q0 -52 28.5 -81t77.5 -29q50 0 77.5 28.5zM579.5 67q-63.5 67 -63.5 188v783h219v-738q0 -45 19.5 -70t56.5 -25h48v-205h-100q-116 0 -179.5 67zM307.641 1249.45l109.732 417.677l195.301 -62.9863l-134.082 -406.322z" />
    <glyph glyph-name="epsilontonos" unicode="&#x3ad;" horiz-adv-x="699" 
d="M149.5 54.5q-75.5 69.5 -75.5 195.5v153q0 38 13 66.5t39.5 49t67.5 33.5q-61 22 -88.5 55.5t-27.5 75.5v131q0 115 73 178.5t205 63.5q133 0 205.5 -63.5t73.5 -178.5v-77h-204v46q0 33 -19.5 51.5t-54.5 18.5q-36 0 -55.5 -18t-19.5 -51v-84q0 -29 24 -44.5t67 -15.5
h118v-180h-118q-45 0 -70 -22t-25 -61v-100q0 -41 22.5 -64.5t63.5 -23.5t64 19.5t23 54.5v61h204v-97q0 -116 -76.5 -179t-215.5 -63q-138 0 -213.5 69.5zM254.641 1249.45l109.732 417.677l195.301 -62.9863l-134.082 -406.322z" />
    <glyph glyph-name="etatonos" unicode="&#x3ae;" horiz-adv-x="854" 
d="M105 1038h220v-1038h-220v1038zM531 727q0 64 -26 96.5t-78 32.5q-51 0 -76.5 -33t-25.5 -99l-21 136q33 97 93.5 146.5t137.5 49.5q103 0 159 -70.5t56 -200.5v-1072h-219v1014zM346.641 1249.45l109.732 417.677l195.301 -62.9863l-134.082 -406.322z" />
    <glyph glyph-name="iotatonos" unicode="&#x3af;" horiz-adv-x="439" 
d="M157.5 67q-63.5 67 -63.5 188v783h219v-738q0 -45 19.5 -70t56.5 -25h48v-205h-100q-116 0 -179.5 67zM120.641 1249.45l109.732 417.677l195.301 -62.9863l-134.082 -406.322z" />
    <glyph glyph-name="upsilondieresistonos" unicode="&#x3b0;" horiz-adv-x="874" 
d="M279.5 21.5q-70.5 36.5 -105.5 109t-35 181.5v448q0 40 -15.5 59.5t-47.5 19.5h-21v213h55q123 0 184.5 -66t61.5 -199v-470q0 -62 24.5 -92.5t73.5 -30.5q50 0 74.5 30.5t24.5 92.5v721h217v-726q0 -109 -35 -182t-104.5 -109t-174.5 -36q-106 0 -176.5 36.5zM608 1450
h218v-218h-218v218zM55 1450h218v-218h-218v218zM313 1249l111 418l195 -63l-134 -406z" />
    <glyph glyph-name="alpha" unicode="&#x3b1;" horiz-adv-x="861" 
d="M194 19.5q-54 34.5 -82 100t-28 157.5v492q0 91 28 155.5t82 98t129 33.5q108 0 167.5 -74.5t59.5 -212.5v-495q0 -137 -59.5 -213t-167.5 -76q-75 0 -129 34.5zM484.5 217.5q27.5 28.5 27.5 81.5v447q0 50 -27.5 78.5t-77.5 28.5q-49 0 -77.5 -28.5t-28.5 -78.5v-447
q0 -52 28.5 -81t77.5 -29q50 0 77.5 28.5zM579.5 67q-63.5 67 -63.5 188v783h219v-738q0 -45 19.5 -70t56.5 -25h48v-205h-100q-116 0 -179.5 67z" />
    <glyph glyph-name="beta" unicode="&#x3b2;" horiz-adv-x="858" 
d="M398.5 16.5q-52.5 31.5 -80.5 92t-28 144.5l30 64q0 -38 15.5 -65.5t45.5 -42t72 -14.5q54 0 84 36t30 100v178q0 68 -27.5 106t-77.5 38h-57v206h57q38 0 59.5 29.5t21.5 82.5v179q0 57 -29.5 89t-81.5 32q-53 0 -82.5 -32.5t-29.5 -89.5v-178h-215v200q0 95 39 161.5
t114 101.5t182 35q100 0 171 -35t108 -102t37 -162v-194q0 -61 -29 -120t-87 -97q66 -29 103 -94t37 -153v-206q0 -153 -68 -237t-191 -84q-70 0 -122.5 31.5zM105 1038h215v-1460h-215v1460z" />
    <glyph glyph-name="gamma" unicode="&#x3b3;" horiz-adv-x="851" 
d="M343 -8q0 18 -4.5 41t-9.5 46q-1 4 -2 8.5t-2 8.5l-164 684q-9 39 -33.5 59t-55.5 20h-37v194h119q79 0 132 -66.5t80 -208.5l136 -725l63 101v-576h-222v414zM404 35l192 1003h221l-303 -1185z" />
    <glyph glyph-name="delta" unicode="&#x3b4;" horiz-adv-x="776" 
d="M225 19q-69 34 -105 98t-36 154v479q0 81 33.5 139t95 90t145.5 36l7 -24l-252 250v67l199 -35l228 -207q59 -53 91.5 -100.5t47 -98.5t14.5 -122v-477q0 -89 -35.5 -152.5t-103.5 -97t-164 -33.5t-165 34zM452.5 198q22.5 28 22.5 78v511q0 49 -23 76.5t-64 27.5
q-40 0 -63.5 -27.5t-23.5 -76.5v-511q0 -50 23 -78t64 -28q42 0 64.5 28zM113 1454h545v-209h-545v209z" />
    <glyph glyph-name="epsilon" unicode="&#x3b5;" horiz-adv-x="699" 
d="M149.5 54.5q-75.5 69.5 -75.5 195.5v153q0 38 13 66.5t39.5 49t67.5 33.5q-61 22 -88.5 55.5t-27.5 75.5v131q0 115 73 178.5t205 63.5q133 0 205.5 -63.5t73.5 -178.5v-77h-204v46q0 33 -19.5 51.5t-54.5 18.5q-36 0 -55.5 -18t-19.5 -51v-84q0 -29 24 -44.5t67 -15.5
h118v-180h-118q-45 0 -70 -22t-25 -61v-100q0 -41 22.5 -64.5t63.5 -23.5t64 19.5t23 54.5v61h204v-97q0 -116 -76.5 -179t-215.5 -63q-138 0 -213.5 69.5z" />
    <glyph glyph-name="zeta" unicode="&#x3b6;" horiz-adv-x="750" 
d="M547 -91q0 39 -17.5 57.5t-55.5 18.5h-35q-125 2 -205.5 48t-119.5 138.5t-39 234.5q0 108 23.5 211t71 206.5t122.5 211.5q24 38 48.5 71t50.5 64q21 25 43 48.5t45 46.5l227 62v-86q-45 -29 -94 -85.5t-118 -157.5l-26 -38q-60 -91 -99 -180.5t-58 -181.5t-19 -192
q0 -110 45 -162.5t141 -52.5h55q119 0 176 -64t57 -199v-189h-219v170zM129 1248v206h577v-208z" />
    <glyph glyph-name="eta" unicode="&#x3b7;" horiz-adv-x="854" 
d="M105 1038h220v-1038h-220v1038zM531 727q0 64 -26 96.5t-78 32.5q-51 0 -76.5 -33t-25.5 -99l-21 136q33 97 93.5 146.5t137.5 49.5q103 0 159 -70.5t56 -200.5v-1072h-219v1014z" />
    <glyph glyph-name="theta" unicode="&#x3b8;" horiz-adv-x="776" 
d="M224.5 19.5q-68.5 34.5 -104.5 100t-36 157.5v905q0 91 36 155.5t104.5 98t164.5 33.5t164.5 -33.5t104 -98t35.5 -155.5v-908q0 -91 -35.5 -156t-104 -99t-164.5 -34t-164.5 34.5zM456.5 211q23.5 27 23.5 78v880q0 48 -24 75t-68 27q-42 0 -67 -27.5t-25 -74.5v-880
q0 -50 24.5 -77.5t67.5 -27.5q45 0 68.5 27zM245 827h303v-207h-303v207z" />
    <glyph glyph-name="iota" unicode="&#x3b9;" horiz-adv-x="439" 
d="M157.5 67q-63.5 67 -63.5 188v783h219v-738q0 -45 19.5 -70t56.5 -25h48v-205h-100q-116 0 -179.5 67z" />
    <glyph glyph-name="kappa" unicode="&#x3ba;" horiz-adv-x="823" 
d="M256 426l259 467q43 79 106 119.5t141 40.5h64v-224h-32q-43 0 -79 -21t-61 -61l-393 -629zM105 1038h217v-1038h-217v1038zM399 532l133 154l327 -686h-235z" />
    <glyph glyph-name="lambda" unicode="&#x3bb;" horiz-adv-x="856" 
d="M235 0h-210l334 1098l106 -244zM207.5 1235q-23.5 20 -54.5 20h-49v206h136q61 0 107 -39.5t67 -115.5l280 -1031q10 -38 33.5 -58.5t55.5 -20.5h49v-206h-137q-57 0 -100 34.5t-62 102.5l-291 1049q-11 39 -34.5 59z" />
    <glyph glyph-name="uni03BC" unicode="&#x3bc;" horiz-adv-x="865" 
d="M105 1043h217v-879l-6 -11l7 -433h-218v1323zM362 0.5q-27 15.5 -42 45t-16 72.5l18 147q0 -47 26 -71.5t75 -24.5q44 0 70.5 26t26.5 74l59 -151q-9 -64 -49.5 -98.5t-101.5 -34.5q-39 0 -66 15.5zM588.5 67q-68.5 67 -68.5 188v783h219v-738q0 -45 19.5 -70t56.5 -25
h48v-205h-80q-126 0 -194.5 67z" />
    <glyph glyph-name="nu" unicode="&#x3bd;" horiz-adv-x="874" 
d="M365 0l-193 773q-8 35 -29.5 53t-53.5 18h-44v209h80q62 0 106 -19.5t71.5 -59t39.5 -97.5l109 -567l155 728h214l-283 -1038h-172z" />
    <glyph glyph-name="xi" unicode="&#x3be;" horiz-adv-x="743" 
d="M479 -81q0 32 -17.5 49t-49.5 17h-12q-149 0 -231 84.5t-82 236.5v206q0 88 36.5 153t102.5 94q-55 45 -85 98t-30 104v90q0 110 74.5 171t208.5 61l45 -35q-52 0 -81 -47.5t-29 -131.5v-101q0 -52 30.5 -80.5t86.5 -28.5h165v-207h-165q-67 0 -104 -37t-37 -104v-183
q0 -67 37 -104t103 -37h61q92 0 142.5 -56t50.5 -158v-234h-220v180zM87 1454h590v-206l-590 -2v208z" />
    <glyph glyph-name="omicron" unicode="&#x3bf;" horiz-adv-x="776" 
d="M224.5 19.5q-68.5 34.5 -104.5 100t-36 157.5v492q0 91 36 155.5t104.5 98t164.5 33.5t164.5 -33.5t104 -98t35.5 -155.5v-495q0 -91 -35.5 -156t-104 -99t-164.5 -34t-164.5 34.5zM452.5 215q22.5 26 22.5 74v467q0 46 -22.5 71.5t-64.5 25.5q-40 0 -63.5 -26t-23.5 -71
v-467q0 -48 23 -74t64 -26q42 0 64.5 26z" />
    <glyph glyph-name="pi" unicode="&#x3c0;" horiz-adv-x="966" 
d="M617 59.5q-64 69.5 -64 205.5v665h219v-640q0 -45 18.5 -69t54.5 -24h58v-207h-83q-139 0 -203 69.5zM161 929h219v-929h-219v929zM45 1038h867v-206h-867v206z" />
    <glyph glyph-name="rho" unicode="&#x3c1;" horiz-adv-x="824" 
d="M105 730q0 103 37.5 176t109.5 111.5t171 38.5q101 0 172 -38t108.5 -111.5t37.5 -176.5v-431q0 -99 -27.5 -169.5t-79.5 -107.5t-125 -37q-87 0 -142 46.5t-70 131.5l24 149q0 -64 27 -98.5t75 -34.5q49 0 75.5 36t26.5 101v415q0 62 -26.5 96.5t-75.5 34.5
q-48 0 -75 -33.5t-27 -95.5v-1155h-216v1152z" />
    <glyph glyph-name="sigma1" unicode="&#x3c2;" horiz-adv-x="770" 
d="M458 -86q0 35 -18.5 53t-53.5 18h-7q-94 0 -160 36t-100.5 105.5t-34.5 167.5v463q0 95 37.5 162t109.5 102t173 35q154 0 238 -78.5t84 -222.5v-59h-219v31q0 59 -26.5 91.5t-73.5 32.5q-49 0 -76.5 -32t-27.5 -90v-403q0 -64 27.5 -99t76.5 -35h38q114 0 173 -65.5
t59 -193.5v-194h-219v175z" />
    <glyph glyph-name="sigma" unicode="&#x3c3;" horiz-adv-x="796" 
d="M220 18q-66 33 -101 96.5t-35 152.5v494q0 88 35 150t101 94.5t159 32.5l167 -179q40 -6 68.5 -32t43.5 -67.5t15 -93.5v-402q0 -88 -34.5 -150.5t-100.5 -95.5t-159 -33t-159 33zM435 212.5q20 23.5 20 66.5v461q0 42 -20 64.5t-57 22.5q-36 0 -56.5 -23t-20.5 -64v-461
q0 -43 20.5 -66.5t56.5 -23.5q37 0 57 23.5zM379 1038h404v-206h-404v206z" />
    <glyph glyph-name="tau" unicode="&#x3c4;" horiz-adv-x="692" 
d="M269.5 59.5q-62.5 69.5 -62.5 205.5v690h219v-670q0 -39 18 -61t51 -22h78v-212h-108q-133 0 -195.5 69.5zM45 1038h573v-208h-573v208z" />
    <glyph glyph-name="upsilon" unicode="&#x3c5;" horiz-adv-x="874" 
d="M279.5 21.5q-70.5 36.5 -105.5 109t-35 181.5v448q0 40 -15.5 59.5t-47.5 19.5h-21v213h55q123 0 184.5 -66t61.5 -199v-470q0 -62 24.5 -92.5t73.5 -30.5q50 0 74.5 30.5t24.5 92.5v721h217v-726q0 -109 -35 -182t-104.5 -109t-174.5 -36q-106 0 -176.5 36.5z" />
    <glyph glyph-name="phi" unicode="&#x3c6;" horiz-adv-x="1076" 
d="M284.5 31q-105.5 46 -160.5 133.5t-55 210.5v285q0 126 55 215t160.5 135t253.5 46q149 0 254 -46t160.5 -135t55.5 -215v-285q0 -123 -55.5 -210.5t-161 -133.5t-253.5 -46t-253.5 46zM438 1339h200v-1640h-200v1640zM733 206.5q70 56.5 70 159.5v301q0 106 -70.5 165
t-194.5 59q-82 0 -141.5 -26.5t-91 -77t-31.5 -120.5v-301q0 -102 70 -159t194 -57q125 0 195 56.5z" />
    <glyph glyph-name="chi" unicode="&#x3c7;" horiz-adv-x="807" 
d="M656 -420.5q-31 13.5 -55.5 41.5t-39.5 70l-398 1080q-15 38 -37 58.5t-52 20.5h-59v206h134q37 0 69.5 -17t59 -51.5t45.5 -86.5l386 -1050q9 -25 22 -42.5t30 -27t37 -9.5h59v-206h-134q-36 0 -67 13.5zM347 367l125 -169l-209 -620h-228zM421 429l164 609h229
l-278 -776z" />
    <glyph glyph-name="psi" unicode="&#x3c8;" horiz-adv-x="1142" 
d="M317.5 32.5q-104.5 47.5 -158.5 140t-54 224.5v641h208v-654q0 -69 30 -117t88 -73t141 -25t140.5 25t87 73t29.5 117v654h209v-641q0 -132 -54 -224.5t-158 -140t-254 -47.5t-254.5 47.5zM469 1339h208v-1640h-208v1640z" />
    <glyph glyph-name="omega" unicode="&#x3c9;" horiz-adv-x="1062" 
d="M555 59q-59 74 -59 209v336h140v-328q0 -38 17.5 -59.5t48.5 -21.5q30 0 47.5 21.5t17.5 59.5v452q0 56 -25 87.5t-70 31.5v209q96 0 165 -34.5t105.5 -101t36.5 -160.5v-504q0 -129 -68 -200t-189 -71q-108 0 -167 74zM151.5 56q-67.5 71 -67.5 200v504q0 94 36 160.5
t105 101t165 34.5v-209q-44 0 -69.5 -31.5t-25.5 -87.5v-452q0 -37 18.5 -59t47.5 -22q31 0 48 21.5t17 59.5v328h140v-336q0 -135 -59 -209t-167 -74q-121 0 -188.5 71z" />
    <glyph glyph-name="iotadieresis" unicode="&#x3ca;" horiz-adv-x="439" 
d="M157.5 67q-63.5 67 -63.5 188v783h219v-738q0 -45 19.5 -70t56.5 -25h48v-205h-100q-116 0 -179.5 67zM264 1448h218v-218h-218v218zM-89 1448h218v-218h-218v218z" />
    <glyph glyph-name="upsilondieresis" unicode="&#x3cb;" horiz-adv-x="874" 
d="M279.5 21.5q-70.5 36.5 -105.5 109t-35 181.5v448q0 40 -15.5 59.5t-47.5 19.5h-21v213h55q123 0 184.5 -66t61.5 -199v-470q0 -62 24.5 -92.5t73.5 -30.5q50 0 74.5 30.5t24.5 92.5v721h217v-726q0 -109 -35 -182t-104.5 -109t-174.5 -36q-106 0 -176.5 36.5zM495 1448
h218v-218h-218v218zM142 1448h218v-218h-218v218z" />
    <glyph glyph-name="omicrontonos" unicode="&#x3cc;" horiz-adv-x="776" 
d="M224.5 19.5q-68.5 34.5 -104.5 100t-36 157.5v492q0 91 36 155.5t104.5 98t164.5 33.5t164.5 -33.5t104 -98t35.5 -155.5v-495q0 -91 -35.5 -156t-104 -99t-164.5 -34t-164.5 34.5zM452.5 215q22.5 26 22.5 74v467q0 46 -22.5 71.5t-64.5 25.5q-40 0 -63.5 -26t-23.5 -71
v-467q0 -48 23 -74t64 -26q42 0 64.5 26zM312.641 1249.45l109.732 417.677l195.301 -62.9863l-134.082 -406.322z" />
    <glyph glyph-name="upsilontonos" unicode="&#x3cd;" horiz-adv-x="874" 
d="M279.5 21.5q-70.5 36.5 -105.5 109t-35 181.5v448q0 40 -15.5 59.5t-47.5 19.5h-21v213h55q123 0 184.5 -66t61.5 -199v-470q0 -62 24.5 -92.5t73.5 -30.5q50 0 74.5 30.5t24.5 92.5v721h217v-726q0 -109 -35 -182t-104.5 -109t-174.5 -36q-106 0 -176.5 36.5z
M351.641 1249.45l109.732 417.677l195.301 -62.9863l-134.082 -406.322z" />
    <glyph glyph-name="omegatonos" unicode="&#x3ce;" horiz-adv-x="1062" 
d="M555 59q-59 74 -59 209v336h140v-328q0 -38 17.5 -59.5t48.5 -21.5q30 0 47.5 21.5t17.5 59.5v452q0 56 -25 87.5t-70 31.5v209q96 0 165 -34.5t105.5 -101t36.5 -160.5v-504q0 -129 -68 -200t-189 -71q-108 0 -167 74zM151.5 56q-67.5 71 -67.5 200v504q0 94 36 160.5
t105 101t165 34.5v-209q-44 0 -69.5 -31.5t-25.5 -87.5v-452q0 -37 18.5 -59t47.5 -22q31 0 48 21.5t17 59.5v328h140v-336q0 -135 -59 -209t-167 -74q-121 0 -188.5 71zM455.641 1249.45l109.732 417.677l195.301 -62.9863l-134.082 -406.322z" />
    <glyph glyph-name="uni03CF" unicode="&#x3cf;" horiz-adv-x="874" 
d="M666 -422h-244l224 422h244zM268 658l332 796h244l-584 -1202zM95 1454h219v-1454h-219v1454zM386 786l150 149l354 -935h-244z" />
    <glyph glyph-name="uni03D0" unicode="&#x3d0;" horiz-adv-x="792" 
d="M235.5 21q-69.5 36 -105 103.5t-35.5 163.5v894q0 91 33.5 155.5t98 98t155.5 33.5q92 0 157.5 -33.5t100 -98t34.5 -155.5v-227q0 -55 -21.5 -105t-63.5 -81t-99 -31l2 -80l-122 -10v200h37q23 0 36 25t13 70v228q0 45 -19 69t-52 24q-34 0 -53 -24t-19 -69v-861
q0 -57 23 -88.5t66 -31.5q42 0 65.5 31.5t23.5 88.5v228q0 52 -22 81t-62 29l10 137q92 0 157.5 -28.5t100 -83.5t34.5 -132v-256q0 -95 -36 -162t-105 -102.5t-166 -35.5t-166.5 36z" />
    <glyph glyph-name="theta1" unicode="&#x3d1;" horiz-adv-x="870" 
d="M294.5 24.5q-69.5 39.5 -105.5 114.5t-36 180h215q0 -57 25 -88.5t69 -31.5q41 0 63 31.5t22 88.5v823q0 61 -27 94t-75 33t-74.5 -27.5t-26.5 -76.5v-7q0 -48 29.5 -74t83.5 -26h409v-207h-417q-150 0 -232.5 77.5t-82.5 219.5v12q0 147 82.5 228t233.5 81q99 0 169 -36
t106.5 -105t36.5 -166v-855q0 -102 -35.5 -174t-102.5 -110t-162 -38q-98 0 -167.5 39.5zM153 456q0 66 -17 102.5t-49 50.5t-82 14v210q114 0 195.5 -41t124.5 -119t43 -187v-167h-215v137z" />
    <glyph glyph-name="Upsilon1" unicode="&#x3d2;" horiz-adv-x="914" 
d="M348 944h219v-944h-219v944zM448 942q0 166 52.5 282t157.5 176.5t262 60.5v-216q-117 0 -196 -62.5t-118 -182.5t-39 -292zM308.5 1000q-39.5 120 -118 182.5t-195.5 62.5v216q156 0 261 -60.5t157.5 -176.5t52.5 -282l-118 -234q0 172 -39.5 292z" />
    <glyph glyph-name="uni03D3" unicode="&#x3d3;" horiz-adv-x="1233" 
d="M687 944h219v-944h-219v944zM787 942q0 166 52.5 282t157.5 176.5t262 60.5v-216q-117 0 -196 -62.5t-118 -182.5t-39 -292zM647.5 1000q-39.5 120 -118 182.5t-195.5 62.5v216q156 0 261 -60.5t157.5 -176.5t52.5 -282l-118 -234q0 172 -39.5 292zM-24.3594 1054.45
l109.732 417.677l195.301 -62.9863l-134.082 -406.322z" />
    <glyph glyph-name="uni03D4" unicode="&#x3d4;" horiz-adv-x="914" 
d="M348 944h219v-944h-219v944zM448 942q0 166 52.5 282t157.5 176.5t262 60.5v-216q-117 0 -196 -62.5t-118 -182.5t-39 -292zM308.5 1000q-39.5 120 -118 182.5t-195.5 62.5v216q156 0 261 -60.5t157.5 -176.5t52.5 -282l-118 -234q0 172 -39.5 292zM538 1793h218v-218
h-218v218zM158 1793h218v-218h-218v218z" />
    <glyph glyph-name="phi1" unicode="&#x3d5;" horiz-adv-x="1076" 
d="M434 781q0 139 72 207t217 68q143 0 214 -67t71 -204v-432q0 -119 -53.5 -201t-158.5 -124.5t-258 -42.5q-152 0 -257 42.5t-158.5 125.5t-53.5 203v344q0 120 66.5 202t196.5 122l78 -163q-67 -24 -101.5 -66.5t-34.5 -102.5v-316q0 -110 67.5 -168t194.5 -58
q130 0 198.5 58t68.5 168v411q0 45 -19.5 67t-58.5 22q-42 0 -63 -21t-21 -64v-1092h-207v1082z" />
    <glyph glyph-name="omega1" unicode="&#x3d6;" horiz-adv-x="1162" 
d="M606 58q-60 73 -60 205v254h143v-246q0 -38 17.5 -59.5t49.5 -21.5q31 0 49 21.5t18 59.5v350q0 98 -34.5 153.5t-94.5 55.5v85q164 0 254 -74.5t90 -211.5v-373q0 -129 -69 -200t-193 -71q-110 0 -170 73zM194 56q-69 71 -69 200v373q0 91 40.5 155t117.5 97.5t185 33.5
v-85q-59 0 -93.5 -55.5t-34.5 -153.5v-350q0 -38 17.5 -59.5t48.5 -21.5q32 0 50 21.5t18 59.5v246h142v-254q0 -132 -60 -205t-170 -73q-123 0 -192 71zM45 1038h1073v-208h-1073v208z" />
    <glyph glyph-name="uni03D7" unicode="&#x3d7;" horiz-adv-x="1017" 
d="M707 -107h67q28 0 43.5 20.5t15.5 58.5v229h220v-242q0 -131 -61 -203t-172 -72h-113v209zM680 70.5q-62 74.5 -62 210.5q0 92 16 187.5t52 188.5l-317 -656h-175q33 205 51.5 380t18.5 319q0 66 -29.5 102.5t-83.5 36.5h-46v204h75q129 0 200 -74t71 -211
q0 -64 -11 -148t-32 -208q-2 -9 -3.5 -18.5t-3.5 -19.5l325 674h180q-48 -196 -74.5 -384.5t-26.5 -334.5q0 -56 22 -87.5t62 -31.5h59v-204h-93q-113 0 -175 74.5z" />
    <glyph glyph-name="uni03D8" unicode="&#x3d8;" horiz-adv-x="922" 
d="M263.5 260q-82.5 42 -125.5 121t-43 191v544q0 112 43 191.5t125.5 120.5t197.5 41q116 0 198 -41t125.5 -120.5t43.5 -191.5v-544q0 -112 -43.5 -191t-125.5 -121t-198 -42q-115 0 -197.5 42zM540 452.5q33 17.5 50 51t17 81.5v519q0 47 -17 80.5t-50 51t-79 17.5
t-78.5 -17.5t-49.5 -51t-17 -80.5v-519q0 -48 17 -81.5t49.5 -51t78.5 -17.5t79 17.5zM352 435h219v-435h-219v435z" />
    <glyph glyph-name="uni03D9" unicode="&#x3d9;" horiz-adv-x="776" 
d="M279 172h219v-459h-219v459zM224.5 19.5q-68.5 34.5 -104.5 100t-36 157.5v492q0 91 36 155.5t104.5 98t164.5 33.5t164.5 -33.5t104 -98t35.5 -155.5v-495q0 -91 -35.5 -156t-104 -99t-164.5 -34t-164.5 34.5zM452.5 215q22.5 26 22.5 74v467q0 46 -22.5 71.5
t-64.5 25.5q-40 0 -63.5 -26t-23.5 -71v-467q0 -48 23 -74t64 -26q42 0 64.5 26z" />
    <glyph glyph-name="uni03DA" unicode="&#x3da;" horiz-adv-x="886" 
d="M587 -81q0 35 -15 50.5t-47 15.5h-22q-144 3 -233.5 72.5t-132 213.5t-42.5 375q0 225 38.5 366t119.5 217.5t213 104.5q93 20 134.5 71t41.5 142h220q0 -158 -75.5 -253.5t-243.5 -139.5q-79 -20 -127.5 -77.5t-72 -162t-23.5 -268.5q0 -161 23 -261t72 -147.5
t127 -47.5h56q112 0 163 -57t51 -185v-209h-225v180z" />
    <glyph glyph-name="uni03DB" unicode="&#x3db;" horiz-adv-x="731" 
d="M472 -91q0 38 -16.5 57t-49.5 19h-3q-113 3 -183 53.5t-103 155.5t-33 272q0 163 36 273t112 175.5t199 93.5q37 9 53.5 37.5t16.5 85.5h215q0 -132 -55 -208.5t-173 -99.5q-100 -18 -144.5 -106t-44.5 -251q0 -144 37.5 -209t120.5 -65v0q78 0 129.5 -31t77.5 -92.5
t26 -155.5v-174h-218v170z" />
    <glyph glyph-name="uni03DC" unicode="&#x3dc;" horiz-adv-x="755" 
d="M95 1454h219v-1454h-219v1454zM200 814h481v-209h-481v209zM200 1454h531v-209h-531v209z" />
    <glyph glyph-name="uni03DD" unicode="&#x3dd;" horiz-adv-x="755" 
d="M95 1032h219v-1454h-219v1454zM195 390l486 2v-206l-486 -2v206zM195 1032h536v-206h-536v206z" />
    <glyph glyph-name="uni03DE" unicode="&#x3de;" horiz-adv-x="860" 
d="M297 1454h245l-282 -837h-245zM601 836h245l-260 -836h-245zM182 836h558v-219h-558v219z" />
    <glyph glyph-name="uni03DF" unicode="&#x3df;" horiz-adv-x="940" 
d="M620 -422h-235l266 836h235zM290 200h-235l287 838h235zM222 414h558v-214h-558v214z" />
    <glyph glyph-name="uni03E0" unicode="&#x3e0;" horiz-adv-x="794" 
d="M476 737q0 260 -68 389t-204 129q-84 0 -199 -40l-30 214q131 40 229 40q249 0 372.5 -182.5t123.5 -549.5q0 -408 -186 -737h-235q197 325 197 737zM114 569l436 217l74 -180l-435 -217zM4 894l476 240l74 -180l-475 -240z" />
    <glyph glyph-name="uni03E1" unicode="&#x3e1;" horiz-adv-x="804" 
d="M439.5 48q53.5 249 53.5 528q0 345 -74.5 517t-224.5 172q-79 0 -189 -40l-30 204q125 40 219 40q259 0 387.5 -222.5t128.5 -670.5q0 -278 -49 -526.5t-147 -471.5h-235q107 221 160.5 470zM105 379l410 202l74 -190l-409 -202zM-5 819l450 225l84 -195l-449 -225z" />
    <glyph glyph-name="uni03E2" unicode="&#x3e2;" horiz-adv-x="1346" 
d="M755.5 27q-58.5 42 -89.5 122t-31 192v1113h151v-1120q0 -63 33.5 -98t93.5 -35q57 0 88.5 35t31.5 98v1120h219v-1088l-164 -164q-10 -110 -53.5 -163.5t-136.5 -53.5q-84 0 -142.5 42zM246.5 26.5q-74.5 41.5 -113 120t-38.5 189.5v1118h219v-1110q0 -68 31.5 -105.5
t89.5 -37.5q63 0 97.5 35t34.5 98v1120h152v-1113q0 -112 -34.5 -192t-100.5 -122t-159 -42q-104 0 -178.5 41.5zM458 -122h409q69 0 105 20.5t48.5 59t12.5 102.5v420h219v-404q0 -202 -84.5 -303.5t-280.5 -101.5h-407zM413.5 -353q-27.5 -23 -27.5 -69h-211
q0 151 70.5 225.5t212.5 74.5l38 -207q-55 -1 -82.5 -24z" />
    <glyph glyph-name="uni03E3" unicode="&#x3e3;" horiz-adv-x="1114" 
d="M411 -122h284q42 0 63 13t28.5 36.5t7.5 62.5v325h216v-309q0 -167 -68.5 -251t-226.5 -84h-294zM217.5 -196.5q64.5 74.5 193.5 74.5l25 -207q-40 -1 -59.5 -24t-19.5 -69h-204q0 151 64.5 225.5zM173 58q-68 73 -68 209v771h215v-764q0 -38 17 -58.5t48 -20.5
q33 0 50 20.5t17 58.5v764h160v-756q0 -89 -28 -156t-82.5 -104t-131.5 -37q-129 0 -197 73zM602 22q-49 37 -74.5 104t-25.5 156v756h160v-764q0 -38 17.5 -58.5t49.5 -20.5q31 0 48 20.5t17 58.5v764h216v-771l-161 -194q-8 -27 -28 -47t-47 -30.5t-55 -10.5
q-68 0 -117 37z" />
    <glyph glyph-name="uni03E4" unicode="&#x3e4;" horiz-adv-x="949" 
d="M248.5 499q-77.5 45 -118 130t-40.5 203v275q0 182 86 268t261 86h52v-215h-52q-65 0 -96.5 -35.5t-31.5 -111.5v-265q0 -80 40.5 -124.5t114.5 -44.5q83 0 127.5 47t44.5 132v160l64 -20v-198q0 -105 -31 -179.5t-90.5 -113.5t-144.5 -39q-108 0 -185.5 45zM636 1454
h219v-1454h-219v1454z" />
    <glyph glyph-name="uni03E5" unicode="&#x3e5;" horiz-adv-x="954" 
d="M630 1038h220v-1460h-220v1460zM481 847h-52q-64 0 -94.5 -37t-30.5 -117v-338q0 -81 40 -126t112 -45q84 0 129 47.5t45 133.5v170l54 -20v-213q0 -100 -32 -171t-93 -108.5t-148 -37.5q-103 0 -176.5 43.5t-112 126.5t-38.5 198v338q0 188 85 276.5t260 88.5h52v-209z
" />
    <glyph glyph-name="uni03E6" unicode="&#x3e6;" horiz-adv-x="930" 
d="M389 -122h129q45 0 69 16.5t32 47.5t8 82v429q0 54 -21 93t-57.5 60t-82.5 21h-162v206h232q98 0 167.5 -41.5t106 -121t36.5 -190.5v-454q0 -177 -65 -266t-214 -89h-157zM105 1454h219v-1454h-219v1454zM371.5 -353.5q-25.5 -23.5 -25.5 -68.5h-211q0 151 63.5 225.5
t190.5 74.5l49 -207q-41 -1 -66.5 -24.5z" />
    <glyph glyph-name="uni03E7" unicode="&#x3e7;" horiz-adv-x="814" 
d="M661 387q0 -115 -38 -202.5t-108 -136t-162 -48.5l-20 207q34 0 60 22t40 62t14 93v292q0 50 -13.5 88t-38 58.5t-57.5 20.5q-34 0 -54 -23t-20 -62v-7q0 -39 23 -62.5t61 -23.5q72 0 126 46.5t83.5 131t29.5 195.5h193q0 -174 -57 -306t-161 -204.5t-242 -72.5
q-82 0 -144.5 35.5t-96.5 100.5t-34 150v17q0 88 36 155t102.5 103.5t154.5 36.5q97 0 170 -47t113 -132.5t40 -197.5v-289zM281.5 -23.5q-21.5 -23.5 -21.5 -69.5h-210q0 151 65.5 225.5t198.5 74.5h19l20 -207h-7q-43 0 -64.5 -23.5z" />
    <glyph glyph-name="uni03E8" unicode="&#x3e8;" horiz-adv-x="963" 
d="M261 29q-92 44 -139 129.5t-47 208.5v23q0 114 36.5 203t112.5 162t199 141q8 5 16 9l16 8q54 28 84 49t50 54.5t20 82.5v31q0 59 -34.5 91t-99.5 32q-60 0 -91.5 -34t-31.5 -99v-68h-219v76q0 165 88.5 253t253.5 88q114 0 193 -39t119.5 -114.5t40.5 -183.5v-24
q0 -117 -41.5 -192.5t-102 -117t-152.5 -84.5q-126 -57 -182 -134.5t-56 -188.5v-17q0 -56 21.5 -94.5t64.5 -58.5t104 -20q100 0 153 57.5t53 165.5v65h219v-72q0 -139 -49 -235.5t-144 -146.5t-232 -50q-131 0 -223 44z" />
    <glyph glyph-name="uni03E9" unicode="&#x3e9;" horiz-adv-x="823" 
d="M221.5 21.5q-78.5 36.5 -120.5 105t-42 162.5q0 115 40.5 182t98.5 98.5t151 61.5q4 1 7.5 2.5t7.5 2.5q43 14 69.5 29t43.5 41t17 68q0 44 -20.5 68.5t-57.5 24.5q-34 0 -56 -26.5t-22 -73.5v-7l-218 -1v6q0 136 78.5 213.5t217.5 77.5q92 0 158.5 -34.5t102 -99
t35.5 -152.5q0 -93 -36 -152t-88 -90t-132 -61q-1 -1 -2.5 -1t-2.5 -1q-2 -1 -5 -1.5t-5 -1.5q-56 -21 -89 -39.5t-54 -50.5t-21 -83q0 -53 36 -84t100 -31q71 0 109 37.5t38 104.5v18h218v-18q0 -101 -44.5 -176t-128 -115t-197.5 -40q-108 0 -186.5 36.5z" />
    <glyph glyph-name="uni03EA" unicode="&#x3ea;" horiz-adv-x="960" 
d="M505 1293q26 71 58 107.5t69 48.5t90 12h127v-203h-109q-21 0 -33.5 -12t-24.5 -47l-428 -1199h-229zM188 207h598v-207h-598v207zM279 1199q-13 35 -25 47t-33 12h-109v203h127q52 0 89.5 -12t69.5 -48.5t58 -107.5l480 -1293h-229z" />
    <glyph glyph-name="uni03EB" unicode="&#x3eb;" horiz-adv-x="820" 
d="M244 794q-16 36 -32.5 47.5t-45.5 11.5h-65v203h97q53 0 88 -11t67 -47t62 -110l370 -888h-209zM217 185h418v-185h-418v185zM434 888q31 73 63 109.5t66.5 47.5t87.5 11h87v-203h-61q-29 0 -45.5 -11.5t-32.5 -47.5l-341 -794h-204z" />
    <glyph glyph-name="uni03EC" unicode="&#x3ec;" horiz-adv-x="956" 
d="M271 29.5q-86 44.5 -131 129t-45 203.5v384l180 151q6 74 43.5 127.5t94 81t120.5 27.5q104 0 177.5 -45.5t112.5 -132.5t39 -209v-387q0 -118 -45 -202t-131.5 -128t-207.5 -44t-207 44.5zM567 211q37 19 56.5 56.5t19.5 89.5v392q0 84 -43.5 131t-122.5 47
q-78 0 -120.5 -46.5t-42.5 -131.5v-392q0 -79 42.5 -122t120.5 -43q53 0 90 19zM95 1061q0 393 341 393h30q75 0 113.5 24t38.5 69h204q0 -292 -339 -292h-30q-149 0 -149 -174v-347h-209v327z" />
    <glyph glyph-name="uni03ED" unicode="&#x3ed;" horiz-adv-x="796" 
d="M244.5 18.5q-68.5 33.5 -104 97.5t-35.5 154v463l160 116q40 83 89.5 125t114.5 42q77 0 131.5 -32.5t83.5 -95.5t29 -152v-469q0 -89 -36 -152t-104 -96.5t-164 -33.5t-164.5 33.5zM471 200q23 27 23 75v453q0 47 -23 74t-63 27q-39 0 -61.5 -27t-22.5 -74v-453
q0 -48 22.5 -75t61.5 -27q40 0 63 27zM105 978q0 95 30 164t90.5 118t155.5 83q38 13 62 29t35.5 36.5t11.5 45.5h209q0 -74 -22.5 -126.5t-68 -88.5t-118.5 -60q-58 -19 -94.5 -43.5t-54 -59.5t-17.5 -87v-435h-219v424z" />
    <glyph glyph-name="uni03EE" unicode="&#x3ee;" horiz-adv-x="797" 
d="M723 1247v-208h-466q-40 0 -62 -15.5t-22 -43.5v-120h-218v154q0 111 63.5 172t181.5 61h523zM507 0h-219v1454h219v-1454z" />
    <glyph glyph-name="uni03EF" unicode="&#x3ef;" horiz-adv-x="648" 
d="M75 -210h88q30 0 45.5 21t15.5 59v1470h217v-1477q0 -142 -62 -213.5t-195 -71.5h-109v212zM15 1038h629v-203h-629v203z" />
    <glyph glyph-name="uni03F0" unicode="&#x3f0;" horiz-adv-x="912" 
d="M610 70.5q-62 74.5 -62 210.5q0 92 16 187.5t52 188.5l-317 -656h-175q33 205 51.5 380t18.5 319q0 66 -29.5 102.5t-83.5 36.5h-46v204h75q129 0 200 -74t71 -211q0 -64 -11 -148t-32 -208q-2 -9 -3.5 -18.5t-3.5 -19.5l325 674h180q-48 -196 -74.5 -384.5t-26.5 -334.5
q0 -56 22 -87.5t62 -31.5h59v-204h-93q-113 0 -175 74.5z" />
    <glyph glyph-name="uni03F1" unicode="&#x3f1;" horiz-adv-x="824" 
d="M367 31.5q-55 46.5 -70 131.5l24 149q0 -64 27 -98.5t75 -34.5q49 0 75.5 36t26.5 101v415q0 62 -26.5 96.5t-75.5 34.5q-48 0 -75 -33.5t-27 -95.5v-610h-216v607q0 103 37.5 176t109.5 111.5t171 38.5q101 0 172 -38t108.5 -111.5t37.5 -176.5v-431q0 -99 -27.5 -169.5
t-79.5 -107.5t-125 -37q-87 0 -142 46.5zM172 -245q-67 84 -67 251v194h219v-210q0 -39 6.5 -62.5t26 -36.5t57.5 -13h59l-16 -207h-63q-155 0 -222 84zM445 -329l28 207q127 0 190 -74.5t63 -225.5h-210q0 92 -71 93z" />
    <glyph glyph-name="uni03F2" unicode="&#x3f2;" horiz-adv-x="772" 
d="M230.5 20q-71.5 35 -109 102t-37.5 161v461q0 99 37.5 169t109.5 106.5t173 36.5t173.5 -36.5t110.5 -107.5t38 -170v-62h-216v51q0 60 -27 93t-76 33t-76.5 -32.5t-27.5 -90.5v-441q0 -52 27.5 -80t76.5 -28t76 29.5t27 83.5v48l218 -2v-57q0 -95 -38.5 -162.5
t-111 -103.5t-174.5 -36t-173.5 35z" />
    <glyph glyph-name="uni03F3" unicode="&#x3f3;" horiz-adv-x="427" 
d="M-5 -210h39q33 0 50.5 22t17.5 61v1165h221v-1185q0 -131 -68 -203t-191 -72h-69v212zM102 1446h221v-217h-221v217z" />
    <glyph glyph-name="uni03F4" unicode="&#x3f4;" horiz-adv-x="922" 
d="M200 827h513v-209h-513v209zM263.5 27q-82.5 42 -125.5 121t-43 191v777q0 112 43 191.5t125.5 120.5t197.5 41q116 0 198 -41t125.5 -120.5t43.5 -191.5v-777q0 -112 -43.5 -191t-125.5 -121t-198 -42q-115 0 -197.5 42zM540 219.5q33 17.5 50 51t17 81.5v752
q0 47 -17 80.5t-50 51t-79 17.5t-78.5 -17.5t-49.5 -51t-17 -80.5v-752q0 -48 17 -81.5t49.5 -51t78.5 -17.5t79 17.5z" />
    <glyph glyph-name="uni03F5" unicode="&#x3f5;" horiz-adv-x="772" 
d="M246 612h274v-204h-274v204zM230.5 20q-71.5 35 -109 102t-37.5 161v461q0 99 37.5 169t109.5 106.5t173 36.5t173.5 -36.5t110.5 -107.5t38 -170v-62h-216v51q0 60 -27 93t-76 33t-76.5 -32.5t-27.5 -90.5v-441q0 -52 27.5 -80t76.5 -28t76 29.5t27 83.5v48l218 -2v-57
q0 -95 -38.5 -162.5t-111 -103.5t-174.5 -36t-173.5 35z" />
    <glyph glyph-name="uni03F6" unicode="&#x3f6;" horiz-adv-x="772" 
d="M252 408v204h275v-204h-275zM193.5 21q-72.5 36 -110.5 103.5t-38 162.5v57l218 2v-58q0 -59 27 -91t76 -32t76 31t27 87v458q0 58 -27 90.5t-76 32.5t-76 -33t-27 -93v-61h-216v62q0 99 37.5 170t110 107.5t174.5 36.5q101 0 172.5 -36.5t109.5 -106.5t38 -169v-458
q0 -94 -38 -161t-109.5 -102t-172.5 -35q-103 0 -175.5 36z" />
    <glyph glyph-name="uni03F7" unicode="&#x3f7;" horiz-adv-x="865" 
d="M211 516h232q35 0 60 16t38.5 46.5t13.5 72.5v191q0 45 -13 76.5t-38.5 47.5t-60.5 16h-232v212h232q105 0 180 -38.5t114 -112.5t39 -178v-238q0 -102 -39.5 -174.5t-114.5 -110.5t-179 -38h-232v212zM95 1454h219v-1454h-219v1454z" />
    <glyph glyph-name="uni03F8" unicode="&#x3f8;" horiz-adv-x="824" 
d="M105 1454h219v-1876h-219v1876zM387.5 32q-53.5 47 -77.5 131l14 154q0 -42 12 -72t34.5 -45.5t54.5 -15.5q47 0 73 36t26 101v405q0 62 -26 96.5t-73 34.5q-32 0 -54.5 -14.5t-34.5 -43.5t-12 -69l-21 136q34 90 91 140t126 50q70 0 119.5 -36t75.5 -105t26 -167v-449
q0 -99 -27 -169.5t-77.5 -107.5t-122.5 -37q-73 0 -126.5 47z" />
    <glyph glyph-name="uni03F9" unicode="&#x3f9;" horiz-adv-x="856" 
d="M253 29q-77 44 -117.5 127t-40.5 200v742q0 117 40.5 200.5t117.5 127t185 43.5q109 0 186 -43.5t117.5 -127t40.5 -200.5v-90h-222v90q0 48 -14 82.5t-41.5 52.5t-66.5 18q-38 0 -65 -18t-41.5 -52.5t-14.5 -82.5v-742q0 -48 14.5 -82t41.5 -52t65 -18q39 0 66.5 18
t41.5 52t14 83v89h222v-89q0 -117 -40.5 -200.5t-117.5 -127.5t-186 -44q-108 0 -185 44z" />
    <glyph glyph-name="uni03FA" unicode="&#x3fa;" horiz-adv-x="1136" 
d="M842 1454h200v-1454h-198v1058l16 -64l-230 -746h-123l-230 726l21 84v-1058h-203v1454h206l267 -851z" />
    <glyph glyph-name="uni03FB" unicode="&#x3fb;" horiz-adv-x="902" 
d="M296 128v-415h-191v415h191zM583 1038h215v-1038h-191v732l17 -42l-111 -410h-124l-116 389l23 63v-732h-191v1038h214l132 -528z" />
    <glyph glyph-name="uni03FC" unicode="&#x3fc;" horiz-adv-x="774" 
d="M495 -101v-205h-500v205h500zM55 730q0 103 37.5 176t109.5 111.5t171 38.5q101 0 172 -38t108.5 -111.5t37.5 -176.5v-431q0 -99 -27.5 -169.5t-79.5 -107.5t-125 -37q-87 0 -142 46.5t-70 131.5l24 149q0 -64 27 -98.5t75 -34.5q49 0 75.5 36t26.5 101v415
q0 62 -26.5 96.5t-75.5 34.5q-48 0 -75 -33.5t-27 -95.5v-1155h-216v1152z" />
    <glyph glyph-name="uni03FD" unicode="&#x3fd;" horiz-adv-x="856" 
d="M232.5 29q-77.5 44 -117.5 127.5t-40 200.5v89h221v-89q0 -49 14 -83t41.5 -52t66.5 -18q38 0 65.5 18t42 52t14.5 82v742q0 48 -14.5 82.5t-42 52.5t-65.5 18t-66 -18t-42 -52.5t-14 -82.5v-90h-221v90q0 117 40 200.5t117.5 127t185.5 43.5q109 0 185.5 -43.5
t117.5 -127t41 -200.5v-742q0 -117 -41 -200t-118 -127t-185 -44t-185.5 44z" />
    <glyph glyph-name="uni03FE" unicode="&#x3fe;" horiz-adv-x="856" 
d="M253 29q-77 44 -117.5 127t-40.5 200v742q0 117 40.5 200.5t117.5 127t185 43.5q109 0 186 -43.5t117.5 -127t40.5 -200.5v-90h-222v90q0 48 -14 82.5t-41.5 52.5t-66.5 18q-38 0 -65 -18t-41.5 -52.5t-14.5 -82.5v-742q0 -48 14.5 -82t41.5 -52t65 -18q39 0 66.5 18
t41.5 52t14 83v89h222v-89q0 -117 -40.5 -200.5t-117.5 -127.5t-186 -44q-108 0 -185 44zM426 839h219v-219h-219v219z" />
    <glyph glyph-name="uni03FF" unicode="&#x3ff;" horiz-adv-x="856" 
d="M232.5 29q-77.5 44 -117.5 127.5t-40 200.5v89h221v-89q0 -49 14 -83t41.5 -52t66.5 -18q38 0 65.5 18t42 52t14.5 82v742q0 48 -14.5 82.5t-42 52.5t-65.5 18t-66 -18t-42 -52.5t-14 -82.5v-90h-221v90q0 117 40 200.5t117.5 127t185.5 43.5q109 0 185.5 -43.5
t117.5 -127t41 -200.5v-742q0 -117 -41 -200t-118 -127t-185 -44t-185.5 44zM212 839h219v-219h-219v219z" />
    <glyph glyph-name="uni0400" unicode="&#x400;" horiz-adv-x="774" 
d="M95 1454h219v-1454h-219v1454zM199 211h531v-211h-531v211zM199 828h481v-211h-481v211zM199 1454h531v-211h-531v211zM131 1777l162 157l246 -259l-137 -131z" />
    <glyph glyph-name="uni0401" unicode="&#x401;" horiz-adv-x="774" 
d="M95 1454h219v-1454h-219v1454zM199 211h531v-211h-531v211zM199 828h481v-211h-481v211zM199 1454h531v-211h-531v211zM507 1793h218v-218h-218v218zM127 1793h218v-218h-218v218z" />
    <glyph glyph-name="uni0402" unicode="&#x402;" horiz-adv-x="944" 
d="M778.5 851q60.5 -38 91 -114.5t30.5 -191.5v-218q0 -109 -28 -181.5t-84 -109t-141 -36.5h-89v209h43q40 0 60 25.5t20 75.5v239q0 67 -26 100t-79 33q-57 0 -85.5 -30t-28.5 -91v-105l-64 60v108q0 89 25 147.5t75.5 88t127.5 29.5q92 0 152.5 -38zM244 1334h219v-1334
h-219v1334zM-5 1454h711v-209h-711v209z" />
    <glyph glyph-name="uni0403" unicode="&#x403;" horiz-adv-x="624" 
d="M95 1454h219v-1454h-219v1454zM233 1454h397v-209h-397v209zM257 1675l248 259l162 -156l-272 -234z" />
    <glyph glyph-name="uni0404" unicode="&#x404;" horiz-adv-x="856" 
d="M199 827h459v-209h-459v209zM253 29q-77 44 -117.5 127t-40.5 200v742q0 117 40.5 200.5t117.5 127t185 43.5q109 0 186 -43.5t117.5 -127t40.5 -200.5v-90h-222v90q0 48 -14 82.5t-41.5 52.5t-66.5 18q-38 0 -65 -18t-41.5 -52.5t-14.5 -82.5v-742q0 -48 14.5 -82
t41.5 -52t65 -18q39 0 66.5 18t41.5 52t14 83v89h222v-89q0 -117 -40.5 -200.5t-117.5 -127.5t-186 -44q-108 0 -185 44z" />
    <glyph glyph-name="uni0405" unicode="&#x405;" horiz-adv-x="883" 
d="M244.5 26q-80.5 41 -122.5 119.5t-42 190.5v75l218 1v-72q0 -67 37 -104t104 -37q65 0 100.5 36.5t35.5 103.5v127q0 47 -24.5 80t-61.5 55.5t-102 53.5q-3 1 -6 2.5t-6 2.5l-13 6q-87 42 -144.5 84t-97 114t-39.5 180v80q0 109 41.5 186.5t121.5 118t193 40.5
q111 0 189 -40.5t119 -119t41 -189.5v-79l-219 -2v76q0 68 -33.5 104.5t-96.5 36.5q-66 0 -101.5 -34t-35.5 -96v-94q0 -48 23.5 -82t59.5 -55.5t99 -51.5q9 -4 17.5 -8.5t18.5 -8.5q3 -2 6.5 -3.5t7.5 -3.5q85 -41 137 -77.5t88.5 -104t36.5 -174.5v-127
q0 -112 -41.5 -190.5t-121 -119.5t-192.5 -41q-114 0 -194.5 41z" />
    <glyph glyph-name="uni0406" unicode="&#x406;" horiz-adv-x="386" 
d="M303 0h-219v1454h219v-1454z" />
    <glyph glyph-name="uni0407" unicode="&#x407;" horiz-adv-x="386" 
d="M303 0h-219v1454h219v-1454zM274 1793h218v-218h-218v218zM-106 1793h218v-218h-218v218z" />
    <glyph glyph-name="uni0408" unicode="&#x408;" horiz-adv-x="725" 
d="M131.5 24q-77.5 39 -126.5 110l156 145q27 -37 62 -56.5t74 -19.5q55 0 85 33t30 94v1124h219v-1142q0 -103 -39 -176.5t-112.5 -112t-178.5 -38.5q-92 0 -169.5 39z" />
    <glyph glyph-name="uni0409" unicode="&#x409;" horiz-adv-x="1381" 
d="M661 209h307q39 0 67 18t43 51.5t15 79.5v160q0 48 -15 82.5t-43 53t-67 18.5h-307v209h326q103 0 175.5 -39.5t111 -114.5t38.5 -180v-220q0 -103 -38.5 -176.5t-111.5 -112t-175 -38.5h-326v209zM100 207h1q32 0 54 14t33 42t11 69v1122h219v-1134q0 -105 -33.5 -176
t-100 -107.5t-164.5 -36.5h-20v207zM608 1454h219v-1454h-219v1454zM346 1454h376v-209h-376v209z" />
    <glyph glyph-name="uni040A" unicode="&#x40a;" horiz-adv-x="1330" 
d="M661 209h256q39 0 67 18t43 51.5t15 79.5v160q0 48 -15 82.5t-43 53t-67 18.5h-256v209h275q103 0 175.5 -39.5t111 -114.5t38.5 -180v-220q0 -103 -38.5 -176.5t-111.5 -112t-175 -38.5h-275v209zM557 1454h219v-1454h-219v1454zM95 1454h219v-1454h-219v1454zM217 820
h467v-207h-467v207z" />
    <glyph glyph-name="uni040B" unicode="&#x40b;" horiz-adv-x="1094" 
d="M771 694q0 79 -35.5 117.5t-106.5 38.5q-77 0 -115.5 -40t-38.5 -120l-21 173q35 96 106 144.5t160 48.5q131 0 200.5 -72t69.5 -209v-775h-219v694zM255 1334h219v-1334h-219v1334zM-5 1454h717v-209h-717v209z" />
    <glyph glyph-name="uni040C" unicode="&#x40c;" horiz-adv-x="889" 
d="M445 792l173 662h226l-245 -830zM436 646l190 120l279 -766h-233zM95 1454h219v-1454h-219v1454zM199 827h388v-209h-388v209zM317 1675l248 259l162 -156l-272 -234z" />
    <glyph glyph-name="uni040D" unicode="&#x40d;" horiz-adv-x="914" 
d="M615 1v1027l23 -28l-364 -999h-179v1453h204v-1034l-23 28l367 1006h177v-1453h-205zM162 1777l162 157l246 -259l-137 -131z" />
    <glyph glyph-name="uni040E" unicode="&#x40e;" horiz-adv-x="805" 
d="M32 1454h232l200 -1086l-140 -163zM553 247q-18 -85 -60 -143.5t-107 -88.5t-151 -30h-95v220h95q40 0 71.5 18.5t52.5 54t30 85.5l203 1091h221zM705 1863q0 -145 -69 -225t-194 -80h-8q-125 0 -194 80t-69 225l180 -2q0 -66 22 -102.5t61 -36.5h8q40 0 61.5 36.5
t21.5 102.5z" />
    <glyph glyph-name="uni040F" unicode="&#x40f;" horiz-adv-x="872" 
d="M778 1454v-1454h-219v1454h219zM314 1454v-1454h-219v1454h219zM675 209v-209h-447v209h447zM546 106v-422h-219v422h219z" />
    <glyph glyph-name="uni0410" unicode="&#x410;" horiz-adv-x="906" 
d="M366 1454h174l342 -1454h-225l-204 1055l-203 -1055h-225zM250 477h414v-205h-414v205z" />
    <glyph glyph-name="uni0411" unicode="&#x411;" horiz-adv-x="875" 
d="M211 209h251q39 0 67 18t43 51.5t15 79.5v160q0 48 -15 82.5t-43 53t-67 18.5h-251v209h270q103 0 175.5 -39.5t111 -114.5t38.5 -180v-220q0 -103 -38.5 -176.5t-111.5 -112t-175 -38.5h-270v209zM95 1454h219v-1454h-219v1454zM233 1454h497v-209h-497v209z" />
    <glyph glyph-name="uni0412" unicode="&#x412;" horiz-adv-x="859" 
d="M226 207h228q55 0 85.5 28t30.5 80v192q0 46 -14.5 78t-42.5 49t-66 17h-221v205h218q52 0 81 34.5t29 98.5v152q0 51 -29 79t-79 28h-220v206h231q99 0 169.5 -34.5t107.5 -101t37 -159.5v-155q0 -67 -23.5 -119t-68 -85t-107.5 -45q69 -10 117.5 -44t74.5 -88.5
t26 -126.5v-195q0 -96 -36 -163t-105.5 -102.5t-167.5 -35.5h-255v207zM95 1454h219v-1454h-219v1454z" />
    <glyph glyph-name="uni0413" unicode="&#x413;" horiz-adv-x="624" 
d="M95 1454h219v-1454h-219v1454zM233 1454h397v-209h-397v209z" />
    <glyph glyph-name="uni0414" unicode="&#x414;" horiz-adv-x="996" 
d="M45 209h23q63 0 96.5 73t33.5 212v960h208v-937q0 -142 -33.5 -243t-104.5 -156t-180 -55h-43v146zM17 209h209v-490h-209v490zM17 209h845v-209h-845v209zM750 209h209v-490h-209v490zM609 1454h219v-1454h-219v1454zM351 1454h354v-209h-354v209z" />
    <glyph glyph-name="uni0415" unicode="&#x415;" horiz-adv-x="774" 
d="M95 1454h219v-1454h-219v1454zM199 211h531v-211h-531v211zM199 828h481v-211h-481v211zM199 1454h531v-211h-531v211z" />
    <glyph glyph-name="uni0416" unicode="&#x416;" horiz-adv-x="1370" 
d="M868 792l231 662h226l-302 -830zM862 646l198 99l326 -745h-233zM306 745l197 -99l-286 -646h-232zM46 1454h225l226 -662l-155 -168zM352 827h661v-209h-661v209zM576 1454h219v-1454h-219v1454z" />
    <glyph glyph-name="uni0417" unicode="&#x417;" horiz-adv-x="868" 
d="M250 26q-86 41 -130.5 119t-44.5 188v75h219v-66q0 -71 42.5 -109.5t119.5 -38.5q73 0 113 42.5t40 119.5v156q0 67 -30 103.5t-86 36.5h-195v209h195q44 0 68 28t24 79v155q0 66 -33.5 102t-96.5 36q-65 0 -101 -36.5t-36 -102.5v-71h-219v70q0 110 43 188t125.5 119
t197.5 41q108 0 183.5 -41t116 -119.5t40.5 -188.5v-154q0 -53 -31.5 -107t-89.5 -100q69 -29 107 -94t38 -153v-156q0 -117 -44 -200.5t-127.5 -127t-201.5 -43.5q-120 0 -206 41z" />
    <glyph glyph-name="uni0418" unicode="&#x418;" horiz-adv-x="914" 
d="M615 1v1027l23 -28l-364 -999h-179v1453h204v-1034l-23 28l367 1006h177v-1453h-205z" />
    <glyph glyph-name="uni0419" unicode="&#x419;" horiz-adv-x="914" 
d="M615 1v1027l23 -28l-364 -999h-179v1453h204v-1034l-23 28l367 1006h177v-1453h-205zM724 1863q0 -145 -69 -225t-194 -80h-8q-125 0 -194 80t-69 225l180 -2q0 -66 22 -102.5t61 -36.5h8q40 0 61.5 36.5t21.5 102.5z" />
    <glyph glyph-name="uni041A" unicode="&#x41a;" horiz-adv-x="889" 
d="M445 792l173 662h226l-245 -830zM436 646l190 120l279 -766h-233zM95 1454h219v-1454h-219v1454zM199 827h388v-209h-388v209z" />
    <glyph glyph-name="uni041B" unicode="&#x41b;" horiz-adv-x="921" 
d="M100 207h1q32 0 54 14t33 42t11 69v1122h219v-1134q0 -105 -33.5 -176t-100 -107.5t-164.5 -36.5h-20v207zM608 1454h219v-1454h-219v1454zM346 1454h376v-209h-376v209z" />
    <glyph glyph-name="uni041C" unicode="&#x41c;" horiz-adv-x="1136" 
d="M842 1454h200v-1454h-198v1058l16 -64l-230 -746h-123l-230 726l21 84v-1058h-203v1454h206l267 -851z" />
    <glyph glyph-name="uni041D" unicode="&#x41d;" horiz-adv-x="870" 
d="M557 1454h219v-1454h-219v1454zM95 1454h219v-1454h-219v1454zM217 820h467v-207h-467v207z" />
    <glyph glyph-name="uni041E" unicode="&#x41e;" horiz-adv-x="922" 
d="M263.5 27q-82.5 42 -125.5 121t-43 191v777q0 112 43 191.5t125.5 120.5t197.5 41q116 0 198 -41t125.5 -120.5t43.5 -191.5v-777q0 -112 -43.5 -191t-125.5 -121t-198 -42q-115 0 -197.5 42zM540 219.5q33 17.5 50 51t17 81.5v752q0 47 -17 80.5t-50 51t-79 17.5
t-78.5 -17.5t-49.5 -51t-17 -80.5v-752q0 -48 17 -81.5t49.5 -51t78.5 -17.5t79 17.5z" />
    <glyph glyph-name="uni041F" unicode="&#x41f;" horiz-adv-x="870" 
d="M557 1454h219v-1454h-219v1454zM95 1454h219v-1454h-219v1454zM223 1454h456v-208h-456v208z" />
    <glyph glyph-name="uni0420" unicode="&#x420;" horiz-adv-x="895" 
d="M205 773h266q35 0 60 16t38.5 46.5t13.5 72.5v197q0 44 -13 75.5t-38.5 48t-60.5 16.5h-266v209h268q105 0 180 -38.5t114 -112.5t39 -178v-238q0 -102 -39.5 -174.5t-114.5 -110.5t-179 -38h-268v209zM95 1454h219v-1454h-219v1454z" />
    <glyph glyph-name="uni0421" unicode="&#x421;" horiz-adv-x="856" 
d="M253 29q-77 44 -117.5 127t-40.5 200v742q0 117 40.5 200.5t117.5 127t185 43.5q109 0 186 -43.5t117.5 -127t40.5 -200.5v-90h-222v90q0 48 -14 82.5t-41.5 52.5t-66.5 18q-38 0 -65 -18t-41.5 -52.5t-14.5 -82.5v-742q0 -48 14.5 -82t41.5 -52t65 -18q39 0 66.5 18
t41.5 52t14 83v89h222v-89q0 -117 -40.5 -200.5t-117.5 -127.5t-186 -44q-108 0 -185 44z" />
    <glyph glyph-name="uni0422" unicode="&#x422;" horiz-adv-x="706" 
d="M244 1334h219v-1334h-219v1334zM-5 1454h717v-209h-717v209z" />
    <glyph glyph-name="uni0423" unicode="&#x423;" horiz-adv-x="805" 
d="M32 1454h232l200 -1086l-140 -163zM553 247q-18 -85 -60 -143.5t-107 -88.5t-151 -30h-95v220h95q40 0 71.5 18.5t52.5 54t30 85.5l203 1091h221z" />
    <glyph glyph-name="uni0424" unicode="&#x424;" horiz-adv-x="1162" 
d="M296.5 212q-118.5 57 -180 165t-61.5 261v229q0 152 61.5 260.5t180 165t284.5 56.5q167 0 285 -56.5t180 -165t62 -260.5v-229q0 -153 -62 -261t-180 -165t-285 -57q-166 0 -284.5 57zM472 1504h219v-1504h-219v1504zM808.5 443q80.5 69 80.5 195v229q0 126 -80.5 195
t-227.5 69q-146 0 -226.5 -69t-80.5 -195v-229q0 -126 80.5 -195t226.5 -69q147 0 227.5 69z" />
    <glyph glyph-name="uni0425" unicode="&#x425;" horiz-adv-x="802" 
d="M356 606l-39 82l-310 766h237l185 -559l44 -96l335 -799h-237zM345 836l204 618h237l-330 -803l-224 -651h-237z" />
    <glyph glyph-name="uni0426" unicode="&#x426;" horiz-adv-x="946" 
d="M558 1454h219v-1454h-219v1454zM251 209h426v-209h-426v209zM699 209h209v-525h-209v525zM95 1454h219v-1454h-219v1454z" />
    <glyph glyph-name="uni0427" unicode="&#x427;" horiz-adv-x="806" 
d="M487 1454h225v-1454h-225v1454zM188 492.5q-60 37.5 -91.5 109.5t-31.5 173v679h224v-680q0 -67 27 -103t76 -36q45 0 70 39t25 110v135h64v-140q0 -102 -25.5 -175t-74.5 -111t-118 -38q-85 0 -145 37.5z" />
    <glyph glyph-name="uni0428" unicode="&#x428;" horiz-adv-x="1070" 
d="M767 1454h209v-1454h-209v1454zM227 209h646v-209h-646v209zM95 1454h208v-1454h-208v1454zM428 1454h209v-1454h-209v1454z" />
    <glyph glyph-name="uni0429" unicode="&#x429;" horiz-adv-x="1145" 
d="M228 209h631v-209h-631v209zM781 1454h209v-1454h-209v1454zM95 1454h209v-1454h-209v1454zM438 1454h209v-1454h-209v1454zM903 209h218v-525h-218v525z" />
    <glyph glyph-name="uni042A" unicode="&#x42a;" horiz-adv-x="933" 
d="M-75 1454h422v-209h-422v209zM294 209h226q39 0 67 18t43 51.5t15 79.5v160q0 48 -15 82.5t-43 53t-67 18.5h-226v209h245q103 0 175.5 -39.5t111 -114.5t38.5 -180v-220q0 -103 -38.5 -176.5t-111.5 -112t-175 -38.5h-245v209zM178 1454h219v-1454h-219v1454z" />
    <glyph glyph-name="uni042B" unicode="&#x42b;" horiz-adv-x="1156" 
d="M211 209h221q39 0 67 18t43 51.5t15 79.5v160q0 48 -15 82.5t-43 53t-67 18.5h-221v209h240q103 0 175.5 -39.5t111 -114.5t38.5 -180v-220q0 -103 -38.5 -176.5t-111.5 -112t-175 -38.5h-240v209zM95 1454h219v-1454h-219v1454zM1073 0h-219v1454h219v-1454z" />
    <glyph glyph-name="uni042C" unicode="&#x42c;" horiz-adv-x="870" 
d="M211 209h246q39 0 67 18t43 51.5t15 79.5v160q0 48 -15 82.5t-43 53t-67 18.5h-246v209h265q103 0 175.5 -39.5t111 -114.5t38.5 -180v-220q0 -103 -38.5 -176.5t-111.5 -112t-175 -38.5h-265v209zM95 1454h219v-1454h-219v1454z" />
    <glyph glyph-name="uni042D" unicode="&#x42d;" horiz-adv-x="856" 
d="M232.5 29q-77.5 44 -117.5 127.5t-40 200.5v89h221v-89q0 -49 14 -83t41.5 -52t66.5 -18q38 0 65.5 18t42 52t14.5 82v742q0 48 -14.5 82.5t-42 52.5t-65.5 18t-66 -18t-42 -52.5t-14 -82.5v-90h-221v90q0 117 40 200.5t117.5 127t185.5 43.5q109 0 185.5 -43.5
t117.5 -127t41 -200.5v-742q0 -117 -41 -200t-118 -127t-185 -44t-185.5 44zM199 827h458v-209h-458v209z" />
    <glyph glyph-name="uni042E" unicode="&#x42e;" horiz-adv-x="1290" 
d="M201 827h437v-209h-437v209zM306 0h-219v1454h219v-1454zM631.5 27q-82.5 42 -125.5 121t-43 191v777q0 112 43 191.5t125.5 120.5t197.5 41q116 0 198 -41t125.5 -120.5t43.5 -191.5v-777q0 -112 -43.5 -191t-125.5 -121t-198 -42q-115 0 -197.5 42zM908 219.5
q33 17.5 50 51t17 81.5v752q0 47 -17 80.5t-50 51t-79 17.5t-78.5 -17.5t-49.5 -51t-17 -80.5v-752q0 -48 17 -81.5t49.5 -51t78.5 -17.5t79 17.5z" />
    <glyph glyph-name="uni042F" unicode="&#x42f;" horiz-adv-x="875" 
d="M240 615.5q-83 40.5 -126.5 118t-43.5 186.5v205q0 104 43.5 178.5t126.5 113t199 38.5h226v-209h-216q-50 0 -86 -19.5t-54.5 -57.5t-18.5 -91v-131q0 -51 18.5 -88t54.5 -56t86 -19h216v-209h-226q-116 0 -199 40.5zM290 666l202 -46l-181 -620h-241zM561 1455h220
v-1455h-220v1455z" />
    <glyph glyph-name="uni0430" unicode="&#x430;" horiz-adv-x="835" 
d="M521 752q0 52 -28 80.5t-78 28.5q-44 0 -68.5 -28.5t-24.5 -80.5h-211q0 145 80.5 224.5t227.5 79.5q98 0 168 -35.5t107 -104t37 -164.5v-752h-210v752zM152.5 59.5q-62.5 74.5 -62.5 219.5q0 171 84 258t248 87h105l14 -183h-112q-65 0 -98 -41t-33 -121
q0 -53 24.5 -79.5t73.5 -26.5q61 0 93 34t32 101l19 -92q-1 -75 -24.5 -127t-68.5 -78t-110 -26q-122 0 -184.5 74.5z" />
    <glyph glyph-name="uni0431" unicode="&#x431;" horiz-adv-x="796" 
d="M244.5 18.5q-68.5 33.5 -104 97.5t-35.5 154v463l160 116q40 83 89.5 125t114.5 42q77 0 131.5 -32.5t83.5 -95.5t29 -152v-469q0 -89 -36 -152t-104 -96.5t-164 -33.5t-164.5 33.5zM471 200q23 27 23 75v453q0 47 -23 74t-63 27q-39 0 -61.5 -27t-22.5 -74v-453
q0 -48 22.5 -75t61.5 -27q40 0 63 27zM105 978q0 95 30 164t90.5 118t155.5 83q38 13 62 29t35.5 36.5t11.5 45.5h209q0 -74 -22.5 -126.5t-68 -88.5t-118.5 -60q-58 -19 -94.5 -43.5t-54 -59.5t-17.5 -87v-435h-219v424z" />
    <glyph glyph-name="uni0432" unicode="&#x432;" horiz-adv-x="784" 
d="M230 198h209q35 0 54 22.5t19 65.5v65q0 47 -26.5 73.5t-71.5 26.5h-184v193h184q38 0 58.5 22t20.5 62v45q0 31 -19 49t-53 18h-191v198h229q115 0 179 -56.5t64 -159.5v-86q0 -77 -41.5 -127t-116.5 -64q84 -14 130.5 -67.5t46.5 -138.5v-101q0 -113 -67 -175.5
t-188 -62.5h-236v198zM105 1038h208v-1038h-208v1038z" />
    <glyph glyph-name="uni0433" unicode="&#x433;" horiz-adv-x="629" 
d="M105 1038h219v-1038h-219v1038zM226 1038h374v-209h-374v209z" />
    <glyph glyph-name="uni0434" unicode="&#x434;" horiz-adv-x="926" 
d="M65 209h24q26 0 44.5 21.5t28.5 63.5t10 101v643h209v-640q0 -158 -70.5 -237t-202.5 -79h-43v127zM27 209h209v-470h-209v470zM27 209h780v-209h-780v209zM690 209h210v-470h-210v470zM549 1038h219v-1038h-219v1038zM295 1038h370v-208h-370v208z" />
    <glyph glyph-name="uni0435" unicode="&#x435;" horiz-adv-x="802" 
d="M232 24q-72 39 -110 113.5t-38 179.5v388q0 111 37 190t107.5 120t169.5 41q100 0 171.5 -39t109 -113.5t37.5 -180.5v-284h-466v169h255v118q0 64 -28 99t-79 35q-49 0 -76 -37.5t-27 -105.5v-407q0 -59 29 -92t82 -33q49 0 75.5 25.5t26.5 71.5v22l211 -1v-18
q0 -143 -82 -221.5t-231 -78.5q-102 0 -174 39z" />
    <glyph glyph-name="uni0436" unicode="&#x436;" horiz-adv-x="1130" 
d="M727 431l166 137l253 -568h-232zM237 568l167 -137l-188 -431h-231zM21 1038h224l158 -446l-161 -142zM456 1038h219v-1038h-219v1038zM246 619h658v-209h-658v209zM727 592l158 446h225l-222 -588z" />
    <glyph glyph-name="uni0437" unicode="&#x437;" horiz-adv-x="674" 
d="M168 13.5q-65 28.5 -99 82.5t-34 131v97h203v-61q0 -35 23 -54.5t65 -19.5q40 0 63 23.5t23 64.5v100q0 39 -25.5 61t-70.5 22h-117v180h117q34 0 53 15.5t19 44.5v84q0 33 -20 51t-55 18q-36 0 -55.5 -18.5t-19.5 -51.5v-46h-203v77q0 115 72.5 178.5t205.5 63.5
t206 -63.5t73 -178.5v-131q0 -42 -22.5 -75.5t-74.5 -55.5q62 -20 91.5 -56t29.5 -93v-153q0 -126 -75.5 -195.5t-214.5 -69.5q-93 0 -158 28.5z" />
    <glyph glyph-name="uni0438" unicode="&#x438;" horiz-adv-x="819" 
d="M519 1v700l24 -26l-268 -674h-170v1037h195v-699l-24 26l270 673h169v-1037h-196z" />
    <glyph glyph-name="uni0439" unicode="&#x439;" horiz-adv-x="819" 
d="M519 1v700l24 -26l-268 -674h-170v1037h195v-699l-24 26l270 673h169v-1037h-196zM210 1287.5q-65 65.5 -65 184.5v85h174v-74q0 -46 19.5 -71.5t54.5 -25.5h18q36 0 55.5 25.5t19.5 71.5v74h174v-85q0 -119 -65 -184.5t-184 -65.5h-18q-118 0 -183 65.5z" />
    <glyph glyph-name="uni043A" unicode="&#x43a;" horiz-adv-x="789" 
d="M425 592l119 446h225l-171 -587zM105 1038h219v-1038h-219v1038zM424 430l177 137l204 -567h-232zM215 619h397v-209h-397v209z" />
    <glyph glyph-name="uni043B" unicode="&#x43b;" horiz-adv-x="809" 
d="M35 194q45 0 67 27t22 82v735h204v-753q0 -99 -29.5 -164t-89 -97.5t-149.5 -32.5h-25v203zM486 1038h219v-1038h-219v1038zM257 1038h346v-209h-346v209z" />
    <glyph glyph-name="uni043C" unicode="&#x43c;" horiz-adv-x="902" 
d="M583 1038h215v-1038h-191v732l17 -42l-111 -410h-124l-116 389l23 63v-732h-191v1038h214l132 -528z" />
    <glyph glyph-name="uni043D" unicode="&#x43d;" horiz-adv-x="817" 
d="M499 1038h214v-1038h-214v1038zM105 1038h214v-1038h-214v1038zM224 615h411v-209h-411v209z" />
    <glyph glyph-name="uni043E" unicode="&#x43e;" horiz-adv-x="776" 
d="M224.5 19.5q-68.5 34.5 -104.5 100t-36 157.5v492q0 91 36 155.5t104.5 98t164.5 33.5t164.5 -33.5t104 -98t35.5 -155.5v-495q0 -91 -35.5 -156t-104 -99t-164.5 -34t-164.5 34.5zM452.5 215q22.5 26 22.5 74v467q0 46 -22.5 71.5t-64.5 25.5q-40 0 -63.5 -26t-23.5 -71
v-467q0 -48 23 -74t64 -26q42 0 64.5 26z" />
    <glyph glyph-name="uni043F" unicode="&#x43f;" horiz-adv-x="817" 
d="M499 1038h214v-1038h-214v1038zM105 1038h214v-1038h-214v1038zM219 1038h411v-209h-411v209z" />
    <glyph glyph-name="uni0440" unicode="&#x440;" horiz-adv-x="824" 
d="M105 1038h219v-1460h-219v1460zM387.5 32q-53.5 47 -77.5 131l14 154q0 -42 12 -72t34.5 -45.5t54.5 -15.5q47 0 73 36t26 101v405q0 62 -26 96.5t-73 34.5q-32 0 -54.5 -14.5t-34.5 -43.5t-12 -69l-21 136q33 91 90.5 140.5t126.5 49.5q70 0 119.5 -36t75.5 -105
t26 -167v-449q0 -99 -27 -169.5t-77.5 -107.5t-122.5 -37q-73 0 -126.5 47z" />
    <glyph glyph-name="uni0441" unicode="&#x441;" horiz-adv-x="772" 
d="M230.5 20q-71.5 35 -109 102t-37.5 161v461q0 99 37.5 169t109.5 106.5t173 36.5t173.5 -36.5t110.5 -107.5t38 -170v-62h-216v51q0 60 -27 93t-76 33t-76.5 -32.5t-27.5 -90.5v-441q0 -52 27.5 -80t76.5 -28t76 29.5t27 83.5v48l218 -2v-57q0 -95 -38.5 -162.5
t-111 -103.5t-174.5 -36t-173.5 35z" />
    <glyph glyph-name="uni0442" unicode="&#x442;" horiz-adv-x="662" 
d="M222 1037h219v-1037h-219v1037zM45 1038h573v-208h-573v208z" />
    <glyph glyph-name="uni0443" unicode="&#x443;" horiz-adv-x="769" 
d="M755 1038l-296 -1281q-15 -64 -52.5 -106t-98 -63t-144.5 -21h-54v213h56q61 0 93 24.5t44 82.5l239 1151h213zM35 1038h213l210 -899l-108 -238z" />
    <glyph glyph-name="uni0444" unicode="&#x444;" horiz-adv-x="1184" 
d="M701.5 79q-56.5 79 -56.5 222v441q0 142 56.5 219t160.5 77q113 0 176 -77t63 -219v-444q0 -142 -63 -220t-176 -78q-104 0 -160.5 79zM146.5 78q-62.5 78 -62.5 220v444q0 142 64 219t180 77q101 0 156.5 -77t55.5 -219v-441q0 -143 -57 -222t-160 -79q-114 0 -176.5 78
zM456 212q24 31 24 87v442q0 55 -24 86t-67 31t-67 -31t-24 -86v-442q0 -56 24 -87t67 -31t67 31zM480 1339h224v-1640h-224v1640zM862.5 212q24.5 31 24.5 87v442q0 55 -24.5 86t-67.5 31t-67 -31t-24 -86v-442q0 -56 24 -87t67 -31t67.5 31z" />
    <glyph glyph-name="uni0445" unicode="&#x445;" horiz-adv-x="804" 
d="M328 471l-278 567h235l190 -465l314 -573h-234zM342 572l102 -183l-177 -389h-233zM388 665l150 373h235l-295 -559z" />
    <glyph glyph-name="uni0446" unicode="&#x446;" horiz-adv-x="883" 
d="M487 1038h219v-1038h-219v1038zM217 209h376v-209h-376v209zM99 1038h219v-1038h-219v1038zM644 209h219v-469h-219v469z" />
    <glyph glyph-name="uni0447" unicode="&#x447;" horiz-adv-x="818" 
d="M495 1038h219v-1038h-219v1038zM212.5 338.5q-52.5 32.5 -80 94t-27.5 148.5v457h219v-454q0 -43 22 -66.5t62 -23.5q41 0 64 28.5t23 81.5v180h64v-183q0 -141 -57.5 -218t-162.5 -77q-74 0 -126.5 32.5z" />
    <glyph glyph-name="uni0448" unicode="&#x448;" horiz-adv-x="996" 
d="M224 187h577v-187h-577v187zM694 1038h198v-1038h-198v1038zM105 1038h198v-1038h-198v1038zM399 1038h198v-1038h-198v1038z" />
    <glyph glyph-name="uni0449" unicode="&#x449;" horiz-adv-x="1060" 
d="M218 209h565v-209h-565v209zM394 1038h204v-1038h-204v1038zM99 1038h206v-1038h-206v1038zM821 209h219v-469h-219v469zM687 1038h196v-1038h-196v1038z" />
    <glyph glyph-name="uni044A" unicode="&#x44a;" horiz-adv-x="878" 
d="M25 1039l263 -1v-208l-263 2v207zM317 199h176q54 0 83.5 27t29.5 76v93q0 33 -13.5 56.5t-38.5 36t-61 12.5h-176v193h231q86 0 147 -32.5t93 -94.5t32 -150v-140q0 -87 -34 -149t-100 -94.5t-158 -32.5h-211v199zM199 1038h214v-1038h-214v1038z" />
    <glyph glyph-name="uni044B" unicode="&#x44b;" horiz-adv-x="1082" 
d="M795 1038h193v-1038h-193v1038zM238 199h151q54 0 83.5 27t29.5 76v93q0 33 -13.5 56.5t-38.5 36t-61 12.5h-151v193h206q86 0 147 -32.5t93 -94.5t32 -150v-140q0 -87 -34 -149t-100 -94.5t-158 -32.5h-186v199zM105 1038h214v-1038h-214v1038z" />
    <glyph glyph-name="uni044C" unicode="&#x44c;" horiz-adv-x="794" 
d="M223 199h186q54 0 83.5 27t29.5 76v93q0 33 -13.5 56.5t-38.5 35.5t-61 12h-186v194h241q86 0 147 -32.5t93 -94.5t32 -150v-140q0 -87 -34 -149t-100 -94.5t-158 -32.5h-221v199zM105 1038h214v-1038h-214v1038z" />
    <glyph glyph-name="uni044D" unicode="&#x44d;" horiz-adv-x="772" 
d="M252 408v204h275v-204h-275zM193.5 21q-72.5 36 -110.5 103.5t-38 162.5v57l218 2v-58q0 -59 27 -91t76 -32t76 31t27 87v458q0 58 -27 90.5t-76 32.5t-76 -33t-27 -93v-61h-216v62q0 99 37.5 170t110 107.5t174.5 36.5q101 0 172.5 -36.5t109.5 -106.5t38 -169v-458
q0 -94 -38 -161t-109.5 -102t-172.5 -35q-103 0 -175.5 36z" />
    <glyph glyph-name="uni044E" unicode="&#x44e;" horiz-adv-x="1132" 
d="M233 615h293v-209h-293v209zM104 1038h219v-1038h-219v1038zM580.5 19.5q-68.5 34.5 -104.5 100t-36 157.5v492q0 91 36 155.5t104.5 98t164.5 33.5t164.5 -33.5t104 -98t35.5 -155.5v-495q0 -91 -35.5 -156t-104 -99t-164.5 -34t-164.5 34.5zM808.5 215q22.5 26 22.5 74
v467q0 46 -22.5 71.5t-64.5 25.5q-40 0 -63.5 -26t-23.5 -71v-467q0 -48 23 -74t64 -26q42 0 64.5 26z" />
    <glyph glyph-name="uni044F" unicode="&#x44f;" horiz-adv-x="809" 
d="M347 330q-86 0 -147 32.5t-93 94.5t-32 150v155q0 87 34 149t100 94.5t158 32.5h219v-198h-195q-49 0 -75.5 -27t-26.5 -77v-103q0 -33 12 -56.5t35 -35.5t55 -12h195v-199h-239zM491 0v1038h214v-1038h-214zM79 0l171 446l201 -46l-151 -400h-221z" />
    <glyph glyph-name="uni0450" unicode="&#x450;" horiz-adv-x="802" 
d="M232 24q-72 39 -110 113.5t-38 179.5v388q0 111 37 190t107.5 120t169.5 41q100 0 171.5 -39t109 -113.5t37.5 -180.5v-284h-466v169h255v118q0 64 -28 99t-79 35q-49 0 -76 -37.5t-27 -105.5v-407q0 -59 29 -92t82 -33q49 0 75.5 25.5t26.5 71.5v22l211 -1v-18
q0 -143 -82 -221.5t-231 -78.5q-102 0 -174 39zM109 1540l162 124l246 -355l-143 -105z" />
    <glyph glyph-name="uni0451" unicode="&#x451;" horiz-adv-x="802" 
d="M232 24q-72 39 -110 113.5t-38 179.5v388q0 111 37 190t107.5 120t169.5 41q100 0 171.5 -39t109 -113.5t37.5 -180.5v-284h-466v169h255v118q0 64 -28 99t-79 35q-49 0 -76 -37.5t-27 -105.5v-407q0 -59 29 -92t82 -33q49 0 75.5 25.5t26.5 71.5v22l211 -1v-18
q0 -143 -82 -221.5t-231 -78.5q-102 0 -174 39zM467 1448h218v-218h-218v218zM114 1448h218v-218h-218v218z" />
    <glyph glyph-name="uni0452" unicode="&#x452;" horiz-adv-x="865" 
d="M433 -213h41q32 0 50 22t18 61v729q0 78 -26.5 117t-80.5 39q-55 0 -81.5 -40t-26.5 -121l-21 149q32 97 90 145t133 48q112 0 172 -71.5t60 -207.5v-776q0 -145 -67 -224t-189 -79h-72v209zM108 1454h219v-1454h-219v1454zM-35 1263h576v-204h-576v204z" />
    <glyph glyph-name="uni0453" unicode="&#x453;" horiz-adv-x="629" 
d="M105 1038h219v-1038h-219v1038zM226 1038h374v-209h-374v209zM228 1311l246 355l162 -126l-265 -336z" />
    <glyph glyph-name="uni0454" unicode="&#x454;" horiz-adv-x="772" 
d="M246 612h274v-204h-274v204zM230.5 20q-71.5 35 -109 102t-37.5 161v461q0 99 37.5 169t109.5 106.5t173 36.5t173.5 -36.5t110.5 -107.5t38 -170v-62h-216v51q0 60 -27 93t-76 33t-76.5 -32.5t-27.5 -90.5v-441q0 -52 27.5 -80t76.5 -28t76 29.5t27 83.5v48l218 -2v-57
q0 -95 -38.5 -162.5t-111 -103.5t-174.5 -36t-173.5 35z" />
    <glyph glyph-name="uni0455" unicode="&#x455;" horiz-adv-x="738" 
d="M205 24q-72 39 -111.5 110t-39.5 165v13l209 1v-12q0 -55 29.5 -87.5t80.5 -32.5t80.5 30.5t29.5 82.5q0 37 -19 62t-48 40t-82 35q-6 2 -12.5 4.5t-13.5 5.5q-2 1 -5 2t-5 2q-68 27 -117 60.5t-81.5 93t-32.5 150.5q0 92 36.5 162t104 107.5t157.5 37.5q91 0 158.5 -36
t104 -103.5t36.5 -157.5v-12l-209 -1v14q0 47 -24 74t-66 27q-41 0 -64.5 -29.5t-23.5 -80.5q0 -40 19.5 -66t50 -41.5t80.5 -32.5q2 -1 4.5 -1.5t4.5 -1.5q1 -1 3 -1t4 -1q78 -26 128.5 -55.5t86 -91t35.5 -165.5q0 -94 -39.5 -163.5t-111.5 -107.5t-169 -38q-96 0 -168 39
z" />
    <glyph glyph-name="uni0456" unicode="&#x456;" horiz-adv-x="406" 
d="M94 1448h219v-218h-219v218zM94 1038h219v-1038h-219v1038z" />
    <glyph glyph-name="uni0457" unicode="&#x457;" horiz-adv-x="406" 
d="M94 1038h219v-1038h-219v1038zM271 1448h218v-218h-218v218zM-82 1448h218v-218h-218v218z" />
    <glyph glyph-name="uni0458" unicode="&#x458;" horiz-adv-x="427" 
d="M-5 -210h39q33 0 50.5 22t17.5 61v1165h221v-1185q0 -131 -68 -203t-191 -72h-69v212zM102 1446h221v-217h-221v217z" />
    <glyph glyph-name="uni0459" unicode="&#x459;" horiz-adv-x="1168" 
d="M597 199h191q52 0 80 25.5t28 72.5v98q0 32 -12.5 54t-37 34t-58.5 12h-191v198h241q86 0 147 -32.5t93 -94.5t32 -150v-140q0 -87 -34 -149t-100 -94.5t-158 -32.5h-221v199zM35 194q45 0 67 27t22 82v735h204v-753q0 -99 -29.5 -164t-89 -97.5t-149.5 -32.5h-25v203z
M486 1038h219v-1038h-219v1038zM257 1038h346v-209h-346v209z" />
    <glyph glyph-name="uni045A" unicode="&#x45a;" horiz-adv-x="1176" 
d="M599 199h197q52 0 80 25.5t28 72.5v98q0 32 -12.5 54t-37 34t-58.5 12h-197v198h247q86 0 147 -32.5t93 -94.5t32 -150v-140q0 -87 -34 -149t-100 -94.5t-158 -32.5h-227v199zM499 1038h214v-1038h-214v1038zM105 1038h214v-1038h-214v1038zM224 615h411v-209h-411v209z
" />
    <glyph glyph-name="uni045B" unicode="&#x45b;" horiz-adv-x="865" 
d="M-35 1260h636v-198h-636v198zM116 1454h219v-1454h-219v1454zM542 604q0 65 -26 97.5t-78 32.5t-77.5 -33t-25.5 -98l-19 137q32 96 92.5 146t137.5 50q103 0 159 -70t56 -201v-665h-219v604z" />
    <glyph glyph-name="uni045C" unicode="&#x45c;" horiz-adv-x="789" 
d="M425 592l119 446h225l-171 -587zM105 1038h219v-1038h-219v1038zM424 430l177 137l204 -567h-232zM215 619h397v-209h-397v209zM321 1311l246 355l162 -126l-265 -336z" />
    <glyph glyph-name="uni045D" unicode="&#x45d;" horiz-adv-x="819" 
d="M519 1v700l24 -26l-268 -674h-170v1037h195v-699l-24 26l270 673h169v-1037h-196zM112 1540l162 124l246 -355l-143 -105z" />
    <glyph glyph-name="uni045E" unicode="&#x45e;" horiz-adv-x="769" 
d="M755 1038l-296 -1281q-15 -64 -52.5 -106t-98 -63t-144.5 -21h-54v213h56q61 0 93 24.5t44 82.5l239 1151h213zM35 1038h213l210 -899l-108 -238zM208 1287.5q-65 65.5 -65 184.5v85h174v-74q0 -46 19.5 -71.5t54.5 -25.5h18q36 0 55.5 25.5t19.5 71.5v74h174v-85
q0 -119 -65 -184.5t-184 -65.5h-18q-118 0 -183 65.5z" />
    <glyph glyph-name="uni045F" unicode="&#x45f;" horiz-adv-x="818" 
d="M495 1038h219v-1038h-219v1038zM300 209h219v-469h-219v469zM224 209h381v-209h-381v209zM105 1038h219v-1038h-219v1038z" />
    <glyph glyph-name="uni0460" unicode="&#x460;" horiz-adv-x="1362" 
d="M251 29q-76 44 -116 128t-40 201v737q0 118 40.5 202t118 128t185.5 44h43v-209h-43q-39 0 -67.5 -19.5t-43 -56.5t-14.5 -89v-737q0 -50 15.5 -85.5t45 -54.5t69.5 -19q41 0 69.5 19t43.5 54.5t15 85.5v228h167v-228q0 -37 -3.5 -70t-11.5 -64q-27 -115 -101.5 -177
t-189.5 -62q-106 0 -182 44zM747 43.5q-70 58.5 -97 170.5q-8 32 -12 68t-4 76v228h157v-228q0 -50 14.5 -85.5t43.5 -54.5t69 -19q41 0 70.5 19t45 54.5t15.5 85.5v737q0 52 -15 89t-43 56.5t-67 19.5h-43v209h43q108 0 185 -44t118 -128t41 -202v-737q0 -117 -40.5 -201
t-116.5 -128t-182 -44q-112 0 -182 58.5z" />
    <glyph glyph-name="uni0461" unicode="&#x461;" horiz-adv-x="1234" 
d="M426 1038h237l181 -731q32 87 50.5 202t25.5 234t8 264v31h242q0 -170 -33 -356t-92.5 -362t-138.5 -320h-171zM25 1038h237l188 -741l174 442l97 -172l-230 -567h-166z" />
    <glyph glyph-name="uni0462" unicode="&#x462;" horiz-adv-x="900" 
d="M-28 1296h664v-209h-664v209zM241 209h246q39 0 67 18t43 51.5t15 79.5v160q0 48 -15 82.5t-43 53t-67 18.5h-246v209h265q103 0 175.5 -39.5t111 -114.5t38.5 -180v-220q0 -103 -38.5 -176.5t-111.5 -112t-175 -38.5h-265v209zM125 1454h219v-1454h-219v1454z" />
    <glyph glyph-name="uni0463" unicode="&#x463;" horiz-adv-x="833" 
d="M-35 1169h679v-203h-679v203zM262 199h186q54 0 83.5 27t29.5 76v78q0 33 -13.5 56.5t-38.5 36t-61 12.5h-186v198h241q86 0 147 -32.5t93 -94.5t32 -150v-130q0 -87 -34 -149t-100 -94.5t-158 -32.5h-221v199zM144 1340h214v-1340h-214v1340z" />
    <glyph glyph-name="uni0464" unicode="&#x464;" horiz-adv-x="1214" 
d="M202 827h365v-209h-365v209zM306 0h-219v1454h219v-1454zM557 827h459v-209h-459v209zM611 29q-77 44 -117.5 127t-40.5 200v742q0 117 40.5 200.5t117.5 127t185 43.5q109 0 186 -43.5t117.5 -127t40.5 -200.5v-90h-222v90q0 48 -14 82.5t-41.5 52.5t-66.5 18
q-38 0 -65 -18t-41.5 -52.5t-14.5 -82.5v-742q0 -48 14.5 -82t41.5 -52t65 -18q39 0 66.5 18t41.5 52t14 83v89h222v-89q0 -117 -40.5 -200.5t-117.5 -127.5t-186 -44q-108 0 -185 44z" />
    <glyph glyph-name="uni0465" unicode="&#x465;" horiz-adv-x="1148" 
d="M230 612h286v-204h-286v204zM104 1038h219v-1038h-219v1038zM622 612h274v-204h-274v204zM606.5 20q-71.5 35 -109 102t-37.5 161v461q0 99 37.5 169t109.5 106.5t173 36.5q153 0 237.5 -82t84.5 -232v-62h-216v51q0 60 -27 93t-76 33t-76.5 -32.5t-27.5 -90.5v-441
q0 -52 27.5 -80t76.5 -28t76 29.5t27 83.5v48l218 -2v-57q0 -143 -85 -222.5t-239 -79.5q-102 0 -173.5 35z" />
    <glyph glyph-name="uni0466" unicode="&#x466;" horiz-adv-x="966" 
d="M396 1454h174l372 -1454h-225l-234 1055l-233 -1055h-225zM388 513h191v-513h-191v513zM280 600h414v-206h-414v206z" />
    <glyph glyph-name="uni0467" unicode="&#x467;" horiz-adv-x="786" 
d="M301 1038h185l276 -1038h-203l-166 752l-166 -752h-202zM312 328h162v-328h-162v328zM232 422h318v-182h-318v182z" />
    <glyph glyph-name="uni0468" unicode="&#x468;" horiz-adv-x="1314" 
d="M263 600h413v-205h-413v205zM306 0h-219v1454h219v-1454zM744 1454h174l372 -1454h-225l-234 1055l-233 -1055h-225zM736 513h191v-513h-191v513zM628 600h414v-206h-414v206z" />
    <glyph glyph-name="uni0469" unicode="&#x469;" horiz-adv-x="1192" 
d="M233 423h351v-182h-351v182zM104 1038h219v-1038h-219v1038zM707 1038h185l276 -1038h-203l-166 752l-166 -752h-202zM718 328h162v-328h-162v328zM638 422h318v-182h-318v182z" />
    <glyph glyph-name="uni046A" unicode="&#x46a;" horiz-adv-x="1144" 
d="M224 1454h683v-207h-683v207zM357 649l-353 805h256l324 -788zM876 1454h256l-348 -819l-227 17zM76 488q18 100 68.5 166.5t121 98t149.5 31.5l50 -189q-41 0 -79.5 -20t-67.5 -61t-39 -102l-66 -412h-228zM466 686h219v-686h-219v686zM410 784h55l107 -153l86 153h69
v-189h-307zM865 412q-10 61 -39 102t-67.5 61t-78.5 20l50 189q78 0 148.5 -32t121 -98t68.5 -166l92 -488h-228z" />
    <glyph glyph-name="uni046B" unicode="&#x46b;" horiz-adv-x="1044" 
d="M505 474l293 564h256l-341 -608zM50 273q32 156 128.5 232.5t252.5 76.5l-20 -208q-55 0 -87.5 -31t-44.5 -96l-42 -247h-243zM408 474h229v-474h-229v474zM411 582h48l65 -82l67 82h23l30 -208h-253zM-10 1038h256l298 -561l-213 -44zM765 247q-11 65 -47 96t-94 31
l-20 208q158 0 258.5 -76.5t131.5 -232.5l56 -273h-243zM190 1038h674v-209h-674v209z" />
    <glyph glyph-name="uni046C" unicode="&#x46c;" horiz-adv-x="1552" 
d="M254 784h543v-189h-543v189zM305 0h-219v1454h219v-1454zM632 1454h683v-207h-683v207zM765 649l-353 805h256l324 -788zM1284 1454h256l-348 -819l-227 17zM484 488q18 100 68.5 166.5t121 98t149.5 31.5l50 -189q-41 0 -79.5 -20t-67.5 -61t-39 -102l-66 -412h-228z
M874 686h219v-686h-219v686zM818 784h55l107 -153l86 153h69v-189h-307zM1273 412q-10 61 -39 102t-67.5 61t-78.5 20l50 189q78 0 148.5 -32t121 -98t68.5 -166l92 -488h-228z" />
    <glyph glyph-name="uni046D" unicode="&#x46d;" horiz-adv-x="1474" 
d="M245 582h509v-208h-509v208zM94 1038h219v-1038h-219v1038zM935 474l293 564h256l-341 -608zM480 273q32 156 128.5 232.5t252.5 76.5l-20 -208q-55 0 -87.5 -31t-44.5 -96l-42 -247h-243zM838 474h229v-474h-229v474zM841 582h48l65 -82l67 82h23l30 -208h-253z
M420 1038h256l298 -561l-213 -44zM1195 247q-11 65 -47 96t-94 31l-20 208q158 0 258.5 -76.5t131.5 -232.5l56 -273h-243zM620 1038h674v-209h-674v209z" />
    <glyph glyph-name="uni046E" unicode="&#x46e;" horiz-adv-x="870" 
d="M378 -422q-144 0 -223.5 77.5t-79.5 217.5q0 153 79.5 237t223.5 84h44q81 0 125.5 43t44.5 120v142q0 73 -30.5 113t-85.5 40h-101v209h101q43 0 67.5 31.5t24.5 88.5v132q0 68 -34 105t-97 37q-66 0 -101.5 -37.5t-35.5 -105.5v-61h-219v65q0 168 96 260.5t270 92.5
q108 0 184 -41.5t116 -121t40 -191.5v-149q0 -35 -15 -71.5t-43.5 -71t-69.5 -64.5q72 -29 112 -94t40 -153v-172q0 -113 -42 -192.5t-120.5 -121.5t-189.5 -42h-65q-50 0 -77.5 -25.5t-27.5 -71.5q0 -48 27 -74t78 -26h314v-209h-330zM148 1804l123 128l179 -148l177 148
l124 -128l-301 -252z" />
    <glyph glyph-name="uni046F" unicode="&#x46f;" horiz-adv-x="699" 
d="M338 -422q-144 0 -223.5 77.5t-79.5 218.5q0 143 75.5 221.5t212.5 78.5h10q49 0 76.5 26t27.5 74v58q0 44 -26 68t-72 24h-86v191h86q35 0 54.5 18.5t19.5 52.5v114q0 37 -20 57.5t-56 20.5q-35 0 -54 -20.5t-19 -58.5v-61h-204v77q0 76 32.5 130t95 82.5t149.5 28.5
q133 0 206.5 -63.5t73.5 -178.5v-150q0 -29 -11.5 -55.5t-33 -48.5t-52.5 -37q38 -13 65 -37.5t41.5 -57t14.5 -72.5v-105q0 -125 -71.5 -195t-202.5 -71h-14q-50 0 -78 -26.5t-28 -73.5q0 -49 28 -76t78 -27h189v-204h-204zM64 1516l129 114l150 -177l151 177l128 -114
l-279 -313z" />
    <glyph glyph-name="uni0470" unicode="&#x470;" horiz-adv-x="1042" 
d="M282 424.5q-98 47.5 -149 139.5t-51 225v665h213v-672q0 -63 26.5 -107t77 -67t123.5 -23t123.5 23t76 67t25.5 107v672h214v-665q0 -133 -50.5 -225t-148.5 -139.5t-240 -47.5t-240 47.5zM414 1454h219v-1454h-219v1454z" />
    <glyph glyph-name="uni0471" unicode="&#x471;" horiz-adv-x="1142" 
d="M317.5 32.5q-104.5 47.5 -158.5 140t-54 224.5v641h208v-654q0 -69 30 -117t88 -73t141 -25t140.5 25t87 73t29.5 117v654h209v-641q0 -132 -54 -224.5t-158 -140t-254 -47.5t-254.5 47.5zM469 1339h208v-1640h-208v1640z" />
    <glyph glyph-name="uni0472" unicode="&#x472;" horiz-adv-x="922" 
d="M200 827h513v-209h-513v209zM263.5 27q-82.5 42 -125.5 121t-43 191v777q0 112 43 191.5t125.5 120.5t197.5 41q116 0 198 -41t125.5 -120.5t43.5 -191.5v-777q0 -112 -43.5 -191t-125.5 -121t-198 -42q-115 0 -197.5 42zM540 219.5q33 17.5 50 51t17 81.5v752
q0 47 -17 80.5t-50 51t-79 17.5t-78.5 -17.5t-49.5 -51t-17 -80.5v-752q0 -48 17 -81.5t49.5 -51t78.5 -17.5t79 17.5z" />
    <glyph glyph-name="uni0473" unicode="&#x473;" horiz-adv-x="776" 
d="M159 611h455v-183h-455v183zM224.5 19.5q-68.5 34.5 -104.5 100t-36 157.5v492q0 91 36 155.5t104.5 98t164.5 33.5t164.5 -33.5t104 -98t35.5 -155.5v-495q0 -91 -35.5 -156t-104 -99t-164.5 -34t-164.5 34.5zM452.5 215q22.5 26 22.5 74v467q0 46 -22.5 71.5
t-64.5 25.5q-40 0 -63.5 -26t-23.5 -71v-467q0 -48 23 -74t64 -26q42 0 64.5 26z" />
    <glyph glyph-name="uni0474" unicode="&#x474;" horiz-adv-x="804" 
d="M5 1454h227l169 -1062l140 891q9 60 36 99.5t72.5 59t109.5 19.5h111v-209h-47q-33 0 -52 -17.5t-26 -53.5l-228 -1181h-231z" />
    <glyph glyph-name="uni0475" unicode="&#x475;" horiz-adv-x="874" 
d="M55 1038h213l155 -728l110 567q11 58 38.5 97.5t72 59t105.5 19.5h81v-209h-45q-32 0 -53 -18t-30 -53l-193 -773h-172z" />
    <glyph glyph-name="uni0476" unicode="&#x476;" horiz-adv-x="804" 
d="M77 1792l162 142l210 -279l-138 -111zM421 1792l161 142l210 -279l-137 -111zM5 1454h227l169 -1062l140 891q9 60 36 99.5t72.5 59t109.5 19.5h111v-209h-47q-33 0 -52 -17.5t-26 -53.5l-228 -1181h-231z" />
    <glyph glyph-name="uni0477" unicode="&#x477;" horiz-adv-x="879" 
d="M22 1548l178 104l192 -361l-165 -90zM356 1548l178 104l191 -361l-164 -90zM60 1038h213l155 -728l110 567q11 58 38.5 97.5t72 59t105.5 19.5h81v-209h-45q-32 0 -53 -18t-30 -53l-193 -773h-172z" />
    <glyph glyph-name="uni0478" unicode="&#x478;" horiz-adv-x="1661" 
d="M263.5 27q-82.5 42 -125.5 121t-43 191v777q0 112 43 191.5t125.5 120.5t197.5 41q116 0 198 -41t125.5 -120.5t43.5 -191.5v-777q0 -112 -43.5 -191t-125.5 -121t-198 -42q-115 0 -197.5 42zM540 219.5q33 17.5 50 51t17 81.5v752q0 47 -17 80.5t-50 51t-79 17.5
t-78.5 -17.5t-49.5 -51t-17 -80.5v-752q0 -48 17 -81.5t49.5 -51t78.5 -17.5t79 17.5zM1647 1038l-296 -1281q-15 -64 -52.5 -106t-98 -63t-144.5 -21h-54v213h56q61 0 93 24.5t44 82.5l239 1151h213zM927 1038h213l210 -899l-108 -238z" />
    <glyph glyph-name="uni0479" unicode="&#x479;" horiz-adv-x="1525" 
d="M224.5 19.5q-68.5 34.5 -104.5 100t-36 157.5v492q0 91 36 155.5t104.5 98t164.5 33.5t164.5 -33.5t104 -98t35.5 -155.5v-495q0 -91 -35.5 -156t-104 -99t-164.5 -34t-164.5 34.5zM452.5 215q22.5 26 22.5 74v467q0 46 -22.5 71.5t-64.5 25.5q-40 0 -63.5 -26t-23.5 -71
v-467q0 -48 23 -74t64 -26q42 0 64.5 26zM1511 1038l-296 -1281q-15 -64 -52.5 -106t-98 -63t-144.5 -21h-54v213h56q61 0 93 24.5t44 82.5l239 1151h213zM791 1038h213l210 -899l-108 -238z" />
    <glyph glyph-name="uni047A" unicode="&#x47a;" horiz-adv-x="922" 
d="M384 1586h155v-559h-155v559zM384 427h155v-559h-155v559zM263.5 27q-82.5 42 -125.5 121t-43 191v777q0 112 43 191.5t125.5 120.5t197.5 41q116 0 198 -41t125.5 -120.5t43.5 -191.5v-777q0 -112 -43.5 -191t-125.5 -121t-198 -42q-115 0 -197.5 42zM540 219.5
q33 17.5 50 51t17 81.5v752q0 47 -17 80.5t-50 51t-79 17.5t-78.5 -17.5t-49.5 -51t-17 -80.5v-752q0 -48 17 -81.5t49.5 -51t78.5 -17.5t79 17.5z" />
    <glyph glyph-name="uni047B" unicode="&#x47b;" horiz-adv-x="776" 
d="M341 1170h94v-489h-94v489zM341 357h94v-489h-94v489zM224.5 19.5q-68.5 34.5 -104.5 100t-36 157.5v492q0 91 36 155.5t104.5 98t164.5 33.5t164.5 -33.5t104 -98t35.5 -155.5v-495q0 -91 -35.5 -156t-104 -99t-164.5 -34t-164.5 34.5zM452.5 215q22.5 26 22.5 74v467
q0 46 -22.5 71.5t-64.5 25.5q-40 0 -63.5 -26t-23.5 -71v-467q0 -48 23 -74t64 -26q42 0 64.5 26z" />
    <glyph glyph-name="uni047C" unicode="&#x47c;" horiz-adv-x="1362" 
d="M251 29q-76 44 -116 128t-40 201v737q0 118 40.5 202t118 128t185.5 44h43v-209h-43q-39 0 -67.5 -19.5t-43 -56.5t-14.5 -89v-737q0 -50 15.5 -85.5t45 -54.5t69.5 -19q41 0 69.5 19t43.5 54.5t15 85.5v228h167v-228q0 -37 -3.5 -70t-11.5 -64q-27 -115 -101.5 -177
t-189.5 -62q-106 0 -182 44zM747 43.5q-70 58.5 -97 170.5q-8 32 -12 68t-4 76v228h157v-228q0 -50 14.5 -85.5t43.5 -54.5t69 -19q41 0 70.5 19t45 54.5t15.5 85.5v737q0 52 -15 89t-43 56.5t-67 19.5h-43v209h43q108 0 185 -44t118 -128t41 -202v-737q0 -117 -40.5 -201
t-116.5 -128t-182 -44q-112 0 -182 58.5zM385 1854h592v-198h-592v198zM385 1779h213v-213h-213v213zM765 1943h213v-223h-213v223z" />
    <glyph glyph-name="uni047D" unicode="&#x47d;" horiz-adv-x="1234" 
d="M426 1038h237l181 -731q32 87 50.5 202t25.5 234t8 264v31h242q0 -170 -33 -356t-92.5 -362t-138.5 -320h-171zM25 1038h237l188 -741l174 442l97 -172l-230 -567h-166zM314 1438h592v-198h-592v198zM314 1363h213v-213h-213v213zM694 1527h213v-223h-213v223z" />
    <glyph glyph-name="uni047E" unicode="&#x47e;" horiz-adv-x="1362" 
d="M1029 1804v-141h-672v141h672zM1029 1732v-178h-183v178h183zM357 1554v178h183v-178h-183zM774 1732v-178h-163v178h163zM251 29q-76 44 -116 128t-40 201v737q0 118 40.5 202t118 128t185.5 44h43v-209h-43q-39 0 -67.5 -19.5t-43 -56.5t-14.5 -89v-737
q0 -50 15.5 -85.5t45 -54.5t69.5 -19q41 0 69.5 19t43.5 54.5t15 85.5v228h167v-228q0 -37 -3.5 -70t-11.5 -64q-27 -115 -101.5 -177t-189.5 -62q-106 0 -182 44zM747 43.5q-70 58.5 -97 170.5q-8 32 -12 68t-4 76v228h157v-228q0 -50 14.5 -85.5t43.5 -54.5t69 -19
q41 0 70.5 19t45 54.5t15.5 85.5v737q0 52 -15 89t-43 56.5t-67 19.5h-43v209h43q108 0 185 -44t118 -128t41 -202v-737q0 -117 -40.5 -201t-116.5 -128t-182 -44q-112 0 -182 58.5z" />
    <glyph glyph-name="uni047F" unicode="&#x47f;" horiz-adv-x="1234" 
d="M964 1500v-141h-672v141h672zM964 1428v-178h-183v178h183zM292 1250v178h183v-178h-183zM709 1428v-178h-163v178h163zM426 1038h237l181 -731q32 87 50.5 202t25.5 234t8 264v31h242q0 -170 -33 -356t-92.5 -362t-138.5 -320h-171zM25 1038h237l188 -741l174 442
l97 -172l-230 -567h-166z" />
    <glyph glyph-name="uni0480" unicode="&#x480;" horiz-adv-x="857" 
d="M262.5 260q-81.5 44 -124.5 127.5t-43 199.5v511q0 117 40.5 200.5t117.5 127t185 43.5q109 0 186.5 -43.5t118 -127t40.5 -200.5v-89h-220v89q0 48 -15 82.5t-43 52.5t-67 18q-57 0 -90 -40.5t-33 -112.5v-511q0 -72 38 -112t105 -40v-219q-114 0 -195.5 44zM364 435
h219v-435h-219v435z" />
    <glyph glyph-name="uni0481" unicode="&#x481;" horiz-adv-x="770" 
d="M235 20q-74 35 -112.5 102t-38.5 161v461q0 99 37.5 169t109 106.5t172.5 36.5q102 0 174.5 -36.5t110.5 -107.5t38 -170v-62l-218 -1v58q1 60 -26 93t-76 33t-76 -32.5t-27 -90.5v-450q0 -56 29 -87t81 -31v-187q-104 0 -178 35zM317 172h219v-459h-219v459z" />
    <glyph glyph-name="uni0482" unicode="&#x482;" horiz-adv-x="1020" 
d="M660 1442l202 -68l-491 -1389l-198 74zM1016 876l-69 -183l-757 286l68 183zM831 404l-69 -182l-757 286l68 183z" />
    <glyph glyph-name="uni0483" unicode="&#x483;" 
d="M-727 1438h592v-198h-592v198zM-727 1363h213v-213h-213v213zM-347 1527h213v-223h-213v223z" />
    <glyph glyph-name="uni0484" unicode="&#x484;" 
d="M-270 1254q0 24 -12 37t-35 13q-25 0 -56.5 -8t-73.5 -23q-2 -1 -5 -2t-5 -2q-3 -1 -6.5 -2.5t-6.5 -2.5q-65 -24 -113 -37t-91 -13h-19v185h19q31 0 75 11.5t110 33.5q5 2 9.5 3.5t8.5 2.5l6 2t5 2q66 22 114.5 34t84.5 12q85 0 131 -53.5t46 -151.5v-86h-186v45z" />
    <glyph glyph-name="uni0485" unicode="&#x485;" 
d="M-707 1438h591v-198h-591v198zM-707 1363h213v-213h-213v213zM-707 1527h213v-223h-213v223z" />
    <glyph glyph-name="uni0486" unicode="&#x486;" 
d="M-706 1438h592v-198h-592v198zM-327 1363h213v-213h-213v213zM-327 1527h213v-223h-213v223z" />
    <glyph glyph-name="uni0487" unicode="&#x487;" 
d="M-187.5 1226q-44.5 12 -105.5 34q-7 2 -14 5t-14 5q-2 1 -4.5 1.5t-4.5 1.5q-43 15 -74.5 23t-55.5 8q-22 0 -34.5 -13t-12.5 -37v-45h-186v86q0 98 46.5 151.5t130.5 53.5q39 0 90.5 -13.5t124.5 -37.5q3 -1 6.5 -2t6.5 -3q64 -21 109 -33t76 -12h19v-185h-19
q-40 0 -84.5 12z" />
    <glyph glyph-name="uni0488" unicode="&#x488;" 
d="M-1266 1150q0 37 -14 57.5t-39 20.5h-18q-25 0 -38.5 -20.5t-13.5 -57.5v-57h-171v70q0 100 58.5 155t164.5 55h18q107 0 165.5 -55t58.5 -155v-70h-171v57zM-1411 702q0 37 -14 57.5t-39 20.5h-18q-25 0 -38.5 -20.5t-13.5 -57.5v-57h-171v70q0 100 58.5 155t164.5 55
h18q107 0 165.5 -55t58.5 -155v-70h-171v57zM-1266 250q0 37 -14 57.5t-39 20.5h-18q-25 0 -38.5 -20.5t-13.5 -57.5v-57h-171v70q0 100 58.5 155t164.5 55h18q107 0 165.5 -55t58.5 -155v-70h-171v57zM-320 1150q0 37 -14 57.5t-39 20.5h-18q-25 0 -38.5 -20.5t-13.5 -57.5
v-57h-171v70q0 100 58.5 155t164.5 55h18q107 0 165.5 -55t58.5 -155v-70h-171v57zM-793 1446q0 37 -14 57.5t-39 20.5h-18q-25 0 -38.5 -20.5t-13.5 -57.5v-57h-171v70q0 100 58.5 155t164.5 55h18q107 0 165.5 -55t58.5 -155v-70h-171v57zM-175 702q0 37 -14 57.5
t-39 20.5h-18q-25 0 -39 -20.5t-14 -57.5v-57h-170v70q0 100 58.5 155t164.5 55h18q107 0 165.5 -55t58.5 -155v-70h-171v57zM-320 250q0 37 -14 57.5t-39 20.5h-18q-25 0 -38.5 -20.5t-13.5 -57.5v-57h-171v70q0 100 58.5 155t164.5 55h18q107 0 165.5 -55t58.5 -155v-70
h-171v57zM-793 -132q0 37 -14 57.5t-39 20.5h-18q-25 0 -38.5 -20.5t-13.5 -57.5v-57h-171v70q0 100 58.5 155t164.5 55h18q107 0 165.5 -55t58.5 -155v-70h-171v57z" />
    <glyph glyph-name="uni0489" unicode="&#x489;" 
d="M-653 1208l154 153l293 -14l-294 -294zM-1585 159l294 293l154 -154l-154 -153zM-1004 218h218v-218l-218 -198v416zM-1791 862h416v-218h-218zM-653 298l154 154l153 -153l-12 -294zM-1444 1207l12 294l295 -294l-154 -154zM-1004 1506l218 198v-416h-218v218zM-415 862
h218l198 -218h-416v218z" />
    <glyph glyph-name="uni048A" unicode="&#x48a;" horiz-adv-x="910" 
d="M752 39l30 -39h-85v186h273l-70 -502h-198zM615 1v1027l23 -28l-364 -999h-179v1453h204v-1034l-23 28l367 1006h177v-1453h-205zM724 1863q0 -145 -69 -225t-194 -80h-8q-125 0 -194 80t-69 225l180 -2q0 -66 22 -102.5t61 -36.5h8q40 0 61.5 36.5t21.5 102.5z" />
    <glyph glyph-name="uni048B" unicode="&#x48b;" horiz-adv-x="868" 
d="M866 216l-68 -477h-206l38 264l31 213h205zM519 1v700l24 -26l-268 -674h-170v1037h195v-699l-24 26l270 673h169v-1037h-196zM210 1287.5q-65 65.5 -65 184.5v85h174v-74q0 -46 19.5 -71.5t54.5 -25.5h18q36 0 55.5 25.5t19.5 71.5v74h174v-85q0 -119 -65 -184.5
t-184 -65.5h-18q-118 0 -183 65.5z" />
    <glyph glyph-name="uni048C" unicode="&#x48c;" horiz-adv-x="865" 
d="M-35 1299h585v-209h-585v209zM206 209h246q39 0 67 18t43 51.5t15 79.5v160q0 48 -15 82.5t-43 53t-67 18.5h-246v209h265q103 0 175.5 -39.5t111 -114.5t38.5 -180v-220q0 -103 -38.5 -176.5t-111.5 -112t-175 -38.5h-265v209zM90 1454h219v-1454h-219v1454z" />
    <glyph glyph-name="uni048D" unicode="&#x48d;" horiz-adv-x="821" 
d="M5 1038h550v-201h-550v201zM131 1454h214v-554h-214v554zM250 199h186q54 0 83.5 27t29.5 76v93q0 33 -13.5 56.5t-38.5 35.5t-61 12h-186v194h241q86 0 147 -32.5t93 -94.5t32 -150v-140q0 -87 -34 -149t-100 -94.5t-158 -32.5h-221v199zM132 1038h214v-1038h-214v1038z
" />
    <glyph glyph-name="uni048E" unicode="&#x48e;" horiz-adv-x="895" 
d="M359 913l139 57l208 -530l-139 -58zM205 773h266q35 0 60 16t38.5 46.5t13.5 72.5v197q0 44 -13 75.5t-38.5 48t-60.5 16.5h-266v209h268q105 0 180 -38.5t114 -112.5t39 -178v-238q0 -102 -39.5 -174.5t-114.5 -110.5t-179 -38h-268v209zM95 1454h219v-1454h-219v1454z
" />
    <glyph glyph-name="uni048F" unicode="&#x48f;" horiz-adv-x="824" 
d="M353 331l112 40l167 -529l-113 -41zM105 1038h219v-1460h-219v1460zM387.5 32q-53.5 47 -77.5 131l14 154q0 -42 12 -72t34.5 -45.5t54.5 -15.5q47 0 73 36t26 101v405q0 62 -26 96.5t-73 34.5q-32 0 -54.5 -14.5t-34.5 -43.5t-12 -69l-21 136q33 91 90.5 140.5
t126.5 49.5q70 0 119.5 -36t75.5 -105t26 -167v-449q0 -99 -27 -169.5t-77.5 -107.5t-122.5 -37q-73 0 -126.5 47z" />
    <glyph glyph-name="uni0490" unicode="&#x490;" horiz-adv-x="624" 
d="M421 1666h209v-324h-209v324zM95 1454h219v-1454h-219v1454zM233 1454h397v-209h-397v209z" />
    <glyph glyph-name="uni0491" unicode="&#x491;" horiz-adv-x="629" 
d="M391 1216h209v-329h-209v329zM105 1038h219v-1038h-219v1038zM226 1038h374v-209h-374v209z" />
    <glyph glyph-name="uni0492" unicode="&#x492;" horiz-adv-x="655" 
d="M-5 827h611v-209h-611v209zM126 1454h219v-1454h-219v1454zM264 1454h397v-209h-397v209z" />
    <glyph glyph-name="uni0493" unicode="&#x493;" horiz-adv-x="678" 
d="M-5 600h594v-203h-594v203zM154 1038h219v-1038h-219v1038zM275 1038h374v-209h-374v209z" />
    <glyph glyph-name="uni0494" unicode="&#x494;" horiz-adv-x="786" 
d="M401 -82h58q32 0 48 20.5t16 60.5v534q0 75 -25 112t-76 37q-54 0 -81.5 -34t-27.5 -103v-89l-14 60v108q0 89 21.5 147.5t65.5 88t110 29.5q82 0 136.5 -38t82 -114.5t27.5 -191.5v-540q0 -99 -27.5 -164.5t-82 -98.5t-137.5 -33h-94v209zM95 1454h219v-1454h-219v1454z
M233 1454h397v-209h-397v209z" />
    <glyph glyph-name="uni0495" unicode="&#x495;" horiz-adv-x="781" 
d="M637 606q49 -34 75 -100t26 -158v-476q0 -93 -32 -159t-92 -100.5t-145 -34.5h-65v209h45q33 0 51.5 24t18.5 68v456q0 58 -26 90t-73 32q-46 0 -71.5 -34.5t-25.5 -96.5v-64l-16 20v108q0 120 55 185t157 65q69 0 118 -34zM105 1038h219v-1038h-219v1038zM226 1038h374
v-209h-374v209z" />
    <glyph glyph-name="uni0496" unicode="&#x496;" horiz-adv-x="1450" 
d="M868 792l231 662h226l-302 -830zM862 646l198 99l326 -745h-233zM306 745l197 -99l-286 -646h-232zM46 1454h225l226 -662l-155 -168zM352 827h661v-209h-661v209zM576 1454h219v-1454h-219v1454zM1498 209v-525h-219v525h219zM1396 134v-99h-57v99h57z" />
    <glyph glyph-name="uni0497" unicode="&#x497;" horiz-adv-x="1230" 
d="M727 431l166 137l253 -568h-232zM237 568l167 -137l-188 -431h-231zM21 1038h224l158 -446l-161 -142zM456 1038h219v-1038h-219v1038zM246 619h658v-209h-658v209zM727 592l158 446h225l-222 -588zM1273 209v-470h-219v470h219z" />
    <glyph glyph-name="uni0498" unicode="&#x498;" horiz-adv-x="868" 
d="M562 115v-431h-218v431h218zM250 26q-86 41 -130.5 119t-44.5 188v75h219v-66q0 -71 42.5 -109.5t119.5 -38.5q73 0 113 42.5t40 119.5v156q0 67 -30 103.5t-86 36.5h-195v209h195q44 0 68 28t24 79v155q0 66 -33.5 102t-96.5 36q-65 0 -101 -36.5t-36 -102.5v-71h-219
v70q0 166 96 257t270 91q108 0 183.5 -41t116 -119.5t40.5 -188.5v-154q0 -53 -31.5 -107t-89.5 -100q69 -29 107 -94t38 -153v-156q0 -117 -44 -200.5t-127.5 -127t-201.5 -43.5q-120 0 -206 41z" />
    <glyph glyph-name="uni0499" unicode="&#x499;" horiz-adv-x="674" 
d="M433 95v-355h-218v355h218zM111 48q-76 63 -76 179v97h203v-61q0 -35 23 -54.5t65 -19.5q40 0 63 23.5t23 64.5v100q0 39 -25.5 61t-70.5 22h-117v180h117q34 0 53 15.5t19 44.5v84q0 33 -20 51t-55 18q-36 0 -55.5 -18.5t-19.5 -51.5v-46h-203v77q0 115 72.5 178.5
t205.5 63.5t206 -63.5t73 -178.5v-131q0 -42 -22.5 -75.5t-74.5 -55.5q62 -20 91.5 -56t29.5 -93v-153q0 -126 -75.5 -195.5t-214.5 -69.5t-215 63z" />
    <glyph glyph-name="uni049A" unicode="&#x49a;" horiz-adv-x="989" 
d="M445 792l173 662h226l-245 -830zM436 646l190 120l279 -766h-233zM95 1454h219v-1454h-219v1454zM199 827h388v-209h-388v209zM1032 209v-525h-219v525h219zM930 134v-99h-57v99h57z" />
    <glyph glyph-name="uni049B" unicode="&#x49b;" horiz-adv-x="929" 
d="M425 592l119 446h225l-171 -587zM105 1038h219v-1038h-219v1038zM424 430l177 137l204 -567h-232zM215 619h397v-209h-397v209zM948 209v-470h-219v470h219z" />
    <glyph glyph-name="uni049C" unicode="&#x49c;" horiz-adv-x="889" 
d="M95 1454h219v-1454h-219v1454zM476 792l142 662h226l-213 -830zM470 651l188 99l247 -750h-233zM199 827h422v-209h-422v209zM364 1089h89v-734h-89v734z" />
    <glyph glyph-name="uni049D" unicode="&#x49d;" horiz-adv-x="789" 
d="M436 430l178 137l191 -567h-232zM105 1038h219v-1038h-219v1038zM352 864h84v-694h-84v694zM215 618h409v-209h-409v209zM437 592l107 446h225l-159 -589z" />
    <glyph glyph-name="uni049E" unicode="&#x49e;" horiz-adv-x="894" 
d="M-35 1337h484v-209h-484v209zM450 792l173 662h226l-245 -830zM441 646l190 120l279 -766h-233zM100 1454h219v-1454h-219v1454zM204 827h388v-209h-388v209z" />
    <glyph glyph-name="uni049F" unicode="&#x49f;" horiz-adv-x="829" 
d="M145 1454h219v-554h-219v554zM-35 1336h600v-204h-600v204zM465 592l119 446h225l-171 -587zM145 1038h219v-1038h-219v1038zM464 430l177 137l204 -567h-232zM255 619h397v-209h-397v209z" />
    <glyph glyph-name="uni04A0" unicode="&#x4a0;" horiz-adv-x="980" 
d="M-145 1246v208h397v-208h-397zM536 792l173 662h226l-245 -830zM527 646l190 120l279 -766h-233zM186 1454h219v-1454h-219v1454zM290 827h388v-209h-388v209z" />
    <glyph glyph-name="uni04A1" unicode="&#x4a1;" horiz-adv-x="961" 
d="M25 1038h348v-211h-348v211zM597 592l119 446h225l-171 -587zM277 1038h219v-1038h-219v1038zM596 430l177 137l204 -567h-232zM387 619h397v-209h-397v209z" />
    <glyph glyph-name="uni04A2" unicode="&#x4a2;" horiz-adv-x="950" 
d="M557 1454h219v-1454h-219v1454zM95 1454h219v-1454h-219v1454zM217 820h467v-207h-467v207zM917 209v-525h-219v525h219zM815 134v-99h-57v99h57z" />
    <glyph glyph-name="uni04A3" unicode="&#x4a3;" horiz-adv-x="877" 
d="M499 1038h214v-1038h-214v1038zM105 1038h214v-1038h-214v1038zM224 615h411v-209h-411v209zM869 209v-470h-219v470h219z" />
    <glyph glyph-name="uni04A4" unicode="&#x4a4;" horiz-adv-x="1034" 
d="M696 1454h344v-209h-344v209zM557 1454h219v-1454h-219v1454zM95 1454h219v-1454h-219v1454zM217 820h467v-207h-467v207z" />
    <glyph glyph-name="uni04A5" unicode="&#x4a5;" horiz-adv-x="984" 
d="M620 1038h335v-209h-335v209zM499 1038h214v-1038h-214v1038zM105 1038h214v-1038h-214v1038zM224 615h411v-209h-411v209z" />
    <glyph glyph-name="uni04A6" unicode="&#x4a6;" horiz-adv-x="1266" 
d="M875 -82h64q32 0 48 20.5t16 60.5v534q0 75 -26.5 112t-80.5 37q-60 0 -90.5 -34t-30.5 -103v-89l-14 60v108q0 89 23 147.5t68.5 88t113.5 29.5q86 0 142.5 -38t85 -114.5t28.5 -191.5v-540q0 -99 -27.5 -164.5t-82 -98.5t-137.5 -33h-100v209zM557 1454h219v-1454h-219
v1454zM95 1454h219v-1454h-219v1454zM223 1454h456v-208h-456v208z" />
    <glyph glyph-name="uni04A7" unicode="&#x4a7;" horiz-adv-x="1197" 
d="M820 -213h45q33 0 51.5 24t18.5 68v456q0 58 -30.5 90t-86.5 32q-50 0 -78 -34.5t-28 -96.5v-64l-17 20v108q0 120 58 185t164 65q75 0 128 -34t81 -100t28 -158v-476q0 -93 -32 -159t-92 -100.5t-145 -34.5h-65v209zM499 1038h214v-1038h-214v1038zM105 1038h214v-1038
h-214v1038zM219 1038h411v-209h-411v209z" />
    <glyph glyph-name="uni04A8" unicode="&#x4a8;" horiz-adv-x="1215" 
d="M734.5 39.5q-130.5 54.5 -199 159t-68.5 251.5v714q0 145 82 225t230 80t229.5 -80t81.5 -225v-714q0 -142 -66 -243t-192.5 -154t-304.5 -53l20 209q155 0 239.5 61t84.5 175v704q0 53 -24 82.5t-68 29.5q-45 0 -69 -29.5t-24 -82.5v-704q0 -78 42.5 -134.5t124 -86.5
t196.5 -30h83v-209h-83q-184 0 -314.5 54.5zM293 44.5q-97 44.5 -147.5 130t-50.5 205.5v774q0 150 89.5 232.5t252.5 82.5v-211q-59 0 -91 -32.5t-32 -92.5v-738q0 -90 60.5 -138t172.5 -48l-20 -209q-137 0 -234 44.5z" />
    <glyph glyph-name="uni04A9" unicode="&#x4a9;" horiz-adv-x="1171" 
d="M711.5 49q-123.5 64 -188.5 186.5t-65 296.5v219q0 97 35.5 165t103 104t163.5 36q95 0 163 -36t103.5 -104.5t35.5 -164.5v-219q0 -169 -66.5 -288t-193 -181.5t-305.5 -62.5l20 209q103 0 176.5 37.5t111.5 108.5t38 172v219q0 46 -21.5 71t-61.5 25t-62 -25t-22 -71
v-219q0 -104 39 -177.5t114 -112t180 -38.5h84v-214h-84q-174 0 -297.5 64zM276.5 41.5q-89.5 41.5 -135.5 123t-46 200.5v342q0 114 39.5 192t117 117.5t190.5 39.5v-214q-63 0 -95.5 -34t-32.5 -101v-327q0 -84 51.5 -127.5t151.5 -43.5l-20 -209q-131 0 -220.5 41.5z" />
    <glyph glyph-name="uni04AA" unicode="&#x4aa;" horiz-adv-x="856" 
d="M548 159v-475h-219v475h219zM253 29q-77 44 -117.5 127t-40.5 200v742q0 117 40.5 200.5t117.5 127t185 43.5q109 0 186 -43.5t117.5 -127t40.5 -200.5v-90h-222v90q0 48 -14 82.5t-41.5 52.5t-66.5 18q-38 0 -65 -18t-41.5 -52.5t-14.5 -82.5v-742q0 -48 14.5 -82
t41.5 -52t65 -18q39 0 66.5 18t41.5 52t14 83v89h222v-89q0 -117 -40.5 -200.5t-117.5 -127.5t-186 -44q-108 0 -185 44z" />
    </font>
</defs>
</svg>
