<?xml version="1.0" standalone="no"?>
<!DOCTYPE svg PUBLIC "-//W3C//DTD SVG 1.1//EN" "http://www.w3.org/Graphics/SVG/1.1/DTD/svg11.dtd" >
<svg xmlns="http://www.w3.org/2000/svg" xmlns:xlink="http://www.w3.org/1999/xlink" version="1.1">
<metadata>
Created by FontForge 20201107 at Thu May 29 13:06:39 2025
 By 
(c) 2018 Microsoft Corporation. All rights reserved.
</metadata>
<defs>
<font id="Bahnschrift" horiz-adv-x="0" >
  <font-face 
    font-family="Bahnschrift"
    font-weight="350"
    font-stretch="semi-condensed"
    units-per-em="2048"
    panose-1="2 11 5 2 4 2 4 2 2 3"
    ascent="1626"
    descent="-422"
    x-height="1038"
    cap-height="1454"
    bbox="-1929 -498 1957 2014"
    underline-thickness="50"
    underline-position="-125"
    unicode-range="U+0020-2133"
  />
<missing-glyph horiz-adv-x="1228" 
d="M140 0v1454h948v-1454h-948zM296 156h637v1143h-637v-1143z" />
    <glyph glyph-name=".notdef" horiz-adv-x="1228" 
d="M140 0v1454h948v-1454h-948zM296 156h637v1143h-637v-1143z" />
    <glyph glyph-name=".null" 
 />
    <glyph glyph-name="nonmarkingreturn" horiz-adv-x="682" 
 />
    <glyph glyph-name="space" unicode=" " horiz-adv-x="325" 
 />
    <glyph glyph-name="exclam" unicode="!" horiz-adv-x="425" 
d="M127 1454h171v-1104h-171v1104zM127 171h171v-171h-171v171z" />
    <glyph glyph-name="quotedbl" unicode="&#x22;" horiz-adv-x="671" 
d="M107 1454h171v-510h-171v510zM393 1454h171v-510h-171v510z" />
    <glyph glyph-name="numbersign" unicode="#" horiz-adv-x="1108" 
d="M807 1454h145l-247 -1454h-145zM414 1454h145l-247 -1454h-145zM1053 1102v-149h-909v149h909zM994 501v-148h-909v148h909z" />
    <glyph glyph-name="dollar" unicode="$" horiz-adv-x="1032" 
d="M305.5 18q-84.5 33 -137.5 102t-78 178v0l160 60v0q27 -109 90.5 -160t170.5 -51q122 0 186.5 56t64.5 164v55q0 69 -33 113.5t-84.5 70.5t-134.5 53q-1 1 -4 1.5t-5 1.5q-5 2 -11 3.5t-11 3.5q-116 37 -186.5 72.5t-120 108.5t-49.5 196v39q0 125 47 211t139.5 129.5
t226.5 43.5q105 0 179.5 -30.5t122.5 -93.5t73 -164v0l-156 -60v0q-27 97 -80 142t-139 45q-118 0 -180 -55t-62 -159v-43q0 -71 35.5 -114.5t88 -68t145.5 -53.5l10 -4t11 -3q4 -2 8 -3t9 -3q103 -34 171.5 -72t114 -112t45.5 -194v-57q0 -125 -47.5 -210t-141.5 -128.5
t-232 -43.5q-121 0 -205.5 33zM441 1631h165v-1808h-165v1808z" />
    <glyph glyph-name="percent" unicode="%" horiz-adv-x="1307" 
d="M928 1454h155l-715 -1454h-156zM822 47.5q-59 62.5 -59 173.5v165q0 112 59 174t168 62t168 -62t59 -176v-163q0 -112 -59.5 -174t-167.5 -62q-109 0 -168 62.5zM1051 143.5q22 23.5 22 67.5v187q0 43 -22 66t-61 23q-40 0 -61.5 -23t-21.5 -67v-186q0 -45 21.5 -68
t61.5 -23q39 0 61 23.5zM149 893.5q-59 62.5 -59 173.5v165q0 112 59 174t168 62t168.5 -62t59.5 -176v-163q0 -112 -60 -174t-168 -62q-109 0 -168 62.5zM378.5 989.5q21.5 23.5 21.5 67.5v187q0 43 -21.5 66t-61.5 23q-39 0 -61 -23t-22 -67v-186q0 -45 22 -68t61 -23
q40 0 61.5 23.5z" />
    <glyph glyph-name="ampersand" unicode="&#x26;" horiz-adv-x="1180" 
d="M447 594q-69 83 -115.5 162.5t-70.5 164t-24 175.5q0 179 90.5 274.5t259.5 95.5q168 0 258 -92.5t90 -267.5v-57h-170v57q0 95 -46 145t-132 50q-87 0 -133.5 -53t-46.5 -152q0 -67 20.5 -134t59.5 -133t98 -136l575 -693h-219zM335.5 576q-76.5 -67 -76.5 -189
q0 -120 71 -186.5t200 -66.5q118 0 201 69.5t126.5 203t43.5 322.5h160q0 -239 -64 -405t-191 -252.5t-314 -86.5q-126 0 -215 47.5t-135.5 137.5t-46.5 217q0 172 98 275t277 119l81 -138q-139 0 -215.5 -67z" />
    <glyph glyph-name="quotesingle" unicode="'" horiz-adv-x="325" 
d="M77 1454h171v-510h-171v510z" />
    <glyph glyph-name="parenleft" unicode="(" horiz-adv-x="580" 
d="M218.5 118.5q-76.5 239.5 -76.5 529.5t76.5 530t230.5 431l118 -90q-133 -177 -199 -394.5t-66 -476.5t66 -476.5t199 -395.5l-118 -89q-154 192 -230.5 431.5z" />
    <glyph glyph-name="parenright" unicode=")" horiz-adv-x="580" 
d="M12 -224q134 178 200 395.5t66 476.5t-66 476.5t-200 394.5l119 90q154 -191 230.5 -431t76.5 -530t-76.5 -529.5t-230.5 -431.5z" />
    <glyph glyph-name="asterisk" unicode="*" horiz-adv-x="719" 
d="M308 1165l99 77l202 -290l-106 -73zM109 952l202 290l100 -77l-195 -286zM33 1255l44 120l303 -112l-40 -120zM295 1567h129v-365h-129v365zM339 1263l303 112l43 -120l-306 -112z" />
    <glyph glyph-name="plus" unicode="+" horiz-adv-x="877" 
d="M787 750v-160h-692v160h692zM524 264h-166v812h166v-812z" />
    <glyph glyph-name="comma" unicode="," horiz-adv-x="395" 
d="M112 170h171v-170l-171 -168v338z" />
    <glyph glyph-name="hyphen" unicode="-" horiz-adv-x="857" 
d="M727 601v-160h-592v160h592z" />
    <glyph glyph-name="period" unicode="." horiz-adv-x="395" 
d="M112 171h171v-171h-171v171z" />
    <glyph glyph-name="slash" unicode="/" horiz-adv-x="663" 
d="M174 -276h-157l509 1902h157z" />
    <glyph glyph-name="zero" unicode="0" horiz-adv-x="990" 
d="M220.5 83q-95.5 98 -95.5 275v740q0 177 95.5 275t274.5 98q180 0 275 -97.5t95 -275.5v-740q0 -177 -95.5 -275t-274.5 -98t-274.5 98zM644.5 201q50.5 55 50.5 157v740q0 102 -50 157t-150 55q-99 0 -149 -55t-50 -157v-740q0 -102 50 -157t149 -55t149.5 55z" />
    <glyph glyph-name="one" unicode="1" horiz-adv-x="616" 
d="M476 0h-170v1288l-241 -149v178l206 137h205v-1454z" />
    <glyph glyph-name="two" unicode="2" horiz-adv-x="939" 
d="M108 144l438 649q56 87 86 168t30 144v2q0 96 -48 148t-137 52q-92 0 -145 -62.5t-60 -179.5v-2h-177v2q9 129 55.5 219.5t127.5 137.5t192 47q118 0 201 -42.5t126 -124t43 -197.5v-1q0 -82 -35.5 -181t-101.5 -201l-378 -561h518v-161h-735v144z" />
    <glyph glyph-name="three" unicode="3" horiz-adv-x="948" 
d="M251.5 27q-83.5 42 -127 128t-49.5 222v0h172v0q4 -80 28.5 -130.5t70 -74.5t115.5 -24q96 0 148.5 52.5t52.5 147.5v123q0 98 -49 151.5t-137 53.5h-103v160h103q77 0 119.5 45t42.5 127v124q0 83 -46.5 128.5t-131.5 45.5q-59 0 -99 -24t-62.5 -73.5t-28.5 -128.5v0
h-171v0q7 134 49.5 220t120.5 127.5t196 41.5q164 0 254 -88.5t90 -249.5v-119q0 -79 -43.5 -145.5t-122.5 -107.5q90 -28 140 -104t50 -189v-120q0 -114 -43.5 -195t-127 -123.5t-201.5 -42.5q-126 0 -209.5 42z" />
    <glyph glyph-name="four" unicode="4" horiz-adv-x="1025" 
d="M105 368l403 1085h176l-390 -1073h656v-157h-845v145zM667 854h167v-855h-167v855z" />
    <glyph glyph-name="five" unicode="5" horiz-adv-x="975" 
d="M296.5 26.5q-77.5 41.5 -120.5 123.5t-51 206v0h171v0q5 -105 53 -157t137 -52q92 0 142.5 55t50.5 154v274q0 98 -46.5 151.5t-131.5 53.5q-69 0 -118.5 -38.5t-72.5 -109.5h-153v767h666v-161h-495v-379q36 40 87 61.5t107 21.5q104 0 177.5 -43t112 -125.5
t38.5 -198.5v-274q0 -117 -42.5 -200.5t-124.5 -127t-197 -43.5q-112 0 -189.5 41.5z" />
    <glyph glyph-name="six" unicode="6" horiz-adv-x="921" 
d="M263 31.5q-82 46.5 -125 135.5t-43 214v94q0 84 19 161t57 166q6 14 12 27.5t12 26.5l277 598h186l-341 -725l-21 36q33 47 84.5 73t112.5 26q105 0 180 -44t114 -128t39 -202v-105q0 -126 -43 -216t-125 -137t-198 -47q-115 0 -197 46.5zM605 206q51 58 51 164v102
q0 111 -52.5 171.5t-148.5 60.5q-90 0 -139.5 -61t-49.5 -172v-102q0 -106 51 -163.5t143 -57.5q94 0 145 58z" />
    <glyph glyph-name="seven" unicode="7" horiz-adv-x="906" 
d="M801 1302l-350 -1302h-181l355 1294h-369v-218h-171v378h716v-152z" />
    <glyph glyph-name="eight" unicode="8" horiz-adv-x="997" 
d="M291.5 28q-85.5 43 -131 123.5t-45.5 191.5v126q0 96 46 174.5t128 121.5q-70 38 -109.5 104.5t-39.5 146.5v110q0 106 42.5 183.5t122.5 118.5t191 41q112 0 193.5 -41t124.5 -118t43 -184v-110q0 -81 -40 -148t-111 -103q83 -43 129.5 -121.5t46.5 -174.5v-126
q0 -111 -46 -191.5t-133 -123.5t-207 -43q-119 0 -204.5 43zM611.5 171.5q48.5 24.5 74 71t25.5 110.5v129q0 60 -25.5 103t-74 66t-115.5 23q-65 0 -112.5 -23t-72.5 -66.5t-25 -103.5v-130q0 -64 25 -109.5t72.5 -70t112.5 -24.5q67 0 115.5 24.5zM599 854q43 23 66 66.5
t23 103.5v87q0 61 -23 105t-66 67.5t-103 23.5q-58 0 -100 -23.5t-64.5 -67.5t-22.5 -106v-88q0 -59 22.5 -102t64.5 -66t100 -23q60 0 103 23z" />
    <glyph glyph-name="nine" unicode="9" horiz-adv-x="921" 
d="M604 724l21 -36q-29 -47 -79.5 -70.5t-112.5 -23.5q-104 0 -180 45t-117 128.5t-41 196.5v104q0 127 43 217t125.5 137t197.5 47q116 0 198 -47t124.5 -137t42.5 -217v-94q0 -82 -19.5 -159t-57.5 -166q-6 -13 -12 -26.5t-12 -26.5l-273 -596h-186zM605 813q51 59 51 165
v102q0 108 -51 167t-144 59t-144 -59t-51 -168v-102q0 -106 51 -164.5t144 -58.5t144 59z" />
    <glyph glyph-name="colon" unicode=":" horiz-adv-x="395" 
d="M112 171h171v-171h-171v171zM112 1020h171v-171h-171v171z" />
    <glyph glyph-name="semicolon" unicode=";" horiz-adv-x="395" 
d="M112 170h171v-170l-171 -168v338zM112 1020h171v-171h-171v171z" />
    <glyph glyph-name="less" unicode="&#x3c;" horiz-adv-x="709" 
d="M318 666h-288l589 396v-205zM619 269l-589 397h288l301 -190v-207z" />
    <glyph glyph-name="equal" unicode="=" horiz-adv-x="755" 
d="M95 910h570v-161h-570v161zM95 583h570v-160h-570v160z" />
    <glyph glyph-name="greater" unicode="&#x3e;" horiz-adv-x="714" 
d="M95 1062l589 -396h-288l-301 191v205zM396 666h288l-589 -397v207z" />
    <glyph glyph-name="question" unicode="?" horiz-adv-x="798" 
d="M313.5 566q22.5 91 54 151t81.5 134q35 52 55.5 87.5t33.5 78.5t13 95v0q0 95 -44 147t-124 52q-88 0 -132.5 -65t-44.5 -195v0h-174v0q2 140 41.5 232.5t116.5 139t191 46.5q110 0 187.5 -42t118 -122.5t40.5 -193.5v-1q0 -72 -16 -128.5t-39.5 -97t-64.5 -97.5
q-48 -66 -77 -117.5t-49 -130t-20 -186.5h-170q0 122 22.5 213zM291 171h170v-171h-170v171z" />
    <glyph glyph-name="at" unicode="@" horiz-adv-x="1625" 
d="M543.5 83q-73.5 98 -73.5 295v297q0 190 85.5 284t258.5 94q171 0 256 -94t85 -285v-408l-103 -50q-18 -114 -90 -172.5t-196 -58.5q-149 0 -222.5 98zM949.5 193.5q45.5 58.5 45.5 176.5v316q0 109 -45.5 163t-137.5 54q-182 0 -182 -218v-315q0 -118 45 -176.5
t137 -58.5t137.5 58.5zM435 -308.5q-154 73.5 -232 219t-78 361.5v239t1 238q1 228 79 382t232 231.5t380 77.5q222 0 374.5 -78t230.5 -232t78 -381v-456q0 -155 -65 -231.5t-187 -76.5q-121 0 -182.5 65t-61.5 192l151 48q0 -82 24.5 -123.5t72.5 -41.5q50 0 73.5 37.5
t23.5 116.5v470q0 181 -61 304t-180 185t-291 62q-177 0 -297 -62t-181.5 -184.5t-62.5 -304.5q-1 -117 -1 -236.5v-240.5q0 -168 61 -281t181.5 -170.5t299.5 -57.5h298v-145h-298q-228 0 -382 73.5z" />
    <glyph glyph-name="A" unicode="A" horiz-adv-x="1116" 
d="M471 1454h174l436 -1454h-186l-337 1231l-337 -1231h-186zM259 496h614v-160h-614v160z" />
    <glyph glyph-name="B" unicode="B" horiz-adv-x="1091" 
d="M260 159h329q117 0 174 48.5t57 136.5v113q0 68 -24 116.5t-71 74t-116 25.5h-349v158h349q94 0 143 50t49 145v89q0 89 -52.5 134.5t-152.5 45.5h-336v159h351q117 0 198 -40t122 -114t41 -178v-87q0 -72 -24 -131t-72 -99.5t-117 -54.5q72 -11 124.5 -53.5t80 -107.5
t27.5 -145v-107q0 -103 -43 -179t-124 -117t-191 -41h-373v159zM140 1454h170v-1454h-170v1454z" />
    <glyph glyph-name="C" unicode="C" horiz-adv-x="1061" 
d="M323 40q-95 55 -146.5 158.5t-51.5 243.5v569q0 141 51.5 244t146.5 158.5t224 55.5q122 0 213 -50t144 -146t62 -230v0h-172v0q-8 82 -41 141t-86 90t-120 31q-76 0 -132.5 -35.5t-87 -102t-30.5 -156.5v-569q0 -90 30.5 -156t87 -101.5t132.5 -35.5q68 0 120.5 30.5
t85.5 89t41 142.5v0h172v0q-9 -134 -62 -230t-144 -146t-213 -50q-129 0 -224 55z" />
    <glyph glyph-name="D" unicode="D" horiz-adv-x="1114" 
d="M259 161h319q117 0 178 60t61 174v665q0 114 -61 174t-178 60h-319v160h313q135 0 228 -46t141 -136t48 -220v-650q0 -130 -48 -219.5t-141.5 -136t-228.5 -46.5h-312v161zM140 1454h171v-1454h-171v1454z" />
    <glyph glyph-name="E" unicode="E" horiz-adv-x="999" 
d="M140 1454h171v-1454h-171v1454zM239 161h680v-161h-680v161zM239 802h600v-160h-600v160zM239 1454h680v-160h-680v160z" />
    <glyph glyph-name="F" unicode="F" horiz-adv-x="950" 
d="M140 1454h171v-1454h-171v1454zM240 789h590v-160h-590v160zM240 1454h670v-160h-670v160z" />
    <glyph glyph-name="G" unicode="G" horiz-adv-x="1114" 
d="M989 773v-329q0 -145 -50.5 -248.5t-146.5 -157t-232 -53.5q-138 0 -235.5 50.5t-148.5 147.5t-51 234v594q0 145 50.5 248t146.5 156.5t232 53.5q129 0 219.5 -49t142 -145.5t61.5 -238.5v0h-184v0q-8 89 -38.5 149t-81 90t-119.5 30q-82 0 -139.5 -34.5t-87.5 -100.5
t-30 -159v-594q0 -85 30.5 -145t90 -91.5t142.5 -31.5q81 0 138 33.5t87 98t30 159.5v172h-255v161h429z" />
    <glyph glyph-name="H" unicode="H" horiz-adv-x="1130" 
d="M820 1454h170v-1454h-170v1454zM140 1454h171v-1454h-171v1454zM260 798h641v-162h-641v162z" />
    <glyph glyph-name="I" unicode="I" horiz-adv-x="475" 
d="M323 0h-171v1454h171v-1454z" />
    <glyph glyph-name="J" unicode="J" horiz-adv-x="880" 
d="M160 27.5q-86 42.5 -140 119.5l127 106q36 -50 91 -77.5t120 -27.5q101 0 156.5 64.5t55.5 181.5v1060h170v-1062q0 -128 -46 -219.5t-133.5 -139.5t-211.5 -48q-103 0 -189 42.5z" />
    <glyph glyph-name="K" unicode="K" horiz-adv-x="1094" 
d="M265 583l569 871h202l-765 -1127zM140 1454h171v-1454h-171v1454zM517 776l116 149l456 -925h-202z" />
    <glyph glyph-name="L" unicode="L" horiz-adv-x="964" 
d="M140 1454h171v-1454h-171v1454zM242 161h667v-161h-667v161z" />
    <glyph glyph-name="M" unicode="M" horiz-adv-x="1366" 
d="M1064 1454h162v-1454h-164v1152l13 -64l-331 -877h-122l-331 857l15 84v-1152h-166v1454h164l379 -996z" />
    <glyph glyph-name="N" unicode="N" horiz-adv-x="1174" 
d="M140 1454h158l603 -1186l-34 -9v1195h167v-1453h-160l-606 1175l39 6v-1181h-167v1453z" />
    <glyph glyph-name="O" unicode="O" horiz-adv-x="1122" 
d="M327.5 39q-98.5 54 -150.5 155.5t-52 241.5v582q0 141 52 242.5t150.5 155t233.5 53.5q136 0 234 -53.5t150 -155t52 -242.5v-582q0 -140 -52 -241.5t-150 -155.5t-234 -54q-135 0 -233.5 54zM702.5 183.5q59.5 33.5 91 96t31.5 149.5v596q0 87 -31.5 149.5t-91 96
t-141.5 33.5t-141.5 -33.5t-91 -96t-31.5 -149.5v-596q0 -87 31.5 -149.5t91 -96t141.5 -33.5t141.5 33.5z" />
    <glyph glyph-name="P" unicode="P" horiz-adv-x="1085" 
d="M245 725h379q58 0 102 26.5t67.5 76.5t23.5 116v127q0 68 -23.5 118t-67 77.5t-102.5 27.5h-379v160h373q113 0 197 -46.5t129.5 -133t45.5 -203.5v-129q0 -115 -45.5 -200.5t-129.5 -131.5t-197 -46h-373v161zM140 1454h171v-1454h-171v1454z" />
    <glyph glyph-name="Q" unicode="Q" horiz-adv-x="1141" 
d="M554 337l94 118l482 -371l-94 -119zM327.5 39q-98.5 54 -150.5 155.5t-52 241.5v582q0 141 52 242.5t150.5 155t233.5 53.5q136 0 234 -53.5t150 -155t52 -242.5v-582q0 -140 -52 -241.5t-150 -155.5t-234 -54q-135 0 -233.5 54zM702.5 183.5q59.5 33.5 91 96t31.5 149.5
v596q0 87 -31.5 149.5t-91 96t-141.5 33.5t-141.5 -33.5t-91 -96t-31.5 -149.5v-596q0 -87 31.5 -149.5t91 -96t141.5 -33.5t141.5 33.5z" />
    <glyph glyph-name="R" unicode="R" horiz-adv-x="1130" 
d="M229 776h382q64 0 111.5 26.5t73 76t25.5 116.5v75q0 68 -25.5 119t-72.5 78.5t-112 27.5h-382v160h372q120 0 209 -45t136.5 -130t47.5 -200v-85q0 -116 -48 -202t-136.5 -132t-208.5 -46h-372v161zM140 1455h171v-1455h-171v1455zM582 660l161 46l302 -706h-197z" />
    <glyph glyph-name="S" unicode="S" horiz-adv-x="1072" 
d="M325.5 18q-89.5 33 -149.5 100.5t-86 168.5v0l162 66v0q29 -104 101.5 -155.5t177.5 -51.5q131 0 201.5 57t70.5 162v54q0 71 -35.5 116.5t-90.5 71t-145 52.5q-2 1 -4.5 2t-5.5 1l-19 7q-122 36 -197 71.5t-128 109.5t-53 199v39q0 122 50.5 207.5t147.5 129.5t236 44
q105 0 184 -32t131.5 -96t78.5 -161v0l-158 -67v0q-30 98 -89 146.5t-147 48.5q-128 0 -196.5 -56t-68.5 -160v-41q0 -71 38.5 -115.5t96 -69.5t157.5 -54q4 -1 8 -2.5t8 -2.5t9 -2.5t9 -3.5q110 -33 182.5 -71t121 -112t48.5 -194v-57q0 -123 -51 -208.5t-150 -129.5
t-240 -44q-116 0 -205.5 33z" />
    <glyph glyph-name="T" unicode="T" horiz-adv-x="846" 
d="M338 1350h170v-1350h-170v1350zM-10 1454h866v-160h-866v160z" />
    <glyph glyph-name="U" unicode="U" horiz-adv-x="1092" 
d="M314.5 35q-93.5 50 -141.5 148t-48 241v1030h171v-1037q0 -130 63 -197.5t186 -67.5q124 0 188 67.5t64 197.5v1037h170v-1030q0 -143 -48 -241t-142 -148t-232 -50q-137 0 -230.5 50z" />
    <glyph glyph-name="V" unicode="V" horiz-adv-x="1002" 
d="M20 1454h181l300 -1199l300 1199h181l-391 -1454h-180z" />
    <glyph glyph-name="W" unicode="W" horiz-adv-x="1444" 
d="M660 1454h124l249 -1201l212 1201h179l-291 -1454h-190l-215 1054l-226 -1054h-191l-291 1454h179l212 -1201z" />
    <glyph glyph-name="X" unicode="X" horiz-adv-x="982" 
d="M454 646l-31 49l-401 759h187l304 -600l31 -52l428 -802h-187zM446 825l317 629h187l-411 -783l-342 -671h-187z" />
    <glyph glyph-name="Y" unicode="Y" horiz-adv-x="875" 
d="M525 600v-600h-170v600l-380 854h181l284 -671l279 671h181z" />
    <glyph glyph-name="Z" unicode="Z" horiz-adv-x="929" 
d="M839 1314l-546 -1156h561v-158h-754v140l551 1156h-533v158h721v-140z" />
    <glyph glyph-name="bracketleft" unicode="[" horiz-adv-x="512" 
d="M155 1626h160v-1952h-160v1952zM248 -175h249v-151h-249v151zM248 1626h249v-150h-249v150z" />
    <glyph glyph-name="backslash" unicode="\" horiz-adv-x="663" 
d="M137 1626l509 -1902h-158l-509 1902h158z" />
    <glyph glyph-name="bracketright" unicode="]" horiz-adv-x="512" 
d="M197 1626h160v-1952h-160v1952zM15 -175h250v-151h-250v151zM15 1626h250v-150h-250v150z" />
    <glyph glyph-name="asciicircum" unicode="^" horiz-adv-x="885" 
d="M445 1281v278l360 -559h-190zM85 1000l360 559v-278l-170 -281h-190z" />
    <glyph glyph-name="underscore" unicode="_" horiz-adv-x="777" 
d="M757 -10v-160h-737v160h737z" />
    <glyph glyph-name="grave" unicode="`" horiz-adv-x="498" 
d="M51 1568l131 101l266 -355l-112 -82z" />
    <glyph glyph-name="a" unicode="a" horiz-adv-x="963" 
d="M668 709q0 94 -50.5 145.5t-142.5 51.5q-66 0 -116.5 -31t-75.5 -87l-144 43q29 107 117 165.5t219 58.5q113 0 193.5 -40.5t122.5 -117t42 -184.5v-713h-165v709zM184.5 62q-81.5 77 -81.5 229q0 163 84.5 245.5t250.5 82.5h239l14 -143h-252q-86 0 -130 -46.5
t-44 -138.5q0 -80 48.5 -120.5t143.5 -40.5q104 0 157.5 35.5t53.5 105.5l21 -116q-15 -56 -49.5 -94t-88.5 -57t-125 -19q-160 0 -241.5 77z" />
    <glyph glyph-name="b" unicode="b" horiz-adv-x="969" 
d="M390 30.5q-69 45.5 -98 132.5l14 188q0 -63 22.5 -111.5t65 -75.5t101.5 -27q93 0 144 60t51 168v310q0 108 -51 168t-144 60q-59 0 -101.5 -26.5t-65 -74t-22.5 -108.5l-21 171q41 92 114.5 141t164.5 49q93 0 159.5 -44.5t101 -129t34.5 -204.5v-314q0 -119 -35.5 -204
t-104.5 -129.5t-165 -44.5q-95 0 -164 45.5zM135 1454h171v-1454h-171v1454z" />
    <glyph glyph-name="c" unicode="c" horiz-adv-x="896" 
d="M284 29q-85 44 -129.5 129t-44.5 207v304q0 123 44.5 209.5t129.5 131t208 44.5q98 0 170 -30t116.5 -89t59.5 -145v0l-161 -50v0q-17 76 -63.5 115.5t-118.5 39.5q-104 0 -159 -58.5t-55 -167.5v-304q0 -106 55 -163t159 -57q74 0 121.5 37.5t64.5 110.5v0l158 -52v0
q-15 -83 -59.5 -141t-117 -86.5t-170.5 -28.5q-123 0 -208 44z" />
    <glyph glyph-name="d" unicode="d" horiz-adv-x="964" 
d="M664 1454h170v-1454h-170v1454zM248.5 26q-67.5 43 -103 125t-35.5 198v334q0 118 35 201.5t101.5 127t160.5 43.5q89 0 161 -47t117 -137l-21 -176q0 61 -22.5 108t-65 73t-102.5 26q-92 0 -142.5 -58.5t-50.5 -165.5v-327q0 -102 50.5 -158.5t142.5 -56.5
q59 0 102 26.5t65.5 73t22.5 107.5l14 -180q-32 -86 -100.5 -133t-165.5 -47q-96 0 -163.5 43z" />
    <glyph glyph-name="e" unicode="e" horiz-adv-x="950" 
d="M287.5 32.5q-86.5 47.5 -132 138t-45.5 219.5v239q0 135 44 230t127.5 145t201.5 50q114 0 195 -50t123.5 -145t42.5 -230v-180h-617v147h453v60q0 115 -52 178.5t-145 63.5q-100 0 -155 -67.5t-55 -190.5v-255q0 -114 58.5 -177t164.5 -63q68 0 114.5 33t64.5 94v0
l157 -50v0q-29 -115 -115.5 -176t-220.5 -61q-122 0 -208.5 47.5z" />
    <glyph glyph-name="f" unicode="f" horiz-adv-x="584" 
d="M163 1179q0 136 64 205.5t190 69.5h137v-160h-127q-46 0 -69.5 -30t-23.5 -84v-1180h-171v1179zM55 1038h499v-150h-499v150z" />
    <glyph glyph-name="g" unicode="g" horiz-adv-x="964" 
d="M228.5 -358.5q-84.5 63.5 -103.5 183.5v0l157 48v0q15 -69 61 -106.5t116 -37.5q98 0 151.5 54.5t53.5 155.5v1099h170v-1087q0 -118 -44.5 -201.5t-130 -127.5t-206.5 -44q-140 0 -224.5 63.5zM248.5 26q-67.5 43 -103 125t-35.5 197v335q0 117 35 200.5t101.5 127.5
t160.5 44q89 0 161.5 -47t116.5 -138l-21 -174q0 62 -22.5 109t-65 73t-101.5 26q-93 0 -144 -59t-51 -165v-331q0 -102 51 -158t144 -56q58 0 101 26t65.5 73t22.5 108l14 -179q-32 -86 -100.5 -133t-165.5 -47q-96 0 -163.5 43z" />
    <glyph glyph-name="h" unicode="h" horiz-adv-x="999" 
d="M135 1454h171v-1454h-171v1454zM699 678q0 106 -51 161.5t-148 55.5q-95 0 -144.5 -53t-49.5 -155l-21 180q43 94 116 141t168 47q146 0 223 -93.5t77 -269.5v-692h-170v678z" />
    <glyph glyph-name="i" unicode="i" horiz-adv-x="460" 
d="M147 1437h171v-171h-171v171zM147 1038h171v-1038h-171v1038z" />
    <glyph glyph-name="j" unicode="j" horiz-adv-x="488" 
d="M10 -261h84q44 0 68.5 29.5t24.5 83.5v1186h170v-1185q0 -131 -63.5 -203t-179.5 -72h-104v161zM186 1450h172v-185h-172v185z" />
    <glyph glyph-name="k" unicode="k" horiz-adv-x="953" 
d="M228 362l497 676h192l-696 -891zM135 1454h171v-1454h-171v1454zM469 563l102 138l392 -701h-192z" />
    <glyph glyph-name="l" unicode="l" horiz-adv-x="533" 
d="M306 272q0 -53 24.5 -83t68.5 -30h79v-160h-100q-116 0 -179.5 72t-63.5 203v1180h171v-1182z" />
    <glyph glyph-name="m" unicode="m" horiz-adv-x="1519" 
d="M1219 678q0 106 -49.5 161.5t-143.5 55.5q-87 0 -133 -56.5t-46 -163.5l-42 156q39 109 113 166.5t170 57.5q97 0 164.5 -42t102 -123t34.5 -198v-692h-170v678zM135 1038h171v-1038h-171v1038zM677 678q0 106 -46 161.5t-134 55.5q-93 0 -142 -54t-49 -156l-21 175
q42 98 113.5 146.5t164.5 48.5q91 0 155 -42t96.5 -123t32.5 -197v-693h-170v678z" />
    <glyph glyph-name="n" unicode="n" horiz-adv-x="999" 
d="M135 1038h171v-1038h-171v1038zM699 678q0 106 -51 161.5t-148 55.5q-95 0 -144.5 -53.5t-49.5 -155.5l-21 175q43 97 116 145.5t168 48.5q146 0 223 -93.5t77 -269.5v-692h-170v678z" />
    <glyph glyph-name="o" unicode="o" horiz-adv-x="946" 
d="M277.5 29.5q-81.5 44.5 -124.5 129t-43 203.5v321q0 117 43 200.5t124.5 127.5t196.5 44q114 0 195.5 -44t124 -127.5t42.5 -200.5v-324q0 -118 -42.5 -202t-124 -128t-195.5 -44q-115 0 -196.5 44.5zM615.5 203q50.5 56 50.5 158v320q0 101 -51 156.5t-142 55.5
q-92 0 -142 -55.5t-50 -156.5v-320q0 -102 50 -158t142 -56t142.5 56z" />
    <glyph glyph-name="p" unicode="p" horiz-adv-x="969" 
d="M135 1038h171v-1460h-171v1460zM390 30.5q-69 45.5 -98 132.5l14 188q0 -63 22.5 -111.5t65 -75.5t101.5 -27q93 0 144 60t51 168v310q0 108 -51 168t-144 60q-59 0 -101.5 -26.5t-65 -74t-22.5 -108.5l-21 171q41 93 114.5 141.5t164.5 48.5q93 0 159.5 -44.5t101 -129
t34.5 -204.5v-314q0 -119 -35.5 -204t-104 -129.5t-165.5 -44.5q-95 0 -164 45.5z" />
    <glyph glyph-name="q" unicode="q" horiz-adv-x="964" 
d="M664 1038h170v-1460h-170v1460zM248.5 26q-67.5 43 -103 125t-35.5 198v334q0 118 35 201.5t101.5 127t160.5 43.5q89 0 161.5 -47t116.5 -137l-21 -176q0 61 -22.5 108t-65 73t-102.5 26q-92 0 -142.5 -58.5t-50.5 -165.5v-327q0 -102 50.5 -158.5t142.5 -56.5
q59 0 102 26.5t65.5 73t22.5 107.5l14 -180q-32 -86 -100.5 -133t-165.5 -47q-96 0 -163.5 43z" />
    <glyph glyph-name="r" unicode="r" horiz-adv-x="757" 
d="M135 1038h171v-1038h-171v1038zM626 883.5q-25 8.5 -58 8.5q-122 0 -191 -62.5t-71 -173.5l-21 201q53 94 138 146t187 52q36 0 64.5 -10.5t50.5 -30.5l-57 -156q-17 17 -42 25.5z" />
    <glyph glyph-name="s" unicode="s" horiz-adv-x="866" 
d="M256 12q-76 27 -126 80.5t-75 132.5v0l147 66v0q36 -78 94 -117t136 -39q105 0 161 42.5t56 122.5q0 51 -29 80.5t-72.5 42.5t-120.5 26q-6 2 -12 3l-12 2q-4 1 -7 1t-6 1q-92 17 -155 42t-105 83.5t-42 161.5q0 101 40.5 170.5t119.5 105t192 35.5q91 0 159.5 -23.5
t115.5 -71.5t72 -119v0l-148 -66v0q-32 64 -82.5 97.5t-117.5 33.5q-93 0 -141 -40.5t-48 -117.5q0 -52 29 -79.5t73.5 -40.5t122.5 -25h4t4 -1q3 0 5.5 -0.5t4.5 -0.5q97 -16 162.5 -40.5t110.5 -86t45 -173.5q0 -102 -44 -172.5t-128 -106.5t-207 -36q-100 0 -176 27z" />
    <glyph glyph-name="t" unicode="t" horiz-adv-x="603" 
d="M220.5 64.5q-58.5 69.5 -58.5 205.5v1070h170v-1071q0 -55 24 -84t70 -29h87v-161h-108q-126 0 -184.5 69.5zM55 1038h458v-155h-458v155z" />
    <glyph glyph-name="u" unicode="u" horiz-adv-x="987" 
d="M687 1038h170v-1038h-170v1038zM305 344q0 -94 50 -145.5t142 -51.5t141 48t49 139l14 -174q-32 -81 -99 -128t-166 -47q-145 0 -223 93t-78 264v696h170v-694z" />
    <glyph glyph-name="v" unicode="v" horiz-adv-x="909" 
d="M693 1038h176l-342 -1038h-138l-344 1038h176l237 -797z" />
    <glyph glyph-name="w" unicode="w" horiz-adv-x="1374" 
d="M60 1038h171l183 -797l218 797h115l218 -797l183 797h171l-282 -1038h-141l-206 732l-207 -732h-141z" />
    <glyph glyph-name="x" unicode="x" horiz-adv-x="932" 
d="M410 476l-349 562h189l266 -465l371 -573h-188zM406 569l84 -150l-255 -419h-187zM455 625l227 413h189l-340 -556z" />
    <glyph glyph-name="y" unicode="y" horiz-adv-x="879" 
d="M859 1038l-384 -1281q-21 -67 -59 -109t-97 -61.5t-143 -19.5h-30v162h30q73 0 114.5 32.5t64.5 104.5l330 1172h174zM45 1038h174l281 -912l-85 -206z" />
    <glyph glyph-name="z" unicode="z" horiz-adv-x="868" 
d="M756 896l-448 -737h475v-159h-678v146l461 733h-447v159h637v-142z" />
    <glyph glyph-name="braceleft" unicode="{" horiz-adv-x="628" 
d="M105 740q71 0 110 33.5t39 94.5v488q0 159 86 246t243 87v-160q-76 0 -118 -39.5t-42 -110.5v-517q0 -134 -83 -207.5t-235 -73.5v159zM340 -307q-86 86 -86 243v492q0 62 -39 96t-110 34v160q152 0 235 -76.5t83 -216.5v-507q0 -72 42 -111.5t118 -39.5v-160
q-157 0 -243 86z" />
    <glyph glyph-name="bar" unicode="|" horiz-adv-x="477" 
d="M153 1626h171v-1798h-171v1798z" />
    <glyph glyph-name="braceright" unicode="}" horiz-adv-x="628" 
d="M288.5 646.5q-83.5 73.5 -83.5 208.5v524q0 71 -42 110.5t-118 39.5v160q157 0 243 -87t86 -246v-495q0 -61 39 -94.5t110 -33.5v-160q-151 0 -234.5 73.5zM45 -233q77 0 118.5 39.5t41.5 111.5v514q0 140 83 217t235 77v-160q-71 0 -110 -34.5t-39 -96.5v-499
q0 -157 -86 -243t-243 -86v160z" />
    <glyph glyph-name="asciitilde" unicode="~" horiz-adv-x="855" 
d="M507.5 552.5q-38.5 17.5 -83.5 48.5l-20 13q-36 25 -61.5 38t-50.5 13q-28 0 -41.5 -23t-13.5 -67v-38h-142v51q0 115 44 175t129 60q46 0 82.5 -18t84.5 -52q4 -2 7.5 -4.5t6.5 -4.5q2 -1 3 -2t3 -2q37 -25 60 -37t47 -12q30 0 45.5 24.5t15.5 71.5v44h142v-58
q0 -117 -44.5 -177.5t-130.5 -60.5q-44 0 -82.5 17.5z" />
    <glyph glyph-name="uni00A0" unicode="&#xa0;" horiz-adv-x="325" 
 />
    <glyph glyph-name="exclamdown" unicode="&#xa1;" horiz-adv-x="425" 
d="M127 688h171v-1104h-171v1104zM298 1038v-170h-171v170h171z" />
    <glyph glyph-name="cent" unicode="&#xa2;" horiz-adv-x="876" 
d="M277.5 28q-82.5 43 -125 128t-42.5 209v303q0 125 42.5 211t125 130t204.5 44q96 0 166.5 -29.5t113 -88.5t56.5 -146v0l-159 -49v0q-15 76 -60.5 114.5t-117.5 38.5q-99 0 -150 -57.5t-51 -167.5v-303q0 -113 51 -171.5t150 -58.5q73 0 119.5 38.5t61.5 114.5v0l157 -48
v0q-14 -84 -57 -141t-113 -85.5t-167 -28.5q-122 0 -204.5 43zM390 1215h172v-1392h-172v1392z" />
    <glyph glyph-name="sterling" unicode="&#xa3;" horiz-adv-x="1035" 
d="M171 208.5q30 48.5 30 140.5v739q0 121 44.5 206.5t130 130t205.5 44.5t205 -45t129 -131t44 -207v-62h-170v62q0 106 -55 164.5t-154 58.5t-154 -58t-55 -163v-739q0 -125 -73.5 -190t-215.5 -65v66q59 0 89 48.5zM960 0h-885v160h885v-160zM742 701v-143h-645v143h645z
" />
    <glyph glyph-name="currency" unicode="&#xa4;" horiz-adv-x="1079" 
d="M339.5 342.5q-83.5 47.5 -127 140t-43.5 223.5q0 129 43.5 221t127 140.5t201.5 48.5q119 0 202.5 -48.5t127 -140.5t43.5 -223q0 -192 -96.5 -298t-276.5 -109q-118 -2 -201.5 45.5zM702.5 508q56.5 69 56.5 196q0 129 -56.5 199.5t-162.5 70.5q-105 0 -161 -70.5
t-56 -199.5q0 -127 56 -196t161 -69q106 0 162.5 69zM102 354l169 168l123 -112l-176 -174zM102 1058l116 118l175 -174l-116 -118zM686 410l114 120l178 -176l-117 -118zM695 1011l166 165l117 -118l-174 -172z" />
    <glyph glyph-name="yen" unicode="&#xa5;" horiz-adv-x="875" 
d="M131 491h614v-109h-614v109zM131 263h614v-109h-614v109zM525 600v-600h-170v600l-380 854h181l284 -671l279 671h181z" />
    <glyph glyph-name="brokenbar" unicode="&#xa6;" horiz-adv-x="477" 
d="M153 1626h171v-711h-171v711zM153 517h171v-689h-171v689z" />
    <glyph glyph-name="section" unicode="&#xa7;" horiz-adv-x="1066" 
d="M569 419q115 3 179 50t64 130q0 59 -29.5 96t-77.5 58t-121 39q-13 3 -27 7t-28 7q-121 28 -195 57.5t-126 95.5t-52 181q0 103 44 177t128.5 113t202.5 39q91 0 167 -25.5t130.5 -73t83.5 -113.5l-143 -65q-36 57 -96.5 88t-134.5 31q-101 0 -157.5 -44t-56.5 -123
q0 -58 34.5 -93.5t86.5 -54t144 -40.5q16 -4 33 -8.5t34 -9.5q99 -26 167 -60t113 -101.5t45 -177.5q0 -89 -39.5 -155.5t-114.5 -107t-181 -50.5zM336.5 -178.5q-79.5 26.5 -135.5 78t-82 121.5l129 65q42 -63 112.5 -98t157.5 -35q112 0 174.5 43.5t62.5 121.5
q0 54 -33.5 88.5t-86.5 53.5t-140 38l-49 11l-16 4t-16 3q-98 23 -166.5 56t-113 96t-44.5 164q0 99 44 171t128 111.5t201 43.5l93 -144q-7 2 -14.5 3.5t-15.5 2.5q-5 1 -10.5 1t-11.5 1q-117 0 -181 -47.5t-64 -136.5q0 -54 30.5 -88.5t79.5 -54t127 -37.5l13 -3
q7 -2 14.5 -3.5t15.5 -2.5q120 -27 197 -57.5t130.5 -96t53.5 -177.5q0 -101 -48.5 -174t-140 -111t-218.5 -38q-97 0 -176.5 26.5z" />
    <glyph glyph-name="dieresis" unicode="&#xa8;" horiz-adv-x="665" 
d="M424 1422h171v-171h-171v171zM72 1422h170v-171h-170v171z" />
    <glyph glyph-name="copyright" unicode="&#xa9;" horiz-adv-x="1310" 
d="M356 402.5q-124 63.5 -190 184.5t-66 291v149q0 173 65.5 295.5t189.5 187t300 64.5t300.5 -64.5t189.5 -187t65 -295.5v-149q0 -170 -65.5 -291t-190 -184.5t-299.5 -63.5t-299 63.5zM469 702.5q-70 71.5 -70 201.5v118q0 128 70 199t197 71q99 0 158 -49t75 -143v0
l-120 -47v0q-12 50 -40.5 76t-71.5 26q-59 0 -91.5 -35t-32.5 -98v-118q0 -67 32.5 -103t91.5 -36q45 0 74 27.5t43 82.5v0l120 -48v0q-18 -96 -78 -146t-160 -50q-127 0 -197 71.5zM884.5 517.5q95.5 48.5 145.5 140t50 220.5v149q0 135 -50 231t-145 146t-230 50
q-134 0 -229.5 -50t-145.5 -146t-50 -231v-149q0 -129 50.5 -220.5t145.5 -140t229 -48.5t229.5 48.5z" />
    <glyph glyph-name="ordfeminine" unicode="&#xaa;" horiz-adv-x="640" 
d="M423 1237q0 46 -25 71t-67 25q-40 0 -64.5 -15t-41.5 -51l-119 36q22 86 80 122t148 36q107 0 166.5 -54t59.5 -160v-416h-137v406zM135 874.5q-50 50.5 -50 141.5q0 88 56 137t157 49h142l7 -115h-132q-43 0 -66.5 -20t-23.5 -56q0 -35 23 -54.5t65 -19.5
q53 0 81.5 22.5t28.5 62.5l23 -112q-22 -40 -66.5 -63t-103.5 -23q-91 0 -141 50.5z" />
    <glyph glyph-name="guillemotleft" unicode="&#xab;" horiz-adv-x="955" 
d="M719 878h196l-273 -358h-196zM48 520h196l273 -357h-196zM321 878h196l-273 -358h-196zM446 520h196l273 -357h-196z" />
    <glyph glyph-name="logicalnot" unicode="&#xac;" horiz-adv-x="895" 
d="M95 860h710v-159h-710v159zM636 792h169v-348h-169v348z" />
    <glyph glyph-name="uni00AD" unicode="&#xad;" horiz-adv-x="857" 
d="M727 601v-160h-592v160h592z" />
    <glyph glyph-name="registered" unicode="&#xae;" horiz-adv-x="1310" 
d="M355.5 402.5q-124.5 63.5 -190 184.5t-65.5 291v149q0 173 65.5 296t189.5 187t300 64t300.5 -64t189.5 -187t65 -296v-149q0 -170 -65 -291t-190 -184.5t-300 -63.5t-299.5 63.5zM438 1271h129v-623h-129v623zM659 883l104 62l148 -296h-143zM884 517.5
q95 48.5 145.5 140t50.5 220.5v149q0 135 -50 231t-145.5 146t-229.5 50t-229.5 -50t-145.5 -146t-50 -231v-149q0 -129 50 -221t145.5 -140t229.5 -48t229 48.5zM535 962h143q43 0 68 25.5t25 72.5q0 48 -25 73t-68 25h-143v113h139q109 0 167.5 -57.5t58.5 -153.5
q0 -94 -59 -152.5t-167 -58.5h-139v113z" />
    <glyph glyph-name="macron" unicode="&#xaf;" horiz-adv-x="710" 
d="M670 1417v-167h-630v167h630z" />
    <glyph glyph-name="degree" unicode="&#xb0;" horiz-adv-x="651" 
d="M126.5 947.5q-66.5 74.5 -66.5 223.5q0 150 66.5 224t199.5 74t199 -74.5t66 -224.5q0 -148 -66.5 -222.5t-198.5 -74.5q-133 0 -199.5 74.5zM423 1041.5q33 43.5 33 131.5q0 85 -33 127.5t-98 42.5t-97.5 -42.5t-32.5 -129.5t32.5 -130t97.5 -43t98 43.5z" />
    <glyph glyph-name="plusminus" unicode="&#xb1;" horiz-adv-x="877" 
d="M787 803v-148h-692v148h692zM524 342h-166v734h166v-734zM787 415v-148h-692v148h692z" />
    <glyph glyph-name="uni00B2" unicode="&#xb2;" horiz-adv-x="585" 
d="M106 949l123 122q4 4 7.5 8t8.5 7q41 42 66 72.5t37.5 57t12.5 53.5v10q0 31 -16.5 47.5t-46.5 16.5q-34 0 -52 -24.5t-20 -73.5v0h-141v0q2 109 55 162.5t156 53.5t156 -44.5t53 -131.5v-6q0 -58 -32.5 -110.5t-106.5 -131.5l-77 -80h216v-126h-399v118z" />
    <glyph glyph-name="uni00B3" unicode="&#xb3;" horiz-adv-x="598" 
d="M177.5 846.5q-47.5 22.5 -70 69.5t-22.5 123v0h139v0q0 -53 18.5 -76.5t57.5 -23.5q37 0 56 17t19 51v28q0 31 -21 47t-64 16h-34v101h34q38 0 56.5 15t18.5 44v26q0 30 -16.5 46t-49.5 16q-36 0 -52.5 -21.5t-16.5 -68.5v0h-140v0q0 72 22 117t68 66.5t120 21.5
q104 0 156 -39t52 -117v-30q0 -47 -25.5 -79t-77.5 -48q57 -8 85 -39.5t28 -85.5v-28q0 -86 -54 -128.5t-164 -42.5q-75 0 -122.5 22.5z" />
    <glyph glyph-name="acute" unicode="&#xb4;" horiz-adv-x="498" 
d="M51 1314l266 355l129 -101l-285 -336z" />
    <glyph glyph-name="mu" unicode="&#xb5;" horiz-adv-x="1042" 
d="M135 1041h170v-869h-7l7 -452h-170v1321zM385 6q-46 21 -71 61.5t-28 98.5l19 166q0 -89 50 -137t142 -48t141 48.5t49 138.5l31 -164q-10 -90 -67.5 -137.5t-154.5 -47.5q-65 0 -111 21zM746 68q-60 70 -60 197v773h171v-774q0 -50 21.5 -77.5t60.5 -27.5h64v-161h-87
q-110 0 -170 70z" />
    <glyph glyph-name="paragraph" unicode="&#xb6;" horiz-adv-x="1232" 
d="M251.5 632q-94.5 54 -145.5 153t-51 230q0 132 50.5 231.5t145 153.5t222.5 54h210v-876h-210q-127 0 -221.5 54zM571 1454h163v-1690h-163v1690zM900 1454h163v-1690h-163v1690zM596 1454h586v-160h-586v160z" />
    <glyph glyph-name="periodcentered" unicode="&#xb7;" horiz-adv-x="375" 
d="M102 612h171v-170h-171v170z" />
    <glyph glyph-name="cedilla" unicode="&#xb8;" horiz-adv-x="488" 
d="M45 -404l35 119q59 -14 116 -14q47 0 71.5 15.5t24.5 45.5t-34.5 45t-103.5 15l73 99q105 0 160.5 -43.5t55.5 -127.5t-59.5 -128t-172.5 -44q-97 0 -166 18zM138 91h138v-269h-138v269z" />
    <glyph glyph-name="uni00B9" unicode="&#xb9;" horiz-adv-x="462" 
d="M382 831h-144v477l-153 -96v161l142 81h155v-623z" />
    <glyph glyph-name="ordmasculine" unicode="&#xba;" horiz-adv-x="645" 
d="M147.5 887q-62.5 63 -62.5 177v162q0 112 62.5 173.5t177.5 61.5t177.5 -62t62.5 -174v-161q0 -114 -62.5 -177t-177.5 -63t-177.5 63zM394.5 988.5q24.5 28.5 24.5 80.5v155q0 48 -24.5 74.5t-69.5 26.5q-46 0 -70 -26.5t-24 -76.5v-153q0 -52 24 -80.5t70 -28.5
q45 0 69.5 28.5z" />
    <glyph glyph-name="guillemotright" unicode="&#xbb;" horiz-adv-x="955" 
d="M438 878h196l273 -358h-196zM313 520h196l-273 -357h-196zM40 878h196l273 -358h-196zM711 520h196l-273 -357h-196z" />
    <glyph glyph-name="onequarter" unicode="&#xbc;" horiz-adv-x="1306" 
d="M903 1454h156l-716 -1454h-155zM763 202l145 421h135l-138 -421h311v-115h-453v115zM1039 351h124v-351h-124v351zM387 831h-144v477l-153 -96v161l142 81h155v-623z" />
    <glyph glyph-name="onehalf" unicode="&#xbd;" horiz-adv-x="1289" 
d="M903 1454h155l-715 -1454h-156zM387 831h-144v477l-153 -96v161l142 81h155v-623zM800 119l123 121q4 4 7.5 8t7.5 8q42 42 67 72t37.5 56.5t12.5 53.5v10q0 31 -16.5 47.5t-46.5 16.5q-32 0 -50.5 -20.5t-22.5 -58.5v-19h-140v10q3 102 57 154t154 52q103 0 156 -44.5
t53 -131.5v-6q0 -57 -32.5 -110t-107.5 -132l-76 -79h216v-127h-399v119z" />
    <glyph glyph-name="threequarters" unicode="&#xbe;" horiz-adv-x="1346" 
d="M963 1454h155l-715 -1454h-156zM803 202l145 421h135l-138 -421h311v-115h-453v115zM1079 351h124v-351h-124v351zM144 872q-54 48 -54 143v30h138v-25q0 -40 19.5 -60.5t57.5 -20.5q37 0 56 17t19 52v27q0 31 -21 47t-63 16h-35v101h35q37 0 55.5 15t18.5 45v25
q0 31 -16.5 46.5t-49.5 15.5q-35 0 -52.5 -19t-17.5 -57v-20h-139v20q0 96 53 143.5t157 47.5q105 0 157 -39t52 -117v-30q0 -47 -26 -79t-78 -48q57 -8 85.5 -39t28.5 -86v-28q0 -86 -54.5 -128.5t-164.5 -42.5q-107 0 -161 48z" />
    <glyph glyph-name="questiondown" unicode="&#xbf;" horiz-adv-x="778" 
d="M230 -380q-78 42 -118.5 122.5t-40.5 193.5v1q0 73 16 129t40 96.5t65 97.5q47 66 76 117.5t49 130t20 186.5h170q0 -122 -22.5 -213t-53.5 -150.5t-80 -133.5q-35 -53 -55 -88t-33.5 -78.5t-13.5 -94.5v0q0 -95 43.5 -147t122.5 -52q83 0 128.5 58t46.5 163v38h176v-38
q-2 -120 -44 -205t-119.5 -130t-185.5 -45q-109 0 -187 42zM509 877h-170v170h170v-170z" />
    <glyph glyph-name="Agrave" unicode="&#xc0;" horiz-adv-x="1116" 
d="M471 1454h174l436 -1454h-186l-337 1231l-337 -1231h-186zM259 496h614v-160h-614v160zM265 1773l119 123l259 -251l-104 -101z" />
    <glyph glyph-name="Aacute" unicode="&#xc1;" horiz-adv-x="1116" 
d="M471 1454h174l436 -1454h-186l-337 1231l-337 -1231h-186zM259 496h614v-160h-614v160zM462 1648l265 250l122 -122l-283 -229z" />
    <glyph glyph-name="Acircumflex" unicode="&#xc2;" horiz-adv-x="1116" 
d="M471 1454h174l436 -1454h-186l-337 1231l-337 -1231h-186zM259 496h614v-160h-614v160zM843 1647l-104 -95l-183 149l-184 -149l-104 95l288 233z" />
    <glyph glyph-name="Atilde" unicode="&#xc3;" horiz-adv-x="1116" 
d="M471 1454h174l436 -1454h-186l-337 1231l-337 -1231h-186zM259 496h614v-160h-614v160zM662.5 1568.5q-27.5 8.5 -50 21.5t-50.5 32l-2 2q-6 4 -12 7.5t-11 7.5q-35 25 -59.5 37.5t-50.5 12.5q-32 0 -48 -20.5t-16 -60.5v-47h-132v60q0 105 44 159t129 54
q50 0 87.5 -18.5t84.5 -52.5l3 -2q5 -3 9.5 -6.5t8.5 -6.5q30 -22 52.5 -33t46.5 -11q34 0 51 22t17 65v47h132v-62q0 -106 -44.5 -161t-129.5 -55q-32 0 -59.5 8.5z" />
    <glyph glyph-name="Adieresis" unicode="&#xc4;" horiz-adv-x="1116" 
d="M471 1454h174l436 -1454h-186l-337 1231l-337 -1231h-186zM259 496h614v-160h-614v160zM657 1757h178v-178h-178v178zM282 1757h178v-178h-178v178z" />
    <glyph glyph-name="Aring" unicode="&#xc5;" horiz-adv-x="1116" 
d="M384.5 1482q-61.5 60 -61.5 171q0 116 61.5 178.5t173.5 62.5q113 0 174.5 -63t61.5 -178q0 -111 -61.5 -171t-174.5 -60q-112 0 -173.5 60zM642.5 1564.5q29.5 33.5 29.5 92.5q0 61 -29.5 95t-84.5 34q-54 0 -84 -34t-30 -95q0 -59 30 -92.5t84 -33.5q55 0 84.5 33.5z
M471 1454h174l436 -1454h-186l-337 1231l-337 -1231h-186zM259 496h614v-160h-614v160z" />
    <glyph glyph-name="AE" unicode="&#xc6;" horiz-adv-x="1580" 
d="M595 1454h167l-586 -1454h-181zM291 497h548v-160h-548v160zM721 1454h171v-1454h-171v1454zM820 161h680v-161h-680v161zM820 802h600v-160h-600v160zM820 1454h680v-160h-680v160z" />
    <glyph glyph-name="Ccedilla" unicode="&#xc7;" horiz-adv-x="1062" 
d="M323 40q-95 55 -146.5 158.5t-51.5 243.5v569q0 141 51.5 244t146.5 158.5t224 55.5q122 0 213 -50t144 -146t62 -230v0h-172v0q-8 82 -41 141t-86 90t-120 31q-76 0 -132.5 -35.5t-87 -102t-30.5 -156.5v-569q0 -90 30.5 -156t87 -101.5t132.5 -35.5q68 0 120.5 30.5
t85.5 89t41 142.5v0h172v0q-9 -134 -62 -230t-144 -146t-213 -50q-129 0 -224 55zM371 -404l35 119q56 -14 111 -14q52 0 78.5 15.5t26.5 45.5t-37 45t-110 15l73 99q110 0 167.5 -43.5t57.5 -127.5t-61.5 -128t-179.5 -44q-92 0 -161 18zM597 61v-240l-138 1v239h138z" />
    <glyph glyph-name="Egrave" unicode="&#xc8;" horiz-adv-x="999" 
d="M140 1454h171v-1454h-171v1454zM239 161h680v-161h-680v161zM239 802h600v-160h-600v160zM239 1454h680v-160h-680v160zM253 1773l119 123l259 -251l-104 -101z" />
    <glyph glyph-name="Eacute" unicode="&#xc9;" horiz-adv-x="999" 
d="M140 1454h171v-1454h-171v1454zM239 161h680v-161h-680v161zM239 802h600v-160h-600v160zM239 1454h680v-160h-680v160zM450 1648l265 250l122 -122l-283 -229z" />
    <glyph glyph-name="Ecircumflex" unicode="&#xca;" horiz-adv-x="999" 
d="M140 1454h171v-1454h-171v1454zM239 161h680v-161h-680v161zM239 802h600v-160h-600v160zM239 1454h680v-160h-680v160zM831 1647l-104 -95l-183 149l-184 -149l-104 95l288 233z" />
    <glyph glyph-name="Edieresis" unicode="&#xcb;" horiz-adv-x="999" 
d="M140 1454h171v-1454h-171v1454zM239 161h680v-161h-680v161zM239 802h600v-160h-600v160zM239 1454h680v-160h-680v160zM645 1757h178v-178h-178v178zM270 1757h178v-178h-178v178z" />
    <glyph glyph-name="Igrave" unicode="&#xcc;" horiz-adv-x="475" 
d="M323 0h-171v1454h171v-1454zM-55 1773l119 123l259 -251l-104 -101z" />
    <glyph glyph-name="Iacute" unicode="&#xcd;" horiz-adv-x="475" 
d="M323 0h-171v1454h171v-1454zM142 1648l265 250l122 -122l-283 -229z" />
    <glyph glyph-name="Icircumflex" unicode="&#xce;" horiz-adv-x="475" 
d="M323 0h-171v1454h171v-1454zM523 1647l-104 -95l-183 149l-184 -149l-104 95l288 233z" />
    <glyph glyph-name="Idieresis" unicode="&#xcf;" horiz-adv-x="475" 
d="M323 0h-171v1454h171v-1454zM337 1757h178v-178h-178v178zM-38 1757h178v-178h-178v178z" />
    <glyph glyph-name="Eth" unicode="&#xd0;" horiz-adv-x="1149" 
d="M294 161h319q117 0 178 60t61 174v665q0 114 -61 174t-178 60h-319v160h313q135 0 228 -46t141 -136t48 -220v-650q0 -130 -48 -219.5t-141.5 -136t-228.5 -46.5h-312v161zM175 1454h171v-1454h-171v1454zM606 801v-147h-572v147h572z" />
    <glyph glyph-name="Ntilde" unicode="&#xd1;" horiz-adv-x="1174" 
d="M140 1454h158l603 -1186l-34 -9v1195h167v-1453h-160l-606 1175l39 6v-1181h-167v1453zM706.5 1568.5q-27.5 8.5 -50 21.5t-50.5 32l-2 2q-6 4 -12 7.5t-11 7.5q-35 25 -59.5 37.5t-50.5 12.5q-32 0 -48 -20.5t-16 -60.5v-47h-132v60q0 105 44 159t129 54
q50 0 87.5 -18.5t84.5 -52.5l3 -2q5 -3 9.5 -6.5t8.5 -6.5q30 -22 52.5 -33t46.5 -11q34 0 51 22t17 65v47h132v-62q0 -106 -44.5 -161t-129.5 -55q-32 0 -59.5 8.5z" />
    <glyph glyph-name="Ograve" unicode="&#xd2;" horiz-adv-x="1122" 
d="M327.5 39q-98.5 54 -150.5 155.5t-52 241.5v582q0 141 52 242.5t150.5 155t233.5 53.5q136 0 234 -53.5t150 -155t52 -242.5v-582q0 -140 -52 -241.5t-150 -155.5t-234 -54q-135 0 -233.5 54zM702.5 183.5q59.5 33.5 91 96t31.5 149.5v596q0 87 -31.5 149.5t-91 96
t-141.5 33.5t-141.5 -33.5t-91 -96t-31.5 -149.5v-596q0 -87 31.5 -149.5t91 -96t141.5 -33.5t141.5 33.5zM268 1773l119 123l259 -251l-104 -101z" />
    <glyph glyph-name="Oacute" unicode="&#xd3;" horiz-adv-x="1122" 
d="M327.5 39q-98.5 54 -150.5 155.5t-52 241.5v582q0 141 52 242.5t150.5 155t233.5 53.5q136 0 234 -53.5t150 -155t52 -242.5v-582q0 -140 -52 -241.5t-150 -155.5t-234 -54q-135 0 -233.5 54zM702.5 183.5q59.5 33.5 91 96t31.5 149.5v596q0 87 -31.5 149.5t-91 96
t-141.5 33.5t-141.5 -33.5t-91 -96t-31.5 -149.5v-596q0 -87 31.5 -149.5t91 -96t141.5 -33.5t141.5 33.5zM465 1648l265 250l122 -122l-283 -229z" />
    <glyph glyph-name="Ocircumflex" unicode="&#xd4;" horiz-adv-x="1122" 
d="M327.5 39q-98.5 54 -150.5 155.5t-52 241.5v582q0 141 52 242.5t150.5 155t233.5 53.5q136 0 234 -53.5t150 -155t52 -242.5v-582q0 -140 -52 -241.5t-150 -155.5t-234 -54q-135 0 -233.5 54zM702.5 183.5q59.5 33.5 91 96t31.5 149.5v596q0 87 -31.5 149.5t-91 96
t-141.5 33.5t-141.5 -33.5t-91 -96t-31.5 -149.5v-596q0 -87 31.5 -149.5t91 -96t141.5 -33.5t141.5 33.5zM846 1647l-104 -95l-183 149l-184 -149l-104 95l288 233z" />
    <glyph glyph-name="Otilde" unicode="&#xd5;" horiz-adv-x="1122" 
d="M327.5 39q-98.5 54 -150.5 155.5t-52 241.5v582q0 141 52 242.5t150.5 155t233.5 53.5q136 0 234 -53.5t150 -155t52 -242.5v-582q0 -140 -52 -241.5t-150 -155.5t-234 -54q-135 0 -233.5 54zM702.5 183.5q59.5 33.5 91 96t31.5 149.5v596q0 87 -31.5 149.5t-91 96
t-141.5 33.5t-141.5 -33.5t-91 -96t-31.5 -149.5v-596q0 -87 31.5 -149.5t91 -96t141.5 -33.5t141.5 33.5zM665.5 1568.5q-27.5 8.5 -50 21.5t-50.5 32l-2 2q-6 4 -12 7.5t-11 7.5q-35 25 -59.5 37.5t-50.5 12.5q-32 0 -48 -20.5t-16 -60.5v-47h-132v60q0 105 44 159t129 54
q50 0 87.5 -18.5t84.5 -52.5l3 -2q5 -3 9.5 -6.5t8.5 -6.5q30 -22 52.5 -33t46.5 -11q34 0 51 22t17 65v47h132v-62q0 -106 -44.5 -161t-129.5 -55q-32 0 -59.5 8.5z" />
    <glyph glyph-name="Odieresis" unicode="&#xd6;" horiz-adv-x="1122" 
d="M327.5 39q-98.5 54 -150.5 155.5t-52 241.5v582q0 141 52 242.5t150.5 155t233.5 53.5q136 0 234 -53.5t150 -155t52 -242.5v-582q0 -140 -52 -241.5t-150 -155.5t-234 -54q-135 0 -233.5 54zM702.5 183.5q59.5 33.5 91 96t31.5 149.5v596q0 87 -31.5 149.5t-91 96
t-141.5 33.5t-141.5 -33.5t-91 -96t-31.5 -149.5v-596q0 -87 31.5 -149.5t91 -96t141.5 -33.5t141.5 33.5zM660 1757h178v-178h-178v178zM285 1757h178v-178h-178v178z" />
    <glyph glyph-name="multiply" unicode="&#xd7;" horiz-adv-x="876" 
d="M102 404l566 631l115 -103l-566 -632zM100 933l113 102l570 -629l-113 -102z" />
    <glyph glyph-name="Oslash" unicode="&#xd8;" horiz-adv-x="1122" 
d="M803 1597h141l-616 -1728h-142zM327.5 39q-98.5 54 -150.5 155.5t-52 241.5v582q0 141 52 242.5t150.5 155t233.5 53.5q136 0 234 -53.5t150 -155t52 -242.5v-582q0 -140 -52 -241.5t-150 -155.5t-234 -54q-135 0 -233.5 54zM702.5 183.5q59.5 33.5 91 96t31.5 149.5v596
q0 87 -31.5 149.5t-91 96t-141.5 33.5t-141.5 -33.5t-91 -96t-31.5 -149.5v-596q0 -87 31.5 -149.5t91 -96t141.5 -33.5t141.5 33.5z" />
    <glyph glyph-name="Ugrave" unicode="&#xd9;" horiz-adv-x="1092" 
d="M314.5 35q-93.5 50 -141.5 148t-48 241v1030h171v-1037q0 -130 63 -197.5t186 -67.5q124 0 188 67.5t64 197.5v1037h170v-1030q0 -143 -48 -241t-142 -148t-232 -50q-137 0 -230.5 50zM253 1773l119 123l259 -251l-104 -101z" />
    <glyph glyph-name="Uacute" unicode="&#xda;" horiz-adv-x="1092" 
d="M314.5 35q-93.5 50 -141.5 148t-48 241v1030h171v-1037q0 -130 63 -197.5t186 -67.5q124 0 188 67.5t64 197.5v1037h170v-1030q0 -143 -48 -241t-142 -148t-232 -50q-137 0 -230.5 50zM450 1648l265 250l122 -122l-283 -229z" />
    <glyph glyph-name="Ucircumflex" unicode="&#xdb;" horiz-adv-x="1092" 
d="M314.5 35q-93.5 50 -141.5 148t-48 241v1030h171v-1037q0 -130 63 -197.5t186 -67.5q124 0 188 67.5t64 197.5v1037h170v-1030q0 -143 -48 -241t-142 -148t-232 -50q-137 0 -230.5 50zM831 1647l-104 -95l-183 149l-184 -149l-104 95l288 233z" />
    <glyph glyph-name="Udieresis" unicode="&#xdc;" horiz-adv-x="1092" 
d="M314.5 35q-93.5 50 -141.5 148t-48 241v1030h171v-1037q0 -130 63 -197.5t186 -67.5q124 0 188 67.5t64 197.5v1037h170v-1030q0 -143 -48 -241t-142 -148t-232 -50q-137 0 -230.5 50zM645 1757h178v-178h-178v178zM270 1757h178v-178h-178v178z" />
    <glyph glyph-name="Yacute" unicode="&#xdd;" horiz-adv-x="875" 
d="M525 600v-600h-170v600l-380 854h181l284 -671l279 671h181zM342 1648l265 250l122 -122l-283 -229z" />
    <glyph glyph-name="Thorn" unicode="&#xde;" horiz-adv-x="1070" 
d="M245 465h365q58 0 102 26.5t67.5 76t23.5 116.5v127q0 68 -23.5 118t-67 77.5t-102.5 27.5h-365v160h358q113 0 197 -46.5t129.5 -133t45.5 -203.5v-129q0 -115 -45.5 -200.5t-129.5 -131.5t-197 -46h-358v161zM140 1454h171v-1454h-171v1454z" />
    <glyph glyph-name="germandbls" unicode="&#xdf;" horiz-adv-x="995" 
d="M135 1096q0 118 43.5 201.5t126 127.5t198.5 44q115 0 196 -38t123.5 -110.5t42.5 -174.5v-57q0 -90 -40.5 -149.5t-112.5 -76.5q73 -16 113 -72t40 -142v-399q0 -127 -80 -196t-226 -69h-49v161h49q64 0 99.5 33.5t35.5 94.5v386q0 56 -35.5 87.5t-99.5 31.5h-49v160h49
q64 0 99.5 38.5t35.5 108.5v56q0 79 -48 123t-136 44q-97 0 -150.5 -58.5t-53.5 -163.5v-1087h-171v1096z" />
    <glyph glyph-name="agrave" unicode="&#xe0;" horiz-adv-x="963" 
d="M668 709q0 94 -50.5 145.5t-142.5 51.5q-66 0 -116.5 -31t-75.5 -87l-144 43q29 107 117 165.5t219 58.5q113 0 193.5 -40.5t122.5 -117t42 -184.5v-713h-165v709zM184.5 62q-81.5 77 -81.5 229q0 163 84.5 245.5t250.5 82.5h239l14 -143h-252q-86 0 -130 -46.5
t-44 -138.5q0 -80 48.5 -120.5t143.5 -40.5q104 0 157.5 35.5t53.5 105.5l21 -116q-15 -56 -49.5 -94t-88.5 -57t-125 -19q-160 0 -241.5 77zM183 1568l131 101l266 -355l-112 -82z" />
    <glyph glyph-name="aacute" unicode="&#xe1;" horiz-adv-x="963" 
d="M668 709q0 94 -50.5 145.5t-142.5 51.5q-66 0 -116.5 -31t-75.5 -87l-144 43q29 107 117 165.5t219 58.5q113 0 193.5 -40.5t122.5 -117t42 -184.5v-713h-165v709zM184.5 62q-81.5 77 -81.5 229q0 163 84.5 245.5t250.5 82.5h239l14 -143h-252q-86 0 -130 -46.5
t-44 -138.5q0 -80 48.5 -120.5t143.5 -40.5q104 0 157.5 35.5t53.5 105.5l21 -116q-15 -56 -49.5 -94t-88.5 -57t-125 -19q-160 0 -241.5 77zM384 1314l266 355l129 -101l-285 -336z" />
    <glyph glyph-name="acircumflex" unicode="&#xe2;" horiz-adv-x="963" 
d="M668 709q0 94 -50.5 145.5t-142.5 51.5q-66 0 -116.5 -31t-75.5 -87l-144 43q29 107 117 165.5t219 58.5q113 0 193.5 -40.5t122.5 -117t42 -184.5v-713h-165v709zM184.5 62q-81.5 77 -81.5 229q0 163 84.5 245.5t250.5 82.5h239l14 -143h-252q-86 0 -130 -46.5
t-44 -138.5q0 -80 48.5 -120.5t143.5 -40.5q104 0 157.5 35.5t53.5 105.5l21 -116q-15 -56 -49.5 -94t-88.5 -57t-125 -19q-160 0 -241.5 77zM758 1324l-101 -91l-175 185l-175 -185l-102 91l277 289z" />
    <glyph glyph-name="atilde" unicode="&#xe3;" horiz-adv-x="963" 
d="M668 709q0 94 -50.5 145.5t-142.5 51.5q-66 0 -116.5 -31t-75.5 -87l-144 43q29 107 117 165.5t219 58.5q113 0 193.5 -40.5t122.5 -117t42 -184.5v-713h-165v709zM184.5 62q-81.5 77 -81.5 229q0 163 84.5 245.5t250.5 82.5h239l14 -143h-252q-86 0 -130 -46.5
t-44 -138.5q0 -80 48.5 -120.5t143.5 -40.5q104 0 157.5 35.5t53.5 105.5l21 -116q-15 -56 -49.5 -94t-88.5 -57t-125 -19q-160 0 -241.5 77zM552.5 1263.5q-32.5 15.5 -68.5 43.5l-9 7q-4 3 -7.5 5.5t-6.5 4.5q-35 28 -57.5 41.5t-47.5 13.5q-30 0 -44.5 -19t-14.5 -57v-54
h-127v65q0 103 43.5 156.5t127.5 53.5q42 0 75.5 -17.5t73.5 -49.5l7 -6l14 -11q30 -24 51 -36t43 -12q31 0 47 20.5t16 60.5v53h127v-65q0 -105 -43.5 -159t-128.5 -54q-38 0 -70.5 15.5z" />
    <glyph glyph-name="adieresis" unicode="&#xe4;" horiz-adv-x="963" 
d="M668 709q0 94 -50.5 145.5t-142.5 51.5q-66 0 -116.5 -31t-75.5 -87l-144 43q29 107 117 165.5t219 58.5q113 0 193.5 -40.5t122.5 -117t42 -184.5v-713h-165v709zM184.5 62q-81.5 77 -81.5 229q0 163 84.5 245.5t250.5 82.5h239l14 -143h-252q-86 0 -130 -46.5
t-44 -138.5q0 -80 48.5 -120.5t143.5 -40.5q104 0 157.5 35.5t53.5 105.5l21 -116q-15 -56 -49.5 -94t-88.5 -57t-125 -19q-160 0 -241.5 77zM573 1422h171v-171h-171v171zM221 1422h170v-171h-170v171z" />
    <glyph glyph-name="aring" unicode="&#xe5;" horiz-adv-x="963" 
d="M668 709q0 94 -50.5 145.5t-142.5 51.5q-66 0 -116.5 -31t-75.5 -87l-144 43q29 107 117 165.5t219 58.5q113 0 193.5 -40.5t122.5 -117t42 -184.5v-713h-165v709zM184.5 62q-81.5 77 -81.5 229q0 163 84.5 245.5t250.5 82.5h239l14 -143h-252q-86 0 -130 -46.5
t-44 -138.5q0 -80 48.5 -120.5t143.5 -40.5q104 0 157.5 35.5t53.5 105.5l21 -116q-15 -56 -49.5 -94t-88.5 -57t-125 -19q-160 0 -241.5 77zM311.5 1295.5q-59.5 59.5 -59.5 171.5q0 117 59.5 179t170.5 62t170.5 -62.5t59.5 -178.5q0 -112 -59.5 -171.5t-170.5 -59.5
t-170.5 59.5zM560.5 1380.5q27.5 32.5 27.5 90.5q0 60 -27.5 93t-78.5 33t-78.5 -32.5t-27.5 -93.5q0 -59 27.5 -91t78.5 -32t78.5 32.5z" />
    <glyph glyph-name="ae" unicode="&#xe6;" horiz-adv-x="1475" 
d="M653 709q0 93 -48.5 144t-136.5 51q-65 0 -114 -30t-73 -85l-142 42q28 107 113.5 165.5t213.5 58.5q143 0 221.5 -85t78.5 -239v-392h-113v370zM184 64.5q-81 79.5 -81 236.5q0 148 85 225t250 77h262l9 -145h-270q-85 0 -130.5 -40.5t-45.5 -116.5q0 -82 46 -123.5
t137 -41.5q69 0 115 30.5t68.5 83.5t22.5 123l75 5l15 -154q-25 -118 -106.5 -178.5t-211.5 -60.5q-159 0 -240 79.5zM850 32q-74 47 -112.5 136t-38.5 216v256q0 131 38 224t110 142t174 49q110 0 188 -50.5t119 -146t41 -230.5v-171h-610v145h449v57q-2 114 -52 177.5
t-139 63.5q-98 0 -152 -68t-54 -193v-255q0 -116 57 -179.5t159 -63.5q67 0 118.5 32.5t77.5 91.5v4l134 -54v-3q-39 -108 -125 -167.5t-205 -59.5q-103 0 -177 47z" />
    <glyph glyph-name="ccedilla" unicode="&#xe7;" horiz-adv-x="896" 
d="M284 29q-85 44 -129.5 129t-44.5 207v304q0 123 44.5 209.5t129.5 131t208 44.5q98 0 170 -30t116.5 -89t59.5 -145v0l-161 -50v0q-17 76 -63.5 115.5t-118.5 39.5q-104 0 -159 -58.5t-55 -167.5v-304q0 -106 55 -163t159 -57q74 0 121.5 37.5t64.5 110.5v0l158 -52v0
q-15 -83 -59.5 -141t-117 -86.5t-170.5 -28.5q-123 0 -208 44zM295 -404l35 119q59 -14 116 -14q47 0 71.5 15.5t24.5 45.5t-34.5 45t-103.5 15l73 99q105 0 160.5 -43.5t55.5 -127.5t-59.5 -128t-172.5 -44q-97 0 -166 18zM388 91h138v-269h-138v269z" />
    <glyph glyph-name="egrave" unicode="&#xe8;" horiz-adv-x="950" 
d="M287.5 32.5q-86.5 47.5 -132 138t-45.5 219.5v239q0 135 44 230t127.5 145t201.5 50q114 0 195 -50t123.5 -145t42.5 -230v-180h-617v147h453v60q0 115 -52 178.5t-145 63.5q-100 0 -155 -67.5t-55 -190.5v-255q0 -114 58.5 -177t164.5 -63q68 0 114.5 33t64.5 94v0
l157 -50v0q-29 -115 -115.5 -176t-220.5 -61q-122 0 -208.5 47.5zM181 1568l131 101l266 -355l-112 -82z" />
    <glyph glyph-name="eacute" unicode="&#xe9;" horiz-adv-x="950" 
d="M287.5 32.5q-86.5 47.5 -132 138t-45.5 219.5v239q0 135 44 230t127.5 145t201.5 50q114 0 195 -50t123.5 -145t42.5 -230v-180h-617v147h453v60q0 115 -52 178.5t-145 63.5q-100 0 -155 -67.5t-55 -190.5v-255q0 -114 58.5 -177t164.5 -63q68 0 114.5 33t64.5 94v0
l157 -50v0q-29 -115 -115.5 -176t-220.5 -61q-122 0 -208.5 47.5zM382 1314l266 355l129 -101l-285 -336z" />
    <glyph glyph-name="ecircumflex" unicode="&#xea;" horiz-adv-x="950" 
d="M287.5 32.5q-86.5 47.5 -132 138t-45.5 219.5v239q0 135 44 230t127.5 145t201.5 50q114 0 195 -50t123.5 -145t42.5 -230v-180h-617v147h453v60q0 115 -52 178.5t-145 63.5q-100 0 -155 -67.5t-55 -190.5v-255q0 -114 58.5 -177t164.5 -63q68 0 114.5 33t64.5 94v0
l157 -50v0q-29 -115 -115.5 -176t-220.5 -61q-122 0 -208.5 47.5zM756 1324l-101 -91l-175 185l-175 -185l-102 91l277 289z" />
    <glyph glyph-name="edieresis" unicode="&#xeb;" horiz-adv-x="950" 
d="M287.5 32.5q-86.5 47.5 -132 138t-45.5 219.5v239q0 135 44 230t127.5 145t201.5 50q114 0 195 -50t123.5 -145t42.5 -230v-180h-617v147h453v60q0 115 -52 178.5t-145 63.5q-100 0 -155 -67.5t-55 -190.5v-255q0 -114 58.5 -177t164.5 -63q68 0 114.5 33t64.5 94v0
l157 -50v0q-29 -115 -115.5 -176t-220.5 -61q-122 0 -208.5 47.5zM570 1422h171v-171h-171v171zM218 1422h170v-171h-170v171z" />
    <glyph glyph-name="igrave" unicode="&#xec;" horiz-adv-x="460" 
d="M147 1038h171v-1038h-171v1038zM-66 1568l131 101l266 -355l-112 -82z" />
    <glyph glyph-name="iacute" unicode="&#xed;" horiz-adv-x="460" 
d="M147 1038h171v-1038h-171v1038zM135 1314l266 355l129 -101l-285 -336z" />
    <glyph glyph-name="icircumflex" unicode="&#xee;" horiz-adv-x="460" 
d="M147 1038h171v-1038h-171v1038zM509 1324l-101 -91l-175 185l-175 -185l-102 91l277 289z" />
    <glyph glyph-name="idieresis" unicode="&#xef;" horiz-adv-x="460" 
d="M147 1038h171v-1038h-171v1038zM324 1422h171v-171h-171v171zM-28 1422h170v-171h-170v171z" />
    <glyph glyph-name="eth" unicode="&#xf0;" horiz-adv-x="934" 
d="M660 717q1 133 -37.5 260t-117.5 243l-159 234h194l114 -184q76 -124 115.5 -275t39.5 -323zM809 672v-322q0 -114 -41.5 -196t-120.5 -125.5t-190 -43.5q-109 0 -187 43t-119 124.5t-41 197.5v325q0 118 35.5 203.5t103 131t161.5 45.5q86 0 151.5 -47.5t114.5 -139.5z
M643 669q0 229 -186 229q-91 0 -136 -57.5t-45 -169.5v-317q0 -212 181 -212q94 0 140 53t46 159v315zM766 1422l30 -125l-576 -134l-31 126z" />
    <glyph glyph-name="ntilde" unicode="&#xf1;" horiz-adv-x="999" 
d="M135 1038h171v-1038h-171v1038zM699 678q0 106 -51 161.5t-148 55.5q-95 0 -144.5 -53.5t-49.5 -155.5l-21 175q43 97 116 145.5t168 48.5q146 0 223 -93.5t77 -269.5v-692h-170v678zM567.5 1263.5q-32.5 15.5 -68.5 43.5l-9 7q-4 3 -7.5 5.5t-6.5 4.5q-35 28 -57.5 41.5
t-47.5 13.5q-30 0 -44.5 -19t-14.5 -57v-54h-127v65q0 103 43.5 156.5t127.5 53.5q42 0 75.5 -17.5t73.5 -49.5l7 -6l14 -11q30 -24 51 -36t43 -12q31 0 47 20.5t16 60.5v53h127v-65q0 -105 -43.5 -159t-128.5 -54q-38 0 -70.5 15.5z" />
    <glyph glyph-name="ograve" unicode="&#xf2;" horiz-adv-x="946" 
d="M277.5 29.5q-81.5 44.5 -124.5 129t-43 203.5v321q0 117 43 200.5t124.5 127.5t196.5 44q114 0 195.5 -44t124 -127.5t42.5 -200.5v-324q0 -118 -42.5 -202t-124 -128t-195.5 -44q-115 0 -196.5 44.5zM615.5 203q50.5 56 50.5 158v320q0 101 -51 156.5t-142 55.5
q-92 0 -142 -55.5t-50 -156.5v-320q0 -102 50 -158t142 -56t142.5 56zM175 1568l131 101l266 -355l-112 -82z" />
    <glyph glyph-name="oacute" unicode="&#xf3;" horiz-adv-x="946" 
d="M277.5 29.5q-81.5 44.5 -124.5 129t-43 203.5v321q0 117 43 200.5t124.5 127.5t196.5 44q114 0 195.5 -44t124 -127.5t42.5 -200.5v-324q0 -118 -42.5 -202t-124 -128t-195.5 -44q-115 0 -196.5 44.5zM615.5 203q50.5 56 50.5 158v320q0 101 -51 156.5t-142 55.5
q-92 0 -142 -55.5t-50 -156.5v-320q0 -102 50 -158t142 -56t142.5 56zM376 1314l266 355l129 -101l-285 -336z" />
    <glyph glyph-name="ocircumflex" unicode="&#xf4;" horiz-adv-x="946" 
d="M277.5 29.5q-81.5 44.5 -124.5 129t-43 203.5v321q0 117 43 200.5t124.5 127.5t196.5 44q114 0 195.5 -44t124 -127.5t42.5 -200.5v-324q0 -118 -42.5 -202t-124 -128t-195.5 -44q-115 0 -196.5 44.5zM615.5 203q50.5 56 50.5 158v320q0 101 -51 156.5t-142 55.5
q-92 0 -142 -55.5t-50 -156.5v-320q0 -102 50 -158t142 -56t142.5 56zM750 1324l-101 -91l-175 185l-175 -185l-102 91l277 289z" />
    <glyph glyph-name="otilde" unicode="&#xf5;" horiz-adv-x="946" 
d="M277.5 29.5q-81.5 44.5 -124.5 129t-43 203.5v321q0 117 43 200.5t124.5 127.5t196.5 44q114 0 195.5 -44t124 -127.5t42.5 -200.5v-324q0 -118 -42.5 -202t-124 -128t-195.5 -44q-115 0 -196.5 44.5zM615.5 203q50.5 56 50.5 158v320q0 101 -51 156.5t-142 55.5
q-92 0 -142 -55.5t-50 -156.5v-320q0 -102 50 -158t142 -56t142.5 56zM543.5 1263.5q-32.5 15.5 -68.5 43.5l-9 7q-4 3 -7.5 5.5t-6.5 4.5q-35 28 -57.5 41.5t-47.5 13.5q-30 0 -44.5 -19t-14.5 -57v-54h-127v65q0 103 43.5 156.5t127.5 53.5q42 0 75.5 -17.5t73.5 -49.5
l7 -6l14 -11q30 -24 51 -36t43 -12q31 0 47 20.5t16 60.5v53h127v-65q0 -105 -43.5 -159t-128.5 -54q-38 0 -70.5 15.5z" />
    <glyph glyph-name="odieresis" unicode="&#xf6;" horiz-adv-x="946" 
d="M277.5 29.5q-81.5 44.5 -124.5 129t-43 203.5v321q0 117 43 200.5t124.5 127.5t196.5 44q114 0 195.5 -44t124 -127.5t42.5 -200.5v-324q0 -118 -42.5 -202t-124 -128t-195.5 -44q-115 0 -196.5 44.5zM615.5 203q50.5 56 50.5 158v320q0 101 -51 156.5t-142 55.5
q-92 0 -142 -55.5t-50 -156.5v-320q0 -102 50 -158t142 -56t142.5 56zM564 1422h171v-171h-171v171zM212 1422h170v-171h-170v171z" />
    <glyph glyph-name="divide" unicode="&#xf7;" horiz-adv-x="803" 
d="M321 1058h182v-194h-182v194zM95 749h618v-160h-618v160zM321 474h182v-193h-182v193z" />
    <glyph glyph-name="oslash" unicode="&#xf8;" horiz-adv-x="946" 
d="M632 1180h131l-438 -1322h-131zM277.5 29.5q-81.5 44.5 -124.5 129t-43 203.5v321q0 117 43 200.5t124.5 127.5t196.5 44q114 0 195.5 -44t124 -127.5t42.5 -200.5v-324q0 -118 -42.5 -202t-124 -128t-195.5 -44q-115 0 -196.5 44.5zM615.5 203q50.5 56 50.5 158v320
q0 101 -51 156.5t-142 55.5q-92 0 -142 -55.5t-50 -156.5v-320q0 -102 50 -158t142 -56t142.5 56z" />
    <glyph glyph-name="ugrave" unicode="&#xf9;" horiz-adv-x="987" 
d="M687 1038h170v-1038h-170v1038zM305 344q0 -94 50 -145.5t142 -51.5t141 48t49 139l14 -174q-32 -81 -99 -128t-166 -47q-145 0 -223 93t-78 264v696h170v-694zM194 1568l131 101l266 -355l-112 -82z" />
    <glyph glyph-name="uacute" unicode="&#xfa;" horiz-adv-x="987" 
d="M687 1038h170v-1038h-170v1038zM305 344q0 -94 50 -145.5t142 -51.5t141 48t49 139l14 -174q-32 -81 -99 -128t-166 -47q-145 0 -223 93t-78 264v696h170v-694zM395 1314l266 355l129 -101l-285 -336z" />
    <glyph glyph-name="ucircumflex" unicode="&#xfb;" horiz-adv-x="987" 
d="M687 1038h170v-1038h-170v1038zM305 344q0 -94 50 -145.5t142 -51.5t141 48t49 139l14 -174q-32 -81 -99 -128t-166 -47q-145 0 -223 93t-78 264v696h170v-694zM769 1324l-101 -91l-175 185l-175 -185l-102 91l277 289z" />
    <glyph glyph-name="udieresis" unicode="&#xfc;" horiz-adv-x="987" 
d="M687 1038h170v-1038h-170v1038zM305 344q0 -94 50 -145.5t142 -51.5t141 48t49 139l14 -174q-32 -81 -99 -128t-166 -47q-145 0 -223 93t-78 264v696h170v-694zM584 1422h171v-171h-171v171zM232 1422h170v-171h-170v171z" />
    <glyph glyph-name="yacute" unicode="&#xfd;" horiz-adv-x="879" 
d="M859 1038l-384 -1281q-21 -67 -59 -109t-97 -61.5t-143 -19.5h-30v162h30q73 0 114.5 32.5t64.5 104.5l330 1172h174zM45 1038h174l281 -912l-85 -206zM365 1314l266 355l129 -101l-285 -336z" />
    <glyph glyph-name="thorn" unicode="&#xfe;" horiz-adv-x="969" 
d="M135 1454h171v-1876h-171v1876zM390 30.5q-69 45.5 -98 132.5l14 188q0 -63 22.5 -111.5t65 -75.5t101.5 -27q93 0 144 60t51 168v310q0 108 -51 168t-144 60q-59 0 -101.5 -26.5t-65 -74t-22.5 -108.5l-21 171q41 92 114.5 141t164.5 49q93 0 159.5 -44.5t101 -129
t34.5 -204.5v-314q0 -119 -35.5 -204t-104 -129.5t-165.5 -44.5q-95 0 -164 45.5z" />
    <glyph glyph-name="ydieresis" unicode="&#xff;" horiz-adv-x="879" 
d="M859 1038l-384 -1281q-21 -67 -59 -109t-97 -61.5t-143 -19.5h-30v162h30q73 0 114.5 32.5t64.5 104.5l330 1172h174zM45 1038h174l281 -912l-85 -206zM554 1422h171v-171h-171v171zM202 1422h170v-171h-170v171z" />
    <glyph glyph-name="Amacron" unicode="&#x100;" horiz-adv-x="1116" 
d="M471 1454h174l436 -1454h-186l-337 1231l-337 -1231h-186zM259 496h614v-160h-614v160zM873 1742v-166h-630v166h630z" />
    <glyph glyph-name="amacron" unicode="&#x101;" horiz-adv-x="963" 
d="M668 709q0 94 -50.5 145.5t-142.5 51.5q-66 0 -116.5 -31t-75.5 -87l-144 43q29 107 117 165.5t219 58.5q113 0 193.5 -40.5t122.5 -117t42 -184.5v-713h-165v709zM184.5 62q-81.5 77 -81.5 229q0 163 84.5 245.5t250.5 82.5h239l14 -143h-252q-86 0 -130 -46.5
t-44 -138.5q0 -80 48.5 -120.5t143.5 -40.5q104 0 157.5 35.5t53.5 105.5l21 -116q-15 -56 -49.5 -94t-88.5 -57t-125 -19q-160 0 -241.5 77zM797 1417v-167h-630v167h630z" />
    <glyph glyph-name="Abreve" unicode="&#x102;" horiz-adv-x="1116" 
d="M471 1454h174l436 -1454h-186l-337 1231l-337 -1231h-186zM259 496h614v-160h-614v160zM860 1863q0 -146 -78 -225.5t-220 -79.5h-8q-142 0 -220 79.5t-78 225.5l148 -2q0 -82 39.5 -127t110.5 -45h8q72 0 111.5 45t39.5 127z" />
    <glyph glyph-name="abreve" unicode="&#x103;" horiz-adv-x="963" 
d="M668 709q0 94 -50.5 145.5t-142.5 51.5q-66 0 -116.5 -31t-75.5 -87l-144 43q29 107 117 165.5t219 58.5q113 0 193.5 -40.5t122.5 -117t42 -184.5v-713h-165v709zM184.5 62q-81.5 77 -81.5 229q0 163 84.5 245.5t250.5 82.5h239l14 -143h-252q-86 0 -130 -46.5
t-44 -138.5q0 -80 48.5 -120.5t143.5 -40.5q104 0 157.5 35.5t53.5 105.5l21 -116q-15 -56 -49.5 -94t-88.5 -57t-125 -19q-160 0 -241.5 77zM273.5 1315q-68.5 77 -68.5 227v35h144v-36q0 -83 31.5 -125.5t92.5 -42.5h18q61 0 92.5 42.5t31.5 125.5v36h144v-35
q0 -150 -68.5 -227t-199.5 -77h-18q-131 0 -199.5 77z" />
    <glyph glyph-name="Aogonek" unicode="&#x104;" horiz-adv-x="1116" 
d="M471 1454h174l436 -1454h-186l-337 1231l-337 -1231h-186zM259 496h614v-160h-614v160zM779 -356q-75 64 -75 193q0 136 72 203t218 67h28v-107h-28q-136 0 -136 -144q0 -137 147 -137h75v-139h-75q-151 0 -226 64z" />
    <glyph glyph-name="aogonek" unicode="&#x105;" horiz-adv-x="963" 
d="M668 709q0 94 -50.5 145.5t-142.5 51.5q-66 0 -116.5 -31t-75.5 -87l-144 43q29 107 117 165.5t219 58.5q113 0 193.5 -40.5t122.5 -117t42 -184.5v-713h-165v709zM184.5 62q-81.5 77 -81.5 229q0 163 84.5 245.5t250.5 82.5h239l14 -143h-252q-86 0 -130 -46.5
t-44 -138.5q0 -80 48.5 -120.5t143.5 -40.5q104 0 157.5 35.5t53.5 105.5l21 -116q-15 -56 -49.5 -94t-88.5 -57t-125 -19q-160 0 -241.5 77zM585.5 -374q-59.5 46 -59.5 149q0 84 61 150.5t184 117.5l62 -43q-81 -48 -118.5 -95t-37.5 -104q0 -42 24 -61t76 -19h56v-141
h-56q-132 0 -191.5 46z" />
    <glyph glyph-name="Cacute" unicode="&#x106;" horiz-adv-x="1062" 
d="M323 40q-95 55 -146.5 158.5t-51.5 243.5v569q0 141 51.5 244t146.5 158.5t224 55.5q122 0 213 -50t144 -146t62 -230v0h-172v0q-8 82 -41 141t-86 90t-120 31q-76 0 -132.5 -35.5t-87 -102t-30.5 -156.5v-569q0 -90 30.5 -156t87 -101.5t132.5 -35.5q68 0 120.5 30.5
t85.5 89t41 142.5v0h172v0q-9 -134 -62 -230t-144 -146t-213 -50q-129 0 -224 55zM452 1648l265 250l122 -122l-283 -229z" />
    <glyph glyph-name="cacute" unicode="&#x107;" horiz-adv-x="896" 
d="M284 29q-85 44 -129.5 129t-44.5 207v304q0 123 44.5 209.5t129.5 131t208 44.5q98 0 170 -30t116.5 -89t59.5 -145v0l-161 -50v0q-17 76 -63.5 115.5t-118.5 39.5q-104 0 -159 -58.5t-55 -167.5v-304q0 -106 55 -163t159 -57q74 0 121.5 37.5t64.5 110.5v0l158 -52v0
q-15 -83 -59.5 -141t-117 -86.5t-170.5 -28.5q-123 0 -208 44zM379 1314l266 355l129 -101l-285 -336z" />
    <glyph glyph-name="Cdotaccent" unicode="&#x10a;" horiz-adv-x="1062" 
d="M323 40q-95 55 -146.5 158.5t-51.5 243.5v569q0 141 51.5 244t146.5 158.5t224 55.5q122 0 213 -50t144 -146t62 -230v0h-172v0q-8 82 -41 141t-86 90t-120 31q-76 0 -132.5 -35.5t-87 -102t-30.5 -156.5v-569q0 -90 30.5 -156t87 -101.5t132.5 -35.5q68 0 120.5 30.5
t85.5 89t41 142.5v0h172v0q-9 -134 -62 -230t-144 -146t-213 -50q-129 0 -224 55zM463 1746h170v-171h-170v171z" />
    <glyph glyph-name="cdotaccent" unicode="&#x10b;" horiz-adv-x="896" 
d="M284 29q-85 44 -129.5 129t-44.5 207v304q0 123 44.5 209.5t129.5 131t208 44.5q98 0 170 -30t116.5 -89t59.5 -145v0l-161 -50v0q-17 76 -63.5 115.5t-118.5 39.5q-104 0 -159 -58.5t-55 -167.5v-304q0 -106 55 -163t159 -57q74 0 121.5 37.5t64.5 110.5v0l158 -52v0
q-15 -83 -59.5 -141t-117 -86.5t-170.5 -28.5q-123 0 -208 44zM391 1422h171v-170h-171v170z" />
    <glyph glyph-name="Ccaron" unicode="&#x10c;" horiz-adv-x="1062" 
d="M323 40q-95 55 -146.5 158.5t-51.5 243.5v569q0 141 51.5 244t146.5 158.5t224 55.5q122 0 213 -50t144 -146t62 -230v0h-172v0q-8 82 -41 141t-86 90t-120 31q-76 0 -132.5 -35.5t-87 -102t-30.5 -156.5v-569q0 -90 30.5 -156t87 -101.5t132.5 -35.5q68 0 120.5 30.5
t85.5 89t41 142.5v0h172v0q-9 -134 -62 -230t-144 -146t-213 -50q-129 0 -224 55zM262 1786l95 100l191 -151l190 151l96 -100l-286 -231z" />
    <glyph glyph-name="ccaron" unicode="&#x10d;" horiz-adv-x="896" 
d="M284 29q-85 44 -129.5 129t-44.5 207v304q0 123 44.5 209.5t129.5 131t208 44.5q98 0 170 -30t116.5 -89t59.5 -145v0l-161 -50v0q-17 76 -63.5 115.5t-118.5 39.5q-104 0 -159 -58.5t-55 -167.5v-304q0 -106 55 -163t159 -57q74 0 121.5 37.5t64.5 110.5v0l158 -52v0
q-15 -83 -59.5 -141t-117 -86.5t-170.5 -28.5q-123 0 -208 44zM200 1523l101 90l176 -187l177 187l101 -90l-278 -289z" />
    <glyph glyph-name="Dcaron" unicode="&#x10e;" horiz-adv-x="1114" 
d="M259 161h319q117 0 178 60t61 174v665q0 114 -61 174t-178 60h-319v160h313q135 0 228 -46t141 -136t48 -220v-650q0 -130 -48 -219.5t-141.5 -136t-228.5 -46.5h-312v161zM140 1454h171v-1454h-171v1454zM240 1786l95 100l191 -151l190 151l96 -100l-286 -231z" />
    <glyph glyph-name="dcaron" unicode="&#x10f;" horiz-adv-x="1179" 
d="M664 1454h170v-1454h-170v1454zM248.5 26q-67.5 43 -103 125t-35.5 198v334q0 118 35 201.5t101.5 127t160.5 43.5q89 0 161 -47t117 -137l-21 -176q0 61 -22.5 108t-65 73t-102.5 26q-92 0 -142.5 -58.5t-50.5 -165.5v-327q0 -102 50.5 -158.5t142.5 -56.5
q59 0 102 26.5t65.5 73t22.5 107.5l14 -180q-32 -86 -100.5 -133t-165.5 -47q-96 0 -163.5 43zM997 1469h156v-170l-156 -136v306z" />
    <glyph glyph-name="Dcroat" unicode="&#x110;" horiz-adv-x="1149" 
d="M294 161h319q117 0 178 60t61 174v665q0 114 -61 174t-178 60h-319v160h313q135 0 228 -46t141 -136t48 -220v-650q0 -130 -48 -219.5t-141.5 -136t-228.5 -46.5h-312v161zM175 1454h171v-1454h-171v1454zM606 801v-147h-572v147h572z" />
    <glyph glyph-name="dcroat" unicode="&#x111;" horiz-adv-x="964" 
d="M359 1344h589v-160h-589v160zM664 1454h170v-1454h-170v1454zM248.5 26q-67.5 43 -103 125t-35.5 198v334q0 118 35 201.5t101.5 127t160.5 43.5q89 0 161 -47t117 -137l-21 -176q0 61 -22.5 108t-65 73t-102.5 26q-92 0 -142.5 -58.5t-50.5 -165.5v-327
q0 -102 50.5 -158.5t142.5 -56.5q59 0 102 26.5t65.5 73t22.5 107.5l14 -180q-32 -86 -100.5 -133t-165.5 -47q-96 0 -163.5 43z" />
    <glyph glyph-name="Emacron" unicode="&#x112;" horiz-adv-x="999" 
d="M140 1454h171v-1454h-171v1454zM239 161h680v-161h-680v161zM239 802h600v-160h-600v160zM239 1454h680v-160h-680v160zM861 1742v-166h-630v166h630z" />
    <glyph glyph-name="emacron" unicode="&#x113;" horiz-adv-x="950" 
d="M287.5 32.5q-86.5 47.5 -132 138t-45.5 219.5v239q0 135 44 230t127.5 145t201.5 50q114 0 195 -50t123.5 -145t42.5 -230v-180h-617v147h453v60q0 115 -52 178.5t-145 63.5q-100 0 -155 -67.5t-55 -190.5v-255q0 -114 58.5 -177t164.5 -63q68 0 114.5 33t64.5 94v0
l157 -50v0q-29 -115 -115.5 -176t-220.5 -61q-122 0 -208.5 47.5zM794 1417v-167h-630v167h630z" />
    <glyph glyph-name="Edotaccent" unicode="&#x116;" horiz-adv-x="999" 
d="M140 1454h171v-1454h-171v1454zM239 161h680v-161h-680v161zM239 802h600v-160h-600v160zM239 1454h680v-160h-680v160zM461 1746h170v-171h-170v171z" />
    <glyph glyph-name="edotaccent" unicode="&#x117;" horiz-adv-x="950" 
d="M287.5 32.5q-86.5 47.5 -132 138t-45.5 219.5v239q0 135 44 230t127.5 145t201.5 50q114 0 195 -50t123.5 -145t42.5 -230v-180h-617v147h453v60q0 115 -52 178.5t-145 63.5q-100 0 -155 -67.5t-55 -190.5v-255q0 -114 58.5 -177t164.5 -63q68 0 114.5 33t64.5 94v0
l157 -50v0q-29 -115 -115.5 -176t-220.5 -61q-122 0 -208.5 47.5zM394 1422h171v-170h-171v170z" />
    <glyph glyph-name="Eogonek" unicode="&#x118;" horiz-adv-x="999" 
d="M140 1454h171v-1454h-171v1454zM239 161h680v-161h-680v161zM239 802h600v-160h-600v160zM239 1454h680v-160h-680v160zM620 -356q-75 64 -75 193q0 136 72 203t218 67h28v-107h-28q-136 0 -136 -144q0 -137 147 -137h75v-139h-75q-151 0 -226 64z" />
    <glyph glyph-name="eogonek" unicode="&#x119;" horiz-adv-x="950" 
d="M549 -358.5q-66 51.5 -66 163.5q0 98 62.5 180.5t193.5 161.5l56 -41l-16 -13q-76 -67 -110.5 -129.5t-34.5 -129.5q0 -54 29.5 -78.5t92.5 -24.5h56v-141h-56q-141 0 -207 51.5zM287.5 32.5q-86.5 47.5 -132 138.5t-45.5 219v239q0 135 44 230.5t127.5 145.5t201.5 50
q114 0 195 -50t123.5 -145.5t42.5 -230.5v-179h-617v146h453v61q-2 115 -53.5 178.5t-143.5 63.5q-100 0 -154.5 -67.5t-54.5 -191.5v-254q0 -115 58 -178t164 -63q67 0 118.5 32.5t77.5 91.5v3l140 -57v-3q-39 -108 -127 -167.5t-209 -59.5q-122 0 -208.5 47.5z" />
    <glyph glyph-name="Ecaron" unicode="&#x11a;" horiz-adv-x="999" 
d="M140 1454h171v-1454h-171v1454zM239 161h680v-161h-680v161zM239 802h600v-160h-600v160zM239 1454h680v-160h-680v160zM260 1786l95 100l191 -151l190 151l96 -100l-286 -231z" />
    <glyph glyph-name="ecaron" unicode="&#x11b;" horiz-adv-x="950" 
d="M287.5 32.5q-86.5 47.5 -132 138t-45.5 219.5v239q0 135 44 230t127.5 145t201.5 50q114 0 195 -50t123.5 -145t42.5 -230v-180h-617v147h453v60q0 115 -52 178.5t-145 63.5q-100 0 -155 -67.5t-55 -190.5v-255q0 -114 58.5 -177t164.5 -63q68 0 114.5 33t64.5 94v0
l157 -50v0q-29 -115 -115.5 -176t-220.5 -61q-122 0 -208.5 47.5zM202 1523l101 90l176 -187l177 187l101 -90l-278 -289z" />
    <glyph glyph-name="Gbreve" unicode="&#x11e;" horiz-adv-x="1114" 
d="M989 773v-329q0 -145 -50.5 -248.5t-146.5 -157t-232 -53.5q-138 0 -235.5 50.5t-148.5 147.5t-51 234v594q0 145 50.5 248t146.5 156.5t232 53.5q129 0 219.5 -49t142 -145.5t61.5 -238.5v0h-184v0q-8 89 -38.5 149t-81 90t-119.5 30q-82 0 -139.5 -34.5t-87.5 -100.5
t-30 -159v-594q0 -85 30.5 -145t90 -91.5t142.5 -31.5q81 0 138 33.5t87 98t30 159.5v172h-255v161h429zM862 1863q0 -146 -78 -225.5t-220 -79.5h-8q-142 0 -220 79.5t-78 225.5l148 -2q0 -82 39.5 -127t110.5 -45h8q72 0 111.5 45t39.5 127z" />
    <glyph glyph-name="gbreve" unicode="&#x11f;" horiz-adv-x="964" 
d="M228.5 -358.5q-84.5 63.5 -103.5 183.5v0l157 48v0q15 -69 61 -106.5t116 -37.5q98 0 151.5 54.5t53.5 155.5v1099h170v-1087q0 -118 -44.5 -201.5t-130 -127.5t-206.5 -44q-140 0 -224.5 63.5zM248.5 26q-67.5 43 -103 125t-35.5 197v335q0 117 35 200.5t101.5 127.5
t160.5 44q89 0 161.5 -47t116.5 -138l-21 -174q0 62 -22.5 109t-65 73t-101.5 26q-93 0 -144 -59t-51 -165v-331q0 -102 51 -158t144 -56q58 0 101 26t65.5 73t22.5 108l14 -179q-32 -86 -100.5 -133t-165.5 -47q-96 0 -163.5 43zM271.5 1315q-68.5 77 -68.5 227v35h144v-36
q0 -83 31.5 -125.5t92.5 -42.5h18q61 0 92.5 42.5t31.5 125.5v36h144v-35q0 -150 -68.5 -227t-199.5 -77h-18q-131 0 -199.5 77z" />
    <glyph glyph-name="Gdotaccent" unicode="&#x120;" horiz-adv-x="1114" 
d="M989 773v-329q0 -145 -50.5 -248.5t-146.5 -157t-232 -53.5q-138 0 -235.5 50.5t-148.5 147.5t-51 234v594q0 145 50.5 248t146.5 156.5t232 53.5q129 0 219.5 -49t142 -145.5t61.5 -238.5v0h-184v0q-8 89 -38.5 149t-81 90t-119.5 30q-82 0 -139.5 -34.5t-87.5 -100.5
t-30 -159v-594q0 -85 30.5 -145t90 -91.5t142.5 -31.5q81 0 138 33.5t87 98t30 159.5v172h-255v161h429zM475 1746h170v-171h-170v171z" />
    <glyph glyph-name="gdotaccent" unicode="&#x121;" horiz-adv-x="964" 
d="M228.5 -358.5q-84.5 63.5 -103.5 183.5v0l157 48v0q15 -69 61 -106.5t116 -37.5q98 0 151.5 54.5t53.5 155.5v1099h170v-1087q0 -118 -44.5 -201.5t-130 -127.5t-206.5 -44q-140 0 -224.5 63.5zM248.5 26q-67.5 43 -103 125t-35.5 197v335q0 117 35 200.5t101.5 127.5
t160.5 44q89 0 161.5 -47t116.5 -138l-21 -174q0 62 -22.5 109t-65 73t-101.5 26q-93 0 -144 -59t-51 -165v-331q0 -102 51 -158t144 -56q58 0 101 26t65.5 73t22.5 108l14 -179q-32 -86 -100.5 -133t-165.5 -47q-96 0 -163.5 43zM394 1422h171v-170h-171v170z" />
    <glyph glyph-name="uni0122" unicode="&#x122;" horiz-adv-x="1114" 
d="M989 773v-329q0 -145 -50.5 -248.5t-146.5 -157t-232 -53.5q-138 0 -235.5 50.5t-148.5 147.5t-51 234v594q0 145 50.5 248t146.5 156.5t232 53.5q129 0 219.5 -49t142 -145.5t61.5 -238.5v0h-184v0q-8 89 -38.5 149t-81 90t-119.5 30q-82 0 -139.5 -34.5t-87.5 -100.5
t-30 -159v-594q0 -85 30.5 -145t90 -91.5t142.5 -31.5q81 0 138 33.5t87 98t30 159.5v172h-255v161h429zM475 -183h170v-134l-170 -177v311z" />
    <glyph glyph-name="uni0123" unicode="&#x123;" horiz-adv-x="964" 
d="M389 1371l171 177v-297h-171v120zM236.5 -361q-85.5 61 -111.5 171v6l142 54v-7q22 -64 71.5 -99t116.5 -35q100 0 154.5 55t54.5 155v1099h170v-1087q0 -118 -44.5 -201.5t-130 -127.5t-206.5 -44q-131 0 -216.5 61zM248.5 26q-67.5 43 -103 125t-35.5 198v334
q0 118 35 201.5t101.5 127t160.5 43.5q89 0 161.5 -47t116.5 -137l-21 -174q0 61 -22.5 107.5t-65 73t-102.5 26.5q-92 0 -143 -59t-51 -165v-331q0 -102 51 -158t143 -56q59 0 102 26t65.5 73t22.5 108l14 -179q-32 -86 -100.5 -133t-165.5 -47q-96 0 -163.5 43z" />
    <glyph glyph-name="Hbar" unicode="&#x126;" horiz-adv-x="1230" 
d="M80 1198h1070v-162h-1070v162zM870 1454h170v-1454h-170v1454zM190 1454h171v-1454h-171v1454zM310 798h641v-162h-641v162z" />
    <glyph glyph-name="hbar" unicode="&#x127;" horiz-adv-x="1012" 
d="M611 1349v-160h-600v160h600zM148 1454h171v-1454h-171v1454zM712 678q0 106 -51 161.5t-148 55.5q-95 0 -144.5 -53t-49.5 -155l-21 180q43 94 116 141t168 47q146 0 223 -93.5t77 -269.5v-692h-170v678z" />
    <glyph glyph-name="Imacron" unicode="&#x12a;" horiz-adv-x="475" 
d="M323 0h-171v1454h171v-1454zM553 1742v-166h-630v166h630z" />
    <glyph glyph-name="imacron" unicode="&#x12b;" horiz-adv-x="460" 
d="M147 1038h171v-1038h-171v1038zM548 1417v-167h-630v167h630z" />
    <glyph glyph-name="Iogonek" unicode="&#x12e;" horiz-adv-x="475" 
d="M98.5 -356q-75.5 64 -75.5 193q0 136 71 203t214 67v-107q-131 0 -131 -144q0 -137 150 -137h62v-139h-62q-153 0 -228.5 64zM323 0h-171v1454h171v-1454z" />
    <glyph glyph-name="iogonek" unicode="&#x12f;" horiz-adv-x="460" 
d="M147 1038h171v-1038h-171v1038zM147 1422h171v-170h-171v170zM70.5 -374q-59.5 46 -59.5 149q0 84 61 150.5t184 117.5l62 -43q-81 -48 -118.5 -95t-37.5 -104q0 -42 24 -61t76 -19h56v-141h-56q-132 0 -191.5 46z" />
    <glyph glyph-name="Idotaccent" unicode="&#x130;" horiz-adv-x="475" 
d="M323 0h-171v1454h171v-1454zM153 1746h170v-171h-170v171z" />
    <glyph glyph-name="dotlessi" unicode="&#x131;" horiz-adv-x="460" 
d="M147 1038h171v-1038h-171v1038z" />
    <glyph glyph-name="uni0136" unicode="&#x136;" horiz-adv-x="1094" 
d="M265 583l569 871h202l-765 -1127zM140 1454h171v-1454h-171v1454zM517 776l116 149l456 -925h-202zM486 -183h170v-134l-170 -177v311z" />
    <glyph glyph-name="uni0137" unicode="&#x137;" horiz-adv-x="953" 
d="M228 362l497 676h192l-696 -891zM135 1454h171v-1454h-171v1454zM469 563l102 138l392 -701h-192zM417 -183h170v-134l-170 -177v311z" />
    <glyph glyph-name="Lacute" unicode="&#x139;" horiz-adv-x="964" 
d="M140 1454h171v-1454h-171v1454zM242 161h667v-161h-667v161zM146 1648l265 250l122 -122l-283 -229z" />
    <glyph glyph-name="lacute" unicode="&#x13a;" horiz-adv-x="533" 
d="M306 272q0 -53 24.5 -83t68.5 -30h79v-160h-100q-116 0 -179.5 72t-63.5 203v1180h171v-1182zM134 1648l265 250l122 -122l-283 -229z" />
    <glyph glyph-name="uni013B" unicode="&#x13b;" horiz-adv-x="964" 
d="M140 1454h171v-1454h-171v1454zM242 161h667v-161h-667v161zM389 -183h170v-134l-170 -177v311z" />
    <glyph glyph-name="uni013C" unicode="&#x13c;" horiz-adv-x="533" 
d="M306 272q0 -53 24.5 -83t68.5 -30h79v-160h-100q-116 0 -179.5 72t-63.5 203v1180h171v-1182zM184 -183h170v-134l-170 -177v311z" />
    <glyph glyph-name="Lcaron" unicode="&#x13d;" horiz-adv-x="964" 
d="M140 1454h171v-1454h-171v1454zM242 161h667v-161h-667v161zM727 1438h156v-170l-156 -136v306z" />
    <glyph glyph-name="lcaron" unicode="&#x13e;" horiz-adv-x="693" 
d="M306 272q0 -53 24.5 -83t68.5 -30h79v-160h-100q-116 0 -179.5 72t-63.5 203v1180h171v-1182zM471 1470h156v-170l-156 -136v306z" />
    <glyph glyph-name="Lslash" unicode="&#x141;" horiz-adv-x="1029" 
d="M80 702l637 288v-167l-637 -288v167zM205 1454h171v-1454h-171v1454zM307 161h667v-161h-667v161z" />
    <glyph glyph-name="lslash" unicode="&#x142;" horiz-adv-x="533" 
d="M15 702l463 234v-167l-463 -234v167zM306 272q0 -53 24.5 -83t68.5 -30h79v-160h-100q-116 0 -179.5 72t-63.5 203v1180h171v-1182z" />
    <glyph glyph-name="Nacute" unicode="&#x143;" horiz-adv-x="1174" 
d="M140 1454h158l603 -1186l-34 -9v1195h167v-1453h-160l-606 1175l39 6v-1181h-167v1453zM506 1648l265 250l122 -122l-283 -229z" />
    <glyph glyph-name="nacute" unicode="&#x144;" horiz-adv-x="999" 
d="M135 1038h171v-1038h-171v1038zM699 678q0 106 -51 161.5t-148 55.5q-95 0 -144.5 -53.5t-49.5 -155.5l-21 175q43 97 116 145.5t168 48.5q146 0 223 -93.5t77 -269.5v-692h-170v678zM400 1314l266 355l129 -101l-285 -336z" />
    <glyph glyph-name="uni0145" unicode="&#x145;" horiz-adv-x="1174" 
d="M140 1454h158l603 -1186l-34 -9v1195h167v-1453h-160l-606 1175l39 6v-1181h-167v1453zM517 -183h170v-134l-170 -177v311z" />
    <glyph glyph-name="uni0146" unicode="&#x146;" horiz-adv-x="999" 
d="M135 1038h171v-1038h-171v1038zM699 678q0 106 -51 161.5t-148 55.5q-95 0 -144.5 -53.5t-49.5 -155.5l-21 175q43 97 116 145.5t168 48.5q146 0 223 -93.5t77 -269.5v-692h-170v678zM412 -183h170v-134l-170 -177v311z" />
    <glyph glyph-name="Ncaron" unicode="&#x147;" horiz-adv-x="1174" 
d="M140 1454h158l603 -1186l-34 -9v1195h167v-1453h-160l-606 1175l39 6v-1181h-167v1453zM316 1786l95 100l191 -151l190 151l96 -100l-286 -231z" />
    <glyph glyph-name="ncaron" unicode="&#x148;" horiz-adv-x="999" 
d="M135 1038h171v-1038h-171v1038zM699 678q0 106 -51 161.5t-148 55.5q-95 0 -144.5 -53.5t-49.5 -155.5l-21 175q43 97 116 145.5t168 48.5q146 0 223 -93.5t77 -269.5v-692h-170v678zM220 1523l101 90l176 -187l177 187l101 -90l-278 -289z" />
    <glyph glyph-name="Eng" unicode="&#x14a;" horiz-adv-x="1174" 
d="M140 1454h158l603 -1186l-34 -9v1195h167v-1390l-160 -63l-606 1175l39 6v-1181h-167v1453zM682 -210h89q44 0 68.5 30t24.5 83v331h170v-329q0 -131 -63.5 -203t-179.5 -72h-109v160z" />
    <glyph glyph-name="eng" unicode="&#x14b;" horiz-adv-x="999" 
d="M522 -261h84q44 0 68.5 29.5t24.5 83.5v286h170v-285q0 -131 -63.5 -203t-179.5 -72h-104v161zM135 1038h171v-1038h-171v1038zM699 678q0 106 -51 161.5t-148 55.5q-95 0 -144.5 -53.5t-49.5 -155.5l-21 175q43 97 116 145.5t168 48.5q146 0 223 -93.5t77 -269.5v-692
h-170v678z" />
    <glyph glyph-name="Omacron" unicode="&#x14c;" horiz-adv-x="1122" 
d="M327.5 39q-98.5 54 -150.5 155.5t-52 241.5v582q0 141 52 242.5t150.5 155t233.5 53.5q136 0 234 -53.5t150 -155t52 -242.5v-582q0 -140 -52 -241.5t-150 -155.5t-234 -54q-135 0 -233.5 54zM702.5 183.5q59.5 33.5 91 96t31.5 149.5v596q0 87 -31.5 149.5t-91 96
t-141.5 33.5t-141.5 -33.5t-91 -96t-31.5 -149.5v-596q0 -87 31.5 -149.5t91 -96t141.5 -33.5t141.5 33.5zM876 1742v-166h-630v166h630z" />
    <glyph glyph-name="omacron" unicode="&#x14d;" horiz-adv-x="946" 
d="M277.5 29.5q-81.5 44.5 -124.5 129t-43 203.5v321q0 117 43 200.5t124.5 127.5t196.5 44q114 0 195.5 -44t124 -127.5t42.5 -200.5v-324q0 -118 -42.5 -202t-124 -128t-195.5 -44q-115 0 -196.5 44.5zM615.5 203q50.5 56 50.5 158v320q0 101 -51 156.5t-142 55.5
q-92 0 -142 -55.5t-50 -156.5v-320q0 -102 50 -158t142 -56t142.5 56zM788 1417v-167h-630v167h630z" />
    <glyph glyph-name="Ohungarumlaut" unicode="&#x150;" horiz-adv-x="1122" 
d="M327.5 39q-98.5 54 -150.5 155.5t-52 241.5v582q0 141 52 242.5t150.5 155t233.5 53.5q136 0 234 -53.5t150 -155t52 -242.5v-582q0 -140 -52 -241.5t-150 -155.5t-234 -54q-135 0 -233.5 54zM702.5 183.5q59.5 33.5 91 96t31.5 149.5v596q0 87 -31.5 149.5t-91 96
t-141.5 33.5t-141.5 -33.5t-91 -96t-31.5 -149.5v-596q0 -87 31.5 -149.5t91 -96t141.5 -33.5t141.5 33.5zM617 1638l213 264l127 -113l-231 -245zM267 1638l213 264l127 -113l-231 -245z" />
    <glyph glyph-name="ohungarumlaut" unicode="&#x151;" horiz-adv-x="946" 
d="M277.5 29.5q-81.5 44.5 -124.5 129t-43 203.5v321q0 117 43 200.5t124.5 127.5t196.5 44q114 0 195.5 -44t124 -127.5t42.5 -200.5v-324q0 -118 -42.5 -202t-124 -128t-195.5 -44q-115 0 -196.5 44.5zM615.5 203q50.5 56 50.5 158v320q0 101 -51 156.5t-142 55.5
q-92 0 -142 -55.5t-50 -156.5v-320q0 -102 50 -158t142 -56t142.5 56zM533 1296l198 355l142 -91l-217 -336zM187 1296l199 355l142 -91l-217 -336z" />
    <glyph glyph-name="OE" unicode="&#x152;" horiz-adv-x="1631" 
d="M319.5 39q-94.5 54 -144.5 155.5t-50 241.5v582q0 141 50 242t144.5 155t224.5 54q111 0 189 -53.5t118.5 -155t40.5 -242.5v-582q0 -141 -40.5 -242t-118.5 -155t-189 -54q-130 0 -224.5 54zM697.5 185q54.5 34 84 97t29.5 148v594q0 85 -30 148t-84 97t-128 34
q-84 0 -145.5 -34t-94.5 -97t-33 -148v-594q0 -85 33 -148t94.5 -97t145.5 -34q74 0 128.5 34zM772 1454h170v-1454h-170v1454zM871 161h680v-161h-680v161zM871 802h600v-160h-600v160zM871 1454h680v-160h-680v160z" />
    <glyph glyph-name="oe" unicode="&#x153;" horiz-adv-x="1456" 
d="M268.5 29.5q-77.5 44.5 -118 129t-40.5 203.5v321q0 117 40.5 200.5t118 127t186.5 43.5q100 0 170.5 -43.5t106.5 -127t36 -200.5v-324q0 -119 -36 -202.5t-106.5 -127.5t-170.5 -44q-109 0 -186.5 44.5zM591.5 199.5q46.5 56.5 46.5 159.5v324q0 102 -46.5 158
t-130.5 56q-87 0 -135 -56t-48 -158v-324q0 -103 48 -159.5t135 -56.5q84 0 130.5 56.5zM827.5 32.5q-76.5 47.5 -116.5 138t-40 219.5v239q0 135 39 230t114.5 145t180.5 50q109 0 186.5 -50t118 -145t40.5 -230v-180h-609v144h450v62q0 115 -50.5 178t-141.5 63
q-98 0 -152 -67t-54 -189v-255q0 -113 56.5 -175t158.5 -62q64 0 109 32t64 92v0l157 -50v0q-28 -113 -113.5 -175t-212.5 -62q-108 0 -184.5 47.5z" />
    <glyph glyph-name="Racute" unicode="&#x154;" horiz-adv-x="1130" 
d="M229 776h382q64 0 111.5 26.5t73 76t25.5 116.5v75q0 68 -25.5 119t-72.5 78.5t-112 27.5h-382v160h372q120 0 209 -45t136.5 -130t47.5 -200v-85q0 -116 -48 -202t-136.5 -132t-208.5 -46h-372v161zM140 1455h171v-1455h-171v1455zM582 660l161 46l302 -706h-197z
M442 1648l265 250l122 -122l-283 -229z" />
    <glyph glyph-name="racute" unicode="&#x155;" horiz-adv-x="757" 
d="M135 1038h171v-1038h-171v1038zM626 883.5q-25 8.5 -58 8.5q-122 0 -191 -62.5t-71 -173.5l-21 201q53 94 138 146t187 52q36 0 64.5 -10.5t50.5 -30.5l-57 -156q-17 17 -42 25.5zM325 1314l266 355l129 -101l-285 -336z" />
    <glyph glyph-name="uni0156" unicode="&#x156;" horiz-adv-x="1130" 
d="M229 776h382q64 0 111.5 26.5t73 76t25.5 116.5v75q0 68 -25.5 119t-72.5 78.5t-112 27.5h-382v160h372q120 0 209 -45t136.5 -130t47.5 -200v-85q0 -116 -48 -202t-136.5 -132t-208.5 -46h-372v161zM140 1455h171v-1455h-171v1455zM582 660l161 46l302 -706h-197z
M453 -183h170v-134l-170 -177v311z" />
    <glyph glyph-name="uni0157" unicode="&#x157;" horiz-adv-x="757" 
d="M135 1038h171v-1038h-171v1038zM626 883.5q-25 8.5 -58 8.5q-122 0 -191 -62.5t-71 -173.5l-21 201q53 94 138 146t187 52q36 0 64.5 -10.5t50.5 -30.5l-57 -156q-17 17 -42 25.5zM145 -183h170v-134l-170 -177v311z" />
    <glyph glyph-name="Rcaron" unicode="&#x158;" horiz-adv-x="1130" 
d="M229 776h382q64 0 111.5 26.5t73 76t25.5 116.5v75q0 68 -25.5 119t-72.5 78.5t-112 27.5h-382v160h372q120 0 209 -45t136.5 -130t47.5 -200v-85q0 -116 -48 -202t-136.5 -132t-208.5 -46h-372v161zM140 1455h171v-1455h-171v1455zM582 660l161 46l302 -706h-197z
M252 1786l95 100l191 -151l190 151l96 -100l-286 -231z" />
    <glyph glyph-name="rcaron" unicode="&#x159;" horiz-adv-x="757" 
d="M135 1038h171v-1038h-171v1038zM626 883.5q-25 8.5 -58 8.5q-122 0 -191 -62.5t-71 -173.5l-21 201q53 94 138 146t187 52q36 0 64.5 -10.5t50.5 -30.5l-57 -156q-17 17 -42 25.5zM145 1523l101 90l176 -187l177 187l101 -90l-278 -289z" />
    <glyph glyph-name="Sacute" unicode="&#x15a;" horiz-adv-x="1072" 
d="M325.5 18q-89.5 33 -149.5 100.5t-86 168.5v0l162 66v0q29 -104 101.5 -155.5t177.5 -51.5q131 0 201.5 57t70.5 162v54q0 71 -35.5 116.5t-90.5 71t-145 52.5q-2 1 -4.5 2t-5.5 1l-19 7q-122 36 -197 71.5t-128 109.5t-53 199v39q0 122 50.5 207.5t147.5 129.5t236 44
q105 0 184 -32t131.5 -96t78.5 -161v0l-158 -67v0q-30 98 -89 146.5t-147 48.5q-128 0 -196.5 -56t-68.5 -160v-41q0 -71 38.5 -115.5t96 -69.5t157.5 -54q4 -1 8 -2.5t8 -2.5t9 -2.5t9 -3.5q110 -33 182.5 -71t121 -112t48.5 -194v-57q0 -123 -51 -208.5t-150 -129.5
t-240 -44q-116 0 -205.5 33zM446 1648l265 250l122 -122l-283 -229z" />
    <glyph glyph-name="sacute" unicode="&#x15b;" horiz-adv-x="900" 
d="M256 12q-76 27 -126 80.5t-75 132.5v0l147 66v0q36 -78 94 -117t136 -39q105 0 161 42.5t56 122.5q0 51 -29 80.5t-72.5 42.5t-120.5 26q-6 2 -12 3l-12 2q-4 1 -7 1t-6 1q-92 17 -155 42t-105 83.5t-42 161.5q0 101 40.5 170.5t119.5 105t192 35.5q91 0 159.5 -23.5
t115.5 -71.5t72 -119v0l-148 -66v0q-32 64 -82.5 97.5t-117.5 33.5q-93 0 -141 -40.5t-48 -117.5q0 -52 29 -79.5t73.5 -40.5t122.5 -25h4t4 -1q3 0 5.5 -0.5t4.5 -0.5q97 -16 162.5 -40.5t110.5 -86t45 -173.5q0 -102 -44 -172.5t-128 -106.5t-207 -36q-100 0 -176 27z
M352 1314l266 355l129 -101l-285 -336z" />
    <glyph glyph-name="Scedilla" unicode="&#x15e;" horiz-adv-x="1072" 
d="M325.5 18q-89.5 33 -149.5 100.5t-86 168.5v0l162 66v0q29 -104 101.5 -155.5t177.5 -51.5q131 0 201.5 57t70.5 162v54q0 71 -35.5 116.5t-90.5 71t-145 52.5q-2 1 -4.5 2t-5.5 1l-19 7q-122 36 -197 71.5t-128 109.5t-53 199v39q0 122 50.5 207.5t147.5 129.5t236 44
q105 0 184 -32t131.5 -96t78.5 -161v0l-158 -67v0q-30 98 -89 146.5t-147 48.5q-128 0 -196.5 -56t-68.5 -160v-41q0 -71 38.5 -115.5t96 -69.5t157.5 -54q4 -1 8 -2.5t8 -2.5t9 -2.5t9 -3.5q110 -33 182.5 -71t121 -112t48.5 -194v-57q0 -123 -51 -208.5t-150 -129.5
t-240 -44q-116 0 -205.5 33zM385 -404l35 119q56 -14 111 -14q52 0 78.5 15.5t26.5 45.5t-37 45t-110 15l73 99q110 0 167.5 -43.5t57.5 -127.5t-61.5 -128t-179.5 -44q-92 0 -161 18zM611 61v-240l-138 1v239h138z" />
    <glyph glyph-name="scedilla" unicode="&#x15f;" horiz-adv-x="900" 
d="M256 12q-76 27 -126 80.5t-75 132.5v0l147 66v0q36 -78 94 -117t136 -39q105 0 161 42.5t56 122.5q0 51 -29 80.5t-72.5 42.5t-120.5 26q-6 2 -12 3l-12 2q-4 1 -7 1t-6 1q-92 17 -155 42t-105 83.5t-42 161.5q0 101 40.5 170.5t119.5 105t192 35.5q91 0 159.5 -23.5
t115.5 -71.5t72 -119v0l-148 -66v0q-32 64 -82.5 97.5t-117.5 33.5q-93 0 -141 -40.5t-48 -117.5q0 -52 29 -79.5t73.5 -40.5t122.5 -25h4t4 -1q3 0 5.5 -0.5t4.5 -0.5q97 -16 162.5 -40.5t110.5 -86t45 -173.5q0 -102 -44 -172.5t-128 -106.5t-207 -36q-100 0 -176 27z
M281 -408l35 119q59 -14 116 -14q47 0 71.5 15.5t24.5 45.5t-34.5 45t-103.5 15l73 99q105 0 160.5 -43.5t55.5 -127.5t-59.5 -128t-172.5 -44q-97 0 -166 18zM374 87h138v-269h-138v269z" />
    <glyph glyph-name="Scaron" unicode="&#x160;" horiz-adv-x="1072" 
d="M325.5 18q-89.5 33 -149.5 100.5t-86 168.5v0l162 66v0q29 -104 101.5 -155.5t177.5 -51.5q131 0 201.5 57t70.5 162v54q0 71 -35.5 116.5t-90.5 71t-145 52.5q-2 1 -4.5 2t-5.5 1l-19 7q-122 36 -197 71.5t-128 109.5t-53 199v39q0 122 50.5 207.5t147.5 129.5t236 44
q105 0 184 -32t131.5 -96t78.5 -161v0l-158 -67v0q-30 98 -89 146.5t-147 48.5q-128 0 -196.5 -56t-68.5 -160v-41q0 -71 38.5 -115.5t96 -69.5t157.5 -54q4 -1 8 -2.5t8 -2.5t9 -2.5t9 -3.5q110 -33 182.5 -71t121 -112t48.5 -194v-57q0 -123 -51 -208.5t-150 -129.5
t-240 -44q-116 0 -205.5 33zM256 1786l95 100l191 -151l190 151l96 -100l-286 -231z" />
    <glyph glyph-name="scaron" unicode="&#x161;" horiz-adv-x="900" 
d="M256 12q-76 27 -126 80.5t-75 132.5v0l147 66v0q36 -78 94 -117t136 -39q105 0 161 42.5t56 122.5q0 51 -29 80.5t-72.5 42.5t-120.5 26q-6 2 -12 3l-12 2q-4 1 -7 1t-6 1q-92 17 -155 42t-105 83.5t-42 161.5q0 101 40.5 170.5t119.5 105t192 35.5q91 0 159.5 -23.5
t115.5 -71.5t72 -119v0l-148 -66v0q-32 64 -82.5 97.5t-117.5 33.5q-93 0 -141 -40.5t-48 -117.5q0 -52 29 -79.5t73.5 -40.5t122.5 -25h4t4 -1q3 0 5.5 -0.5t4.5 -0.5q97 -16 162.5 -40.5t110.5 -86t45 -173.5q0 -102 -44 -172.5t-128 -106.5t-207 -36q-100 0 -176 27z
M172 1523l101 90l176 -187l177 187l101 -90l-278 -289z" />
    <glyph glyph-name="uni0162" unicode="&#x162;" horiz-adv-x="846" 
d="M338 1350h170v-1350h-170v1350zM-10 1454h866v-160h-866v160zM266 -404l35 119q56 -14 111 -14q52 0 78.5 15.5t26.5 45.5t-37 45t-110 15l73 99q110 0 167.5 -43.5t57.5 -127.5t-61.5 -128t-179.5 -44q-92 0 -161 18zM492 61v-240l-138 1v239h138z" />
    <glyph glyph-name="uni0163" unicode="&#x163;" horiz-adv-x="603" 
d="M220.5 64.5q-58.5 69.5 -58.5 205.5v1070h170v-1071q0 -55 24 -84t70 -29h87v-161h-108q-126 0 -184.5 69.5zM55 1038h458v-155h-458v155zM142 -404l35 119q59 -14 116 -14q47 0 71.5 15.5t24.5 45.5t-34.5 45t-103.5 15l73 99q105 0 160.5 -43.5t55.5 -127.5t-59.5 -128
t-172.5 -44q-97 0 -166 18zM235 91h138v-269h-138v269z" />
    <glyph glyph-name="Tcaron" unicode="&#x164;" horiz-adv-x="846" 
d="M338 1350h170v-1350h-170v1350zM-10 1454h866v-160h-866v160zM137 1786l95 100l191 -151l190 151l96 -100l-286 -231z" />
    <glyph glyph-name="tcaron" unicode="&#x165;" horiz-adv-x="703" 
d="M220.5 64.5q-58.5 69.5 -58.5 205.5v1070h170v-1071q0 -55 24 -84t70 -29h87v-161h-108q-126 0 -184.5 69.5zM55 1038h458v-155h-458v155zM472 1533h156v-170l-156 -136v306z" />
    <glyph glyph-name="Umacron" unicode="&#x16a;" horiz-adv-x="1092" 
d="M314.5 35q-93.5 50 -141.5 148t-48 241v1030h171v-1037q0 -130 63 -197.5t186 -67.5q124 0 188 67.5t64 197.5v1037h170v-1030q0 -143 -48 -241t-142 -148t-232 -50q-137 0 -230.5 50zM861 1742v-166h-630v166h630z" />
    <glyph glyph-name="umacron" unicode="&#x16b;" horiz-adv-x="987" 
d="M687 1038h170v-1038h-170v1038zM305 344q0 -94 50 -145.5t142 -51.5t141 48t49 139l14 -174q-32 -81 -99 -128t-166 -47q-145 0 -223 93t-78 264v696h170v-694zM808 1417v-167h-630v167h630z" />
    <glyph glyph-name="Ubreve" unicode="&#x16c;" horiz-adv-x="1092" 
d="M314.5 35q-93.5 50 -141.5 148t-48 241v1030h171v-1037q0 -130 63 -197.5t186 -67.5q124 0 188 67.5t64 197.5v1037h170v-1030q0 -143 -48 -241t-142 -148t-232 -50q-137 0 -230.5 50zM848 1863q0 -146 -78 -225.5t-220 -79.5h-8q-142 0 -220 79.5t-78 225.5l148 -2
q0 -82 39.5 -127t110.5 -45h8q72 0 111.5 45t39.5 127z" />
    <glyph glyph-name="ubreve" unicode="&#x16d;" horiz-adv-x="987" 
d="M687 1038h170v-1038h-170v1038zM305 344q0 -94 50 -145.5t142 -51.5t141 48t49 139l14 -174q-32 -81 -99 -128t-166 -47q-145 0 -223 93t-78 264v696h170v-694zM284.5 1315q-68.5 77 -68.5 227v35h144v-36q0 -83 31.5 -125.5t92.5 -42.5h18q61 0 92.5 42.5t31.5 125.5v36
h144v-35q0 -150 -68.5 -227t-199.5 -77h-18q-131 0 -199.5 77z" />
    <glyph glyph-name="Uring" unicode="&#x16e;" horiz-adv-x="1092" 
d="M314.5 35q-93.5 50 -141.5 148t-48 241v1030h171v-1037q0 -130 63 -197.5t186 -67.5q124 0 188 67.5t64 197.5v1037h170v-1030q0 -143 -48 -241t-142 -148t-232 -50q-137 0 -230.5 50zM372.5 1602.5q-61.5 60.5 -61.5 170.5q0 116 61.5 178.5t173.5 62.5t173.5 -63
t61.5 -178q0 -110 -61.5 -170.5t-173.5 -60.5t-173.5 60.5zM626.5 1688q28.5 32 28.5 89q0 59 -28.5 91.5t-80.5 32.5t-80.5 -32.5t-28.5 -91.5q0 -57 28.5 -89t80.5 -32t80.5 32z" />
    <glyph glyph-name="uring" unicode="&#x16f;" horiz-adv-x="987" 
d="M687 1038h170v-1038h-170v1038zM305 344q0 -94 50 -145.5t142 -51.5t141 48t49 139l14 -174q-32 -81 -99 -128t-166 -47q-145 0 -223 93t-78 264v696h170v-694zM322.5 1295.5q-59.5 59.5 -59.5 171.5q0 117 59.5 179t170.5 62t170.5 -62.5t59.5 -178.5
q0 -112 -59.5 -171.5t-170.5 -59.5t-170.5 59.5zM571.5 1380.5q27.5 32.5 27.5 90.5q0 60 -27.5 93t-78.5 33t-78.5 -32.5t-27.5 -93.5q0 -59 27.5 -91t78.5 -32t78.5 32.5z" />
    <glyph glyph-name="Uhungarumlaut" unicode="&#x170;" horiz-adv-x="1092" 
d="M314.5 35q-93.5 50 -141.5 148t-48 241v1030h171v-1037q0 -130 63 -197.5t186 -67.5q124 0 188 67.5t64 197.5v1037h170v-1030q0 -143 -48 -241t-142 -148t-232 -50q-137 0 -230.5 50zM602 1638l213 264l127 -113l-231 -245zM252 1638l213 264l127 -113l-231 -245z" />
    <glyph glyph-name="uhungarumlaut" unicode="&#x171;" horiz-adv-x="987" 
d="M687 1038h170v-1038h-170v1038zM305 344q0 -94 50 -145.5t142 -51.5t141 48t49 139l14 -174q-32 -81 -99 -128t-166 -47q-145 0 -223 93t-78 264v696h170v-694zM552 1296l198 355l142 -91l-217 -336zM206 1296l199 355l142 -91l-217 -336z" />
    <glyph glyph-name="Uogonek" unicode="&#x172;" horiz-adv-x="1092" 
d="M451 -356q-75 64 -75 193q0 124 65 185t197 61v-87q-108 0 -108 -140q0 -137 147 -137h70v-139h-70q-151 0 -226 64zM314.5 35q-93.5 50 -141.5 148t-48 241v1030h171v-1037q0 -130 63 -197.5t186 -67.5q124 0 188 67.5t64 197.5v1037h170v-1030q0 -143 -48 -241
t-142 -148t-232 -50q-137 0 -230.5 50z" />
    <glyph glyph-name="uogonek" unicode="&#x173;" horiz-adv-x="987" 
d="M687 1038h170v-1038h-170v1038zM305 344q0 -94 50 -145.5t142 -51.5t141 48t49 139l14 -174q-32 -81 -99 -128t-166 -47q-145 0 -223 93t-78 264v696h170v-694zM609.5 -374q-59.5 46 -59.5 149q0 84 61 150.5t184 117.5l62 -43q-81 -48 -118.5 -95t-37.5 -104
q0 -42 24 -61t76 -19h56v-141h-56q-132 0 -191.5 46z" />
    <glyph glyph-name="Ydieresis" unicode="&#x178;" horiz-adv-x="875" 
d="M525 600v-600h-170v600l-380 854h181l284 -671l279 671h181zM537 1757h178v-178h-178v178zM162 1757h178v-178h-178v178z" />
    <glyph glyph-name="Zacute" unicode="&#x179;" horiz-adv-x="929" 
d="M839 1314l-546 -1156h561v-158h-754v140l551 1156h-533v158h721v-140zM386 1648l265 250l122 -122l-283 -229z" />
    <glyph glyph-name="zacute" unicode="&#x17a;" horiz-adv-x="868" 
d="M756 896l-448 -737h475v-159h-678v146l461 733h-447v159h637v-142zM351 1314l266 355l129 -101l-285 -336z" />
    <glyph glyph-name="Zdotaccent" unicode="&#x17b;" horiz-adv-x="929" 
d="M839 1314l-546 -1156h561v-158h-754v140l551 1156h-533v158h721v-140zM397 1746h170v-171h-170v171z" />
    <glyph glyph-name="zdotaccent" unicode="&#x17c;" horiz-adv-x="868" 
d="M756 896l-448 -737h475v-159h-678v146l461 733h-447v159h637v-142zM363 1422h171v-170h-171v170z" />
    <glyph glyph-name="Zcaron" unicode="&#x17d;" horiz-adv-x="929" 
d="M839 1314l-546 -1156h561v-158h-754v140l551 1156h-533v158h721v-140zM196 1786l95 100l191 -151l190 151l96 -100l-286 -231z" />
    <glyph glyph-name="zcaron" unicode="&#x17e;" horiz-adv-x="868" 
d="M756 896l-448 -737h475v-159h-678v146l461 733h-447v159h637v-142zM171 1523l101 90l176 -187l177 187l101 -90l-278 -289z" />
    <glyph glyph-name="uni0181" unicode="&#x181;" horiz-adv-x="1313" 
d="M-10 1211q0 116 72 179.5t203 63.5h197v-159h-191q-53 0 -82 -25t-29 -71v-74h-170v86zM482 159h329q117 0 174 48.5t57 136.5v113q0 68 -24 116.5t-71 74t-116 25.5h-349v158h349q94 0 143 50t49 145v89q0 89 -52.5 134.5t-152.5 45.5h-336v159h351q117 0 198 -40
t122 -114t41 -178v-87q0 -72 -24 -131t-72 -99.5t-117 -54.5q72 -11 124.5 -53.5t80 -107.5t27.5 -145v-107q0 -103 -43 -179t-124 -117t-191 -41h-373v159zM362 1454h170v-1454h-170v1454z" />
    <glyph glyph-name="uni0186" unicode="&#x186;" horiz-adv-x="1061" 
d="M300 34q-91 49 -143.5 144.5t-61.5 232.5v0h172v0q8 -85 40.5 -143.5t85.5 -88.5t122 -30q76 0 132.5 35.5t86.5 101.5t30 156v569q0 90 -30 156.5t-86.5 102t-132.5 35.5q-69 0 -122 -30.5t-85.5 -89t-40.5 -142.5v0h-172v0q9 137 61 232.5t143 144.5t216 49
q129 0 224 -55.5t146 -158.5t51 -244v-569q0 -140 -51 -243.5t-146 -158.5t-224 -55q-124 0 -215 49z" />
    <glyph glyph-name="uni0189" unicode="&#x189;" horiz-adv-x="1149" 
d="M294 161h319q117 0 178 60t61 174v665q0 114 -61 174t-178 60h-319v160h313q135 0 228 -46t141 -136t48 -220v-650q0 -130 -48 -219.5t-141.5 -136t-228.5 -46.5h-312v161zM175 1454h171v-1454h-171v1454zM606 801v-147h-572v147h572z" />
    <glyph glyph-name="uni018A" unicode="&#x18a;" horiz-adv-x="1336" 
d="M-10 1211q0 116 72 179.5t203 63.5h199v-159h-193q-53 0 -82 -25t-29 -71v-74h-170v86zM481 161h319q117 0 178 60t61 174v665q0 114 -61 174t-178 60h-319v160h313q135 0 228 -46t141 -136t48 -220v-650q0 -130 -48 -219.5t-141.5 -136t-228.5 -46.5h-312v161zM362 1454
h171v-1454h-171v1454z" />
    <glyph glyph-name="uni018E" unicode="&#x18e;" horiz-adv-x="999" 
d="M689 0v1454h170v-1454h-170zM80 0v161h680v-161h-680zM160 642v160h600v-160h-600zM80 1294v160h680v-160h-680z" />
    <glyph glyph-name="uni018F" unicode="&#x18f;" horiz-adv-x="1107" 
d="M334 36q-93 51 -141.5 149t-48.5 235v359h742v-161h-569v-198q0 -128 63.5 -198t178.5 -70q114 0 177 67.5t63 190.5v628q0 126 -65 195.5t-183 69.5q-99 0 -162 -57t-85 -164v0l-163 51v0q35 167 137.5 251.5t272.5 84.5q133 0 227.5 -51t144 -149t49.5 -235v-624
q0 -135 -48.5 -230t-141.5 -145t-223 -50q-132 0 -225 51z" />
    <glyph glyph-name="uni0190" unicode="&#x190;" horiz-adv-x="978" 
d="M290 26q-87 41 -131 121.5t-44 198.5v120q0 116 48.5 190.5t141.5 102.5q-81 42 -123.5 106.5t-42.5 146.5v119q0 110 41 185.5t121.5 114t198.5 38.5q122 0 202.5 -42t124.5 -129t52 -221v0h-173v0q-6 78 -30 128.5t-66.5 75.5t-104.5 25q-96 0 -145.5 -44.5
t-49.5 -129.5v-124q0 -84 44 -128t128 -44h140v-160h-140q-96 0 -146 -52t-50 -153v-123q0 -98 55.5 -149t162.5 -51q72 0 120.5 25t74.5 76.5t30 130.5v0h174v0q-6 -135 -51.5 -222.5t-131.5 -130t-216 -42.5q-127 0 -214 41z" />
    <glyph glyph-name="uni0191" unicode="&#x191;" horiz-adv-x="970" 
d="M10 -236h57q45 0 69 29.5t24 83.5v357h171v-356q0 -131 -64 -203t-180 -72h-77v161zM160 1454h171v-1454h-171v1454zM260 789h590v-160h-590v160zM260 1454h670v-160h-670v160z" />
    <glyph glyph-name="florin" unicode="&#x192;" horiz-adv-x="584" 
d="M55 -261h21q42 0 64.5 27t22.5 76v258h171v-257q0 -126 -62.5 -195.5t-175.5 -69.5h-41v161zM163 1179q0 136 64 205.5t190 69.5h137v-160h-127q-46 0 -69.5 -30t-23.5 -84v-1180h-171v1179zM55 1038h499v-150h-499v150z" />
    <glyph glyph-name="uni0194" unicode="&#x194;" horiz-adv-x="1002" 
d="M343.5 -378.5q-50.5 43.5 -50.5 135.5q0 59 40 155t124 239h88q84 -143 124 -239t40 -155q0 -92 -50.5 -135.5t-157.5 -43.5t-157.5 43.5zM538.5 -264q11.5 14 11.5 43q0 24 -12 67t-37 107q-49 -138 -49 -174q0 -29 12 -43t37 -14q26 0 37.5 14zM20 1454h181l300 -1199
l300 1199h181l-391 -1454h-180z" />
    <glyph glyph-name="uni0198" unicode="&#x198;" horiz-adv-x="1094" 
d="M259 573l501 770q27 42 52.5 67t55 38t66.5 13h104v-160h-66q-24 0 -44.5 -16t-44.5 -51l-617 -912zM140 1454h171v-1454h-171v1454zM517 776l116 149l456 -925h-202z" />
    <glyph glyph-name="uni0199" unicode="&#x199;" horiz-adv-x="953" 
d="M228 362l497 676h192l-696 -891zM469 563l102 138l392 -701h-192zM135 1189q0 131 63.5 203t179.5 72h78v-162h-57q-45 0 -69 -29.5t-24 -83.5v-1189h-171v1189z" />
    <glyph glyph-name="Ohorn" unicode="&#x1a0;" horiz-adv-x="1172" 
d="M737 1293v139h168q136 0 136 151v43h172v-63q0 -136 -71 -203t-214 -67h-191zM327.5 39q-98.5 54 -150.5 155.5t-52 241.5v582q0 141 52 242.5t150.5 155t233.5 53.5q136 0 234 -53.5t150 -155t52 -242.5v-582q0 -140 -52 -241.5t-150 -155.5t-234 -54q-135 0 -233.5 54z
M702.5 183.5q59.5 33.5 91 96t31.5 149.5v596q0 87 -31.5 149.5t-91 96t-141.5 33.5t-141.5 -33.5t-91 -96t-31.5 -149.5v-596q0 -87 31.5 -149.5t91 -96t141.5 -33.5t141.5 33.5z" />
    <glyph glyph-name="ohorn" unicode="&#x1a1;" horiz-adv-x="983" 
d="M555 1038h150q64 0 100 36.5t36 102.5v74h172v-94q0 -117 -75 -181t-210 -64h-173v126zM277.5 29.5q-81.5 44.5 -124.5 129t-43 203.5v321q0 117 43 200.5t124.5 127.5t196.5 44q114 0 195.5 -44t124 -127.5t42.5 -200.5v-324q0 -118 -42.5 -202t-124 -128t-195.5 -44
q-115 0 -196.5 44.5zM615.5 203q50.5 56 50.5 158v320q0 101 -51 156.5t-142 55.5q-92 0 -142 -55.5t-50 -156.5v-320q0 -102 50 -158t142 -56t142.5 56z" />
    <glyph glyph-name="Uhorn" unicode="&#x1af;" horiz-adv-x="1227" 
d="M314.5 35q-93.5 50 -141.5 148t-48 241v1030h171v-1037q0 -130 63 -197.5t186 -67.5q124 0 188 67.5t64 197.5v1037h170v-1030q0 -143 -48 -241t-142 -148t-232 -50q-137 0 -230.5 50zM809 1328v126h135q65 0 101 36.5t36 102.5v73h171v-93q0 -117 -74.5 -181t-210.5 -64
h-158z" />
    <glyph glyph-name="uhorn" unicode="&#x1b0;" horiz-adv-x="1111" 
d="M687 1038h170v-1038h-170v1038zM305 344q0 -94 50 -145.5t142 -51.5t141 48t49 139l14 -174q-32 -81 -99 -128t-166 -47q-145 0 -223 93t-78 264v696h170v-694zM698 912v126h135q65 0 101 36.5t36 102.5v74h171v-94q0 -117 -74.5 -181t-210.5 -64h-158z" />
    <glyph glyph-name="uni01B2" unicode="&#x1b2;" horiz-adv-x="1092" 
d="M314.5 35q-93.5 50 -141.5 148t-48 241v1030h171v-1037q0 -130 63 -197.5t186 -67.5q124 0 188 67.5t64 197.5v679h170v-672q0 -143 -48 -241t-142 -148t-232 -50q-137 0 -230.5 50zM797 1181q0 53 -24.5 83t-68.5 30h-84v160h104q116 0 179.5 -72t63.5 -203v-320h-170
v322z" />
    <glyph glyph-name="uni01B3" unicode="&#x1b3;" horiz-adv-x="902" 
d="M355 600l-380 854h179l316 -743l55 -34v-677h-170v600zM403 684l237 581q10 24 20 46q24 53 47 84.5t56 48.5t81 17h98v-160h-58q-31 0 -49 -18t-36 -57l-314 -723z" />
    <glyph glyph-name="uni01B4" unicode="&#x1b4;" horiz-adv-x="954" 
d="M146 -271h30q74 0 116.5 32.5t62.5 104.5l290 1027q22 80 70.5 120t126.5 40h92v-160h-53q-33 0 -55 -19t-33 -56l-318 -1061q-21 -68 -59 -109.5t-97 -61t-143 -19.5h-30v162zM45 1038h174l281 -912l-85 -206z" />
    <glyph glyph-name="uni01B7" unicode="&#x1b7;" horiz-adv-x="963" 
d="M257.5 29q-84.5 44 -130.5 132t-52 219v0h174v0q6 -115 60.5 -173.5t155.5 -58.5q104 0 158 52.5t54 152.5v143q0 102 -50.5 156t-145.5 54h-144v160h142q119 0 201.5 -43t125 -126.5t42.5 -203.5v-140q0 -120 -43.5 -202t-129 -124t-210.5 -42q-123 0 -207.5 44z
M337 866l295 430h-513v158h706v-140l-356 -524z" />
    <glyph glyph-name="uni01DD" unicode="&#x1dd;" horiz-adv-x="950" 
d="M272 35q-81 50 -123.5 145t-42.5 228v180h618v-147h-454v-60q0 -114 52.5 -177t144.5 -63q100 0 155 67t55 189v253q0 116 -58 179.5t-165 63.5q-70 0 -118 -33.5t-67 -95.5v0l-151 54v0q29 115 115.5 175t220.5 60q122 0 209 -47.5t132 -139t45 -220.5v-238
q0 -133 -44 -228.5t-127.5 -145t-201.5 -49.5q-114 0 -195 50z" />
    <glyph glyph-name="uni0218" unicode="&#x218;" horiz-adv-x="1072" 
d="M325.5 18q-89.5 33 -149.5 100.5t-86 168.5v0l162 66v0q29 -104 101.5 -155.5t177.5 -51.5q131 0 201.5 57t70.5 162v54q0 71 -35.5 116.5t-90.5 71t-145 52.5q-2 1 -4.5 2t-5.5 1l-19 7q-122 36 -197 71.5t-128 109.5t-53 199v39q0 122 50.5 207.5t147.5 129.5t236 44
q105 0 184 -32t131.5 -96t78.5 -161v0l-158 -67v0q-30 98 -89 146.5t-147 48.5q-128 0 -196.5 -56t-68.5 -160v-41q0 -71 38.5 -115.5t96 -69.5t157.5 -54q4 -1 8 -2.5t8 -2.5t9 -2.5t9 -3.5q110 -33 182.5 -71t121 -112t48.5 -194v-57q0 -123 -51 -208.5t-150 -129.5
t-240 -44q-116 0 -205.5 33zM457 -183h170v-134l-170 -177v311z" />
    <glyph glyph-name="uni0219" unicode="&#x219;" horiz-adv-x="900" 
d="M256 12q-76 27 -126 80.5t-75 132.5v0l147 66v0q36 -78 94 -117t136 -39q105 0 161 42.5t56 122.5q0 51 -29 80.5t-72.5 42.5t-120.5 26q-6 2 -12 3l-12 2q-4 1 -7 1t-6 1q-92 17 -155 42t-105 83.5t-42 161.5q0 101 40.5 170.5t119.5 105t192 35.5q91 0 159.5 -23.5
t115.5 -71.5t72 -119v0l-148 -66v0q-32 64 -82.5 97.5t-117.5 33.5q-93 0 -141 -40.5t-48 -117.5q0 -52 29 -79.5t73.5 -40.5t122.5 -25h4t4 -1q3 0 5.5 -0.5t4.5 -0.5q97 -16 162.5 -40.5t110.5 -86t45 -173.5q0 -102 -44 -172.5t-128 -106.5t-207 -36q-100 0 -176 27z
M358 -187h170v-134l-170 -177v311z" />
    <glyph glyph-name="uni021A" unicode="&#x21a;" horiz-adv-x="846" 
d="M338 1350h170v-1350h-170v1350zM-10 1454h866v-160h-866v160zM338 -183h170v-134l-170 -177v311z" />
    <glyph glyph-name="uni021B" unicode="&#x21b;" horiz-adv-x="603" 
d="M220.5 64.5q-58.5 69.5 -58.5 205.5v1070h170v-1071q0 -55 24 -84t70 -29h87v-161h-108q-126 0 -184.5 69.5zM55 1038h458v-155h-458v155zM219 -183h170v-134l-170 -177v311z" />
    <glyph glyph-name="uni0253" unicode="&#x253;" horiz-adv-x="969" 
d="M135 1189q0 131 63.5 203t179.5 72h78v-162h-57q-45 0 -69 -29.5t-24 -83.5v-1189h-171v1189zM390 30.5q-69 45.5 -98 132.5l14 188q0 -63 22.5 -111.5t65 -75.5t101.5 -27q93 0 144 60t51 168v308q0 109 -51 169t-144 60q-59 0 -101.5 -26.5t-65 -74t-22.5 -109.5
l-21 171q41 93 114.5 141.5t164.5 48.5q93 0 159.5 -44t101 -128.5t34.5 -204.5v-313q0 -119 -35.5 -204t-104.5 -129.5t-165 -44.5q-95 0 -164 45.5z" />
    <glyph glyph-name="uni0254" unicode="&#x254;" horiz-adv-x="896" 
d="M168.5 50q-88.5 65 -110.5 190v0l158 47v0q21 -74 69 -113t121 -39q101 0 155.5 59t54.5 171v303q0 109 -54.5 167t-155.5 58q-74 0 -121.5 -39t-64.5 -115v0l-161 50v0q22 130 110.5 197t235.5 67q122 0 207.5 -45t129.5 -131t44 -209v-303q0 -122 -44 -207t-129.5 -129
t-207.5 -44q-148 0 -236.5 65z" />
    <glyph glyph-name="uni0256" unicode="&#x256;" horiz-adv-x="964" 
d="M727.5 -350q-63.5 72 -63.5 203v303h170v-303q0 -54 24.5 -83.5t68.5 -29.5h57v-162h-77q-116 0 -179.5 72zM664 1454h170v-1454h-170v1454zM248.5 26q-67.5 43 -103 125t-35.5 198v334q0 118 35 201.5t101.5 127t160.5 43.5q89 0 161 -47t117 -137l-21 -176
q0 61 -22.5 108t-65 73t-102.5 26q-92 0 -142.5 -58.5t-50.5 -165.5v-327q0 -102 50.5 -158.5t142.5 -56.5q59 0 102 26.5t65.5 73t22.5 107.5l14 -180q-32 -86 -100.5 -133t-165.5 -47q-96 0 -163.5 43z" />
    <glyph glyph-name="uni0257" unicode="&#x257;" horiz-adv-x="964" 
d="M664 1189q0 131 63.5 203t179.5 72h77v-162h-57q-44 0 -68.5 -29.5t-24.5 -83.5v-1189h-170v1189zM248.5 26q-67.5 43 -103 125t-35.5 198v334q0 118 35 201.5t101.5 127t160.5 43.5q89 0 161 -47t117 -137l-21 -176q0 61 -22.5 108t-65 73t-102.5 26q-92 0 -142.5 -58.5
t-50.5 -165.5v-327q0 -102 50.5 -158.5t142.5 -56.5q59 0 102 26.5t65.5 73t22.5 107.5l14 -180q-32 -86 -100.5 -133t-165.5 -47q-96 0 -163.5 43z" />
    <glyph glyph-name="uni0259" unicode="&#x259;" horiz-adv-x="950" 
d="M272 35q-81 50 -123.5 145t-42.5 228v180h618v-147h-454v-60q0 -114 52.5 -177t144.5 -63q100 0 155 67t55 189v253q0 116 -58 179.5t-165 63.5q-70 0 -118 -33.5t-67 -95.5v0l-151 54v0q29 115 115.5 175t220.5 60q122 0 209 -47.5t132 -139t45 -220.5v-238
q0 -133 -44 -228.5t-127.5 -145t-201.5 -49.5q-114 0 -195 50z" />
    <glyph glyph-name="uni025B" unicode="&#x25b;" horiz-adv-x="831" 
d="M190 61q-90 76 -90 215v69q0 52 17 94.5t50 70.5t81 38q-66 27 -100 76.5t-34 113.5v58q0 124 86 191.5t243 67.5q129 0 212 -54t109 -154v-30l-143 -50v24q-25 53 -71 80.5t-107 27.5q-77 0 -119 -32t-42 -91v-46q0 -50 32.5 -77t90.5 -27h145v-162h-145q-65 0 -101 -31
t-36 -88v-52q0 -72 46.5 -112.5t131.5 -40.5q60 0 110 32.5t80 91.5v24l138 -57v-35q-32 -102 -116.5 -156.5t-211.5 -54.5q-166 0 -256 76z" />
    <glyph glyph-name="uni02BB" unicode="&#x2bb;" horiz-adv-x="325" 
d="M77 1208l171 171v-341h-171v170z" />
    <glyph glyph-name="uni02BC" unicode="&#x2bc;" horiz-adv-x="325" 
d="M77 1454h171v-170l-171 -174v344z" />
    <glyph glyph-name="circumflex" unicode="&#x2c6;" horiz-adv-x="669" 
d="M611 1324l-101 -91l-175 185l-175 -185l-102 91l277 289z" />
    <glyph glyph-name="caron" unicode="&#x2c7;" horiz-adv-x="669" 
d="M57 1523l101 90l176 -187l177 187l101 -90l-278 -289z" />
    <glyph glyph-name="uni02C9" unicode="&#x2c9;" horiz-adv-x="710" 
d="M670 1417v-167h-630v167h630z" />
    <glyph glyph-name="breve" unicode="&#x2d8;" horiz-adv-x="634" 
d="M108.5 1315q-68.5 77 -68.5 227v35h144v-36q0 -83 31.5 -125.5t92.5 -42.5h18q61 0 92.5 42.5t31.5 125.5v36h144v-35q0 -150 -68.5 -227t-199.5 -77h-18q-131 0 -199.5 77z" />
    <glyph glyph-name="dotaccent" unicode="&#x2d9;" horiz-adv-x="424" 
d="M127 1422h171v-170h-171v170z" />
    <glyph glyph-name="ogonek" unicode="&#x2db;" horiz-adv-x="327" 
d="M69.5 -374q-59.5 46 -59.5 149q0 84 61 150.5t184 117.5l62 -43q-81 -48 -118.5 -95t-37.5 -104q0 -42 24 -61t76 -19h56v-141h-56q-132 0 -191.5 46z" />
    <glyph glyph-name="tilde" unicode="&#x2dc;" horiz-adv-x="705" 
d="M422.5 1262.5q-32.5 15.5 -68.5 43.5l-9 7q-4 3 -7.5 5.5t-6.5 4.5q-35 28 -57.5 41.5t-47.5 13.5q-30 0 -44.5 -19t-14.5 -57v-54h-127v65q0 103 43.5 156.5t127.5 53.5q42 0 75.5 -17.5t73.5 -49.5l7 -6l14 -11q30 -24 51 -36t43 -12q31 0 47 20.5t16 60.5v53h127v-65
q0 -105 -43.5 -159t-128.5 -54q-38 0 -70.5 15.5z" />
    <glyph glyph-name="hungarumlaut" unicode="&#x2dd;" horiz-adv-x="777" 
d="M391 1296l198 355l142 -91l-217 -336zM45 1296l199 355l142 -91l-217 -336z" />
    <glyph glyph-name="gravecomb" unicode="&#x300;" 
d="M-422 1568l131 101l266 -355l-112 -82z" />
    <glyph glyph-name="acutecomb" unicode="&#x301;" 
d="M-438 1314l266 355l129 -101l-285 -336z" />
    <glyph glyph-name="uni0302" unicode="&#x302;" 
d="M-47 1324l-101 -91l-175 185l-175 -185l-102 91l277 289z" />
    <glyph glyph-name="tildecomb" unicode="&#x303;" 
d="M-291.5 1263.5q-32.5 15.5 -68.5 43.5l-9 7q-4 3 -7.5 5.5t-6.5 4.5q-35 28 -57.5 41.5t-47.5 13.5q-30 0 -44.5 -19t-14.5 -57v-54h-127v65q0 103 43.5 156.5t127.5 53.5q42 0 75.5 -17.5t73.5 -49.5l7 -6l14 -11q30 -24 51 -36t43 -12q31 0 47 20.5t16 60.5v53h127v-65
q0 -105 -43.5 -159t-128.5 -54q-38 0 -70.5 15.5z" />
    <glyph glyph-name="uni0304" unicode="&#x304;" 
d="M-100 1417v-167h-630v167h630z" />
    <glyph glyph-name="uni0306" unicode="&#x306;" 
d="M-565.5 1315q-68.5 77 -68.5 227v35h144v-36q0 -83 31.5 -125.5t92.5 -42.5h18q61 0 92.5 42.5t31.5 125.5v36h144v-35q0 -150 -68.5 -227t-199.5 -77h-18q-131 0 -199.5 77z" />
    <glyph glyph-name="uni0307" unicode="&#x307;" 
d="M-188 1422h171v-170h-171v170z" />
    <glyph glyph-name="uni0308" unicode="&#x308;" 
d="M-266 1422h171v-171h-171v171zM-618 1422h170v-171h-170v171z" />
    <glyph glyph-name="hookabovecomb" unicode="&#x309;" 
d="M-120 1609.5q55 -43.5 55 -131.5q0 -152 -194 -152l-83 73q130 0 130 64t-103 64q-46 0 -95 -14l-22 122q58 18 145 18q112 0 167 -43.5zM-355 1399l140 -4v-145h-140v149z" />
    <glyph glyph-name="uni030A" unicode="&#x30a;" 
d="M-465.5 1295.5q-59.5 59.5 -59.5 171.5q0 117 59.5 179t170.5 62t170.5 -62.5t59.5 -178.5q0 -112 -59.5 -171.5t-170.5 -59.5t-170.5 59.5zM-216.5 1380.5q27.5 32.5 27.5 90.5q0 60 -27.5 93t-78.5 33t-78.5 -32.5t-27.5 -93.5q0 -59 27.5 -91t78.5 -32t78.5 32.5z" />
    <glyph glyph-name="uni030B" unicode="&#x30b;" 
d="M-373 1296l198 355l142 -91l-217 -336zM-719 1296l199 355l142 -91l-217 -336z" />
    <glyph glyph-name="uni030C" unicode="&#x30c;" 
d="M-616 1523l101 90l176 -187l177 187l101 -90l-278 -289z" />
    <glyph glyph-name="uni031B" unicode="&#x31b;" 
d="M-443 912v126h135q65 0 101 36.5t36 102.5v74h171v-94q0 -117 -74.5 -181t-210.5 -64h-158z" />
    <glyph glyph-name="dotbelowcomb" unicode="&#x323;" 
d="M-237 -203h171v-170h-171v170z" />
    <glyph glyph-name="uni0326" unicode="&#x326;" 
d="M-182 -183h170v-134l-170 -177v311z" />
    <glyph glyph-name="uni0327" unicode="&#x327;" 
d="M-428 -404l35 119q59 -14 116 -14q47 0 71.5 15.5t24.5 45.5t-34.5 45t-103.5 15l73 99q105 0 160.5 -43.5t55.5 -127.5t-59.5 -128t-172.5 -44q-97 0 -166 18zM-335 91h138v-269h-138v269z" />
    <glyph glyph-name="uni0328" unicode="&#x328;" 
d="M-257.5 -374q-59.5 46 -59.5 149q0 84 61 150.5t184 117.5l62 -43q-81 -48 -118.5 -95t-37.5 -104q0 -42 24 -61t76 -19h56v-141h-56q-132 0 -191.5 46z" />
    <glyph glyph-name="uni0335" unicode="&#x335;" 
d="M-110 807v-160h-550v160h550z" />
    <glyph glyph-name="uni0345" unicode="&#x345;" 
d="M-230 -189q0 -38 19.5 -58.5t55.5 -20.5h73v-154h-117q-92 0 -142 57.5t-50 162.5v123h161v-110z" />
    <glyph glyph-name="uni0370" unicode="&#x370;" horiz-adv-x="903" 
d="M140 1454h171v-1454h-171v1454zM260 798h533v-162h-533v162z" />
    <glyph glyph-name="uni0371" unicode="&#x371;" horiz-adv-x="661" 
d="M135 1038h171v-1038h-171v1038zM240 588h356v-156h-356v156z" />
    <glyph glyph-name="uni0372" unicode="&#x372;" horiz-adv-x="1039" 
d="M30 1454h170v-446h-170v446zM800 1454h169v-446h-169v446zM413 1350h170v-1350h-170v1350zM65 1454h866v-160h-866v160z" />
    <glyph glyph-name="uni0373" unicode="&#x373;" horiz-adv-x="899" 
d="M10 1454h166v-426h-166v426zM684 1454h165v-426h-165v426zM344 1360h171v-1360h-171v1360zM10 1454h839v-154h-839v154z" />
    <glyph glyph-name="uni0374" unicode="&#x374;" horiz-adv-x="325" 
d="M77 1281l171 173v-344h-171v171z" />
    <glyph glyph-name="uni0375" unicode="&#x375;" horiz-adv-x="395" 
d="M112 3l171 167v-338h-171v171z" />
    <glyph glyph-name="uni0376" unicode="&#x376;" horiz-adv-x="1174" 
d="M869 1v1163l37 -3l-625 -1160h-141v1453h166v-1172l-33 7l622 1165h139v-1453h-165z" />
    <glyph glyph-name="uni0377" unicode="&#x377;" horiz-adv-x="997" 
d="M697 1v766l24 -26l-446 -740h-140v1037h165v-781l-24 26l448 755h138v-1037h-165z" />
    <glyph glyph-name="uni037A" unicode="&#x37a;" horiz-adv-x="283" 
d="M202 -186q0 -39 19.5 -60.5t54.5 -21.5h77v-154h-121q-92 0 -142 58t-50 165v120h162v-107z" />
    <glyph glyph-name="uni037B" unicode="&#x37b;" horiz-adv-x="896" 
d="M168.5 50q-88.5 65 -110.5 190v0l158 47v0q21 -74 69 -113t121 -39q101 0 155.5 59t54.5 171v303q0 109 -54.5 167t-155.5 58q-74 0 -121.5 -39t-64.5 -115v0l-161 50v0q22 130 110.5 197t235.5 67q122 0 207.5 -45t129.5 -131t44 -209v-303q0 -122 -44 -207t-129.5 -129
t-207.5 -44q-148 0 -236.5 65z" />
    <glyph glyph-name="uni037C" unicode="&#x37c;" horiz-adv-x="896" 
d="M284 29q-85 44 -129.5 129t-44.5 207v304q0 123 44.5 209.5t129.5 131t208 44.5q98 0 170 -30t116.5 -89t59.5 -145v0l-161 -50v0q-17 76 -63.5 115.5t-118.5 39.5q-104 0 -159 -58.5t-55 -167.5v-304q0 -106 55 -163t159 -57q74 0 121.5 37.5t64.5 110.5v0l158 -52v0
q-15 -83 -59.5 -141t-117 -86.5t-170.5 -28.5q-123 0 -208 44zM431 600h171v-170h-171v170z" />
    <glyph glyph-name="uni037D" unicode="&#x37d;" horiz-adv-x="896" 
d="M168.5 50q-88.5 65 -110.5 190v0l158 47v0q21 -74 69 -113t121 -39q101 0 155.5 59t54.5 171v303q0 109 -54.5 167t-155.5 58q-74 0 -121.5 -39t-64.5 -115v0l-161 50v0q22 130 110.5 197t235.5 67q122 0 207.5 -45t129.5 -131t44 -209v-303q0 -122 -44 -207t-129.5 -129
t-207.5 -44q-148 0 -236.5 65zM294 600h171v-170h-171v170z" />
    <glyph glyph-name="uni037E" unicode="&#x37e;" horiz-adv-x="395" 
d="M112 170h171v-170l-171 -168v338zM112 1020h171v-171h-171v171z" />
    <glyph glyph-name="uni037F" unicode="&#x37f;" horiz-adv-x="880" 
d="M160 27.5q-86 42.5 -140 119.5l127 106q36 -50 91 -77.5t120 -27.5q101 0 156.5 64.5t55.5 181.5v1060h170v-1062q0 -128 -46 -219.5t-133.5 -139.5t-211.5 -48q-103 0 -189 42.5z" />
    <glyph glyph-name="tonos" unicode="&#x384;" horiz-adv-x="391" 
d="M53.1045 1254.81l128.524 424.516l155.745 -50.7812l-152.874 -413.162z" />
    <glyph glyph-name="dieresistonos" unicode="&#x385;" horiz-adv-x="850" 
d="M589 1422h170v-171h-170v171zM91 1422h171v-171h-171v171zM315 1255l130 425l156 -51l-153 -413z" />
    <glyph glyph-name="Alphatonos" unicode="&#x386;" horiz-adv-x="1217" 
d="M572 1454h174l436 -1454h-186l-337 1231l-337 -1231h-186zM360 496h614v-160h-614v160zM35.1045 1034.81l128.524 424.516l155.745 -50.7812l-152.874 -413.162z" />
    <glyph glyph-name="anoteleia" unicode="&#x387;" horiz-adv-x="395" 
d="M112 1020h171v-171h-171v171z" />
    <glyph glyph-name="Epsilontonos" unicode="&#x388;" horiz-adv-x="1224" 
d="M365 1454h171v-1454h-171v1454zM464 161h680v-161h-680v161zM464 802h600v-160h-600v160zM464 1454h680v-160h-680v160zM-29.8955 1034.81l128.524 424.516l155.745 -50.7812l-152.874 -413.162z" />
    <glyph glyph-name="Etatonos" unicode="&#x389;" horiz-adv-x="1376" 
d="M1066 1454h170v-1454h-170v1454zM386 1454h171v-1454h-171v1454zM506 798h641v-162h-641v162zM-29.8955 1034.81l128.524 424.516l155.745 -50.7812l-152.874 -413.162z" />
    <glyph glyph-name="Iotatonos" unicode="&#x38a;" horiz-adv-x="705" 
d="M553 0h-171v1454h171v-1454zM-29.8955 1034.81l128.524 424.516l155.745 -50.7812l-152.874 -413.162z" />
    <glyph glyph-name="Omicrontonos" unicode="&#x38c;" horiz-adv-x="1320" 
d="M525.5 39q-98.5 54 -150.5 155.5t-52 241.5v582q0 141 52 242.5t150.5 155t233.5 53.5q136 0 234 -53.5t150 -155t52 -242.5v-582q0 -140 -52 -241.5t-150 -155.5t-234 -54q-135 0 -233.5 54zM900.5 183.5q59.5 33.5 91 96t31.5 149.5v596q0 87 -31.5 149.5t-91 96
t-141.5 33.5t-141.5 -33.5t-91 -96t-31.5 -149.5v-596q0 -87 31.5 -149.5t91 -96t141.5 -33.5t141.5 33.5zM-24.8955 1034.81l128.524 424.516l155.745 -50.7812l-152.874 -413.162z" />
    <glyph glyph-name="Upsilontonos" unicode="&#x38e;" horiz-adv-x="1280" 
d="M930 600v-600h-170v600l-380 854h181l284 -671l279 671h181zM35.1045 1034.81l128.524 424.516l155.745 -50.7812l-152.874 -413.162z" />
    <glyph glyph-name="Omegatonos" unicode="&#x38f;" horiz-adv-x="1397" 
d="M564.5 134q-79.5 44 -122 127t-42.5 197v560q0 141 52 242.5t150.5 155t233.5 53.5q136 0 234 -53.5t150 -155t52 -242.5v-560q0 -114 -42 -197t-121.5 -127t-189.5 -44v74q56 0 97 32.5t62.5 93t21.5 144.5v593q0 87 -31.5 149.5t-91 96t-141.5 33.5t-141.5 -33.5
t-91 -96t-31.5 -149.5v-593q0 -84 21.5 -144.5t62.5 -93t98 -32.5v-74q-110 0 -189.5 44zM400 164h354v-164h-354v164zM919 164h353v-164h-353v164zM35.1045 1034.81l128.524 424.516l155.745 -50.7812l-152.874 -413.162z" />
    <glyph glyph-name="iotadieresistonos" unicode="&#x390;" horiz-adv-x="517" 
d="M207.5 68q-60.5 70 -60.5 197v773h171v-774q0 -50 21.5 -77.5t61.5 -27.5h76v-161h-100q-109 0 -169.5 70zM402 1422h170v-171h-170v171zM-96 1422h171v-171h-171v171zM128 1255l130 425l156 -51l-153 -413z" />
    <glyph glyph-name="Alpha" unicode="&#x391;" horiz-adv-x="1116" 
d="M471 1454h174l436 -1454h-186l-337 1231l-337 -1231h-186zM259 496h614v-160h-614v160z" />
    <glyph glyph-name="Beta" unicode="&#x392;" horiz-adv-x="1091" 
d="M260 159h329q117 0 174 48.5t57 136.5v113q0 68 -24 116.5t-71 74t-116 25.5h-349v158h349q94 0 143 50t49 145v89q0 89 -52.5 134.5t-152.5 45.5h-336v159h351q117 0 198 -40t122 -114t41 -178v-87q0 -72 -24 -131t-72 -99.5t-117 -54.5q72 -11 124.5 -53.5t80 -107.5
t27.5 -145v-107q0 -103 -43 -179t-124 -117t-191 -41h-373v159zM140 1454h170v-1454h-170v1454z" />
    <glyph glyph-name="Gamma" unicode="&#x393;" horiz-adv-x="800" 
d="M140 1454h171v-1454h-171v1454zM253 1454h557v-160h-557v160z" />
    <glyph glyph-name="uni0394" unicode="&#x394;" horiz-adv-x="1116" 
d="M471 1454h174l436 -1454h-186l-337 1231l-337 -1231h-186zM162 160h801v-160h-801v160z" />
    <glyph glyph-name="Epsilon" unicode="&#x395;" horiz-adv-x="999" 
d="M140 1454h171v-1454h-171v1454zM239 161h680v-161h-680v161zM239 802h600v-160h-600v160zM239 1454h680v-160h-680v160z" />
    <glyph glyph-name="Zeta" unicode="&#x396;" horiz-adv-x="929" 
d="M839 1314l-546 -1156h561v-158h-754v140l551 1156h-533v158h721v-140z" />
    <glyph glyph-name="Eta" unicode="&#x397;" horiz-adv-x="1130" 
d="M820 1454h170v-1454h-170v1454zM140 1454h171v-1454h-171v1454zM260 798h641v-162h-641v162z" />
    <glyph glyph-name="Theta" unicode="&#x398;" horiz-adv-x="1122" 
d="M406 802h310v-160h-310v160zM327.5 39q-98.5 54 -150.5 155.5t-52 241.5v582q0 141 52 242.5t150.5 155t233.5 53.5q136 0 234 -53.5t150 -155t52 -242.5v-582q0 -140 -52 -241.5t-150 -155.5t-234 -54q-135 0 -233.5 54zM702.5 183.5q59.5 33.5 91 96t31.5 149.5v596
q0 87 -31.5 149.5t-91 96t-141.5 33.5t-141.5 -33.5t-91 -96t-31.5 -149.5v-596q0 -87 31.5 -149.5t91 -96t141.5 -33.5t141.5 33.5z" />
    <glyph glyph-name="Iota" unicode="&#x399;" horiz-adv-x="475" 
d="M323 0h-171v1454h171v-1454z" />
    <glyph glyph-name="Kappa" unicode="&#x39a;" horiz-adv-x="1094" 
d="M265 583l569 871h202l-765 -1127zM140 1454h171v-1454h-171v1454zM517 776l116 149l456 -925h-202z" />
    <glyph glyph-name="Lambda" unicode="&#x39b;" horiz-adv-x="1116" 
d="M471 1454h174l436 -1454h-186l-337 1231l-337 -1231h-186z" />
    <glyph glyph-name="Mu" unicode="&#x39c;" horiz-adv-x="1366" 
d="M1064 1454h162v-1454h-164v1152l13 -64l-331 -877h-122l-331 857l15 84v-1152h-166v1454h164l379 -996z" />
    <glyph glyph-name="Nu" unicode="&#x39d;" horiz-adv-x="1174" 
d="M140 1454h158l603 -1186l-34 -9v1195h167v-1453h-160l-606 1175l39 6v-1181h-167v1453z" />
    <glyph glyph-name="Xi" unicode="&#x39e;" horiz-adv-x="1110" 
d="M130 164h850v-164h-850v164zM212 804h689v-164h-689v164zM130 1454h850v-164h-850v164z" />
    <glyph glyph-name="Omicron" unicode="&#x39f;" horiz-adv-x="1122" 
d="M327.5 39q-98.5 54 -150.5 155.5t-52 241.5v582q0 141 52 242.5t150.5 155t233.5 53.5q136 0 234 -53.5t150 -155t52 -242.5v-582q0 -140 -52 -241.5t-150 -155.5t-234 -54q-135 0 -233.5 54zM702.5 183.5q59.5 33.5 91 96t31.5 149.5v596q0 87 -31.5 149.5t-91 96
t-141.5 33.5t-141.5 -33.5t-91 -96t-31.5 -149.5v-596q0 -87 31.5 -149.5t91 -96t141.5 -33.5t141.5 33.5z" />
    <glyph glyph-name="Pi" unicode="&#x3a0;" horiz-adv-x="1130" 
d="M820 1454h170v-1454h-170v1454zM140 1454h171v-1454h-171v1454zM256 1454h646v-162h-646v162z" />
    <glyph glyph-name="Rho" unicode="&#x3a1;" horiz-adv-x="1085" 
d="M245 725h379q58 0 102 26.5t67.5 76.5t23.5 116v127q0 68 -23.5 118t-67 77.5t-102.5 27.5h-379v160h373q113 0 197 -46.5t129.5 -133t45.5 -203.5v-129q0 -115 -45.5 -200.5t-129.5 -131.5t-197 -46h-373v161zM140 1454h171v-1454h-171v1454z" />
    <glyph glyph-name="Sigma" unicode="&#x3a3;" horiz-adv-x="841" 
d="M791 1290h-525l357 -563l-357 -563h525v-164h-741v146l369 581l-369 581v146h741v-164z" />
    <glyph glyph-name="Tau" unicode="&#x3a4;" horiz-adv-x="846" 
d="M338 1350h170v-1350h-170v1350zM-10 1454h866v-160h-866v160z" />
    <glyph glyph-name="Upsilon" unicode="&#x3a5;" horiz-adv-x="875" 
d="M525 600v-600h-170v600l-380 854h181l284 -671l279 671h181z" />
    <glyph glyph-name="Phi" unicode="&#x3a6;" horiz-adv-x="1392" 
d="M360 216.5q-139 61.5 -212 179.5t-73 286v140q0 168 73 286.5t212 179.5t336 61t336.5 -61t212 -179.5t72.5 -286.5v-140q0 -168 -72.5 -286t-212 -179.5t-336.5 -61.5t-336 61.5zM611 1504h170v-1504h-170v1504zM1030.5 411q118.5 95 118.5 271v140q0 177 -118.5 271.5
t-334.5 94.5t-334.5 -94.5t-118.5 -271.5v-140q0 -176 118.5 -271t334.5 -95t334.5 95z" />
    <glyph glyph-name="Chi" unicode="&#x3a7;" horiz-adv-x="982" 
d="M454 646l-31 49l-401 759h187l304 -600l31 -52l428 -802h-187zM446 825l317 629h187l-411 -783l-342 -671h-187z" />
    <glyph glyph-name="Psi" unicode="&#x3a8;" horiz-adv-x="1252" 
d="M354.5 398q-112.5 58 -171 169t-58.5 270v617h171v-624q0 -104 38.5 -176.5t112.5 -110.5t179 -38t179.5 38t113 110.5t38.5 176.5v624h170v-617q0 -159 -58.5 -270t-170.5 -169t-272 -58q-159 0 -271.5 58zM543 1454h170v-1454h-170v1454z" />
    <glyph glyph-name="uni03A9" unicode="&#x3a9;" horiz-adv-x="1122" 
d="M289.5 134q-79.5 44 -122 127t-42.5 197v560q0 141 52 242.5t150.5 155t233.5 53.5q136 0 234 -53.5t150 -155t52 -242.5v-560q0 -114 -42 -197t-121.5 -127t-189.5 -44v74q56 0 97 32.5t62.5 93t21.5 144.5v593q0 87 -31.5 149.5t-91 96t-141.5 33.5t-141.5 -33.5
t-91 -96t-31.5 -149.5v-593q0 -84 21.5 -144.5t62.5 -93t98 -32.5v-74q-110 0 -189.5 44zM125 164h354v-164h-354v164zM644 164h353v-164h-353v164z" />
    <glyph glyph-name="Iotadieresis" unicode="&#x3aa;" horiz-adv-x="475" 
d="M323 0h-171v1454h171v-1454zM337 1757h178v-178h-178v178zM-38 1757h178v-178h-178v178z" />
    <glyph glyph-name="Upsilondieresis" unicode="&#x3ab;" horiz-adv-x="875" 
d="M525 600v-600h-170v600l-380 854h181l284 -671l279 671h181zM562 1757h178v-178h-178v178zM187 1757h178v-178h-178v178z" />
    <glyph glyph-name="alphatonos" unicode="&#x3ac;" horiz-adv-x="1016" 
d="M254 29.5q-70 44.5 -107 129t-37 203.5v321q0 117 37 200.5t107 127.5t169 44q131 0 203 -84.5t72 -237.5v-424q0 -154 -72 -239t-203 -85q-99 0 -169 44.5zM608.5 203q51.5 56 51.5 158v320q0 101 -51.5 156.5t-144.5 55.5q-87 0 -135 -55.5t-48 -156.5v-320
q0 -102 48 -158t135 -56q93 0 144.5 56zM720 68q-60 70 -60 197v773h170v-774q0 -50 21.5 -77.5t61.5 -27.5h63v-161h-87q-109 0 -169 70zM406.104 1254.81l128.524 424.516l155.745 -50.7812l-152.874 -413.162z" />
    <glyph glyph-name="epsilontonos" unicode="&#x3ad;" horiz-adv-x="831" 
d="M190 61q-90 76 -90 215v69q0 52 17 94.5t50 70.5t81 38q-66 27 -100 76.5t-34 113.5v58q0 124 86 191.5t243 67.5q129 0 212 -54t109 -154v-30l-143 -50v24q-25 53 -71 80.5t-107 27.5q-77 0 -119 -32t-42 -91v-46q0 -50 32.5 -77t90.5 -27h145v-162h-145q-65 0 -101 -31
t-36 -88v-52q0 -72 46.5 -112.5t131.5 -40.5q60 0 110 32.5t80 91.5v24l138 -57v-35q-32 -102 -116.5 -156.5t-211.5 -54.5q-166 0 -256 76zM363.104 1254.81l128.524 424.516l155.745 -50.7812l-152.874 -413.162z" />
    <glyph glyph-name="etatonos" unicode="&#x3ae;" horiz-adv-x="999" 
d="M135 1038h171v-1038h-171v1038zM699 678q0 106 -51 161.5t-148 55.5q-95 0 -144.5 -53.5t-49.5 -155.5l-21 175q43 97 116 145.5t168 48.5q146 0 223 -93.5t77 -269.5v-951h-170v937zM442.104 1254.81l128.524 424.516l155.745 -50.7812l-152.874 -413.162z" />
    <glyph glyph-name="iotatonos" unicode="&#x3af;" horiz-adv-x="517" 
d="M207.5 68q-60.5 70 -60.5 197v773h171v-774q0 -50 21.5 -77.5t61.5 -27.5h76v-161h-100q-109 0 -169.5 70zM171.104 1254.81l128.524 424.516l155.745 -50.7812l-152.874 -413.162z" />
    <glyph glyph-name="upsilondieresistonos" unicode="&#x3b0;" horiz-adv-x="1012" 
d="M327.5 27.5q-79.5 42.5 -120 126t-40.5 203.5v452q0 39 -16 59t-47 20h-44v164h68q102 0 155.5 -62.5t53.5 -182.5v-450q0 -102 47.5 -155.5t138.5 -53.5q92 0 140 53.5t48 155.5v681h171v-681q0 -120 -41 -203.5t-121 -126t-197 -42.5q-116 0 -195.5 42.5zM675 1422h170
v-171h-170v171zM177 1422h171v-171h-171v171zM401 1255l130 425l156 -51l-153 -413z" />
    <glyph glyph-name="alpha" unicode="&#x3b1;" horiz-adv-x="1016" 
d="M254 29.5q-70 44.5 -107 129t-37 203.5v321q0 117 37 200.5t107 127.5t169 44q131 0 203 -84.5t72 -237.5v-424q0 -154 -72 -239t-203 -85q-99 0 -169 44.5zM608.5 203q51.5 56 51.5 158v320q0 101 -51.5 156.5t-144.5 55.5q-87 0 -135 -55.5t-48 -156.5v-320
q0 -102 48 -158t135 -56q93 0 144.5 56zM720 68q-60 70 -60 197v773h170v-774q0 -50 21.5 -77.5t61.5 -27.5h63v-161h-87q-109 0 -169 70z" />
    <glyph glyph-name="beta" unicode="&#x3b2;" horiz-adv-x="986" 
d="M412 18.5q-65 33.5 -101.5 101.5t-41.5 173l37 37q0 -58 27.5 -99.5t77 -63.5t113.5 -22q92 0 143 53t51 149v122q0 99 -48 153t-136 54h-98v160h98q76 0 118 46t42 129v122q0 84 -49.5 130t-138.5 46q-95 0 -147.5 -55t-52.5 -154v-98h-171v100q0 116 44 198.5
t128.5 125.5t203.5 43q112 0 192.5 -39.5t122 -115.5t41.5 -183v-114q0 -84 -45 -152.5t-131 -105.5q95 -27 147.5 -105t52.5 -193v-115q0 -172 -84 -266.5t-238 -94.5q-92 0 -157 33.5zM135 1035h171v-1457h-171v1457z" />
    <glyph glyph-name="gamma" unicode="&#x3b3;" horiz-adv-x="956" 
d="M416 2q0 23 -5 50t-14 57q-1 6 -3 11.5t-4 10.5l-222 689q-13 40 -35.5 59.5t-53.5 19.5h-34v154h89q61 0 108.5 -48t76.5 -147l238 -764l30 43v-559h-171v424zM449 55l290 983h177l-349 -1070z" />
    <glyph glyph-name="delta" unicode="&#x3b4;" horiz-adv-x="946" 
d="M278 29.5q-82 44.5 -125 129t-43 203.5v321q0 103 44 178t125 116t193 44l17 -24l-322 293v64l191 -49l287 -251q63 -54 104 -106t64 -114.5t23 -135.5v-339q0 -118 -42.5 -202t-123.5 -128t-196 -44q-114 0 -196 44.5zM615.5 203.5q50.5 56.5 50.5 159.5v340
q0 98 -50.5 152t-142.5 54q-91 0 -141.5 -54t-50.5 -152v-340q0 -103 50.5 -159.5t141.5 -56.5q92 0 142.5 56.5zM167 1454h620v-159h-620v159z" />
    <glyph glyph-name="epsilon" unicode="&#x3b5;" horiz-adv-x="831" 
d="M190 61q-90 76 -90 215v69q0 52 17 94.5t50 70.5t81 38q-66 27 -100 76.5t-34 113.5v58q0 124 86 191.5t243 67.5q129 0 212 -54t109 -154v-30l-143 -50v24q-25 53 -71 80.5t-107 27.5q-77 0 -119 -32t-42 -91v-46q0 -50 32.5 -77t90.5 -27h145v-162h-145q-65 0 -101 -31
t-36 -88v-52q0 -72 46.5 -112.5t131.5 -40.5q60 0 110 32.5t80 91.5v24l138 -57v-35q-32 -102 -116.5 -156.5t-211.5 -54.5q-166 0 -256 76z" />
    <glyph glyph-name="zeta" unicode="&#x3b6;" horiz-adv-x="895" 
d="M715 -93q0 40 -20.5 59t-63.5 19h-118q-142 2 -232 46t-133 135.5t-43 234.5q0 110 28 210.5t84 199t147 209.5q49 61 94 111t96 98q22 25 44 46.5t44 40.5l183 58v-92q-35 -22 -103 -88.5t-159 -176.5l-41 -49q-84 -105 -136 -195t-78.5 -181.5t-26.5 -190.5
q0 -134 59 -196t187 -62h135q116 0 169.5 -53.5t53.5 -168.5v-182h-170v168zM159 1288v166h666v-167z" />
    <glyph glyph-name="eta" unicode="&#x3b7;" horiz-adv-x="999" 
d="M135 1038h171v-1038h-171v1038zM699 678q0 106 -51 161.5t-148 55.5q-95 0 -144.5 -53.5t-49.5 -155.5l-21 175q43 97 116 145.5t168 48.5q146 0 223 -93.5t77 -269.5v-951h-170v937z" />
    <glyph glyph-name="theta" unicode="&#x3b8;" horiz-adv-x="946" 
d="M277.5 29.5q-81.5 44.5 -124.5 129t-43 203.5v735q0 118 43 201.5t124.5 127t196.5 43.5q114 0 195.5 -43.5t124 -127t42.5 -201.5v-738q0 -118 -42.5 -202t-124 -128t-195.5 -44q-115 0 -196.5 44.5zM615.5 203q50.5 56 50.5 158v734q0 101 -51 156.5t-142 55.5
q-92 0 -142 -55.5t-50 -156.5v-734q0 -102 50 -158t142 -56t142.5 56zM224 802h492v-160h-492v160z" />
    <glyph glyph-name="iota" unicode="&#x3b9;" horiz-adv-x="517" 
d="M207.5 68q-60.5 70 -60.5 197v773h171v-774q0 -50 21.5 -77.5t61.5 -27.5h76v-161h-100q-109 0 -169.5 70z" />
    <glyph glyph-name="kappa" unicode="&#x3ba;" horiz-adv-x="953" 
d="M206 309l444 619q44 63 100 94t122 31h49v-169h-24q-39 0 -74.5 -19t-64.5 -58l-487 -642zM135 1038h171v-1038h-171v1038zM469 563l102 138l392 -701h-192z" />
    <glyph glyph-name="lambda" unicode="&#x3bb;" horiz-adv-x="966" 
d="M198 0h-163l410 1108l62 -237zM252.5 1280q-23.5 21 -52.5 21h-63v160h118q55 0 99.5 -37.5t67.5 -109.5l364 -1085q13 -37 36 -58t53 -21h56v-160h-111q-54 0 -95.5 29.5t-60.5 88.5l-375 1114q-13 37 -36.5 58z" />
    <glyph glyph-name="uni03BC" unicode="&#x3bc;" horiz-adv-x="1042" 
d="M135 1041h170v-869h-7l7 -452h-170v1321zM385 6q-46 21 -71 61.5t-28 98.5l19 166q0 -89 50 -137t142 -48t141 48.5t49 138.5l31 -164q-10 -90 -67.5 -137.5t-154.5 -47.5q-65 0 -111 21zM746 68q-60 70 -60 197v773h171v-774q0 -50 21.5 -77.5t60.5 -27.5h64v-161h-87
q-110 0 -170 70z" />
    <glyph glyph-name="nu" unicode="&#x3bd;" horiz-adv-x="958" 
d="M433 0l-241 818q-12 39 -33 57t-54 18h-50v160h92q52 0 90.5 -21.5t67 -68t47.5 -120.5l149 -600l220 795h177l-328 -1038h-137z" />
    <glyph glyph-name="xi" unicode="&#x3be;" horiz-adv-x="920" 
d="M679 -81q0 33 -17 49.5t-50 16.5h-88q-199 0 -302 92.5t-103 268.5v115q0 118 53 194t157 104q-87 42 -131.5 105t-44.5 143v62q0 130 96 198t283 68v-43q-103 0 -156 -57.5t-53 -165.5v-61q0 -84 52.5 -128t153.5 -44h225v-160h-225q-118 0 -179 -56t-61 -163v-115
q0 -100 62 -152t182 -52h139q87 0 132.5 -44.5t45.5 -130.5v-224h-171v180zM115 1454h711v-163l-711 -1v164z" />
    <glyph glyph-name="omicron" unicode="&#x3bf;" horiz-adv-x="946" 
d="M277.5 29.5q-81.5 44.5 -124.5 129t-43 203.5v321q0 117 43 200.5t124.5 127.5t196.5 44q114 0 195.5 -44t124 -127.5t42.5 -200.5v-324q0 -118 -42.5 -202t-124 -128t-195.5 -44q-115 0 -196.5 44.5zM615.5 203q50.5 56 50.5 158v320q0 101 -51 156.5t-142 55.5
q-92 0 -142 -55.5t-50 -156.5v-320q0 -102 50 -158t142 -56t142.5 56z" />
    <glyph glyph-name="pi" unicode="&#x3c0;" horiz-adv-x="1176" 
d="M792 54.5q-54 64.5 -54 191.5v699h170v-701q0 -45 18.5 -69t55.5 -24h83v-161h-103q-116 0 -170 64.5zM251 944h171v-944h-171v944zM80 1038h1006v-158h-1006v158z" />
    <glyph glyph-name="rho" unicode="&#x3c1;" horiz-adv-x="969" 
d="M135 679q0 119 43 203.5t124.5 128.5t194.5 44q114 0 195.5 -44t124 -128.5t42.5 -203.5v-316q0 -119 -36.5 -204t-106.5 -129.5t-169 -44.5t-169 53t-100 150l28 163q0 -102 49.5 -158t140.5 -56q92 0 142.5 59.5t50.5 168.5v312q0 108 -50.5 167t-141.5 59t-141 -58.5
t-50 -165.5v-1101h-171v1101z" />
    <glyph glyph-name="sigma1" unicode="&#x3c2;" horiz-adv-x="895" 
d="M591 -97q0 41 -19.5 61.5t-59.5 20.5h-20q-121 0 -206.5 44.5t-130.5 129.5t-45 206v304q0 122 45 208.5t130.5 131.5t206.5 45q146 0 235.5 -69t110.5 -200v0l-166 -50v0q-16 78 -62 119.5t-115 41.5q-102 0 -158 -59.5t-56 -167.5v-304q0 -106 56 -164t158 -58h55
q104 0 157.5 -51.5t53.5 -151.5v-201h-170v164z" />
    <glyph glyph-name="sigma" unicode="&#x3c3;" horiz-adv-x="1006" 
d="M272.5 28.5q-79.5 43.5 -121 127t-41.5 201.5v322q0 113 41.5 194t121 123t191.5 42l180 -132q56 -16 94.5 -53t58 -89t19.5 -115v-295q0 -117 -41.5 -199.5t-120.5 -126t-190 -43.5q-112 0 -191.5 43.5zM598 201.5q48 54.5 48 154.5v321q0 96 -48 149t-135 53
t-134.5 -53t-47.5 -149v-321q0 -100 47.5 -154.5t134.5 -54.5t135 54.5zM463 1038h503v-160h-478z" />
    <glyph glyph-name="tau" unicode="&#x3c4;" horiz-adv-x="874" 
d="M389.5 59.5q-58.5 69.5 -58.5 205.5v698h170v-699q0 -55 23.5 -84t69.5 -29h90v-161h-110q-126 0 -184.5 69.5zM80 1038h684v-160h-684v160z" />
    <glyph glyph-name="upsilon" unicode="&#x3c5;" horiz-adv-x="1012" 
d="M327.5 27.5q-79.5 42.5 -120 126t-40.5 203.5v452q0 39 -16 59t-47 20h-44v164h68q102 0 155.5 -62.5t53.5 -182.5v-450q0 -102 47.5 -155.5t138.5 -53.5q92 0 140 53.5t48 155.5v681h171v-681q0 -120 -41 -203.5t-121 -126t-197 -42.5q-116 0 -195.5 42.5z" />
    <glyph glyph-name="phi" unicode="&#x3c6;" horiz-adv-x="1221" 
d="M327.5 38q-114.5 53 -173.5 157.5t-59 256.5v136q0 153 59 257t173.5 157t281.5 53q169 0 284.5 -53t174 -157t58.5 -257v-139q0 -152 -58.5 -255.5t-174 -156t-284.5 -52.5q-167 0 -281.5 53zM529 1339h165v-1640h-165v1640zM871 198q90 79 90 232v177q0 153 -90.5 233
t-262.5 80q-112 0 -189.5 -35.5t-117.5 -106t-40 -171.5v-177q0 -152 89 -231.5t258 -79.5q173 0 263 79z" />
    <glyph glyph-name="chi" unicode="&#x3c7;" horiz-adv-x="921" 
d="M733 -420q-34 15 -61.5 46.5t-46.5 80.5l-426 1093q-19 47 -45 70.5t-61 23.5h-68v161h112q40 0 75 -17t63.5 -52t49.5 -88l418 -1077q13 -32 28 -52t35.5 -31t49.5 -11h63v-162h-112q-40 0 -74 15zM413 361l89 -154l-255 -629h-187zM464 422l222 616h187l-326 -771z" />
    <glyph glyph-name="psi" unicode="&#x3c8;" horiz-adv-x="1297" 
d="M371.5 43q-115.5 58 -176 169t-60.5 270v556h171v-566q0 -108 40 -183.5t117.5 -115t187.5 -39.5t187.5 39.5t118 115t40.5 183.5v566h170v-556q0 -159 -60 -270t-175.5 -169t-280.5 -58q-164 0 -279.5 58zM567 1339h170v-1640h-170v1640z" />
    <glyph glyph-name="omega" unicode="&#x3c9;" horiz-adv-x="1275" 
d="M680.5 64.5q-69.5 79.5 -69.5 224.5v315h112v-299q0 -73 36.5 -113.5t102.5 -40.5q62 0 97.5 40.5t35.5 113.5v399q0 89 -47.5 138.5t-131.5 49.5v163q110 0 188.5 -40.5t119.5 -118.5t41 -188v-404q0 -152 -76 -235.5t-213 -83.5q-126 0 -195.5 79.5zM186 68.5
q-76 83.5 -76 235.5v404q0 110 41 188t119.5 118.5t188.5 40.5v-163q-84 0 -131 -49.5t-47 -138.5v-399q0 -73 35 -113.5t97 -40.5q66 0 102.5 40.5t36.5 113.5v299h113v-315q0 -145 -69.5 -224.5t-196.5 -79.5q-137 0 -213 83.5z" />
    <glyph glyph-name="iotadieresis" unicode="&#x3ca;" horiz-adv-x="517" 
d="M207.5 68q-60.5 70 -60.5 197v773h171v-774q0 -50 21.5 -77.5t61.5 -27.5h76v-161h-100q-109 0 -169.5 70zM318 1422h171v-171h-171v171zM-34 1422h170v-171h-170v171z" />
    <glyph glyph-name="upsilondieresis" unicode="&#x3cb;" horiz-adv-x="1012" 
d="M327.5 27.5q-79.5 42.5 -120 126t-40.5 203.5v452q0 39 -16 59t-47 20h-44v164h68q102 0 155.5 -62.5t53.5 -182.5v-450q0 -102 47.5 -155.5t138.5 -53.5q92 0 140 53.5t48 155.5v681h171v-681q0 -120 -41 -203.5t-121 -126t-197 -42.5q-116 0 -195.5 42.5zM590 1422h171
v-171h-171v171zM238 1422h170v-171h-170v171z" />
    <glyph glyph-name="omicrontonos" unicode="&#x3cc;" horiz-adv-x="946" 
d="M277.5 29.5q-81.5 44.5 -124.5 129t-43 203.5v321q0 117 43 200.5t124.5 127.5t196.5 44q114 0 195.5 -44t124 -127.5t42.5 -200.5v-324q0 -118 -42.5 -202t-124 -128t-195.5 -44q-115 0 -196.5 44.5zM615.5 203q50.5 56 50.5 158v320q0 101 -51 156.5t-142 55.5
q-92 0 -142 -55.5t-50 -156.5v-320q0 -102 50 -158t142 -56t142.5 56zM418.104 1254.81l128.524 424.516l155.745 -50.7812l-152.874 -413.162z" />
    <glyph glyph-name="upsilontonos" unicode="&#x3cd;" horiz-adv-x="1012" 
d="M327.5 27.5q-79.5 42.5 -120 126t-40.5 203.5v452q0 39 -16 59t-47 20h-44v164h68q102 0 155.5 -62.5t53.5 -182.5v-450q0 -102 47.5 -155.5t138.5 -53.5q92 0 140 53.5t48 155.5v681h171v-681q0 -120 -41 -203.5t-121 -126t-197 -42.5q-116 0 -195.5 42.5z
M444.104 1254.81l128.524 424.516l155.745 -50.7812l-152.874 -413.162z" />
    <glyph glyph-name="omegatonos" unicode="&#x3ce;" horiz-adv-x="1275" 
d="M680.5 64.5q-69.5 79.5 -69.5 224.5v315h112v-299q0 -73 36.5 -113.5t102.5 -40.5q62 0 97.5 40.5t35.5 113.5v399q0 89 -47.5 138.5t-131.5 49.5v163q110 0 188.5 -40.5t119.5 -118.5t41 -188v-404q0 -152 -76 -235.5t-213 -83.5q-126 0 -195.5 79.5zM186 68.5
q-76 83.5 -76 235.5v404q0 110 41 188t119.5 118.5t188.5 40.5v-163q-84 0 -131 -49.5t-47 -138.5v-399q0 -73 35 -113.5t97 -40.5q66 0 102.5 40.5t36.5 113.5v299h113v-315q0 -145 -69.5 -224.5t-196.5 -79.5q-137 0 -213 83.5zM582.104 1254.81l128.524 424.516
l155.745 -50.7812l-152.874 -413.162z" />
    <glyph glyph-name="uni03CF" unicode="&#x3cf;" horiz-adv-x="1094" 
d="M865 -422h-202l224 422h202zM265 583l569 871h202l-765 -1127zM140 1454h171v-1454h-171v1454zM517 776l116 149l456 -925h-202z" />
    <glyph glyph-name="uni03D0" unicode="&#x3d0;" horiz-adv-x="964" 
d="M293 30.5q-82 45.5 -125 131.5t-43 208v722q0 119 41 204t119.5 129t189.5 44q107 0 183.5 -41t116 -120.5t39.5 -190.5v-102q0 -70 -26.5 -134t-78 -103.5t-121.5 -39.5l-1 -70h-189v160h97q71 0 110 50.5t39 143.5v102q0 88 -44.5 136.5t-124.5 48.5q-86 0 -132.5 -55
t-46.5 -155v-732q0 -105 50.5 -163t143.5 -58q92 0 143 54t51 152v123q0 92 -49.5 142.5t-139.5 50.5v117q113 0 194 -36.5t123 -107.5t42 -170v-119q0 -116 -42.5 -198t-124.5 -125.5t-197 -43.5t-197 45.5z" />
    <glyph glyph-name="theta1" unicode="&#x3d1;" horiz-adv-x="1047" 
d="M347.5 29q-78.5 44 -120 128t-41.5 202h171q0 -100 47 -155t133 -55q84 0 130 59t46 166v708q0 108 -46.5 167.5t-129.5 59.5q-77 0 -119.5 -45t-42.5 -127v-7q0 -76 43.5 -117t123.5 -41h475v-161h-493q-152 0 -236 81t-84 228v17q0 159 87 245.5t246 86.5
q110 0 187.5 -45.5t118 -132.5t40.5 -209v-705q0 -124 -40.5 -212t-118 -134t-187.5 -46q-111 0 -189.5 44zM186 516q0 54 -17.5 89.5t-51.5 53t-82 17.5v157q102 0 174 -37.5t110 -108.5t38 -171v-157h-171v157z" />
    <glyph glyph-name="Upsilon1" unicode="&#x3d2;" horiz-adv-x="994" 
d="M411 1007h170v-1007h-170v1007zM487 990q0 140 58 246.5t174 165.5t285 59v-165q-139 0 -233.5 -68t-142 -191.5t-47.5 -290.5zM364 1036.5q-47 123.5 -141.5 191.5t-232.5 68v165q168 0 284 -59t173.5 -165.5t57.5 -246.5l-94 -244q0 167 -47 290.5z" />
    <glyph glyph-name="uni03D3" unicode="&#x3d3;" horiz-adv-x="1349" 
d="M781 1007h170v-1007h-170v1007zM857 990q0 140 58 246.5t174 165.5t285 59v-165q-139 0 -233.5 -68t-142 -191.5t-47.5 -290.5zM734 1036.5q-47 123.5 -141.5 191.5t-232.5 68v165q168 0 284 -59t173.5 -165.5t57.5 -246.5l-94 -244q0 167 -47 290.5zM-24.8955 1034.81
l128.524 424.516l155.745 -50.7812l-152.874 -413.162z" />
    <glyph glyph-name="uni03D4" unicode="&#x3d4;" horiz-adv-x="994" 
d="M411 1007h170v-1007h-170v1007zM487 990q0 140 58 246.5t174 165.5t285 59v-165q-139 0 -233.5 -68t-142 -191.5t-47.5 -290.5zM364 1036.5q-47 123.5 -141.5 191.5t-232.5 68v165q168 0 284 -59t173.5 -165.5t57.5 -246.5l-94 -244q0 167 -47 290.5zM595 1757h178v-178
h-178v178zM220 1757h178v-178h-178v178z" />
    <glyph glyph-name="phi1" unicode="&#x3d5;" horiz-adv-x="1221" 
d="M528 746q0 151 77 230t225 79q147 0 221.5 -79t74.5 -235v-297q0 -152 -57.5 -254t-172 -153.5t-283.5 -51.5q-171 0 -286.5 52t-173.5 154.5t-58 255.5v166q0 147 64 247t190 150l76 -127q-82 -38 -123.5 -107t-41.5 -167v-161q0 -163 89 -246t263 -83q172 0 260.5 83
t88.5 246v296q0 77 -33 115.5t-98 38.5q-66 0 -99.5 -36.5t-33.5 -107.5v-1055h-169v1047z" />
    <glyph glyph-name="omega1" unicode="&#x3d6;" horiz-adv-x="1475" 
d="M784 72.5q-72 87.5 -72 246.5v254h111v-250q0 -84 38.5 -130t108.5 -46q68 0 106.5 46t38.5 130v275q0 133 -47 206t-131 73l60 67q138 0 213 -100t75 -282v-240q0 -160 -78 -248.5t-218 -88.5q-133 0 -205 87.5zM268 73.5q-78 88.5 -78 248.5v240q0 121 34.5 206.5
t100.5 130.5t158 45l55 -67q-84 0 -130.5 -73t-46.5 -206v-275q0 -84 38 -130t107 -46q70 0 108 46t38 130v250h112v-254q0 -159 -72.5 -246.5t-204.5 -87.5q-141 0 -219 88.5zM80 1038h1315v-161h-1315v161z" />
    <glyph glyph-name="uni03D7" unicode="&#x3d7;" horiz-adv-x="1190" 
d="M838 -177h79q53 0 82 34.5t29 97.5v202h172v-198q0 -141 -69 -219t-194 -78h-99v161zM827.5 70q-63.5 74 -63.5 211q0 102 15.5 207t61.5 219l-432 -706h-165q45 217 69 395.5t24 339.5q0 71 -36.5 109t-104.5 38h-61v160h78q135 0 208 -74.5t73 -215.5
q0 -88 -16.5 -194.5t-46.5 -242.5q-2 -11 -4.5 -22t-5.5 -22l470 766h165q-66 -210 -100.5 -404.5t-34.5 -348.5q0 -62 28 -95.5t80 -33.5h63v-160h-82q-119 0 -182.5 74z" />
    <glyph glyph-name="uni03D8" unicode="&#x3d8;" horiz-adv-x="1122" 
d="M327.5 337q-98.5 54 -150.5 155.5t-52 241.5v284q0 141 52 242.5t150.5 155t233.5 53.5q136 0 234 -53.5t150 -155t52 -242.5v-284q0 -140 -52 -241.5t-150 -155.5t-234 -54q-135 0 -233.5 54zM702.5 480q59.5 33 91 96t31.5 150v301q0 87 -31.5 149.5t-91 96
t-141.5 33.5t-141.5 -33.5t-91 -96t-31.5 -149.5v-301q0 -87 31.5 -150t91 -96t141.5 -33t141.5 33zM476 447h170v-447h-170v447z" />
    <glyph glyph-name="uni03D9" unicode="&#x3d9;" horiz-adv-x="946" 
d="M388 139h170v-398h-170v398zM277.5 29.5q-81.5 44.5 -124.5 129t-43 203.5v321q0 117 43 200.5t124.5 127.5t196.5 44q114 0 195.5 -44t124 -127.5t42.5 -200.5v-324q0 -118 -42.5 -202t-124 -128t-195.5 -44q-115 0 -196.5 44.5zM615.5 203q50.5 56 50.5 158v320
q0 101 -51 156.5t-142 55.5q-92 0 -142 -55.5t-50 -156.5v-320q0 -102 50 -158t142 -56t142.5 56z" />
    <glyph glyph-name="uni03DA" unicode="&#x3da;" horiz-adv-x="1041" 
d="M793 -81q0 34 -16.5 50t-50.5 16h-113q-167 1 -274.5 72.5t-160.5 217.5t-53 371q0 235 56 389.5t170 236.5t290 97q101 9 149.5 53.5t48.5 124.5h167q0 -140 -83 -222t-255 -102q-127 -13 -209.5 -79.5t-122.5 -189.5t-40 -308q0 -174 35.5 -286.5t109 -167t186.5 -54.5
h155q93 0 137 -46t44 -143v-210h-170v180z" />
    <glyph glyph-name="uni03DB" unicode="&#x3db;" horiz-adv-x="896" 
d="M650 -91q0 38 -18.5 57t-55.5 19h-45q-142 1 -235.5 56t-139.5 164.5t-46 275.5q0 161 52.5 272.5t158 177.5t268.5 90q48 7 71.5 35t23.5 75h167q0 -111 -63 -178t-190 -84q-163 -22 -242 -118t-79 -270q0 -171 68.5 -254.5t209.5 -83.5h47q74 0 122.5 -25.5t72 -76.5
t23.5 -128v-174h-170v170z" />
    <glyph glyph-name="uni03DC" unicode="&#x3dc;" horiz-adv-x="950" 
d="M140 1454h171v-1454h-171v1454zM240 789h590v-160h-590v160zM240 1454h670v-160h-670v160z" />
    <glyph glyph-name="uni03DD" unicode="&#x3dd;" horiz-adv-x="880" 
d="M140 1035h171v-1457h-171v1457zM240 367l520 2v-160l-520 -2v160zM240 1035h600v-160h-600v160z" />
    <glyph glyph-name="uni03DE" unicode="&#x3de;" horiz-adv-x="1085" 
d="M396 1454h186l-366 -814h-186zM866 803h189l-344 -803h-189zM176 803h742v-163h-742v163z" />
    <glyph glyph-name="uni03DF" unicode="&#x3df;" horiz-adv-x="1075" 
d="M691 -422h-191l324 805h191zM256 219h-191l348 816h192zM215 383h692v-164h-692v164z" />
    <glyph glyph-name="uni03E0" unicode="&#x3e0;" horiz-adv-x="969" 
d="M671 737q0 285 -95.5 427t-287.5 142q-102 0 -240 -45l-28 163q152 45 268 45q279 0 417.5 -182.5t138.5 -549.5q0 -408 -186 -737h-181q194 325 194 737zM161 555l554 230l56 -149l-553 -230zM54 879l584 245l56 -149l-582 -246z" />
    <glyph glyph-name="uni03E1" unicode="&#x3e1;" horiz-adv-x="989" 
d="M646.5 19q47.5 240 47.5 483q0 402 -101 603t-305 201q-111 0 -235 -45l-33 163q152 45 268 45q289 0 432.5 -241t143.5 -726q0 -241 -44.5 -481.5t-131.5 -442.5h-181q92 201 139.5 441zM174 361l563 234l57 -153l-562 -234zM52 802l593 250l57 -153l-592 -250z" />
    <glyph glyph-name="uni03E2" unicode="&#x3e2;" horiz-adv-x="1673" 
d="M956 31q-75 46 -114 133.5t-39 210.5v1079h122v-1071q0 -111 57.5 -172t161.5 -61q105 0 162 61t57 172v1071h170v-1043l-99 -134q-26 -145 -98.5 -218.5t-198.5 -73.5q-106 0 -181 46zM315.5 33.5q-85.5 48.5 -130.5 140.5t-45 222v1058h171v-1066q0 -113 57 -175.5
t161 -62.5q108 0 167 61t59 172v1071h122v-1079q0 -123 -41.5 -210.5t-121.5 -133.5t-193 -46q-120 0 -205.5 48.5zM468 -168h679q88 0 134.5 25.5t64 75.5t17.5 134v458h170v-449q0 -202 -84.5 -303.5t-281.5 -101.5h-696zM404.5 -353q-27.5 -23 -27.5 -69h-167
q0 127 64.5 190.5t193.5 63.5l19 -161q-55 -1 -82.5 -24z" />
    <glyph glyph-name="uni03E3" unicode="&#x3e3;" horiz-adv-x="1372" 
d="M431 -168h460q76 0 115 21.5t52.5 61.5t13.5 107v376h170v-367q0 -179 -76.5 -269.5t-254.5 -90.5h-491zM238 -231.5q64 63.5 193 63.5l5 -161q-47 -1 -71 -24t-24 -69h-167q0 127 64 190.5zM217.5 72q-82.5 87 -82.5 247v719h171v-726q0 -77 39.5 -119.5t112.5 -42.5
q69 0 107 42.5t38 119.5v726h131v-719q0 -106 -33 -181t-96 -114t-152 -39q-153 0 -235.5 87zM764 24q-59 39 -89.5 114t-30.5 181v719h130v-726q0 -77 37.5 -119.5t107.5 -42.5q73 0 113 42.5t40 119.5v726h170v-719l-94 -114q-15 -71 -49 -120t-83.5 -74.5t-109.5 -25.5
q-83 0 -142 39z" />
    <glyph glyph-name="uni03E4" unicode="&#x3e4;" horiz-adv-x="1104" 
d="M273 506.5q-87 52.5 -132.5 152t-45.5 238.5v140q0 218 97.5 321t297.5 103h62v-161h-62q-115 0 -169.5 -66t-54.5 -205v-130q0 -135 65.5 -210t185.5 -75q132 0 204.5 72t72.5 203v115l64 -20v-148q0 -120 -44.5 -206t-129 -131t-202.5 -45q-122 0 -209 52.5zM794 1454
h170v-1454h-170v1454z" />
    <glyph glyph-name="uni03E5" unicode="&#x3e5;" horiz-adv-x="1114" 
d="M814 1038h170v-1460h-170v1460zM549 893h-39q-117 0 -173 -70.5t-56 -220.5v-157q0 -143 67 -221.5t189 -78.5q132 0 204.5 72t72.5 203v115l51 -20v-148q0 -120 -42 -206t-122.5 -131t-193.5 -45q-126 0 -215 54.5t-135.5 157t-46.5 246.5v167q0 228 99 336.5t301 108.5
h39v-162z" />
    <glyph glyph-name="uni03E6" unicode="&#x3e6;" horiz-adv-x="1107" 
d="M395 -168h283q62 0 94.5 21.5t43.5 62t11 107.5v433q0 68 -27 117t-77.5 74.5t-122.5 25.5h-315v160h355q113 0 193 -44.5t122 -129t42 -204.5v-429q0 -177 -73.5 -266t-242.5 -89h-291zM135 1454h171v-1454h-171v1454zM336.5 -353q-24.5 -23 -24.5 -69h-157
q0 127 60 190.5t180 63.5l13 -161q-47 -1 -71.5 -24z" />
    <glyph glyph-name="uni03E7" unicode="&#x3e7;" horiz-adv-x="992" 
d="M848 435q0 -136 -46.5 -233.5t-135 -149.5t-210.5 -52v161q70 0 120.5 32t77 92.5t26.5 146.5v137q0 98 -30.5 171.5t-87 113t-132.5 39.5q-77 0 -122 -40.5t-45 -109.5v-12q0 -67 46.5 -106t125.5 -39q101 0 175.5 55t115 157.5t40.5 239.5h166q0 -186 -64 -324.5
t-182.5 -213.5t-278.5 -75q-96 0 -167 36.5t-109.5 103t-38.5 156.5v22q0 94 41.5 164t118 108t178.5 38q127 0 221.5 -59t145.5 -168.5t51 -256.5v-134zM265.5 -23.5q-27.5 -23.5 -27.5 -69.5h-163q0 126 63 190t187 64h131v-161h-111q-52 0 -79.5 -23.5z" />
    <glyph glyph-name="uni03E8" unicode="&#x3e8;" horiz-adv-x="1112" 
d="M315 30.5q-107 45.5 -159.5 136.5t-52.5 230v12q0 121 43.5 209.5t136 152t241.5 108.5q11 3 22 6.5t22 7.5q64 22 106 49.5t64.5 67t22.5 94.5v16q0 95 -49 141t-150 46q-83 0 -136 -44.5t-81 -134.5v0l-159 58v0q38 141 130.5 212t241.5 71q126 0 208 -37.5t123 -114.5
t41 -194v-12q0 -110 -40 -184.5t-112.5 -119.5t-179.5 -71q-171 -42 -249 -122.5t-78 -206.5v-10q0 -85 33.5 -140.5t102.5 -82.5t176 -27q127 0 205.5 61t111.5 183v0l160 -59v0q-28 -115 -89.5 -192t-157 -116t-226.5 -39q-165 0 -272 45.5z" />
    <glyph glyph-name="uni03E9" unicode="&#x3e9;" horiz-adv-x="918" 
d="M256 20q-84 35 -126 103.5t-42 169.5q0 97 38 163.5t109 107.5t178 65q5 1 11 2.5t12 2.5q61 13 100.5 32t60.5 47t21 66q0 61 -33.5 92t-99.5 31q-62 0 -105.5 -31.5t-66.5 -93.5v0l-154 60v0q33 107 115 162t211 55q98 0 164 -31.5t100 -93.5t34 -154q0 -80 -29.5 -136
t-83.5 -90.5t-133 -53.5q-2 0 -3.5 -0.5t-3.5 -0.5q-5 -1 -9.5 -2.5t-9.5 -2.5q-88 -21 -144 -46.5t-85.5 -62t-29.5 -87.5q0 -77 53.5 -116t158.5 -39q97 0 164.5 39.5t101.5 116.5v0l153 -60v0q-24 -82 -79 -137.5t-140.5 -83.5t-199.5 -28q-124 0 -208 35z" />
    <glyph glyph-name="uni03EA" unicode="&#x3ea;" horiz-adv-x="1160" 
d="M669 1294q34 69 64.5 105t64 49t81.5 13h133v-159h-128q-21 0 -33 -9.5t-26 -39.5l-615 -1253h-175zM168 161h822v-161h-822v161zM345 1253q-13 29 -25 39t-34 10h-127v159h133q48 0 81.5 -13t64 -49t63.5 -106l624 -1293h-175z" />
    <glyph glyph-name="uni03EB" unicode="&#x3eb;" horiz-adv-x="973" 
d="M288 847q-14 27 -29.5 38t-37.5 11h-80v159h93q42 0 72.5 -10t56.5 -35.5t49 -72.5l496 -937h-172zM221 161h540v-161h-540v161zM568 937q24 47 50 72.5t56 35.5t72 10h88v-159h-75q-22 0 -37 -11t-30 -38l-453 -847h-171z" />
    <glyph glyph-name="uni03EC" unicode="&#x3ec;" horiz-adv-x="1176" 
d="M338 38q-104 53 -158.5 154.5t-54.5 244.5v239l145 211q17 79 65.5 134.5t124.5 83.5t173 28q132 0 226 -53.5t143 -156.5t49 -247v-242q0 -142 -54.5 -242.5t-158.5 -153.5t-250 -53t-250 53zM746 180q66 34 100.5 100t34.5 158v235q0 142 -77 221t-217 79
q-139 0 -215 -78.5t-76 -221.5v-235q0 -140 76 -216t215 -76q93 0 159 34zM125 1016q0 438 396 438h160q80 0 120.5 24t40.5 69h159q0 -241 -306 -241h-157q-252 0 -252 -270v-372h-161v352z" />
    <glyph glyph-name="uni03ED" unicode="&#x3ed;" horiz-adv-x="971" 
d="M302.5 29.5q-81.5 44.5 -124.5 129t-43 203.5v280l126 179q28 94 100.5 144t181.5 50q100 0 171.5 -43.5t109 -127t37.5 -201.5v-284q0 -118 -42.5 -202t-124 -128t-196.5 -44q-114 0 -195.5 44.5zM640 204.5q51 56.5 51 158.5v276q0 101 -51 157t-143 56q-91 0 -141 -56
t-50 -157v-276q0 -103 50 -159t141 -56q92 0 143 56.5zM135 964q0 115 38.5 190.5t115.5 118t198 58.5q62 9 101 24t58 39t19 60h165q0 -78 -30.5 -131t-92.5 -83t-158 -41q-86 -12 -140.5 -39.5t-81 -76.5t-26.5 -125v-404h-166v410z" />
    <glyph glyph-name="uni03EE" unicode="&#x3ee;" horiz-adv-x="907" 
d="M837 1239v-161h-616q-50 0 -77 -20.5t-27 -57.5v-104h-167v114q0 109 63 169t180 60h644zM503 0h-171v1454h171v-1454z" />
    <glyph glyph-name="uni03EF" unicode="&#x3ef;" horiz-adv-x="797" 
d="M122 -261h107q42 0 64 30.5t22 86.5v1484h170v-1487q0 -137 -56.5 -206t-178.5 -69h-128v161zM45 1038h712v-158h-712v158z" />
    <glyph glyph-name="uni03F0" unicode="&#x3f0;" horiz-adv-x="1082" 
d="M757.5 70q-63.5 74 -63.5 211q0 102 15.5 207t61.5 219l-432 -706h-165q45 217 69 395.5t24 339.5q0 71 -36.5 109t-104.5 38h-61v160h78q135 0 208 -74.5t73 -215.5q0 -88 -16.5 -194.5t-46.5 -242.5q-2 -11 -4.5 -22t-5.5 -22l470 766h165q-66 -210 -100.5 -404.5
t-34.5 -348.5q0 -62 28 -95.5t80 -33.5h63v-160h-82q-119 0 -182.5 74z" />
    <glyph glyph-name="uni03F1" unicode="&#x3f1;" horiz-adv-x="969" 
d="M378 37.5q-70 52.5 -100 148.5l28 165q0 -102 49.5 -158t140.5 -56q92 0 142.5 59.5t50.5 168.5v312q0 107 -50.5 165.5t-141.5 58.5t-141 -58t-50 -164v-545h-171v545q0 119 43 203.5t124.5 128.5t194.5 44q114 0 195.5 -44t124 -128.5t42.5 -203.5v-316
q0 -119 -36.5 -204t-106.5 -129.5t-169 -44.5t-169 52.5zM212 -240q-77 89 -77 266v329h171v-333q0 -67 13 -107t52.5 -61.5t114.5 -21.5h97l7 -161h-124q-177 0 -254 89zM573 -329l10 161q125 0 187.5 -63.5t62.5 -190.5h-164q0 91 -96 93z" />
    <glyph glyph-name="uni03F2" unicode="&#x3f2;" horiz-adv-x="896" 
d="M284 29q-85 44 -129.5 129t-44.5 207v304q0 123 44.5 209.5t129.5 131t208 44.5q98 0 170 -30t116.5 -89t59.5 -145v0l-161 -50v0q-17 76 -63.5 115.5t-118.5 39.5q-104 0 -159 -58.5t-55 -167.5v-304q0 -106 55 -163t159 -57q74 0 121.5 37.5t64.5 110.5v0l158 -52v0
q-15 -83 -59.5 -141t-117 -86.5t-170.5 -28.5q-123 0 -208 44z" />
    <glyph glyph-name="uni03F3" unicode="&#x3f3;" horiz-adv-x="488" 
d="M10 -261h84q44 0 68.5 29.5t24.5 83.5v1186h170v-1185q0 -131 -63.5 -203t-179.5 -72h-104v161zM186 1450h172v-185h-172v185z" />
    <glyph glyph-name="uni03F4" unicode="&#x3f4;" horiz-adv-x="1122" 
d="M237 802h645v-160h-645v160zM327.5 39q-98.5 54 -150.5 155.5t-52 241.5v582q0 141 52 242.5t150.5 155t233.5 53.5q136 0 234 -53.5t150 -155t52 -242.5v-582q0 -140 -52 -241.5t-150 -155.5t-234 -54q-135 0 -233.5 54zM702.5 183.5q59.5 33.5 91 96t31.5 149.5v596
q0 87 -31.5 149.5t-91 96t-141.5 33.5t-141.5 -33.5t-91 -96t-31.5 -149.5v-596q0 -87 31.5 -149.5t91 -96t141.5 -33.5t141.5 33.5z" />
    <glyph glyph-name="uni03F5" unicode="&#x3f5;" horiz-adv-x="896" 
d="M236 590h424v-151h-424v151zM283.5 29q-85.5 44 -129.5 129t-44 208v303q0 124 44.5 210t129.5 131t208 45q91 0 162 -29t117.5 -84t66.5 -134v-10l-145 -57v10q-24 70 -75.5 107t-122.5 37q-104 0 -159 -58t-55 -168v-303q0 -108 55 -164.5t159 -56.5q73 0 125 35.5
t77 101.5v10l142 -58v-10q-20 -77 -67 -130t-118 -81t-162 -28q-123 0 -208.5 44z" />
    <glyph glyph-name="uni03F6" unicode="&#x3f6;" horiz-adv-x="896" 
d="M236 439v151h424v-151h-424zM237.5 14q-71.5 29 -117 86t-62.5 140v0l151 47v0q25 -74 75 -113t122 -39q101 0 155.5 59t54.5 171v303q0 109 -54.5 167t-155.5 58q-73 0 -122.5 -39t-70.5 -114v0l-154 50v0q17 86 62.5 145t116.5 88.5t167 29.5q122 0 207.5 -45
t129.5 -131t44 -209v-303q0 -122 -44 -207t-129.5 -129t-207.5 -44q-96 0 -167.5 29z" />
    <glyph glyph-name="uni03F7" unicode="&#x3f7;" horiz-adv-x="1070" 
d="M245 465h365q58 0 102 26.5t67.5 76t23.5 116.5v127q0 68 -23.5 118t-67 77.5t-102.5 27.5h-365v160h358q113 0 197 -46.5t129.5 -133t45.5 -203.5v-129q0 -115 -45.5 -200.5t-129.5 -131.5t-197 -46h-358v161zM140 1454h171v-1454h-171v1454z" />
    <glyph glyph-name="uni03F8" unicode="&#x3f8;" horiz-adv-x="969" 
d="M135 1454h171v-1876h-171v1876zM390 30.5q-69 45.5 -98 132.5l14 188q0 -63 22.5 -111.5t65 -75.5t101.5 -27q93 0 144 60t51 168v310q0 108 -51 168t-144 60q-59 0 -101.5 -26.5t-65 -74t-22.5 -108.5l-21 171q41 92 114.5 141t164.5 49q93 0 159.5 -44.5t101 -129
t34.5 -204.5v-314q0 -119 -35.5 -204t-104 -129.5t-165.5 -44.5q-95 0 -164 45.5z" />
    <glyph glyph-name="uni03F9" unicode="&#x3f9;" horiz-adv-x="1062" 
d="M323 40q-95 55 -146.5 158.5t-51.5 243.5v569q0 141 51.5 244t146.5 158.5t224 55.5q122 0 213 -50t144 -146t62 -230v0h-172v0q-8 82 -41 141t-86 90t-120 31q-76 0 -132.5 -35.5t-87 -102t-30.5 -156.5v-569q0 -90 30.5 -156t87 -101.5t132.5 -35.5q68 0 120.5 30.5
t85.5 89t41 142.5v0h172v0q-9 -134 -62 -230t-144 -146t-213 -50q-129 0 -224 55z" />
    <glyph glyph-name="uni03FA" unicode="&#x3fa;" horiz-adv-x="1366" 
d="M1064 1454h162v-1454h-164v1152l13 -64l-331 -877h-122l-331 857l15 84v-1152h-166v1454h164l379 -996z" />
    <glyph glyph-name="uni03FB" unicode="&#x3fb;" horiz-adv-x="1099" 
d="M286 128v-384h-151v384h151zM808 1038h156v-1038h-150v811l11 -69l-224 -521h-102l-227 516l14 74v-811h-151v1038h157l258 -600z" />
    <glyph glyph-name="uni03FC" unicode="&#x3fc;" horiz-adv-x="944" 
d="M600 -117v-161h-575v161h575zM110 679q0 119 43 203.5t124.5 128.5t194.5 44q114 0 195.5 -44t124 -128.5t42.5 -203.5v-316q0 -119 -36.5 -204t-106.5 -129.5t-169 -44.5t-169 53t-100 150l28 163q0 -102 49.5 -158t140.5 -56q92 0 142.5 59.5t50.5 168.5v312
q0 108 -50.5 167t-141.5 59t-141 -58.5t-50 -165.5v-1101h-171v1101z" />
    <glyph glyph-name="uni03FD" unicode="&#x3fd;" horiz-adv-x="1062" 
d="M300 34q-91 49 -143.5 144.5t-61.5 232.5v0h172v0q8 -85 40.5 -143.5t85.5 -88.5t122 -30q76 0 132.5 35.5t86.5 101.5t30 156v569q0 90 -30 156.5t-86.5 102t-132.5 35.5q-69 0 -122 -30.5t-85.5 -89t-40.5 -142.5v0h-172v0q9 137 61 232.5t143 144.5t216 49
q129 0 224 -55.5t146 -158.5t51 -244v-569q0 -140 -51 -243.5t-146 -158.5t-224 -55q-124 0 -215 49z" />
    <glyph glyph-name="uni03FE" unicode="&#x3fe;" horiz-adv-x="1062" 
d="M323 40q-95 55 -146.5 158.5t-51.5 243.5v569q0 141 51.5 244t146.5 158.5t224 55.5q122 0 213 -50t144 -146t62 -230v0h-172v0q-8 82 -41 141t-86 90t-120 31q-76 0 -132.5 -35.5t-87 -102t-30.5 -156.5v-569q0 -90 30.5 -156t87 -101.5t132.5 -35.5q68 0 120.5 30.5
t85.5 89t41 142.5v0h172v0q-9 -134 -62 -230t-144 -146t-213 -50q-129 0 -224 55zM504 812h171v-170h-171v170z" />
    <glyph glyph-name="uni03FF" unicode="&#x3ff;" horiz-adv-x="1062" 
d="M300 34q-91 49 -143.5 144.5t-61.5 232.5v0h172v0q8 -85 40.5 -143.5t85.5 -88.5t122 -30q76 0 132.5 35.5t86.5 101.5t30 156v569q0 90 -30 156.5t-86.5 102t-132.5 35.5q-69 0 -122 -30.5t-85.5 -89t-40.5 -142.5v0h-172v0q9 137 61 232.5t143 144.5t216 49
q129 0 224 -55.5t146 -158.5t51 -244v-569q0 -140 -51 -243.5t-146 -158.5t-224 -55q-124 0 -215 49zM387 812h171v-170h-171v170z" />
    <glyph glyph-name="uni0400" unicode="&#x400;" horiz-adv-x="999" 
d="M140 1454h171v-1454h-171v1454zM239 161h680v-161h-680v161zM239 802h600v-160h-600v160zM239 1454h680v-160h-680v160zM253 1773l119 123l259 -251l-104 -101z" />
    <glyph glyph-name="uni0401" unicode="&#x401;" horiz-adv-x="999" 
d="M140 1454h171v-1454h-171v1454zM239 161h680v-161h-680v161zM239 802h600v-160h-600v160zM239 1454h680v-160h-680v160zM645 1757h178v-178h-178v178zM270 1757h178v-178h-178v178z" />
    <glyph glyph-name="uni0402" unicode="&#x402;" horiz-adv-x="1215" 
d="M980.5 844q81.5 -45 123 -133.5t41.5 -216.5v-134q0 -117 -40 -197t-117.5 -121.5t-189.5 -41.5h-97v161h77q95 0 146 49t51 140v151q0 111 -56 169.5t-161 58.5q-121 0 -185.5 -63.5t-64.5 -182.5v-115l-64 60v108q0 114 38.5 193t114 119.5t184.5 40.5q118 0 199.5 -45
zM338 1350h170v-1350h-170v1350zM-10 1454h866v-160h-866v160z" />
    <glyph glyph-name="uni0403" unicode="&#x403;" horiz-adv-x="800" 
d="M140 1454h171v-1454h-171v1454zM253 1454h557v-160h-557v160zM393 1648l265 250l122 -122l-283 -229z" />
    <glyph glyph-name="uni0404" unicode="&#x404;" horiz-adv-x="1062" 
d="M239 804h575v-163h-575v163zM323.5 40.5q-95.5 55.5 -147 159t-51.5 242.5v569q0 140 51.5 243.5t146.5 159t224 55.5q116 0 206.5 -48t145.5 -137.5t68 -211.5v-29h-173v29q-10 71 -45 123.5t-87 81t-115 28.5q-76 0 -132 -36t-87 -102t-31 -156v-569q0 -89 31 -155
t87 -102t132 -36q63 0 115 27.5t87 80t45 125.5v29h173v-29q-13 -121 -68 -211t-145.5 -138t-206.5 -48q-128 0 -223.5 55.5z" />
    <glyph glyph-name="uni0405" unicode="&#x405;" horiz-adv-x="1072" 
d="M325.5 18q-89.5 33 -149.5 100.5t-86 168.5v0l162 66v0q29 -104 101.5 -155.5t177.5 -51.5q131 0 201.5 57t70.5 162v54q0 71 -35.5 116.5t-90.5 71t-145 52.5q-2 1 -4.5 2t-5.5 1l-19 7q-122 36 -197 71.5t-128 109.5t-53 199v39q0 122 50.5 207.5t147.5 129.5t236 44
q105 0 184 -32t131.5 -96t78.5 -161v0l-158 -67v0q-30 98 -89 146.5t-147 48.5q-128 0 -196.5 -56t-68.5 -160v-41q0 -71 38.5 -115.5t96 -69.5t157.5 -54q4 -1 8 -2.5t8 -2.5t9 -2.5t9 -3.5q110 -33 182.5 -71t121 -112t48.5 -194v-57q0 -123 -51 -208.5t-150 -129.5
t-240 -44q-116 0 -205.5 33z" />
    <glyph glyph-name="uni0406" unicode="&#x406;" horiz-adv-x="475" 
d="M323 0h-171v1454h171v-1454z" />
    <glyph glyph-name="uni0407" unicode="&#x407;" horiz-adv-x="475" 
d="M323 0h-171v1454h171v-1454zM337 1757h178v-178h-178v178zM-38 1757h178v-178h-178v178z" />
    <glyph glyph-name="uni0408" unicode="&#x408;" horiz-adv-x="880" 
d="M160 27.5q-86 42.5 -140 119.5l127 106q36 -50 91 -77.5t120 -27.5q101 0 156.5 64.5t55.5 181.5v1060h170v-1062q0 -128 -46 -219.5t-133.5 -139.5t-211.5 -48q-103 0 -189 42.5z" />
    <glyph glyph-name="uni0409" unicode="&#x409;" horiz-adv-x="1733" 
d="M910 161h358q59 0 103 25.5t67 74t23 114.5v116q0 68 -23 117t-66.5 75t-103.5 26h-358v161h351q115 0 199 -45t128.5 -130.5t44.5 -202.5v-119q0 -116 -44.5 -200t-128.5 -128.5t-199 -44.5h-351v161zM115 163h6q58 0 96.5 27t58 82t19.5 138v1044h170v-1046
q0 -136 -36.5 -226.5t-108.5 -136t-179 -45.5h-26v163zM885 1454h170v-1454h-170v1454zM396 1454h580v-160h-580v160z" />
    <glyph glyph-name="uni040A" unicode="&#x40a;" horiz-adv-x="1708" 
d="M917 161h325q60 0 103.5 25.5t67 74t23.5 114.5v116q0 68 -23.5 117t-67 75t-103.5 26h-325v161h318q116 0 199.5 -45t128.5 -130.5t45 -202.5v-119q0 -116 -45 -200t-128.5 -128.5t-199.5 -44.5h-318v161zM820 1454h170v-1454h-170v1454zM140 1454h171v-1454h-171v1454z
M260 798h641v-162h-641v162z" />
    <glyph glyph-name="uni040B" unicode="&#x40b;" horiz-adv-x="1328" 
d="M1035 650q0 120 -61.5 181t-181.5 61q-139 0 -209 -61.5t-70 -182.5l-43 70q15 167 110 252t264 85q178 0 270 -96.5t92 -284.5v-674h-171v650zM343 1350h170v-1350h-170v1350zM-10 1454h871v-160h-871v160z" />
    <glyph glyph-name="uni040C" unicode="&#x40c;" horiz-adv-x="1102" 
d="M479 786l361 668h196l-445 -804zM476 657l151 88l470 -745h-212zM140 1454h171v-1454h-171v1454zM239 802h393v-160h-393v160zM436 1648l265 250l122 -122l-283 -229z" />
    <glyph glyph-name="uni040D" unicode="&#x40d;" horiz-adv-x="1174" 
d="M869 1v1163l37 -3l-625 -1160h-141v1453h166v-1172l-33 7l622 1165h139v-1453h-165zM292 1773l119 123l259 -251l-104 -101z" />
    <glyph glyph-name="uni040E" unicode="&#x40e;" horiz-adv-x="1028" 
d="M55 1454h187l333 -1110l-102 -163zM679 316q-35 -114 -83.5 -187t-115.5 -108.5t-156 -35.5h-119v165h119q53 0 93.5 26t72 80t55.5 139l296 1059h179zM851 1863q0 -146 -78 -225.5t-220 -79.5h-8q-142 0 -220 79.5t-78 225.5l148 -2q0 -82 39.5 -127t110.5 -45h8
q72 0 111.5 45t39.5 127z" />
    <glyph glyph-name="uni040F" unicode="&#x40f;" horiz-adv-x="1131" 
d="M991 1454v-1454h-170v1454h170zM311 1454v-1454h-171v1454h171zM890 161v-161h-627v161h627zM651 134v-435h-171v435h171z" />
    <glyph glyph-name="uni0410" unicode="&#x410;" horiz-adv-x="1116" 
d="M471 1454h174l436 -1454h-186l-337 1231l-337 -1231h-186zM259 496h614v-160h-614v160z" />
    <glyph glyph-name="uni0411" unicode="&#x411;" horiz-adv-x="1090" 
d="M245 161h380q59 0 103 25.5t67 74t23 114.5v116q0 68 -23 117t-66.5 75t-103.5 26h-380v161h373q115 0 199 -45t128.5 -130.5t44.5 -202.5v-119q0 -116 -44.5 -200t-128.5 -128.5t-199 -44.5h-373v161zM140 1454h171v-1454h-171v1454zM253 1454h641v-160h-641v160z" />
    <glyph glyph-name="uni0412" unicode="&#x412;" horiz-adv-x="1091" 
d="M260 159h329q117 0 174 48.5t57 136.5v113q0 68 -24 116.5t-71 74t-116 25.5h-349v158h349q94 0 143 50t49 145v89q0 89 -52.5 134.5t-152.5 45.5h-336v159h351q117 0 198 -40t122 -114t41 -178v-87q0 -72 -24 -131t-72 -99.5t-117 -54.5q72 -11 124.5 -53.5t80 -107.5
t27.5 -145v-107q0 -103 -43 -179t-124 -117t-191 -41h-373v159zM140 1454h170v-1454h-170v1454z" />
    <glyph glyph-name="uni0413" unicode="&#x413;" horiz-adv-x="800" 
d="M140 1454h171v-1454h-171v1454zM253 1454h557v-160h-557v160z" />
    <glyph glyph-name="uni0414" unicode="&#x414;" horiz-adv-x="1209" 
d="M59 161h25q80 0 123 90t43 257v946h170v-961q0 -144 -34.5 -243.5t-104 -152t-172.5 -52.5h-50v116zM37 161h171v-452h-171v452zM37 161h1026v-161h-1026v161zM988 161h171v-452h-171v452zM830 1454h171v-1454h-171v1454zM377 1454h538v-160h-538v160z" />
    <glyph glyph-name="uni0415" unicode="&#x415;" horiz-adv-x="999" 
d="M140 1454h171v-1454h-171v1454zM239 161h680v-161h-680v161zM239 802h600v-160h-600v160zM239 1454h680v-160h-680v160z" />
    <glyph glyph-name="uni0416" unicode="&#x416;" horiz-adv-x="1666" 
d="M1047 786l356 668h197l-442 -804zM1044 657l150 88l467 -745h-213zM473 745l149 -88l-404 -657h-213zM66 1454h197l356 -668l-110 -136zM468 802h731v-160h-731v160zM748 1454h170v-1454h-170v1454z" />
    <glyph glyph-name="uni0417" unicode="&#x417;" horiz-adv-x="1038" 
d="M298 29.5q-95 44.5 -146 134t-57 224.5v0h172v0q8 -120 75.5 -179.5t193.5 -59.5q116 0 180 62t64 175v79q0 100 -52.5 155t-147.5 55h-212v162h212q84 0 130 47t46 132v82q0 101 -57.5 154t-163.5 53q-110 0 -171.5 -57t-73.5 -171v0h-171v0q9 131 58.5 218t139 130.5
t218.5 43.5q125 0 213.5 -42t134.5 -123.5t46 -198.5v-81q0 -84 -43.5 -153t-122.5 -112q91 -27 140.5 -105.5t49.5 -193.5v-79q0 -125 -49.5 -214t-144.5 -135.5t-228 -46.5q-138 0 -233 44.5z" />
    <glyph glyph-name="uni0418" unicode="&#x418;" horiz-adv-x="1174" 
d="M869 1v1163l37 -3l-625 -1160h-141v1453h166v-1172l-33 7l622 1165h139v-1453h-165z" />
    <glyph glyph-name="uni0419" unicode="&#x419;" horiz-adv-x="1174" 
d="M869 1v1163l37 -3l-625 -1160h-141v1453h166v-1172l-33 7l622 1165h139v-1453h-165zM887 1863q0 -146 -78 -225.5t-220 -79.5h-8q-142 0 -220 79.5t-78 225.5l148 -2q0 -82 39.5 -127t110.5 -45h8q72 0 111.5 45t39.5 127z" />
    <glyph glyph-name="uni041A" unicode="&#x41a;" horiz-adv-x="1102" 
d="M479 786l361 668h196l-445 -804zM476 657l151 88l470 -745h-212zM140 1454h171v-1454h-171v1454zM239 802h393v-160h-393v160z" />
    <glyph glyph-name="uni041B" unicode="&#x41b;" horiz-adv-x="1195" 
d="M115 163h6q58 0 96.5 27t58 82t19.5 138v1044h170v-1046q0 -136 -36.5 -226.5t-108.5 -136t-179 -45.5h-26v163zM885 1454h170v-1454h-170v1454zM396 1454h580v-160h-580v160z" />
    <glyph glyph-name="uni041C" unicode="&#x41c;" horiz-adv-x="1366" 
d="M1064 1454h162v-1454h-164v1152l13 -64l-331 -877h-122l-331 857l15 84v-1152h-166v1454h164l379 -996z" />
    <glyph glyph-name="uni041D" unicode="&#x41d;" horiz-adv-x="1130" 
d="M820 1454h170v-1454h-170v1454zM140 1454h171v-1454h-171v1454zM260 798h641v-162h-641v162z" />
    <glyph glyph-name="uni041E" unicode="&#x41e;" horiz-adv-x="1122" 
d="M327.5 39q-98.5 54 -150.5 155.5t-52 241.5v582q0 141 52 242.5t150.5 155t233.5 53.5q136 0 234 -53.5t150 -155t52 -242.5v-582q0 -140 -52 -241.5t-150 -155.5t-234 -54q-135 0 -233.5 54zM702.5 183.5q59.5 33.5 91 96t31.5 149.5v596q0 87 -31.5 149.5t-91 96
t-141.5 33.5t-141.5 -33.5t-91 -96t-31.5 -149.5v-596q0 -87 31.5 -149.5t91 -96t141.5 -33.5t141.5 33.5z" />
    <glyph glyph-name="uni041F" unicode="&#x41f;" horiz-adv-x="1130" 
d="M820 1454h170v-1454h-170v1454zM140 1454h171v-1454h-171v1454zM256 1454h646v-162h-646v162z" />
    <glyph glyph-name="uni0420" unicode="&#x420;" horiz-adv-x="1085" 
d="M245 725h379q58 0 102 26.5t67.5 76.5t23.5 116v127q0 68 -23.5 118t-67 77.5t-102.5 27.5h-379v160h373q113 0 197 -46.5t129.5 -133t45.5 -203.5v-129q0 -115 -45.5 -200.5t-129.5 -131.5t-197 -46h-373v161zM140 1454h171v-1454h-171v1454z" />
    <glyph glyph-name="uni0421" unicode="&#x421;" horiz-adv-x="1062" 
d="M323 40q-95 55 -146.5 158.5t-51.5 243.5v569q0 141 51.5 244t146.5 158.5t224 55.5q122 0 213 -50t144 -146t62 -230v0h-172v0q-8 82 -41 141t-86 90t-120 31q-76 0 -132.5 -35.5t-87 -102t-30.5 -156.5v-569q0 -90 30.5 -156t87 -101.5t132.5 -35.5q68 0 120.5 30.5
t85.5 89t41 142.5v0h172v0q-9 -134 -62 -230t-144 -146t-213 -50q-129 0 -224 55z" />
    <glyph glyph-name="uni0422" unicode="&#x422;" horiz-adv-x="846" 
d="M338 1350h170v-1350h-170v1350zM-10 1454h866v-160h-866v160z" />
    <glyph glyph-name="uni0423" unicode="&#x423;" horiz-adv-x="1028" 
d="M55 1454h187l333 -1110l-102 -163zM679 316q-35 -114 -83.5 -187t-115.5 -108.5t-156 -35.5h-119v165h119q53 0 93.5 26t72 80t55.5 139l296 1059h179z" />
    <glyph glyph-name="uni0424" unicode="&#x424;" horiz-adv-x="1392" 
d="M360 216.5q-139 61.5 -212 179.5t-73 286v140q0 168 73 286.5t212 179.5t336 61t336.5 -61t212 -179.5t72.5 -286.5v-140q0 -168 -72.5 -286t-212 -179.5t-336.5 -61.5t-336 61.5zM611 1504h170v-1504h-170v1504zM1030.5 411q118.5 95 118.5 271v140q0 177 -118.5 271.5
t-334.5 94.5t-334.5 -94.5t-118.5 -271.5v-140q0 -176 118.5 -271t334.5 -95t334.5 95z" />
    <glyph glyph-name="uni0425" unicode="&#x425;" horiz-adv-x="982" 
d="M454 646l-31 49l-401 759h187l304 -600l31 -52l428 -802h-187zM446 825l317 629h187l-411 -783l-342 -671h-187z" />
    <glyph glyph-name="uni0426" unicode="&#x426;" horiz-adv-x="1211" 
d="M820 1454h170v-1454h-170v1454zM237 161h788v-161h-788v161zM978 161h171v-462h-171v462zM140 1454h171v-1454h-171v1454z" />
    <glyph glyph-name="uni0427" unicode="&#x427;" horiz-adv-x="1044" 
d="M734 1454h170v-1454h-170v1454zM267.5 500.5q-79.5 47.5 -121 138.5t-41.5 220v595h171v-599q0 -114 57 -176t161 -62q115 0 177.5 66t62.5 187v104h64v-108q0 -131 -40 -223.5t-116 -141t-183 -48.5q-112 0 -191.5 47.5z" />
    <glyph glyph-name="uni0428" unicode="&#x428;" horiz-adv-x="1483" 
d="M1173 1454h170v-1454h-170v1454zM263 161h979v-161h-979v161zM140 1454h171v-1454h-171v1454zM656 1454h171v-1454h-171v1454z" />
    <glyph glyph-name="uni0429" unicode="&#x429;" horiz-adv-x="1563" 
d="M250 161h1054v-161h-1054v161zM1184 1454h171v-1454h-171v1454zM140 1454h171v-1454h-171v1454zM659 1454h170v-1454h-170v1454zM1343 161h170v-462h-170v462z" />
    <glyph glyph-name="uni042A" unicode="&#x42a;" horiz-adv-x="1188" 
d="M-30 1454h433v-160h-433v160zM368 161h355q59 0 103 25.5t67 74t23 114.5v116q0 68 -23 117t-66.5 75t-103.5 26h-355v161h348q115 0 199 -45t128.5 -130.5t44.5 -202.5v-119q0 -116 -44.5 -200t-128.5 -128.5t-199 -44.5h-348v161zM263 1454h171v-1454h-171v1454z" />
    <glyph glyph-name="uni042B" unicode="&#x42b;" horiz-adv-x="1434" 
d="M245 161h345q59 0 103 25.5t67 74t23 114.5v116q0 68 -23 117t-66.5 75t-103.5 26h-345v161h338q115 0 199 -45t128.5 -130.5t44.5 -202.5v-119q0 -116 -44.5 -200t-128.5 -128.5t-199 -44.5h-338v161zM140 1454h171v-1454h-171v1454zM1281 0h-170v1454h170v-1454z" />
    <glyph glyph-name="uni042C" unicode="&#x42c;" horiz-adv-x="1085" 
d="M245 161h375q59 0 103 25.5t67 74t23 114.5v116q0 68 -23 117t-66.5 75t-103.5 26h-375v161h368q115 0 199 -45t128.5 -130.5t44.5 -202.5v-119q0 -116 -44.5 -200t-128.5 -128.5t-199 -44.5h-368v161zM140 1454h171v-1454h-171v1454z" />
    <glyph glyph-name="uni042D" unicode="&#x42d;" horiz-adv-x="1061" 
d="M300 34.5q-91 49.5 -143.5 144.5t-61.5 232v0h172v0q8 -85 40.5 -143.5t85.5 -88.5t122 -30q78 0 134 35t85.5 100.5t29.5 157.5v569q0 92 -29.5 157.5t-85.5 101t-134 35.5q-69 0 -122 -30.5t-85.5 -89t-40.5 -142.5v0h-172v0q9 137 61 232t143 144.5t216 49.5
q132 0 226.5 -54t144.5 -157t50 -247v-569q0 -143 -50 -246t-144.5 -157t-226.5 -54q-124 0 -215 49.5zM247 803h575v-162h-575v162z" />
    <glyph glyph-name="uni042E" unicode="&#x42e;" horiz-adv-x="1578" 
d="M230 802h480v-160h-480v160zM324 1h-171v1454h171v-1454zM783.5 39q-98.5 54 -150.5 155.5t-52 241.5v582q0 141 52 242.5t150.5 155t233.5 53.5q136 0 234 -53.5t150 -155t52 -242.5v-582q0 -140 -52 -241.5t-150 -155.5t-234 -54q-135 0 -233.5 54zM1158.5 183.5
q59.5 33.5 91 96t31.5 149.5v596q0 87 -31.5 149.5t-91 96t-141.5 33.5t-141.5 -33.5t-91 -96t-31.5 -149.5v-596q0 -87 31.5 -149.5t91 -96t141.5 -33.5t141.5 33.5z" />
    <glyph glyph-name="uni042F" unicode="&#x42f;" horiz-adv-x="1075" 
d="M277 632q-89 47 -137.5 134.5t-48.5 206.5v100q0 117 48 203.5t137.5 132.5t210.5 46h359v-160h-372q-64 0 -111.5 -28.5t-73 -81t-25.5 -123.5v-89q0 -69 25.5 -120.5t73 -79t111.5 -27.5h372v-161h-359q-121 0 -210 47zM407 676l152 -46l-287 -630h-187zM770 1455h165
v-1455h-165v1455z" />
    <glyph glyph-name="uni0430" unicode="&#x430;" horiz-adv-x="963" 
d="M668 709q0 94 -50.5 145.5t-142.5 51.5q-66 0 -116.5 -31t-75.5 -87l-144 43q29 107 117 165.5t219 58.5q113 0 193.5 -40.5t122.5 -117t42 -184.5v-713h-165v709zM184.5 62q-81.5 77 -81.5 229q0 163 84.5 245.5t250.5 82.5h239l14 -143h-252q-86 0 -130 -46.5
t-44 -138.5q0 -80 48.5 -120.5t143.5 -40.5q104 0 157.5 35.5t53.5 105.5l21 -116q-15 -56 -49.5 -94t-88.5 -57t-125 -19q-160 0 -241.5 77z" />
    <glyph glyph-name="uni0431" unicode="&#x431;" horiz-adv-x="971" 
d="M302.5 29.5q-81.5 44.5 -124.5 129t-43 203.5v280l126 179q28 94 100.5 144t181.5 50q100 0 171.5 -43.5t109 -127t37.5 -201.5v-284q0 -118 -42.5 -202t-124 -128t-196.5 -44q-114 0 -195.5 44.5zM640 204.5q51 56.5 51 158.5v276q0 101 -51 157t-143 56q-91 0 -141 -56
t-50 -157v-276q0 -103 50 -159t141 -56q92 0 143 56.5zM135 964q0 115 38.5 190.5t115.5 118t198 58.5q62 9 101 24t58 39t19 60h165q0 -78 -30.5 -131t-92.5 -83t-158 -41q-86 -12 -140.5 -39.5t-81 -76.5t-26.5 -125v-404h-166v410z" />
    <glyph glyph-name="uni0432" unicode="&#x432;" horiz-adv-x="946" 
d="M255 157h313q57 0 86.5 30.5t29.5 88.5v56q0 66 -35.5 101.5t-100.5 35.5h-293v155h293q57 0 87 28.5t30 81.5v46q0 49 -27 75t-78 26h-305v157h318q128 0 196 -60.5t68 -175.5v-59q0 -81 -42.5 -132t-120.5 -66q88 -17 135 -75.5t47 -151.5v-67q0 -121 -72.5 -186
t-208.5 -65h-320v157zM135 1038h170v-1038h-170v1038z" />
    <glyph glyph-name="uni0433" unicode="&#x433;" horiz-adv-x="752" 
d="M135 1038h171v-1038h-171v1038zM243 1038h467v-160h-467v160z" />
    <glyph glyph-name="uni0434" unicode="&#x434;" horiz-adv-x="1108" 
d="M92 158h24q49 0 78 36t41 104.5t12 179.5v560h171v-633q0 -173 -64 -262t-183 -89h-34zM66 158h171v-419h-171v419zM66 158h865v-158h-865v158zM876 158h171v-419h-171v419zM719 1038h170v-1038h-170v1038zM367 1038h431v-158h-431v158z" />
    <glyph glyph-name="uni0435" unicode="&#x435;" horiz-adv-x="950" 
d="M287.5 32.5q-86.5 47.5 -132 138t-45.5 219.5v239q0 135 44 230t127.5 145t201.5 50q114 0 195 -50t123.5 -145t42.5 -230v-180h-617v147h453v60q0 115 -52 178.5t-145 63.5q-100 0 -155 -67.5t-55 -190.5v-255q0 -114 58.5 -177t164.5 -63q68 0 114.5 33t64.5 94v0
l157 -50v0q-29 -115 -115.5 -176t-220.5 -61q-122 0 -208.5 47.5z" />
    <glyph glyph-name="uni0436" unicode="&#x436;" horiz-adv-x="1297" 
d="M811 456l131 100l360 -556h-200zM355 556l131 -100l-290 -456h-201zM44 1038h187l256 -460l-112 -122zM563 1038h171v-1038h-171v1038zM352 596h603v-156h-603v156zM811 578l255 460h188l-332 -582z" />
    <glyph glyph-name="uni0437" unicode="&#x437;" horiz-adv-x="824" 
d="M227 21.5q-73 36.5 -113 108t-45 173.5v0h163v0q5 -79 49.5 -121t122.5 -42q81 0 125 38t44 108v59q0 54 -39 83.5t-111 29.5h-125v151h125q58 0 89.5 29t31.5 82v53q0 60 -39.5 93t-110.5 33q-72 0 -115 -39.5t-51 -113.5v0h-163v0q11 149 96 228.5t233 79.5
q151 0 233.5 -69t82.5 -194v-58q0 -65 -33 -114.5t-97 -75.5q78 -15 118.5 -65.5t40.5 -130.5v-69q0 -139 -88 -216t-248 -77q-103 0 -176 36.5z" />
    <glyph glyph-name="uni0438" unicode="&#x438;" horiz-adv-x="997" 
d="M697 1v766l24 -26l-446 -740h-140v1037h165v-781l-24 26l448 755h138v-1037h-165z" />
    <glyph glyph-name="uni0439" unicode="&#x439;" horiz-adv-x="997" 
d="M697 1v766l24 -26l-446 -740h-140v1037h165v-781l-24 26l448 755h138v-1037h-165zM286.5 1315q-68.5 77 -68.5 227v35h144v-36q0 -83 31.5 -125.5t92.5 -42.5h18q61 0 92.5 42.5t31.5 125.5v36h144v-35q0 -150 -68.5 -227t-199.5 -77h-18q-131 0 -199.5 77z" />
    <glyph glyph-name="uni043A" unicode="&#x43a;" horiz-adv-x="922" 
d="M449 578l238 460h191l-326 -598zM135 1038h171v-1038h-171v1038zM450 455l134 100l343 -555h-205zM234 597h363v-159h-363v159z" />
    <glyph glyph-name="uni043B" unicode="&#x43b;" horiz-adv-x="980" 
d="M65 150q62 0 95.5 50.5t33.5 143.5v694h171v-714q0 -107 -32.5 -181.5t-95 -113t-152.5 -38.5h-20v159zM675 1038h170v-1038h-170v1038zM311 1038h443v-160h-443v160z" />
    <glyph glyph-name="uni043C" unicode="&#x43c;" horiz-adv-x="1099" 
d="M808 1038h156v-1038h-150v811l11 -69l-224 -521h-102l-227 516l14 74v-811h-151v1038h157l258 -600z" />
    <glyph glyph-name="uni043D" unicode="&#x43d;" horiz-adv-x="999" 
d="M693 1038h171v-1038h-171v1038zM135 1038h171v-1038h-171v1038zM245 589h545v-158h-545v158z" />
    <glyph glyph-name="uni043E" unicode="&#x43e;" horiz-adv-x="946" 
d="M277.5 29.5q-81.5 44.5 -124.5 129t-43 203.5v321q0 117 43 200.5t124.5 127.5t196.5 44q114 0 195.5 -44t124 -127.5t42.5 -200.5v-324q0 -118 -42.5 -202t-124 -128t-195.5 -44q-115 0 -196.5 44.5zM615.5 203q50.5 56 50.5 158v320q0 101 -51 156.5t-142 55.5
q-92 0 -142 -55.5t-50 -156.5v-320q0 -102 50 -158t142 -56t142.5 56z" />
    <glyph glyph-name="uni043F" unicode="&#x43f;" horiz-adv-x="999" 
d="M693 1038h171v-1038h-171v1038zM135 1038h171v-1038h-171v1038zM245 1038h540v-160h-540v160z" />
    <glyph glyph-name="uni0440" unicode="&#x440;" horiz-adv-x="969" 
d="M135 1038h171v-1460h-171v1460zM390 30.5q-69 45.5 -98 132.5l14 188q0 -63 22.5 -111.5t65 -75.5t101.5 -27q93 0 144 60t51 168v310q0 108 -51 168t-144 60q-59 0 -101.5 -26.5t-65 -74t-22.5 -108.5l-21 171q41 93 114.5 141.5t164.5 48.5q93 0 159.5 -44.5t101 -129
t34.5 -204.5v-314q0 -119 -35.5 -204t-104 -129.5t-165.5 -44.5q-95 0 -164 45.5z" />
    <glyph glyph-name="uni0441" unicode="&#x441;" horiz-adv-x="896" 
d="M284 29q-85 44 -129.5 129t-44.5 207v304q0 123 44.5 209.5t129.5 131t208 44.5q98 0 170 -30t116.5 -89t59.5 -145v0l-161 -50v0q-17 76 -63.5 115.5t-118.5 39.5q-104 0 -159 -58.5t-55 -167.5v-304q0 -106 55 -163t159 -57q74 0 121.5 37.5t64.5 110.5v0l158 -52v0
q-15 -83 -59.5 -141t-117 -86.5t-170.5 -28.5q-123 0 -208 44z" />
    <glyph glyph-name="uni0442" unicode="&#x442;" horiz-adv-x="844" 
d="M338 996h168v-996h-168v996zM80 1038h684v-158h-684v158z" />
    <glyph glyph-name="uni0443" unicode="&#x443;" horiz-adv-x="879" 
d="M859 1038l-384 -1281q-21 -67 -59 -109t-97 -61.5t-143 -19.5h-30v162h30q73 0 114.5 32.5t64.5 104.5l330 1172h174zM45 1038h174l281 -912l-85 -206z" />
    <glyph glyph-name="uni0444" unicode="&#x444;" horiz-adv-x="1326" 
d="M758 91q-67 91 -67 256v350q0 163 67 252t189 89q128 0 198.5 -89t70.5 -252v-353q0 -164 -70.5 -254t-198.5 -90q-122 0 -189 91zM180.5 90q-70.5 90 -70.5 254v353q0 163 70.5 252t198.5 89q121 0 188 -89.5t67 -251.5v-350q0 -165 -67 -256t-188 -91q-128 0 -198.5 90
zM539 208q39 48 39 136v352q0 87 -39 135t-110 48q-70 0 -109 -48t-39 -135v-352q0 -87 39 -135.5t109 -48.5q71 0 110 48zM577 1339h171v-1640h-171v1640zM1006 208.5q39 48.5 39 135.5v352q0 87 -39 135t-109 48q-71 0 -110 -48t-39 -135v-352q0 -88 39 -136t110 -48
q70 0 109 48.5z" />
    <glyph glyph-name="uni0445" unicode="&#x445;" horiz-adv-x="932" 
d="M410 476l-349 562h189l266 -465l371 -573h-188zM406 569l84 -150l-255 -419h-187zM455 625l227 413h189l-340 -556z" />
    <glyph glyph-name="uni0446" unicode="&#x446;" horiz-adv-x="1070" 
d="M683 1038h171v-1038h-171v1038zM255 158h552v-158h-552v158zM135 1038h171v-1038h-171v1038zM837 158h170v-419h-170v419z" />
    <glyph glyph-name="uni0447" unicode="&#x447;" horiz-adv-x="985" 
d="M680 1038h170v-1038h-170v1038zM275.5 350q-71.5 40 -108.5 116.5t-37 186.5v385h171v-387q0 -87 44.5 -133t128.5 -46q100 0 153 51t53 148v148h64v-146q0 -176 -75.5 -269.5t-218.5 -93.5q-103 0 -174.5 40z" />
    <glyph glyph-name="uni0448" unicode="&#x448;" horiz-adv-x="1286" 
d="M245 159h836v-159h-836v159zM981 1038h170v-1038h-170v1038zM135 1038h171v-1038h-171v1038zM558 1038h170v-1038h-170v1038z" />
    <glyph glyph-name="uni0449" unicode="&#x449;" horiz-adv-x="1371" 
d="M245 158h817v-158h-817v158zM561 1038h171v-1038h-171v1038zM135 1038h171v-1038h-171v1038zM1138 158h171v-419h-171v419zM988 1038h168v-1038h-168v1038z" />
    <glyph glyph-name="uni044A" unicode="&#x44a;" horiz-adv-x="1067" 
d="M55 1038h287v-160h-287v160zM366 161h281q71 0 112 42.5t41 115.5v39q0 49 -18.5 85t-53 55.5t-81.5 19.5h-281v160h294q96 0 167.5 -37t110.5 -106t39 -164v-65q0 -93 -39.5 -162t-113.5 -106.5t-174 -37.5h-284v161zM278 1038h170v-1038h-170v1038z" />
    <glyph glyph-name="uni044B" unicode="&#x44b;" horiz-adv-x="1258" 
d="M947 1038h171v-1038h-171v1038zM237 161h244q71 0 111.5 42.5t40.5 115.5v39q0 49 -18.5 85t-53 55.5t-80.5 19.5h-244v160h256q97 0 168.5 -37t110 -106t38.5 -164v-65q0 -93 -39.5 -162t-113.5 -106.5t-174 -37.5h-246v161zM141 1038h171v-1038h-171v1038z" />
    <glyph glyph-name="uni044C" unicode="&#x44c;" horiz-adv-x="939" 
d="M223 161h292q70 0 111 42.5t41 115.5v39q0 49 -18.5 85t-53 55.5t-80.5 19.5h-292v160h304q97 0 168.5 -37t110 -106t38.5 -164v-65q0 -93 -39.5 -162t-113.5 -106.5t-174 -37.5h-294v161zM135 1038h171v-1038h-171v1038z" />
    <glyph glyph-name="uni044D" unicode="&#x44d;" horiz-adv-x="896" 
d="M236 439v151h424v-151h-424zM237.5 14q-71.5 29 -117 86t-62.5 140v0l151 47v0q25 -74 75 -113t122 -39q101 0 155.5 59t54.5 171v303q0 109 -54.5 167t-155.5 58q-73 0 -122.5 -39t-70.5 -114v0l-154 50v0q17 86 62.5 145t116.5 88.5t167 29.5q122 0 207.5 -45
t129.5 -131t44 -209v-303q0 -122 -44 -207t-129.5 -129t-207.5 -44q-96 0 -167.5 29z" />
    <glyph glyph-name="uni044E" unicode="&#x44e;" horiz-adv-x="1361" 
d="M256 590h369v-151h-369v151zM147 1038h171v-1038h-171v1038zM692.5 29.5q-81.5 44.5 -124.5 129t-43 203.5v321q0 117 43 200.5t124.5 127.5t196.5 44q114 0 195.5 -44t124 -127.5t42.5 -200.5v-324q0 -118 -42.5 -202t-124 -128t-195.5 -44q-115 0 -196.5 44.5z
M1030.5 203q50.5 56 50.5 158v320q0 101 -51 156.5t-142 55.5q-92 0 -142 -55.5t-50 -156.5v-320q0 -102 50 -158t142 -56t142.5 56z" />
    <glyph glyph-name="uni044F" unicode="&#x44f;" horiz-adv-x="955" 
d="M413 355q-97 0 -168.5 37.5t-110 106.5t-38.5 163v70q0 94 39.5 163t113.5 106t174 37h308v-160h-306q-71 0 -111.5 -43t-40.5 -116v-44q0 -49 18.5 -84.5t53 -55t80.5 -19.5h306v-161h-318zM649 0v1038h171v-1038h-171zM90 0l247 451l165 -46l-218 -405h-194z" />
    <glyph glyph-name="uni0450" unicode="&#x450;" horiz-adv-x="950" 
d="M287.5 32.5q-86.5 47.5 -132 138t-45.5 219.5v239q0 135 44 230t127.5 145t201.5 50q114 0 195 -50t123.5 -145t42.5 -230v-180h-617v147h453v60q0 115 -52 178.5t-145 63.5q-100 0 -155 -67.5t-55 -190.5v-255q0 -114 58.5 -177t164.5 -63q68 0 114.5 33t64.5 94v0
l157 -50v0q-29 -115 -115.5 -176t-220.5 -61q-122 0 -208.5 47.5zM181 1568l131 101l266 -355l-112 -82z" />
    <glyph glyph-name="uni0451" unicode="&#x451;" horiz-adv-x="950" 
d="M287.5 32.5q-86.5 47.5 -132 138t-45.5 219.5v239q0 135 44 230t127.5 145t201.5 50q114 0 195 -50t123.5 -145t42.5 -230v-180h-617v147h453v60q0 115 -52 178.5t-145 63.5q-100 0 -155 -67.5t-55 -190.5v-255q0 -114 58.5 -177t164.5 -63q68 0 114.5 33t64.5 94v0
l157 -50v0q-29 -115 -115.5 -176t-220.5 -61q-122 0 -208.5 47.5zM570 1422h171v-171h-171v171zM218 1422h170v-171h-170v171z" />
    <glyph glyph-name="uni0452" unicode="&#x452;" horiz-adv-x="1015" 
d="M538 -261h90q41 0 63.5 26.5t22.5 75.5v715q0 107 -51 163.5t-147 56.5q-95 0 -145 -53t-50 -154l-21 177q43 94 117.5 142t169.5 48q143 0 220.5 -94t77.5 -267v-733q0 -126 -62.5 -195t-176.5 -69h-108v161zM151 1454h170v-1454h-170v1454zM-25 1234h648v-150h-648v150
z" />
    <glyph glyph-name="uni0453" unicode="&#x453;" horiz-adv-x="752" 
d="M135 1038h171v-1038h-171v1038zM243 1038h467v-160h-467v160zM333 1314l266 355l129 -101l-285 -336z" />
    <glyph glyph-name="uni0454" unicode="&#x454;" horiz-adv-x="896" 
d="M236 590h424v-151h-424v151zM283.5 29q-85.5 44 -129.5 129t-44 208v303q0 124 44.5 210t129.5 131t208 45q91 0 162 -29t117.5 -84t66.5 -134v-10l-145 -57v10q-24 70 -75.5 107t-122.5 37q-104 0 -159 -58t-55 -168v-303q0 -108 55 -164.5t159 -56.5q73 0 125 35.5
t77 101.5v10l142 -58v-10q-20 -77 -67 -130t-118 -81t-162 -28q-123 0 -208.5 44z" />
    <glyph glyph-name="uni0455" unicode="&#x455;" horiz-adv-x="900" 
d="M256 12q-76 27 -126 80.5t-75 132.5v0l147 66v0q36 -78 94 -117t136 -39q105 0 161 42.5t56 122.5q0 51 -29 80.5t-72.5 42.5t-120.5 26q-6 2 -12 3l-12 2q-4 1 -7 1t-6 1q-92 17 -155 42t-105 83.5t-42 161.5q0 101 40.5 170.5t119.5 105t192 35.5q91 0 159.5 -23.5
t115.5 -71.5t72 -119v0l-148 -66v0q-32 64 -82.5 97.5t-117.5 33.5q-93 0 -141 -40.5t-48 -117.5q0 -52 29 -79.5t73.5 -40.5t122.5 -25h4t4 -1q3 0 5.5 -0.5t4.5 -0.5q97 -16 162.5 -40.5t110.5 -86t45 -173.5q0 -102 -44 -172.5t-128 -106.5t-207 -36q-100 0 -176 27z" />
    <glyph glyph-name="uni0456" unicode="&#x456;" horiz-adv-x="460" 
d="M147 1437h171v-171h-171v171zM147 1038h171v-1038h-171v1038z" />
    <glyph glyph-name="uni0457" unicode="&#x457;" horiz-adv-x="460" 
d="M147 1038h171v-1038h-171v1038zM324 1422h171v-171h-171v171zM-28 1422h170v-171h-170v171z" />
    <glyph glyph-name="uni0458" unicode="&#x458;" horiz-adv-x="488" 
d="M10 -261h84q44 0 68.5 29.5t24.5 83.5v1186h170v-1185q0 -131 -63.5 -203t-179.5 -72h-104v161zM186 1450h172v-185h-172v185z" />
    <glyph glyph-name="uni0459" unicode="&#x459;" horiz-adv-x="1410" 
d="M753 161h247q71 0 112 42.5t41 115.5v39q0 49 -18.5 85t-53 55.5t-81.5 19.5h-247v160h260q96 0 167.5 -37t110.5 -106t39 -164v-65q0 -93 -39.5 -162t-113.5 -106.5t-174 -37.5h-250v161zM65 150q62 0 95.5 50.5t33.5 143.5v694h171v-714q0 -107 -32.5 -181.5t-95 -113
t-152.5 -38.5h-20v159zM675 1038h170v-1038h-170v1038zM311 1038h443v-160h-443v160z" />
    <glyph glyph-name="uni045A" unicode="&#x45a;" horiz-adv-x="1434" 
d="M763 161h256q71 0 112 42.5t41 115.5v39q0 49 -18.5 85t-53 55.5t-81.5 19.5h-256v160h269q96 0 167.5 -37t110.5 -106t39 -164v-65q0 -93 -39.5 -162t-113.5 -106.5t-174 -37.5h-259v161zM693 1038h171v-1038h-171v1038zM135 1038h171v-1038h-171v1038zM245 589h545
v-158h-545v158z" />
    <glyph glyph-name="uni045B" unicode="&#x45b;" horiz-adv-x="1015" 
d="M-25 1234h698v-150h-698v150zM151 1454h170v-1454h-170v1454zM714 558q0 106 -51 161.5t-147 55.5q-95 0 -145 -53t-50 -155l-21 180q44 94 116.5 141t168.5 47q145 0 222.5 -93.5t77.5 -269.5v-572h-171v558z" />
    <glyph glyph-name="uni045C" unicode="&#x45c;" horiz-adv-x="922" 
d="M449 578l238 460h191l-326 -598zM135 1038h171v-1038h-171v1038zM450 455l134 100l343 -555h-205zM234 597h363v-159h-363v159zM389 1314l266 355l129 -101l-285 -336z" />
    <glyph glyph-name="uni045D" unicode="&#x45d;" horiz-adv-x="997" 
d="M697 1v766l24 -26l-446 -740h-140v1037h165v-781l-24 26l448 755h138v-1037h-165zM197 1568l131 101l266 -355l-112 -82z" />
    <glyph glyph-name="uni045E" unicode="&#x45e;" horiz-adv-x="879" 
d="M859 1038l-384 -1281q-21 -67 -59 -109t-97 -61.5t-143 -19.5h-30v162h30q73 0 114.5 32.5t64.5 104.5l330 1172h174zM45 1038h174l281 -912l-85 -206zM254.5 1315q-68.5 77 -68.5 227v35h144v-36q0 -83 31.5 -125.5t92.5 -42.5h18q61 0 92.5 42.5t31.5 125.5v36h144v-35
q0 -150 -68.5 -227t-199.5 -77h-18q-131 0 -199.5 77z" />
    <glyph glyph-name="uni045F" unicode="&#x45f;" horiz-adv-x="984" 
d="M679 1038h170v-1038h-170v1038zM411 161h171v-422h-171v422zM250 161h505v-161h-505v161zM135 1038h171v-1038h-171v1038z" />
    <glyph glyph-name="uni0460" unicode="&#x460;" horiz-adv-x="1749" 
d="M318 38.5q-94 53.5 -143.5 154t-49.5 239.5v598q0 136 50 235t144.5 151.5t225.5 52.5h21v-163h-21q-77 0 -132.5 -32.5t-85 -94t-29.5 -146.5v-605q0 -86 29.5 -148.5t84.5 -95.5t131 -33t131.5 33t84.5 95.5t29 148.5v257h153v-253q0 -56 -10.5 -107.5t-30.5 -93.5
q-43 -118 -136 -182t-224 -64q-128 0 -222 53.5zM985 50.5q-93 65.5 -135 185.5q-18 42 -27.5 92t-9.5 104v253h148v-257q0 -86 29.5 -148.5t84.5 -95.5t131 -33t131.5 33t84.5 95.5t29 148.5v605q0 85 -29.5 146.5t-85 94t-131.5 32.5h-22v163h22q130 0 224.5 -52.5
t144.5 -151.5t50 -235v-598q0 -139 -49.5 -239.5t-143 -154t-222.5 -53.5q-131 0 -224 65.5z" />
    <glyph glyph-name="uni0461" unicode="&#x461;" horiz-adv-x="1374" 
d="M539 1038h180l239 -806q51 98 86.5 226t53.5 267.5t21 278.5v34h180q0 -170 -39 -366t-105.5 -374t-146.5 -298h-139zM35 1038h183l240 -811l234 552l71 -177l-258 -602h-139z" />
    <glyph glyph-name="uni0462" unicode="&#x462;" horiz-adv-x="1095" 
d="M-42 1269h721v-160h-721v160zM255 161h375q59 0 103 25.5t67 74t23 114.5v116q0 68 -23 117t-66.5 75t-103.5 26h-375v161h368q115 0 199 -45t128.5 -130.5t44.5 -202.5v-119q0 -116 -44.5 -200t-128.5 -128.5t-199 -44.5h-368v161zM150 1454h171v-1454h-171v1454z" />
    <glyph glyph-name="uni0463" unicode="&#x463;" horiz-adv-x="971" 
d="M-25 1143h717v-155h-717v155zM250 161h297q70 0 111 42.5t41 115.5v39q0 49 -18.5 85t-53 55.5t-80.5 19.5h-297v160h309q97 0 168.5 -37t110 -106t38.5 -164v-65q0 -93 -39.5 -162t-113.5 -106.5t-174 -37.5h-299v161zM162 1340h171v-1340h-171v1340z" />
    <glyph glyph-name="uni0464" unicode="&#x464;" horiz-adv-x="1453" 
d="M213 802h415v-160h-415v160zM316 0h-170v1454h170v-1454zM630 804h575v-163h-575v163zM714.5 40.5q-95.5 55.5 -147 159t-51.5 242.5v569q0 140 51.5 243.5t146.5 159t224 55.5q116 0 206.5 -48t145.5 -137.5t68 -211.5v-29h-173v29q-10 71 -45 123.5t-87 81t-115 28.5
q-76 0 -132 -36t-87 -102t-31 -156v-569q0 -89 31 -155t87 -102t132 -36q63 0 115 27.5t87 80t45 125.5v29h173v-29q-13 -121 -68 -211t-145.5 -138t-206.5 -48q-128 0 -223.5 55.5z" />
    <glyph glyph-name="uni0465" unicode="&#x465;" horiz-adv-x="1321" 
d="M239 590h414v-151h-414v151zM147 1038h171v-1038h-171v1038zM661 590h424v-151h-424v151zM708.5 29q-85.5 44 -129.5 129t-44 208v303q0 124 44.5 210t129.5 131t208 45q138 0 227 -64t119 -183v-10l-145 -57v10q-24 70 -75.5 107t-122.5 37q-104 0 -159 -58t-55 -168
v-303q0 -108 55 -164.5t159 -56.5q73 0 125 35.5t77 101.5v10l142 -58v-10q-30 -115 -120 -177t-227 -62q-123 0 -208.5 44z" />
    <glyph glyph-name="uni0466" unicode="&#x466;" horiz-adv-x="1146" 
d="M486 1454h174l451 -1454h-186l-352 1231l-352 -1231h-186zM489 537h168v-537h-168v537zM319 652h519v-160h-519v160z" />
    <glyph glyph-name="uni0467" unicode="&#x467;" horiz-adv-x="936" 
d="M381 1043h174l346 -1043h-173l-260 857l-259 -857h-174zM392 342h153v-342h-153v342zM235 407h469v-149h-469v149z" />
    <glyph glyph-name="uni0468" unicode="&#x468;" horiz-adv-x="1542" 
d="M241 653h529v-160h-529v160zM324 0h-171v1454h171v-1454zM882 1454h174l451 -1454h-186l-352 1231l-352 -1231h-186zM885 537h168v-537h-168v537zM715 652h519v-160h-519v160z" />
    <glyph glyph-name="uni0469" unicode="&#x469;" horiz-adv-x="1366" 
d="M254 407h469v-149h-469v149zM140 1038h170v-1038h-170v1038zM811 1043h174l346 -1043h-173l-260 857l-259 -857h-174zM822 342h153v-342h-153v342zM665 407h469v-149h-469v149z" />
    <glyph glyph-name="uni046A" unicode="&#x46a;" horiz-adv-x="1324" 
d="M210 1454h907v-160h-907v160zM500 687l-455 767h208l441 -769zM1068 1454h209l-445 -758l-198 -10zM127 456q32 117 89.5 192.5t131 110.5t155.5 35l15 -155q-43 0 -84 -22t-74.5 -69t-50.5 -118l-103 -430h-201zM578 695h171v-695h-171v695zM498 794h74l88 -131l93 131
h66l9 -155h-330v155zM1016 430q-18 71 -51.5 118t-74.5 69t-84 22l15 155q83 0 156 -35t130.5 -110.5t89.5 -192.5l122 -456h-200z" />
    <glyph glyph-name="uni046B" unicode="&#x46b;" horiz-adv-x="1124" 
d="M518 489l374 549h206l-400 -573zM76 276q47 159 143.5 235.5t247.5 76.5l-20 -158q-75 0 -122 -44t-70 -136l-62 -250h-198zM474 499h174v-499h-174v499zM447 588h40l70 -75l64 75h36l30 -158h-260zM11 1038h206l377 -537l-178 -26zM869 250q-23 92 -73.5 136t-128.5 44
l-20 158q153 0 253.5 -76.5t147.5 -235.5l81 -276h-198zM176 1038h767v-164h-767v164z" />
    <glyph glyph-name="uni046C" unicode="&#x46c;" horiz-adv-x="1770" 
d="M254 794h708v-155h-708v155zM316 0h-170v1454h170v-1454zM656 1454h907v-160h-907v160zM946 687l-455 767h208l441 -769zM1514 1454h209l-445 -758l-198 -10zM573 456q32 117 89.5 192.5t131 110.5t155.5 35l15 -155q-43 0 -84 -22t-74.5 -69t-50.5 -118l-103 -430h-201z
M1024 695h171v-695h-171v695zM944 794h74l88 -131l93 131h66l9 -155h-330v155zM1462 430q-18 71 -51.5 118t-74.5 69t-84 22l15 155q83 0 156 -35t130.5 -110.5t89.5 -192.5l122 -456h-200z" />
    <glyph glyph-name="uni046D" unicode="&#x46d;" horiz-adv-x="1571" 
d="M255 588h582v-158h-582v158zM147 1038h171v-1038h-171v1038zM965 489l374 549h206l-400 -573zM523 276q47 159 143.5 235.5t247.5 76.5l-20 -158q-75 0 -122 -44t-70 -136l-62 -250h-198zM921 499h174v-499h-174v499zM894 588h40l70 -75l64 75h36l30 -158h-260zM458 1038
h206l377 -537l-178 -26zM1316 250q-23 92 -73.5 136t-128.5 44l-20 158q153 0 253.5 -76.5t147.5 -235.5l81 -276h-198zM623 1038h767v-164h-767v164z" />
    <glyph glyph-name="uni046E" unicode="&#x46e;" horiz-adv-x="1038" 
d="M408 -422q-153 0 -233 72.5t-80 210.5t80 211t233 73h100q121 0 185.5 62.5t64.5 179.5v78q0 102 -51 156.5t-146 54.5h-118v160h118q83 0 128 46.5t45 132.5v75q0 105 -56.5 160.5t-162.5 55.5q-108 0 -169 -59t-73 -176v0h-174v0q14 198 119 298t297 100
q127 0 215 -42.5t133.5 -125t45.5 -200.5v-77q0 -57 -17 -106.5t-51 -89.5t-83 -69q85 -27 130 -104.5t45 -194.5v-79q0 -127 -49.5 -216t-145.5 -135t-233 -46h-100q-69 0 -105 -31.5t-36 -91.5t36 -91t105 -31h364v-161h-361zM240 1785l97 100l190 -151l191 151l97 -100
l-288 -233z" />
    <glyph glyph-name="uni046F" unicode="&#x46f;" horiz-adv-x="813" 
d="M377 -422q-147 0 -226 73t-79 209q0 135 79 208t226 73h40q67 0 105 34t38 96v60q0 59 -34 92t-95 33h-95v161h95q49 0 77 25.5t28 71.5v68q0 55 -37 86t-104 31t-105.5 -40t-44.5 -117v-1h-167v1q7 102 45.5 172t106.5 105t165 35q147 0 228 -68.5t81 -192.5v-75
q0 -39 -14 -74t-41.5 -62.5t-67.5 -42.5q45 -8 78.5 -37t51 -72.5t17.5 -94.5v-72q0 -132 -82.5 -204.5t-232.5 -73.5h-37q-64 0 -99 -32t-35 -92q0 -59 35 -90.5t99 -31.5h262v-161h-261zM120 1533l103 93l177 -187l176 187l104 -93l-280 -289z" />
    <glyph glyph-name="uni0470" unicode="&#x470;" horiz-adv-x="1252" 
d="M354.5 398q-112.5 58 -171 169t-58.5 270v617h171v-624q0 -104 38.5 -176.5t112.5 -110.5t179 -38t179.5 38t113 110.5t38.5 176.5v624h170v-617q0 -159 -58.5 -270t-170.5 -169t-272 -58q-159 0 -271.5 58zM543 1454h170v-1454h-170v1454z" />
    <glyph glyph-name="uni0471" unicode="&#x471;" horiz-adv-x="1297" 
d="M371.5 43q-115.5 58 -176 169t-60.5 270v556h171v-566q0 -108 40 -183.5t117.5 -115t187.5 -39.5t187.5 39.5t118 115t40.5 183.5v566h170v-556q0 -159 -60 -270t-175.5 -169t-280.5 -58q-164 0 -279.5 58zM567 1339h170v-1640h-170v1640z" />
    <glyph glyph-name="uni0472" unicode="&#x472;" horiz-adv-x="1122" 
d="M237 802h645v-160h-645v160zM327.5 39q-98.5 54 -150.5 155.5t-52 241.5v582q0 141 52 242.5t150.5 155t233.5 53.5q136 0 234 -53.5t150 -155t52 -242.5v-582q0 -140 -52 -241.5t-150 -155.5t-234 -54q-135 0 -233.5 54zM702.5 183.5q59.5 33.5 91 96t31.5 149.5v596
q0 87 -31.5 149.5t-91 96t-141.5 33.5t-141.5 -33.5t-91 -96t-31.5 -149.5v-596q0 -87 31.5 -149.5t91 -96t141.5 -33.5t141.5 33.5z" />
    <glyph glyph-name="uni0473" unicode="&#x473;" horiz-adv-x="946" 
d="M189 589h590v-140h-590v140zM277.5 29.5q-81.5 44.5 -124.5 129t-43 203.5v321q0 117 43 200.5t124.5 127.5t196.5 44q114 0 195.5 -44t124 -127.5t42.5 -200.5v-324q0 -118 -42.5 -202t-124 -128t-195.5 -44q-115 0 -196.5 44.5zM615.5 203q50.5 56 50.5 158v320
q0 101 -51 156.5t-142 55.5q-92 0 -142 -55.5t-50 -156.5v-320q0 -102 50 -158t142 -56t142.5 56z" />
    <glyph glyph-name="uni0474" unicode="&#x474;" horiz-adv-x="1014" 
d="M20 1454h181l300 -1198l252 1009q17 66 43 108.5t67 65t97 22.5h104v-160h-65q-32 0 -51 -18.5t-29 -56.5l-328 -1226h-180z" />
    <glyph glyph-name="uni0475" unicode="&#x475;" horiz-adv-x="958" 
d="M60 1038h177l219 -795l150 600q19 74 47 120.5t67 68t91 21.5h92v-160h-50q-34 0 -54.5 -18t-32.5 -57l-241 -818h-137z" />
    <glyph glyph-name="uni0476" unicode="&#x476;" horiz-adv-x="1014" 
d="M154 1783l127 118l218 -261l-111 -96zM512 1783l127 118l218 -261l-112 -96zM20 1454h181l300 -1198l252 1009q17 66 43 108.5t67 65t97 22.5h104v-160h-65q-32 0 -51 -18.5t-29 -56.5l-328 -1226h-180z" />
    <glyph glyph-name="uni0477" unicode="&#x477;" horiz-adv-x="960" 
d="M63 1571l140 102l223 -355l-120 -83zM420 1571l139 102l224 -355l-121 -83zM63 1038h176l220 -795l149 600q19 74 47.5 120.5t67.5 68t91 21.5h91v-160h-50q-33 0 -54 -18t-32 -57l-242 -818h-137z" />
    <glyph glyph-name="uni0478" unicode="&#x478;" horiz-adv-x="1951" 
d="M327.5 39q-98.5 54 -150.5 155.5t-52 241.5v582q0 141 52 242.5t150.5 155t233.5 53.5q136 0 234 -53.5t150 -155t52 -242.5v-582q0 -140 -52 -241.5t-150 -155.5t-234 -54q-135 0 -233.5 54zM702.5 183.5q59.5 33.5 91 96t31.5 149.5v596q0 87 -31.5 149.5t-91 96
t-141.5 33.5t-141.5 -33.5t-91 -96t-31.5 -149.5v-596q0 -87 31.5 -149.5t91 -96t141.5 -33.5t141.5 33.5zM1931 1038l-384 -1281q-21 -67 -59 -109t-97 -61.5t-143 -19.5h-30v162h30q73 0 114.5 32.5t64.5 104.5l330 1172h174zM1117 1038h174l281 -912l-85 -206z" />
    <glyph glyph-name="uni0479" unicode="&#x479;" horiz-adv-x="1785" 
d="M277.5 29.5q-81.5 44.5 -124.5 129t-43 203.5v321q0 117 43 200.5t124.5 127.5t196.5 44q114 0 195.5 -44t124 -127.5t42.5 -200.5v-324q0 -118 -42.5 -202t-124 -128t-195.5 -44q-115 0 -196.5 44.5zM615.5 203q50.5 56 50.5 158v320q0 101 -51 156.5t-142 55.5
q-92 0 -142 -55.5t-50 -156.5v-320q0 -102 50 -158t142 -56t142.5 56zM1765 1038l-384 -1281q-21 -67 -59 -109t-97 -61.5t-143 -19.5h-30v162h30q73 0 114.5 32.5t64.5 104.5l330 1172h174zM951 1038h174l281 -912l-85 -206z" />
    <glyph glyph-name="uni047A" unicode="&#x47a;" horiz-adv-x="1122" 
d="M484 1586h155v-537h-155v537zM484 405h155v-537h-155v537zM327.5 39q-98.5 54 -150.5 155.5t-52 241.5v582q0 141 52 242.5t150.5 155t233.5 53.5q136 0 234 -53.5t150 -155t52 -242.5v-582q0 -140 -52 -241.5t-150 -155.5t-234 -54q-135 0 -233.5 54zM702.5 183.5
q59.5 33.5 91 96t31.5 149.5v596q0 87 -31.5 149.5t-91 96t-141.5 33.5t-141.5 -33.5t-91 -96t-31.5 -149.5v-596q0 -87 31.5 -149.5t91 -96t141.5 -33.5t141.5 33.5z" />
    <glyph glyph-name="uni047B" unicode="&#x47b;" horiz-adv-x="946" 
d="M407 1170h132v-472h-132v472zM407 340h132v-472h-132v472zM277.5 29.5q-81.5 44.5 -124.5 129t-43 203.5v321q0 117 43 200.5t124.5 127.5t196.5 44q114 0 195.5 -44t124 -127.5t42.5 -200.5v-324q0 -118 -42.5 -202t-124 -128t-195.5 -44q-115 0 -196.5 44.5zM615.5 203
q50.5 56 50.5 158v320q0 101 -51 156.5t-142 55.5q-92 0 -142 -55.5t-50 -156.5v-320q0 -102 50 -158t142 -56t142.5 56z" />
    <glyph glyph-name="uni047C" unicode="&#x47c;" horiz-adv-x="1749" 
d="M318 38.5q-94 53.5 -143.5 154t-49.5 239.5v598q0 136 50 235t144.5 151.5t225.5 52.5h21v-163h-21q-77 0 -132.5 -32.5t-85 -94t-29.5 -146.5v-605q0 -86 29.5 -148.5t84.5 -95.5t131 -33t131.5 33t84.5 95.5t29 148.5v257h153v-253q0 -56 -10.5 -107.5t-30.5 -93.5
q-43 -118 -136 -182t-224 -64q-128 0 -222 53.5zM985 50.5q-93 65.5 -135 185.5q-18 42 -27.5 92t-9.5 104v253h148v-257q0 -86 29.5 -148.5t84.5 -95.5t131 -33t131.5 33t84.5 95.5t29 148.5v605q0 85 -29.5 146.5t-85 94t-131.5 32.5h-22v163h22q130 0 224.5 -52.5
t144.5 -151.5t50 -235v-598q0 -139 -49.5 -239.5t-143 -154t-222.5 -53.5q-131 0 -224 65.5zM541 1841h671v-156h-671v156zM541 1788h170v-214h-170v214zM1042 1959h170v-225h-170v225z" />
    <glyph glyph-name="uni047D" unicode="&#x47d;" horiz-adv-x="1374" 
d="M539 1038h180l239 -806q51 98 86.5 226t53.5 267.5t21 278.5v34h180q0 -170 -39 -366t-105.5 -374t-146.5 -298h-139zM35 1038h183l240 -811l234 552l71 -177l-258 -602h-139zM346 1425h671v-156h-671v156zM346 1372h170v-214h-170v214zM847 1543h170v-225h-170v225z" />
    <glyph glyph-name="uni047E" unicode="&#x47e;" horiz-adv-x="1749" 
d="M1236 1786v-124h-712v124h712zM1236 1722v-181h-159v181h159zM524 1541v181h159v-181h-159zM952 1722v-181h-144v181h144zM318 38.5q-94 53.5 -143.5 154t-49.5 239.5v598q0 136 50 235t144.5 151.5t225.5 52.5h21v-163h-21q-77 0 -132.5 -32.5t-85 -94t-29.5 -146.5
v-605q0 -86 29.5 -148.5t84.5 -95.5t131 -33t131.5 33t84.5 95.5t29 148.5v257h153v-253q0 -56 -10.5 -107.5t-30.5 -93.5q-43 -118 -136 -182t-224 -64q-128 0 -222 53.5zM985 50.5q-93 65.5 -135 185.5q-18 42 -27.5 92t-9.5 104v253h148v-257q0 -86 29.5 -148.5
t84.5 -95.5t131 -33t131.5 33t84.5 95.5t29 148.5v605q0 85 -29.5 146.5t-85 94t-131.5 32.5h-22v163h22q130 0 224.5 -52.5t144.5 -151.5t50 -235v-598q0 -139 -49.5 -239.5t-143 -154t-222.5 -53.5q-131 0 -224 65.5z" />
    <glyph glyph-name="uni047F" unicode="&#x47f;" horiz-adv-x="1374" 
d="M1038 1496v-124h-711v124h711zM1038 1431v-181h-159v181h159zM327 1250v181h159v-181h-159zM755 1431v-181h-144v181h144zM539 1038h180l239 -806q51 98 86.5 226t53.5 267.5t21 278.5v34h180q0 -170 -39 -366t-105.5 -374t-146.5 -298h-139zM35 1038h183l240 -811
l234 552l71 -177l-258 -602h-139z" />
    <glyph glyph-name="uni0480" unicode="&#x480;" horiz-adv-x="1092" 
d="M339.5 337q-105.5 54 -160 158.5t-54.5 254.5v236q0 156 52 264t153.5 163.5t246.5 55.5q129 0 219 -48t140.5 -144t60.5 -239v0h-173v0q-9 88 -39.5 147t-82 88.5t-125.5 29.5q-135 0 -207 -81.5t-72 -235.5v-236q0 -146 77 -224t222 -78v-165q-152 0 -257.5 54z
M518 448h171v-448h-171v448z" />
    <glyph glyph-name="uni0481" unicode="&#x481;" horiz-adv-x="895" 
d="M287.5 29.5q-86.5 44.5 -132 130t-45.5 205.5v304q0 122 45 208.5t130.5 131.5t205.5 45q98 0 170.5 -30t117 -89t59.5 -145v0l-161 -49v0q-17 74 -64 113t-119 39q-101 0 -157 -59.5t-56 -166.5v-298q0 -109 56.5 -170t158.5 -61v-153q-122 0 -208.5 44.5zM430 138h170
v-397h-170v397z" />
    <glyph glyph-name="uni0482" unicode="&#x482;" horiz-adv-x="1150" 
d="M835 1441l144 -67l-661 -1389l-144 67zM1105 855l-64 -140l-756 356l65 140zM865 361l-64 -140l-756 356l65 140z" />
    <glyph glyph-name="uni0483" unicode="&#x483;" 
d="M-767 1425h671v-156h-671v156zM-767 1372h170v-214h-170v214zM-266 1543h170v-225h-170v225z" />
    <glyph glyph-name="uni0484" unicode="&#x484;" 
d="M-203 1275q0 38 -16.5 57t-49.5 19q-30 0 -64.5 -11.5t-84.5 -34.5q-3 -2 -6.5 -3.5t-6.5 -3.5q-4 -1 -7.5 -3t-6.5 -3q-68 -32 -121 -48t-111 -16h-26v150h23q42 0 86 12.5t98 35.5l8 4l8 4q3 2 7 3.5t7 3.5q74 34 125.5 51t98.5 17q89 0 135.5 -55t46.5 -161v-66h-143
v48z" />
    <glyph glyph-name="uni0485" unicode="&#x485;" 
d="M-757 1425h671v-156h-671v156zM-757 1372h170v-214h-170v214zM-757 1543h170v-225h-170v225z" />
    <glyph glyph-name="uni0486" unicode="&#x486;" 
d="M-756 1425h671v-156h-671v156zM-255 1372h170v-214h-170v214zM-255 1543h170v-225h-170v225z" />
    <glyph glyph-name="uni0487" unicode="&#x487;" 
d="M-189 1242q-50 14 -107 40q-8 3 -15.5 7t-14.5 7q-3 2 -6.5 3.5t-6.5 2.5q-52 25 -88 37t-67 12q-33 0 -49.5 -19t-16.5 -57v-48h-143v66q0 106 46.5 161t135.5 55q48 0 101 -17.5t131 -53.5q5 -2 10 -4.5l11 -5.5q53 -24 97 -37t88 -13h23v-150h-26q-53 0 -103 14z" />
    <glyph glyph-name="uni0488" unicode="&#x488;" 
d="M-1432 1140q0 61 -23.5 92t-67.5 31h-18q-45 0 -68.5 -31t-23.5 -92v-32h-139v35q0 120 59 182.5t172 62.5h18q112 0 171 -62.5t59 -182.5v-35h-139v32zM-1589 676q0 61 -23.5 91.5t-68.5 30.5h-18q-45 0 -68 -30.5t-23 -91.5v-32h-139v35q0 120 58.5 182.5t171.5 62.5
h18q113 0 172 -62.5t59 -182.5v-35h-139v32zM-1432 210q0 61 -23.5 91.5t-67.5 30.5h-18q-45 0 -68.5 -30.5t-23.5 -91.5v-32h-139v35q0 120 59 182.5t172 62.5h18q112 0 171 -62.5t59 -182.5v-35h-139v32zM-329 1140q0 61 -23.5 91.5t-67.5 30.5h-18q-45 0 -68.5 -30.5
t-23.5 -91.5v-32h-139v35q0 120 59 182.5t172 62.5h18q112 0 171 -62.5t59 -182.5v-35h-139v32zM-880 1420q0 61 -23.5 91.5t-68.5 30.5h-18q-45 0 -68 -30.5t-23 -91.5v-32h-139v35q0 120 58.5 182.5t171.5 62.5h18q113 0 172 -62.5t59 -182.5v-35h-139v32zM-171 676
q0 61 -23.5 91.5t-68.5 30.5h-18q-47 0 -71.5 -30.5t-24.5 -91.5v-32h-134v35q0 120 58.5 182.5t171.5 62.5h18q113 0 172 -62.5t59 -182.5v-35h-139v32zM-329 210q0 61 -23.5 91.5t-67.5 30.5h-18q-45 0 -68.5 -30.5t-23.5 -91.5v-32h-139v35q0 120 59 182.5t172 62.5h18
q112 0 171 -62.5t59 -182.5v-35h-139v32zM-880 -159q0 61 -23.5 92t-68.5 31h-18q-45 0 -68 -31t-23 -92v-32h-139v35q0 120 58.5 182.5t171.5 62.5h18q113 0 172 -62.5t59 -182.5v-35h-139v32z" />
    <glyph glyph-name="uni0489" unicode="&#x489;" 
d="M-680 1181l123 117l239 -7l-245 -233zM-1679 168l245 233l117 -123l-123 -117zM-1084 165h170v-170l-170 -168v338zM-1873 815h338v-170h-170zM-680 278l116 123l123 -117l6 -239zM-1557 1175l-6 238l246 -232l-117 -123zM-1084 1463l170 168v-338h-170v170zM-462 815
h170l168 -170h-338v170z" />
    <glyph glyph-name="uni048A" unicode="&#x48a;" horiz-adv-x="1188" 
d="M1014 53l24 -53h-84v149h234l-75 -450h-158zM869 1v1163l37 -3l-625 -1160h-141v1453h166v-1172l-33 7l622 1165h139v-1453h-165zM887 1863q0 -146 -78 -225.5t-220 -79.5h-8q-142 0 -220 79.5t-78 225.5l147 -2q0 -82 39.5 -127t111.5 -45h8q71 0 110.5 45t39.5 127z
" />
    <glyph glyph-name="uni048B" unicode="&#x48b;" horiz-adv-x="1041" 
d="M1030 164l-70 -425h-169l44 263l14 162h181zM697 1v766l24 -26l-446 -740h-140v1037h165v-781l-24 26l448 755h138v-1037h-165zM286.5 1315q-68.5 77 -68.5 227v35h145v-36q0 -83 31.5 -125.5t91.5 -42.5h18q61 0 92.5 42.5t31.5 125.5v36h144v-35q0 -150 -68 -227
t-200 -77h-18q-131 0 -199.5 77z" />
    <glyph glyph-name="uni048C" unicode="&#x48c;" horiz-adv-x="1113" 
d="M18 1271h618v-156h-618v156zM273 161h374q60 0 103.5 25.5t67 74t23.5 114.5v116q0 68 -23.5 117t-67 75t-103.5 26h-374v161h367q116 0 199.5 -45t128.5 -130.5t45 -202.5v-119q0 -116 -45 -200t-128.5 -128.5t-199.5 -44.5h-367v161zM168 1454h170v-1454h-170v1454z
" />
    <glyph glyph-name="uni048D" unicode="&#x48d;" horiz-adv-x="963" 
d="M-5 1038h589v-150h-589v150zM159 1454h169v-554h-169v554zM247 161h292q70 0 111 42.5t41 115.5v39q0 49 -18.5 85t-53 55.5t-80.5 19.5h-292v160h304q97 0 168.5 -37t110 -106t38.5 -164v-65q0 -93 -39.5 -162t-113.5 -106.5t-174 -37.5h-294v161zM159 1038h171v-1038
h-171v1038z" />
    <glyph glyph-name="uni048E" unicode="&#x48e;" horiz-adv-x="1085" 
d="M479 883l126 77l329 -528l-127 -78zM245 725h379q58 0 102 26.5t67.5 76.5t23.5 116v127q0 68 -23.5 118t-67 77.5t-102.5 27.5h-379v160h373q113 0 197 -46.5t129.5 -133t45.5 -203.5v-129q0 -115 -45.5 -200.5t-129.5 -131.5t-197 -46h-373v161zM140 1454h171v-1454
h-171v1454z" />
    <glyph glyph-name="uni048F" unicode="&#x48f;" horiz-adv-x="969" 
d="M409 324l126 68l282 -535l-127 -69zM135 1038h171v-1460h-171v1460zM390 30.5q-69 45.5 -98 132.5l14 188q0 -63 22.5 -111.5t65 -75.5t101.5 -27q93 0 144 60t51 168v310q0 108 -51 168t-144 60q-59 0 -101.5 -26.5t-65 -74t-22.5 -108.5l-21 171q41 93 114.5 141.5
t164.5 48.5q93 0 159.5 -44.5t101 -129t34.5 -204.5v-314q0 -119 -35.5 -204t-104 -129.5t-165.5 -44.5q-95 0 -164 45.5z" />
    <glyph glyph-name="uni0490" unicode="&#x490;" horiz-adv-x="800" 
d="M639 1696h171v-354h-171v354zM140 1454h171v-1454h-171v1454zM253 1454h557v-160h-557v160z" />
    <glyph glyph-name="uni0491" unicode="&#x491;" horiz-adv-x="752" 
d="M539 1216h171v-296h-171v296zM135 1038h171v-1038h-171v1038zM243 1038h467v-160h-467v160z" />
    <glyph glyph-name="uni0492" unicode="&#x492;" horiz-adv-x="910" 
d="M75 802h665v-160h-665v160zM251 1454h170v-1454h-170v1454zM364 1454h556v-160h-556v160z" />
    <glyph glyph-name="uni0493" unicode="&#x493;" horiz-adv-x="822" 
d="M40 574h594v-156h-594v156zM205 1038h170v-1038h-170v1038zM313 1038h466v-160h-466v160z" />
    <glyph glyph-name="uni0494" unicode="&#x494;" horiz-adv-x="1066" 
d="M544 -108h45q119 0 177 64t58 193v288q0 144 -61.5 218t-182.5 74q-133 0 -201.5 -62.5t-68.5 -183.5v-115l-44 60v108q0 116 39.5 194.5t116.5 118.5t191 40q126 0 211.5 -51.5t128.5 -153.5t43 -253v-273q0 -144 -43.5 -238.5t-131.5 -141t-222 -46.5h-55v160z
M140 1454h171v-1454h-171v1454zM253 1454h557v-160h-557v160z" />
    <glyph glyph-name="uni0495" unicode="&#x495;" horiz-adv-x="959" 
d="M736.5 590.5q71.5 -49.5 109.5 -144t38 -226.5v-243q0 -130 -43.5 -219t-127 -134.5t-204.5 -45.5h-39v161h29q103 0 158 62.5t55 183.5v240q0 120 -54 187t-151 67q-96 0 -149 -54.5t-53 -152.5v-87l-45 20v113q0 154 79.5 238t224.5 84q101 0 172.5 -49.5zM135 1038
h171v-1038h-171v1038zM243 1038h467v-160h-467v160z" />
    <glyph glyph-name="uni0496" unicode="&#x496;" horiz-adv-x="1746" 
d="M1047 786l356 668h197l-442 -804zM1044 657l150 88l467 -745h-213zM473 745l149 -88l-404 -657h-213zM66 1454h197l356 -668l-110 -136zM468 802h731v-160h-731v160zM748 1454h170v-1454h-170v1454zM1742 161v-462h-171v462h171zM1646 134v-134h-72v134h72z" />
    <glyph glyph-name="uni0497" unicode="&#x497;" horiz-adv-x="1387" 
d="M811 456l131 100l360 -556h-200zM355 556l131 -100l-290 -456h-201zM44 1038h187l256 -460l-112 -122zM563 1038h171v-1038h-171v1038zM352 596h603v-156h-603v156zM811 578l255 460h188l-332 -582zM1370 158v-419h-171v419h171z" />
    <glyph glyph-name="uni0498" unicode="&#x498;" horiz-adv-x="1038" 
d="M620 107v-408h-171v408h171zM307 28q-95 43 -149 125t-63 197v38h173v-33q10 -99 80 -152.5t188 -53.5q116 0 180 62t64 176v78q0 100 -52 155t-148 55h-212v163h212q84 0 130 46.5t46 131.5v82q0 101 -57 154t-164 53q-101 0 -165 -50.5t-79 -142.5v-35h-172v35
q18 170 127 263.5t289 93.5q126 0 214 -42t134 -123.5t46 -197.5v-81q0 -84 -43.5 -153.5t-122.5 -112.5q91 -27 140.5 -105.5t49.5 -193.5v-79q0 -125 -49.5 -214t-144 -135.5t-228.5 -46.5q-129 0 -224 43z" />
    <glyph glyph-name="uni0499" unicode="&#x499;" horiz-adv-x="806" 
d="M483 99v-360h-170v360h170zM166.5 59q-87.5 74 -97.5 209v35h163v-25q7 -66 52 -102t121 -36q80 0 124 38.5t44 108.5v58q0 54 -39 83.5t-111 29.5h-125v151h125q58 0 89.5 29t31.5 82v53q0 60 -39.5 93t-110.5 33q-69 0 -112.5 -33t-53.5 -94v-25h-163v30
q15 132 101 205t228 73q150 0 233 -69t83 -195v-58q0 -65 -33 -114t-97 -76q78 -15 118.5 -65.5t40.5 -130.5v-69q0 -139 -87.5 -216t-248.5 -77q-149 0 -236.5 74z" />
    <glyph glyph-name="uni049A" unicode="&#x49a;" horiz-adv-x="1182" 
d="M479 786l361 668h196l-445 -804zM476 657l151 88l470 -745h-212zM140 1454h171v-1454h-171v1454zM239 802h393v-160h-393v160zM1178 161v-462h-171v462h171zM1082 134v-134h-72v134h72z" />
    <glyph glyph-name="uni049B" unicode="&#x49b;" horiz-adv-x="1042" 
d="M449 578l238 460h191l-326 -598zM135 1038h171v-1038h-171v1038zM450 455l134 100l343 -555h-205zM234 597h363v-159h-363v159zM999 158v-419h-171v419h171z" />
    <glyph glyph-name="uni049C" unicode="&#x49c;" horiz-adv-x="1102" 
d="M140 1454h171v-1454h-171v1454zM551 786l289 668h196l-373 -804zM550 657l149 88l398 -745h-212zM239 802h465v-160h-465v160zM388 1049h126v-654h-126v654z" />
    </font>
</defs>
</svg>
